<?xml version="1.0" encoding="UTF-8" standalone="no"?>
<!DOCTYPE svg PUBLIC "-//W3C//DTD SVG 1.1//EN"
 "http://www.w3.org/Graphics/SVG/1.1/DTD/svg11.dtd">
<!-- Generated by graphviz version 12.1.2 (0)
 -->
<!-- Pages: 1 -->
<svg width="1645pt" height="2060pt"
 viewBox="0.00 0.00 1645.22 2060.00" xmlns="http://www.w3.org/2000/svg" xmlns:xlink="http://www.w3.org/1999/xlink">
<g id="graph0" class="graph" transform="scale(1 1) rotate(0) translate(4 2056)">
<polygon fill="white" stroke="none" points="-4,4 -4,-2056 1641.22,-2056 1641.22,4 -4,4"/>
<!-- base_assembled -->
<g id="node1" class="node">
<title>base_assembled</title>
<polygon fill="none" stroke="black" points="960.68,-1548 795.55,-1548 753.07,-1512 918.2,-1512 960.68,-1548"/>
<text text-anchor="middle" x="856.88" y="-1524.95" font-family="Times,serif" font-size="14.00">base_assembled</text>
</g>
<!-- connect_all_6_mta100_cables -->
<g id="node30" class="node">
<title>connect_all_6_mta100_cables</title>
<ellipse fill="none" stroke="black" cx="856.88" cy="-1458" rx="123" ry="18"/>
<text text-anchor="middle" x="856.88" y="-1452.95" font-family="Times,serif" font-size="14.00">connect_all_6_mta100_cables</text>
</g>
<!-- base_assembled&#45;&gt;connect_all_6_mta100_cables -->
<g id="edge20" class="edge">
<title>base_assembled&#45;&gt;connect_all_6_mta100_cables</title>
<path fill="none" stroke="black" d="M856.88,-1511.7C856.88,-1504.41 856.88,-1495.73 856.88,-1487.54"/>
<polygon fill="black" stroke="black" points="860.38,-1487.62 856.88,-1477.62 853.38,-1487.62 860.38,-1487.62"/>
</g>
<!-- base_wired -->
<g id="node2" class="node">
<title>base_wired</title>
<polygon fill="none" stroke="black" points="540.42,-972 417.07,-972 385.34,-936 508.69,-936 540.42,-972"/>
<text text-anchor="middle" x="462.88" y="-948.95" font-family="Times,serif" font-size="14.00">base_wired</text>
</g>
<!-- attach_front_panel_to_audio_brd -->
<g id="node45" class="node">
<title>attach_front_panel_to_audio_brd</title>
<ellipse fill="none" stroke="black" cx="462.88" cy="-882" rx="133.75" ry="18"/>
<text text-anchor="middle" x="462.88" y="-876.95" font-family="Times,serif" font-size="14.00">attach_front_panel_to_audio_brd</text>
</g>
<!-- base_wired&#45;&gt;attach_front_panel_to_audio_brd -->
<g id="edge46" class="edge">
<title>base_wired&#45;&gt;attach_front_panel_to_audio_brd</title>
<path fill="none" stroke="black" d="M462.88,-935.7C462.88,-928.41 462.88,-919.73 462.88,-911.54"/>
<polygon fill="black" stroke="black" points="466.38,-911.62 462.88,-901.62 459.38,-911.62 466.38,-911.62"/>
</g>
<!-- done -->
<g id="node3" class="node">
<title>done</title>
<polygon fill="none" stroke="black" points="707.15,-36 639.9,-36 622.61,0 689.85,0 707.15,-36"/>
<text text-anchor="middle" x="664.88" y="-12.95" font-family="Times,serif" font-size="14.00">done</text>
</g>
<!-- connect_micro_hdmi_cable -->
<g id="node4" class="node">
<title>connect_micro_hdmi_cable</title>
<ellipse fill="#ea7146" stroke="black" cx="176.88" cy="-1170" rx="114.3" ry="18"/>
<text text-anchor="middle" x="176.88" y="-1164.95" font-family="Times,serif" font-size="14.00">connect_micro_hdmi_cable</text>
</g>
<!-- connect_ethernet_cable -->
<g id="node43" class="node">
<title>connect_ethernet_cable</title>
<ellipse fill="none" stroke="black" cx="462.88" cy="-1098" rx="97.93" ry="18"/>
<text text-anchor="middle" x="462.88" y="-1092.95" font-family="Times,serif" font-size="14.00">connect_ethernet_cable</text>
</g>
<!-- connect_micro_hdmi_cable&#45;&gt;connect_ethernet_cable -->
<g id="edge38" class="edge">
<title>connect_micro_hdmi_cable&#45;&gt;connect_ethernet_cable</title>
<path fill="none" stroke="black" d="M236.83,-1154.33C283.03,-1143.02 346.92,-1127.38 394.99,-1115.61"/>
<polygon fill="black" stroke="black" points="395.57,-1119.08 404.45,-1113.3 393.91,-1112.28 395.57,-1119.08"/>
</g>
<!-- place_display_on_display_hat -->
<g id="node5" class="node">
<title>place_display_on_display_hat</title>
<ellipse fill="#ea7146" stroke="black" cx="1186.88" cy="-1746" rx="122.49" ry="18"/>
<text text-anchor="middle" x="1186.88" y="-1740.95" font-family="Times,serif" font-size="14.00">place_display_on_display_hat</text>
</g>
<!-- place_display_hat_on_display_holders -->
<g id="node28" class="node">
<title>place_display_hat_on_display_holders</title>
<ellipse fill="none" stroke="black" cx="1203.88" cy="-1674" rx="154.22" ry="18"/>
<text text-anchor="middle" x="1203.88" y="-1668.95" font-family="Times,serif" font-size="14.00">place_display_hat_on_display_holders</text>
</g>
<!-- place_display_on_display_hat&#45;&gt;place_display_hat_on_display_holders -->
<g id="edge14" class="edge">
<title>place_display_on_display_hat&#45;&gt;place_display_hat_on_display_holders</title>
<path fill="none" stroke="black" d="M1191.08,-1727.7C1192.87,-1720.32 1195.01,-1711.52 1197.02,-1703.25"/>
<polygon fill="black" stroke="black" points="1200.41,-1704.12 1199.37,-1693.58 1193.61,-1702.47 1200.41,-1704.12"/>
</g>
<!-- connect_audio_jack_cable -->
<g id="node6" class="node">
<title>connect_audio_jack_cable</title>
<ellipse fill="#ea7146" stroke="black" cx="856.88" cy="-1386" rx="108.67" ry="18"/>
<text text-anchor="middle" x="856.88" y="-1380.95" font-family="Times,serif" font-size="14.00">connect_audio_jack_cable</text>
</g>
<!-- connect_micro_usb_cable -->
<g id="node40" class="node">
<title>connect_micro_usb_cable</title>
<ellipse fill="none" stroke="black" cx="739.88" cy="-1314" rx="107.65" ry="18"/>
<text text-anchor="middle" x="739.88" y="-1308.95" font-family="Times,serif" font-size="14.00">connect_micro_usb_cable</text>
</g>
<!-- connect_audio_jack_cable&#45;&gt;connect_micro_usb_cable -->
<g id="edge39" class="edge">
<title>connect_audio_jack_cable&#45;&gt;connect_micro_usb_cable</title>
<path fill="none" stroke="black" d="M828.85,-1368.23C813.37,-1358.97 793.93,-1347.34 777.18,-1337.32"/>
<polygon fill="black" stroke="black" points="779.35,-1334.54 768.97,-1332.41 775.76,-1340.54 779.35,-1334.54"/>
</g>
<!-- connect_ptru_usb_cable -->
<g id="node7" class="node">
<title>connect_ptru_usb_cable</title>
<ellipse fill="#eac546" stroke="black" cx="738.88" cy="-1242" rx="100.48" ry="18"/>
<text text-anchor="middle" x="738.88" y="-1236.95" font-family="Times,serif" font-size="14.00">connect_ptru_usb_cable</text>
</g>
<!-- connect_hagibis_usb_cable -->
<g id="node42" class="node">
<title>connect_hagibis_usb_cable</title>
<ellipse fill="none" stroke="black" cx="733.88" cy="-1170" rx="112.26" ry="18"/>
<text text-anchor="middle" x="733.88" y="-1164.95" font-family="Times,serif" font-size="14.00">connect_hagibis_usb_cable</text>
</g>
<!-- connect_ptru_usb_cable&#45;&gt;connect_hagibis_usb_cable -->
<g id="edge36" class="edge">
<title>connect_ptru_usb_cable&#45;&gt;connect_hagibis_usb_cable</title>
<path fill="none" stroke="black" d="M737.64,-1223.7C737.12,-1216.41 736.5,-1207.73 735.92,-1199.54"/>
<polygon fill="black" stroke="black" points="739.41,-1199.34 735.21,-1189.61 732.43,-1199.84 739.41,-1199.34"/>
</g>
<!-- screw_box_shut -->
<g id="node8" class="node">
<title>screw_box_shut</title>
<ellipse fill="#eac546" stroke="black" cx="664.88" cy="-90" rx="70.8" ry="18"/>
<text text-anchor="middle" x="664.88" y="-84.95" font-family="Times,serif" font-size="14.00">screw_box_shut</text>
</g>
<!-- screw_box_shut&#45;&gt;done -->
<g id="edge62" class="edge">
<title>screw_box_shut&#45;&gt;done</title>
<path fill="none" stroke="black" d="M664.88,-71.7C664.88,-64.41 664.88,-55.73 664.88,-47.54"/>
<polygon fill="black" stroke="black" points="668.38,-47.62 664.88,-37.62 661.38,-47.62 668.38,-47.62"/>
</g>
<!-- dilate_radxa_holes -->
<g id="node9" class="node">
<title>dilate_radxa_holes</title>
<ellipse fill="#8dd427" stroke="black" cx="682.88" cy="-2034" rx="80.52" ry="18"/>
<text text-anchor="middle" x="682.88" y="-2028.95" font-family="Times,serif" font-size="14.00">dilate_radxa_holes</text>
</g>
<!-- clean_radxa_cpu -->
<g id="node15" class="node">
<title>clean_radxa_cpu</title>
<ellipse fill="none" stroke="black" cx="682.88" cy="-1962" rx="73.36" ry="18"/>
<text text-anchor="middle" x="682.88" y="-1956.95" font-family="Times,serif" font-size="14.00">clean_radxa_cpu</text>
</g>
<!-- dilate_radxa_holes&#45;&gt;clean_radxa_cpu -->
<g id="edge1" class="edge">
<title>dilate_radxa_holes&#45;&gt;clean_radxa_cpu</title>
<path fill="none" stroke="black" d="M682.88,-2015.7C682.88,-2008.41 682.88,-1999.73 682.88,-1991.54"/>
<polygon fill="black" stroke="black" points="686.38,-1991.62 682.88,-1981.62 679.38,-1991.62 686.38,-1991.62"/>
</g>
<!-- cut_pwr_cable -->
<g id="node10" class="node">
<title>cut_pwr_cable</title>
<ellipse fill="#8dd427" stroke="black" cx="222.88" cy="-1674" rx="65.17" ry="18"/>
<text text-anchor="middle" x="222.88" y="-1668.95" font-family="Times,serif" font-size="14.00">cut_pwr_cable</text>
</g>
<!-- strip_ends_of_pwr_cable -->
<g id="node11" class="node">
<title>strip_ends_of_pwr_cable</title>
<ellipse fill="#8dd427" stroke="black" cx="222.88" cy="-1602" rx="104.07" ry="18"/>
<text text-anchor="middle" x="222.88" y="-1596.95" font-family="Times,serif" font-size="14.00">strip_ends_of_pwr_cable</text>
</g>
<!-- cut_pwr_cable&#45;&gt;strip_ends_of_pwr_cable -->
<g id="edge26" class="edge">
<title>cut_pwr_cable&#45;&gt;strip_ends_of_pwr_cable</title>
<path fill="none" stroke="black" d="M222.88,-1655.7C222.88,-1648.41 222.88,-1639.73 222.88,-1631.54"/>
<polygon fill="black" stroke="black" points="226.38,-1631.62 222.88,-1621.62 219.38,-1631.62 226.38,-1631.62"/>
</g>
<!-- tin_ends_of_pwr_cable -->
<g id="node12" class="node">
<title>tin_ends_of_pwr_cable</title>
<ellipse fill="#8dd427" stroke="black" cx="222.88" cy="-1530" rx="97.41" ry="18"/>
<text text-anchor="middle" x="222.88" y="-1524.95" font-family="Times,serif" font-size="14.00">tin_ends_of_pwr_cable</text>
</g>
<!-- strip_ends_of_pwr_cable&#45;&gt;tin_ends_of_pwr_cable -->
<g id="edge27" class="edge">
<title>strip_ends_of_pwr_cable&#45;&gt;tin_ends_of_pwr_cable</title>
<path fill="none" stroke="black" d="M222.88,-1583.7C222.88,-1576.41 222.88,-1567.73 222.88,-1559.54"/>
<polygon fill="black" stroke="black" points="226.38,-1559.62 222.88,-1549.62 219.38,-1559.62 226.38,-1559.62"/>
</g>
<!-- solder_pwr_cable_to_barrel_jack -->
<g id="node13" class="node">
<title>solder_pwr_cable_to_barrel_jack</title>
<ellipse fill="#8dd427" stroke="black" cx="343.88" cy="-1458" rx="134.26" ry="18"/>
<text text-anchor="middle" x="343.88" y="-1452.95" font-family="Times,serif" font-size="14.00">solder_pwr_cable_to_barrel_jack</text>
</g>
<!-- tin_ends_of_pwr_cable&#45;&gt;solder_pwr_cable_to_barrel_jack -->
<g id="edge28" class="edge">
<title>tin_ends_of_pwr_cable&#45;&gt;solder_pwr_cable_to_barrel_jack</title>
<path fill="none" stroke="black" d="M251.55,-1512.41C267.44,-1503.22 287.43,-1491.66 304.74,-1481.64"/>
<polygon fill="black" stroke="black" points="306.35,-1484.75 313.26,-1476.71 302.85,-1478.69 306.35,-1484.75"/>
</g>
<!-- insert_pwr_cable_through_back_panel -->
<g id="node36" class="node">
<title>insert_pwr_cable_through_back_panel</title>
<ellipse fill="none" stroke="black" cx="343.88" cy="-1386" rx="154.22" ry="18"/>
<text text-anchor="middle" x="343.88" y="-1380.95" font-family="Times,serif" font-size="14.00">insert_pwr_cable_through_back_panel</text>
</g>
<!-- solder_pwr_cable_to_barrel_jack&#45;&gt;insert_pwr_cable_through_back_panel -->
<g id="edge30" class="edge">
<title>solder_pwr_cable_to_barrel_jack&#45;&gt;insert_pwr_cable_through_back_panel</title>
<path fill="none" stroke="black" d="M343.88,-1439.7C343.88,-1432.41 343.88,-1423.73 343.88,-1415.54"/>
<polygon fill="black" stroke="black" points="347.38,-1415.62 343.88,-1405.62 340.38,-1415.62 347.38,-1415.62"/>
</g>
<!-- remove_ring_from_barrel_jack -->
<g id="node14" class="node">
<title>remove_ring_from_barrel_jack</title>
<ellipse fill="#8dd427" stroke="black" cx="465.88" cy="-1530" rx="127.61" ry="18"/>
<text text-anchor="middle" x="465.88" y="-1524.95" font-family="Times,serif" font-size="14.00">remove_ring_from_barrel_jack</text>
</g>
<!-- remove_ring_from_barrel_jack&#45;&gt;solder_pwr_cable_to_barrel_jack -->
<g id="edge29" class="edge">
<title>remove_ring_from_barrel_jack&#45;&gt;solder_pwr_cable_to_barrel_jack</title>
<path fill="none" stroke="black" d="M436.35,-1512.05C420.43,-1502.92 400.58,-1491.53 383.35,-1481.65"/>
<polygon fill="black" stroke="black" points="385.29,-1478.73 374.87,-1476.78 381.81,-1484.8 385.29,-1478.73"/>
</g>
<!-- stick_thermal_pad_on_radxa -->
<g id="node17" class="node">
<title>stick_thermal_pad_on_radxa</title>
<ellipse fill="none" stroke="black" cx="772.88" cy="-1890" rx="118.4" ry="18"/>
<text text-anchor="middle" x="772.88" y="-1884.95" font-family="Times,serif" font-size="14.00">stick_thermal_pad_on_radxa</text>
</g>
<!-- clean_radxa_cpu&#45;&gt;stick_thermal_pad_on_radxa -->
<g id="edge3" class="edge">
<title>clean_radxa_cpu&#45;&gt;stick_thermal_pad_on_radxa</title>
<path fill="none" stroke="black" d="M704.21,-1944.41C715.58,-1935.56 729.78,-1924.52 742.31,-1914.77"/>
<polygon fill="black" stroke="black" points="744.14,-1917.79 749.88,-1908.89 739.84,-1912.26 744.14,-1917.79"/>
</g>
<!-- prepare_thermal_pad -->
<g id="node16" class="node">
<title>prepare_thermal_pad</title>
<ellipse fill="none" stroke="black" cx="863.88" cy="-1962" rx="89.74" ry="18"/>
<text text-anchor="middle" x="863.88" y="-1956.95" font-family="Times,serif" font-size="14.00">prepare_thermal_pad</text>
</g>
<!-- prepare_thermal_pad&#45;&gt;stick_thermal_pad_on_radxa -->
<g id="edge2" class="edge">
<title>prepare_thermal_pad&#45;&gt;stick_thermal_pad_on_radxa</title>
<path fill="none" stroke="black" d="M842.31,-1944.41C830.81,-1935.56 816.45,-1924.52 803.78,-1914.77"/>
<polygon fill="black" stroke="black" points="806.18,-1912.2 796.12,-1908.88 801.91,-1917.75 806.18,-1912.2"/>
</g>
<!-- mount_radxa_on_baseplate -->
<g id="node19" class="node">
<title>mount_radxa_on_baseplate</title>
<ellipse fill="none" stroke="black" cx="902.88" cy="-1818" rx="112.77" ry="18"/>
<text text-anchor="middle" x="902.88" y="-1812.95" font-family="Times,serif" font-size="14.00">mount_radxa_on_baseplate</text>
</g>
<!-- stick_thermal_pad_on_radxa&#45;&gt;mount_radxa_on_baseplate -->
<g id="edge5" class="edge">
<title>stick_thermal_pad_on_radxa&#45;&gt;mount_radxa_on_baseplate</title>
<path fill="none" stroke="black" d="M804.02,-1872.23C821.38,-1862.88 843.22,-1851.12 861.95,-1841.04"/>
<polygon fill="black" stroke="black" points="863.52,-1844.17 870.66,-1836.35 860.2,-1838.01 863.52,-1844.17"/>
</g>
<!-- clean_baseplate_thermal_area -->
<g id="node18" class="node">
<title>clean_baseplate_thermal_area</title>
<ellipse fill="none" stroke="black" cx="1031.88" cy="-1890" rx="122.49" ry="18"/>
<text text-anchor="middle" x="1031.88" y="-1884.95" font-family="Times,serif" font-size="14.00">clean_baseplate_thermal_area</text>
</g>
<!-- clean_baseplate_thermal_area&#45;&gt;mount_radxa_on_baseplate -->
<g id="edge4" class="edge">
<title>clean_baseplate_thermal_area&#45;&gt;mount_radxa_on_baseplate</title>
<path fill="none" stroke="black" d="M1000.98,-1872.23C983.75,-1862.88 962.08,-1851.12 943.49,-1841.04"/>
<polygon fill="black" stroke="black" points="945.31,-1838.04 934.86,-1836.35 941.98,-1844.2 945.31,-1838.04"/>
</g>
<!-- mount_sap_on_baseplate -->
<g id="node21" class="node">
<title>mount_sap_on_baseplate</title>
<ellipse fill="none" stroke="black" cx="648.88" cy="-1746" rx="104.58" ry="18"/>
<text text-anchor="middle" x="648.88" y="-1740.95" font-family="Times,serif" font-size="14.00">mount_sap_on_baseplate</text>
</g>
<!-- mount_radxa_on_baseplate&#45;&gt;mount_sap_on_baseplate -->
<g id="edge7" class="edge">
<title>mount_radxa_on_baseplate&#45;&gt;mount_sap_on_baseplate</title>
<path fill="none" stroke="black" d="M848.08,-1801.9C808.58,-1791.01 755.14,-1776.29 713.56,-1764.82"/>
<polygon fill="black" stroke="black" points="714.74,-1761.52 704.17,-1762.24 712.88,-1768.27 714.74,-1761.52"/>
</g>
<!-- mount_hagibis_rear_on_baseplate -->
<g id="node22" class="node">
<title>mount_hagibis_rear_on_baseplate</title>
<ellipse fill="none" stroke="black" cx="908.88" cy="-1746" rx="137.85" ry="18"/>
<text text-anchor="middle" x="908.88" y="-1740.95" font-family="Times,serif" font-size="14.00">mount_hagibis_rear_on_baseplate</text>
</g>
<!-- mount_radxa_on_baseplate&#45;&gt;mount_hagibis_rear_on_baseplate -->
<g id="edge8" class="edge">
<title>mount_radxa_on_baseplate&#45;&gt;mount_hagibis_rear_on_baseplate</title>
<path fill="none" stroke="black" d="M904.36,-1799.7C904.99,-1792.41 905.73,-1783.73 906.43,-1775.54"/>
<polygon fill="black" stroke="black" points="909.92,-1775.87 907.28,-1765.61 902.94,-1775.28 909.92,-1775.87"/>
</g>
<!-- mount_display_holders_on_baseplate -->
<g id="node27" class="node">
<title>mount_display_holders_on_baseplate</title>
<ellipse fill="none" stroke="black" cx="1477.88" cy="-1746" rx="150.64" ry="18"/>
<text text-anchor="middle" x="1477.88" y="-1740.95" font-family="Times,serif" font-size="14.00">mount_display_holders_on_baseplate</text>
</g>
<!-- mount_radxa_on_baseplate&#45;&gt;mount_display_holders_on_baseplate -->
<g id="edge13" class="edge">
<title>mount_radxa_on_baseplate&#45;&gt;mount_display_holders_on_baseplate</title>
<path fill="none" stroke="black" d="M984.88,-1805.32C998.24,-1803.49 1011.94,-1801.66 1024.88,-1800 1138.16,-1785.48 1267.59,-1770.5 1359.01,-1760.18"/>
<polygon fill="black" stroke="black" points="1359.2,-1763.69 1368.75,-1759.09 1358.42,-1756.73 1359.2,-1763.69"/>
</g>
<!-- mount_teensy_on_audio_brd -->
<g id="node20" class="node">
<title>mount_teensy_on_audio_brd</title>
<ellipse fill="none" stroke="black" cx="414.88" cy="-1818" rx="118.91" ry="18"/>
<text text-anchor="middle" x="414.88" y="-1812.95" font-family="Times,serif" font-size="14.00">mount_teensy_on_audio_brd</text>
</g>
<!-- mount_teensy_on_audio_brd&#45;&gt;mount_sap_on_baseplate -->
<g id="edge6" class="edge">
<title>mount_teensy_on_audio_brd&#45;&gt;mount_sap_on_baseplate</title>
<path fill="none" stroke="black" d="M467.1,-1801.38C502.78,-1790.71 550.19,-1776.52 587.64,-1765.32"/>
<polygon fill="black" stroke="black" points="588.39,-1768.75 596.97,-1762.53 586.39,-1762.04 588.39,-1768.75"/>
</g>
<!-- mount_sap_on_baseplate&#45;&gt;base_assembled -->
<g id="edge17" class="edge">
<title>mount_sap_on_baseplate&#45;&gt;base_assembled</title>
<path fill="none" stroke="black" d="M650.33,-1727.64C653.96,-1695.04 666.31,-1624.32 706.88,-1584 725.82,-1565.17 751.85,-1553.01 776.92,-1545.16"/>
<polygon fill="black" stroke="black" points="777.87,-1548.52 786.5,-1542.37 775.92,-1541.8 777.87,-1548.52"/>
</g>
<!-- mount_hagibis_front_on_baseplate -->
<g id="node24" class="node">
<title>mount_hagibis_front_on_baseplate</title>
<ellipse fill="none" stroke="black" cx="856.88" cy="-1602" rx="141.43" ry="18"/>
<text text-anchor="middle" x="856.88" y="-1596.95" font-family="Times,serif" font-size="14.00">mount_hagibis_front_on_baseplate</text>
</g>
<!-- mount_hagibis_rear_on_baseplate&#45;&gt;mount_hagibis_front_on_baseplate -->
<g id="edge10" class="edge">
<title>mount_hagibis_rear_on_baseplate&#45;&gt;mount_hagibis_front_on_baseplate</title>
<path fill="none" stroke="black" d="M902.5,-1727.59C893.64,-1703.4 877.52,-1659.36 867,-1630.65"/>
<polygon fill="black" stroke="black" points="870.39,-1629.72 863.66,-1621.53 863.82,-1632.13 870.39,-1629.72"/>
</g>
<!-- disassemble_hagibis_if_needed -->
<g id="node23" class="node">
<title>disassemble_hagibis_if_needed</title>
<ellipse fill="none" stroke="black" cx="1161.88" cy="-1818" rx="128.12" ry="18"/>
<text text-anchor="middle" x="1161.88" y="-1812.95" font-family="Times,serif" font-size="14.00">disassemble_hagibis_if_needed</text>
</g>
<!-- disassemble_hagibis_if_needed&#45;&gt;mount_hagibis_rear_on_baseplate -->
<g id="edge9" class="edge">
<title>disassemble_hagibis_if_needed&#45;&gt;mount_hagibis_rear_on_baseplate</title>
<path fill="none" stroke="black" d="M1105.73,-1801.46C1067.67,-1790.94 1017.16,-1776.96 976.83,-1765.8"/>
<polygon fill="black" stroke="black" points="977.78,-1762.43 967.2,-1763.14 975.91,-1769.18 977.78,-1762.43"/>
</g>
<!-- mount_hagibis_front_on_baseplate&#45;&gt;base_assembled -->
<g id="edge18" class="edge">
<title>mount_hagibis_front_on_baseplate&#45;&gt;base_assembled</title>
<path fill="none" stroke="black" d="M856.88,-1583.7C856.88,-1576.41 856.88,-1567.73 856.88,-1559.54"/>
<polygon fill="black" stroke="black" points="860.38,-1559.62 856.88,-1549.62 853.38,-1559.62 860.38,-1559.62"/>
</g>
<!-- mount_fuse_on_pwr_brd -->
<g id="node25" class="node">
<title>mount_fuse_on_pwr_brd</title>
<ellipse fill="none" stroke="black" cx="655.88" cy="-1818" rx="104.58" ry="18"/>
<text text-anchor="middle" x="655.88" y="-1812.95" font-family="Times,serif" font-size="14.00">mount_fuse_on_pwr_brd</text>
</g>
<!-- mount_fuse_on_pwr_brd&#45;&gt;mount_sap_on_baseplate -->
<g id="edge11" class="edge">
<title>mount_fuse_on_pwr_brd&#45;&gt;mount_sap_on_baseplate</title>
<path fill="none" stroke="black" d="M654.15,-1799.7C653.42,-1792.41 652.55,-1783.73 651.73,-1775.54"/>
<polygon fill="black" stroke="black" points="655.22,-1775.21 650.74,-1765.61 648.25,-1775.91 655.22,-1775.21"/>
</g>
<!-- remove_artifacts_from_display_holders -->
<g id="node26" class="node">
<title>remove_artifacts_from_display_holders</title>
<ellipse fill="none" stroke="black" cx="1477.88" cy="-1818" rx="159.34" ry="18"/>
<text text-anchor="middle" x="1477.88" y="-1812.95" font-family="Times,serif" font-size="14.00">remove_artifacts_from_display_holders</text>
</g>
<!-- remove_artifacts_from_display_holders&#45;&gt;mount_display_holders_on_baseplate -->
<g id="edge12" class="edge">
<title>remove_artifacts_from_display_holders&#45;&gt;mount_display_holders_on_baseplate</title>
<path fill="none" stroke="black" d="M1477.88,-1799.7C1477.88,-1792.41 1477.88,-1783.73 1477.88,-1775.54"/>
<polygon fill="black" stroke="black" points="1481.38,-1775.62 1477.88,-1765.62 1474.38,-1775.62 1481.38,-1775.62"/>
</g>
<!-- mount_display_holders_on_baseplate&#45;&gt;place_display_hat_on_display_holders -->
<g id="edge15" class="edge">
<title>mount_display_holders_on_baseplate&#45;&gt;place_display_hat_on_display_holders</title>
<path fill="none" stroke="black" d="M1416.05,-1729.2C1374.81,-1718.67 1320.41,-1704.77 1277.02,-1693.69"/>
<polygon fill="black" stroke="black" points="1277.98,-1690.32 1267.43,-1691.23 1276.25,-1697.1 1277.98,-1690.32"/>
</g>
<!-- place_radxa_hat_on_radxa_without_connecting -->
<g id="node29" class="node">
<title>place_radxa_hat_on_radxa_without_connecting</title>
<ellipse fill="none" stroke="black" cx="1203.88" cy="-1602" rx="188" ry="18"/>
<text text-anchor="middle" x="1203.88" y="-1596.95" font-family="Times,serif" font-size="14.00">place_radxa_hat_on_radxa_without_connecting</text>
</g>
<!-- place_display_hat_on_display_holders&#45;&gt;place_radxa_hat_on_radxa_without_connecting -->
<g id="edge16" class="edge">
<title>place_display_hat_on_display_holders&#45;&gt;place_radxa_hat_on_radxa_without_connecting</title>
<path fill="none" stroke="black" d="M1203.88,-1655.7C1203.88,-1648.41 1203.88,-1639.73 1203.88,-1631.54"/>
<polygon fill="black" stroke="black" points="1207.38,-1631.62 1203.88,-1621.62 1200.38,-1631.62 1207.38,-1631.62"/>
</g>
<!-- place_radxa_hat_on_radxa_without_connecting&#45;&gt;base_assembled -->
<g id="edge19" class="edge">
<title>place_radxa_hat_on_radxa_without_connecting&#45;&gt;base_assembled</title>
<path fill="none" stroke="black" d="M1125.57,-1585.2C1074.89,-1574.98 1008.52,-1561.59 954.42,-1550.68"/>
<polygon fill="black" stroke="black" points="955.4,-1547.3 944.91,-1548.76 954.02,-1554.17 955.4,-1547.3"/>
</g>
<!-- connect_all_6_mta100_cables&#45;&gt;connect_audio_jack_cable -->
<g id="edge40" class="edge">
<title>connect_all_6_mta100_cables&#45;&gt;connect_audio_jack_cable</title>
<path fill="none" stroke="black" d="M856.88,-1439.7C856.88,-1432.41 856.88,-1423.73 856.88,-1415.54"/>
<polygon fill="black" stroke="black" points="860.38,-1415.62 856.88,-1405.62 853.38,-1415.62 860.38,-1415.62"/>
</g>
<!-- connect_fans_to_pwr_brd -->
<g id="node32" class="node">
<title>connect_fans_to_pwr_brd</title>
<ellipse fill="none" stroke="black" cx="622.88" cy="-1386" rx="107.14" ry="18"/>
<text text-anchor="middle" x="622.88" y="-1380.95" font-family="Times,serif" font-size="14.00">connect_fans_to_pwr_brd</text>
</g>
<!-- connect_all_6_mta100_cables&#45;&gt;connect_fans_to_pwr_brd -->
<g id="edge22" class="edge">
<title>connect_all_6_mta100_cables&#45;&gt;connect_fans_to_pwr_brd</title>
<path fill="none" stroke="black" d="M804.36,-1441.29C768.8,-1430.65 721.67,-1416.55 684.35,-1405.39"/>
<polygon fill="black" stroke="black" points="685.64,-1402.12 675.06,-1402.61 683.64,-1408.83 685.64,-1402.12"/>
</g>
<!-- connect_radxa_to_pwr_board -->
<g id="node35" class="node">
<title>connect_radxa_to_pwr_board</title>
<ellipse fill="none" stroke="black" cx="1104.88" cy="-1386" rx="120.96" ry="18"/>
<text text-anchor="middle" x="1104.88" y="-1380.95" font-family="Times,serif" font-size="14.00">connect_radxa_to_pwr_board</text>
</g>
<!-- connect_all_6_mta100_cables&#45;&gt;connect_radxa_to_pwr_board -->
<g id="edge25" class="edge">
<title>connect_all_6_mta100_cables&#45;&gt;connect_radxa_to_pwr_board</title>
<path fill="none" stroke="black" d="M911.92,-1441.46C949.48,-1430.86 999.43,-1416.76 1039.1,-1405.57"/>
<polygon fill="black" stroke="black" points="1039.86,-1408.99 1048.54,-1402.9 1037.96,-1402.25 1039.86,-1408.99"/>
</g>
<!-- crimp_fan_connectors -->
<g id="node31" class="node">
<title>crimp_fan_connectors</title>
<ellipse fill="none" stroke="black" cx="621.88" cy="-1458" rx="93.83" ry="18"/>
<text text-anchor="middle" x="621.88" y="-1452.95" font-family="Times,serif" font-size="14.00">crimp_fan_connectors</text>
</g>
<!-- crimp_fan_connectors&#45;&gt;connect_fans_to_pwr_brd -->
<g id="edge21" class="edge">
<title>crimp_fan_connectors&#45;&gt;connect_fans_to_pwr_brd</title>
<path fill="none" stroke="black" d="M622.13,-1439.7C622.23,-1432.41 622.35,-1423.73 622.47,-1415.54"/>
<polygon fill="black" stroke="black" points="625.97,-1415.67 622.61,-1405.62 618.97,-1415.57 625.97,-1415.67"/>
</g>
<!-- connect_fans_to_pwr_brd&#45;&gt;connect_micro_usb_cable -->
<g id="edge43" class="edge">
<title>connect_fans_to_pwr_brd&#45;&gt;connect_micro_usb_cable</title>
<path fill="none" stroke="black" d="M650.9,-1368.23C666.39,-1358.97 685.82,-1347.34 702.58,-1337.32"/>
<polygon fill="black" stroke="black" points="704,-1340.54 710.78,-1332.41 700.41,-1334.54 704,-1340.54"/>
</g>
<!-- strip_ends_of_radxa_pwr_cable -->
<g id="node33" class="node">
<title>strip_ends_of_radxa_pwr_cable</title>
<ellipse fill="none" stroke="black" cx="1146.88" cy="-1530" rx="129.15" ry="18"/>
<text text-anchor="middle" x="1146.88" y="-1524.95" font-family="Times,serif" font-size="14.00">strip_ends_of_radxa_pwr_cable</text>
</g>
<!-- attach_terminal_to_radxa_pwr_cable -->
<g id="node34" class="node">
<title>attach_terminal_to_radxa_pwr_cable</title>
<ellipse fill="none" stroke="black" cx="1146.88" cy="-1458" rx="148.59" ry="18"/>
<text text-anchor="middle" x="1146.88" y="-1452.95" font-family="Times,serif" font-size="14.00">attach_terminal_to_radxa_pwr_cable</text>
</g>
<!-- strip_ends_of_radxa_pwr_cable&#45;&gt;attach_terminal_to_radxa_pwr_cable -->
<g id="edge23" class="edge">
<title>strip_ends_of_radxa_pwr_cable&#45;&gt;attach_terminal_to_radxa_pwr_cable</title>
<path fill="none" stroke="black" d="M1146.88,-1511.7C1146.88,-1504.41 1146.88,-1495.73 1146.88,-1487.54"/>
<polygon fill="black" stroke="black" points="1150.38,-1487.62 1146.88,-1477.62 1143.38,-1487.62 1150.38,-1487.62"/>
</g>
<!-- attach_terminal_to_radxa_pwr_cable&#45;&gt;connect_radxa_to_pwr_board -->
<g id="edge24" class="edge">
<title>attach_terminal_to_radxa_pwr_cable&#45;&gt;connect_radxa_to_pwr_board</title>
<path fill="none" stroke="black" d="M1136.5,-1439.7C1131.82,-1431.9 1126.18,-1422.51 1120.98,-1413.83"/>
<polygon fill="black" stroke="black" points="1124.07,-1412.18 1115.92,-1405.4 1118.06,-1415.78 1124.07,-1412.18"/>
</g>
<!-- connect_radxa_to_pwr_board&#45;&gt;connect_micro_usb_cable -->
<g id="edge42" class="edge">
<title>connect_radxa_to_pwr_board&#45;&gt;connect_micro_usb_cable</title>
<path fill="none" stroke="black" d="M1032.77,-1371.17C971.42,-1359.41 883.42,-1342.53 819.91,-1330.35"/>
<polygon fill="black" stroke="black" points="820.72,-1326.94 810.24,-1328.49 819.4,-1333.81 820.72,-1326.94"/>
</g>
<!-- insert_ring_on_barrel_jack -->
<g id="node37" class="node">
<title>insert_ring_on_barrel_jack</title>
<ellipse fill="none" stroke="black" cx="403.88" cy="-1314" rx="110.72" ry="18"/>
<text text-anchor="middle" x="403.88" y="-1308.95" font-family="Times,serif" font-size="14.00">insert_ring_on_barrel_jack</text>
</g>
<!-- insert_pwr_cable_through_back_panel&#45;&gt;insert_ring_on_barrel_jack -->
<g id="edge31" class="edge">
<title>insert_pwr_cable_through_back_panel&#45;&gt;insert_ring_on_barrel_jack</title>
<path fill="none" stroke="black" d="M358.71,-1367.7C365.69,-1359.56 374.14,-1349.69 381.85,-1340.7"/>
<polygon fill="black" stroke="black" points="384.38,-1343.12 388.23,-1333.25 379.07,-1338.57 384.38,-1343.12"/>
</g>
<!-- attach_terminal_to_pwr_cable -->
<g id="node38" class="node">
<title>attach_terminal_to_pwr_cable</title>
<ellipse fill="none" stroke="black" cx="462.88" cy="-1242" rx="123.52" ry="18"/>
<text text-anchor="middle" x="462.88" y="-1236.95" font-family="Times,serif" font-size="14.00">attach_terminal_to_pwr_cable</text>
</g>
<!-- insert_ring_on_barrel_jack&#45;&gt;attach_terminal_to_pwr_cable -->
<g id="edge32" class="edge">
<title>insert_ring_on_barrel_jack&#45;&gt;attach_terminal_to_pwr_cable</title>
<path fill="none" stroke="black" d="M418.46,-1295.7C425.32,-1287.56 433.64,-1277.69 441.22,-1268.7"/>
<polygon fill="black" stroke="black" points="443.72,-1271.16 447.49,-1261.26 438.37,-1266.65 443.72,-1271.16"/>
</g>
<!-- connect_pwr_cable_to_pwr_board -->
<g id="node39" class="node">
<title>connect_pwr_cable_to_pwr_board</title>
<ellipse fill="none" stroke="black" cx="462.88" cy="-1170" rx="138.87" ry="18"/>
<text text-anchor="middle" x="462.88" y="-1164.95" font-family="Times,serif" font-size="14.00">connect_pwr_cable_to_pwr_board</text>
</g>
<!-- attach_terminal_to_pwr_cable&#45;&gt;connect_pwr_cable_to_pwr_board -->
<g id="edge33" class="edge">
<title>attach_terminal_to_pwr_cable&#45;&gt;connect_pwr_cable_to_pwr_board</title>
<path fill="none" stroke="black" d="M462.88,-1223.7C462.88,-1216.41 462.88,-1207.73 462.88,-1199.54"/>
<polygon fill="black" stroke="black" points="466.38,-1199.62 462.88,-1189.62 459.38,-1199.62 466.38,-1199.62"/>
</g>
<!-- connect_pwr_cable_to_pwr_board&#45;&gt;connect_ethernet_cable -->
<g id="edge41" class="edge">
<title>connect_pwr_cable_to_pwr_board&#45;&gt;connect_ethernet_cable</title>
<path fill="none" stroke="black" d="M462.88,-1151.7C462.88,-1144.41 462.88,-1135.73 462.88,-1127.54"/>
<polygon fill="black" stroke="black" points="466.38,-1127.62 462.88,-1117.62 459.38,-1127.62 466.38,-1127.62"/>
</g>
<!-- connect_micro_usb_cable&#45;&gt;connect_ptru_usb_cable -->
<g id="edge34" class="edge">
<title>connect_micro_usb_cable&#45;&gt;connect_ptru_usb_cable</title>
<path fill="none" stroke="black" d="M739.63,-1295.7C739.53,-1288.41 739.4,-1279.73 739.29,-1271.54"/>
<polygon fill="black" stroke="black" points="742.79,-1271.57 739.14,-1261.62 735.79,-1271.67 742.79,-1271.57"/>
</g>
<!-- attach_neutrik_connector_to_back_plate -->
<g id="node41" class="node">
<title>attach_neutrik_connector_to_back_plate</title>
<ellipse fill="none" stroke="black" cx="160.88" cy="-1242" rx="160.88" ry="18"/>
<text text-anchor="middle" x="160.88" y="-1236.95" font-family="Times,serif" font-size="14.00">attach_neutrik_connector_to_back_plate</text>
</g>
<!-- attach_neutrik_connector_to_back_plate&#45;&gt;connect_micro_hdmi_cable -->
<g id="edge35" class="edge">
<title>attach_neutrik_connector_to_back_plate&#45;&gt;connect_micro_hdmi_cable</title>
<path fill="none" stroke="black" d="M164.83,-1223.7C166.52,-1216.32 168.53,-1207.52 170.42,-1199.25"/>
<polygon fill="black" stroke="black" points="173.82,-1200.11 172.63,-1189.58 166.99,-1198.55 173.82,-1200.11"/>
</g>
<!-- connect_hagibis_usb_cable&#45;&gt;connect_ethernet_cable -->
<g id="edge37" class="edge">
<title>connect_hagibis_usb_cable&#45;&gt;connect_ethernet_cable</title>
<path fill="none" stroke="black" d="M676.41,-1154.15C633.29,-1143.02 574.19,-1127.75 529.1,-1116.1"/>
<polygon fill="black" stroke="black" points="529.98,-1112.72 519.42,-1113.6 528.23,-1119.49 529.98,-1112.72"/>
</g>
<!-- attach_cables_to_baseplate -->
<g id="node44" class="node">
<title>attach_cables_to_baseplate</title>
<ellipse fill="none" stroke="black" cx="462.88" cy="-1026" rx="111.23" ry="18"/>
<text text-anchor="middle" x="462.88" y="-1020.95" font-family="Times,serif" font-size="14.00">attach_cables_to_baseplate</text>
</g>
<!-- connect_ethernet_cable&#45;&gt;attach_cables_to_baseplate -->
<g id="edge44" class="edge">
<title>connect_ethernet_cable&#45;&gt;attach_cables_to_baseplate</title>
<path fill="none" stroke="black" d="M462.88,-1079.7C462.88,-1072.41 462.88,-1063.73 462.88,-1055.54"/>
<polygon fill="black" stroke="black" points="466.38,-1055.62 462.88,-1045.62 459.38,-1055.62 466.38,-1055.62"/>
</g>
<!-- attach_cables_to_baseplate&#45;&gt;base_wired -->
<g id="edge45" class="edge">
<title>attach_cables_to_baseplate&#45;&gt;base_wired</title>
<path fill="none" stroke="black" d="M462.88,-1007.7C462.88,-1000.41 462.88,-991.73 462.88,-983.54"/>
<polygon fill="black" stroke="black" points="466.38,-983.62 462.88,-973.62 459.38,-983.62 466.38,-983.62"/>
</g>
<!-- slide_base_and_panels_into_box -->
<g id="node46" class="node">
<title>slide_base_and_panels_into_box</title>
<ellipse fill="none" stroke="black" cx="566.88" cy="-810" rx="132.73" ry="18"/>
<text text-anchor="middle" x="566.88" y="-804.95" font-family="Times,serif" font-size="14.00">slide_base_and_panels_into_box</text>
</g>
<!-- attach_front_panel_to_audio_brd&#45;&gt;slide_base_and_panels_into_box -->
<g id="edge47" class="edge">
<title>attach_front_panel_to_audio_brd&#45;&gt;slide_base_and_panels_into_box</title>
<path fill="none" stroke="black" d="M488.32,-863.88C501.51,-855 517.82,-844.02 532.15,-834.37"/>
<polygon fill="black" stroke="black" points="534.1,-837.28 540.44,-828.79 530.19,-831.47 534.1,-837.28"/>
</g>
<!-- attach_base_to_box -->
<g id="node48" class="node">
<title>attach_base_to_box</title>
<ellipse fill="none" stroke="black" cx="651.88" cy="-738" rx="84.11" ry="18"/>
<text text-anchor="middle" x="651.88" y="-732.95" font-family="Times,serif" font-size="14.00">attach_base_to_box</text>
</g>
<!-- slide_base_and_panels_into_box&#45;&gt;attach_base_to_box -->
<g id="edge49" class="edge">
<title>slide_base_and_panels_into_box&#45;&gt;attach_base_to_box</title>
<path fill="none" stroke="black" d="M587.45,-792.05C598.1,-783.28 611.28,-772.43 622.94,-762.83"/>
<polygon fill="black" stroke="black" points="624.83,-765.81 630.32,-756.75 620.38,-760.41 624.83,-765.81"/>
</g>
<!-- attach_onlyfans_to_box -->
<g id="node49" class="node">
<title>attach_onlyfans_to_box</title>
<ellipse fill="none" stroke="black" cx="453.88" cy="-666" rx="99.46" ry="18"/>
<text text-anchor="middle" x="453.88" y="-660.95" font-family="Times,serif" font-size="14.00">attach_onlyfans_to_box</text>
</g>
<!-- slide_base_and_panels_into_box&#45;&gt;attach_onlyfans_to_box -->
<g id="edge50" class="edge">
<title>slide_base_and_panels_into_box&#45;&gt;attach_onlyfans_to_box</title>
<path fill="none" stroke="black" d="M553.25,-791.87C533.65,-767.24 497.36,-721.64 474.48,-692.88"/>
<polygon fill="black" stroke="black" points="477.47,-691.02 468.5,-685.37 471.99,-695.38 477.47,-691.02"/>
</g>
<!-- prepare_box -->
<g id="node47" class="node">
<title>prepare_box</title>
<ellipse fill="none" stroke="black" cx="671.88" cy="-882" rx="56.98" ry="18"/>
<text text-anchor="middle" x="671.88" y="-876.95" font-family="Times,serif" font-size="14.00">prepare_box</text>
</g>
<!-- prepare_box&#45;&gt;slide_base_and_panels_into_box -->
<g id="edge48" class="edge">
<title>prepare_box&#45;&gt;slide_base_and_panels_into_box</title>
<path fill="none" stroke="black" d="M648.31,-865.29C634.59,-856.14 617.04,-844.44 601.75,-834.25"/>
<polygon fill="black" stroke="black" points="604.09,-831.6 593.83,-828.97 600.21,-837.43 604.09,-831.6"/>
</g>
<!-- stick_battery_to_baseplate -->
<g id="node51" class="node">
<title>stick_battery_to_baseplate</title>
<ellipse fill="none" stroke="black" cx="680.88" cy="-666" rx="109.19" ry="18"/>
<text text-anchor="middle" x="680.88" y="-660.95" font-family="Times,serif" font-size="14.00">stick_battery_to_baseplate</text>
</g>
<!-- attach_base_to_box&#45;&gt;stick_battery_to_baseplate -->
<g id="edge52" class="edge">
<title>attach_base_to_box&#45;&gt;stick_battery_to_baseplate</title>
<path fill="none" stroke="black" d="M659.05,-719.7C662.17,-712.15 665.91,-703.12 669.41,-694.68"/>
<polygon fill="black" stroke="black" points="672.62,-696.08 673.21,-685.5 666.15,-693.4 672.62,-696.08"/>
</g>
<!-- connect_box_to_power_and_network -->
<g id="node50" class="node">
<title>connect_box_to_power_and_network</title>
<ellipse fill="none" stroke="black" cx="566.88" cy="-594" rx="150.13" ry="18"/>
<text text-anchor="middle" x="566.88" y="-588.95" font-family="Times,serif" font-size="14.00">connect_box_to_power_and_network</text>
</g>
<!-- attach_onlyfans_to_box&#45;&gt;connect_box_to_power_and_network -->
<g id="edge51" class="edge">
<title>attach_onlyfans_to_box&#45;&gt;connect_box_to_power_and_network</title>
<path fill="none" stroke="black" d="M480.94,-648.23C495.54,-639.19 513.78,-627.89 529.69,-618.03"/>
<polygon fill="black" stroke="black" points="531.3,-621.15 537.96,-612.91 527.62,-615.2 531.3,-621.15"/>
</g>
<!-- verify_blue_smoke_still_inside -->
<g id="node52" class="node">
<title>verify_blue_smoke_still_inside</title>
<ellipse fill="none" stroke="black" cx="566.88" cy="-522" rx="127.61" ry="18"/>
<text text-anchor="middle" x="566.88" y="-516.95" font-family="Times,serif" font-size="14.00">verify_blue_smoke_still_inside</text>
</g>
<!-- connect_box_to_power_and_network&#45;&gt;verify_blue_smoke_still_inside -->
<g id="edge54" class="edge">
<title>connect_box_to_power_and_network&#45;&gt;verify_blue_smoke_still_inside</title>
<path fill="none" stroke="black" d="M566.88,-575.7C566.88,-568.41 566.88,-559.73 566.88,-551.54"/>
<polygon fill="black" stroke="black" points="570.38,-551.62 566.88,-541.62 563.38,-551.62 570.38,-551.62"/>
</g>
<!-- stick_battery_to_baseplate&#45;&gt;connect_box_to_power_and_network -->
<g id="edge53" class="edge">
<title>stick_battery_to_baseplate&#45;&gt;connect_box_to_power_and_network</title>
<path fill="none" stroke="black" d="M653.57,-648.23C638.84,-639.19 620.45,-627.89 604.39,-618.03"/>
<polygon fill="black" stroke="black" points="606.4,-615.16 596.04,-612.91 602.73,-621.12 606.4,-615.16"/>
</g>
<!-- click_both_bootsel_btns -->
<g id="node53" class="node">
<title>click_both_bootsel_btns</title>
<ellipse fill="none" stroke="black" cx="566.88" cy="-450" rx="101" ry="18"/>
<text text-anchor="middle" x="566.88" y="-444.95" font-family="Times,serif" font-size="14.00">click_both_bootsel_btns</text>
</g>
<!-- verify_blue_smoke_still_inside&#45;&gt;click_both_bootsel_btns -->
<g id="edge55" class="edge">
<title>verify_blue_smoke_still_inside&#45;&gt;click_both_bootsel_btns</title>
<path fill="none" stroke="black" d="M566.88,-503.7C566.88,-496.41 566.88,-487.73 566.88,-479.54"/>
<polygon fill="black" stroke="black" points="570.38,-479.62 566.88,-469.62 563.38,-479.62 570.38,-479.62"/>
</g>
<!-- attach_radxa_hat -->
<g id="node54" class="node">
<title>attach_radxa_hat</title>
<ellipse fill="none" stroke="black" cx="566.88" cy="-378" rx="73.87" ry="18"/>
<text text-anchor="middle" x="566.88" y="-372.95" font-family="Times,serif" font-size="14.00">attach_radxa_hat</text>
</g>
<!-- click_both_bootsel_btns&#45;&gt;attach_radxa_hat -->
<g id="edge56" class="edge">
<title>click_both_bootsel_btns&#45;&gt;attach_radxa_hat</title>
<path fill="none" stroke="black" d="M566.88,-431.7C566.88,-424.41 566.88,-415.73 566.88,-407.54"/>
<polygon fill="black" stroke="black" points="570.38,-407.62 566.88,-397.62 563.38,-407.62 570.38,-407.62"/>
</g>
<!-- run_provisioning_script -->
<g id="node55" class="node">
<title>run_provisioning_script</title>
<ellipse fill="none" stroke="black" cx="566.88" cy="-306" rx="99.46" ry="18"/>
<text text-anchor="middle" x="566.88" y="-300.95" font-family="Times,serif" font-size="14.00">run_provisioning_script</text>
</g>
<!-- attach_radxa_hat&#45;&gt;run_provisioning_script -->
<g id="edge57" class="edge">
<title>attach_radxa_hat&#45;&gt;run_provisioning_script</title>
<path fill="none" stroke="black" d="M566.88,-359.7C566.88,-352.41 566.88,-343.73 566.88,-335.54"/>
<polygon fill="black" stroke="black" points="570.38,-335.62 566.88,-325.62 563.38,-335.62 570.38,-335.62"/>
</g>
<!-- verify_status_on_display -->
<g id="node56" class="node">
<title>verify_status_on_display</title>
<ellipse fill="none" stroke="black" cx="566.88" cy="-234" rx="103.56" ry="18"/>
<text text-anchor="middle" x="566.88" y="-228.95" font-family="Times,serif" font-size="14.00">verify_status_on_display</text>
</g>
<!-- run_provisioning_script&#45;&gt;verify_status_on_display -->
<g id="edge58" class="edge">
<title>run_provisioning_script&#45;&gt;verify_status_on_display</title>
<path fill="none" stroke="black" d="M566.88,-287.7C566.88,-280.41 566.88,-271.73 566.88,-263.54"/>
<polygon fill="black" stroke="black" points="570.38,-263.62 566.88,-253.62 563.38,-263.62 570.38,-263.62"/>
</g>
<!-- close_box -->
<g id="node57" class="node">
<title>close_box</title>
<ellipse fill="none" stroke="black" cx="664.88" cy="-162" rx="48.28" ry="18"/>
<text text-anchor="middle" x="664.88" y="-156.95" font-family="Times,serif" font-size="14.00">close_box</text>
</g>
<!-- verify_status_on_display&#45;&gt;close_box -->
<g id="edge59" class="edge">
<title>verify_status_on_display&#45;&gt;close_box</title>
<path fill="none" stroke="black" d="M590.6,-216.05C603.67,-206.72 620.05,-195.02 634.1,-184.99"/>
<polygon fill="black" stroke="black" points="636.04,-187.9 642.15,-179.24 631.98,-182.2 636.04,-187.9"/>
</g>
<!-- close_box&#45;&gt;screw_box_shut -->
<g id="edge61" class="edge">
<title>close_box&#45;&gt;screw_box_shut</title>
<path fill="none" stroke="black" d="M664.88,-143.7C664.88,-136.41 664.88,-127.73 664.88,-119.54"/>
<polygon fill="black" stroke="black" points="668.38,-119.62 664.88,-109.62 661.38,-119.62 668.38,-119.62"/>
</g>
<!-- insert_case_locks -->
<g id="node58" class="node">
<title>insert_case_locks</title>
<ellipse fill="none" stroke="black" cx="763.88" cy="-234" rx="75.92" ry="18"/>
<text text-anchor="middle" x="763.88" y="-228.95" font-family="Times,serif" font-size="14.00">insert_case_locks</text>
</g>
<!-- insert_case_locks&#45;&gt;close_box -->
<g id="edge60" class="edge">
<title>insert_case_locks&#45;&gt;close_box</title>
<path fill="none" stroke="black" d="M740.42,-216.41C727.1,-206.99 710.26,-195.09 695.86,-184.91"/>
<polygon fill="black" stroke="black" points="698.24,-182.3 688.05,-179.38 694.2,-188.02 698.24,-182.3"/>
</g>
</g>
</svg>
