<?xml version="1.0" encoding="UTF-8" standalone="no"?>
<!DOCTYPE svg PUBLIC "-//W3C//DTD SVG 1.1//EN"
 "http://www.w3.org/Graphics/SVG/1.1/DTD/svg11.dtd">
<!-- Generated by graphviz version 12.1.2 (0)
 -->
<!-- Pages: 1 -->
<svg width="1673pt" height="2060pt"
 viewBox="0.00 0.00 1673.34 2060.00" xmlns="http://www.w3.org/2000/svg" xmlns:xlink="http://www.w3.org/1999/xlink">
<g id="graph0" class="graph" transform="scale(1 1) rotate(0) translate(4 2056)">
<polygon fill="white" stroke="none" points="-4,4 -4,-2056 1669.34,-2056 1669.34,4 -4,4"/>
<!-- base_assembled -->
<g id="node1" class="node">
<title>base_assembled</title>
<polygon fill="none" stroke="black" points="1043.3,-1548 878.17,-1548 835.69,-1512 1000.82,-1512 1043.3,-1548"/>
<text text-anchor="middle" x="939.49" y="-1524.95" font-family="Times,serif" font-size="14.00">base_assembled</text>
</g>
<!-- connect_all_6_mta100_cables -->
<g id="node32" class="node">
<title>connect_all_6_mta100_cables</title>
<ellipse fill="none" stroke="black" cx="951.49" cy="-1458" rx="123" ry="18"/>
<text text-anchor="middle" x="951.49" y="-1452.95" font-family="Times,serif" font-size="14.00">connect_all_6_mta100_cables</text>
</g>
<!-- base_assembled&#45;&gt;connect_all_6_mta100_cables -->
<g id="edge24" class="edge">
<title>base_assembled&#45;&gt;connect_all_6_mta100_cables</title>
<path fill="none" stroke="black" d="M942.46,-1511.7C943.72,-1504.32 945.23,-1495.52 946.65,-1487.25"/>
<polygon fill="black" stroke="black" points="950.06,-1488.04 948.3,-1477.6 943.17,-1486.86 950.06,-1488.04"/>
</g>
<!-- base_wired -->
<g id="node2" class="node">
<title>base_wired</title>
<polygon fill="none" stroke="black" points="591.03,-972 467.68,-972 435.95,-936 559.3,-936 591.03,-972"/>
<text text-anchor="middle" x="513.49" y="-948.95" font-family="Times,serif" font-size="14.00">base_wired</text>
</g>
<!-- attach_front_panel_to_audio_brd -->
<g id="node48" class="node">
<title>attach_front_panel_to_audio_brd</title>
<ellipse fill="none" stroke="black" cx="513.49" cy="-882" rx="133.75" ry="18"/>
<text text-anchor="middle" x="513.49" y="-876.95" font-family="Times,serif" font-size="14.00">attach_front_panel_to_audio_brd</text>
</g>
<!-- base_wired&#45;&gt;attach_front_panel_to_audio_brd -->
<g id="edge50" class="edge">
<title>base_wired&#45;&gt;attach_front_panel_to_audio_brd</title>
<path fill="none" stroke="black" d="M513.49,-935.7C513.49,-928.41 513.49,-919.73 513.49,-911.54"/>
<polygon fill="black" stroke="black" points="516.99,-911.62 513.49,-901.62 509.99,-911.62 516.99,-911.62"/>
</g>
<!-- done -->
<g id="node3" class="node">
<title>done</title>
<polygon fill="none" stroke="black" points="351.77,-36 284.52,-36 267.22,0 334.47,0 351.77,-36"/>
<text text-anchor="middle" x="309.49" y="-12.95" font-family="Times,serif" font-size="14.00">done</text>
</g>
<!-- connect_micro_hdmi_cable -->
<g id="node4" class="node">
<title>connect_micro_hdmi_cable</title>
<ellipse fill="#ea7146" stroke="black" cx="227.49" cy="-1170" rx="114.3" ry="18"/>
<text text-anchor="middle" x="227.49" y="-1164.95" font-family="Times,serif" font-size="14.00">connect_micro_hdmi_cable</text>
</g>
<!-- connect_ethernet_cable -->
<g id="node46" class="node">
<title>connect_ethernet_cable</title>
<ellipse fill="none" stroke="black" cx="513.49" cy="-1098" rx="97.93" ry="18"/>
<text text-anchor="middle" x="513.49" y="-1092.95" font-family="Times,serif" font-size="14.00">connect_ethernet_cable</text>
</g>
<!-- connect_micro_hdmi_cable&#45;&gt;connect_ethernet_cable -->
<g id="edge42" class="edge">
<title>connect_micro_hdmi_cable&#45;&gt;connect_ethernet_cable</title>
<path fill="none" stroke="black" d="M287.45,-1154.33C333.64,-1143.02 397.53,-1127.38 445.61,-1115.61"/>
<polygon fill="black" stroke="black" points="446.19,-1119.08 455.07,-1113.3 444.52,-1112.28 446.19,-1119.08"/>
</g>
<!-- place_display_on_display_hat -->
<g id="node5" class="node">
<title>place_display_on_display_hat</title>
<ellipse fill="#ea7146" stroke="black" cx="122.49" cy="-1746" rx="122.49" ry="18"/>
<text text-anchor="middle" x="122.49" y="-1740.95" font-family="Times,serif" font-size="14.00">place_display_on_display_hat</text>
</g>
<!-- place_display_hat_on_display_holders -->
<g id="node29" class="node">
<title>place_display_hat_on_display_holders</title>
<ellipse fill="none" stroke="black" cx="638.49" cy="-1674" rx="154.22" ry="18"/>
<text text-anchor="middle" x="638.49" y="-1668.95" font-family="Times,serif" font-size="14.00">place_display_hat_on_display_holders</text>
</g>
<!-- place_display_on_display_hat&#45;&gt;place_display_hat_on_display_holders -->
<g id="edge15" class="edge">
<title>place_display_on_display_hat&#45;&gt;place_display_hat_on_display_holders</title>
<path fill="none" stroke="black" d="M210.32,-1733.09C298.37,-1721.14 434.15,-1702.72 529.14,-1689.84"/>
<polygon fill="black" stroke="black" points="529.57,-1693.31 539.01,-1688.5 528.63,-1686.37 529.57,-1693.31"/>
</g>
<!-- connect_audio_jack_cable -->
<g id="node6" class="node">
<title>connect_audio_jack_cable</title>
<ellipse fill="#ea7146" stroke="black" cx="930.49" cy="-1386" rx="108.67" ry="18"/>
<text text-anchor="middle" x="930.49" y="-1380.95" font-family="Times,serif" font-size="14.00">connect_audio_jack_cable</text>
</g>
<!-- connect_micro_usb_cable -->
<g id="node43" class="node">
<title>connect_micro_usb_cable</title>
<ellipse fill="none" stroke="black" cx="806.49" cy="-1314" rx="107.65" ry="18"/>
<text text-anchor="middle" x="806.49" y="-1308.95" font-family="Times,serif" font-size="14.00">connect_micro_usb_cable</text>
</g>
<!-- connect_audio_jack_cable&#45;&gt;connect_micro_usb_cable -->
<g id="edge43" class="edge">
<title>connect_audio_jack_cable&#45;&gt;connect_micro_usb_cable</title>
<path fill="none" stroke="black" d="M900.79,-1368.23C884.23,-1358.88 863.4,-1347.12 845.53,-1337.04"/>
<polygon fill="black" stroke="black" points="847.7,-1334.24 837.27,-1332.37 844.26,-1340.34 847.7,-1334.24"/>
</g>
<!-- connect_ptru_usb_cable -->
<g id="node7" class="node">
<title>connect_ptru_usb_cable</title>
<ellipse fill="#eac546" stroke="black" cx="803.49" cy="-1242" rx="100.48" ry="18"/>
<text text-anchor="middle" x="803.49" y="-1236.95" font-family="Times,serif" font-size="14.00">connect_ptru_usb_cable</text>
</g>
<!-- connect_hagibis_usb_cable -->
<g id="node45" class="node">
<title>connect_hagibis_usb_cable</title>
<ellipse fill="none" stroke="black" cx="789.49" cy="-1170" rx="112.26" ry="18"/>
<text text-anchor="middle" x="789.49" y="-1164.95" font-family="Times,serif" font-size="14.00">connect_hagibis_usb_cable</text>
</g>
<!-- connect_ptru_usb_cable&#45;&gt;connect_hagibis_usb_cable -->
<g id="edge40" class="edge">
<title>connect_ptru_usb_cable&#45;&gt;connect_hagibis_usb_cable</title>
<path fill="none" stroke="black" d="M800.03,-1223.7C798.56,-1216.32 796.8,-1207.52 795.14,-1199.25"/>
<polygon fill="black" stroke="black" points="798.6,-1198.71 793.21,-1189.59 791.74,-1200.08 798.6,-1198.71"/>
</g>
<!-- screw_box_shut -->
<g id="node8" class="node">
<title>screw_box_shut</title>
<ellipse fill="#eac546" stroke="black" cx="309.49" cy="-90" rx="70.8" ry="18"/>
<text text-anchor="middle" x="309.49" y="-84.95" font-family="Times,serif" font-size="14.00">screw_box_shut</text>
</g>
<!-- screw_box_shut&#45;&gt;done -->
<g id="edge66" class="edge">
<title>screw_box_shut&#45;&gt;done</title>
<path fill="none" stroke="black" d="M309.49,-71.7C309.49,-64.41 309.49,-55.73 309.49,-47.54"/>
<polygon fill="black" stroke="black" points="312.99,-47.62 309.49,-37.62 305.99,-47.62 312.99,-47.62"/>
</g>
<!-- dilate_radxa_holes -->
<g id="node9" class="node">
<title>dilate_radxa_holes</title>
<ellipse fill="#8dd427" stroke="black" cx="770.49" cy="-2034" rx="80.52" ry="18"/>
<text text-anchor="middle" x="770.49" y="-2028.95" font-family="Times,serif" font-size="14.00">dilate_radxa_holes</text>
</g>
<!-- clean_radxa_cpu -->
<g id="node15" class="node">
<title>clean_radxa_cpu</title>
<ellipse fill="none" stroke="black" cx="770.49" cy="-1962" rx="73.36" ry="18"/>
<text text-anchor="middle" x="770.49" y="-1956.95" font-family="Times,serif" font-size="14.00">clean_radxa_cpu</text>
</g>
<!-- dilate_radxa_holes&#45;&gt;clean_radxa_cpu -->
<g id="edge1" class="edge">
<title>dilate_radxa_holes&#45;&gt;clean_radxa_cpu</title>
<path fill="none" stroke="black" d="M770.49,-2015.7C770.49,-2008.41 770.49,-1999.73 770.49,-1991.54"/>
<polygon fill="black" stroke="black" points="773.99,-1991.62 770.49,-1981.62 766.99,-1991.62 773.99,-1991.62"/>
</g>
<!-- cut_pwr_cable -->
<g id="node10" class="node">
<title>cut_pwr_cable</title>
<ellipse fill="#8dd427" stroke="black" cx="388.49" cy="-1674" rx="65.17" ry="18"/>
<text text-anchor="middle" x="388.49" y="-1668.95" font-family="Times,serif" font-size="14.00">cut_pwr_cable</text>
</g>
<!-- strip_ends_of_pwr_cable -->
<g id="node11" class="node">
<title>strip_ends_of_pwr_cable</title>
<ellipse fill="#8dd427" stroke="black" cx="388.49" cy="-1602" rx="104.07" ry="18"/>
<text text-anchor="middle" x="388.49" y="-1596.95" font-family="Times,serif" font-size="14.00">strip_ends_of_pwr_cable</text>
</g>
<!-- cut_pwr_cable&#45;&gt;strip_ends_of_pwr_cable -->
<g id="edge30" class="edge">
<title>cut_pwr_cable&#45;&gt;strip_ends_of_pwr_cable</title>
<path fill="none" stroke="black" d="M388.49,-1655.7C388.49,-1648.41 388.49,-1639.73 388.49,-1631.54"/>
<polygon fill="black" stroke="black" points="391.99,-1631.62 388.49,-1621.62 384.99,-1631.62 391.99,-1631.62"/>
</g>
<!-- tin_ends_of_pwr_cable -->
<g id="node12" class="node">
<title>tin_ends_of_pwr_cable</title>
<ellipse fill="#8dd427" stroke="black" cx="388.49" cy="-1530" rx="97.41" ry="18"/>
<text text-anchor="middle" x="388.49" y="-1524.95" font-family="Times,serif" font-size="14.00">tin_ends_of_pwr_cable</text>
</g>
<!-- strip_ends_of_pwr_cable&#45;&gt;tin_ends_of_pwr_cable -->
<g id="edge31" class="edge">
<title>strip_ends_of_pwr_cable&#45;&gt;tin_ends_of_pwr_cable</title>
<path fill="none" stroke="black" d="M388.49,-1583.7C388.49,-1576.41 388.49,-1567.73 388.49,-1559.54"/>
<polygon fill="black" stroke="black" points="391.99,-1559.62 388.49,-1549.62 384.99,-1559.62 391.99,-1559.62"/>
</g>
<!-- solder_pwr_cable_to_barrel_jack -->
<g id="node13" class="node">
<title>solder_pwr_cable_to_barrel_jack</title>
<ellipse fill="#8dd427" stroke="black" cx="360.49" cy="-1458" rx="134.26" ry="18"/>
<text text-anchor="middle" x="360.49" y="-1452.95" font-family="Times,serif" font-size="14.00">solder_pwr_cable_to_barrel_jack</text>
</g>
<!-- tin_ends_of_pwr_cable&#45;&gt;solder_pwr_cable_to_barrel_jack -->
<g id="edge32" class="edge">
<title>tin_ends_of_pwr_cable&#45;&gt;solder_pwr_cable_to_barrel_jack</title>
<path fill="none" stroke="black" d="M381.57,-1511.7C378.55,-1504.15 374.94,-1495.12 371.56,-1486.68"/>
<polygon fill="black" stroke="black" points="374.86,-1485.49 367.9,-1477.51 368.36,-1488.09 374.86,-1485.49"/>
</g>
<!-- insert_pwr_cable_through_back_panel -->
<g id="node39" class="node">
<title>insert_pwr_cable_through_back_panel</title>
<ellipse fill="none" stroke="black" cx="385.49" cy="-1386" rx="154.22" ry="18"/>
<text text-anchor="middle" x="385.49" y="-1380.95" font-family="Times,serif" font-size="14.00">insert_pwr_cable_through_back_panel</text>
</g>
<!-- solder_pwr_cable_to_barrel_jack&#45;&gt;insert_pwr_cable_through_back_panel -->
<g id="edge34" class="edge">
<title>solder_pwr_cable_to_barrel_jack&#45;&gt;insert_pwr_cable_through_back_panel</title>
<path fill="none" stroke="black" d="M366.67,-1439.7C369.37,-1432.15 372.59,-1423.12 375.61,-1414.68"/>
<polygon fill="black" stroke="black" points="378.81,-1416.12 378.87,-1405.53 372.22,-1413.77 378.81,-1416.12"/>
</g>
<!-- remove_ring_from_barrel_jack -->
<g id="node14" class="node">
<title>remove_ring_from_barrel_jack</title>
<ellipse fill="#8dd427" stroke="black" cx="145.49" cy="-1530" rx="127.61" ry="18"/>
<text text-anchor="middle" x="145.49" y="-1524.95" font-family="Times,serif" font-size="14.00">remove_ring_from_barrel_jack</text>
</g>
<!-- remove_ring_from_barrel_jack&#45;&gt;solder_pwr_cable_to_barrel_jack -->
<g id="edge33" class="edge">
<title>remove_ring_from_barrel_jack&#45;&gt;solder_pwr_cable_to_barrel_jack</title>
<path fill="none" stroke="black" d="M194.82,-1512.94C226.25,-1502.71 267.19,-1489.38 300.5,-1478.53"/>
<polygon fill="black" stroke="black" points="301.16,-1482 309.59,-1475.57 298.99,-1475.34 301.16,-1482"/>
</g>
<!-- stick_thermal_pad_on_radxa -->
<g id="node17" class="node">
<title>stick_thermal_pad_on_radxa</title>
<ellipse fill="none" stroke="black" cx="749.49" cy="-1890" rx="118.4" ry="18"/>
<text text-anchor="middle" x="749.49" y="-1884.95" font-family="Times,serif" font-size="14.00">stick_thermal_pad_on_radxa</text>
</g>
<!-- clean_radxa_cpu&#45;&gt;stick_thermal_pad_on_radxa -->
<g id="edge3" class="edge">
<title>clean_radxa_cpu&#45;&gt;stick_thermal_pad_on_radxa</title>
<path fill="none" stroke="black" d="M765.3,-1943.7C763.06,-1936.24 760.39,-1927.32 757.88,-1918.97"/>
<polygon fill="black" stroke="black" points="761.28,-1918.13 755.06,-1909.55 754.58,-1920.14 761.28,-1918.13"/>
</g>
<!-- prepare_thermal_pad -->
<g id="node16" class="node">
<title>prepare_thermal_pad</title>
<ellipse fill="none" stroke="black" cx="589.49" cy="-1962" rx="89.74" ry="18"/>
<text text-anchor="middle" x="589.49" y="-1956.95" font-family="Times,serif" font-size="14.00">prepare_thermal_pad</text>
</g>
<!-- prepare_thermal_pad&#45;&gt;stick_thermal_pad_on_radxa -->
<g id="edge2" class="edge">
<title>prepare_thermal_pad&#45;&gt;stick_thermal_pad_on_radxa</title>
<path fill="none" stroke="black" d="M625.8,-1945.12C648.21,-1935.31 677.21,-1922.62 701.5,-1912"/>
<polygon fill="black" stroke="black" points="702.8,-1915.25 710.55,-1908.04 699.99,-1908.84 702.8,-1915.25"/>
</g>
<!-- mount_radxa_on_baseplate -->
<g id="node20" class="node">
<title>mount_radxa_on_baseplate</title>
<ellipse fill="none" stroke="black" cx="879.49" cy="-1818" rx="112.77" ry="18"/>
<text text-anchor="middle" x="879.49" y="-1812.95" font-family="Times,serif" font-size="14.00">mount_radxa_on_baseplate</text>
</g>
<!-- stick_thermal_pad_on_radxa&#45;&gt;mount_radxa_on_baseplate -->
<g id="edge6" class="edge">
<title>stick_thermal_pad_on_radxa&#45;&gt;mount_radxa_on_baseplate</title>
<path fill="none" stroke="black" d="M780.63,-1872.23C798,-1862.88 819.84,-1851.12 838.57,-1841.04"/>
<polygon fill="black" stroke="black" points="840.13,-1844.17 847.28,-1836.35 836.81,-1838.01 840.13,-1844.17"/>
</g>
<!-- apply_threadlock_to_baseplate -->
<g id="node18" class="node">
<title>apply_threadlock_to_baseplate</title>
<ellipse fill="none" stroke="black" cx="1008.49" cy="-1962" rx="125.56" ry="18"/>
<text text-anchor="middle" x="1008.49" y="-1956.95" font-family="Times,serif" font-size="14.00">apply_threadlock_to_baseplate</text>
</g>
<!-- clean_baseplate_thermal_area -->
<g id="node19" class="node">
<title>clean_baseplate_thermal_area</title>
<ellipse fill="none" stroke="black" cx="1008.49" cy="-1890" rx="122.49" ry="18"/>
<text text-anchor="middle" x="1008.49" y="-1884.95" font-family="Times,serif" font-size="14.00">clean_baseplate_thermal_area</text>
</g>
<!-- apply_threadlock_to_baseplate&#45;&gt;clean_baseplate_thermal_area -->
<g id="edge4" class="edge">
<title>apply_threadlock_to_baseplate&#45;&gt;clean_baseplate_thermal_area</title>
<path fill="none" stroke="black" d="M1008.49,-1943.7C1008.49,-1936.41 1008.49,-1927.73 1008.49,-1919.54"/>
<polygon fill="black" stroke="black" points="1011.99,-1919.62 1008.49,-1909.62 1004.99,-1919.62 1011.99,-1919.62"/>
</g>
<!-- clean_baseplate_thermal_area&#45;&gt;mount_radxa_on_baseplate -->
<g id="edge5" class="edge">
<title>clean_baseplate_thermal_area&#45;&gt;mount_radxa_on_baseplate</title>
<path fill="none" stroke="black" d="M977.59,-1872.23C960.36,-1862.88 938.69,-1851.12 920.1,-1841.04"/>
<polygon fill="black" stroke="black" points="921.93,-1838.04 911.47,-1836.35 918.59,-1844.2 921.93,-1838.04"/>
</g>
<!-- mount_sap_on_baseplate -->
<g id="node22" class="node">
<title>mount_sap_on_baseplate</title>
<ellipse fill="none" stroke="black" cx="939.49" cy="-1674" rx="104.58" ry="18"/>
<text text-anchor="middle" x="939.49" y="-1668.95" font-family="Times,serif" font-size="14.00">mount_sap_on_baseplate</text>
</g>
<!-- mount_radxa_on_baseplate&#45;&gt;mount_sap_on_baseplate -->
<g id="edge8" class="edge">
<title>mount_radxa_on_baseplate&#45;&gt;mount_sap_on_baseplate</title>
<path fill="none" stroke="black" d="M880.9,-1799.55C882.92,-1781.06 887.65,-1751.36 898.49,-1728 902.97,-1718.34 909.49,-1708.81 916.02,-1700.55"/>
<polygon fill="black" stroke="black" points="918.6,-1702.92 922.32,-1693 913.23,-1698.44 918.6,-1702.92"/>
</g>
<!-- mount_hagibis_rear_on_baseplate -->
<g id="node23" class="node">
<title>mount_hagibis_rear_on_baseplate</title>
<ellipse fill="none" stroke="black" cx="1527.49" cy="-1746" rx="137.85" ry="18"/>
<text text-anchor="middle" x="1527.49" y="-1740.95" font-family="Times,serif" font-size="14.00">mount_hagibis_rear_on_baseplate</text>
</g>
<!-- mount_radxa_on_baseplate&#45;&gt;mount_hagibis_rear_on_baseplate -->
<g id="edge9" class="edge">
<title>mount_radxa_on_baseplate&#45;&gt;mount_hagibis_rear_on_baseplate</title>
<path fill="none" stroke="black" d="M972.51,-1807.48C1073.31,-1797.1 1238.86,-1779.83 1381.49,-1764 1392.83,-1762.74 1404.66,-1761.4 1416.47,-1760.05"/>
<polygon fill="black" stroke="black" points="1416.73,-1763.55 1426.26,-1758.93 1415.93,-1756.59 1416.73,-1763.55"/>
</g>
<!-- mount_display_holders_on_baseplate -->
<g id="node28" class="node">
<title>mount_display_holders_on_baseplate</title>
<ellipse fill="none" stroke="black" cx="413.49" cy="-1746" rx="150.64" ry="18"/>
<text text-anchor="middle" x="413.49" y="-1740.95" font-family="Times,serif" font-size="14.00">mount_display_holders_on_baseplate</text>
</g>
<!-- mount_radxa_on_baseplate&#45;&gt;mount_display_holders_on_baseplate -->
<g id="edge14" class="edge">
<title>mount_radxa_on_baseplate&#45;&gt;mount_display_holders_on_baseplate</title>
<path fill="none" stroke="black" d="M799.38,-1804.97C720.94,-1793.18 601.09,-1775.18 515.78,-1762.37"/>
<polygon fill="black" stroke="black" points="516.42,-1758.92 506.01,-1760.9 515.38,-1765.84 516.42,-1758.92"/>
</g>
<!-- mount_teensy_on_audio_brd -->
<g id="node21" class="node">
<title>mount_teensy_on_audio_brd</title>
<ellipse fill="none" stroke="black" cx="1026.49" cy="-1746" rx="118.91" ry="18"/>
<text text-anchor="middle" x="1026.49" y="-1740.95" font-family="Times,serif" font-size="14.00">mount_teensy_on_audio_brd</text>
</g>
<!-- mount_teensy_on_audio_brd&#45;&gt;mount_sap_on_baseplate -->
<g id="edge7" class="edge">
<title>mount_teensy_on_audio_brd&#45;&gt;mount_sap_on_baseplate</title>
<path fill="none" stroke="black" d="M1005.43,-1728.05C994.61,-1719.35 981.24,-1708.59 969.38,-1699.04"/>
<polygon fill="black" stroke="black" points="971.83,-1696.52 961.84,-1692.98 967.44,-1701.98 971.83,-1696.52"/>
</g>
<!-- mount_sap_on_baseplate&#45;&gt;base_assembled -->
<g id="edge21" class="edge">
<title>mount_sap_on_baseplate&#45;&gt;base_assembled</title>
<path fill="none" stroke="black" d="M939.49,-1655.59C939.49,-1631.61 939.49,-1588.14 939.49,-1559.42"/>
<polygon fill="black" stroke="black" points="942.99,-1559.62 939.49,-1549.62 935.99,-1559.62 942.99,-1559.62"/>
</g>
<!-- mount_hagibis_front_on_baseplate -->
<g id="node25" class="node">
<title>mount_hagibis_front_on_baseplate</title>
<ellipse fill="none" stroke="black" cx="1228.49" cy="-1602" rx="141.43" ry="18"/>
<text text-anchor="middle" x="1228.49" y="-1596.95" font-family="Times,serif" font-size="14.00">mount_hagibis_front_on_baseplate</text>
</g>
<!-- mount_hagibis_rear_on_baseplate&#45;&gt;mount_hagibis_front_on_baseplate -->
<g id="edge11" class="edge">
<title>mount_hagibis_rear_on_baseplate&#45;&gt;mount_hagibis_front_on_baseplate</title>
<path fill="none" stroke="black" d="M1492.02,-1728.15C1437.73,-1702.37 1334.06,-1653.14 1274.21,-1624.71"/>
<polygon fill="black" stroke="black" points="1275.82,-1621.6 1265.29,-1620.47 1272.82,-1627.93 1275.82,-1621.6"/>
</g>
<!-- disassemble_hagibis_if_needed -->
<g id="node24" class="node">
<title>disassemble_hagibis_if_needed</title>
<ellipse fill="none" stroke="black" cx="1527.49" cy="-1818" rx="128.12" ry="18"/>
<text text-anchor="middle" x="1527.49" y="-1812.95" font-family="Times,serif" font-size="14.00">disassemble_hagibis_if_needed</text>
</g>
<!-- disassemble_hagibis_if_needed&#45;&gt;mount_hagibis_rear_on_baseplate -->
<g id="edge10" class="edge">
<title>disassemble_hagibis_if_needed&#45;&gt;mount_hagibis_rear_on_baseplate</title>
<path fill="none" stroke="black" d="M1527.49,-1799.7C1527.49,-1792.41 1527.49,-1783.73 1527.49,-1775.54"/>
<polygon fill="black" stroke="black" points="1530.99,-1775.62 1527.49,-1765.62 1523.99,-1775.62 1530.99,-1775.62"/>
</g>
<!-- mount_hagibis_front_on_baseplate&#45;&gt;base_assembled -->
<g id="edge22" class="edge">
<title>mount_hagibis_front_on_baseplate&#45;&gt;base_assembled</title>
<path fill="none" stroke="black" d="M1164.71,-1585.55C1122.87,-1575.42 1067.72,-1562.06 1022.47,-1551.1"/>
<polygon fill="black" stroke="black" points="1023.51,-1547.75 1012.97,-1548.8 1021.86,-1554.55 1023.51,-1547.75"/>
</g>
<!-- mount_fuse_on_pwr_brd -->
<g id="node26" class="node">
<title>mount_fuse_on_pwr_brd</title>
<ellipse fill="none" stroke="black" cx="1267.49" cy="-1746" rx="104.58" ry="18"/>
<text text-anchor="middle" x="1267.49" y="-1740.95" font-family="Times,serif" font-size="14.00">mount_fuse_on_pwr_brd</text>
</g>
<!-- mount_fuse_on_pwr_brd&#45;&gt;mount_sap_on_baseplate -->
<g id="edge12" class="edge">
<title>mount_fuse_on_pwr_brd&#45;&gt;mount_sap_on_baseplate</title>
<path fill="none" stroke="black" d="M1203.47,-1731.34C1149.29,-1719.77 1071.56,-1703.19 1014.48,-1691"/>
<polygon fill="black" stroke="black" points="1015.34,-1687.61 1004.83,-1688.94 1013.88,-1694.45 1015.34,-1687.61"/>
</g>
<!-- remove_artifacts_from_display_holders -->
<g id="node27" class="node">
<title>remove_artifacts_from_display_holders</title>
<ellipse fill="none" stroke="black" cx="413.49" cy="-1818" rx="159.34" ry="18"/>
<text text-anchor="middle" x="413.49" y="-1812.95" font-family="Times,serif" font-size="14.00">remove_artifacts_from_display_holders</text>
</g>
<!-- remove_artifacts_from_display_holders&#45;&gt;mount_display_holders_on_baseplate -->
<g id="edge13" class="edge">
<title>remove_artifacts_from_display_holders&#45;&gt;mount_display_holders_on_baseplate</title>
<path fill="none" stroke="black" d="M413.49,-1799.7C413.49,-1792.41 413.49,-1783.73 413.49,-1775.54"/>
<polygon fill="black" stroke="black" points="416.99,-1775.62 413.49,-1765.62 409.99,-1775.62 416.99,-1775.62"/>
</g>
<!-- mount_display_holders_on_baseplate&#45;&gt;place_display_hat_on_display_holders -->
<g id="edge16" class="edge">
<title>mount_display_holders_on_baseplate&#45;&gt;place_display_hat_on_display_holders</title>
<path fill="none" stroke="black" d="M465.96,-1728.68C498.54,-1718.54 540.61,-1705.45 575.05,-1694.74"/>
<polygon fill="black" stroke="black" points="575.99,-1698.11 584.5,-1691.8 573.91,-1691.43 575.99,-1698.11"/>
</g>
<!-- attach_radxa_hat -->
<g id="node30" class="node">
<title>attach_radxa_hat</title>
<ellipse fill="none" stroke="black" cx="737.49" cy="-1602" rx="73.87" ry="18"/>
<text text-anchor="middle" x="737.49" y="-1596.95" font-family="Times,serif" font-size="14.00">attach_radxa_hat</text>
</g>
<!-- place_display_hat_on_display_holders&#45;&gt;attach_radxa_hat -->
<g id="edge17" class="edge">
<title>place_display_hat_on_display_holders&#45;&gt;attach_radxa_hat</title>
<path fill="none" stroke="black" d="M662.71,-1655.88C675.45,-1646.87 691.25,-1635.69 705.04,-1625.94"/>
<polygon fill="black" stroke="black" points="706.83,-1628.97 712.97,-1620.34 702.78,-1623.25 706.83,-1628.97"/>
</g>
<!-- attach_radxa_hat&#45;&gt;base_assembled -->
<g id="edge23" class="edge">
<title>attach_radxa_hat&#45;&gt;base_assembled</title>
<path fill="none" stroke="black" d="M778.86,-1586.67C807.58,-1576.71 846.34,-1563.28 878.58,-1552.11"/>
<polygon fill="black" stroke="black" points="879.51,-1555.49 887.81,-1548.91 877.22,-1548.88 879.51,-1555.49"/>
</g>
<!-- mark_duped_mta100_cables -->
<g id="node31" class="node">
<title>mark_duped_mta100_cables</title>
<ellipse fill="none" stroke="black" cx="1179.49" cy="-1530" rx="117.89" ry="18"/>
<text text-anchor="middle" x="1179.49" y="-1524.95" font-family="Times,serif" font-size="14.00">mark_duped_mta100_cables</text>
</g>
<!-- mark_duped_mta100_cables&#45;&gt;connect_all_6_mta100_cables -->
<g id="edge18" class="edge">
<title>mark_duped_mta100_cables&#45;&gt;connect_all_6_mta100_cables</title>
<path fill="none" stroke="black" d="M1128.61,-1513.38C1094.59,-1502.93 1049.63,-1489.13 1013.52,-1478.04"/>
<polygon fill="black" stroke="black" points="1014.65,-1474.73 1004.06,-1475.14 1012.59,-1481.42 1014.65,-1474.73"/>
</g>
<!-- connect_all_6_mta100_cables&#45;&gt;connect_audio_jack_cable -->
<g id="edge44" class="edge">
<title>connect_all_6_mta100_cables&#45;&gt;connect_audio_jack_cable</title>
<path fill="none" stroke="black" d="M946.3,-1439.7C944.06,-1432.24 941.39,-1423.32 938.88,-1414.97"/>
<polygon fill="black" stroke="black" points="942.28,-1414.13 936.06,-1405.55 935.58,-1416.14 942.28,-1414.13"/>
</g>
<!-- connect_fans_to_pwr_brd -->
<g id="node35" class="node">
<title>connect_fans_to_pwr_brd</title>
<ellipse fill="none" stroke="black" cx="1164.49" cy="-1386" rx="107.14" ry="18"/>
<text text-anchor="middle" x="1164.49" y="-1380.95" font-family="Times,serif" font-size="14.00">connect_fans_to_pwr_brd</text>
</g>
<!-- connect_all_6_mta100_cables&#45;&gt;connect_fans_to_pwr_brd -->
<g id="edge26" class="edge">
<title>connect_all_6_mta100_cables&#45;&gt;connect_fans_to_pwr_brd</title>
<path fill="none" stroke="black" d="M1000.09,-1441.03C1031.78,-1430.61 1073.29,-1416.97 1106.67,-1406"/>
<polygon fill="black" stroke="black" points="1107.36,-1409.46 1115.76,-1403.01 1105.17,-1402.81 1107.36,-1409.46"/>
</g>
<!-- connect_radxa_to_pwr_board -->
<g id="node38" class="node">
<title>connect_radxa_to_pwr_board</title>
<ellipse fill="none" stroke="black" cx="682.49" cy="-1386" rx="120.96" ry="18"/>
<text text-anchor="middle" x="682.49" y="-1380.95" font-family="Times,serif" font-size="14.00">connect_radxa_to_pwr_board</text>
</g>
<!-- connect_all_6_mta100_cables&#45;&gt;connect_radxa_to_pwr_board -->
<g id="edge29" class="edge">
<title>connect_all_6_mta100_cables&#45;&gt;connect_radxa_to_pwr_board</title>
<path fill="none" stroke="black" d="M892.79,-1441.72C851.27,-1430.92 795.43,-1416.39 751.73,-1405.02"/>
<polygon fill="black" stroke="black" points="752.63,-1401.63 742.07,-1402.5 750.87,-1408.41 752.63,-1401.63"/>
</g>
<!-- mark_duped_mta100_connectors -->
<g id="node33" class="node">
<title>mark_duped_mta100_connectors</title>
<ellipse fill="none" stroke="black" cx="716.49" cy="-1746" rx="134.78" ry="18"/>
<text text-anchor="middle" x="716.49" y="-1740.95" font-family="Times,serif" font-size="14.00">mark_duped_mta100_connectors</text>
</g>
<!-- mark_duped_mta100_connectors&#45;&gt;mount_sap_on_baseplate -->
<g id="edge19" class="edge">
<title>mark_duped_mta100_connectors&#45;&gt;mount_sap_on_baseplate</title>
<path fill="none" stroke="black" d="M767.65,-1728.94C801.21,-1718.41 845.21,-1704.59 880.29,-1693.58"/>
<polygon fill="black" stroke="black" points="880.93,-1697.05 889.42,-1690.72 878.83,-1690.37 880.93,-1697.05"/>
</g>
<!-- mark_duped_mta100_connectors&#45;&gt;place_display_hat_on_display_holders -->
<g id="edge20" class="edge">
<title>mark_duped_mta100_connectors&#45;&gt;place_display_hat_on_display_holders</title>
<path fill="none" stroke="black" d="M697.21,-1727.7C687.84,-1719.28 676.4,-1709.02 666.12,-1699.79"/>
<polygon fill="black" stroke="black" points="668.73,-1697.43 658.95,-1693.36 664.05,-1702.64 668.73,-1697.43"/>
</g>
<!-- crimp_fan_connectors -->
<g id="node34" class="node">
<title>crimp_fan_connectors</title>
<ellipse fill="none" stroke="black" cx="1186.49" cy="-1458" rx="93.83" ry="18"/>
<text text-anchor="middle" x="1186.49" y="-1452.95" font-family="Times,serif" font-size="14.00">crimp_fan_connectors</text>
</g>
<!-- crimp_fan_connectors&#45;&gt;connect_fans_to_pwr_brd -->
<g id="edge25" class="edge">
<title>crimp_fan_connectors&#45;&gt;connect_fans_to_pwr_brd</title>
<path fill="none" stroke="black" d="M1181.05,-1439.7C1178.71,-1432.24 1175.91,-1423.32 1173.28,-1414.97"/>
<polygon fill="black" stroke="black" points="1176.66,-1414.04 1170.32,-1405.55 1169.98,-1416.14 1176.66,-1414.04"/>
</g>
<!-- connect_fans_to_pwr_brd&#45;&gt;connect_micro_usb_cable -->
<g id="edge47" class="edge">
<title>connect_fans_to_pwr_brd&#45;&gt;connect_micro_usb_cable</title>
<path fill="none" stroke="black" d="M1096.73,-1371.75C1036.69,-1360.01 948.97,-1342.86 885.7,-1330.49"/>
<polygon fill="black" stroke="black" points="886.55,-1327.09 876.07,-1328.6 885.21,-1333.96 886.55,-1327.09"/>
</g>
<!-- strip_ends_of_radxa_pwr_cable -->
<g id="node36" class="node">
<title>strip_ends_of_radxa_pwr_cable</title>
<ellipse fill="none" stroke="black" cx="661.49" cy="-1530" rx="129.15" ry="18"/>
<text text-anchor="middle" x="661.49" y="-1524.95" font-family="Times,serif" font-size="14.00">strip_ends_of_radxa_pwr_cable</text>
</g>
<!-- attach_terminal_to_radxa_pwr_cable -->
<g id="node37" class="node">
<title>attach_terminal_to_radxa_pwr_cable</title>
<ellipse fill="none" stroke="black" cx="661.49" cy="-1458" rx="148.59" ry="18"/>
<text text-anchor="middle" x="661.49" y="-1452.95" font-family="Times,serif" font-size="14.00">attach_terminal_to_radxa_pwr_cable</text>
</g>
<!-- strip_ends_of_radxa_pwr_cable&#45;&gt;attach_terminal_to_radxa_pwr_cable -->
<g id="edge27" class="edge">
<title>strip_ends_of_radxa_pwr_cable&#45;&gt;attach_terminal_to_radxa_pwr_cable</title>
<path fill="none" stroke="black" d="M661.49,-1511.7C661.49,-1504.41 661.49,-1495.73 661.49,-1487.54"/>
<polygon fill="black" stroke="black" points="664.99,-1487.62 661.49,-1477.62 657.99,-1487.62 664.99,-1487.62"/>
</g>
<!-- attach_terminal_to_radxa_pwr_cable&#45;&gt;connect_radxa_to_pwr_board -->
<g id="edge28" class="edge">
<title>attach_terminal_to_radxa_pwr_cable&#45;&gt;connect_radxa_to_pwr_board</title>
<path fill="none" stroke="black" d="M666.68,-1439.7C668.92,-1432.24 671.6,-1423.32 674.1,-1414.97"/>
<polygon fill="black" stroke="black" points="677.41,-1416.14 676.93,-1405.55 670.7,-1414.13 677.41,-1416.14"/>
</g>
<!-- connect_radxa_to_pwr_board&#45;&gt;connect_micro_usb_cable -->
<g id="edge46" class="edge">
<title>connect_radxa_to_pwr_board&#45;&gt;connect_micro_usb_cable</title>
<path fill="none" stroke="black" d="M712.19,-1368.23C728.76,-1358.88 749.59,-1347.12 767.46,-1337.04"/>
<polygon fill="black" stroke="black" points="768.73,-1340.34 775.72,-1332.37 765.29,-1334.24 768.73,-1340.34"/>
</g>
<!-- insert_ring_on_barrel_jack -->
<g id="node40" class="node">
<title>insert_ring_on_barrel_jack</title>
<ellipse fill="none" stroke="black" cx="449.49" cy="-1314" rx="110.72" ry="18"/>
<text text-anchor="middle" x="449.49" y="-1308.95" font-family="Times,serif" font-size="14.00">insert_ring_on_barrel_jack</text>
</g>
<!-- insert_pwr_cable_through_back_panel&#45;&gt;insert_ring_on_barrel_jack -->
<g id="edge35" class="edge">
<title>insert_pwr_cable_through_back_panel&#45;&gt;insert_ring_on_barrel_jack</title>
<path fill="none" stroke="black" d="M401.31,-1367.7C408.83,-1359.47 417.97,-1349.48 426.25,-1340.42"/>
<polygon fill="black" stroke="black" points="428.67,-1342.96 432.83,-1333.22 423.5,-1338.24 428.67,-1342.96"/>
</g>
<!-- attach_terminal_to_pwr_cable -->
<g id="node41" class="node">
<title>attach_terminal_to_pwr_cable</title>
<ellipse fill="none" stroke="black" cx="513.49" cy="-1242" rx="123.52" ry="18"/>
<text text-anchor="middle" x="513.49" y="-1236.95" font-family="Times,serif" font-size="14.00">attach_terminal_to_pwr_cable</text>
</g>
<!-- insert_ring_on_barrel_jack&#45;&gt;attach_terminal_to_pwr_cable -->
<g id="edge36" class="edge">
<title>insert_ring_on_barrel_jack&#45;&gt;attach_terminal_to_pwr_cable</title>
<path fill="none" stroke="black" d="M465.31,-1295.7C472.83,-1287.47 481.97,-1277.48 490.25,-1268.42"/>
<polygon fill="black" stroke="black" points="492.67,-1270.96 496.83,-1261.22 487.5,-1266.24 492.67,-1270.96"/>
</g>
<!-- connect_pwr_cable_to_pwr_board -->
<g id="node42" class="node">
<title>connect_pwr_cable_to_pwr_board</title>
<ellipse fill="none" stroke="black" cx="513.49" cy="-1170" rx="138.87" ry="18"/>
<text text-anchor="middle" x="513.49" y="-1164.95" font-family="Times,serif" font-size="14.00">connect_pwr_cable_to_pwr_board</text>
</g>
<!-- attach_terminal_to_pwr_cable&#45;&gt;connect_pwr_cable_to_pwr_board -->
<g id="edge37" class="edge">
<title>attach_terminal_to_pwr_cable&#45;&gt;connect_pwr_cable_to_pwr_board</title>
<path fill="none" stroke="black" d="M513.49,-1223.7C513.49,-1216.41 513.49,-1207.73 513.49,-1199.54"/>
<polygon fill="black" stroke="black" points="516.99,-1199.62 513.49,-1189.62 509.99,-1199.62 516.99,-1199.62"/>
</g>
<!-- connect_pwr_cable_to_pwr_board&#45;&gt;connect_ethernet_cable -->
<g id="edge45" class="edge">
<title>connect_pwr_cable_to_pwr_board&#45;&gt;connect_ethernet_cable</title>
<path fill="none" stroke="black" d="M513.49,-1151.7C513.49,-1144.41 513.49,-1135.73 513.49,-1127.54"/>
<polygon fill="black" stroke="black" points="516.99,-1127.62 513.49,-1117.62 509.99,-1127.62 516.99,-1127.62"/>
</g>
<!-- connect_micro_usb_cable&#45;&gt;connect_ptru_usb_cable -->
<g id="edge38" class="edge">
<title>connect_micro_usb_cable&#45;&gt;connect_ptru_usb_cable</title>
<path fill="none" stroke="black" d="M805.75,-1295.7C805.44,-1288.41 805.07,-1279.73 804.72,-1271.54"/>
<polygon fill="black" stroke="black" points="808.22,-1271.46 804.29,-1261.62 801.22,-1271.76 808.22,-1271.46"/>
</g>
<!-- attach_neutrik_connector_to_back_plate -->
<g id="node44" class="node">
<title>attach_neutrik_connector_to_back_plate</title>
<ellipse fill="none" stroke="black" cx="211.49" cy="-1242" rx="160.88" ry="18"/>
<text text-anchor="middle" x="211.49" y="-1236.95" font-family="Times,serif" font-size="14.00">attach_neutrik_connector_to_back_plate</text>
</g>
<!-- attach_neutrik_connector_to_back_plate&#45;&gt;connect_micro_hdmi_cable -->
<g id="edge39" class="edge">
<title>attach_neutrik_connector_to_back_plate&#45;&gt;connect_micro_hdmi_cable</title>
<path fill="none" stroke="black" d="M215.45,-1223.7C217.13,-1216.32 219.14,-1207.52 221.04,-1199.25"/>
<polygon fill="black" stroke="black" points="224.43,-1200.11 223.25,-1189.58 217.61,-1198.55 224.43,-1200.11"/>
</g>
<!-- connect_hagibis_usb_cable&#45;&gt;connect_ethernet_cable -->
<g id="edge41" class="edge">
<title>connect_hagibis_usb_cable&#45;&gt;connect_ethernet_cable</title>
<path fill="none" stroke="black" d="M731.3,-1154.24C687.17,-1143.05 626.46,-1127.65 580.35,-1115.96"/>
<polygon fill="black" stroke="black" points="581.27,-1112.58 570.72,-1113.51 579.55,-1119.37 581.27,-1112.58"/>
</g>
<!-- attach_cables_to_baseplate -->
<g id="node47" class="node">
<title>attach_cables_to_baseplate</title>
<ellipse fill="none" stroke="black" cx="513.49" cy="-1026" rx="111.23" ry="18"/>
<text text-anchor="middle" x="513.49" y="-1020.95" font-family="Times,serif" font-size="14.00">attach_cables_to_baseplate</text>
</g>
<!-- connect_ethernet_cable&#45;&gt;attach_cables_to_baseplate -->
<g id="edge48" class="edge">
<title>connect_ethernet_cable&#45;&gt;attach_cables_to_baseplate</title>
<path fill="none" stroke="black" d="M513.49,-1079.7C513.49,-1072.41 513.49,-1063.73 513.49,-1055.54"/>
<polygon fill="black" stroke="black" points="516.99,-1055.62 513.49,-1045.62 509.99,-1055.62 516.99,-1055.62"/>
</g>
<!-- attach_cables_to_baseplate&#45;&gt;base_wired -->
<g id="edge49" class="edge">
<title>attach_cables_to_baseplate&#45;&gt;base_wired</title>
<path fill="none" stroke="black" d="M513.49,-1007.7C513.49,-1000.41 513.49,-991.73 513.49,-983.54"/>
<polygon fill="black" stroke="black" points="516.99,-983.62 513.49,-973.62 509.99,-983.62 516.99,-983.62"/>
</g>
<!-- slide_base_and_panels_into_box -->
<g id="node49" class="node">
<title>slide_base_and_panels_into_box</title>
<ellipse fill="none" stroke="black" cx="408.49" cy="-810" rx="132.73" ry="18"/>
<text text-anchor="middle" x="408.49" y="-804.95" font-family="Times,serif" font-size="14.00">slide_base_and_panels_into_box</text>
</g>
<!-- attach_front_panel_to_audio_brd&#45;&gt;slide_base_and_panels_into_box -->
<g id="edge51" class="edge">
<title>attach_front_panel_to_audio_brd&#45;&gt;slide_base_and_panels_into_box</title>
<path fill="none" stroke="black" d="M487.81,-863.88C474.36,-854.91 457.7,-843.81 443.13,-834.09"/>
<polygon fill="black" stroke="black" points="445.43,-831.42 435.17,-828.79 441.55,-837.25 445.43,-831.42"/>
</g>
<!-- attach_base_to_box -->
<g id="node51" class="node">
<title>attach_base_to_box</title>
<ellipse fill="none" stroke="black" cx="352.49" cy="-738" rx="84.11" ry="18"/>
<text text-anchor="middle" x="352.49" y="-732.95" font-family="Times,serif" font-size="14.00">attach_base_to_box</text>
</g>
<!-- slide_base_and_panels_into_box&#45;&gt;attach_base_to_box -->
<g id="edge53" class="edge">
<title>slide_base_and_panels_into_box&#45;&gt;attach_base_to_box</title>
<path fill="none" stroke="black" d="M394.65,-791.7C388.21,-783.64 380.41,-773.89 373.28,-764.98"/>
<polygon fill="black" stroke="black" points="376.1,-762.91 367.12,-757.29 370.64,-767.28 376.1,-762.91"/>
</g>
<!-- attach_onlyfans_to_box -->
<g id="node52" class="node">
<title>attach_onlyfans_to_box</title>
<ellipse fill="none" stroke="black" cx="522.49" cy="-666" rx="99.46" ry="18"/>
<text text-anchor="middle" x="522.49" y="-660.95" font-family="Times,serif" font-size="14.00">attach_onlyfans_to_box</text>
</g>
<!-- slide_base_and_panels_into_box&#45;&gt;attach_onlyfans_to_box -->
<g id="edge54" class="edge">
<title>slide_base_and_panels_into_box&#45;&gt;attach_onlyfans_to_box</title>
<path fill="none" stroke="black" d="M422.24,-791.87C442.02,-767.24 478.63,-721.64 501.71,-692.88"/>
<polygon fill="black" stroke="black" points="504.21,-695.36 507.75,-685.37 498.76,-690.98 504.21,-695.36"/>
</g>
<!-- prepare_box -->
<g id="node50" class="node">
<title>prepare_box</title>
<ellipse fill="none" stroke="black" cx="304.49" cy="-882" rx="56.98" ry="18"/>
<text text-anchor="middle" x="304.49" y="-876.95" font-family="Times,serif" font-size="14.00">prepare_box</text>
</g>
<!-- prepare_box&#45;&gt;slide_base_and_panels_into_box -->
<g id="edge52" class="edge">
<title>prepare_box&#45;&gt;slide_base_and_panels_into_box</title>
<path fill="none" stroke="black" d="M327.83,-865.29C341.29,-856.23 358.48,-844.66 373.53,-834.53"/>
<polygon fill="black" stroke="black" points="375.45,-837.46 381.79,-828.97 371.54,-831.65 375.45,-837.46"/>
</g>
<!-- stick_battery_to_baseplate -->
<g id="node54" class="node">
<title>stick_battery_to_baseplate</title>
<ellipse fill="none" stroke="black" cx="295.49" cy="-666" rx="109.19" ry="18"/>
<text text-anchor="middle" x="295.49" y="-660.95" font-family="Times,serif" font-size="14.00">stick_battery_to_baseplate</text>
</g>
<!-- attach_base_to_box&#45;&gt;stick_battery_to_baseplate -->
<g id="edge56" class="edge">
<title>attach_base_to_box&#45;&gt;stick_battery_to_baseplate</title>
<path fill="none" stroke="black" d="M338.69,-720.05C332.07,-711.92 323.99,-702 316.62,-692.94"/>
<polygon fill="black" stroke="black" points="319.54,-690.99 310.52,-685.45 314.12,-695.41 319.54,-690.99"/>
</g>
<!-- connect_box_to_power_and_network -->
<g id="node53" class="node">
<title>connect_box_to_power_and_network</title>
<ellipse fill="none" stroke="black" cx="408.49" cy="-594" rx="150.13" ry="18"/>
<text text-anchor="middle" x="408.49" y="-588.95" font-family="Times,serif" font-size="14.00">connect_box_to_power_and_network</text>
</g>
<!-- attach_onlyfans_to_box&#45;&gt;connect_box_to_power_and_network -->
<g id="edge55" class="edge">
<title>attach_onlyfans_to_box&#45;&gt;connect_box_to_power_and_network</title>
<path fill="none" stroke="black" d="M495.19,-648.23C480.46,-639.19 462.06,-627.89 446.01,-618.03"/>
<polygon fill="black" stroke="black" points="448.01,-615.16 437.66,-612.91 444.35,-621.12 448.01,-615.16"/>
</g>
<!-- verify_blue_smoke_still_inside -->
<g id="node55" class="node">
<title>verify_blue_smoke_still_inside</title>
<ellipse fill="none" stroke="black" cx="408.49" cy="-522" rx="127.61" ry="18"/>
<text text-anchor="middle" x="408.49" y="-516.95" font-family="Times,serif" font-size="14.00">verify_blue_smoke_still_inside</text>
</g>
<!-- connect_box_to_power_and_network&#45;&gt;verify_blue_smoke_still_inside -->
<g id="edge58" class="edge">
<title>connect_box_to_power_and_network&#45;&gt;verify_blue_smoke_still_inside</title>
<path fill="none" stroke="black" d="M408.49,-575.7C408.49,-568.41 408.49,-559.73 408.49,-551.54"/>
<polygon fill="black" stroke="black" points="411.99,-551.62 408.49,-541.62 404.99,-551.62 411.99,-551.62"/>
</g>
<!-- stick_battery_to_baseplate&#45;&gt;connect_box_to_power_and_network -->
<g id="edge57" class="edge">
<title>stick_battery_to_baseplate&#45;&gt;connect_box_to_power_and_network</title>
<path fill="none" stroke="black" d="M322.56,-648.23C337.16,-639.19 355.39,-627.89 371.31,-618.03"/>
<polygon fill="black" stroke="black" points="372.92,-621.15 379.58,-612.91 369.23,-615.2 372.92,-621.15"/>
</g>
<!-- record_box_id_and_mac_address -->
<g id="node56" class="node">
<title>record_box_id_and_mac_address</title>
<ellipse fill="none" stroke="black" cx="408.49" cy="-450" rx="135.29" ry="18"/>
<text text-anchor="middle" x="408.49" y="-444.95" font-family="Times,serif" font-size="14.00">record_box_id_and_mac_address</text>
</g>
<!-- verify_blue_smoke_still_inside&#45;&gt;record_box_id_and_mac_address -->
<g id="edge59" class="edge">
<title>verify_blue_smoke_still_inside&#45;&gt;record_box_id_and_mac_address</title>
<path fill="none" stroke="black" d="M408.49,-503.7C408.49,-496.41 408.49,-487.73 408.49,-479.54"/>
<polygon fill="black" stroke="black" points="411.99,-479.62 408.49,-469.62 404.99,-479.62 411.99,-479.62"/>
</g>
<!-- click_teensy_bootsel_btn -->
<g id="node57" class="node">
<title>click_teensy_bootsel_btn</title>
<ellipse fill="none" stroke="black" cx="408.49" cy="-378" rx="104.58" ry="18"/>
<text text-anchor="middle" x="408.49" y="-372.95" font-family="Times,serif" font-size="14.00">click_teensy_bootsel_btn</text>
</g>
<!-- record_box_id_and_mac_address&#45;&gt;click_teensy_bootsel_btn -->
<g id="edge60" class="edge">
<title>record_box_id_and_mac_address&#45;&gt;click_teensy_bootsel_btn</title>
<path fill="none" stroke="black" d="M408.49,-431.7C408.49,-424.41 408.49,-415.73 408.49,-407.54"/>
<polygon fill="black" stroke="black" points="411.99,-407.62 408.49,-397.62 404.99,-407.62 411.99,-407.62"/>
</g>
<!-- run_provisioning_script -->
<g id="node58" class="node">
<title>run_provisioning_script</title>
<ellipse fill="none" stroke="black" cx="408.49" cy="-306" rx="99.46" ry="18"/>
<text text-anchor="middle" x="408.49" y="-300.95" font-family="Times,serif" font-size="14.00">run_provisioning_script</text>
</g>
<!-- click_teensy_bootsel_btn&#45;&gt;run_provisioning_script -->
<g id="edge61" class="edge">
<title>click_teensy_bootsel_btn&#45;&gt;run_provisioning_script</title>
<path fill="none" stroke="black" d="M408.49,-359.7C408.49,-352.41 408.49,-343.73 408.49,-335.54"/>
<polygon fill="black" stroke="black" points="411.99,-335.62 408.49,-325.62 404.99,-335.62 411.99,-335.62"/>
</g>
<!-- verify_status_on_display -->
<g id="node59" class="node">
<title>verify_status_on_display</title>
<ellipse fill="none" stroke="black" cx="408.49" cy="-234" rx="103.56" ry="18"/>
<text text-anchor="middle" x="408.49" y="-228.95" font-family="Times,serif" font-size="14.00">verify_status_on_display</text>
</g>
<!-- run_provisioning_script&#45;&gt;verify_status_on_display -->
<g id="edge62" class="edge">
<title>run_provisioning_script&#45;&gt;verify_status_on_display</title>
<path fill="none" stroke="black" d="M408.49,-287.7C408.49,-280.41 408.49,-271.73 408.49,-263.54"/>
<polygon fill="black" stroke="black" points="411.99,-263.62 408.49,-253.62 404.99,-263.62 411.99,-263.62"/>
</g>
<!-- close_box -->
<g id="node60" class="node">
<title>close_box</title>
<ellipse fill="none" stroke="black" cx="309.49" cy="-162" rx="48.28" ry="18"/>
<text text-anchor="middle" x="309.49" y="-156.95" font-family="Times,serif" font-size="14.00">close_box</text>
</g>
<!-- verify_status_on_display&#45;&gt;close_box -->
<g id="edge63" class="edge">
<title>verify_status_on_display&#45;&gt;close_box</title>
<path fill="none" stroke="black" d="M384.53,-216.05C371.32,-206.72 354.78,-195.02 340.59,-184.99"/>
<polygon fill="black" stroke="black" points="342.63,-182.15 332.45,-179.23 338.59,-187.86 342.63,-182.15"/>
</g>
<!-- close_box&#45;&gt;screw_box_shut -->
<g id="edge65" class="edge">
<title>close_box&#45;&gt;screw_box_shut</title>
<path fill="none" stroke="black" d="M309.49,-143.7C309.49,-136.41 309.49,-127.73 309.49,-119.54"/>
<polygon fill="black" stroke="black" points="312.99,-119.62 309.49,-109.62 305.99,-119.62 312.99,-119.62"/>
</g>
<!-- insert_case_locks -->
<g id="node61" class="node">
<title>insert_case_locks</title>
<ellipse fill="none" stroke="black" cx="211.49" cy="-234" rx="75.92" ry="18"/>
<text text-anchor="middle" x="211.49" y="-228.95" font-family="Times,serif" font-size="14.00">insert_case_locks</text>
</g>
<!-- insert_case_locks&#45;&gt;close_box -->
<g id="edge64" class="edge">
<title>insert_case_locks&#45;&gt;close_box</title>
<path fill="none" stroke="black" d="M234.72,-216.41C247.78,-207.08 264.25,-195.31 278.41,-185.2"/>
<polygon fill="black" stroke="black" points="280.44,-188.05 286.55,-179.39 276.37,-182.35 280.44,-188.05"/>
</g>
</g>
</svg>
