<?xml version="1.0" encoding="UTF-8" standalone="no"?>
<!DOCTYPE svg PUBLIC "-//W3C//DTD SVG 1.1//EN"
 "http://www.w3.org/Graphics/SVG/1.1/DTD/svg11.dtd">
<!-- Generated by graphviz version 12.1.2 (0)
 -->
<!-- Pages: 1 -->
<svg width="1673pt" height="2132pt"
 viewBox="0.00 0.00 1673.34 2132.00" xmlns="http://www.w3.org/2000/svg" xmlns:xlink="http://www.w3.org/1999/xlink">
<g id="graph0" class="graph" transform="scale(1 1) rotate(0) translate(4 2128)">
<polygon fill="white" stroke="none" points="-4,4 -4,-2128 1669.34,-2128 1669.34,4 -4,4"/>
<!-- base_assembled -->
<g id="node1" class="node">
<title>base_assembled</title>
<polygon fill="none" stroke="black" points="1043.3,-1620 878.17,-1620 835.69,-1584 1000.82,-1584 1043.3,-1620"/>
<text text-anchor="middle" x="939.49" y="-1596.95" font-family="Times,serif" font-size="14.00">base_assembled</text>
</g>
<!-- connect_all_6_mta100_cables -->
<g id="node32" class="node">
<title>connect_all_6_mta100_cables</title>
<ellipse fill="none" stroke="black" cx="948.49" cy="-1530" rx="123" ry="18"/>
<text text-anchor="middle" x="948.49" y="-1524.95" font-family="Times,serif" font-size="14.00">connect_all_6_mta100_cables</text>
</g>
<!-- base_assembled&#45;&gt;connect_all_6_mta100_cables -->
<g id="edge24" class="edge">
<title>base_assembled&#45;&gt;connect_all_6_mta100_cables</title>
<path fill="none" stroke="black" d="M941.72,-1583.7C942.67,-1576.32 943.8,-1567.52 944.86,-1559.25"/>
<polygon fill="black" stroke="black" points="948.3,-1559.97 946.1,-1549.61 941.35,-1559.08 948.3,-1559.97"/>
</g>
<!-- base_wired -->
<g id="node2" class="node">
<title>base_wired</title>
<polygon fill="none" stroke="black" points="588.03,-1044 464.68,-1044 432.95,-1008 556.3,-1008 588.03,-1044"/>
<text text-anchor="middle" x="510.49" y="-1020.95" font-family="Times,serif" font-size="14.00">base_wired</text>
</g>
<!-- attach_front_panel_to_audio_brd -->
<g id="node48" class="node">
<title>attach_front_panel_to_audio_brd</title>
<ellipse fill="none" stroke="black" cx="510.49" cy="-954" rx="133.75" ry="18"/>
<text text-anchor="middle" x="510.49" y="-948.95" font-family="Times,serif" font-size="14.00">attach_front_panel_to_audio_brd</text>
</g>
<!-- base_wired&#45;&gt;attach_front_panel_to_audio_brd -->
<g id="edge50" class="edge">
<title>base_wired&#45;&gt;attach_front_panel_to_audio_brd</title>
<path fill="none" stroke="black" d="M510.49,-1007.7C510.49,-1000.41 510.49,-991.73 510.49,-983.54"/>
<polygon fill="black" stroke="black" points="513.99,-983.62 510.49,-973.62 506.99,-983.62 513.99,-983.62"/>
</g>
<!-- done -->
<g id="node3" class="node">
<title>done</title>
<polygon fill="none" stroke="black" points="348.77,-36 281.52,-36 264.22,0 331.47,0 348.77,-36"/>
<text text-anchor="middle" x="306.49" y="-12.95" font-family="Times,serif" font-size="14.00">done</text>
</g>
<!-- connect_micro_hdmi_cable -->
<g id="node4" class="node">
<title>connect_micro_hdmi_cable</title>
<ellipse fill="#ea7146" stroke="black" cx="224.49" cy="-1242" rx="114.3" ry="18"/>
<text text-anchor="middle" x="224.49" y="-1236.95" font-family="Times,serif" font-size="14.00">connect_micro_hdmi_cable</text>
</g>
<!-- connect_ethernet_cable -->
<g id="node46" class="node">
<title>connect_ethernet_cable</title>
<ellipse fill="none" stroke="black" cx="510.49" cy="-1170" rx="97.93" ry="18"/>
<text text-anchor="middle" x="510.49" y="-1164.95" font-family="Times,serif" font-size="14.00">connect_ethernet_cable</text>
</g>
<!-- connect_micro_hdmi_cable&#45;&gt;connect_ethernet_cable -->
<g id="edge42" class="edge">
<title>connect_micro_hdmi_cable&#45;&gt;connect_ethernet_cable</title>
<path fill="none" stroke="black" d="M284.45,-1226.33C330.64,-1215.02 394.53,-1199.38 442.61,-1187.61"/>
<polygon fill="black" stroke="black" points="443.19,-1191.08 452.07,-1185.3 441.52,-1184.28 443.19,-1191.08"/>
</g>
<!-- place_display_on_display_hat -->
<g id="node5" class="node">
<title>place_display_on_display_hat</title>
<ellipse fill="#ea7146" stroke="black" cx="122.49" cy="-1818" rx="122.49" ry="18"/>
<text text-anchor="middle" x="122.49" y="-1812.95" font-family="Times,serif" font-size="14.00">place_display_on_display_hat</text>
</g>
<!-- place_display_hat_on_display_holders -->
<g id="node29" class="node">
<title>place_display_hat_on_display_holders</title>
<ellipse fill="none" stroke="black" cx="646.49" cy="-1746" rx="154.22" ry="18"/>
<text text-anchor="middle" x="646.49" y="-1740.95" font-family="Times,serif" font-size="14.00">place_display_hat_on_display_holders</text>
</g>
<!-- place_display_on_display_hat&#45;&gt;place_display_hat_on_display_holders -->
<g id="edge15" class="edge">
<title>place_display_on_display_hat&#45;&gt;place_display_hat_on_display_holders</title>
<path fill="none" stroke="black" d="M210.79,-1805.2C300.43,-1793.23 439.44,-1774.66 536.26,-1761.73"/>
<polygon fill="black" stroke="black" points="536.61,-1765.21 546.05,-1760.42 535.68,-1758.27 536.61,-1765.21"/>
</g>
<!-- connect_audio_jack_cable -->
<g id="node6" class="node">
<title>connect_audio_jack_cable</title>
<ellipse fill="#ea7146" stroke="black" cx="927.49" cy="-1458" rx="108.67" ry="18"/>
<text text-anchor="middle" x="927.49" y="-1452.95" font-family="Times,serif" font-size="14.00">connect_audio_jack_cable</text>
</g>
<!-- connect_micro_usb_cable -->
<g id="node43" class="node">
<title>connect_micro_usb_cable</title>
<ellipse fill="none" stroke="black" cx="803.49" cy="-1386" rx="107.65" ry="18"/>
<text text-anchor="middle" x="803.49" y="-1380.95" font-family="Times,serif" font-size="14.00">connect_micro_usb_cable</text>
</g>
<!-- connect_audio_jack_cable&#45;&gt;connect_micro_usb_cable -->
<g id="edge43" class="edge">
<title>connect_audio_jack_cable&#45;&gt;connect_micro_usb_cable</title>
<path fill="none" stroke="black" d="M897.79,-1440.23C881.23,-1430.88 860.4,-1419.12 842.53,-1409.04"/>
<polygon fill="black" stroke="black" points="844.7,-1406.24 834.27,-1404.37 841.26,-1412.34 844.7,-1406.24"/>
</g>
<!-- connect_ptru_usb_cable -->
<g id="node7" class="node">
<title>connect_ptru_usb_cable</title>
<ellipse fill="#eac546" stroke="black" cx="800.49" cy="-1314" rx="100.48" ry="18"/>
<text text-anchor="middle" x="800.49" y="-1308.95" font-family="Times,serif" font-size="14.00">connect_ptru_usb_cable</text>
</g>
<!-- connect_hagibis_usb_cable -->
<g id="node45" class="node">
<title>connect_hagibis_usb_cable</title>
<ellipse fill="none" stroke="black" cx="786.49" cy="-1242" rx="112.26" ry="18"/>
<text text-anchor="middle" x="786.49" y="-1236.95" font-family="Times,serif" font-size="14.00">connect_hagibis_usb_cable</text>
</g>
<!-- connect_ptru_usb_cable&#45;&gt;connect_hagibis_usb_cable -->
<g id="edge40" class="edge">
<title>connect_ptru_usb_cable&#45;&gt;connect_hagibis_usb_cable</title>
<path fill="none" stroke="black" d="M797.03,-1295.7C795.56,-1288.32 793.8,-1279.52 792.14,-1271.25"/>
<polygon fill="black" stroke="black" points="795.6,-1270.71 790.21,-1261.59 788.74,-1272.08 795.6,-1270.71"/>
</g>
<!-- screw_box_shut -->
<g id="node8" class="node">
<title>screw_box_shut</title>
<ellipse fill="#eac546" stroke="black" cx="306.49" cy="-90" rx="70.8" ry="18"/>
<text text-anchor="middle" x="306.49" y="-84.95" font-family="Times,serif" font-size="14.00">screw_box_shut</text>
</g>
<!-- screw_box_shut&#45;&gt;done -->
<g id="edge67" class="edge">
<title>screw_box_shut&#45;&gt;done</title>
<path fill="none" stroke="black" d="M306.49,-71.7C306.49,-64.41 306.49,-55.73 306.49,-47.54"/>
<polygon fill="black" stroke="black" points="309.99,-47.62 306.49,-37.62 302.99,-47.62 309.99,-47.62"/>
</g>
<!-- dilate_radxa_holes -->
<g id="node9" class="node">
<title>dilate_radxa_holes</title>
<ellipse fill="#8dd427" stroke="black" cx="770.49" cy="-2106" rx="80.52" ry="18"/>
<text text-anchor="middle" x="770.49" y="-2100.95" font-family="Times,serif" font-size="14.00">dilate_radxa_holes</text>
</g>
<!-- clean_radxa_cpu -->
<g id="node15" class="node">
<title>clean_radxa_cpu</title>
<ellipse fill="none" stroke="black" cx="770.49" cy="-2034" rx="73.36" ry="18"/>
<text text-anchor="middle" x="770.49" y="-2028.95" font-family="Times,serif" font-size="14.00">clean_radxa_cpu</text>
</g>
<!-- dilate_radxa_holes&#45;&gt;clean_radxa_cpu -->
<g id="edge1" class="edge">
<title>dilate_radxa_holes&#45;&gt;clean_radxa_cpu</title>
<path fill="none" stroke="black" d="M770.49,-2087.7C770.49,-2080.41 770.49,-2071.73 770.49,-2063.54"/>
<polygon fill="black" stroke="black" points="773.99,-2063.62 770.49,-2053.62 766.99,-2063.62 773.99,-2063.62"/>
</g>
<!-- cut_pwr_cable -->
<g id="node10" class="node">
<title>cut_pwr_cable</title>
<ellipse fill="#8dd427" stroke="black" cx="385.49" cy="-1746" rx="65.17" ry="18"/>
<text text-anchor="middle" x="385.49" y="-1740.95" font-family="Times,serif" font-size="14.00">cut_pwr_cable</text>
</g>
<!-- strip_ends_of_pwr_cable -->
<g id="node11" class="node">
<title>strip_ends_of_pwr_cable</title>
<ellipse fill="#8dd427" stroke="black" cx="385.49" cy="-1674" rx="104.07" ry="18"/>
<text text-anchor="middle" x="385.49" y="-1668.95" font-family="Times,serif" font-size="14.00">strip_ends_of_pwr_cable</text>
</g>
<!-- cut_pwr_cable&#45;&gt;strip_ends_of_pwr_cable -->
<g id="edge30" class="edge">
<title>cut_pwr_cable&#45;&gt;strip_ends_of_pwr_cable</title>
<path fill="none" stroke="black" d="M385.49,-1727.7C385.49,-1720.41 385.49,-1711.73 385.49,-1703.54"/>
<polygon fill="black" stroke="black" points="388.99,-1703.62 385.49,-1693.62 381.99,-1703.62 388.99,-1703.62"/>
</g>
<!-- tin_ends_of_pwr_cable -->
<g id="node12" class="node">
<title>tin_ends_of_pwr_cable</title>
<ellipse fill="#8dd427" stroke="black" cx="385.49" cy="-1602" rx="97.41" ry="18"/>
<text text-anchor="middle" x="385.49" y="-1596.95" font-family="Times,serif" font-size="14.00">tin_ends_of_pwr_cable</text>
</g>
<!-- strip_ends_of_pwr_cable&#45;&gt;tin_ends_of_pwr_cable -->
<g id="edge31" class="edge">
<title>strip_ends_of_pwr_cable&#45;&gt;tin_ends_of_pwr_cable</title>
<path fill="none" stroke="black" d="M385.49,-1655.7C385.49,-1648.41 385.49,-1639.73 385.49,-1631.54"/>
<polygon fill="black" stroke="black" points="388.99,-1631.62 385.49,-1621.62 381.99,-1631.62 388.99,-1631.62"/>
</g>
<!-- solder_pwr_cable_to_barrel_jack -->
<g id="node13" class="node">
<title>solder_pwr_cable_to_barrel_jack</title>
<ellipse fill="#8dd427" stroke="black" cx="357.49" cy="-1530" rx="134.26" ry="18"/>
<text text-anchor="middle" x="357.49" y="-1524.95" font-family="Times,serif" font-size="14.00">solder_pwr_cable_to_barrel_jack</text>
</g>
<!-- tin_ends_of_pwr_cable&#45;&gt;solder_pwr_cable_to_barrel_jack -->
<g id="edge32" class="edge">
<title>tin_ends_of_pwr_cable&#45;&gt;solder_pwr_cable_to_barrel_jack</title>
<path fill="none" stroke="black" d="M378.57,-1583.7C375.55,-1576.15 371.94,-1567.12 368.56,-1558.68"/>
<polygon fill="black" stroke="black" points="371.86,-1557.49 364.9,-1549.51 365.36,-1560.09 371.86,-1557.49"/>
</g>
<!-- insert_pwr_cable_through_back_panel -->
<g id="node39" class="node">
<title>insert_pwr_cable_through_back_panel</title>
<ellipse fill="none" stroke="black" cx="382.49" cy="-1458" rx="154.22" ry="18"/>
<text text-anchor="middle" x="382.49" y="-1452.95" font-family="Times,serif" font-size="14.00">insert_pwr_cable_through_back_panel</text>
</g>
<!-- solder_pwr_cable_to_barrel_jack&#45;&gt;insert_pwr_cable_through_back_panel -->
<g id="edge34" class="edge">
<title>solder_pwr_cable_to_barrel_jack&#45;&gt;insert_pwr_cable_through_back_panel</title>
<path fill="none" stroke="black" d="M363.67,-1511.7C366.37,-1504.15 369.59,-1495.12 372.61,-1486.68"/>
<polygon fill="black" stroke="black" points="375.81,-1488.12 375.87,-1477.53 369.22,-1485.77 375.81,-1488.12"/>
</g>
<!-- remove_ring_from_barrel_jack -->
<g id="node14" class="node">
<title>remove_ring_from_barrel_jack</title>
<ellipse fill="#8dd427" stroke="black" cx="142.49" cy="-1602" rx="127.61" ry="18"/>
<text text-anchor="middle" x="142.49" y="-1596.95" font-family="Times,serif" font-size="14.00">remove_ring_from_barrel_jack</text>
</g>
<!-- remove_ring_from_barrel_jack&#45;&gt;solder_pwr_cable_to_barrel_jack -->
<g id="edge33" class="edge">
<title>remove_ring_from_barrel_jack&#45;&gt;solder_pwr_cable_to_barrel_jack</title>
<path fill="none" stroke="black" d="M191.82,-1584.94C223.25,-1574.71 264.19,-1561.38 297.5,-1550.53"/>
<polygon fill="black" stroke="black" points="298.16,-1554 306.59,-1547.57 295.99,-1547.34 298.16,-1554"/>
</g>
<!-- stick_thermal_pad_on_radxa -->
<g id="node17" class="node">
<title>stick_thermal_pad_on_radxa</title>
<ellipse fill="none" stroke="black" cx="749.49" cy="-1962" rx="118.4" ry="18"/>
<text text-anchor="middle" x="749.49" y="-1956.95" font-family="Times,serif" font-size="14.00">stick_thermal_pad_on_radxa</text>
</g>
<!-- clean_radxa_cpu&#45;&gt;stick_thermal_pad_on_radxa -->
<g id="edge3" class="edge">
<title>clean_radxa_cpu&#45;&gt;stick_thermal_pad_on_radxa</title>
<path fill="none" stroke="black" d="M765.3,-2015.7C763.06,-2008.24 760.39,-1999.32 757.88,-1990.97"/>
<polygon fill="black" stroke="black" points="761.28,-1990.13 755.06,-1981.55 754.58,-1992.14 761.28,-1990.13"/>
</g>
<!-- prepare_thermal_pad -->
<g id="node16" class="node">
<title>prepare_thermal_pad</title>
<ellipse fill="none" stroke="black" cx="589.49" cy="-2034" rx="89.74" ry="18"/>
<text text-anchor="middle" x="589.49" y="-2028.95" font-family="Times,serif" font-size="14.00">prepare_thermal_pad</text>
</g>
<!-- prepare_thermal_pad&#45;&gt;stick_thermal_pad_on_radxa -->
<g id="edge2" class="edge">
<title>prepare_thermal_pad&#45;&gt;stick_thermal_pad_on_radxa</title>
<path fill="none" stroke="black" d="M625.8,-2017.12C648.21,-2007.31 677.21,-1994.62 701.5,-1984"/>
<polygon fill="black" stroke="black" points="702.8,-1987.25 710.55,-1980.04 699.99,-1980.84 702.8,-1987.25"/>
</g>
<!-- mount_radxa_on_baseplate -->
<g id="node20" class="node">
<title>mount_radxa_on_baseplate</title>
<ellipse fill="none" stroke="black" cx="879.49" cy="-1890" rx="112.77" ry="18"/>
<text text-anchor="middle" x="879.49" y="-1884.95" font-family="Times,serif" font-size="14.00">mount_radxa_on_baseplate</text>
</g>
<!-- stick_thermal_pad_on_radxa&#45;&gt;mount_radxa_on_baseplate -->
<g id="edge6" class="edge">
<title>stick_thermal_pad_on_radxa&#45;&gt;mount_radxa_on_baseplate</title>
<path fill="none" stroke="black" d="M780.63,-1944.23C798,-1934.88 819.84,-1923.12 838.57,-1913.04"/>
<polygon fill="black" stroke="black" points="840.13,-1916.17 847.28,-1908.35 836.81,-1910.01 840.13,-1916.17"/>
</g>
<!-- apply_threadlock_to_baseplate -->
<g id="node18" class="node">
<title>apply_threadlock_to_baseplate</title>
<ellipse fill="none" stroke="black" cx="1008.49" cy="-2034" rx="125.56" ry="18"/>
<text text-anchor="middle" x="1008.49" y="-2028.95" font-family="Times,serif" font-size="14.00">apply_threadlock_to_baseplate</text>
</g>
<!-- clean_baseplate_thermal_area -->
<g id="node19" class="node">
<title>clean_baseplate_thermal_area</title>
<ellipse fill="none" stroke="black" cx="1008.49" cy="-1962" rx="122.49" ry="18"/>
<text text-anchor="middle" x="1008.49" y="-1956.95" font-family="Times,serif" font-size="14.00">clean_baseplate_thermal_area</text>
</g>
<!-- apply_threadlock_to_baseplate&#45;&gt;clean_baseplate_thermal_area -->
<g id="edge4" class="edge">
<title>apply_threadlock_to_baseplate&#45;&gt;clean_baseplate_thermal_area</title>
<path fill="none" stroke="black" d="M1008.49,-2015.7C1008.49,-2008.41 1008.49,-1999.73 1008.49,-1991.54"/>
<polygon fill="black" stroke="black" points="1011.99,-1991.62 1008.49,-1981.62 1004.99,-1991.62 1011.99,-1991.62"/>
</g>
<!-- clean_baseplate_thermal_area&#45;&gt;mount_radxa_on_baseplate -->
<g id="edge5" class="edge">
<title>clean_baseplate_thermal_area&#45;&gt;mount_radxa_on_baseplate</title>
<path fill="none" stroke="black" d="M977.59,-1944.23C960.36,-1934.88 938.69,-1923.12 920.1,-1913.04"/>
<polygon fill="black" stroke="black" points="921.93,-1910.04 911.47,-1908.35 918.59,-1916.2 921.93,-1910.04"/>
</g>
<!-- mount_sap_on_baseplate -->
<g id="node22" class="node">
<title>mount_sap_on_baseplate</title>
<ellipse fill="none" stroke="black" cx="939.49" cy="-1746" rx="104.58" ry="18"/>
<text text-anchor="middle" x="939.49" y="-1740.95" font-family="Times,serif" font-size="14.00">mount_sap_on_baseplate</text>
</g>
<!-- mount_radxa_on_baseplate&#45;&gt;mount_sap_on_baseplate -->
<g id="edge8" class="edge">
<title>mount_radxa_on_baseplate&#45;&gt;mount_sap_on_baseplate</title>
<path fill="none" stroke="black" d="M880.9,-1871.55C882.92,-1853.06 887.65,-1823.36 898.49,-1800 902.97,-1790.34 909.49,-1780.81 916.02,-1772.55"/>
<polygon fill="black" stroke="black" points="918.6,-1774.92 922.32,-1765 913.23,-1770.44 918.6,-1774.92"/>
</g>
<!-- mount_hagibis_rear_on_baseplate -->
<g id="node23" class="node">
<title>mount_hagibis_rear_on_baseplate</title>
<ellipse fill="none" stroke="black" cx="1527.49" cy="-1818" rx="137.85" ry="18"/>
<text text-anchor="middle" x="1527.49" y="-1812.95" font-family="Times,serif" font-size="14.00">mount_hagibis_rear_on_baseplate</text>
</g>
<!-- mount_radxa_on_baseplate&#45;&gt;mount_hagibis_rear_on_baseplate -->
<g id="edge9" class="edge">
<title>mount_radxa_on_baseplate&#45;&gt;mount_hagibis_rear_on_baseplate</title>
<path fill="none" stroke="black" d="M972.51,-1879.48C1073.31,-1869.1 1238.86,-1851.83 1381.49,-1836 1392.83,-1834.74 1404.66,-1833.4 1416.47,-1832.05"/>
<polygon fill="black" stroke="black" points="1416.73,-1835.55 1426.26,-1830.93 1415.93,-1828.59 1416.73,-1835.55"/>
</g>
<!-- mount_display_holders_on_baseplate -->
<g id="node28" class="node">
<title>mount_display_holders_on_baseplate</title>
<ellipse fill="none" stroke="black" cx="413.49" cy="-1818" rx="150.64" ry="18"/>
<text text-anchor="middle" x="413.49" y="-1812.95" font-family="Times,serif" font-size="14.00">mount_display_holders_on_baseplate</text>
</g>
<!-- mount_radxa_on_baseplate&#45;&gt;mount_display_holders_on_baseplate -->
<g id="edge14" class="edge">
<title>mount_radxa_on_baseplate&#45;&gt;mount_display_holders_on_baseplate</title>
<path fill="none" stroke="black" d="M799.38,-1876.97C720.94,-1865.18 601.09,-1847.18 515.78,-1834.37"/>
<polygon fill="black" stroke="black" points="516.42,-1830.92 506.01,-1832.9 515.38,-1837.84 516.42,-1830.92"/>
</g>
<!-- mount_teensy_on_audio_brd -->
<g id="node21" class="node">
<title>mount_teensy_on_audio_brd</title>
<ellipse fill="none" stroke="black" cx="1026.49" cy="-1818" rx="118.91" ry="18"/>
<text text-anchor="middle" x="1026.49" y="-1812.95" font-family="Times,serif" font-size="14.00">mount_teensy_on_audio_brd</text>
</g>
<!-- mount_teensy_on_audio_brd&#45;&gt;mount_sap_on_baseplate -->
<g id="edge7" class="edge">
<title>mount_teensy_on_audio_brd&#45;&gt;mount_sap_on_baseplate</title>
<path fill="none" stroke="black" d="M1005.43,-1800.05C994.61,-1791.35 981.24,-1780.59 969.38,-1771.04"/>
<polygon fill="black" stroke="black" points="971.83,-1768.52 961.84,-1764.98 967.44,-1773.98 971.83,-1768.52"/>
</g>
<!-- mount_sap_on_baseplate&#45;&gt;base_assembled -->
<g id="edge21" class="edge">
<title>mount_sap_on_baseplate&#45;&gt;base_assembled</title>
<path fill="none" stroke="black" d="M939.49,-1727.59C939.49,-1703.61 939.49,-1660.14 939.49,-1631.42"/>
<polygon fill="black" stroke="black" points="942.99,-1631.62 939.49,-1621.62 935.99,-1631.62 942.99,-1631.62"/>
</g>
<!-- mount_hagibis_front_on_baseplate -->
<g id="node25" class="node">
<title>mount_hagibis_front_on_baseplate</title>
<ellipse fill="none" stroke="black" cx="1347.49" cy="-1674" rx="141.43" ry="18"/>
<text text-anchor="middle" x="1347.49" y="-1668.95" font-family="Times,serif" font-size="14.00">mount_hagibis_front_on_baseplate</text>
</g>
<!-- mount_hagibis_rear_on_baseplate&#45;&gt;mount_hagibis_front_on_baseplate -->
<g id="edge11" class="edge">
<title>mount_hagibis_rear_on_baseplate&#45;&gt;mount_hagibis_front_on_baseplate</title>
<path fill="none" stroke="black" d="M1505.78,-1799.87C1473.89,-1774.71 1414.24,-1727.65 1377.97,-1699.04"/>
<polygon fill="black" stroke="black" points="1380.49,-1696.57 1370.47,-1693.13 1376.15,-1702.07 1380.49,-1696.57"/>
</g>
<!-- disassemble_hagibis_if_needed -->
<g id="node24" class="node">
<title>disassemble_hagibis_if_needed</title>
<ellipse fill="none" stroke="black" cx="1527.49" cy="-1890" rx="128.12" ry="18"/>
<text text-anchor="middle" x="1527.49" y="-1884.95" font-family="Times,serif" font-size="14.00">disassemble_hagibis_if_needed</text>
</g>
<!-- disassemble_hagibis_if_needed&#45;&gt;mount_hagibis_rear_on_baseplate -->
<g id="edge10" class="edge">
<title>disassemble_hagibis_if_needed&#45;&gt;mount_hagibis_rear_on_baseplate</title>
<path fill="none" stroke="black" d="M1527.49,-1871.7C1527.49,-1864.41 1527.49,-1855.73 1527.49,-1847.54"/>
<polygon fill="black" stroke="black" points="1530.99,-1847.62 1527.49,-1837.62 1523.99,-1847.62 1530.99,-1847.62"/>
</g>
<!-- mount_hagibis_front_on_baseplate&#45;&gt;base_assembled -->
<g id="edge22" class="edge">
<title>mount_hagibis_front_on_baseplate&#45;&gt;base_assembled</title>
<path fill="none" stroke="black" d="M1265.42,-1658.92C1204.25,-1648.42 1119.98,-1633.97 1052.45,-1622.38"/>
<polygon fill="black" stroke="black" points="1053.28,-1618.97 1042.83,-1620.73 1052.09,-1625.87 1053.28,-1618.97"/>
</g>
<!-- mount_fuse_on_pwr_brd -->
<g id="node26" class="node">
<title>mount_fuse_on_pwr_brd</title>
<ellipse fill="none" stroke="black" cx="1267.49" cy="-1818" rx="104.58" ry="18"/>
<text text-anchor="middle" x="1267.49" y="-1812.95" font-family="Times,serif" font-size="14.00">mount_fuse_on_pwr_brd</text>
</g>
<!-- mount_fuse_on_pwr_brd&#45;&gt;mount_sap_on_baseplate -->
<g id="edge12" class="edge">
<title>mount_fuse_on_pwr_brd&#45;&gt;mount_sap_on_baseplate</title>
<path fill="none" stroke="black" d="M1203.47,-1803.34C1149.29,-1791.77 1071.56,-1775.19 1014.48,-1763"/>
<polygon fill="black" stroke="black" points="1015.34,-1759.61 1004.83,-1760.94 1013.88,-1766.45 1015.34,-1759.61"/>
</g>
<!-- remove_artifacts_from_display_holders -->
<g id="node27" class="node">
<title>remove_artifacts_from_display_holders</title>
<ellipse fill="none" stroke="black" cx="413.49" cy="-1890" rx="159.34" ry="18"/>
<text text-anchor="middle" x="413.49" y="-1884.95" font-family="Times,serif" font-size="14.00">remove_artifacts_from_display_holders</text>
</g>
<!-- remove_artifacts_from_display_holders&#45;&gt;mount_display_holders_on_baseplate -->
<g id="edge13" class="edge">
<title>remove_artifacts_from_display_holders&#45;&gt;mount_display_holders_on_baseplate</title>
<path fill="none" stroke="black" d="M413.49,-1871.7C413.49,-1864.41 413.49,-1855.73 413.49,-1847.54"/>
<polygon fill="black" stroke="black" points="416.99,-1847.62 413.49,-1837.62 409.99,-1847.62 416.99,-1847.62"/>
</g>
<!-- mount_display_holders_on_baseplate&#45;&gt;place_display_hat_on_display_holders -->
<g id="edge16" class="edge">
<title>mount_display_holders_on_baseplate&#45;&gt;place_display_hat_on_display_holders</title>
<path fill="none" stroke="black" d="M467.53,-1800.76C501.52,-1790.55 545.59,-1777.32 581.48,-1766.53"/>
<polygon fill="black" stroke="black" points="582.32,-1769.93 590.89,-1763.7 580.31,-1763.23 582.32,-1769.93"/>
</g>
<!-- place_radxa_hat_on_radxa_without_connecting -->
<g id="node30" class="node">
<title>place_radxa_hat_on_radxa_without_connecting</title>
<ellipse fill="none" stroke="black" cx="705.49" cy="-1674" rx="188" ry="18"/>
<text text-anchor="middle" x="705.49" y="-1668.95" font-family="Times,serif" font-size="14.00">place_radxa_hat_on_radxa_without_connecting</text>
</g>
<!-- place_display_hat_on_display_holders&#45;&gt;place_radxa_hat_on_radxa_without_connecting -->
<g id="edge17" class="edge">
<title>place_display_hat_on_display_holders&#45;&gt;place_radxa_hat_on_radxa_without_connecting</title>
<path fill="none" stroke="black" d="M661.08,-1727.7C667.94,-1719.56 676.25,-1709.69 683.83,-1700.7"/>
<polygon fill="black" stroke="black" points="686.33,-1703.16 690.1,-1693.26 680.98,-1698.65 686.33,-1703.16"/>
</g>
<!-- place_radxa_hat_on_radxa_without_connecting&#45;&gt;base_assembled -->
<g id="edge23" class="edge">
<title>place_radxa_hat_on_radxa_without_connecting&#45;&gt;base_assembled</title>
<path fill="none" stroke="black" d="M760.95,-1656.41C793.77,-1646.59 835.63,-1634.07 870.57,-1623.62"/>
<polygon fill="black" stroke="black" points="871.14,-1627.1 879.72,-1620.88 869.14,-1620.39 871.14,-1627.1"/>
</g>
<!-- mark_duped_mta100_cables -->
<g id="node31" class="node">
<title>mark_duped_mta100_cables</title>
<ellipse fill="none" stroke="black" cx="1179.49" cy="-1602" rx="117.89" ry="18"/>
<text text-anchor="middle" x="1179.49" y="-1596.95" font-family="Times,serif" font-size="14.00">mark_duped_mta100_cables</text>
</g>
<!-- mark_duped_mta100_cables&#45;&gt;connect_all_6_mta100_cables -->
<g id="edge18" class="edge">
<title>mark_duped_mta100_cables&#45;&gt;connect_all_6_mta100_cables</title>
<path fill="none" stroke="black" d="M1127.94,-1585.38C1093.33,-1574.89 1047.53,-1561.01 1010.86,-1549.9"/>
<polygon fill="black" stroke="black" points="1012.32,-1546.68 1001.74,-1547.13 1010.29,-1553.38 1012.32,-1546.68"/>
</g>
<!-- connect_all_6_mta100_cables&#45;&gt;connect_audio_jack_cable -->
<g id="edge44" class="edge">
<title>connect_all_6_mta100_cables&#45;&gt;connect_audio_jack_cable</title>
<path fill="none" stroke="black" d="M943.3,-1511.7C941.06,-1504.24 938.39,-1495.32 935.88,-1486.97"/>
<polygon fill="black" stroke="black" points="939.28,-1486.13 933.06,-1477.55 932.58,-1488.14 939.28,-1486.13"/>
</g>
<!-- connect_fans_to_pwr_brd -->
<g id="node35" class="node">
<title>connect_fans_to_pwr_brd</title>
<ellipse fill="none" stroke="black" cx="1161.49" cy="-1458" rx="107.14" ry="18"/>
<text text-anchor="middle" x="1161.49" y="-1452.95" font-family="Times,serif" font-size="14.00">connect_fans_to_pwr_brd</text>
</g>
<!-- connect_all_6_mta100_cables&#45;&gt;connect_fans_to_pwr_brd -->
<g id="edge26" class="edge">
<title>connect_all_6_mta100_cables&#45;&gt;connect_fans_to_pwr_brd</title>
<path fill="none" stroke="black" d="M997.09,-1513.03C1028.78,-1502.61 1070.29,-1488.97 1103.67,-1478"/>
<polygon fill="black" stroke="black" points="1104.36,-1481.46 1112.76,-1475.01 1102.17,-1474.81 1104.36,-1481.46"/>
</g>
<!-- connect_radxa_to_pwr_board -->
<g id="node38" class="node">
<title>connect_radxa_to_pwr_board</title>
<ellipse fill="none" stroke="black" cx="679.49" cy="-1458" rx="120.96" ry="18"/>
<text text-anchor="middle" x="679.49" y="-1452.95" font-family="Times,serif" font-size="14.00">connect_radxa_to_pwr_board</text>
</g>
<!-- connect_all_6_mta100_cables&#45;&gt;connect_radxa_to_pwr_board -->
<g id="edge29" class="edge">
<title>connect_all_6_mta100_cables&#45;&gt;connect_radxa_to_pwr_board</title>
<path fill="none" stroke="black" d="M889.79,-1513.72C848.27,-1502.92 792.43,-1488.39 748.73,-1477.02"/>
<polygon fill="black" stroke="black" points="749.63,-1473.63 739.07,-1474.5 747.87,-1480.41 749.63,-1473.63"/>
</g>
<!-- mark_duped_mta100_connectors -->
<g id="node33" class="node">
<title>mark_duped_mta100_connectors</title>
<ellipse fill="none" stroke="black" cx="716.49" cy="-1818" rx="134.78" ry="18"/>
<text text-anchor="middle" x="716.49" y="-1812.95" font-family="Times,serif" font-size="14.00">mark_duped_mta100_connectors</text>
</g>
<!-- mark_duped_mta100_connectors&#45;&gt;mount_sap_on_baseplate -->
<g id="edge19" class="edge">
<title>mark_duped_mta100_connectors&#45;&gt;mount_sap_on_baseplate</title>
<path fill="none" stroke="black" d="M767.65,-1800.94C801.21,-1790.41 845.21,-1776.59 880.29,-1765.58"/>
<polygon fill="black" stroke="black" points="880.93,-1769.05 889.42,-1762.72 878.83,-1762.37 880.93,-1769.05"/>
</g>
<!-- mark_duped_mta100_connectors&#45;&gt;place_display_hat_on_display_holders -->
<g id="edge20" class="edge">
<title>mark_duped_mta100_connectors&#45;&gt;place_display_hat_on_display_holders</title>
<path fill="none" stroke="black" d="M699.19,-1799.7C690.88,-1791.39 680.77,-1781.28 671.63,-1772.14"/>
<polygon fill="black" stroke="black" points="674.21,-1769.77 664.67,-1765.17 669.26,-1774.72 674.21,-1769.77"/>
</g>
<!-- crimp_fan_connectors -->
<g id="node34" class="node">
<title>crimp_fan_connectors</title>
<ellipse fill="none" stroke="black" cx="1183.49" cy="-1530" rx="93.83" ry="18"/>
<text text-anchor="middle" x="1183.49" y="-1524.95" font-family="Times,serif" font-size="14.00">crimp_fan_connectors</text>
</g>
<!-- crimp_fan_connectors&#45;&gt;connect_fans_to_pwr_brd -->
<g id="edge25" class="edge">
<title>crimp_fan_connectors&#45;&gt;connect_fans_to_pwr_brd</title>
<path fill="none" stroke="black" d="M1178.05,-1511.7C1175.71,-1504.24 1172.91,-1495.32 1170.28,-1486.97"/>
<polygon fill="black" stroke="black" points="1173.66,-1486.04 1167.32,-1477.55 1166.98,-1488.14 1173.66,-1486.04"/>
</g>
<!-- connect_fans_to_pwr_brd&#45;&gt;connect_micro_usb_cable -->
<g id="edge47" class="edge">
<title>connect_fans_to_pwr_brd&#45;&gt;connect_micro_usb_cable</title>
<path fill="none" stroke="black" d="M1093.73,-1443.75C1033.69,-1432.01 945.97,-1414.86 882.7,-1402.49"/>
<polygon fill="black" stroke="black" points="883.55,-1399.09 873.07,-1400.6 882.21,-1405.96 883.55,-1399.09"/>
</g>
<!-- strip_ends_of_radxa_pwr_cable -->
<g id="node36" class="node">
<title>strip_ends_of_radxa_pwr_cable</title>
<ellipse fill="none" stroke="black" cx="658.49" cy="-1602" rx="129.15" ry="18"/>
<text text-anchor="middle" x="658.49" y="-1596.95" font-family="Times,serif" font-size="14.00">strip_ends_of_radxa_pwr_cable</text>
</g>
<!-- attach_terminal_to_radxa_pwr_cable -->
<g id="node37" class="node">
<title>attach_terminal_to_radxa_pwr_cable</title>
<ellipse fill="none" stroke="black" cx="658.49" cy="-1530" rx="148.59" ry="18"/>
<text text-anchor="middle" x="658.49" y="-1524.95" font-family="Times,serif" font-size="14.00">attach_terminal_to_radxa_pwr_cable</text>
</g>
<!-- strip_ends_of_radxa_pwr_cable&#45;&gt;attach_terminal_to_radxa_pwr_cable -->
<g id="edge27" class="edge">
<title>strip_ends_of_radxa_pwr_cable&#45;&gt;attach_terminal_to_radxa_pwr_cable</title>
<path fill="none" stroke="black" d="M658.49,-1583.7C658.49,-1576.41 658.49,-1567.73 658.49,-1559.54"/>
<polygon fill="black" stroke="black" points="661.99,-1559.62 658.49,-1549.62 654.99,-1559.62 661.99,-1559.62"/>
</g>
<!-- attach_terminal_to_radxa_pwr_cable&#45;&gt;connect_radxa_to_pwr_board -->
<g id="edge28" class="edge">
<title>attach_terminal_to_radxa_pwr_cable&#45;&gt;connect_radxa_to_pwr_board</title>
<path fill="none" stroke="black" d="M663.68,-1511.7C665.92,-1504.24 668.6,-1495.32 671.1,-1486.97"/>
<polygon fill="black" stroke="black" points="674.41,-1488.14 673.93,-1477.55 667.7,-1486.13 674.41,-1488.14"/>
</g>
<!-- connect_radxa_to_pwr_board&#45;&gt;connect_micro_usb_cable -->
<g id="edge46" class="edge">
<title>connect_radxa_to_pwr_board&#45;&gt;connect_micro_usb_cable</title>
<path fill="none" stroke="black" d="M709.19,-1440.23C725.76,-1430.88 746.59,-1419.12 764.46,-1409.04"/>
<polygon fill="black" stroke="black" points="765.73,-1412.34 772.72,-1404.37 762.29,-1406.24 765.73,-1412.34"/>
</g>
<!-- insert_ring_on_barrel_jack -->
<g id="node40" class="node">
<title>insert_ring_on_barrel_jack</title>
<ellipse fill="none" stroke="black" cx="446.49" cy="-1386" rx="110.72" ry="18"/>
<text text-anchor="middle" x="446.49" y="-1380.95" font-family="Times,serif" font-size="14.00">insert_ring_on_barrel_jack</text>
</g>
<!-- insert_pwr_cable_through_back_panel&#45;&gt;insert_ring_on_barrel_jack -->
<g id="edge35" class="edge">
<title>insert_pwr_cable_through_back_panel&#45;&gt;insert_ring_on_barrel_jack</title>
<path fill="none" stroke="black" d="M398.31,-1439.7C405.83,-1431.47 414.97,-1421.48 423.25,-1412.42"/>
<polygon fill="black" stroke="black" points="425.67,-1414.96 429.83,-1405.22 420.5,-1410.24 425.67,-1414.96"/>
</g>
<!-- attach_terminal_to_pwr_cable -->
<g id="node41" class="node">
<title>attach_terminal_to_pwr_cable</title>
<ellipse fill="none" stroke="black" cx="510.49" cy="-1314" rx="123.52" ry="18"/>
<text text-anchor="middle" x="510.49" y="-1308.95" font-family="Times,serif" font-size="14.00">attach_terminal_to_pwr_cable</text>
</g>
<!-- insert_ring_on_barrel_jack&#45;&gt;attach_terminal_to_pwr_cable -->
<g id="edge36" class="edge">
<title>insert_ring_on_barrel_jack&#45;&gt;attach_terminal_to_pwr_cable</title>
<path fill="none" stroke="black" d="M462.31,-1367.7C469.83,-1359.47 478.97,-1349.48 487.25,-1340.42"/>
<polygon fill="black" stroke="black" points="489.67,-1342.96 493.83,-1333.22 484.5,-1338.24 489.67,-1342.96"/>
</g>
<!-- connect_pwr_cable_to_pwr_board -->
<g id="node42" class="node">
<title>connect_pwr_cable_to_pwr_board</title>
<ellipse fill="none" stroke="black" cx="510.49" cy="-1242" rx="138.87" ry="18"/>
<text text-anchor="middle" x="510.49" y="-1236.95" font-family="Times,serif" font-size="14.00">connect_pwr_cable_to_pwr_board</text>
</g>
<!-- attach_terminal_to_pwr_cable&#45;&gt;connect_pwr_cable_to_pwr_board -->
<g id="edge37" class="edge">
<title>attach_terminal_to_pwr_cable&#45;&gt;connect_pwr_cable_to_pwr_board</title>
<path fill="none" stroke="black" d="M510.49,-1295.7C510.49,-1288.41 510.49,-1279.73 510.49,-1271.54"/>
<polygon fill="black" stroke="black" points="513.99,-1271.62 510.49,-1261.62 506.99,-1271.62 513.99,-1271.62"/>
</g>
<!-- connect_pwr_cable_to_pwr_board&#45;&gt;connect_ethernet_cable -->
<g id="edge45" class="edge">
<title>connect_pwr_cable_to_pwr_board&#45;&gt;connect_ethernet_cable</title>
<path fill="none" stroke="black" d="M510.49,-1223.7C510.49,-1216.41 510.49,-1207.73 510.49,-1199.54"/>
<polygon fill="black" stroke="black" points="513.99,-1199.62 510.49,-1189.62 506.99,-1199.62 513.99,-1199.62"/>
</g>
<!-- connect_micro_usb_cable&#45;&gt;connect_ptru_usb_cable -->
<g id="edge38" class="edge">
<title>connect_micro_usb_cable&#45;&gt;connect_ptru_usb_cable</title>
<path fill="none" stroke="black" d="M802.75,-1367.7C802.44,-1360.41 802.07,-1351.73 801.72,-1343.54"/>
<polygon fill="black" stroke="black" points="805.22,-1343.46 801.29,-1333.62 798.22,-1343.76 805.22,-1343.46"/>
</g>
<!-- attach_neutrik_connector_to_back_plate -->
<g id="node44" class="node">
<title>attach_neutrik_connector_to_back_plate</title>
<ellipse fill="none" stroke="black" cx="208.49" cy="-1314" rx="160.88" ry="18"/>
<text text-anchor="middle" x="208.49" y="-1308.95" font-family="Times,serif" font-size="14.00">attach_neutrik_connector_to_back_plate</text>
</g>
<!-- attach_neutrik_connector_to_back_plate&#45;&gt;connect_micro_hdmi_cable -->
<g id="edge39" class="edge">
<title>attach_neutrik_connector_to_back_plate&#45;&gt;connect_micro_hdmi_cable</title>
<path fill="none" stroke="black" d="M212.45,-1295.7C214.13,-1288.32 216.14,-1279.52 218.04,-1271.25"/>
<polygon fill="black" stroke="black" points="221.43,-1272.11 220.25,-1261.58 214.61,-1270.55 221.43,-1272.11"/>
</g>
<!-- connect_hagibis_usb_cable&#45;&gt;connect_ethernet_cable -->
<g id="edge41" class="edge">
<title>connect_hagibis_usb_cable&#45;&gt;connect_ethernet_cable</title>
<path fill="none" stroke="black" d="M728.3,-1226.24C684.17,-1215.05 623.46,-1199.65 577.35,-1187.96"/>
<polygon fill="black" stroke="black" points="578.27,-1184.58 567.72,-1185.51 576.55,-1191.37 578.27,-1184.58"/>
</g>
<!-- attach_cables_to_baseplate -->
<g id="node47" class="node">
<title>attach_cables_to_baseplate</title>
<ellipse fill="none" stroke="black" cx="510.49" cy="-1098" rx="111.23" ry="18"/>
<text text-anchor="middle" x="510.49" y="-1092.95" font-family="Times,serif" font-size="14.00">attach_cables_to_baseplate</text>
</g>
<!-- connect_ethernet_cable&#45;&gt;attach_cables_to_baseplate -->
<g id="edge48" class="edge">
<title>connect_ethernet_cable&#45;&gt;attach_cables_to_baseplate</title>
<path fill="none" stroke="black" d="M510.49,-1151.7C510.49,-1144.41 510.49,-1135.73 510.49,-1127.54"/>
<polygon fill="black" stroke="black" points="513.99,-1127.62 510.49,-1117.62 506.99,-1127.62 513.99,-1127.62"/>
</g>
<!-- attach_cables_to_baseplate&#45;&gt;base_wired -->
<g id="edge49" class="edge">
<title>attach_cables_to_baseplate&#45;&gt;base_wired</title>
<path fill="none" stroke="black" d="M510.49,-1079.7C510.49,-1072.41 510.49,-1063.73 510.49,-1055.54"/>
<polygon fill="black" stroke="black" points="513.99,-1055.62 510.49,-1045.62 506.99,-1055.62 513.99,-1055.62"/>
</g>
<!-- slide_base_and_panels_into_box -->
<g id="node49" class="node">
<title>slide_base_and_panels_into_box</title>
<ellipse fill="none" stroke="black" cx="405.49" cy="-882" rx="132.73" ry="18"/>
<text text-anchor="middle" x="405.49" y="-876.95" font-family="Times,serif" font-size="14.00">slide_base_and_panels_into_box</text>
</g>
<!-- attach_front_panel_to_audio_brd&#45;&gt;slide_base_and_panels_into_box -->
<g id="edge51" class="edge">
<title>attach_front_panel_to_audio_brd&#45;&gt;slide_base_and_panels_into_box</title>
<path fill="none" stroke="black" d="M484.81,-935.88C471.36,-926.91 454.7,-915.81 440.13,-906.09"/>
<polygon fill="black" stroke="black" points="442.43,-903.42 432.17,-900.79 438.55,-909.25 442.43,-903.42"/>
</g>
<!-- attach_base_to_box -->
<g id="node51" class="node">
<title>attach_base_to_box</title>
<ellipse fill="none" stroke="black" cx="349.49" cy="-810" rx="84.11" ry="18"/>
<text text-anchor="middle" x="349.49" y="-804.95" font-family="Times,serif" font-size="14.00">attach_base_to_box</text>
</g>
<!-- slide_base_and_panels_into_box&#45;&gt;attach_base_to_box -->
<g id="edge53" class="edge">
<title>slide_base_and_panels_into_box&#45;&gt;attach_base_to_box</title>
<path fill="none" stroke="black" d="M391.65,-863.7C385.21,-855.64 377.41,-845.89 370.28,-836.98"/>
<polygon fill="black" stroke="black" points="373.1,-834.91 364.12,-829.29 367.64,-839.28 373.1,-834.91"/>
</g>
<!-- attach_onlyfans_to_box -->
<g id="node52" class="node">
<title>attach_onlyfans_to_box</title>
<ellipse fill="none" stroke="black" cx="519.49" cy="-738" rx="99.46" ry="18"/>
<text text-anchor="middle" x="519.49" y="-732.95" font-family="Times,serif" font-size="14.00">attach_onlyfans_to_box</text>
</g>
<!-- slide_base_and_panels_into_box&#45;&gt;attach_onlyfans_to_box -->
<g id="edge54" class="edge">
<title>slide_base_and_panels_into_box&#45;&gt;attach_onlyfans_to_box</title>
<path fill="none" stroke="black" d="M419.24,-863.87C439.02,-839.24 475.63,-793.64 498.71,-764.88"/>
<polygon fill="black" stroke="black" points="501.21,-767.36 504.75,-757.37 495.76,-762.98 501.21,-767.36"/>
</g>
<!-- prepare_box -->
<g id="node50" class="node">
<title>prepare_box</title>
<ellipse fill="none" stroke="black" cx="301.49" cy="-954" rx="56.98" ry="18"/>
<text text-anchor="middle" x="301.49" y="-948.95" font-family="Times,serif" font-size="14.00">prepare_box</text>
</g>
<!-- prepare_box&#45;&gt;slide_base_and_panels_into_box -->
<g id="edge52" class="edge">
<title>prepare_box&#45;&gt;slide_base_and_panels_into_box</title>
<path fill="none" stroke="black" d="M324.83,-937.29C338.29,-928.23 355.48,-916.66 370.53,-906.53"/>
<polygon fill="black" stroke="black" points="372.45,-909.46 378.79,-900.97 368.54,-903.65 372.45,-909.46"/>
</g>
<!-- stick_battery_to_baseplate -->
<g id="node54" class="node">
<title>stick_battery_to_baseplate</title>
<ellipse fill="none" stroke="black" cx="292.49" cy="-738" rx="109.19" ry="18"/>
<text text-anchor="middle" x="292.49" y="-732.95" font-family="Times,serif" font-size="14.00">stick_battery_to_baseplate</text>
</g>
<!-- attach_base_to_box&#45;&gt;stick_battery_to_baseplate -->
<g id="edge56" class="edge">
<title>attach_base_to_box&#45;&gt;stick_battery_to_baseplate</title>
<path fill="none" stroke="black" d="M335.69,-792.05C329.07,-783.92 320.99,-774 313.62,-764.94"/>
<polygon fill="black" stroke="black" points="316.54,-762.99 307.52,-757.45 311.12,-767.41 316.54,-762.99"/>
</g>
<!-- connect_box_to_power_and_network -->
<g id="node53" class="node">
<title>connect_box_to_power_and_network</title>
<ellipse fill="none" stroke="black" cx="405.49" cy="-666" rx="150.13" ry="18"/>
<text text-anchor="middle" x="405.49" y="-660.95" font-family="Times,serif" font-size="14.00">connect_box_to_power_and_network</text>
</g>
<!-- attach_onlyfans_to_box&#45;&gt;connect_box_to_power_and_network -->
<g id="edge55" class="edge">
<title>attach_onlyfans_to_box&#45;&gt;connect_box_to_power_and_network</title>
<path fill="none" stroke="black" d="M492.19,-720.23C477.46,-711.19 459.06,-699.89 443.01,-690.03"/>
<polygon fill="black" stroke="black" points="445.01,-687.16 434.66,-684.91 441.35,-693.12 445.01,-687.16"/>
</g>
<!-- verify_blue_smoke_still_inside -->
<g id="node55" class="node">
<title>verify_blue_smoke_still_inside</title>
<ellipse fill="none" stroke="black" cx="405.49" cy="-594" rx="127.61" ry="18"/>
<text text-anchor="middle" x="405.49" y="-588.95" font-family="Times,serif" font-size="14.00">verify_blue_smoke_still_inside</text>
</g>
<!-- connect_box_to_power_and_network&#45;&gt;verify_blue_smoke_still_inside -->
<g id="edge58" class="edge">
<title>connect_box_to_power_and_network&#45;&gt;verify_blue_smoke_still_inside</title>
<path fill="none" stroke="black" d="M405.49,-647.7C405.49,-640.41 405.49,-631.73 405.49,-623.54"/>
<polygon fill="black" stroke="black" points="408.99,-623.62 405.49,-613.62 401.99,-623.62 408.99,-623.62"/>
</g>
<!-- stick_battery_to_baseplate&#45;&gt;connect_box_to_power_and_network -->
<g id="edge57" class="edge">
<title>stick_battery_to_baseplate&#45;&gt;connect_box_to_power_and_network</title>
<path fill="none" stroke="black" d="M319.56,-720.23C334.16,-711.19 352.39,-699.89 368.31,-690.03"/>
<polygon fill="black" stroke="black" points="369.92,-693.15 376.58,-684.91 366.23,-687.2 369.92,-693.15"/>
</g>
<!-- record_box_id_and_mac_address -->
<g id="node56" class="node">
<title>record_box_id_and_mac_address</title>
<ellipse fill="none" stroke="black" cx="405.49" cy="-522" rx="135.29" ry="18"/>
<text text-anchor="middle" x="405.49" y="-516.95" font-family="Times,serif" font-size="14.00">record_box_id_and_mac_address</text>
</g>
<!-- verify_blue_smoke_still_inside&#45;&gt;record_box_id_and_mac_address -->
<g id="edge59" class="edge">
<title>verify_blue_smoke_still_inside&#45;&gt;record_box_id_and_mac_address</title>
<path fill="none" stroke="black" d="M405.49,-575.7C405.49,-568.41 405.49,-559.73 405.49,-551.54"/>
<polygon fill="black" stroke="black" points="408.99,-551.62 405.49,-541.62 401.99,-551.62 408.99,-551.62"/>
</g>
<!-- click_both_bootsel_btns -->
<g id="node57" class="node">
<title>click_both_bootsel_btns</title>
<ellipse fill="none" stroke="black" cx="405.49" cy="-450" rx="101" ry="18"/>
<text text-anchor="middle" x="405.49" y="-444.95" font-family="Times,serif" font-size="14.00">click_both_bootsel_btns</text>
</g>
<!-- record_box_id_and_mac_address&#45;&gt;click_both_bootsel_btns -->
<g id="edge60" class="edge">
<title>record_box_id_and_mac_address&#45;&gt;click_both_bootsel_btns</title>
<path fill="none" stroke="black" d="M405.49,-503.7C405.49,-496.41 405.49,-487.73 405.49,-479.54"/>
<polygon fill="black" stroke="black" points="408.99,-479.62 405.49,-469.62 401.99,-479.62 408.99,-479.62"/>
</g>
<!-- attach_radxa_hat -->
<g id="node58" class="node">
<title>attach_radxa_hat</title>
<ellipse fill="none" stroke="black" cx="405.49" cy="-378" rx="73.87" ry="18"/>
<text text-anchor="middle" x="405.49" y="-372.95" font-family="Times,serif" font-size="14.00">attach_radxa_hat</text>
</g>
<!-- click_both_bootsel_btns&#45;&gt;attach_radxa_hat -->
<g id="edge61" class="edge">
<title>click_both_bootsel_btns&#45;&gt;attach_radxa_hat</title>
<path fill="none" stroke="black" d="M405.49,-431.7C405.49,-424.41 405.49,-415.73 405.49,-407.54"/>
<polygon fill="black" stroke="black" points="408.99,-407.62 405.49,-397.62 401.99,-407.62 408.99,-407.62"/>
</g>
<!-- run_provisioning_script -->
<g id="node59" class="node">
<title>run_provisioning_script</title>
<ellipse fill="none" stroke="black" cx="405.49" cy="-306" rx="99.46" ry="18"/>
<text text-anchor="middle" x="405.49" y="-300.95" font-family="Times,serif" font-size="14.00">run_provisioning_script</text>
</g>
<!-- attach_radxa_hat&#45;&gt;run_provisioning_script -->
<g id="edge62" class="edge">
<title>attach_radxa_hat&#45;&gt;run_provisioning_script</title>
<path fill="none" stroke="black" d="M405.49,-359.7C405.49,-352.41 405.49,-343.73 405.49,-335.54"/>
<polygon fill="black" stroke="black" points="408.99,-335.62 405.49,-325.62 401.99,-335.62 408.99,-335.62"/>
</g>
<!-- verify_status_on_display -->
<g id="node60" class="node">
<title>verify_status_on_display</title>
<ellipse fill="none" stroke="black" cx="405.49" cy="-234" rx="103.56" ry="18"/>
<text text-anchor="middle" x="405.49" y="-228.95" font-family="Times,serif" font-size="14.00">verify_status_on_display</text>
</g>
<!-- run_provisioning_script&#45;&gt;verify_status_on_display -->
<g id="edge63" class="edge">
<title>run_provisioning_script&#45;&gt;verify_status_on_display</title>
<path fill="none" stroke="black" d="M405.49,-287.7C405.49,-280.41 405.49,-271.73 405.49,-263.54"/>
<polygon fill="black" stroke="black" points="408.99,-263.62 405.49,-253.62 401.99,-263.62 408.99,-263.62"/>
</g>
<!-- close_box -->
<g id="node61" class="node">
<title>close_box</title>
<ellipse fill="none" stroke="black" cx="306.49" cy="-162" rx="48.28" ry="18"/>
<text text-anchor="middle" x="306.49" y="-156.95" font-family="Times,serif" font-size="14.00">close_box</text>
</g>
<!-- verify_status_on_display&#45;&gt;close_box -->
<g id="edge64" class="edge">
<title>verify_status_on_display&#45;&gt;close_box</title>
<path fill="none" stroke="black" d="M381.53,-216.05C368.32,-206.72 351.78,-195.02 337.59,-184.99"/>
<polygon fill="black" stroke="black" points="339.63,-182.15 329.45,-179.23 335.59,-187.86 339.63,-182.15"/>
</g>
<!-- close_box&#45;&gt;screw_box_shut -->
<g id="edge66" class="edge">
<title>close_box&#45;&gt;screw_box_shut</title>
<path fill="none" stroke="black" d="M306.49,-143.7C306.49,-136.41 306.49,-127.73 306.49,-119.54"/>
<polygon fill="black" stroke="black" points="309.99,-119.62 306.49,-109.62 302.99,-119.62 309.99,-119.62"/>
</g>
<!-- insert_case_locks -->
<g id="node62" class="node">
<title>insert_case_locks</title>
<ellipse fill="none" stroke="black" cx="208.49" cy="-234" rx="75.92" ry="18"/>
<text text-anchor="middle" x="208.49" y="-228.95" font-family="Times,serif" font-size="14.00">insert_case_locks</text>
</g>
<!-- insert_case_locks&#45;&gt;close_box -->
<g id="edge65" class="edge">
<title>insert_case_locks&#45;&gt;close_box</title>
<path fill="none" stroke="black" d="M231.72,-216.41C244.78,-207.08 261.25,-195.31 275.41,-185.2"/>
<polygon fill="black" stroke="black" points="277.44,-188.05 283.55,-179.39 273.37,-182.35 277.44,-188.05"/>
</g>
</g>
</svg>
