<?xml version="1.0" encoding="UTF-8" standalone="no"?>
<!DOCTYPE svg PUBLIC "-//W3C//DTD SVG 1.1//EN"
 "http://www.w3.org/Graphics/SVG/1.1/DTD/svg11.dtd">
<!-- Generated by graphviz version 12.1.2 (0)
 -->
<!-- Pages: 1 -->
<svg width="1673pt" height="2132pt"
 viewBox="0.00 0.00 1673.34 2132.00" xmlns="http://www.w3.org/2000/svg" xmlns:xlink="http://www.w3.org/1999/xlink">
<g id="graph0" class="graph" transform="scale(1 1) rotate(0) translate(4 2128)">
<polygon fill="white" stroke="none" points="-4,4 -4,-2128 1669.34,-2128 1669.34,4 -4,4"/>
<!-- base_assembled -->
<g id="node1" class="node">
<title>base_assembled</title>
<polygon fill="none" stroke="black" points="1048.3,-1620 883.17,-1620 840.69,-1584 1005.82,-1584 1048.3,-1620"/>
<text text-anchor="middle" x="944.49" y="-1596.95" font-family="Times,serif" font-size="14.00">base_assembled</text>
</g>
<!-- connect_all_6_mta100_cables -->
<g id="node31" class="node">
<title>connect_all_6_mta100_cables</title>
<ellipse fill="none" stroke="black" cx="953.49" cy="-1530" rx="123" ry="18"/>
<text text-anchor="middle" x="953.49" y="-1524.95" font-family="Times,serif" font-size="14.00">connect_all_6_mta100_cables</text>
</g>
<!-- base_assembled&#45;&gt;connect_all_6_mta100_cables -->
<g id="edge23" class="edge">
<title>base_assembled&#45;&gt;connect_all_6_mta100_cables</title>
<path fill="none" stroke="black" d="M946.72,-1583.7C947.67,-1576.32 948.8,-1567.52 949.86,-1559.25"/>
<polygon fill="black" stroke="black" points="953.3,-1559.97 951.1,-1549.61 946.35,-1559.08 953.3,-1559.97"/>
</g>
<!-- base_wired -->
<g id="node2" class="node">
<title>base_wired</title>
<polygon fill="none" stroke="black" points="593.03,-1044 469.68,-1044 437.95,-1008 561.3,-1008 593.03,-1044"/>
<text text-anchor="middle" x="515.49" y="-1020.95" font-family="Times,serif" font-size="14.00">base_wired</text>
</g>
<!-- attach_front_panel_to_audio_brd -->
<g id="node47" class="node">
<title>attach_front_panel_to_audio_brd</title>
<ellipse fill="none" stroke="black" cx="515.49" cy="-954" rx="133.75" ry="18"/>
<text text-anchor="middle" x="515.49" y="-948.95" font-family="Times,serif" font-size="14.00">attach_front_panel_to_audio_brd</text>
</g>
<!-- base_wired&#45;&gt;attach_front_panel_to_audio_brd -->
<g id="edge49" class="edge">
<title>base_wired&#45;&gt;attach_front_panel_to_audio_brd</title>
<path fill="none" stroke="black" d="M515.49,-1007.7C515.49,-1000.41 515.49,-991.73 515.49,-983.54"/>
<polygon fill="black" stroke="black" points="518.99,-983.62 515.49,-973.62 511.99,-983.62 518.99,-983.62"/>
</g>
<!-- done -->
<g id="node3" class="node">
<title>done</title>
<polygon fill="none" stroke="black" points="353.77,-36 286.52,-36 269.22,0 336.47,0 353.77,-36"/>
<text text-anchor="middle" x="311.49" y="-12.95" font-family="Times,serif" font-size="14.00">done</text>
</g>
<!-- connect_micro_hdmi_cable -->
<g id="node4" class="node">
<title>connect_micro_hdmi_cable</title>
<ellipse fill="#ea7146" stroke="black" cx="229.49" cy="-1242" rx="114.3" ry="18"/>
<text text-anchor="middle" x="229.49" y="-1236.95" font-family="Times,serif" font-size="14.00">connect_micro_hdmi_cable</text>
</g>
<!-- connect_ethernet_cable -->
<g id="node45" class="node">
<title>connect_ethernet_cable</title>
<ellipse fill="none" stroke="black" cx="515.49" cy="-1170" rx="97.93" ry="18"/>
<text text-anchor="middle" x="515.49" y="-1164.95" font-family="Times,serif" font-size="14.00">connect_ethernet_cable</text>
</g>
<!-- connect_micro_hdmi_cable&#45;&gt;connect_ethernet_cable -->
<g id="edge41" class="edge">
<title>connect_micro_hdmi_cable&#45;&gt;connect_ethernet_cable</title>
<path fill="none" stroke="black" d="M289.45,-1226.33C335.64,-1215.02 399.53,-1199.38 447.61,-1187.61"/>
<polygon fill="black" stroke="black" points="448.19,-1191.08 457.07,-1185.3 446.52,-1184.28 448.19,-1191.08"/>
</g>
<!-- place_display_on_display_hat -->
<g id="node5" class="node">
<title>place_display_on_display_hat</title>
<ellipse fill="#ea7146" stroke="black" cx="122.49" cy="-1818" rx="122.49" ry="18"/>
<text text-anchor="middle" x="122.49" y="-1812.95" font-family="Times,serif" font-size="14.00">place_display_on_display_hat</text>
</g>
<!-- place_display_hat_on_display_holders -->
<g id="node28" class="node">
<title>place_display_hat_on_display_holders</title>
<ellipse fill="none" stroke="black" cx="651.49" cy="-1746" rx="154.22" ry="18"/>
<text text-anchor="middle" x="651.49" y="-1740.95" font-family="Times,serif" font-size="14.00">place_display_hat_on_display_holders</text>
</g>
<!-- place_display_on_display_hat&#45;&gt;place_display_hat_on_display_holders -->
<g id="edge14" class="edge">
<title>place_display_on_display_hat&#45;&gt;place_display_hat_on_display_holders</title>
<path fill="none" stroke="black" d="M211.33,-1805.24C302.15,-1793.23 443.4,-1774.54 541.29,-1761.58"/>
<polygon fill="black" stroke="black" points="541.46,-1765.09 550.91,-1760.31 540.54,-1758.15 541.46,-1765.09"/>
</g>
<!-- connect_audio_jack_cable -->
<g id="node6" class="node">
<title>connect_audio_jack_cable</title>
<ellipse fill="#ea7146" stroke="black" cx="932.49" cy="-1458" rx="108.67" ry="18"/>
<text text-anchor="middle" x="932.49" y="-1452.95" font-family="Times,serif" font-size="14.00">connect_audio_jack_cable</text>
</g>
<!-- connect_micro_usb_cable -->
<g id="node42" class="node">
<title>connect_micro_usb_cable</title>
<ellipse fill="none" stroke="black" cx="808.49" cy="-1386" rx="107.65" ry="18"/>
<text text-anchor="middle" x="808.49" y="-1380.95" font-family="Times,serif" font-size="14.00">connect_micro_usb_cable</text>
</g>
<!-- connect_audio_jack_cable&#45;&gt;connect_micro_usb_cable -->
<g id="edge42" class="edge">
<title>connect_audio_jack_cable&#45;&gt;connect_micro_usb_cable</title>
<path fill="none" stroke="black" d="M902.79,-1440.23C886.23,-1430.88 865.4,-1419.12 847.53,-1409.04"/>
<polygon fill="black" stroke="black" points="849.7,-1406.24 839.27,-1404.37 846.26,-1412.34 849.7,-1406.24"/>
</g>
<!-- connect_ptru_usb_cable -->
<g id="node7" class="node">
<title>connect_ptru_usb_cable</title>
<ellipse fill="#eac546" stroke="black" cx="805.49" cy="-1314" rx="100.48" ry="18"/>
<text text-anchor="middle" x="805.49" y="-1308.95" font-family="Times,serif" font-size="14.00">connect_ptru_usb_cable</text>
</g>
<!-- connect_hagibis_usb_cable -->
<g id="node44" class="node">
<title>connect_hagibis_usb_cable</title>
<ellipse fill="none" stroke="black" cx="791.49" cy="-1242" rx="112.26" ry="18"/>
<text text-anchor="middle" x="791.49" y="-1236.95" font-family="Times,serif" font-size="14.00">connect_hagibis_usb_cable</text>
</g>
<!-- connect_ptru_usb_cable&#45;&gt;connect_hagibis_usb_cable -->
<g id="edge39" class="edge">
<title>connect_ptru_usb_cable&#45;&gt;connect_hagibis_usb_cable</title>
<path fill="none" stroke="black" d="M802.03,-1295.7C800.56,-1288.32 798.8,-1279.52 797.14,-1271.25"/>
<polygon fill="black" stroke="black" points="800.6,-1270.71 795.21,-1261.59 793.74,-1272.08 800.6,-1270.71"/>
</g>
<!-- screw_box_shut -->
<g id="node8" class="node">
<title>screw_box_shut</title>
<ellipse fill="#eac546" stroke="black" cx="311.49" cy="-90" rx="70.8" ry="18"/>
<text text-anchor="middle" x="311.49" y="-84.95" font-family="Times,serif" font-size="14.00">screw_box_shut</text>
</g>
<!-- screw_box_shut&#45;&gt;done -->
<g id="edge66" class="edge">
<title>screw_box_shut&#45;&gt;done</title>
<path fill="none" stroke="black" d="M311.49,-71.7C311.49,-64.41 311.49,-55.73 311.49,-47.54"/>
<polygon fill="black" stroke="black" points="314.99,-47.62 311.49,-37.62 307.99,-47.62 314.99,-47.62"/>
</g>
<!-- dilate_radxa_holes -->
<g id="node9" class="node">
<title>dilate_radxa_holes</title>
<ellipse fill="#8dd427" stroke="black" cx="659.49" cy="-2106" rx="80.52" ry="18"/>
<text text-anchor="middle" x="659.49" y="-2100.95" font-family="Times,serif" font-size="14.00">dilate_radxa_holes</text>
</g>
<!-- clean_radxa_cpu -->
<g id="node15" class="node">
<title>clean_radxa_cpu</title>
<ellipse fill="none" stroke="black" cx="659.49" cy="-2034" rx="73.36" ry="18"/>
<text text-anchor="middle" x="659.49" y="-2028.95" font-family="Times,serif" font-size="14.00">clean_radxa_cpu</text>
</g>
<!-- dilate_radxa_holes&#45;&gt;clean_radxa_cpu -->
<g id="edge1" class="edge">
<title>dilate_radxa_holes&#45;&gt;clean_radxa_cpu</title>
<path fill="none" stroke="black" d="M659.49,-2087.7C659.49,-2080.41 659.49,-2071.73 659.49,-2063.54"/>
<polygon fill="black" stroke="black" points="662.99,-2063.62 659.49,-2053.62 655.99,-2063.62 662.99,-2063.62"/>
</g>
<!-- cut_pwr_cable -->
<g id="node10" class="node">
<title>cut_pwr_cable</title>
<ellipse fill="#8dd427" stroke="black" cx="390.49" cy="-1746" rx="65.17" ry="18"/>
<text text-anchor="middle" x="390.49" y="-1740.95" font-family="Times,serif" font-size="14.00">cut_pwr_cable</text>
</g>
<!-- strip_ends_of_pwr_cable -->
<g id="node11" class="node">
<title>strip_ends_of_pwr_cable</title>
<ellipse fill="#8dd427" stroke="black" cx="390.49" cy="-1674" rx="104.07" ry="18"/>
<text text-anchor="middle" x="390.49" y="-1668.95" font-family="Times,serif" font-size="14.00">strip_ends_of_pwr_cable</text>
</g>
<!-- cut_pwr_cable&#45;&gt;strip_ends_of_pwr_cable -->
<g id="edge29" class="edge">
<title>cut_pwr_cable&#45;&gt;strip_ends_of_pwr_cable</title>
<path fill="none" stroke="black" d="M390.49,-1727.7C390.49,-1720.41 390.49,-1711.73 390.49,-1703.54"/>
<polygon fill="black" stroke="black" points="393.99,-1703.62 390.49,-1693.62 386.99,-1703.62 393.99,-1703.62"/>
</g>
<!-- tin_ends_of_pwr_cable -->
<g id="node12" class="node">
<title>tin_ends_of_pwr_cable</title>
<ellipse fill="#8dd427" stroke="black" cx="390.49" cy="-1602" rx="97.41" ry="18"/>
<text text-anchor="middle" x="390.49" y="-1596.95" font-family="Times,serif" font-size="14.00">tin_ends_of_pwr_cable</text>
</g>
<!-- strip_ends_of_pwr_cable&#45;&gt;tin_ends_of_pwr_cable -->
<g id="edge30" class="edge">
<title>strip_ends_of_pwr_cable&#45;&gt;tin_ends_of_pwr_cable</title>
<path fill="none" stroke="black" d="M390.49,-1655.7C390.49,-1648.41 390.49,-1639.73 390.49,-1631.54"/>
<polygon fill="black" stroke="black" points="393.99,-1631.62 390.49,-1621.62 386.99,-1631.62 393.99,-1631.62"/>
</g>
<!-- solder_pwr_cable_to_barrel_jack -->
<g id="node13" class="node">
<title>solder_pwr_cable_to_barrel_jack</title>
<ellipse fill="#8dd427" stroke="black" cx="362.49" cy="-1530" rx="134.26" ry="18"/>
<text text-anchor="middle" x="362.49" y="-1524.95" font-family="Times,serif" font-size="14.00">solder_pwr_cable_to_barrel_jack</text>
</g>
<!-- tin_ends_of_pwr_cable&#45;&gt;solder_pwr_cable_to_barrel_jack -->
<g id="edge31" class="edge">
<title>tin_ends_of_pwr_cable&#45;&gt;solder_pwr_cable_to_barrel_jack</title>
<path fill="none" stroke="black" d="M383.57,-1583.7C380.55,-1576.15 376.94,-1567.12 373.56,-1558.68"/>
<polygon fill="black" stroke="black" points="376.86,-1557.49 369.9,-1549.51 370.36,-1560.09 376.86,-1557.49"/>
</g>
<!-- insert_pwr_cable_through_back_panel -->
<g id="node38" class="node">
<title>insert_pwr_cable_through_back_panel</title>
<ellipse fill="none" stroke="black" cx="387.49" cy="-1458" rx="154.22" ry="18"/>
<text text-anchor="middle" x="387.49" y="-1452.95" font-family="Times,serif" font-size="14.00">insert_pwr_cable_through_back_panel</text>
</g>
<!-- solder_pwr_cable_to_barrel_jack&#45;&gt;insert_pwr_cable_through_back_panel -->
<g id="edge33" class="edge">
<title>solder_pwr_cable_to_barrel_jack&#45;&gt;insert_pwr_cable_through_back_panel</title>
<path fill="none" stroke="black" d="M368.67,-1511.7C371.37,-1504.15 374.59,-1495.12 377.61,-1486.68"/>
<polygon fill="black" stroke="black" points="380.81,-1488.12 380.87,-1477.53 374.22,-1485.77 380.81,-1488.12"/>
</g>
<!-- remove_ring_from_barrel_jack -->
<g id="node14" class="node">
<title>remove_ring_from_barrel_jack</title>
<ellipse fill="#8dd427" stroke="black" cx="147.49" cy="-1602" rx="127.61" ry="18"/>
<text text-anchor="middle" x="147.49" y="-1596.95" font-family="Times,serif" font-size="14.00">remove_ring_from_barrel_jack</text>
</g>
<!-- remove_ring_from_barrel_jack&#45;&gt;solder_pwr_cable_to_barrel_jack -->
<g id="edge32" class="edge">
<title>remove_ring_from_barrel_jack&#45;&gt;solder_pwr_cable_to_barrel_jack</title>
<path fill="none" stroke="black" d="M196.82,-1584.94C228.25,-1574.71 269.19,-1561.38 302.5,-1550.53"/>
<polygon fill="black" stroke="black" points="303.16,-1554 311.59,-1547.57 300.99,-1547.34 303.16,-1554"/>
</g>
<!-- stick_thermal_pad_on_radxa -->
<g id="node17" class="node">
<title>stick_thermal_pad_on_radxa</title>
<ellipse fill="none" stroke="black" cx="749.49" cy="-1962" rx="118.4" ry="18"/>
<text text-anchor="middle" x="749.49" y="-1956.95" font-family="Times,serif" font-size="14.00">stick_thermal_pad_on_radxa</text>
</g>
<!-- clean_radxa_cpu&#45;&gt;stick_thermal_pad_on_radxa -->
<g id="edge3" class="edge">
<title>clean_radxa_cpu&#45;&gt;stick_thermal_pad_on_radxa</title>
<path fill="none" stroke="black" d="M680.82,-2016.41C692.2,-2007.56 706.4,-1996.52 718.93,-1986.77"/>
<polygon fill="black" stroke="black" points="720.75,-1989.79 726.5,-1980.89 716.45,-1984.26 720.75,-1989.79"/>
</g>
<!-- prepare_thermal_pad -->
<g id="node16" class="node">
<title>prepare_thermal_pad</title>
<ellipse fill="none" stroke="black" cx="840.49" cy="-2034" rx="89.74" ry="18"/>
<text text-anchor="middle" x="840.49" y="-2028.95" font-family="Times,serif" font-size="14.00">prepare_thermal_pad</text>
</g>
<!-- prepare_thermal_pad&#45;&gt;stick_thermal_pad_on_radxa -->
<g id="edge2" class="edge">
<title>prepare_thermal_pad&#45;&gt;stick_thermal_pad_on_radxa</title>
<path fill="none" stroke="black" d="M818.93,-2016.41C807.42,-2007.56 793.07,-1996.52 780.4,-1986.77"/>
<polygon fill="black" stroke="black" points="782.8,-1984.2 772.74,-1980.88 778.53,-1989.75 782.8,-1984.2"/>
</g>
<!-- mount_radxa_on_baseplate -->
<g id="node19" class="node">
<title>mount_radxa_on_baseplate</title>
<ellipse fill="none" stroke="black" cx="879.49" cy="-1890" rx="112.77" ry="18"/>
<text text-anchor="middle" x="879.49" y="-1884.95" font-family="Times,serif" font-size="14.00">mount_radxa_on_baseplate</text>
</g>
<!-- stick_thermal_pad_on_radxa&#45;&gt;mount_radxa_on_baseplate -->
<g id="edge5" class="edge">
<title>stick_thermal_pad_on_radxa&#45;&gt;mount_radxa_on_baseplate</title>
<path fill="none" stroke="black" d="M780.63,-1944.23C798,-1934.88 819.84,-1923.12 838.57,-1913.04"/>
<polygon fill="black" stroke="black" points="840.13,-1916.17 847.28,-1908.35 836.81,-1910.01 840.13,-1916.17"/>
</g>
<!-- clean_baseplate_thermal_area -->
<g id="node18" class="node">
<title>clean_baseplate_thermal_area</title>
<ellipse fill="none" stroke="black" cx="1008.49" cy="-1962" rx="122.49" ry="18"/>
<text text-anchor="middle" x="1008.49" y="-1956.95" font-family="Times,serif" font-size="14.00">clean_baseplate_thermal_area</text>
</g>
<!-- clean_baseplate_thermal_area&#45;&gt;mount_radxa_on_baseplate -->
<g id="edge4" class="edge">
<title>clean_baseplate_thermal_area&#45;&gt;mount_radxa_on_baseplate</title>
<path fill="none" stroke="black" d="M977.59,-1944.23C960.36,-1934.88 938.69,-1923.12 920.1,-1913.04"/>
<polygon fill="black" stroke="black" points="921.93,-1910.04 911.47,-1908.35 918.59,-1916.2 921.93,-1910.04"/>
</g>
<!-- mount_sap_on_baseplate -->
<g id="node21" class="node">
<title>mount_sap_on_baseplate</title>
<ellipse fill="none" stroke="black" cx="944.49" cy="-1746" rx="104.58" ry="18"/>
<text text-anchor="middle" x="944.49" y="-1740.95" font-family="Times,serif" font-size="14.00">mount_sap_on_baseplate</text>
</g>
<!-- mount_radxa_on_baseplate&#45;&gt;mount_sap_on_baseplate -->
<g id="edge7" class="edge">
<title>mount_radxa_on_baseplate&#45;&gt;mount_sap_on_baseplate</title>
<path fill="none" stroke="black" d="M880.61,-1871.76C882.38,-1853.19 886.93,-1823.19 898.49,-1800 903.44,-1790.07 910.69,-1780.5 917.98,-1772.29"/>
<polygon fill="black" stroke="black" points="920.47,-1774.75 924.76,-1765.06 915.36,-1769.96 920.47,-1774.75"/>
</g>
<!-- mount_hagibis_rear_on_baseplate -->
<g id="node22" class="node">
<title>mount_hagibis_rear_on_baseplate</title>
<ellipse fill="none" stroke="black" cx="1527.49" cy="-1818" rx="137.85" ry="18"/>
<text text-anchor="middle" x="1527.49" y="-1812.95" font-family="Times,serif" font-size="14.00">mount_hagibis_rear_on_baseplate</text>
</g>
<!-- mount_radxa_on_baseplate&#45;&gt;mount_hagibis_rear_on_baseplate -->
<g id="edge8" class="edge">
<title>mount_radxa_on_baseplate&#45;&gt;mount_hagibis_rear_on_baseplate</title>
<path fill="none" stroke="black" d="M972.51,-1879.48C1073.31,-1869.1 1238.86,-1851.83 1381.49,-1836 1392.83,-1834.74 1404.66,-1833.4 1416.47,-1832.05"/>
<polygon fill="black" stroke="black" points="1416.73,-1835.55 1426.26,-1830.93 1415.93,-1828.59 1416.73,-1835.55"/>
</g>
<!-- mount_display_holders_on_baseplate -->
<g id="node27" class="node">
<title>mount_display_holders_on_baseplate</title>
<ellipse fill="none" stroke="black" cx="413.49" cy="-1818" rx="150.64" ry="18"/>
<text text-anchor="middle" x="413.49" y="-1812.95" font-family="Times,serif" font-size="14.00">mount_display_holders_on_baseplate</text>
</g>
<!-- mount_radxa_on_baseplate&#45;&gt;mount_display_holders_on_baseplate -->
<g id="edge13" class="edge">
<title>mount_radxa_on_baseplate&#45;&gt;mount_display_holders_on_baseplate</title>
<path fill="none" stroke="black" d="M799.38,-1876.97C720.94,-1865.18 601.09,-1847.18 515.78,-1834.37"/>
<polygon fill="black" stroke="black" points="516.42,-1830.92 506.01,-1832.9 515.38,-1837.84 516.42,-1830.92"/>
</g>
<!-- mount_teensy_on_audio_brd -->
<g id="node20" class="node">
<title>mount_teensy_on_audio_brd</title>
<ellipse fill="none" stroke="black" cx="1026.49" cy="-1818" rx="118.91" ry="18"/>
<text text-anchor="middle" x="1026.49" y="-1812.95" font-family="Times,serif" font-size="14.00">mount_teensy_on_audio_brd</text>
</g>
<!-- mount_teensy_on_audio_brd&#45;&gt;mount_sap_on_baseplate -->
<g id="edge6" class="edge">
<title>mount_teensy_on_audio_brd&#45;&gt;mount_sap_on_baseplate</title>
<path fill="none" stroke="black" d="M1006.64,-1800.05C996.54,-1791.43 984.09,-1780.8 972.99,-1771.32"/>
<polygon fill="black" stroke="black" points="975.47,-1768.84 965.6,-1765.01 970.93,-1774.17 975.47,-1768.84"/>
</g>
<!-- mount_sap_on_baseplate&#45;&gt;base_assembled -->
<g id="edge20" class="edge">
<title>mount_sap_on_baseplate&#45;&gt;base_assembled</title>
<path fill="none" stroke="black" d="M944.49,-1727.59C944.49,-1703.61 944.49,-1660.14 944.49,-1631.42"/>
<polygon fill="black" stroke="black" points="947.99,-1631.62 944.49,-1621.62 940.99,-1631.62 947.99,-1631.62"/>
</g>
<!-- mount_hagibis_front_on_baseplate -->
<g id="node24" class="node">
<title>mount_hagibis_front_on_baseplate</title>
<ellipse fill="none" stroke="black" cx="1352.49" cy="-1674" rx="141.43" ry="18"/>
<text text-anchor="middle" x="1352.49" y="-1668.95" font-family="Times,serif" font-size="14.00">mount_hagibis_front_on_baseplate</text>
</g>
<!-- mount_hagibis_rear_on_baseplate&#45;&gt;mount_hagibis_front_on_baseplate -->
<g id="edge10" class="edge">
<title>mount_hagibis_rear_on_baseplate&#45;&gt;mount_hagibis_front_on_baseplate</title>
<path fill="none" stroke="black" d="M1506.38,-1799.87C1475.51,-1774.82 1417.87,-1728.05 1382.57,-1699.41"/>
<polygon fill="black" stroke="black" points="1384.82,-1696.73 1374.85,-1693.14 1380.41,-1702.16 1384.82,-1696.73"/>
</g>
<!-- disassemble_hagibis_if_needed -->
<g id="node23" class="node">
<title>disassemble_hagibis_if_needed</title>
<ellipse fill="none" stroke="black" cx="1527.49" cy="-1890" rx="128.12" ry="18"/>
<text text-anchor="middle" x="1527.49" y="-1884.95" font-family="Times,serif" font-size="14.00">disassemble_hagibis_if_needed</text>
</g>
<!-- disassemble_hagibis_if_needed&#45;&gt;mount_hagibis_rear_on_baseplate -->
<g id="edge9" class="edge">
<title>disassemble_hagibis_if_needed&#45;&gt;mount_hagibis_rear_on_baseplate</title>
<path fill="none" stroke="black" d="M1527.49,-1871.7C1527.49,-1864.41 1527.49,-1855.73 1527.49,-1847.54"/>
<polygon fill="black" stroke="black" points="1530.99,-1847.62 1527.49,-1837.62 1523.99,-1847.62 1530.99,-1847.62"/>
</g>
<!-- mount_hagibis_front_on_baseplate&#45;&gt;base_assembled -->
<g id="edge21" class="edge">
<title>mount_hagibis_front_on_baseplate&#45;&gt;base_assembled</title>
<path fill="none" stroke="black" d="M1270.42,-1658.92C1209.25,-1648.42 1124.98,-1633.97 1057.45,-1622.38"/>
<polygon fill="black" stroke="black" points="1058.28,-1618.97 1047.83,-1620.73 1057.09,-1625.87 1058.28,-1618.97"/>
</g>
<!-- mount_fuse_on_pwr_brd -->
<g id="node25" class="node">
<title>mount_fuse_on_pwr_brd</title>
<ellipse fill="none" stroke="black" cx="1267.49" cy="-1818" rx="104.58" ry="18"/>
<text text-anchor="middle" x="1267.49" y="-1812.95" font-family="Times,serif" font-size="14.00">mount_fuse_on_pwr_brd</text>
</g>
<!-- mount_fuse_on_pwr_brd&#45;&gt;mount_sap_on_baseplate -->
<g id="edge11" class="edge">
<title>mount_fuse_on_pwr_brd&#45;&gt;mount_sap_on_baseplate</title>
<path fill="none" stroke="black" d="M1204.06,-1803.25C1150.84,-1791.72 1074.75,-1775.23 1018.71,-1763.08"/>
<polygon fill="black" stroke="black" points="1019.77,-1759.73 1009.26,-1761.04 1018.29,-1766.57 1019.77,-1759.73"/>
</g>
<!-- remove_artifacts_from_display_holders -->
<g id="node26" class="node">
<title>remove_artifacts_from_display_holders</title>
<ellipse fill="none" stroke="black" cx="413.49" cy="-1890" rx="159.34" ry="18"/>
<text text-anchor="middle" x="413.49" y="-1884.95" font-family="Times,serif" font-size="14.00">remove_artifacts_from_display_holders</text>
</g>
<!-- remove_artifacts_from_display_holders&#45;&gt;mount_display_holders_on_baseplate -->
<g id="edge12" class="edge">
<title>remove_artifacts_from_display_holders&#45;&gt;mount_display_holders_on_baseplate</title>
<path fill="none" stroke="black" d="M413.49,-1871.7C413.49,-1864.41 413.49,-1855.73 413.49,-1847.54"/>
<polygon fill="black" stroke="black" points="416.99,-1847.62 413.49,-1837.62 409.99,-1847.62 416.99,-1847.62"/>
</g>
<!-- mount_display_holders_on_baseplate&#45;&gt;place_display_hat_on_display_holders -->
<g id="edge15" class="edge">
<title>mount_display_holders_on_baseplate&#45;&gt;place_display_hat_on_display_holders</title>
<path fill="none" stroke="black" d="M468.39,-1800.85C503.38,-1790.56 548.9,-1777.17 585.8,-1766.32"/>
<polygon fill="black" stroke="black" points="586.4,-1769.79 595,-1763.61 584.42,-1763.08 586.4,-1769.79"/>
</g>
<!-- place_radxa_hat_on_radxa_without_connecting -->
<g id="node29" class="node">
<title>place_radxa_hat_on_radxa_without_connecting</title>
<ellipse fill="none" stroke="black" cx="710.49" cy="-1674" rx="188" ry="18"/>
<text text-anchor="middle" x="710.49" y="-1668.95" font-family="Times,serif" font-size="14.00">place_radxa_hat_on_radxa_without_connecting</text>
</g>
<!-- place_display_hat_on_display_holders&#45;&gt;place_radxa_hat_on_radxa_without_connecting -->
<g id="edge16" class="edge">
<title>place_display_hat_on_display_holders&#45;&gt;place_radxa_hat_on_radxa_without_connecting</title>
<path fill="none" stroke="black" d="M666.08,-1727.7C672.94,-1719.56 681.25,-1709.69 688.83,-1700.7"/>
<polygon fill="black" stroke="black" points="691.33,-1703.16 695.1,-1693.26 685.98,-1698.65 691.33,-1703.16"/>
</g>
<!-- place_radxa_hat_on_radxa_without_connecting&#45;&gt;base_assembled -->
<g id="edge22" class="edge">
<title>place_radxa_hat_on_radxa_without_connecting&#45;&gt;base_assembled</title>
<path fill="none" stroke="black" d="M765.95,-1656.41C798.77,-1646.59 840.63,-1634.07 875.57,-1623.62"/>
<polygon fill="black" stroke="black" points="876.14,-1627.1 884.72,-1620.88 874.14,-1620.39 876.14,-1627.1"/>
</g>
<!-- mark_duped_mta100_cables -->
<g id="node30" class="node">
<title>mark_duped_mta100_cables</title>
<ellipse fill="none" stroke="black" cx="1184.49" cy="-1602" rx="117.89" ry="18"/>
<text text-anchor="middle" x="1184.49" y="-1596.95" font-family="Times,serif" font-size="14.00">mark_duped_mta100_cables</text>
</g>
<!-- mark_duped_mta100_cables&#45;&gt;connect_all_6_mta100_cables -->
<g id="edge17" class="edge">
<title>mark_duped_mta100_cables&#45;&gt;connect_all_6_mta100_cables</title>
<path fill="none" stroke="black" d="M1132.94,-1585.38C1098.33,-1574.89 1052.53,-1561.01 1015.86,-1549.9"/>
<polygon fill="black" stroke="black" points="1017.32,-1546.68 1006.74,-1547.13 1015.29,-1553.38 1017.32,-1546.68"/>
</g>
<!-- connect_all_6_mta100_cables&#45;&gt;connect_audio_jack_cable -->
<g id="edge43" class="edge">
<title>connect_all_6_mta100_cables&#45;&gt;connect_audio_jack_cable</title>
<path fill="none" stroke="black" d="M948.3,-1511.7C946.06,-1504.24 943.39,-1495.32 940.88,-1486.97"/>
<polygon fill="black" stroke="black" points="944.28,-1486.13 938.06,-1477.55 937.58,-1488.14 944.28,-1486.13"/>
</g>
<!-- connect_fans_to_pwr_brd -->
<g id="node34" class="node">
<title>connect_fans_to_pwr_brd</title>
<ellipse fill="none" stroke="black" cx="1166.49" cy="-1458" rx="107.14" ry="18"/>
<text text-anchor="middle" x="1166.49" y="-1452.95" font-family="Times,serif" font-size="14.00">connect_fans_to_pwr_brd</text>
</g>
<!-- connect_all_6_mta100_cables&#45;&gt;connect_fans_to_pwr_brd -->
<g id="edge25" class="edge">
<title>connect_all_6_mta100_cables&#45;&gt;connect_fans_to_pwr_brd</title>
<path fill="none" stroke="black" d="M1002.09,-1513.03C1033.78,-1502.61 1075.29,-1488.97 1108.67,-1478"/>
<polygon fill="black" stroke="black" points="1109.36,-1481.46 1117.76,-1475.01 1107.17,-1474.81 1109.36,-1481.46"/>
</g>
<!-- connect_radxa_to_pwr_board -->
<g id="node37" class="node">
<title>connect_radxa_to_pwr_board</title>
<ellipse fill="none" stroke="black" cx="684.49" cy="-1458" rx="120.96" ry="18"/>
<text text-anchor="middle" x="684.49" y="-1452.95" font-family="Times,serif" font-size="14.00">connect_radxa_to_pwr_board</text>
</g>
<!-- connect_all_6_mta100_cables&#45;&gt;connect_radxa_to_pwr_board -->
<g id="edge28" class="edge">
<title>connect_all_6_mta100_cables&#45;&gt;connect_radxa_to_pwr_board</title>
<path fill="none" stroke="black" d="M894.79,-1513.72C853.27,-1502.92 797.43,-1488.39 753.73,-1477.02"/>
<polygon fill="black" stroke="black" points="754.63,-1473.63 744.07,-1474.5 752.87,-1480.41 754.63,-1473.63"/>
</g>
<!-- mark_duped_mta100_connectors -->
<g id="node32" class="node">
<title>mark_duped_mta100_connectors</title>
<ellipse fill="none" stroke="black" cx="716.49" cy="-1818" rx="134.78" ry="18"/>
<text text-anchor="middle" x="716.49" y="-1812.95" font-family="Times,serif" font-size="14.00">mark_duped_mta100_connectors</text>
</g>
<!-- mark_duped_mta100_connectors&#45;&gt;mount_sap_on_baseplate -->
<g id="edge18" class="edge">
<title>mark_duped_mta100_connectors&#45;&gt;mount_sap_on_baseplate</title>
<path fill="none" stroke="black" d="M768.8,-1800.94C803.11,-1790.41 848.1,-1776.59 883.96,-1765.58"/>
<polygon fill="black" stroke="black" points="884.79,-1768.99 893.33,-1762.71 882.74,-1762.3 884.79,-1768.99"/>
</g>
<!-- mark_duped_mta100_connectors&#45;&gt;place_display_hat_on_display_holders -->
<g id="edge19" class="edge">
<title>mark_duped_mta100_connectors&#45;&gt;place_display_hat_on_display_holders</title>
<path fill="none" stroke="black" d="M700.43,-1799.7C692.79,-1791.47 683.51,-1781.48 675.1,-1772.42"/>
<polygon fill="black" stroke="black" points="677.77,-1770.16 668.41,-1765.21 672.64,-1774.92 677.77,-1770.16"/>
</g>
<!-- crimp_fan_connectors -->
<g id="node33" class="node">
<title>crimp_fan_connectors</title>
<ellipse fill="none" stroke="black" cx="1188.49" cy="-1530" rx="93.83" ry="18"/>
<text text-anchor="middle" x="1188.49" y="-1524.95" font-family="Times,serif" font-size="14.00">crimp_fan_connectors</text>
</g>
<!-- crimp_fan_connectors&#45;&gt;connect_fans_to_pwr_brd -->
<g id="edge24" class="edge">
<title>crimp_fan_connectors&#45;&gt;connect_fans_to_pwr_brd</title>
<path fill="none" stroke="black" d="M1183.05,-1511.7C1180.71,-1504.24 1177.91,-1495.32 1175.28,-1486.97"/>
<polygon fill="black" stroke="black" points="1178.66,-1486.04 1172.32,-1477.55 1171.98,-1488.14 1178.66,-1486.04"/>
</g>
<!-- connect_fans_to_pwr_brd&#45;&gt;connect_micro_usb_cable -->
<g id="edge46" class="edge">
<title>connect_fans_to_pwr_brd&#45;&gt;connect_micro_usb_cable</title>
<path fill="none" stroke="black" d="M1098.73,-1443.75C1038.69,-1432.01 950.97,-1414.86 887.7,-1402.49"/>
<polygon fill="black" stroke="black" points="888.55,-1399.09 878.07,-1400.6 887.21,-1405.96 888.55,-1399.09"/>
</g>
<!-- strip_ends_of_radxa_pwr_cable -->
<g id="node35" class="node">
<title>strip_ends_of_radxa_pwr_cable</title>
<ellipse fill="none" stroke="black" cx="663.49" cy="-1602" rx="129.15" ry="18"/>
<text text-anchor="middle" x="663.49" y="-1596.95" font-family="Times,serif" font-size="14.00">strip_ends_of_radxa_pwr_cable</text>
</g>
<!-- attach_terminal_to_radxa_pwr_cable -->
<g id="node36" class="node">
<title>attach_terminal_to_radxa_pwr_cable</title>
<ellipse fill="none" stroke="black" cx="663.49" cy="-1530" rx="148.59" ry="18"/>
<text text-anchor="middle" x="663.49" y="-1524.95" font-family="Times,serif" font-size="14.00">attach_terminal_to_radxa_pwr_cable</text>
</g>
<!-- strip_ends_of_radxa_pwr_cable&#45;&gt;attach_terminal_to_radxa_pwr_cable -->
<g id="edge26" class="edge">
<title>strip_ends_of_radxa_pwr_cable&#45;&gt;attach_terminal_to_radxa_pwr_cable</title>
<path fill="none" stroke="black" d="M663.49,-1583.7C663.49,-1576.41 663.49,-1567.73 663.49,-1559.54"/>
<polygon fill="black" stroke="black" points="666.99,-1559.62 663.49,-1549.62 659.99,-1559.62 666.99,-1559.62"/>
</g>
<!-- attach_terminal_to_radxa_pwr_cable&#45;&gt;connect_radxa_to_pwr_board -->
<g id="edge27" class="edge">
<title>attach_terminal_to_radxa_pwr_cable&#45;&gt;connect_radxa_to_pwr_board</title>
<path fill="none" stroke="black" d="M668.68,-1511.7C670.92,-1504.24 673.6,-1495.32 676.1,-1486.97"/>
<polygon fill="black" stroke="black" points="679.41,-1488.14 678.93,-1477.55 672.7,-1486.13 679.41,-1488.14"/>
</g>
<!-- connect_radxa_to_pwr_board&#45;&gt;connect_micro_usb_cable -->
<g id="edge45" class="edge">
<title>connect_radxa_to_pwr_board&#45;&gt;connect_micro_usb_cable</title>
<path fill="none" stroke="black" d="M714.19,-1440.23C730.76,-1430.88 751.59,-1419.12 769.46,-1409.04"/>
<polygon fill="black" stroke="black" points="770.73,-1412.34 777.72,-1404.37 767.29,-1406.24 770.73,-1412.34"/>
</g>
<!-- insert_ring_on_barrel_jack -->
<g id="node39" class="node">
<title>insert_ring_on_barrel_jack</title>
<ellipse fill="none" stroke="black" cx="451.49" cy="-1386" rx="110.72" ry="18"/>
<text text-anchor="middle" x="451.49" y="-1380.95" font-family="Times,serif" font-size="14.00">insert_ring_on_barrel_jack</text>
</g>
<!-- insert_pwr_cable_through_back_panel&#45;&gt;insert_ring_on_barrel_jack -->
<g id="edge34" class="edge">
<title>insert_pwr_cable_through_back_panel&#45;&gt;insert_ring_on_barrel_jack</title>
<path fill="none" stroke="black" d="M403.31,-1439.7C410.83,-1431.47 419.97,-1421.48 428.25,-1412.42"/>
<polygon fill="black" stroke="black" points="430.67,-1414.96 434.83,-1405.22 425.5,-1410.24 430.67,-1414.96"/>
</g>
<!-- attach_terminal_to_pwr_cable -->
<g id="node40" class="node">
<title>attach_terminal_to_pwr_cable</title>
<ellipse fill="none" stroke="black" cx="515.49" cy="-1314" rx="123.52" ry="18"/>
<text text-anchor="middle" x="515.49" y="-1308.95" font-family="Times,serif" font-size="14.00">attach_terminal_to_pwr_cable</text>
</g>
<!-- insert_ring_on_barrel_jack&#45;&gt;attach_terminal_to_pwr_cable -->
<g id="edge35" class="edge">
<title>insert_ring_on_barrel_jack&#45;&gt;attach_terminal_to_pwr_cable</title>
<path fill="none" stroke="black" d="M467.31,-1367.7C474.83,-1359.47 483.97,-1349.48 492.25,-1340.42"/>
<polygon fill="black" stroke="black" points="494.67,-1342.96 498.83,-1333.22 489.5,-1338.24 494.67,-1342.96"/>
</g>
<!-- connect_pwr_cable_to_pwr_board -->
<g id="node41" class="node">
<title>connect_pwr_cable_to_pwr_board</title>
<ellipse fill="none" stroke="black" cx="515.49" cy="-1242" rx="138.87" ry="18"/>
<text text-anchor="middle" x="515.49" y="-1236.95" font-family="Times,serif" font-size="14.00">connect_pwr_cable_to_pwr_board</text>
</g>
<!-- attach_terminal_to_pwr_cable&#45;&gt;connect_pwr_cable_to_pwr_board -->
<g id="edge36" class="edge">
<title>attach_terminal_to_pwr_cable&#45;&gt;connect_pwr_cable_to_pwr_board</title>
<path fill="none" stroke="black" d="M515.49,-1295.7C515.49,-1288.41 515.49,-1279.73 515.49,-1271.54"/>
<polygon fill="black" stroke="black" points="518.99,-1271.62 515.49,-1261.62 511.99,-1271.62 518.99,-1271.62"/>
</g>
<!-- connect_pwr_cable_to_pwr_board&#45;&gt;connect_ethernet_cable -->
<g id="edge44" class="edge">
<title>connect_pwr_cable_to_pwr_board&#45;&gt;connect_ethernet_cable</title>
<path fill="none" stroke="black" d="M515.49,-1223.7C515.49,-1216.41 515.49,-1207.73 515.49,-1199.54"/>
<polygon fill="black" stroke="black" points="518.99,-1199.62 515.49,-1189.62 511.99,-1199.62 518.99,-1199.62"/>
</g>
<!-- connect_micro_usb_cable&#45;&gt;connect_ptru_usb_cable -->
<g id="edge37" class="edge">
<title>connect_micro_usb_cable&#45;&gt;connect_ptru_usb_cable</title>
<path fill="none" stroke="black" d="M807.75,-1367.7C807.44,-1360.41 807.07,-1351.73 806.72,-1343.54"/>
<polygon fill="black" stroke="black" points="810.22,-1343.46 806.29,-1333.62 803.22,-1343.76 810.22,-1343.46"/>
</g>
<!-- attach_neutrik_connector_to_back_plate -->
<g id="node43" class="node">
<title>attach_neutrik_connector_to_back_plate</title>
<ellipse fill="none" stroke="black" cx="213.49" cy="-1314" rx="160.88" ry="18"/>
<text text-anchor="middle" x="213.49" y="-1308.95" font-family="Times,serif" font-size="14.00">attach_neutrik_connector_to_back_plate</text>
</g>
<!-- attach_neutrik_connector_to_back_plate&#45;&gt;connect_micro_hdmi_cable -->
<g id="edge38" class="edge">
<title>attach_neutrik_connector_to_back_plate&#45;&gt;connect_micro_hdmi_cable</title>
<path fill="none" stroke="black" d="M217.45,-1295.7C219.13,-1288.32 221.14,-1279.52 223.04,-1271.25"/>
<polygon fill="black" stroke="black" points="226.43,-1272.11 225.25,-1261.58 219.61,-1270.55 226.43,-1272.11"/>
</g>
<!-- connect_hagibis_usb_cable&#45;&gt;connect_ethernet_cable -->
<g id="edge40" class="edge">
<title>connect_hagibis_usb_cable&#45;&gt;connect_ethernet_cable</title>
<path fill="none" stroke="black" d="M733.3,-1226.24C689.17,-1215.05 628.46,-1199.65 582.35,-1187.96"/>
<polygon fill="black" stroke="black" points="583.27,-1184.58 572.72,-1185.51 581.55,-1191.37 583.27,-1184.58"/>
</g>
<!-- attach_cables_to_baseplate -->
<g id="node46" class="node">
<title>attach_cables_to_baseplate</title>
<ellipse fill="none" stroke="black" cx="515.49" cy="-1098" rx="111.23" ry="18"/>
<text text-anchor="middle" x="515.49" y="-1092.95" font-family="Times,serif" font-size="14.00">attach_cables_to_baseplate</text>
</g>
<!-- connect_ethernet_cable&#45;&gt;attach_cables_to_baseplate -->
<g id="edge47" class="edge">
<title>connect_ethernet_cable&#45;&gt;attach_cables_to_baseplate</title>
<path fill="none" stroke="black" d="M515.49,-1151.7C515.49,-1144.41 515.49,-1135.73 515.49,-1127.54"/>
<polygon fill="black" stroke="black" points="518.99,-1127.62 515.49,-1117.62 511.99,-1127.62 518.99,-1127.62"/>
</g>
<!-- attach_cables_to_baseplate&#45;&gt;base_wired -->
<g id="edge48" class="edge">
<title>attach_cables_to_baseplate&#45;&gt;base_wired</title>
<path fill="none" stroke="black" d="M515.49,-1079.7C515.49,-1072.41 515.49,-1063.73 515.49,-1055.54"/>
<polygon fill="black" stroke="black" points="518.99,-1055.62 515.49,-1045.62 511.99,-1055.62 518.99,-1055.62"/>
</g>
<!-- slide_base_and_panels_into_box -->
<g id="node48" class="node">
<title>slide_base_and_panels_into_box</title>
<ellipse fill="none" stroke="black" cx="410.49" cy="-882" rx="132.73" ry="18"/>
<text text-anchor="middle" x="410.49" y="-876.95" font-family="Times,serif" font-size="14.00">slide_base_and_panels_into_box</text>
</g>
<!-- attach_front_panel_to_audio_brd&#45;&gt;slide_base_and_panels_into_box -->
<g id="edge50" class="edge">
<title>attach_front_panel_to_audio_brd&#45;&gt;slide_base_and_panels_into_box</title>
<path fill="none" stroke="black" d="M489.81,-935.88C476.36,-926.91 459.7,-915.81 445.13,-906.09"/>
<polygon fill="black" stroke="black" points="447.43,-903.42 437.17,-900.79 443.55,-909.25 447.43,-903.42"/>
</g>
<!-- attach_base_to_box -->
<g id="node50" class="node">
<title>attach_base_to_box</title>
<ellipse fill="none" stroke="black" cx="354.49" cy="-810" rx="84.11" ry="18"/>
<text text-anchor="middle" x="354.49" y="-804.95" font-family="Times,serif" font-size="14.00">attach_base_to_box</text>
</g>
<!-- slide_base_and_panels_into_box&#45;&gt;attach_base_to_box -->
<g id="edge52" class="edge">
<title>slide_base_and_panels_into_box&#45;&gt;attach_base_to_box</title>
<path fill="none" stroke="black" d="M396.65,-863.7C390.21,-855.64 382.41,-845.89 375.28,-836.98"/>
<polygon fill="black" stroke="black" points="378.1,-834.91 369.12,-829.29 372.64,-839.28 378.1,-834.91"/>
</g>
<!-- attach_onlyfans_to_box -->
<g id="node51" class="node">
<title>attach_onlyfans_to_box</title>
<ellipse fill="none" stroke="black" cx="524.49" cy="-738" rx="99.46" ry="18"/>
<text text-anchor="middle" x="524.49" y="-732.95" font-family="Times,serif" font-size="14.00">attach_onlyfans_to_box</text>
</g>
<!-- slide_base_and_panels_into_box&#45;&gt;attach_onlyfans_to_box -->
<g id="edge53" class="edge">
<title>slide_base_and_panels_into_box&#45;&gt;attach_onlyfans_to_box</title>
<path fill="none" stroke="black" d="M424.24,-863.87C444.02,-839.24 480.63,-793.64 503.71,-764.88"/>
<polygon fill="black" stroke="black" points="506.21,-767.36 509.75,-757.37 500.76,-762.98 506.21,-767.36"/>
</g>
<!-- prepare_box -->
<g id="node49" class="node">
<title>prepare_box</title>
<ellipse fill="none" stroke="black" cx="306.49" cy="-954" rx="56.98" ry="18"/>
<text text-anchor="middle" x="306.49" y="-948.95" font-family="Times,serif" font-size="14.00">prepare_box</text>
</g>
<!-- prepare_box&#45;&gt;slide_base_and_panels_into_box -->
<g id="edge51" class="edge">
<title>prepare_box&#45;&gt;slide_base_and_panels_into_box</title>
<path fill="none" stroke="black" d="M329.83,-937.29C343.29,-928.23 360.48,-916.66 375.53,-906.53"/>
<polygon fill="black" stroke="black" points="377.45,-909.46 383.79,-900.97 373.54,-903.65 377.45,-909.46"/>
</g>
<!-- stick_battery_to_baseplate -->
<g id="node53" class="node">
<title>stick_battery_to_baseplate</title>
<ellipse fill="none" stroke="black" cx="297.49" cy="-738" rx="109.19" ry="18"/>
<text text-anchor="middle" x="297.49" y="-732.95" font-family="Times,serif" font-size="14.00">stick_battery_to_baseplate</text>
</g>
<!-- attach_base_to_box&#45;&gt;stick_battery_to_baseplate -->
<g id="edge55" class="edge">
<title>attach_base_to_box&#45;&gt;stick_battery_to_baseplate</title>
<path fill="none" stroke="black" d="M340.69,-792.05C334.07,-783.92 325.99,-774 318.62,-764.94"/>
<polygon fill="black" stroke="black" points="321.54,-762.99 312.52,-757.45 316.12,-767.41 321.54,-762.99"/>
</g>
<!-- connect_box_to_power_and_network -->
<g id="node52" class="node">
<title>connect_box_to_power_and_network</title>
<ellipse fill="none" stroke="black" cx="410.49" cy="-666" rx="150.13" ry="18"/>
<text text-anchor="middle" x="410.49" y="-660.95" font-family="Times,serif" font-size="14.00">connect_box_to_power_and_network</text>
</g>
<!-- attach_onlyfans_to_box&#45;&gt;connect_box_to_power_and_network -->
<g id="edge54" class="edge">
<title>attach_onlyfans_to_box&#45;&gt;connect_box_to_power_and_network</title>
<path fill="none" stroke="black" d="M497.19,-720.23C482.46,-711.19 464.06,-699.89 448.01,-690.03"/>
<polygon fill="black" stroke="black" points="450.01,-687.16 439.66,-684.91 446.35,-693.12 450.01,-687.16"/>
</g>
<!-- verify_blue_smoke_still_inside -->
<g id="node54" class="node">
<title>verify_blue_smoke_still_inside</title>
<ellipse fill="none" stroke="black" cx="410.49" cy="-594" rx="127.61" ry="18"/>
<text text-anchor="middle" x="410.49" y="-588.95" font-family="Times,serif" font-size="14.00">verify_blue_smoke_still_inside</text>
</g>
<!-- connect_box_to_power_and_network&#45;&gt;verify_blue_smoke_still_inside -->
<g id="edge57" class="edge">
<title>connect_box_to_power_and_network&#45;&gt;verify_blue_smoke_still_inside</title>
<path fill="none" stroke="black" d="M410.49,-647.7C410.49,-640.41 410.49,-631.73 410.49,-623.54"/>
<polygon fill="black" stroke="black" points="413.99,-623.62 410.49,-613.62 406.99,-623.62 413.99,-623.62"/>
</g>
<!-- stick_battery_to_baseplate&#45;&gt;connect_box_to_power_and_network -->
<g id="edge56" class="edge">
<title>stick_battery_to_baseplate&#45;&gt;connect_box_to_power_and_network</title>
<path fill="none" stroke="black" d="M324.56,-720.23C339.16,-711.19 357.39,-699.89 373.31,-690.03"/>
<polygon fill="black" stroke="black" points="374.92,-693.15 381.58,-684.91 371.23,-687.2 374.92,-693.15"/>
</g>
<!-- record_box_id_and_mac_address -->
<g id="node55" class="node">
<title>record_box_id_and_mac_address</title>
<ellipse fill="none" stroke="black" cx="410.49" cy="-522" rx="135.29" ry="18"/>
<text text-anchor="middle" x="410.49" y="-516.95" font-family="Times,serif" font-size="14.00">record_box_id_and_mac_address</text>
</g>
<!-- verify_blue_smoke_still_inside&#45;&gt;record_box_id_and_mac_address -->
<g id="edge58" class="edge">
<title>verify_blue_smoke_still_inside&#45;&gt;record_box_id_and_mac_address</title>
<path fill="none" stroke="black" d="M410.49,-575.7C410.49,-568.41 410.49,-559.73 410.49,-551.54"/>
<polygon fill="black" stroke="black" points="413.99,-551.62 410.49,-541.62 406.99,-551.62 413.99,-551.62"/>
</g>
<!-- click_both_bootsel_btns -->
<g id="node56" class="node">
<title>click_both_bootsel_btns</title>
<ellipse fill="none" stroke="black" cx="410.49" cy="-450" rx="101" ry="18"/>
<text text-anchor="middle" x="410.49" y="-444.95" font-family="Times,serif" font-size="14.00">click_both_bootsel_btns</text>
</g>
<!-- record_box_id_and_mac_address&#45;&gt;click_both_bootsel_btns -->
<g id="edge59" class="edge">
<title>record_box_id_and_mac_address&#45;&gt;click_both_bootsel_btns</title>
<path fill="none" stroke="black" d="M410.49,-503.7C410.49,-496.41 410.49,-487.73 410.49,-479.54"/>
<polygon fill="black" stroke="black" points="413.99,-479.62 410.49,-469.62 406.99,-479.62 413.99,-479.62"/>
</g>
<!-- attach_radxa_hat -->
<g id="node57" class="node">
<title>attach_radxa_hat</title>
<ellipse fill="none" stroke="black" cx="410.49" cy="-378" rx="73.87" ry="18"/>
<text text-anchor="middle" x="410.49" y="-372.95" font-family="Times,serif" font-size="14.00">attach_radxa_hat</text>
</g>
<!-- click_both_bootsel_btns&#45;&gt;attach_radxa_hat -->
<g id="edge60" class="edge">
<title>click_both_bootsel_btns&#45;&gt;attach_radxa_hat</title>
<path fill="none" stroke="black" d="M410.49,-431.7C410.49,-424.41 410.49,-415.73 410.49,-407.54"/>
<polygon fill="black" stroke="black" points="413.99,-407.62 410.49,-397.62 406.99,-407.62 413.99,-407.62"/>
</g>
<!-- run_provisioning_script -->
<g id="node58" class="node">
<title>run_provisioning_script</title>
<ellipse fill="none" stroke="black" cx="410.49" cy="-306" rx="99.46" ry="18"/>
<text text-anchor="middle" x="410.49" y="-300.95" font-family="Times,serif" font-size="14.00">run_provisioning_script</text>
</g>
<!-- attach_radxa_hat&#45;&gt;run_provisioning_script -->
<g id="edge61" class="edge">
<title>attach_radxa_hat&#45;&gt;run_provisioning_script</title>
<path fill="none" stroke="black" d="M410.49,-359.7C410.49,-352.41 410.49,-343.73 410.49,-335.54"/>
<polygon fill="black" stroke="black" points="413.99,-335.62 410.49,-325.62 406.99,-335.62 413.99,-335.62"/>
</g>
<!-- verify_status_on_display -->
<g id="node59" class="node">
<title>verify_status_on_display</title>
<ellipse fill="none" stroke="black" cx="410.49" cy="-234" rx="103.56" ry="18"/>
<text text-anchor="middle" x="410.49" y="-228.95" font-family="Times,serif" font-size="14.00">verify_status_on_display</text>
</g>
<!-- run_provisioning_script&#45;&gt;verify_status_on_display -->
<g id="edge62" class="edge">
<title>run_provisioning_script&#45;&gt;verify_status_on_display</title>
<path fill="none" stroke="black" d="M410.49,-287.7C410.49,-280.41 410.49,-271.73 410.49,-263.54"/>
<polygon fill="black" stroke="black" points="413.99,-263.62 410.49,-253.62 406.99,-263.62 413.99,-263.62"/>
</g>
<!-- close_box -->
<g id="node60" class="node">
<title>close_box</title>
<ellipse fill="none" stroke="black" cx="311.49" cy="-162" rx="48.28" ry="18"/>
<text text-anchor="middle" x="311.49" y="-156.95" font-family="Times,serif" font-size="14.00">close_box</text>
</g>
<!-- verify_status_on_display&#45;&gt;close_box -->
<g id="edge63" class="edge">
<title>verify_status_on_display&#45;&gt;close_box</title>
<path fill="none" stroke="black" d="M386.53,-216.05C373.32,-206.72 356.78,-195.02 342.59,-184.99"/>
<polygon fill="black" stroke="black" points="344.63,-182.15 334.45,-179.23 340.59,-187.86 344.63,-182.15"/>
</g>
<!-- close_box&#45;&gt;screw_box_shut -->
<g id="edge65" class="edge">
<title>close_box&#45;&gt;screw_box_shut</title>
<path fill="none" stroke="black" d="M311.49,-143.7C311.49,-136.41 311.49,-127.73 311.49,-119.54"/>
<polygon fill="black" stroke="black" points="314.99,-119.62 311.49,-109.62 307.99,-119.62 314.99,-119.62"/>
</g>
<!-- insert_case_locks -->
<g id="node61" class="node">
<title>insert_case_locks</title>
<ellipse fill="none" stroke="black" cx="213.49" cy="-234" rx="75.92" ry="18"/>
<text text-anchor="middle" x="213.49" y="-228.95" font-family="Times,serif" font-size="14.00">insert_case_locks</text>
</g>
<!-- insert_case_locks&#45;&gt;close_box -->
<g id="edge64" class="edge">
<title>insert_case_locks&#45;&gt;close_box</title>
<path fill="none" stroke="black" d="M236.72,-216.41C249.78,-207.08 266.25,-195.31 280.41,-185.2"/>
<polygon fill="black" stroke="black" points="282.44,-188.05 288.55,-179.39 278.37,-182.35 282.44,-188.05"/>
</g>
</g>
</svg>
