<?xml version="1.0" encoding="UTF-8" standalone="no"?>
<!DOCTYPE svg PUBLIC "-//W3C//DTD SVG 1.1//EN"
 "http://www.w3.org/Graphics/SVG/1.1/DTD/svg11.dtd">
<!-- Generated by graphviz version 2.38.0 (20140413.2041)
 -->
<!-- Title: G Pages: 1 -->
<svg width="697pt" height="931pt"
 viewBox="0.00 0.00 696.50 931.00" xmlns="http://www.w3.org/2000/svg" xmlns:xlink="http://www.w3.org/1999/xlink">
<g id="graph0" class="graph" transform="scale(1 1) rotate(0) translate(4 927)">
<title>G</title>
<polygon fill="white" stroke="none" points="-4,4 -4,-927 692.5,-927 692.5,4 -4,4"/>
<g id="clust2" class="cluster"><title>cluster_room</title>
<polygon fill="lightgrey" stroke="lightgrey" points="168.5,-666 168.5,-773 526.5,-773 526.5,-666 168.5,-666"/>
<text text-anchor="middle" x="347.5" y="-757.8" font-family="Times,serif" font-size="14.00">INGESTION</text>
</g>
<g id="clust3" class="cluster"><title>cluster_voc</title>
<polygon fill="lightgrey" stroke="lightgrey" points="171.5,-376 171.5,-603 523.5,-603 523.5,-376 171.5,-376"/>
<text text-anchor="middle" x="347.5" y="-587.8" font-family="Times,serif" font-size="14.00">VOCTORACK</text>
<text text-anchor="middle" x="347.5" y="-572.8" font-family="Times,serif" font-size="14.00">24x docker container</text>
<text text-anchor="middle" x="347.5" y="-557.8" font-family="Times,serif" font-size="14.00">on site in VOC</text>
<text text-anchor="middle" x="347.5" y="-542.8" font-family="Times,serif" font-size="14.00">&lt;=96Mbit/s network in</text>
<text text-anchor="middle" x="347.5" y="-527.8" font-family="Times,serif" font-size="14.00">&lt;=48Mbit/s network out</text>
<text text-anchor="middle" x="347.5" y="-512.8" font-family="Times,serif" font-size="14.00">1.4 Tb video data</text>
<text text-anchor="middle" x="347.5" y="-497.8" font-family="Times,serif" font-size="14.00">UPS</text>
</g>
<g id="clust5" class="cluster"><title>cluster_stream</title>
<polygon fill="lightgrey" stroke="lightgrey" points="159.5,-152 159.5,-251 323.5,-251 323.5,-152 159.5,-152"/>
</g>
<!-- speaker_laptop -->
<g id="node1" class="node"><title>speaker_laptop</title>
<polygon fill="none" stroke="black" points="305,-850 210,-850 210,-814 305,-814 305,-850"/>
<text text-anchor="middle" x="257.5" y="-828.3" font-family="Times,serif" font-size="14.00">speaker laptop</text>
</g>
<!-- speaker_box -->
<g id="node5" class="node"><title>speaker_box</title>
<g id="a_node5"><a xlink:href="https://github.com" xlink:title="speaker box\nbmdtools\nffmpeg\ndump (possibly with gaps)">
<polygon fill="lightgrey" stroke="black" points="338.5,-742 176.5,-742 176.5,-674 338.5,-674 338.5,-742"/>
<text text-anchor="middle" x="257.5" y="-726.8" font-family="Times,serif" font-size="14.00">speaker box</text>
<text text-anchor="middle" x="257.5" y="-711.8" font-family="Times,serif" font-size="14.00">bmdtools</text>
<text text-anchor="middle" x="257.5" y="-696.8" font-family="Times,serif" font-size="14.00">ffmpeg</text>
<text text-anchor="middle" x="257.5" y="-681.8" font-family="Times,serif" font-size="14.00">dump (possibly with gaps)</text>
</a>
</g>
</g>
<!-- speaker_laptop&#45;&gt;speaker_box -->
<g id="edge2" class="edge"><title>speaker_laptop&#45;&gt;speaker_box</title>
<path fill="none" stroke="black" d="M257.5,-813.779C257.5,-797.861 257.5,-773.538 257.5,-752.332"/>
<polygon fill="black" stroke="black" points="261,-752.222 257.5,-742.222 254,-752.222 261,-752.222"/>
<text text-anchor="middle" x="297" y="-784.8" font-family="Times,serif" font-size="14.00">1024x768 50p</text>
</g>
<!-- camera_with_audio_gear -->
<g id="node2" class="node"><title>camera_with_audio_gear</title>
<polygon fill="none" stroke="black" points="510,-850 365,-850 365,-814 510,-814 510,-850"/>
<text text-anchor="middle" x="437.5" y="-828.3" font-family="Times,serif" font-size="14.00">camera with audio gear</text>
</g>
<!-- cam_box -->
<g id="node4" class="node"><title>cam_box</title>
<g id="a_node4"><a xlink:href="https://github.com" xlink:title="camera box\nbmd&#45;tools\nffmpeg\ndump (possibly with gaps)">
<polygon fill="lightgrey" stroke="black" points="518.5,-742 356.5,-742 356.5,-674 518.5,-674 518.5,-742"/>
<text text-anchor="middle" x="437.5" y="-726.8" font-family="Times,serif" font-size="14.00">camera box</text>
<text text-anchor="middle" x="437.5" y="-711.8" font-family="Times,serif" font-size="14.00">bmd&#45;tools</text>
<text text-anchor="middle" x="437.5" y="-696.8" font-family="Times,serif" font-size="14.00">ffmpeg</text>
<text text-anchor="middle" x="437.5" y="-681.8" font-family="Times,serif" font-size="14.00">dump (possibly with gaps)</text>
</a>
</g>
</g>
<!-- camera_with_audio_gear&#45;&gt;cam_box -->
<g id="edge3" class="edge"><title>camera_with_audio_gear&#45;&gt;cam_box</title>
<path fill="none" stroke="black" d="M437.5,-813.779C437.5,-797.861 437.5,-773.538 437.5,-752.332"/>
<polygon fill="black" stroke="black" points="441,-752.222 437.5,-742.222 434,-752.222 441,-752.222"/>
<text text-anchor="middle" x="458" y="-784.8" font-family="Times,serif" font-size="14.00">720p50</text>
</g>
<!-- room_sound_system -->
<g id="node3" class="node"><title>room_sound_system</title>
<polygon fill="none" stroke="black" points="499.5,-923 375.5,-923 375.5,-887 499.5,-887 499.5,-923"/>
<text text-anchor="middle" x="437.5" y="-901.3" font-family="Times,serif" font-size="14.00">room sound system</text>
</g>
<!-- room_sound_system&#45;&gt;camera_with_audio_gear -->
<g id="edge1" class="edge"><title>room_sound_system&#45;&gt;camera_with_audio_gear</title>
<path fill="none" stroke="black" d="M437.5,-886.813C437.5,-878.789 437.5,-869.047 437.5,-860.069"/>
<polygon fill="black" stroke="black" points="441,-860.029 437.5,-850.029 434,-860.029 441,-860.029"/>
</g>
<!-- vocto1 -->
<g id="node6" class="node"><title>vocto1</title>
<g id="a_node6"><a xlink:href="http://github.com" xlink:title="roomname.vocto.fosdem.org\npowerful cpu\nencoding\n3 dumps:\n2 single with black gap filler\n+ 1 pip">
<polygon fill="lightgrey" stroke="black" points="515.5,-482 339.5,-482 339.5,-384 515.5,-384 515.5,-482"/>
<text text-anchor="middle" x="427.5" y="-466.8" font-family="Times,serif" font-size="14.00">roomname.vocto.fosdem.org</text>
<text text-anchor="middle" x="427.5" y="-451.8" font-family="Times,serif" font-size="14.00">powerful cpu</text>
<text text-anchor="middle" x="427.5" y="-436.8" font-family="Times,serif" font-size="14.00">encoding</text>
<text text-anchor="middle" x="427.5" y="-421.8" font-family="Times,serif" font-size="14.00">3 dumps:</text>
<text text-anchor="middle" x="427.5" y="-406.8" font-family="Times,serif" font-size="14.00">2 single with black gap filler</text>
<text text-anchor="middle" x="427.5" y="-391.8" font-family="Times,serif" font-size="14.00">+ 1 pip</text>
</a>
</g>
</g>
<!-- cam_box&#45;&gt;vocto1 -->
<g id="edge4" class="edge"><title>cam_box&#45;&gt;vocto1</title>
<path fill="none" stroke="black" d="M436.284,-673.798C434.632,-628.716 431.655,-547.433 429.629,-492.121"/>
<polygon fill="black" stroke="black" points="433.126,-491.974 429.262,-482.109 426.131,-492.231 433.126,-491.974"/>
<text text-anchor="middle" x="473" y="-644.8" font-family="Times,serif" font-size="14.00">udp multicast</text>
<text text-anchor="middle" x="473" y="-629.8" font-family="Times,serif" font-size="14.00">mpeg ts</text>
<text text-anchor="middle" x="473" y="-614.8" font-family="Times,serif" font-size="14.00">&lt;=2Mbit/s</text>
</g>
<!-- speaker_box&#45;&gt;vocto1 -->
<g id="edge5" class="edge"><title>speaker_box&#45;&gt;vocto1</title>
<path fill="none" stroke="black" d="M281.539,-673.736C295.874,-653.546 314.202,-627.104 329.5,-603 352.674,-566.486 377.076,-524.418 395.733,-491.388"/>
<polygon fill="black" stroke="black" points="398.98,-492.755 400.837,-482.324 392.881,-489.32 398.98,-492.755"/>
<text text-anchor="middle" x="362" y="-644.8" font-family="Times,serif" font-size="14.00">udp multicast</text>
<text text-anchor="middle" x="362" y="-629.8" font-family="Times,serif" font-size="14.00">mpeg ts</text>
<text text-anchor="middle" x="362" y="-614.8" font-family="Times,serif" font-size="14.00">&lt;=2Mbit/s</text>
</g>
<!-- ingest_rtmp1 -->
<g id="node8" class="node"><title>ingest_rtmp1</title>
<polygon fill="lightgrey" stroke="black" points="155,-347 0,-347 0,-294 155,-294 155,-347"/>
<text text-anchor="middle" x="77.5" y="-331.8" font-family="Times,serif" font-size="14.00">ingest1.video.fosdem.org</text>
<text text-anchor="middle" x="77.5" y="-316.8" font-family="Times,serif" font-size="14.00">nginx_rtmp</text>
<text text-anchor="middle" x="77.5" y="-301.8" font-family="Times,serif" font-size="14.00">Paris data center</text>
</g>
<!-- vocto1&#45;&gt;ingest_rtmp1 -->
<g id="edge6" class="edge"><title>vocto1&#45;&gt;ingest_rtmp1</title>
<path fill="none" stroke="black" d="M433.554,-383.79C432.64,-377.503 430.773,-371.385 427.5,-366"/>
<path fill="none" stroke="black" d="M427.5,-365C413.273,-341.593 221.53,-350.699 165.216,-346.507"/>
<polygon fill="black" stroke="black" points="165.464,-343.013 155.131,-345.351 164.667,-349.967 165.464,-343.013"/>
</g>
<!-- ingest_rtmp2 -->
<g id="node9" class="node"><title>ingest_rtmp2</title>
<polygon fill="lightgrey" stroke="black" points="328,-347 173,-347 173,-294 328,-294 328,-347"/>
<text text-anchor="middle" x="250.5" y="-331.8" font-family="Times,serif" font-size="14.00">ingest2.video.fosdem.org</text>
<text text-anchor="middle" x="250.5" y="-316.8" font-family="Times,serif" font-size="14.00">nginx_rtmp</text>
<text text-anchor="middle" x="250.5" y="-301.8" font-family="Times,serif" font-size="14.00">Paris data center</text>
</g>
<!-- vocto1&#45;&gt;ingest_rtmp2 -->
<g id="edge7" class="edge"><title>vocto1&#45;&gt;ingest_rtmp2</title>
<path fill="none" stroke="black" d="M427.5,-365C418.024,-349.409 369.332,-351.207 338.331,-346.583"/>
<polygon fill="black" stroke="black" points="338.677,-343.085 328.197,-344.64 337.359,-349.96 338.677,-343.085"/>
</g>
<!-- ingest_rtmp1b -->
<g id="node10" class="node"><title>ingest_rtmp1b</title>
<polygon fill="lightgrey" stroke="black" points="508.5,-347 346.5,-347 346.5,-294 508.5,-294 508.5,-347"/>
<text text-anchor="middle" x="427.5" y="-331.8" font-family="Times,serif" font-size="14.00">ingest1b.video.fosdem.org</text>
<text text-anchor="middle" x="427.5" y="-316.8" font-family="Times,serif" font-size="14.00">nginx_rtmp</text>
<text text-anchor="middle" x="427.5" y="-301.8" font-family="Times,serif" font-size="14.00">Amsterdam data center</text>
</g>
<!-- vocto1&#45;&gt;ingest_rtmp1b -->
<g id="edge8" class="edge"><title>vocto1&#45;&gt;ingest_rtmp1b</title>
<path fill="none" stroke="black" d="M427.5,-365C426.043,-362.602 425.008,-359.984 424.305,-357.26"/>
<polygon fill="black" stroke="black" points="427.753,-356.626 423.042,-347.136 420.807,-357.492 427.753,-356.626"/>
</g>
<!-- ingest_rtmp2b -->
<g id="node11" class="node"><title>ingest_rtmp2b</title>
<polygon fill="lightgrey" stroke="black" points="688.5,-347 526.5,-347 526.5,-294 688.5,-294 688.5,-347"/>
<text text-anchor="middle" x="607.5" y="-331.8" font-family="Times,serif" font-size="14.00">ingest2b.video.fosdem.org</text>
<text text-anchor="middle" x="607.5" y="-316.8" font-family="Times,serif" font-size="14.00">nginx_rtmp</text>
<text text-anchor="middle" x="607.5" y="-301.8" font-family="Times,serif" font-size="14.00">Amsterdam data center</text>
</g>
<!-- vocto1&#45;&gt;ingest_rtmp2b -->
<g id="edge9" class="edge"><title>vocto1&#45;&gt;ingest_rtmp2b</title>
<path fill="none" stroke="black" d="M427.5,-365C417.982,-349.341 482.21,-351.151 515.999,-346.661"/>
<polygon fill="black" stroke="black" points="516.906,-350.054 526.141,-344.862 515.683,-343.162 516.906,-350.054"/>
</g>
<!-- voctomon -->
<g id="node7" class="node"><title>voctomon</title>
<polygon fill="lightgrey" stroke="black" points="321,-452 180,-452 180,-414 321,-414 321,-452"/>
<text text-anchor="middle" x="250.5" y="-436.8" font-family="Times,serif" font-size="14.00">mon.vocto.fosdem.org</text>
<text text-anchor="middle" x="250.5" y="-421.8" font-family="Times,serif" font-size="14.00">40&quot;screen</text>
</g>
<!-- stream_vps -->
<g id="node12" class="node"><title>stream_vps</title>
<polygon fill="lightgrey" stroke="black" points="316,-243 167,-243 167,-160 316,-160 316,-243"/>
<text text-anchor="middle" x="241.5" y="-227.8" font-family="Times,serif" font-size="14.00">stream.fosdem.org</text>
<text text-anchor="middle" x="241.5" y="-212.8" font-family="Times,serif" font-size="14.00"> n* scaleway bare metal</text>
<text text-anchor="middle" x="241.5" y="-197.8" font-family="Times,serif" font-size="14.00">nginx (streaming)</text>
<text text-anchor="middle" x="241.5" y="-182.8" font-family="Times,serif" font-size="14.00">800 Mbit bandwidth</text>
<text text-anchor="middle" x="241.5" y="-167.8" font-family="Times,serif" font-size="14.00">round robin dns</text>
</g>
<!-- ingest_rtmp1&#45;&gt;stream_vps -->
<g id="edge10" class="edge"><title>ingest_rtmp1&#45;&gt;stream_vps</title>
<path fill="none" stroke="black" d="M113.49,-293.824C131.886,-280.7 154.85,-264.317 176.229,-249.065"/>
<polygon fill="black" stroke="black" points="178.537,-251.718 184.645,-243.061 174.472,-246.02 178.537,-251.718"/>
<text text-anchor="middle" x="185.5" y="-264.8" font-family="Times,serif" font-size="14.00">hls&#45;proxy</text>
</g>
<!-- ingest_rtmp2&#45;&gt;stream_vps -->
<g id="edge11" class="edge"><title>ingest_rtmp2&#45;&gt;stream_vps</title>
<path fill="none" stroke="black" d="M248.525,-293.824C247.609,-281.915 246.486,-267.324 245.41,-253.329"/>
<polygon fill="black" stroke="black" points="248.894,-252.992 244.638,-243.29 241.915,-253.529 248.894,-252.992"/>
<text text-anchor="middle" x="273.5" y="-264.8" font-family="Times,serif" font-size="14.00">hls&#45;proxy</text>
</g>
<!-- www -->
<g id="node13" class="node"><title>www</title>
<polygon fill="none" stroke="black" points="297.5,-109 185.5,-109 185.5,-73 297.5,-73 297.5,-109"/>
<text text-anchor="middle" x="241.5" y="-87.3" font-family="Times,serif" font-size="14.00">www.fosdem.org</text>
</g>
<!-- stream_vps&#45;&gt;www -->
<g id="edge12" class="edge"><title>stream_vps&#45;&gt;www</title>
<path fill="none" stroke="black" d="M241.5,-159.79C241.5,-146.21 241.5,-131.42 241.5,-119.13"/>
<polygon fill="black" stroke="black" points="245,-119.067 241.5,-109.067 238,-119.067 245,-119.067"/>
<text text-anchor="middle" x="282.5" y="-130.8" font-family="Times,serif" font-size="14.00">include HLS.js</text>
</g>
<!-- browser -->
<g id="node14" class="node"><title>browser</title>
<polygon fill="none" stroke="black" points="298.5,-36 184.5,-36 184.5,-0 298.5,-0 298.5,-36"/>
<text text-anchor="middle" x="241.5" y="-14.3" font-family="Times,serif" font-size="14.00">web, android, iOs</text>
</g>
<!-- www&#45;&gt;browser -->
<g id="edge13" class="edge"><title>www&#45;&gt;browser</title>
<path fill="none" stroke="black" d="M241.5,-72.8129C241.5,-64.7895 241.5,-55.0475 241.5,-46.0691"/>
<polygon fill="black" stroke="black" points="245,-46.0288 241.5,-36.0288 238,-46.0289 245,-46.0288"/>
</g>
</g>
</svg>
