<?xml version="1.0" standalone="no"?>
<!DOCTYPE svg PUBLIC "-//W3C//DTD SVG 1.1//EN" "http://www.w3.org/Graphics/SVG/1.1/DTD/svg11.dtd">
<svg width="75mm" height="109mm" viewBox="0 -109 75 109" xmlns="http://www.w3.org/2000/svg" version="1.1">
<title>OpenSCAD Model</title>
<path d="
M 75,-108.5 L 0,-108.5 L 0,-0 L 75,-0 z
M 2.40581,-104.003 L 2.312,-104.012 L 2.21892,-104.027 L 2.12695,-104.047 L 2.03647,-104.073 L 1.9478,-104.105
 L 1.86133,-104.143 L 1.77736,-104.186 L 1.69626,-104.234 L 1.61832,-104.286 L 1.54385,-104.344 L 1.47318,-104.407
 L 1.40654,-104.473 L 1.34422,-104.544 L 1.28647,-104.618 L 1.23351,-104.696 L 1.18553,-104.777 L 1.14275,-104.861
 L 1.10533,-104.948 L 1.07341,-105.036 L 1.04712,-105.127 L 1.02657,-105.219 L 1.01183,-105.312 L 1.00294,-105.406
 L 1,-105.5 L 1.00294,-105.594 L 1.01183,-105.688 L 1.02657,-105.781 L 1.04712,-105.873 L 1.07341,-105.964
 L 1.10533,-106.052 L 1.14275,-106.139 L 1.18553,-106.223 L 1.23351,-106.304 L 1.28647,-106.382 L 1.34422,-106.456
 L 1.40654,-106.527 L 1.47318,-106.593 L 1.54385,-106.656 L 1.61832,-106.714 L 1.69626,-106.766 L 1.77736,-106.814
 L 1.86133,-106.857 L 1.9478,-106.895 L 2.03647,-106.927 L 2.12695,-106.953 L 2.21892,-106.973 L 2.312,-106.988
 L 2.40581,-106.997 L 2.5,-107 L 2.59418,-106.997 L 2.68799,-106.988 L 2.78107,-106.973 L 2.87303,-106.953
 L 2.96352,-106.927 L 3.05219,-106.895 L 3.13866,-106.857 L 3.22263,-106.814 L 3.30373,-106.766 L 3.38167,-106.714
 L 3.45613,-106.656 L 3.52681,-106.593 L 3.59344,-106.527 L 3.65576,-106.456 L 3.71352,-106.382 L 3.76648,-106.304
 L 3.81445,-106.223 L 3.85724,-106.139 L 3.89465,-106.052 L 3.92657,-105.964 L 3.95287,-105.873 L 3.97342,-105.781
 L 3.98816,-105.688 L 3.99704,-105.594 L 4,-105.5 L 3.99704,-105.406 L 3.98816,-105.312 L 3.97342,-105.219
 L 3.95287,-105.127 L 3.92657,-105.036 L 3.89465,-104.948 L 3.85724,-104.861 L 3.81445,-104.777 L 3.76648,-104.696
 L 3.71352,-104.618 L 3.65576,-104.544 L 3.59344,-104.473 L 3.52681,-104.407 L 3.45613,-104.344 L 3.38167,-104.286
 L 3.30373,-104.234 L 3.22263,-104.186 L 3.13866,-104.143 L 3.05219,-104.105 L 2.96352,-104.073 L 2.87303,-104.047
 L 2.78107,-104.027 L 2.68799,-104.012 L 2.59418,-104.003 L 2.5,-104 z
M 61.4058,-104.003 L 61.312,-104.012 L 61.2189,-104.027 L 61.127,-104.047 L 61.0365,-104.073 L 60.9478,-104.105
 L 60.8613,-104.143 L 60.7774,-104.186 L 60.6963,-104.234 L 60.6183,-104.286 L 60.5439,-104.344 L 60.4732,-104.407
 L 60.4065,-104.473 L 60.3442,-104.544 L 60.2865,-104.618 L 60.2335,-104.696 L 60.1855,-104.777 L 60.1427,-104.861
 L 60.1053,-104.948 L 60.0734,-105.036 L 60.0471,-105.127 L 60.0266,-105.219 L 60.0118,-105.312 L 60.0029,-105.406
 L 60,-105.5 L 60.0029,-105.594 L 60.0118,-105.688 L 60.0266,-105.781 L 60.0471,-105.873 L 60.0734,-105.964
 L 60.1053,-106.052 L 60.1427,-106.139 L 60.1855,-106.223 L 60.2335,-106.304 L 60.2865,-106.382 L 60.3442,-106.456
 L 60.4065,-106.527 L 60.4732,-106.593 L 60.5439,-106.656 L 60.6183,-106.714 L 60.6963,-106.766 L 60.7774,-106.814
 L 60.8613,-106.857 L 60.9478,-106.895 L 61.0365,-106.927 L 61.127,-106.953 L 61.2189,-106.973 L 61.312,-106.988
 L 61.4058,-106.997 L 61.5,-107 L 61.5942,-106.997 L 61.688,-106.988 L 61.7811,-106.973 L 61.873,-106.953
 L 61.9635,-106.927 L 62.0522,-106.895 L 62.1387,-106.857 L 62.2226,-106.814 L 62.3037,-106.766 L 62.3817,-106.714
 L 62.4561,-106.656 L 62.5268,-106.593 L 62.5934,-106.527 L 62.6558,-106.456 L 62.7135,-106.382 L 62.7665,-106.304
 L 62.8145,-106.223 L 62.8572,-106.139 L 62.8947,-106.052 L 62.9266,-105.964 L 62.9529,-105.873 L 62.9734,-105.781
 L 62.9882,-105.688 L 62.997,-105.594 L 63,-105.5 L 62.997,-105.406 L 62.9882,-105.312 L 62.9734,-105.219
 L 62.9529,-105.127 L 62.9266,-105.036 L 62.8947,-104.948 L 62.8572,-104.861 L 62.8145,-104.777 L 62.7665,-104.696
 L 62.7135,-104.618 L 62.6558,-104.544 L 62.5934,-104.473 L 62.5268,-104.407 L 62.4561,-104.344 L 62.3817,-104.286
 L 62.3037,-104.234 L 62.2226,-104.186 L 62.1387,-104.143 L 62.0522,-104.105 L 61.9635,-104.073 L 61.873,-104.047
 L 61.7811,-104.027 L 61.688,-104.012 L 61.5942,-104.003 L 61.5,-104 z
M 18.4058,-52.5029 L 18.312,-52.5118 L 18.2189,-52.5266 L 18.127,-52.5471 L 18.0365,-52.5734 L 17.9478,-52.6053
 L 17.8613,-52.6427 L 17.7774,-52.6855 L 17.6963,-52.7335 L 17.6183,-52.7865 L 17.5439,-52.8442 L 17.4732,-52.9065
 L 17.4065,-52.9732 L 17.3442,-53.0439 L 17.2865,-53.1183 L 17.2335,-53.1963 L 17.1855,-53.2774 L 17.1427,-53.3613
 L 17.1053,-53.4478 L 17.0734,-53.5365 L 17.0471,-53.627 L 17.0266,-53.7189 L 17.0118,-53.812 L 17.0029,-53.9058
 L 17,-54 L 17.0029,-54.0942 L 17.0118,-54.188 L 17.0266,-54.2811 L 17.0471,-54.373 L 17.0734,-54.4635
 L 17.1053,-54.5522 L 17.1427,-54.6387 L 17.1855,-54.7226 L 17.2335,-54.8037 L 17.2865,-54.8817 L 17.3442,-54.9561
 L 17.4065,-55.0268 L 17.4732,-55.0934 L 17.5439,-55.1558 L 17.6183,-55.2135 L 17.6963,-55.2665 L 17.7774,-55.3145
 L 17.8613,-55.3572 L 17.9478,-55.3947 L 18.0365,-55.4266 L 18.127,-55.4529 L 18.2189,-55.4734 L 18.312,-55.4882
 L 18.4058,-55.497 L 18.5,-55.5 L 18.5942,-55.497 L 18.688,-55.4882 L 18.7811,-55.4734 L 18.873,-55.4529
 L 18.9635,-55.4266 L 19.0522,-55.3947 L 19.1387,-55.3572 L 19.2226,-55.3145 L 19.3037,-55.2665 L 19.3817,-55.2135
 L 19.4561,-55.1558 L 19.5268,-55.0934 L 19.5934,-55.0268 L 19.6558,-54.9561 L 19.7135,-54.8817 L 19.7665,-54.8037
 L 19.8145,-54.7226 L 19.8572,-54.6387 L 19.8947,-54.5522 L 19.9266,-54.4635 L 19.9529,-54.373 L 19.9734,-54.2811
 L 19.9882,-54.188 L 19.997,-54.0942 L 20,-54 L 19.997,-53.9058 L 19.9882,-53.812 L 19.9734,-53.7189
 L 19.9529,-53.627 L 19.9266,-53.5365 L 19.8947,-53.4478 L 19.8572,-53.3613 L 19.8145,-53.2774 L 19.7665,-53.1963
 L 19.7135,-53.1183 L 19.6558,-53.0439 L 19.5934,-52.9732 L 19.5268,-52.9065 L 19.4561,-52.8442 L 19.3817,-52.7865
 L 19.3037,-52.7335 L 19.2226,-52.6855 L 19.1387,-52.6427 L 19.0522,-52.6053 L 18.9635,-52.5734 L 18.873,-52.5471
 L 18.7811,-52.5266 L 18.688,-52.5118 L 18.5942,-52.5029 L 18.5,-52.5 z
M 69.9058,-52.5029 L 69.812,-52.5118 L 69.7189,-52.5266 L 69.627,-52.5471 L 69.5365,-52.5734 L 69.4478,-52.6053
 L 69.3613,-52.6427 L 69.2774,-52.6855 L 69.1963,-52.7335 L 69.1183,-52.7865 L 69.0439,-52.8442 L 68.9732,-52.9065
 L 68.9065,-52.9732 L 68.8442,-53.0439 L 68.7865,-53.1183 L 68.7335,-53.1963 L 68.6855,-53.2774 L 68.6427,-53.3613
 L 68.6053,-53.4478 L 68.5734,-53.5365 L 68.5471,-53.627 L 68.5266,-53.7189 L 68.5118,-53.812 L 68.5029,-53.9058
 L 68.5,-54 L 68.5029,-54.0942 L 68.5118,-54.188 L 68.5266,-54.2811 L 68.5471,-54.373 L 68.5734,-54.4635
 L 68.6053,-54.5522 L 68.6427,-54.6387 L 68.6855,-54.7226 L 68.7335,-54.8037 L 68.7865,-54.8817 L 68.8442,-54.9561
 L 68.9065,-55.0268 L 68.9732,-55.0934 L 69.0439,-55.1558 L 69.1183,-55.2135 L 69.1963,-55.2665 L 69.2774,-55.3145
 L 69.3613,-55.3572 L 69.4478,-55.3947 L 69.5365,-55.4266 L 69.627,-55.4529 L 69.7189,-55.4734 L 69.812,-55.4882
 L 69.9058,-55.497 L 70,-55.5 L 70.0942,-55.497 L 70.188,-55.4882 L 70.2811,-55.4734 L 70.373,-55.4529
 L 70.4635,-55.4266 L 70.5522,-55.3947 L 70.6387,-55.3572 L 70.7226,-55.3145 L 70.8037,-55.2665 L 70.8817,-55.2135
 L 70.9561,-55.1558 L 71.0268,-55.0934 L 71.0934,-55.0268 L 71.1558,-54.9561 L 71.2135,-54.8817 L 71.2665,-54.8037
 L 71.3145,-54.7226 L 71.3572,-54.6387 L 71.3947,-54.5522 L 71.4266,-54.4635 L 71.4529,-54.373 L 71.4734,-54.2811
 L 71.4882,-54.188 L 71.497,-54.0942 L 71.5,-54 L 71.497,-53.9058 L 71.4882,-53.812 L 71.4734,-53.7189
 L 71.4529,-53.627 L 71.4266,-53.5365 L 71.3947,-53.4478 L 71.3572,-53.3613 L 71.3145,-53.2774 L 71.2665,-53.1963
 L 71.2135,-53.1183 L 71.1558,-53.0439 L 71.0934,-52.9732 L 71.0268,-52.9065 L 70.9561,-52.8442 L 70.8817,-52.7865
 L 70.8037,-52.7335 L 70.7226,-52.6855 L 70.6387,-52.6427 L 70.5522,-52.6053 L 70.4635,-52.5734 L 70.373,-52.5471
 L 70.2811,-52.5266 L 70.188,-52.5118 L 70.0942,-52.5029 L 70,-52.5 z
M 2.40581,-1.00294 L 2.312,-1.01183 L 2.21892,-1.02657 L 2.12695,-1.04712 L 2.03647,-1.07341 L 1.9478,-1.10533
 L 1.86133,-1.14275 L 1.77736,-1.18553 L 1.69626,-1.23351 L 1.61832,-1.28647 L 1.54385,-1.34422 L 1.47318,-1.40654
 L 1.40654,-1.47318 L 1.34422,-1.54385 L 1.28647,-1.61832 L 1.23351,-1.69626 L 1.18553,-1.77736 L 1.14275,-1.86133
 L 1.10533,-1.9478 L 1.07341,-2.03647 L 1.04712,-2.12695 L 1.02657,-2.21892 L 1.01183,-2.312 L 1.00294,-2.40581
 L 1,-2.5 L 1.00294,-2.59418 L 1.01183,-2.68799 L 1.02657,-2.78107 L 1.04712,-2.87303 L 1.07341,-2.96352
 L 1.10533,-3.05219 L 1.14275,-3.13866 L 1.18553,-3.22263 L 1.23351,-3.30373 L 1.28647,-3.38167 L 1.34422,-3.45613
 L 1.40654,-3.52681 L 1.47318,-3.59344 L 1.54385,-3.65576 L 1.61832,-3.71352 L 1.69626,-3.76648 L 1.77736,-3.81445
 L 1.86133,-3.85724 L 1.9478,-3.89465 L 2.03647,-3.92657 L 2.12695,-3.95287 L 2.21892,-3.97342 L 2.312,-3.98816
 L 2.40581,-3.99704 L 2.5,-4 L 2.59418,-3.99704 L 2.68799,-3.98816 L 2.78107,-3.97342 L 2.87303,-3.95287
 L 2.96352,-3.92657 L 3.05219,-3.89465 L 3.13866,-3.85724 L 3.22263,-3.81445 L 3.30373,-3.76648 L 3.38167,-3.71352
 L 3.45613,-3.65576 L 3.52681,-3.59344 L 3.59344,-3.52681 L 3.65576,-3.45613 L 3.71352,-3.38167 L 3.76648,-3.30373
 L 3.81445,-3.22263 L 3.85724,-3.13866 L 3.89465,-3.05219 L 3.92657,-2.96352 L 3.95287,-2.87303 L 3.97342,-2.78107
 L 3.98816,-2.68799 L 3.99704,-2.59418 L 4,-2.5 L 3.99704,-2.40581 L 3.98816,-2.312 L 3.97342,-2.21892
 L 3.95287,-2.12695 L 3.92657,-2.03647 L 3.89465,-1.9478 L 3.85724,-1.86133 L 3.81445,-1.77736 L 3.76648,-1.69626
 L 3.71352,-1.61832 L 3.65576,-1.54385 L 3.59344,-1.47318 L 3.52681,-1.40654 L 3.45613,-1.34422 L 3.38167,-1.28647
 L 3.30373,-1.23351 L 3.22263,-1.18553 L 3.13866,-1.14275 L 3.05219,-1.10533 L 2.96352,-1.07341 L 2.87303,-1.04712
 L 2.78107,-1.02657 L 2.68799,-1.01183 L 2.59418,-1.00294 L 2.5,-1 z
M 61.4058,-1.00294 L 61.312,-1.01183 L 61.2189,-1.02657 L 61.127,-1.04712 L 61.0365,-1.07341 L 60.9478,-1.10533
 L 60.8613,-1.14275 L 60.7774,-1.18553 L 60.6963,-1.23351 L 60.6183,-1.28647 L 60.5439,-1.34422 L 60.4732,-1.40654
 L 60.4065,-1.47318 L 60.3442,-1.54385 L 60.2865,-1.61832 L 60.2335,-1.69626 L 60.1855,-1.77736 L 60.1427,-1.86133
 L 60.1053,-1.9478 L 60.0734,-2.03647 L 60.0471,-2.12695 L 60.0266,-2.21892 L 60.0118,-2.312 L 60.0029,-2.40581
 L 60,-2.5 L 60.0029,-2.59418 L 60.0118,-2.68799 L 60.0266,-2.78107 L 60.0471,-2.87303 L 60.0734,-2.96352
 L 60.1053,-3.05219 L 60.1427,-3.13866 L 60.1855,-3.22263 L 60.2335,-3.30373 L 60.2865,-3.38167 L 60.3442,-3.45613
 L 60.4065,-3.52681 L 60.4732,-3.59344 L 60.5439,-3.65576 L 60.6183,-3.71352 L 60.6963,-3.76648 L 60.7774,-3.81445
 L 60.8613,-3.85724 L 60.9478,-3.89465 L 61.0365,-3.92657 L 61.127,-3.95287 L 61.2189,-3.97342 L 61.312,-3.98816
 L 61.4058,-3.99704 L 61.5,-4 L 61.5942,-3.99704 L 61.688,-3.98816 L 61.7811,-3.97342 L 61.873,-3.95287
 L 61.9635,-3.92657 L 62.0522,-3.89465 L 62.1387,-3.85724 L 62.2226,-3.81445 L 62.3037,-3.76648 L 62.3817,-3.71352
 L 62.4561,-3.65576 L 62.5268,-3.59344 L 62.5934,-3.52681 L 62.6558,-3.45613 L 62.7135,-3.38167 L 62.7665,-3.30373
 L 62.8145,-3.22263 L 62.8572,-3.13866 L 62.8947,-3.05219 L 62.9266,-2.96352 L 62.9529,-2.87303 L 62.9734,-2.78107
 L 62.9882,-2.68799 L 62.997,-2.59418 L 63,-2.5 L 62.997,-2.40581 L 62.9882,-2.312 L 62.9734,-2.21892
 L 62.9529,-2.12695 L 62.9266,-2.03647 L 62.8947,-1.9478 L 62.8572,-1.86133 L 62.8145,-1.77736 L 62.7665,-1.69626
 L 62.7135,-1.61832 L 62.6558,-1.54385 L 62.5934,-1.47318 L 62.5268,-1.40654 L 62.4561,-1.34422 L 62.3817,-1.28647
 L 62.3037,-1.23351 L 62.2226,-1.18553 L 62.1387,-1.14275 L 62.0522,-1.10533 L 61.9635,-1.07341 L 61.873,-1.04712
 L 61.7811,-1.02657 L 61.688,-1.01183 L 61.5942,-1.00294 L 61.5,-1 z
M 18.4058,-1.00294 L 18.312,-1.01183 L 18.2189,-1.02657 L 18.127,-1.04712 L 18.0365,-1.07341 L 17.9478,-1.10533
 L 17.8613,-1.14275 L 17.7774,-1.18553 L 17.6963,-1.23351 L 17.6183,-1.28647 L 17.5439,-1.34422 L 17.4732,-1.40654
 L 17.4065,-1.47318 L 17.3442,-1.54385 L 17.2865,-1.61832 L 17.2335,-1.69626 L 17.1855,-1.77736 L 17.1427,-1.86133
 L 17.1053,-1.9478 L 17.0734,-2.03647 L 17.0471,-2.12695 L 17.0266,-2.21892 L 17.0118,-2.312 L 17.0029,-2.40581
 L 17,-2.5 L 17.0029,-2.59418 L 17.0118,-2.68799 L 17.0266,-2.78107 L 17.0471,-2.87303 L 17.0734,-2.96352
 L 17.1053,-3.05219 L 17.1427,-3.13866 L 17.1855,-3.22263 L 17.2335,-3.30373 L 17.2865,-3.38167 L 17.3442,-3.45613
 L 17.4065,-3.52681 L 17.4732,-3.59344 L 17.5439,-3.65576 L 17.6183,-3.71352 L 17.6963,-3.76648 L 17.7774,-3.81445
 L 17.8613,-3.85724 L 17.9478,-3.89465 L 18.0365,-3.92657 L 18.127,-3.95287 L 18.2189,-3.97342 L 18.312,-3.98816
 L 18.4058,-3.99704 L 18.5,-4 L 18.5942,-3.99704 L 18.688,-3.98816 L 18.7811,-3.97342 L 18.873,-3.95287
 L 18.9635,-3.92657 L 19.0522,-3.89465 L 19.1387,-3.85724 L 19.2226,-3.81445 L 19.3037,-3.76648 L 19.3817,-3.71352
 L 19.4561,-3.65576 L 19.5268,-3.59344 L 19.5934,-3.52681 L 19.6558,-3.45613 L 19.7135,-3.38167 L 19.7665,-3.30373
 L 19.8145,-3.22263 L 19.8572,-3.13866 L 19.8947,-3.05219 L 19.9266,-2.96352 L 19.9529,-2.87303 L 19.9734,-2.78107
 L 19.9882,-2.68799 L 19.997,-2.59418 L 20,-2.5 L 19.997,-2.40581 L 19.9882,-2.312 L 19.9734,-2.21892
 L 19.9529,-2.12695 L 19.9266,-2.03647 L 19.8947,-1.9478 L 19.8572,-1.86133 L 19.8145,-1.77736 L 19.7665,-1.69626
 L 19.7135,-1.61832 L 19.6558,-1.54385 L 19.5934,-1.47318 L 19.5268,-1.40654 L 19.4561,-1.34422 L 19.3817,-1.28647
 L 19.3037,-1.23351 L 19.2226,-1.18553 L 19.1387,-1.14275 L 19.0522,-1.10533 L 18.9635,-1.07341 L 18.873,-1.04712
 L 18.7811,-1.02657 L 18.688,-1.01183 L 18.5942,-1.00294 L 18.5,-1 z
M 69.9058,-1.00294 L 69.812,-1.01183 L 69.7189,-1.02657 L 69.627,-1.04712 L 69.5365,-1.07341 L 69.4478,-1.10533
 L 69.3613,-1.14275 L 69.2774,-1.18553 L 69.1963,-1.23351 L 69.1183,-1.28647 L 69.0439,-1.34422 L 68.9732,-1.40654
 L 68.9065,-1.47318 L 68.8442,-1.54385 L 68.7865,-1.61832 L 68.7335,-1.69626 L 68.6855,-1.77736 L 68.6427,-1.86133
 L 68.6053,-1.9478 L 68.5734,-2.03647 L 68.5471,-2.12695 L 68.5266,-2.21892 L 68.5118,-2.312 L 68.5029,-2.40581
 L 68.5,-2.5 L 68.5029,-2.59418 L 68.5118,-2.68799 L 68.5266,-2.78107 L 68.5471,-2.87303 L 68.5734,-2.96352
 L 68.6053,-3.05219 L 68.6427,-3.13866 L 68.6855,-3.22263 L 68.7335,-3.30373 L 68.7865,-3.38167 L 68.8442,-3.45613
 L 68.9065,-3.52681 L 68.9732,-3.59344 L 69.0439,-3.65576 L 69.1183,-3.71352 L 69.1963,-3.76648 L 69.2774,-3.81445
 L 69.3613,-3.85724 L 69.4478,-3.89465 L 69.5365,-3.92657 L 69.627,-3.95287 L 69.7189,-3.97342 L 69.812,-3.98816
 L 69.9058,-3.99704 L 70,-4 L 70.0942,-3.99704 L 70.188,-3.98816 L 70.2811,-3.97342 L 70.373,-3.95287
 L 70.4635,-3.92657 L 70.5522,-3.89465 L 70.6387,-3.85724 L 70.7226,-3.81445 L 70.8037,-3.76648 L 70.8817,-3.71352
 L 70.9561,-3.65576 L 71.0268,-3.59344 L 71.0934,-3.52681 L 71.1558,-3.45613 L 71.2135,-3.38167 L 71.2665,-3.30373
 L 71.3145,-3.22263 L 71.3572,-3.13866 L 71.3947,-3.05219 L 71.4266,-2.96352 L 71.4529,-2.87303 L 71.4734,-2.78107
 L 71.4882,-2.68799 L 71.497,-2.59418 L 71.5,-2.5 L 71.497,-2.40581 L 71.4882,-2.312 L 71.4734,-2.21892
 L 71.4529,-2.12695 L 71.4266,-2.03647 L 71.3947,-1.9478 L 71.3572,-1.86133 L 71.3145,-1.77736 L 71.2665,-1.69626
 L 71.2135,-1.61832 L 71.1558,-1.54385 L 71.0934,-1.47318 L 71.0268,-1.40654 L 70.9561,-1.34422 L 70.8817,-1.28647
 L 70.8037,-1.23351 L 70.7226,-1.18553 L 70.6387,-1.14275 L 70.5522,-1.10533 L 70.4635,-1.07341 L 70.373,-1.04712
 L 70.2811,-1.02657 L 70.188,-1.01183 L 70.0942,-1.00294 L 70,-1 z
" stroke="black" fill="lightgray" stroke-width="0.5"/>
</svg>
