<?xml version="1.0" encoding="UTF-8" standalone="no"?>
<!DOCTYPE svg PUBLIC "-//W3C//DTD SVG 1.1//EN"
 "http://www.w3.org/Graphics/SVG/1.1/DTD/svg11.dtd">
<!-- Generated by graphviz version 2.38.0 (20140413.2041)
 -->
<!-- Title: G Pages: 1 -->
<svg width="1050pt" height="533pt"
 viewBox="0.00 0.00 1049.50 533.00" xmlns="http://www.w3.org/2000/svg" xmlns:xlink="http://www.w3.org/1999/xlink">
<g id="graph0" class="graph" transform="scale(1 1) rotate(0) translate(4 529)">
<title>G</title>
<polygon fill="white" stroke="none" points="-4,4 -4,-529 1045.5,-529 1045.5,4 -4,4"/>
<text text-anchor="middle" x="520.75" y="-22.8" font-family="Times,serif" font-size="14.00">FOSDEM 2017 large rooms video cabling setup:</text>
<text text-anchor="middle" x="520.75" y="-7.8" font-family="Times,serif" font-size="14.00">h1301, h1302, h1308, h1309, ua2114, ua2218a</text>
<g id="clust2" class="cluster"><title>cluster_room</title>
<polygon fill="lightgrey" stroke="lightgrey" points="398.5,-46 398.5,-121 594.5,-121 594.5,-46 398.5,-46"/>
<text text-anchor="middle" x="496.5" y="-105.8" font-family="Times,serif" font-size="14.00">INGESTION</text>
</g>
<!-- speaker_microphone -->
<g id="node1" class="node"><title>speaker_microphone</title>
<g id="a_node1"><a xlink:href="https://en-us.sennheiser.com/global-downloads/file/6524/AVX_Manual_06_2015_EN.pdf" xlink:title="speaker microphone\nsennheiser avx me2\nesk avx bodypack transmitter\nautonomy: 15h (BA30 battery)/11h (2x AA)">
<polygon fill="none" stroke="black" points="259,-525 0,-525 0,-457 259,-457 259,-525"/>
<text text-anchor="middle" x="129.5" y="-509.8" font-family="Times,serif" font-size="14.00">speaker microphone</text>
<text text-anchor="middle" x="129.5" y="-494.8" font-family="Times,serif" font-size="14.00">sennheiser avx me2</text>
<text text-anchor="middle" x="129.5" y="-479.8" font-family="Times,serif" font-size="14.00">esk avx bodypack transmitter</text>
<text text-anchor="middle" x="129.5" y="-464.8" font-family="Times,serif" font-size="14.00">autonomy: 15h (BA30 battery)/11h (2x AA)</text>
</a>
</g>
</g>
<!-- speaker_microphone_receiver -->
<g id="node2" class="node"><title>speaker_microphone_receiver</title>
<g id="a_node2"><a xlink:href="https://en-us.sennheiser.com/global-downloads/file/6524/AVX_Manual_06_2015_EN.pdf" xlink:title="speaker microphone receiver\nsennheiser ekp avx receiver\nautonomy: &gt;4h (BA20 battery)">
<polygon fill="none" stroke="black" points="326,-406 139,-406 139,-353 326,-353 326,-406"/>
<text text-anchor="middle" x="232.5" y="-390.8" font-family="Times,serif" font-size="14.00">speaker microphone receiver</text>
<text text-anchor="middle" x="232.5" y="-375.8" font-family="Times,serif" font-size="14.00">sennheiser ekp avx receiver</text>
<text text-anchor="middle" x="232.5" y="-360.8" font-family="Times,serif" font-size="14.00">autonomy: &gt;4h (BA20 battery)</text>
</a>
</g>
</g>
<!-- speaker_microphone&#45;&gt;speaker_microphone_receiver -->
<g id="edge1" class="edge"><title>speaker_microphone&#45;&gt;speaker_microphone_receiver</title>
<path fill="none" stroke="black" d="M160.683,-456.849C173.572,-443.147 188.484,-427.294 201.368,-413.597"/>
<polygon fill="black" stroke="black" points="203.989,-415.919 208.291,-406.237 198.89,-411.123 203.989,-415.919"/>
<text text-anchor="middle" x="238" y="-427.8" font-family="Times,serif" font-size="14.00">1.9 GHz wireless</text>
</g>
<!-- mix_panel -->
<g id="node6" class="node"><title>mix_panel</title>
<polygon fill="none" stroke="black" points="424,-302 319,-302 319,-264 424,-264 424,-302"/>
<text text-anchor="middle" x="371.5" y="-286.8" font-family="Times,serif" font-size="14.00">audio mix panel</text>
<text text-anchor="middle" x="371.5" y="-271.8" font-family="Times,serif" font-size="14.00">Yamaha MG06</text>
</g>
<!-- speaker_microphone_receiver&#45;&gt;mix_panel -->
<g id="edge3" class="edge"><title>speaker_microphone_receiver&#45;&gt;mix_panel</title>
<path fill="none" stroke="black" d="M254.122,-352.723C264.338,-341.652 277.198,-329.178 290.5,-320 297.678,-315.047 305.648,-310.523 313.707,-306.48"/>
<polygon fill="black" stroke="black" points="315.298,-309.599 322.806,-302.124 312.275,-303.285 315.298,-309.599"/>
<text text-anchor="middle" x="341.5" y="-323.8" font-family="Times,serif" font-size="14.00">xlr plug (no cable)</text>
</g>
<!-- speaker_microphone_receiver_charger -->
<g id="node3" class="node"><title>speaker_microphone_receiver_charger</title>
<polygon fill="none" stroke="black" points="396,-509 277,-509 277,-473 396,-473 396,-509"/>
<text text-anchor="middle" x="336.5" y="-487.3" font-family="Times,serif" font-size="14.00">USB power source</text>
</g>
<!-- speaker_microphone_receiver_charger&#45;&gt;speaker_microphone_receiver -->
<g id="edge2" class="edge"><title>speaker_microphone_receiver_charger&#45;&gt;speaker_microphone_receiver</title>
<path fill="none" stroke="black" d="M326.369,-472.943C317.604,-458.95 304.074,-439.064 289.5,-424 285.713,-420.086 281.556,-416.239 277.265,-412.551"/>
<polygon fill="black" stroke="black" points="279.391,-409.767 269.45,-406.103 274.936,-415.167 279.391,-409.767"/>
<text text-anchor="middle" x="379" y="-427.8" font-family="Times,serif" font-size="14.00">USB A &#45;&gt; micro USB cable</text>
</g>
<!-- audience_microphone -->
<g id="node4" class="node"><title>audience_microphone</title>
<polygon fill="none" stroke="black" points="548.5,-509 414.5,-509 414.5,-473 548.5,-473 548.5,-509"/>
<text text-anchor="middle" x="481.5" y="-487.3" font-family="Times,serif" font-size="14.00">audience microphone</text>
</g>
<!-- audience_microphone_receiver -->
<g id="node5" class="node"><title>audience_microphone_receiver</title>
<polygon fill="none" stroke="black" points="525,-397.5 344,-397.5 344,-361.5 525,-361.5 525,-397.5"/>
<text text-anchor="middle" x="434.5" y="-375.8" font-family="Times,serif" font-size="14.00">audience microphone receiver</text>
</g>
<!-- audience_microphone_receiver&#45;&gt;mix_panel -->
<g id="edge4" class="edge"><title>audience_microphone_receiver&#45;&gt;mix_panel</title>
<path fill="none" stroke="black" d="M422.945,-361.167C413.534,-347.05 400.087,-326.881 389.302,-310.703"/>
<polygon fill="black" stroke="black" points="392.085,-308.568 383.626,-302.189 386.261,-312.451 392.085,-308.568"/>
<text text-anchor="middle" x="456.5" y="-323.8" font-family="Times,serif" font-size="14.00">xlr plug (no cable)</text>
</g>
<!-- camera -->
<g id="node9" class="node"><title>camera</title>
<g id="a_node9"><a xlink:href="https://pro.sony.com/bbsccms/assets/files/micro/nxcam/latest/Sony_HXR-NX100.pdf" xlink:title="camera Sony HXR&#45;NX100">
<polygon fill="none" stroke="black" points="453.5,-213 289.5,-213 289.5,-177 453.5,-177 453.5,-213"/>
<text text-anchor="middle" x="371.5" y="-191.3" font-family="Times,serif" font-size="14.00">camera Sony HXR&#45;NX100</text>
</a>
</g>
</g>
<!-- mix_panel&#45;&gt;camera -->
<g id="edge5" class="edge"><title>mix_panel&#45;&gt;camera</title>
<path fill="none" stroke="black" d="M371.5,-263.762C371.5,-251.934 371.5,-236.316 371.5,-223.055"/>
<polygon fill="black" stroke="black" points="375,-223.042 371.5,-213.042 368,-223.042 375,-223.042"/>
<text text-anchor="middle" x="421.5" y="-234.8" font-family="Times,serif" font-size="14.00">XLR sex? &#45;&gt; sex?</text>
</g>
<!-- speaker_laptop -->
<g id="node7" class="node"><title>speaker_laptop</title>
<polygon fill="none" stroke="black" points="733,-301 638,-301 638,-265 733,-265 733,-301"/>
<text text-anchor="middle" x="685.5" y="-279.3" font-family="Times,serif" font-size="14.00">speaker laptop</text>
</g>
<!-- speaker_laptop_optional_adapter -->
<g id="node8" class="node"><title>speaker_laptop_optional_adapter</title>
<polygon fill="none" stroke="black" stroke-dasharray="1,5" points="641,-213 472,-213 472,-177 641,-177 641,-213"/>
<text text-anchor="middle" x="556.5" y="-191.3" font-family="Times,serif" font-size="14.00">optional hdmi&#45;&gt;vga adapter</text>
</g>
<!-- speaker_laptop&#45;&gt;speaker_laptop_optional_adapter -->
<g id="edge8" class="edge"><title>speaker_laptop&#45;&gt;speaker_laptop_optional_adapter</title>
<path fill="none" stroke="black" stroke-dasharray="1,5" d="M659.705,-264.803C639.93,-251.62 612.454,-233.302 590.823,-218.882"/>
<polygon fill="black" stroke="black" points="592.512,-215.802 582.25,-213.167 588.629,-221.626 592.512,-215.802"/>
<text text-anchor="middle" x="677.5" y="-234.8" font-family="Times,serif" font-size="14.00">either hdmi cable</text>
</g>
<!-- speaker_box -->
<g id="node11" class="node"><title>speaker_box</title>
<g id="a_node11"><a xlink:href="https://github.com/FOSDEM/video" xlink:title="speaker box">
<polygon fill="lightgrey" stroke="black" points="586.5,-90 504.5,-90 504.5,-54 586.5,-54 586.5,-90"/>
<text text-anchor="middle" x="545.5" y="-68.3" font-family="Times,serif" font-size="14.00">speaker box</text>
</a>
</g>
</g>
<!-- speaker_laptop&#45;&gt;speaker_box -->
<g id="edge6" class="edge"><title>speaker_laptop&#45;&gt;speaker_box</title>
<path fill="none" stroke="black" stroke-dasharray="1,5" d="M733.388,-267.45C746.415,-261.045 758.989,-252.032 766.5,-239.5"/>
<path fill="none" stroke="black" stroke-dasharray="1,5" d="M766.5,-237.5C784.745,-207.06 711.393,-241.688 690.5,-213 681.08,-200.067 680.052,-189.118 690.5,-177 714.32,-149.374 857.166,-181.035 851.5,-145"/>
<path fill="none" stroke="black" stroke-dasharray="1,5" d="M851.5,-143C842.55,-92.5183 681.461,-78.429 596.702,-74.5067"/>
<polygon fill="black" stroke="black" points="596.653,-71.0014 586.512,-74.0671 596.351,-77.9949 596.653,-71.0014"/>
<text text-anchor="middle" x="763" y="-191.3" font-family="Times,serif" font-size="14.00">or vga cable male &#45;&gt; male</text>
</g>
<!-- speaker_laptop&#45;&gt;speaker_box -->
<g id="edge7" class="edge"><title>speaker_laptop&#45;&gt;speaker_box</title>
<path fill="none" stroke="black" stroke-dasharray="1,5" d="M766.5,-237.5C785.397,-211.006 813.79,-237.242 835.5,-213 856.213,-189.871 856.92,-175.571 851.5,-145"/>
<text text-anchor="middle" x="948" y="-198.8" font-family="Times,serif" font-size="14.00">3.5mm &#45;&gt; 6.35mm trs male cable</text>
<text text-anchor="middle" x="948" y="-183.8" font-family="Times,serif" font-size="14.00">unbalanced stereo</text>
</g>
<!-- speaker_laptop_optional_adapter&#45;&gt;speaker_box -->
<g id="edge9" class="edge"><title>speaker_laptop_optional_adapter&#45;&gt;speaker_box</title>
<path fill="none" stroke="black" stroke-dasharray="1,5" d="M504.08,-176.852C496.694,-172.205 490.073,-166.352 485.5,-159 478.458,-147.678 479.724,-141.017 485.5,-129 487.966,-123.87 491.22,-124.752 495.5,-121 503.914,-113.622 512.814,-105.27 520.735,-97.6251"/>
<polygon fill="black" stroke="black" points="523.556,-99.7634 528.277,-90.2784 518.672,-94.7493 523.556,-99.7634"/>
<text text-anchor="middle" x="550.5" y="-140.3" font-family="Times,serif" font-size="14.00">vga cable male &#45;&gt; male</text>
</g>
<!-- speaker_laptop_optional_adapter&#45;&gt;speaker_box -->
<g id="edge10" class="edge"><title>speaker_laptop_optional_adapter&#45;&gt;speaker_box</title>
<path fill="none" stroke="black" stroke-dasharray="1,5" d="M598.145,-176.892C605.094,-172.144 611.374,-166.244 615.5,-159 622.098,-147.414 621.276,-141.017 615.5,-129 609.153,-115.794 598.006,-104.727 586.449,-96.0122"/>
<polygon fill="black" stroke="black" points="588.217,-92.9764 578.024,-90.0852 584.189,-98.7016 588.217,-92.9764"/>
<text text-anchor="middle" x="714" y="-147.8" font-family="Times,serif" font-size="14.00">3.5mm &#45;&gt; 6.35mm trs male cable</text>
<text text-anchor="middle" x="714" y="-132.8" font-family="Times,serif" font-size="14.00">unbalanced stereo</text>
</g>
<!-- cam_box -->
<g id="node10" class="node"><title>cam_box</title>
<g id="a_node10"><a xlink:href="https://github.com/FOSDEM/video" xlink:title="camera box">
<polygon fill="lightgrey" stroke="black" points="486.5,-90 406.5,-90 406.5,-54 486.5,-54 486.5,-90"/>
<text text-anchor="middle" x="446.5" y="-68.3" font-family="Times,serif" font-size="14.00">camera box</text>
</a>
</g>
</g>
<!-- camera&#45;&gt;cam_box -->
<g id="edge11" class="edge"><title>camera&#45;&gt;cam_box</title>
<path fill="none" stroke="black" d="M382.087,-176.92C394.634,-156.677 415.679,-122.725 430.284,-99.1625"/>
<polygon fill="black" stroke="black" points="433.431,-100.728 435.724,-90.3846 427.481,-97.0404 433.431,-100.728"/>
<text text-anchor="middle" x="442" y="-140.3" font-family="Times,serif" font-size="14.00">hdmi cable</text>
</g>
</g>
</svg>
