<?xml version="1.0" encoding="UTF-8" standalone="no"?>
<!DOCTYPE svg PUBLIC "-//W3C//DTD SVG 1.1//EN"
 "http://www.w3.org/Graphics/SVG/1.1/DTD/svg11.dtd">
<!-- Generated by graphviz version 2.38.0 (20140413.2041)
 -->
<!-- Title: G Pages: 1 -->
<svg width="1050pt" height="518pt"
 viewBox="0.00 0.00 1049.50 518.00" xmlns="http://www.w3.org/2000/svg" xmlns:xlink="http://www.w3.org/1999/xlink">
<g id="graph0" class="graph" transform="scale(1 1) rotate(0) translate(4 514)">
<title>G</title>
<polygon fill="white" stroke="none" points="-4,4 -4,-514 1045.5,-514 1045.5,4 -4,4"/>
<text text-anchor="middle" x="520.75" y="-7.8" font-family="Times,serif" font-size="14.00">FOSDEM 2017 large rooms video cabling setup</text>
<g id="clust2" class="cluster"><title>cluster_room</title>
<polygon fill="lightgrey" stroke="lightgrey" points="398.5,-31 398.5,-106 594.5,-106 594.5,-31 398.5,-31"/>
<text text-anchor="middle" x="496.5" y="-90.8" font-family="Times,serif" font-size="14.00">INGESTION</text>
</g>
<!-- speaker_microphone -->
<g id="node1" class="node"><title>speaker_microphone</title>
<g id="a_node1"><a xlink:href="https://en-us.sennheiser.com/global-downloads/file/6524/AVX_Manual_06_2015_EN.pdf" xlink:title="speaker microphone\nsennheiser avx me2\nesk avx bodypack transmitter\nautonomy: 15h (BA30 battery)/11h (2x AA)">
<polygon fill="none" stroke="black" points="259,-510 0,-510 0,-442 259,-442 259,-510"/>
<text text-anchor="middle" x="129.5" y="-494.8" font-family="Times,serif" font-size="14.00">speaker microphone</text>
<text text-anchor="middle" x="129.5" y="-479.8" font-family="Times,serif" font-size="14.00">sennheiser avx me2</text>
<text text-anchor="middle" x="129.5" y="-464.8" font-family="Times,serif" font-size="14.00">esk avx bodypack transmitter</text>
<text text-anchor="middle" x="129.5" y="-449.8" font-family="Times,serif" font-size="14.00">autonomy: 15h (BA30 battery)/11h (2x AA)</text>
</a>
</g>
</g>
<!-- speaker_microphone_receiver -->
<g id="node2" class="node"><title>speaker_microphone_receiver</title>
<g id="a_node2"><a xlink:href="https://en-us.sennheiser.com/global-downloads/file/6524/AVX_Manual_06_2015_EN.pdf" xlink:title="speaker microphone receiver\nsennheiser ekp avx receiver\nautonomy: &gt;4h (BA20 battery)">
<polygon fill="none" stroke="black" points="326,-391 139,-391 139,-338 326,-338 326,-391"/>
<text text-anchor="middle" x="232.5" y="-375.8" font-family="Times,serif" font-size="14.00">speaker microphone receiver</text>
<text text-anchor="middle" x="232.5" y="-360.8" font-family="Times,serif" font-size="14.00">sennheiser ekp avx receiver</text>
<text text-anchor="middle" x="232.5" y="-345.8" font-family="Times,serif" font-size="14.00">autonomy: &gt;4h (BA20 battery)</text>
</a>
</g>
</g>
<!-- speaker_microphone&#45;&gt;speaker_microphone_receiver -->
<g id="edge1" class="edge"><title>speaker_microphone&#45;&gt;speaker_microphone_receiver</title>
<path fill="none" stroke="black" d="M160.683,-441.849C173.572,-428.147 188.484,-412.294 201.368,-398.597"/>
<polygon fill="black" stroke="black" points="203.989,-400.919 208.291,-391.237 198.89,-396.123 203.989,-400.919"/>
<text text-anchor="middle" x="238" y="-412.8" font-family="Times,serif" font-size="14.00">1.9 GHz wireless</text>
</g>
<!-- mix_panel -->
<g id="node6" class="node"><title>mix_panel</title>
<polygon fill="none" stroke="black" points="424,-287 319,-287 319,-249 424,-249 424,-287"/>
<text text-anchor="middle" x="371.5" y="-271.8" font-family="Times,serif" font-size="14.00">audio mix panel</text>
<text text-anchor="middle" x="371.5" y="-256.8" font-family="Times,serif" font-size="14.00">Yamaha MG06</text>
</g>
<!-- speaker_microphone_receiver&#45;&gt;mix_panel -->
<g id="edge3" class="edge"><title>speaker_microphone_receiver&#45;&gt;mix_panel</title>
<path fill="none" stroke="black" d="M254.122,-337.723C264.338,-326.652 277.198,-314.178 290.5,-305 297.678,-300.047 305.648,-295.523 313.707,-291.48"/>
<polygon fill="black" stroke="black" points="315.298,-294.599 322.806,-287.124 312.275,-288.285 315.298,-294.599"/>
<text text-anchor="middle" x="341.5" y="-308.8" font-family="Times,serif" font-size="14.00">xlr plug (no cable)</text>
</g>
<!-- speaker_microphone_receiver_charger -->
<g id="node3" class="node"><title>speaker_microphone_receiver_charger</title>
<polygon fill="none" stroke="black" points="396,-494 277,-494 277,-458 396,-458 396,-494"/>
<text text-anchor="middle" x="336.5" y="-472.3" font-family="Times,serif" font-size="14.00">USB power source</text>
</g>
<!-- speaker_microphone_receiver_charger&#45;&gt;speaker_microphone_receiver -->
<g id="edge2" class="edge"><title>speaker_microphone_receiver_charger&#45;&gt;speaker_microphone_receiver</title>
<path fill="none" stroke="black" d="M326.369,-457.943C317.604,-443.95 304.074,-424.064 289.5,-409 285.713,-405.086 281.556,-401.239 277.265,-397.551"/>
<polygon fill="black" stroke="black" points="279.391,-394.767 269.45,-391.103 274.936,-400.167 279.391,-394.767"/>
<text text-anchor="middle" x="379" y="-412.8" font-family="Times,serif" font-size="14.00">USB A &#45;&gt; micro USB cable</text>
</g>
<!-- audience_microphone -->
<g id="node4" class="node"><title>audience_microphone</title>
<polygon fill="none" stroke="black" points="548.5,-494 414.5,-494 414.5,-458 548.5,-458 548.5,-494"/>
<text text-anchor="middle" x="481.5" y="-472.3" font-family="Times,serif" font-size="14.00">audience microphone</text>
</g>
<!-- audience_microphone_receiver -->
<g id="node5" class="node"><title>audience_microphone_receiver</title>
<polygon fill="none" stroke="black" points="525,-382.5 344,-382.5 344,-346.5 525,-346.5 525,-382.5"/>
<text text-anchor="middle" x="434.5" y="-360.8" font-family="Times,serif" font-size="14.00">audience microphone receiver</text>
</g>
<!-- audience_microphone_receiver&#45;&gt;mix_panel -->
<g id="edge4" class="edge"><title>audience_microphone_receiver&#45;&gt;mix_panel</title>
<path fill="none" stroke="black" d="M422.945,-346.167C413.534,-332.05 400.087,-311.881 389.302,-295.703"/>
<polygon fill="black" stroke="black" points="392.085,-293.568 383.626,-287.189 386.261,-297.451 392.085,-293.568"/>
<text text-anchor="middle" x="456.5" y="-308.8" font-family="Times,serif" font-size="14.00">xlr plug (no cable)</text>
</g>
<!-- camera -->
<g id="node9" class="node"><title>camera</title>
<g id="a_node9"><a xlink:href="https://pro.sony.com/bbsccms/assets/files/micro/nxcam/latest/Sony_HXR-NX100.pdf" xlink:title="camera Sony HXR&#45;NX100">
<polygon fill="none" stroke="black" points="453.5,-198 289.5,-198 289.5,-162 453.5,-162 453.5,-198"/>
<text text-anchor="middle" x="371.5" y="-176.3" font-family="Times,serif" font-size="14.00">camera Sony HXR&#45;NX100</text>
</a>
</g>
</g>
<!-- mix_panel&#45;&gt;camera -->
<g id="edge5" class="edge"><title>mix_panel&#45;&gt;camera</title>
<path fill="none" stroke="black" d="M371.5,-248.762C371.5,-236.934 371.5,-221.316 371.5,-208.055"/>
<polygon fill="black" stroke="black" points="375,-208.042 371.5,-198.042 368,-208.042 375,-208.042"/>
<text text-anchor="middle" x="421.5" y="-219.8" font-family="Times,serif" font-size="14.00">XLR sex? &#45;&gt; sex?</text>
</g>
<!-- speaker_laptop -->
<g id="node7" class="node"><title>speaker_laptop</title>
<polygon fill="none" stroke="black" points="733,-286 638,-286 638,-250 733,-250 733,-286"/>
<text text-anchor="middle" x="685.5" y="-264.3" font-family="Times,serif" font-size="14.00">speaker laptop</text>
</g>
<!-- speaker_laptop_optional_adapter -->
<g id="node8" class="node"><title>speaker_laptop_optional_adapter</title>
<polygon fill="none" stroke="black" stroke-dasharray="1,5" points="641,-198 472,-198 472,-162 641,-162 641,-198"/>
<text text-anchor="middle" x="556.5" y="-176.3" font-family="Times,serif" font-size="14.00">optional hdmi&#45;&gt;vga adapter</text>
</g>
<!-- speaker_laptop&#45;&gt;speaker_laptop_optional_adapter -->
<g id="edge8" class="edge"><title>speaker_laptop&#45;&gt;speaker_laptop_optional_adapter</title>
<path fill="none" stroke="black" stroke-dasharray="1,5" d="M659.705,-249.803C639.93,-236.62 612.454,-218.302 590.823,-203.882"/>
<polygon fill="black" stroke="black" points="592.512,-200.802 582.25,-198.167 588.629,-206.626 592.512,-200.802"/>
<text text-anchor="middle" x="677.5" y="-219.8" font-family="Times,serif" font-size="14.00">either hdmi cable</text>
</g>
<!-- speaker_box -->
<g id="node11" class="node"><title>speaker_box</title>
<g id="a_node11"><a xlink:href="https://github.com/FOSDEM/video" xlink:title="speaker box">
<polygon fill="lightgrey" stroke="black" points="586.5,-75 504.5,-75 504.5,-39 586.5,-39 586.5,-75"/>
<text text-anchor="middle" x="545.5" y="-53.3" font-family="Times,serif" font-size="14.00">speaker box</text>
</a>
</g>
</g>
<!-- speaker_laptop&#45;&gt;speaker_box -->
<g id="edge6" class="edge"><title>speaker_laptop&#45;&gt;speaker_box</title>
<path fill="none" stroke="black" stroke-dasharray="1,5" d="M733.388,-252.45C746.415,-246.045 758.989,-237.032 766.5,-224.5"/>
<path fill="none" stroke="black" stroke-dasharray="1,5" d="M766.5,-222.5C784.745,-192.06 711.393,-226.688 690.5,-198 681.08,-185.067 680.052,-174.118 690.5,-162 714.32,-134.374 857.166,-166.035 851.5,-130"/>
<path fill="none" stroke="black" stroke-dasharray="1,5" d="M851.5,-128C842.55,-77.5183 681.461,-63.429 596.702,-59.5067"/>
<polygon fill="black" stroke="black" points="596.653,-56.0014 586.512,-59.0671 596.351,-62.9949 596.653,-56.0014"/>
<text text-anchor="middle" x="763" y="-176.3" font-family="Times,serif" font-size="14.00">or vga cable male &#45;&gt; male</text>
</g>
<!-- speaker_laptop&#45;&gt;speaker_box -->
<g id="edge7" class="edge"><title>speaker_laptop&#45;&gt;speaker_box</title>
<path fill="none" stroke="black" stroke-dasharray="1,5" d="M766.5,-222.5C785.397,-196.006 813.79,-222.242 835.5,-198 856.213,-174.871 856.92,-160.571 851.5,-130"/>
<text text-anchor="middle" x="948" y="-183.8" font-family="Times,serif" font-size="14.00">3.5mm &#45;&gt; 6.35mm trs male cable</text>
<text text-anchor="middle" x="948" y="-168.8" font-family="Times,serif" font-size="14.00">unbalanced stereo</text>
</g>
<!-- speaker_laptop_optional_adapter&#45;&gt;speaker_box -->
<g id="edge9" class="edge"><title>speaker_laptop_optional_adapter&#45;&gt;speaker_box</title>
<path fill="none" stroke="black" stroke-dasharray="1,5" d="M504.08,-161.852C496.694,-157.205 490.073,-151.352 485.5,-144 478.458,-132.678 479.724,-126.017 485.5,-114 487.966,-108.87 491.22,-109.752 495.5,-106 503.914,-98.6221 512.814,-90.2699 520.735,-82.6251"/>
<polygon fill="black" stroke="black" points="523.556,-84.7634 528.277,-75.2784 518.672,-79.7493 523.556,-84.7634"/>
<text text-anchor="middle" x="550.5" y="-125.3" font-family="Times,serif" font-size="14.00">vga cable male &#45;&gt; male</text>
</g>
<!-- speaker_laptop_optional_adapter&#45;&gt;speaker_box -->
<g id="edge10" class="edge"><title>speaker_laptop_optional_adapter&#45;&gt;speaker_box</title>
<path fill="none" stroke="black" stroke-dasharray="1,5" d="M598.145,-161.892C605.094,-157.144 611.374,-151.244 615.5,-144 622.098,-132.414 621.276,-126.017 615.5,-114 609.153,-100.794 598.006,-89.7269 586.449,-81.0122"/>
<polygon fill="black" stroke="black" points="588.217,-77.9764 578.024,-75.0852 584.189,-83.7016 588.217,-77.9764"/>
<text text-anchor="middle" x="714" y="-132.8" font-family="Times,serif" font-size="14.00">3.5mm &#45;&gt; 6.35mm trs male cable</text>
<text text-anchor="middle" x="714" y="-117.8" font-family="Times,serif" font-size="14.00">unbalanced stereo</text>
</g>
<!-- cam_box -->
<g id="node10" class="node"><title>cam_box</title>
<g id="a_node10"><a xlink:href="https://github.com/FOSDEM/video" xlink:title="camera box">
<polygon fill="lightgrey" stroke="black" points="486.5,-75 406.5,-75 406.5,-39 486.5,-39 486.5,-75"/>
<text text-anchor="middle" x="446.5" y="-53.3" font-family="Times,serif" font-size="14.00">camera box</text>
</a>
</g>
</g>
<!-- camera&#45;&gt;cam_box -->
<g id="edge11" class="edge"><title>camera&#45;&gt;cam_box</title>
<path fill="none" stroke="black" d="M382.087,-161.92C394.634,-141.677 415.679,-107.725 430.284,-84.1625"/>
<polygon fill="black" stroke="black" points="433.431,-85.7283 435.724,-75.3846 427.481,-82.0404 433.431,-85.7283"/>
<text text-anchor="middle" x="442" y="-125.3" font-family="Times,serif" font-size="14.00">hdmi cable</text>
</g>
</g>
</svg>
