<?xml version="1.0" encoding="UTF-8" standalone="no"?>
<!DOCTYPE svg PUBLIC "-//W3C//DTD SVG 1.1//EN"
 "http://www.w3.org/Graphics/SVG/1.1/DTD/svg11.dtd">
<!-- Generated by graphviz version 2.38.0 (20140413.2041)
 -->
<!-- Title: G Pages: 1 -->
<svg width="845pt" height="548pt"
 viewBox="0.00 0.00 845.00 548.00" xmlns="http://www.w3.org/2000/svg" xmlns:xlink="http://www.w3.org/1999/xlink">
<g id="graph0" class="graph" transform="scale(1 1) rotate(0) translate(4 544)">
<title>G</title>
<polygon fill="white" stroke="none" points="-4,4 -4,-544 841,-544 841,4 -4,4"/>
<text text-anchor="middle" x="418.5" y="-22.8" font-family="Times,serif" font-size="14.00">FOSDEM 2017 xxl rooms video cabling setup:</text>
<text text-anchor="middle" x="418.5" y="-7.8" font-family="Times,serif" font-size="14.00">h2215, janson, k1105, ua2220, ub2252a, ud2120</text>
<g id="clust2" class="cluster"><title>cluster_room</title>
<polygon fill="lightgrey" stroke="lightgrey" points="194,-46 194,-121 390,-121 390,-46 194,-46"/>
<text text-anchor="middle" x="292" y="-105.8" font-family="Times,serif" font-size="14.00">INGESTION</text>
</g>
<!-- speaker_microphone -->
<g id="node1" class="node"><title>speaker_microphone</title>
<polygon fill="none" stroke="black" points="165,-540 9,-540 9,-472 165,-472 165,-540"/>
<text text-anchor="middle" x="87" y="-524.8" font-family="Times,serif" font-size="14.00">speaker microphone</text>
<text text-anchor="middle" x="87" y="-509.8" font-family="Times,serif" font-size="14.00">sennheiser G3 series</text>
<text text-anchor="middle" x="87" y="-494.8" font-family="Times,serif" font-size="14.00"> G3 bodypack transmitter</text>
<text text-anchor="middle" x="87" y="-479.8" font-family="Times,serif" font-size="14.00">autonomy: ?h (2x AA)</text>
</g>
<!-- speaker_microphone_receiver -->
<g id="node2" class="node"><title>speaker_microphone_receiver</title>
<polygon fill="none" stroke="black" points="174,-421 0,-421 0,-353 174,-353 174,-421"/>
<text text-anchor="middle" x="87" y="-405.8" font-family="Times,serif" font-size="14.00">speaker microphone receiver</text>
<text text-anchor="middle" x="87" y="-390.8" font-family="Times,serif" font-size="14.00">sennheiser G3 series</text>
<text text-anchor="middle" x="87" y="-375.8" font-family="Times,serif" font-size="14.00">autonomy: ?AC powered</text>
<text text-anchor="middle" x="87" y="-360.8" font-family="Times,serif" font-size="14.00">?DC: &gt;4h (2x AA battery)</text>
</g>
<!-- speaker_microphone&#45;&gt;speaker_microphone_receiver -->
<g id="edge1" class="edge"><title>speaker_microphone&#45;&gt;speaker_microphone_receiver</title>
<path fill="none" stroke="black" d="M87,-471.785C87,-459.311 87,-444.938 87,-431.657"/>
<polygon fill="black" stroke="black" points="90.5001,-431.298 87,-421.298 83.5001,-431.298 90.5001,-431.298"/>
<text text-anchor="middle" x="144" y="-442.8" font-family="Times,serif" font-size="14.00">+&#45;600 MHz wireless</text>
</g>
<!-- mix_panel -->
<g id="node5" class="node"><title>mix_panel</title>
<polygon fill="none" stroke="black" points="219.5,-302 114.5,-302 114.5,-264 219.5,-264 219.5,-302"/>
<text text-anchor="middle" x="167" y="-286.8" font-family="Times,serif" font-size="14.00">audio mix panel</text>
<text text-anchor="middle" x="167" y="-271.8" font-family="Times,serif" font-size="14.00">ULB provided</text>
</g>
<!-- speaker_microphone_receiver&#45;&gt;mix_panel -->
<g id="edge2" class="edge"><title>speaker_microphone_receiver&#45;&gt;mix_panel</title>
<path fill="none" stroke="black" d="M112.974,-352.884C123.827,-339.045 136.258,-323.196 146.458,-310.191"/>
<polygon fill="black" stroke="black" points="149.382,-312.135 152.799,-302.106 143.874,-307.815 149.382,-312.135"/>
<text text-anchor="middle" x="188" y="-323.8" font-family="Times,serif" font-size="14.00">xlr plug (no cable)</text>
</g>
<!-- audience_microphone -->
<g id="node3" class="node"><title>audience_microphone</title>
<polygon fill="none" stroke="black" points="350,-532.5 216,-532.5 216,-479.5 350,-479.5 350,-532.5"/>
<text text-anchor="middle" x="283" y="-517.3" font-family="Times,serif" font-size="14.00">audience microphone</text>
<text text-anchor="middle" x="283" y="-502.3" font-family="Times,serif" font-size="14.00">ULB provided</text>
<text text-anchor="middle" x="283" y="-487.3" font-family="Times,serif" font-size="14.00">Sennheiser G3 series</text>
</g>
<!-- audience_microphone_receiver -->
<g id="node4" class="node"><title>audience_microphone_receiver</title>
<polygon fill="none" stroke="black" points="373.5,-406 192.5,-406 192.5,-368 373.5,-368 373.5,-406"/>
<text text-anchor="middle" x="283" y="-390.8" font-family="Times,serif" font-size="14.00">audience microphone receiver</text>
<text text-anchor="middle" x="283" y="-375.8" font-family="Times,serif" font-size="14.00">Sennheiser G3 series</text>
</g>
<!-- audience_microphone&#45;&gt;audience_microphone_receiver -->
<g id="edge3" class="edge"><title>audience_microphone&#45;&gt;audience_microphone_receiver</title>
<path fill="none" stroke="black" d="M283,-479.324C283,-460.794 283,-435.767 283,-416.599"/>
<polygon fill="black" stroke="black" points="286.5,-416.358 283,-406.358 279.5,-416.358 286.5,-416.358"/>
<text text-anchor="middle" x="340" y="-442.8" font-family="Times,serif" font-size="14.00">+&#45;600 MHz wireless</text>
</g>
<!-- audience_microphone_receiver&#45;&gt;mix_panel -->
<g id="edge4" class="edge"><title>audience_microphone_receiver&#45;&gt;mix_panel</title>
<path fill="none" stroke="black" d="M275.51,-367.765C268.79,-353.268 257.722,-333.285 243,-320 237.635,-315.158 231.503,-310.843 225.101,-307.031"/>
<polygon fill="black" stroke="black" points="226.698,-303.915 216.252,-302.144 223.314,-310.042 226.698,-303.915"/>
<text text-anchor="middle" x="307" y="-323.8" font-family="Times,serif" font-size="14.00">xlr plug (no cable)</text>
</g>
<!-- camera -->
<g id="node8" class="node"><title>camera</title>
<g id="a_node8"><a xlink:href="https://pro.sony.com/bbsccms/assets/files/micro/nxcam/latest/Sony_HXR-NX100.pdf" xlink:title="camera Sony HXR&#45;NX100">
<polygon fill="none" stroke="black" points="249,-213 85,-213 85,-177 249,-177 249,-213"/>
<text text-anchor="middle" x="167" y="-191.3" font-family="Times,serif" font-size="14.00">camera Sony HXR&#45;NX100</text>
</a>
</g>
</g>
<!-- mix_panel&#45;&gt;camera -->
<g id="edge5" class="edge"><title>mix_panel&#45;&gt;camera</title>
<path fill="none" stroke="black" d="M167,-263.762C167,-251.934 167,-236.316 167,-223.055"/>
<polygon fill="black" stroke="black" points="170.5,-223.042 167,-213.042 163.5,-223.042 170.5,-223.042"/>
<text text-anchor="middle" x="217" y="-234.8" font-family="Times,serif" font-size="14.00">XLR sex? &#45;&gt; sex?</text>
</g>
<!-- speaker_laptop -->
<g id="node6" class="node"><title>speaker_laptop</title>
<polygon fill="none" stroke="black" points="528.5,-301 433.5,-301 433.5,-265 528.5,-265 528.5,-301"/>
<text text-anchor="middle" x="481" y="-279.3" font-family="Times,serif" font-size="14.00">speaker laptop</text>
</g>
<!-- speaker_laptop_optional_adapter -->
<g id="node7" class="node"><title>speaker_laptop_optional_adapter</title>
<polygon fill="none" stroke="black" stroke-dasharray="1,5" points="436.5,-213 267.5,-213 267.5,-177 436.5,-177 436.5,-213"/>
<text text-anchor="middle" x="352" y="-191.3" font-family="Times,serif" font-size="14.00">optional hdmi&#45;&gt;vga adapter</text>
</g>
<!-- speaker_laptop&#45;&gt;speaker_laptop_optional_adapter -->
<g id="edge8" class="edge"><title>speaker_laptop&#45;&gt;speaker_laptop_optional_adapter</title>
<path fill="none" stroke="black" stroke-dasharray="1,5" d="M455.205,-264.803C435.43,-251.62 407.954,-233.302 386.323,-218.882"/>
<polygon fill="black" stroke="black" points="388.012,-215.802 377.75,-213.167 384.129,-221.626 388.012,-215.802"/>
<text text-anchor="middle" x="473" y="-234.8" font-family="Times,serif" font-size="14.00">either hdmi cable</text>
</g>
<!-- speaker_box -->
<g id="node10" class="node"><title>speaker_box</title>
<g id="a_node10"><a xlink:href="https://github.com/FOSDEM/video" xlink:title="speaker box">
<polygon fill="lightgrey" stroke="black" points="382,-90 300,-90 300,-54 382,-54 382,-90"/>
<text text-anchor="middle" x="341" y="-68.3" font-family="Times,serif" font-size="14.00">speaker box</text>
</a>
</g>
</g>
<!-- speaker_laptop&#45;&gt;speaker_box -->
<g id="edge6" class="edge"><title>speaker_laptop&#45;&gt;speaker_box</title>
<path fill="none" stroke="black" stroke-dasharray="1,5" d="M528.888,-267.45C541.915,-261.045 554.489,-252.032 562,-239.5"/>
<path fill="none" stroke="black" stroke-dasharray="1,5" d="M562,-237.5C580.245,-207.06 506.893,-241.688 486,-213 476.58,-200.067 475.552,-189.118 486,-177 509.82,-149.374 652.666,-181.035 647,-145"/>
<path fill="none" stroke="black" stroke-dasharray="1,5" d="M647,-143C638.05,-92.5183 476.961,-78.429 392.202,-74.5067"/>
<polygon fill="black" stroke="black" points="392.153,-71.0014 382.012,-74.0671 391.851,-77.9949 392.153,-71.0014"/>
<text text-anchor="middle" x="558.5" y="-191.3" font-family="Times,serif" font-size="14.00">or vga cable male &#45;&gt; male</text>
</g>
<!-- speaker_laptop&#45;&gt;speaker_box -->
<g id="edge7" class="edge"><title>speaker_laptop&#45;&gt;speaker_box</title>
<path fill="none" stroke="black" stroke-dasharray="1,5" d="M562,-237.5C580.897,-211.006 609.29,-237.242 631,-213 651.713,-189.871 652.42,-175.571 647,-145"/>
<text text-anchor="middle" x="743.5" y="-198.8" font-family="Times,serif" font-size="14.00">3.5mm &#45;&gt; 6.35mm trs male cable</text>
<text text-anchor="middle" x="743.5" y="-183.8" font-family="Times,serif" font-size="14.00">unbalanced stereo</text>
</g>
<!-- speaker_laptop_optional_adapter&#45;&gt;speaker_box -->
<g id="edge9" class="edge"><title>speaker_laptop_optional_adapter&#45;&gt;speaker_box</title>
<path fill="none" stroke="black" stroke-dasharray="1,5" d="M299.58,-176.852C292.194,-172.205 285.573,-166.352 281,-159 273.958,-147.678 275.224,-141.017 281,-129 283.466,-123.87 286.72,-124.752 291,-121 299.414,-113.622 308.314,-105.27 316.235,-97.6251"/>
<polygon fill="black" stroke="black" points="319.056,-99.7634 323.777,-90.2784 314.172,-94.7493 319.056,-99.7634"/>
<text text-anchor="middle" x="346" y="-140.3" font-family="Times,serif" font-size="14.00">vga cable male &#45;&gt; male</text>
</g>
<!-- speaker_laptop_optional_adapter&#45;&gt;speaker_box -->
<g id="edge10" class="edge"><title>speaker_laptop_optional_adapter&#45;&gt;speaker_box</title>
<path fill="none" stroke="black" stroke-dasharray="1,5" d="M393.645,-176.892C400.594,-172.144 406.874,-166.244 411,-159 417.598,-147.414 416.776,-141.017 411,-129 404.653,-115.794 393.506,-104.727 381.949,-96.0122"/>
<polygon fill="black" stroke="black" points="383.717,-92.9764 373.524,-90.0852 379.689,-98.7016 383.717,-92.9764"/>
<text text-anchor="middle" x="509.5" y="-147.8" font-family="Times,serif" font-size="14.00">3.5mm &#45;&gt; 6.35mm trs male cable</text>
<text text-anchor="middle" x="509.5" y="-132.8" font-family="Times,serif" font-size="14.00">unbalanced stereo</text>
</g>
<!-- cam_box -->
<g id="node9" class="node"><title>cam_box</title>
<g id="a_node9"><a xlink:href="https://github.com/FOSDEM/video" xlink:title="camera box">
<polygon fill="lightgrey" stroke="black" points="282,-90 202,-90 202,-54 282,-54 282,-90"/>
<text text-anchor="middle" x="242" y="-68.3" font-family="Times,serif" font-size="14.00">camera box</text>
</a>
</g>
</g>
<!-- camera&#45;&gt;cam_box -->
<g id="edge11" class="edge"><title>camera&#45;&gt;cam_box</title>
<path fill="none" stroke="black" d="M177.587,-176.92C190.134,-156.677 211.179,-122.725 225.784,-99.1625"/>
<polygon fill="black" stroke="black" points="228.931,-100.728 231.224,-90.3846 222.981,-97.0404 228.931,-100.728"/>
<text text-anchor="middle" x="237.5" y="-140.3" font-family="Times,serif" font-size="14.00">hdmi cable</text>
</g>
</g>
</svg>
