<?xml version="1.0" encoding="UTF-8" standalone="no"?>
<!DOCTYPE svg PUBLIC "-//W3C//DTD SVG 1.1//EN"
 "http://www.w3.org/Graphics/SVG/1.1/DTD/svg11.dtd">
<!-- Generated by graphviz version 2.38.0 (20140413.2041)
 -->
<!-- Title: G Pages: 1 -->
<svg width="897pt" height="429pt"
 viewBox="0.00 0.00 896.50 429.00" xmlns="http://www.w3.org/2000/svg" xmlns:xlink="http://www.w3.org/1999/xlink">
<g id="graph0" class="graph" transform="scale(1 1) rotate(0) translate(4 425)">
<title>G</title>
<polygon fill="white" stroke="none" points="-4,4 -4,-425 892.5,-425 892.5,4 -4,4"/>
<text text-anchor="middle" x="444.25" y="-7.8" font-family="Times,serif" font-size="14.00">FOSDEM 2017 small rooms video cabling setup</text>
<g id="clust2" class="cluster"><title>cluster_room</title>
<polygon fill="lightgrey" stroke="lightgrey" points="257.5,-31 257.5,-106 453.5,-106 453.5,-31 257.5,-31"/>
<text text-anchor="middle" x="355.5" y="-90.8" font-family="Times,serif" font-size="14.00">INGESTION</text>
</g>
<!-- speaker_microphone -->
<g id="node1" class="node"><title>speaker_microphone</title>
<g id="a_node1"><a xlink:href="https://en-us.sennheiser.com/global-downloads/file/6524/AVX_Manual_06_2015_EN.pdf" xlink:title="speaker microphone\nsennheiser avx me2\nesk avx bodypack transmitter\nautonomy: 15h (BA30 battery)/11h (2x AA)">
<polygon fill="none" stroke="black" points="259,-421 0,-421 0,-353 259,-353 259,-421"/>
<text text-anchor="middle" x="129.5" y="-405.8" font-family="Times,serif" font-size="14.00">speaker microphone</text>
<text text-anchor="middle" x="129.5" y="-390.8" font-family="Times,serif" font-size="14.00">sennheiser avx me2</text>
<text text-anchor="middle" x="129.5" y="-375.8" font-family="Times,serif" font-size="14.00">esk avx bodypack transmitter</text>
<text text-anchor="middle" x="129.5" y="-360.8" font-family="Times,serif" font-size="14.00">autonomy: 15h (BA30 battery)/11h (2x AA)</text>
</a>
</g>
</g>
<!-- speaker_microphone_receiver -->
<g id="node2" class="node"><title>speaker_microphone_receiver</title>
<g id="a_node2"><a xlink:href="https://en-us.sennheiser.com/global-downloads/file/6524/AVX_Manual_06_2015_EN.pdf" xlink:title="speaker microphone receiver\nsennheiser ekp avx receiver\nautonomy: &gt;4h (BA20 battery)">
<polygon fill="none" stroke="black" points="326,-302 139,-302 139,-249 326,-249 326,-302"/>
<text text-anchor="middle" x="232.5" y="-286.8" font-family="Times,serif" font-size="14.00">speaker microphone receiver</text>
<text text-anchor="middle" x="232.5" y="-271.8" font-family="Times,serif" font-size="14.00">sennheiser ekp avx receiver</text>
<text text-anchor="middle" x="232.5" y="-256.8" font-family="Times,serif" font-size="14.00">autonomy: &gt;4h (BA20 battery)</text>
</a>
</g>
</g>
<!-- speaker_microphone&#45;&gt;speaker_microphone_receiver -->
<g id="edge1" class="edge"><title>speaker_microphone&#45;&gt;speaker_microphone_receiver</title>
<path fill="none" stroke="black" d="M160.683,-352.849C173.572,-339.147 188.484,-323.294 201.368,-309.597"/>
<polygon fill="black" stroke="black" points="203.989,-311.919 208.291,-302.237 198.89,-307.123 203.989,-311.919"/>
<text text-anchor="middle" x="238" y="-323.8" font-family="Times,serif" font-size="14.00">1.9 GHz wireless</text>
</g>
<!-- camera -->
<g id="node6" class="node"><title>camera</title>
<g id="a_node6"><a xlink:href="http://downloads.canon.com/cpr/software/video/Canon_XF100_XF105_Instruction_Manual.pdf" xlink:title="camera Canon XF100">
<polygon fill="none" stroke="black" points="301,-198 164,-198 164,-162 301,-162 301,-198"/>
<text text-anchor="middle" x="232.5" y="-176.3" font-family="Times,serif" font-size="14.00">camera Canon XF100</text>
</a>
</g>
</g>
<!-- speaker_microphone_receiver&#45;&gt;camera -->
<g id="edge3" class="edge"><title>speaker_microphone_receiver&#45;&gt;camera</title>
<path fill="none" stroke="black" d="M232.5,-248.951C232.5,-236.363 232.5,-221.173 232.5,-208.35"/>
<polygon fill="black" stroke="black" points="236,-208.245 232.5,-198.245 229,-208.245 236,-208.245"/>
<text text-anchor="middle" x="300.5" y="-219.8" font-family="Times,serif" font-size="14.00">direct xlr plug (no cable)</text>
</g>
<!-- speaker_microphone_receiver_charger -->
<g id="node3" class="node"><title>speaker_microphone_receiver_charger</title>
<polygon fill="none" stroke="black" points="396,-405 277,-405 277,-369 396,-369 396,-405"/>
<text text-anchor="middle" x="336.5" y="-383.3" font-family="Times,serif" font-size="14.00">USB power source</text>
</g>
<!-- speaker_microphone_receiver_charger&#45;&gt;speaker_microphone_receiver -->
<g id="edge2" class="edge"><title>speaker_microphone_receiver_charger&#45;&gt;speaker_microphone_receiver</title>
<path fill="none" stroke="black" d="M326.369,-368.943C317.604,-354.95 304.074,-335.064 289.5,-320 285.713,-316.086 281.556,-312.239 277.265,-308.551"/>
<polygon fill="black" stroke="black" points="279.391,-305.767 269.45,-302.103 274.936,-311.167 279.391,-305.767"/>
<text text-anchor="middle" x="379" y="-323.8" font-family="Times,serif" font-size="14.00">USB A &#45;&gt; micro USB cable</text>
</g>
<!-- speaker_laptop -->
<g id="node4" class="node"><title>speaker_laptop</title>
<polygon fill="none" stroke="black" points="605,-293.5 510,-293.5 510,-257.5 605,-257.5 605,-293.5"/>
<text text-anchor="middle" x="557.5" y="-271.8" font-family="Times,serif" font-size="14.00">speaker laptop</text>
</g>
<!-- speaker_laptop_optional_adapter -->
<g id="node5" class="node"><title>speaker_laptop_optional_adapter</title>
<polygon fill="none" stroke="black" stroke-dasharray="1,5" points="488,-198 319,-198 319,-162 488,-162 488,-198"/>
<text text-anchor="middle" x="403.5" y="-176.3" font-family="Times,serif" font-size="14.00">optional hdmi&#45;&gt;vga adapter</text>
</g>
<!-- speaker_laptop&#45;&gt;speaker_laptop_optional_adapter -->
<g id="edge6" class="edge"><title>speaker_laptop&#45;&gt;speaker_laptop_optional_adapter</title>
<path fill="none" stroke="black" stroke-dasharray="1,5" d="M529.254,-257.351C504.29,-242.194 467.71,-219.985 440.431,-203.423"/>
<polygon fill="black" stroke="black" points="441.931,-200.239 431.567,-198.041 438.298,-206.222 441.931,-200.239"/>
<text text-anchor="middle" x="533.5" y="-219.8" font-family="Times,serif" font-size="14.00">either hdmi cable</text>
</g>
<!-- speaker_box -->
<g id="node8" class="node"><title>speaker_box</title>
<g id="a_node8"><a xlink:href="https://github.com/FOSDEM/video" xlink:title="speaker box">
<polygon fill="lightgrey" stroke="black" points="445.5,-75 363.5,-75 363.5,-39 445.5,-39 445.5,-75"/>
<text text-anchor="middle" x="404.5" y="-53.3" font-family="Times,serif" font-size="14.00">speaker box</text>
</a>
</g>
</g>
<!-- speaker_laptop&#45;&gt;speaker_box -->
<g id="edge4" class="edge"><title>speaker_laptop&#45;&gt;speaker_box</title>
<path fill="none" stroke="black" stroke-dasharray="1,5" d="M585.406,-257.28C596.335,-248.885 607.641,-237.728 613.5,-224.5"/>
<path fill="none" stroke="black" stroke-dasharray="1,5" d="M613.5,-222.5C627.873,-190.051 558.393,-226.688 537.5,-198 528.08,-185.067 527.017,-174.087 537.5,-162 561.543,-134.278 704.956,-166.288 699.5,-130"/>
<path fill="none" stroke="black" stroke-dasharray="1,5" d="M699.5,-128C691.263,-79.5418 538.037,-64.532 455.756,-59.9575"/>
<polygon fill="black" stroke="black" points="455.775,-56.4538 445.605,-59.426 455.409,-63.4442 455.775,-56.4538"/>
<text text-anchor="middle" x="610" y="-176.3" font-family="Times,serif" font-size="14.00">or vga cable male &#45;&gt; male</text>
</g>
<!-- speaker_laptop&#45;&gt;speaker_box -->
<g id="edge5" class="edge"><title>speaker_laptop&#45;&gt;speaker_box</title>
<path fill="none" stroke="black" stroke-dasharray="1,5" d="M613.5,-222.5C629.004,-193.888 660.622,-222.091 682.5,-198 703.443,-174.938 704.721,-160.712 699.5,-130"/>
<text text-anchor="middle" x="795" y="-183.8" font-family="Times,serif" font-size="14.00">3.5mm &#45;&gt; 6.35mm trs male cable</text>
<text text-anchor="middle" x="795" y="-168.8" font-family="Times,serif" font-size="14.00">unbalanced stereo</text>
</g>
<!-- speaker_laptop_optional_adapter&#45;&gt;speaker_box -->
<g id="edge7" class="edge"><title>speaker_laptop_optional_adapter&#45;&gt;speaker_box</title>
<path fill="none" stroke="black" stroke-dasharray="1,5" d="M355.691,-161.901C348.437,-157.214 341.913,-151.335 337.5,-144 330.627,-132.575 330.356,-125.258 337.5,-114 341.974,-106.95 347.62,-110.732 354.5,-106 364.217,-99.318 373.821,-90.7177 381.976,-82.647"/>
<polygon fill="black" stroke="black" points="384.523,-85.0482 389.018,-75.4543 379.521,-80.1509 384.523,-85.0482"/>
<text text-anchor="middle" x="402.5" y="-125.3" font-family="Times,serif" font-size="14.00">vga cable male &#45;&gt; male</text>
</g>
<!-- speaker_laptop_optional_adapter&#45;&gt;speaker_box -->
<g id="edge8" class="edge"><title>speaker_laptop_optional_adapter&#45;&gt;speaker_box</title>
<path fill="none" stroke="black" stroke-dasharray="1,5" d="M449.567,-161.872C456.727,-157.174 463.173,-151.299 467.5,-144 480.724,-121.695 460.605,-98.0467 439.678,-81.2053"/>
<polygon fill="black" stroke="black" points="441.757,-78.3893 431.685,-75.101 437.508,-83.9523 441.757,-78.3893"/>
<text text-anchor="middle" x="566" y="-132.8" font-family="Times,serif" font-size="14.00">3.5mm &#45;&gt; 6.35mm trs male cable</text>
<text text-anchor="middle" x="566" y="-117.8" font-family="Times,serif" font-size="14.00">unbalanced stereo</text>
</g>
<!-- cam_box -->
<g id="node7" class="node"><title>cam_box</title>
<g id="a_node7"><a xlink:href="https://github.com/FOSDEM/video" xlink:title="camera box">
<polygon fill="lightgrey" stroke="black" points="345.5,-75 265.5,-75 265.5,-39 345.5,-39 345.5,-75"/>
<text text-anchor="middle" x="305.5" y="-53.3" font-family="Times,serif" font-size="14.00">camera box</text>
</a>
</g>
</g>
<!-- camera&#45;&gt;cam_box -->
<g id="edge9" class="edge"><title>camera&#45;&gt;cam_box</title>
<path fill="none" stroke="black" d="M241.1,-161.899C247.916,-148.634 257.865,-129.891 267.5,-114 273.594,-103.95 280.727,-93.204 287.157,-83.84"/>
<polygon fill="black" stroke="black" points="290.221,-85.5639 293.05,-75.3536 284.472,-81.5714 290.221,-85.5639"/>
<text text-anchor="middle" x="298" y="-125.3" font-family="Times,serif" font-size="14.00">hdmi cable</text>
</g>
</g>
</svg>
