<?xml version="1.0" encoding="UTF-8" standalone="no"?>
<!DOCTYPE svg PUBLIC "-//W3C//DTD SVG 1.1//EN"
 "http://www.w3.org/Graphics/SVG/1.1/DTD/svg11.dtd">
<!-- Generated by graphviz version 2.38.0 (20140413.2041)
 -->
<!-- Title: G Pages: 1 -->
<svg width="897pt" height="444pt"
 viewBox="0.00 0.00 896.50 444.00" xmlns="http://www.w3.org/2000/svg" xmlns:xlink="http://www.w3.org/1999/xlink">
<g id="graph0" class="graph" transform="scale(1 1) rotate(0) translate(4 440)">
<title>G</title>
<polygon fill="white" stroke="none" points="-4,4 -4,-440 892.5,-440 892.5,4 -4,4"/>
<text text-anchor="middle" x="444.25" y="-22.8" font-family="Times,serif" font-size="14.00">FOSDEM 2017 small rooms video cabling setup:</text>
<text text-anchor="middle" x="444.25" y="-7.8" font-family="Times,serif" font-size="14.00">aw1120, aw1121, aw1124, aw1125, aw1126, h2213, h2214, k3201, k3401, k4201, k4401, k4601</text>
<g id="clust2" class="cluster"><title>cluster_room</title>
<polygon fill="lightgrey" stroke="lightgrey" points="257.5,-46 257.5,-121 453.5,-121 453.5,-46 257.5,-46"/>
<text text-anchor="middle" x="355.5" y="-105.8" font-family="Times,serif" font-size="14.00">INGESTION</text>
</g>
<!-- speaker_microphone -->
<g id="node1" class="node"><title>speaker_microphone</title>
<g id="a_node1"><a xlink:href="https://en-us.sennheiser.com/global-downloads/file/6524/AVX_Manual_06_2015_EN.pdf" xlink:title="speaker microphone\nsennheiser avx me2\nesk avx bodypack transmitter\nautonomy: 15h (BA30 battery)/11h (2x AA)">
<polygon fill="none" stroke="black" points="259,-436 0,-436 0,-368 259,-368 259,-436"/>
<text text-anchor="middle" x="129.5" y="-420.8" font-family="Times,serif" font-size="14.00">speaker microphone</text>
<text text-anchor="middle" x="129.5" y="-405.8" font-family="Times,serif" font-size="14.00">sennheiser avx me2</text>
<text text-anchor="middle" x="129.5" y="-390.8" font-family="Times,serif" font-size="14.00">esk avx bodypack transmitter</text>
<text text-anchor="middle" x="129.5" y="-375.8" font-family="Times,serif" font-size="14.00">autonomy: 15h (BA30 battery)/11h (2x AA)</text>
</a>
</g>
</g>
<!-- speaker_microphone_receiver -->
<g id="node2" class="node"><title>speaker_microphone_receiver</title>
<g id="a_node2"><a xlink:href="https://en-us.sennheiser.com/global-downloads/file/6524/AVX_Manual_06_2015_EN.pdf" xlink:title="speaker microphone receiver\nsennheiser ekp avx receiver\nautonomy: &gt;4h (BA20 battery)">
<polygon fill="none" stroke="black" points="326,-317 139,-317 139,-264 326,-264 326,-317"/>
<text text-anchor="middle" x="232.5" y="-301.8" font-family="Times,serif" font-size="14.00">speaker microphone receiver</text>
<text text-anchor="middle" x="232.5" y="-286.8" font-family="Times,serif" font-size="14.00">sennheiser ekp avx receiver</text>
<text text-anchor="middle" x="232.5" y="-271.8" font-family="Times,serif" font-size="14.00">autonomy: &gt;4h (BA20 battery)</text>
</a>
</g>
</g>
<!-- speaker_microphone&#45;&gt;speaker_microphone_receiver -->
<g id="edge1" class="edge"><title>speaker_microphone&#45;&gt;speaker_microphone_receiver</title>
<path fill="none" stroke="black" d="M160.683,-367.849C173.572,-354.147 188.484,-338.294 201.368,-324.597"/>
<polygon fill="black" stroke="black" points="203.989,-326.919 208.291,-317.237 198.89,-322.123 203.989,-326.919"/>
<text text-anchor="middle" x="238" y="-338.8" font-family="Times,serif" font-size="14.00">1.9 GHz wireless</text>
</g>
<!-- camera -->
<g id="node6" class="node"><title>camera</title>
<g id="a_node6"><a xlink:href="http://downloads.canon.com/cpr/software/video/Canon_XF100_XF105_Instruction_Manual.pdf" xlink:title="camera Canon XF100">
<polygon fill="none" stroke="black" points="301,-213 164,-213 164,-177 301,-177 301,-213"/>
<text text-anchor="middle" x="232.5" y="-191.3" font-family="Times,serif" font-size="14.00">camera Canon XF100</text>
</a>
</g>
</g>
<!-- speaker_microphone_receiver&#45;&gt;camera -->
<g id="edge3" class="edge"><title>speaker_microphone_receiver&#45;&gt;camera</title>
<path fill="none" stroke="black" d="M232.5,-263.951C232.5,-251.363 232.5,-236.173 232.5,-223.35"/>
<polygon fill="black" stroke="black" points="236,-223.245 232.5,-213.245 229,-223.245 236,-223.245"/>
<text text-anchor="middle" x="300.5" y="-234.8" font-family="Times,serif" font-size="14.00">direct xlr plug (no cable)</text>
</g>
<!-- speaker_microphone_receiver_charger -->
<g id="node3" class="node"><title>speaker_microphone_receiver_charger</title>
<polygon fill="none" stroke="black" points="396,-420 277,-420 277,-384 396,-384 396,-420"/>
<text text-anchor="middle" x="336.5" y="-398.3" font-family="Times,serif" font-size="14.00">USB power source</text>
</g>
<!-- speaker_microphone_receiver_charger&#45;&gt;speaker_microphone_receiver -->
<g id="edge2" class="edge"><title>speaker_microphone_receiver_charger&#45;&gt;speaker_microphone_receiver</title>
<path fill="none" stroke="black" d="M326.369,-383.943C317.604,-369.95 304.074,-350.064 289.5,-335 285.713,-331.086 281.556,-327.239 277.265,-323.551"/>
<polygon fill="black" stroke="black" points="279.391,-320.767 269.45,-317.103 274.936,-326.167 279.391,-320.767"/>
<text text-anchor="middle" x="379" y="-338.8" font-family="Times,serif" font-size="14.00">USB A &#45;&gt; micro USB cable</text>
</g>
<!-- speaker_laptop -->
<g id="node4" class="node"><title>speaker_laptop</title>
<polygon fill="none" stroke="black" points="605,-308.5 510,-308.5 510,-272.5 605,-272.5 605,-308.5"/>
<text text-anchor="middle" x="557.5" y="-286.8" font-family="Times,serif" font-size="14.00">speaker laptop</text>
</g>
<!-- speaker_laptop_optional_adapter -->
<g id="node5" class="node"><title>speaker_laptop_optional_adapter</title>
<polygon fill="none" stroke="black" stroke-dasharray="1,5" points="488,-213 319,-213 319,-177 488,-177 488,-213"/>
<text text-anchor="middle" x="403.5" y="-191.3" font-family="Times,serif" font-size="14.00">optional hdmi&#45;&gt;vga adapter</text>
</g>
<!-- speaker_laptop&#45;&gt;speaker_laptop_optional_adapter -->
<g id="edge6" class="edge"><title>speaker_laptop&#45;&gt;speaker_laptop_optional_adapter</title>
<path fill="none" stroke="black" stroke-dasharray="1,5" d="M529.254,-272.351C504.29,-257.194 467.71,-234.985 440.431,-218.423"/>
<polygon fill="black" stroke="black" points="441.931,-215.239 431.567,-213.041 438.298,-221.222 441.931,-215.239"/>
<text text-anchor="middle" x="533.5" y="-234.8" font-family="Times,serif" font-size="14.00">either hdmi cable</text>
</g>
<!-- speaker_box -->
<g id="node8" class="node"><title>speaker_box</title>
<g id="a_node8"><a xlink:href="https://github.com/FOSDEM/video" xlink:title="speaker box">
<polygon fill="lightgrey" stroke="black" points="445.5,-90 363.5,-90 363.5,-54 445.5,-54 445.5,-90"/>
<text text-anchor="middle" x="404.5" y="-68.3" font-family="Times,serif" font-size="14.00">speaker box</text>
</a>
</g>
</g>
<!-- speaker_laptop&#45;&gt;speaker_box -->
<g id="edge4" class="edge"><title>speaker_laptop&#45;&gt;speaker_box</title>
<path fill="none" stroke="black" stroke-dasharray="1,5" d="M585.406,-272.28C596.335,-263.885 607.641,-252.728 613.5,-239.5"/>
<path fill="none" stroke="black" stroke-dasharray="1,5" d="M613.5,-237.5C627.873,-205.051 558.393,-241.688 537.5,-213 528.08,-200.067 527.017,-189.087 537.5,-177 561.543,-149.278 704.956,-181.288 699.5,-145"/>
<path fill="none" stroke="black" stroke-dasharray="1,5" d="M699.5,-143C691.263,-94.5418 538.037,-79.532 455.756,-74.9575"/>
<polygon fill="black" stroke="black" points="455.775,-71.4538 445.605,-74.426 455.409,-78.4442 455.775,-71.4538"/>
<text text-anchor="middle" x="610" y="-191.3" font-family="Times,serif" font-size="14.00">or vga cable male &#45;&gt; male</text>
</g>
<!-- speaker_laptop&#45;&gt;speaker_box -->
<g id="edge5" class="edge"><title>speaker_laptop&#45;&gt;speaker_box</title>
<path fill="none" stroke="black" stroke-dasharray="1,5" d="M613.5,-237.5C629.004,-208.888 660.622,-237.091 682.5,-213 703.443,-189.938 704.721,-175.712 699.5,-145"/>
<text text-anchor="middle" x="795" y="-198.8" font-family="Times,serif" font-size="14.00">3.5mm &#45;&gt; 6.35mm trs male cable</text>
<text text-anchor="middle" x="795" y="-183.8" font-family="Times,serif" font-size="14.00">unbalanced stereo</text>
</g>
<!-- speaker_laptop_optional_adapter&#45;&gt;speaker_box -->
<g id="edge7" class="edge"><title>speaker_laptop_optional_adapter&#45;&gt;speaker_box</title>
<path fill="none" stroke="black" stroke-dasharray="1,5" d="M355.691,-176.901C348.437,-172.214 341.913,-166.335 337.5,-159 330.627,-147.575 330.356,-140.258 337.5,-129 341.974,-121.95 347.62,-125.732 354.5,-121 364.217,-114.318 373.821,-105.718 381.976,-97.647"/>
<polygon fill="black" stroke="black" points="384.523,-100.048 389.018,-90.4543 379.521,-95.1509 384.523,-100.048"/>
<text text-anchor="middle" x="402.5" y="-140.3" font-family="Times,serif" font-size="14.00">vga cable male &#45;&gt; male</text>
</g>
<!-- speaker_laptop_optional_adapter&#45;&gt;speaker_box -->
<g id="edge8" class="edge"><title>speaker_laptop_optional_adapter&#45;&gt;speaker_box</title>
<path fill="none" stroke="black" stroke-dasharray="1,5" d="M449.567,-176.872C456.727,-172.174 463.173,-166.299 467.5,-159 480.724,-136.695 460.605,-113.047 439.678,-96.2053"/>
<polygon fill="black" stroke="black" points="441.757,-93.3893 431.685,-90.101 437.508,-98.9523 441.757,-93.3893"/>
<text text-anchor="middle" x="566" y="-147.8" font-family="Times,serif" font-size="14.00">3.5mm &#45;&gt; 6.35mm trs male cable</text>
<text text-anchor="middle" x="566" y="-132.8" font-family="Times,serif" font-size="14.00">unbalanced stereo</text>
</g>
<!-- cam_box -->
<g id="node7" class="node"><title>cam_box</title>
<g id="a_node7"><a xlink:href="https://github.com/FOSDEM/video" xlink:title="camera box">
<polygon fill="lightgrey" stroke="black" points="345.5,-90 265.5,-90 265.5,-54 345.5,-54 345.5,-90"/>
<text text-anchor="middle" x="305.5" y="-68.3" font-family="Times,serif" font-size="14.00">camera box</text>
</a>
</g>
</g>
<!-- camera&#45;&gt;cam_box -->
<g id="edge9" class="edge"><title>camera&#45;&gt;cam_box</title>
<path fill="none" stroke="black" d="M241.1,-176.899C247.916,-163.634 257.865,-144.891 267.5,-129 273.594,-118.95 280.727,-108.204 287.157,-98.84"/>
<polygon fill="black" stroke="black" points="290.221,-100.564 293.05,-90.3536 284.472,-96.5714 290.221,-100.564"/>
<text text-anchor="middle" x="298" y="-140.3" font-family="Times,serif" font-size="14.00">hdmi cable</text>
</g>
</g>
</svg>
