<?xml version="1.0" encoding="UTF-8" standalone="no"?>
<!DOCTYPE svg PUBLIC "-//W3C//DTD SVG 1.1//EN"
 "http://www.w3.org/Graphics/SVG/1.1/DTD/svg11.dtd">
<!-- Generated by graphviz version 2.38.0 (20140413.2041)
 -->
<!-- Title: G Pages: 1 -->
<svg width="1348pt" height="705pt"
 viewBox="0.00 0.00 1348.00 705.00" xmlns="http://www.w3.org/2000/svg" xmlns:xlink="http://www.w3.org/1999/xlink">
<g id="graph0" class="graph" transform="scale(1 1) rotate(0) translate(4 701)">
<title>G</title>
<polygon fill="white" stroke="none" points="-4,4 -4,-701 1344,-701 1344,4 -4,4"/>
<text text-anchor="middle" x="670" y="-22.8" font-family="Times,serif" font-size="14.00">FOSDEM 2017 small rooms video cabling setup:</text>
<text text-anchor="middle" x="670" y="-7.8" font-family="Times,serif" font-size="14.00">aw1120, aw1121, aw1124, aw1125, aw1126, h2213, h2214, k3201, k3401, k4201, k4401, k4601</text>
<g id="clust1" class="cluster"><title>cluster_speaker_microphone_receiver</title>
<g id="a_clust1"><a xlink:href="https://en-us.sennheiser.com/global-downloads/file/6524/AVX_Manual_06_2015_EN.pdf" xlink:title="speaker microphone receiver\nsennheiser ekp avx receiver\nautonomy: &gt;4h (BA20 battery)">
<polygon fill="none" stroke="black" points="509,-481 509,-588 759,-588 759,-481 509,-481"/>
<text text-anchor="middle" x="634" y="-572.8" font-family="Times,serif" font-size="14.00">speaker microphone receiver</text>
<text text-anchor="middle" x="634" y="-557.8" font-family="Times,serif" font-size="14.00">sennheiser ekp avx receiver</text>
<text text-anchor="middle" x="634" y="-542.8" font-family="Times,serif" font-size="14.00">autonomy: &gt;4h (BA20 battery)</text>
</a>
</g>
</g>
<g id="clust2" class="cluster"><title>cluster_camera</title>
<g id="a_clust2"><a xlink:href="http://downloads.canon.com/cpr/software/video/Canon_XF100_XF105_Instruction_Manual.pdf" xlink:title="camera\nCanon XF100">
<polygon fill="none" stroke="black" points="8,-341 8,-433 631,-433 631,-341 8,-341"/>
<text text-anchor="middle" x="319.5" y="-417.8" font-family="Times,serif" font-size="14.00">camera</text>
<text text-anchor="middle" x="319.5" y="-402.8" font-family="Times,serif" font-size="14.00">Canon XF100</text>
</a>
</g>
</g>
<g id="clust4" class="cluster"><title>cluster_room</title>
<polygon fill="none" stroke="lightgrey" points="315,-147 315,-278 1028,-278 1028,-147 315,-147"/>
<text text-anchor="middle" x="671.5" y="-262.8" font-family="Times,serif" font-size="14.00">INGESTION</text>
</g>
<g id="clust5" class="cluster"><title>cluster_cam_box</title>
<g id="a_clust5"><a xlink:href="https://github.com/FOSDEM/video" xlink:title="camera box">
<polygon fill="none" stroke="lightgrey" points="323,-162.5 323,-239.5 503,-239.5 503,-162.5 323,-162.5"/>
<text text-anchor="middle" x="413" y="-224.3" font-family="Times,serif" font-size="14.00">camera box</text>
</a>
</g>
</g>
<g id="clust6" class="cluster"><title>cluster_speaker_box</title>
<g id="a_clust6"><a xlink:href="https://github.com/FOSDEM/video" xlink:title="speaker box">
<polygon fill="none" stroke="lightgrey" points="511,-155 511,-247 1020,-247 1020,-155 511,-155"/>
<text text-anchor="middle" x="765.5" y="-231.8" font-family="Times,serif" font-size="14.00">speaker box</text>
</a>
</g>
</g>
<!-- speaker_microphone -->
<g id="node1" class="node"><title>speaker_microphone</title>
<g id="a_node1"><a xlink:href="https://en-us.sennheiser.com/global-downloads/file/6524/AVX_Manual_06_2015_EN.pdf" xlink:title="speaker microphone\nsennheiser avx me2\nesk avx bodypack transmitter\nautonomy: 15h (BA30 battery)/11h (2x AA)">
<polygon fill="none" stroke="black" points="656.5,-697 397.5,-697 397.5,-629 656.5,-629 656.5,-697"/>
<text text-anchor="middle" x="527" y="-681.8" font-family="Times,serif" font-size="14.00">speaker microphone</text>
<text text-anchor="middle" x="527" y="-666.8" font-family="Times,serif" font-size="14.00">sennheiser avx me2</text>
<text text-anchor="middle" x="527" y="-651.8" font-family="Times,serif" font-size="14.00">esk avx bodypack transmitter</text>
<text text-anchor="middle" x="527" y="-636.8" font-family="Times,serif" font-size="14.00">autonomy: 15h (BA30 battery)/11h (2x AA)</text>
</a>
</g>
</g>
<!-- speaker_microphone_receiver_xlr_connector -->
<g id="node3" class="node"><title>speaker_microphone_receiver_xlr_connector</title>
<polygon fill="none" stroke="black" points="619,-526 517,-526 517,-490 619,-490 619,-526"/>
<text text-anchor="middle" x="568" y="-504.3" font-family="Times,serif" font-size="14.00">XLR male plug</text>
</g>
<!-- speaker_microphone&#45;&gt;speaker_microphone_receiver_xlr_connector -->
<g id="edge1" class="edge"><title>speaker_microphone&#45;&gt;speaker_microphone_receiver_xlr_connector</title>
<path fill="none" stroke="black" d="M535.896,-628.801C538.418,-619.392 541.289,-608.679 544.252,-597.619"/>
<polygon fill="black" stroke="black" points="547.667,-598.4 546.874,-587.834 540.905,-596.588 547.667,-598.4"/>
<text text-anchor="middle" x="591.5" y="-599.8" font-family="Times,serif" font-size="14.00">1.9 GHz wireless</text>
</g>
<!-- speaker_microphone_receiver_usb_power_connector -->
<g id="node2" class="node"><title>speaker_microphone_receiver_usb_power_connector</title>
<polygon fill="none" stroke="black" points="750.5,-527 637.5,-527 637.5,-489 750.5,-489 750.5,-527"/>
<text text-anchor="middle" x="694" y="-511.8" font-family="Times,serif" font-size="14.00">power input port</text>
<text text-anchor="middle" x="694" y="-496.8" font-family="Times,serif" font-size="14.00">micro usb female</text>
</g>
<!-- camera_xlr_in -->
<g id="node7" class="node"><title>camera_xlr_in</title>
<polygon fill="none" stroke="black" points="623,-387 513,-387 513,-349 623,-349 623,-387"/>
<text text-anchor="middle" x="568" y="-371.8" font-family="Times,serif" font-size="14.00">audio in CH1</text>
<text text-anchor="middle" x="568" y="-356.8" font-family="Times,serif" font-size="14.00">XLR female port</text>
</g>
<!-- speaker_microphone_receiver_xlr_connector&#45;&gt;camera_xlr_in -->
<g id="edge3" class="edge"><title>speaker_microphone_receiver_xlr_connector&#45;&gt;camera_xlr_in</title>
<path fill="none" stroke="black" d="M568,-489.801C568,-466.711 568,-425.382 568,-397.578"/>
<polygon fill="black" stroke="black" points="571.5,-397.295 568,-387.295 564.5,-397.295 571.5,-397.295"/>
<text text-anchor="middle" x="636" y="-452.3" font-family="Times,serif" font-size="14.00">direct xlr plug (no cable)</text>
</g>
<!-- speaker_microphone_receiver_charger -->
<g id="node4" class="node"><title>speaker_microphone_receiver_charger</title>
<polygon fill="none" stroke="black" points="793.5,-681 674.5,-681 674.5,-645 793.5,-645 793.5,-681"/>
<text text-anchor="middle" x="734" y="-659.3" font-family="Times,serif" font-size="14.00">USB power source</text>
</g>
<!-- speaker_microphone_receiver_charger&#45;&gt;speaker_microphone_receiver_usb_power_connector -->
<g id="edge2" class="edge"><title>speaker_microphone_receiver_charger&#45;&gt;speaker_microphone_receiver_usb_power_connector</title>
<path fill="none" stroke="black" d="M729.489,-644.746C722.661,-618.627 709.625,-568.765 701.395,-537.286"/>
<polygon fill="black" stroke="black" points="704.72,-536.166 698.804,-527.377 697.948,-537.937 704.72,-536.166"/>
<text text-anchor="middle" x="797.5" y="-599.8" font-family="Times,serif" font-size="14.00">USB A &#45;&gt; micro USB cable</text>
</g>
<!-- speaker_laptop -->
<g id="node5" class="node"><title>speaker_laptop</title>
<polygon fill="none" stroke="black" points="1002.5,-526 907.5,-526 907.5,-490 1002.5,-490 1002.5,-526"/>
<text text-anchor="middle" x="955" y="-504.3" font-family="Times,serif" font-size="14.00">speaker laptop</text>
</g>
<!-- speaker_laptop_optional_adapter -->
<g id="node6" class="node"><title>speaker_laptop_optional_adapter</title>
<polygon fill="none" stroke="black" stroke-dasharray="1,5" points="1271.5,-386 1102.5,-386 1102.5,-350 1271.5,-350 1271.5,-386"/>
<text text-anchor="middle" x="1187" y="-364.3" font-family="Times,serif" font-size="14.00">optional hdmi&#45;&gt;vga adapter</text>
</g>
<!-- speaker_laptop&#45;&gt;speaker_laptop_optional_adapter -->
<g id="edge6" class="edge"><title>speaker_laptop&#45;&gt;speaker_laptop_optional_adapter</title>
<path fill="none" stroke="black" stroke-dasharray="1,5" d="M987.047,-489.941C1014.2,-475.304 1054.02,-453.406 1088,-433 1109.96,-419.811 1134.12,-404.218 1153.07,-391.726"/>
<polygon fill="black" stroke="black" points="1155.24,-394.483 1161.65,-386.045 1151.38,-388.645 1155.24,-394.483"/>
<text text-anchor="middle" x="1108" y="-459.8" font-family="Times,serif" font-size="14.00">HDMI cable</text>
<text text-anchor="middle" x="1108" y="-444.8" font-family="Times,serif" font-size="14.00">male/male</text>
</g>
<!-- speaker_box_vga_in -->
<g id="node12" class="node"><title>speaker_box_vga_in</title>
<polygon fill="lightgrey" stroke="black" points="752.5,-216 659.5,-216 659.5,-163 752.5,-163 752.5,-216"/>
<text text-anchor="middle" x="706" y="-200.8" font-family="Times,serif" font-size="14.00">VGA in</text>
<text text-anchor="middle" x="706" y="-185.8" font-family="Times,serif" font-size="14.00">left VGA port</text>
<text text-anchor="middle" x="706" y="-170.8" font-family="Times,serif" font-size="14.00">female</text>
</g>
<!-- speaker_laptop&#45;&gt;speaker_box_vga_in -->
<g id="edge4" class="edge"><title>speaker_laptop&#45;&gt;speaker_box_vga_in</title>
<path fill="none" stroke="black" stroke-dasharray="1,5" d="M920.546,-489.919C903.583,-480.948 883.146,-469.28 866,-457"/>
<path fill="none" stroke="black" stroke-dasharray="1,5" d="M866,-455C849.44,-443.139 697.512,-448.243 684,-433 633.052,-375.522 665.505,-277.48 688.637,-225.406"/>
<polygon fill="black" stroke="black" points="691.854,-226.788 692.826,-216.238 685.487,-223.879 691.854,-226.788"/>
<text text-anchor="middle" x="758" y="-364.3" font-family="Times,serif" font-size="14.00">direct vga cable male/male</text>
</g>
<!-- speaker_box_audio_in -->
<g id="node14" class="node"><title>speaker_box_audio_in</title>
<polygon fill="lightgrey" stroke="black" points="1012,-216 890,-216 890,-163 1012,-163 1012,-216"/>
<text text-anchor="middle" x="951" y="-200.8" font-family="Times,serif" font-size="14.00">audio in</text>
<text text-anchor="middle" x="951" y="-185.8" font-family="Times,serif" font-size="14.00">left audio port</text>
<text text-anchor="middle" x="951" y="-170.8" font-family="Times,serif" font-size="14.00">6.35mm trs female</text>
</g>
<!-- speaker_laptop&#45;&gt;speaker_box_audio_in -->
<g id="edge5" class="edge"><title>speaker_laptop&#45;&gt;speaker_box_audio_in</title>
<path fill="none" stroke="black" stroke-dasharray="1,5" d="M866,-455C793.167,-400.093 874.318,-281.976 921.702,-223.995"/>
<polygon fill="black" stroke="black" points="924.456,-226.158 928.144,-216.226 919.067,-221.69 924.456,-226.158"/>
<text text-anchor="middle" x="956" y="-371.8" font-family="Times,serif" font-size="14.00">3.5mm male &#45;&gt; 6.35mm trs male cable</text>
<text text-anchor="middle" x="956" y="-356.8" font-family="Times,serif" font-size="14.00">unbalanced stereo</text>
</g>
<!-- speaker_laptop_optional_adapter&#45;&gt;speaker_box_vga_in -->
<g id="edge7" class="edge"><title>speaker_laptop_optional_adapter&#45;&gt;speaker_box_vga_in</title>
<path fill="none" stroke="black" stroke-dasharray="1,5" d="M1128.73,-349.945C1115.44,-346.545 1101.31,-343.314 1088,-341 942.182,-315.645 880.875,-364.808 761,-278 742.808,-264.826 729.257,-243.615 720.157,-225.375"/>
<polygon fill="black" stroke="black" points="723.242,-223.711 715.803,-216.167 716.914,-226.703 723.242,-223.711"/>
<text text-anchor="middle" x="942" y="-304.8" font-family="Times,serif" font-size="14.00">vga cable male/male</text>
</g>
<!-- speaker_laptop_optional_adapter&#45;&gt;speaker_box_audio_in -->
<g id="edge8" class="edge"><title>speaker_laptop_optional_adapter&#45;&gt;speaker_box_audio_in</title>
<path fill="none" stroke="black" stroke-dasharray="1,5" d="M1168.23,-349.916C1149.43,-333.065 1119.42,-306.875 1092,-286 1062.28,-263.376 1027.56,-239.826 1000.01,-221.772"/>
<polygon fill="black" stroke="black" points="1001.62,-218.643 991.328,-216.111 997.792,-224.506 1001.62,-218.643"/>
<text text-anchor="middle" x="1242" y="-312.3" font-family="Times,serif" font-size="14.00">3.5 &#45;&gt; 6.35mm trs male/male cable</text>
<text text-anchor="middle" x="1242" y="-297.3" font-family="Times,serif" font-size="14.00">unbalanced stereo</text>
</g>
<!-- camera_hdmi_out -->
<g id="node8" class="node"><title>camera_hdmi_out</title>
<polygon fill="none" stroke="black" points="495,-387 331,-387 331,-349 495,-349 495,-387"/>
<text text-anchor="middle" x="413" y="-371.8" font-family="Times,serif" font-size="14.00">HDMI out</text>
<text text-anchor="middle" x="413" y="-356.8" font-family="Times,serif" font-size="14.00">HDMI A (full size) female</text>
</g>
<!-- cam_box_hdmi_in -->
<g id="node11" class="node"><title>cam_box_hdmi_in</title>
<polygon fill="lightgrey" stroke="black" points="495,-208.5 331,-208.5 331,-170.5 495,-170.5 495,-208.5"/>
<text text-anchor="middle" x="413" y="-193.3" font-family="Times,serif" font-size="14.00">HDMI in</text>
<text text-anchor="middle" x="413" y="-178.3" font-family="Times,serif" font-size="14.00">HDMI A (full size) female</text>
</g>
<!-- camera_hdmi_out&#45;&gt;cam_box_hdmi_in -->
<g id="edge9" class="edge"><title>camera_hdmi_out&#45;&gt;cam_box_hdmi_in</title>
<path fill="none" stroke="black" d="M413,-348.776C413,-318.046 413,-255.697 413,-219.094"/>
<polygon fill="black" stroke="black" points="416.5,-218.625 413,-208.625 409.5,-218.625 416.5,-218.625"/>
<text text-anchor="middle" x="466.5" y="-319.8" font-family="Times,serif" font-size="14.00">HDMI cable</text>
<text text-anchor="middle" x="466.5" y="-304.8" font-family="Times,serif" font-size="14.00">HDMI A (full size)</text>
<text text-anchor="middle" x="466.5" y="-289.8" font-family="Times,serif" font-size="14.00">male/male</text>
</g>
<!-- camera_internal_mic -->
<g id="node9" class="node"><title>camera_internal_mic</title>
<polygon fill="none" stroke="black" points="312.5,-387 185.5,-387 185.5,-349 312.5,-349 312.5,-387"/>
<text text-anchor="middle" x="249" y="-371.8" font-family="Times,serif" font-size="14.00">audio in CH2</text>
<text text-anchor="middle" x="249" y="-356.8" font-family="Times,serif" font-size="14.00">internal microphone</text>
</g>
<!-- camera_audio_monitor -->
<g id="node10" class="node"><title>camera_audio_monitor</title>
<polygon fill="none" stroke="black" points="167.5,-387 16.5,-387 16.5,-349 167.5,-349 167.5,-387"/>
<text text-anchor="middle" x="92" y="-371.8" font-family="Times,serif" font-size="14.00">audio monitoring port</text>
<text text-anchor="middle" x="92" y="-356.8" font-family="Times,serif" font-size="14.00">3.5mm trs stereo female</text>
</g>
<!-- headphones -->
<g id="node17" class="node"><title>headphones</title>
<polygon fill="none" stroke="black" points="162,-208.5 22,-208.5 22,-170.5 162,-170.5 162,-208.5"/>
<text text-anchor="middle" x="92" y="-193.3" font-family="Times,serif" font-size="14.00">headphones</text>
<text text-anchor="middle" x="92" y="-178.3" font-family="Times,serif" font-size="14.00">3.5mm trs stereo male</text>
</g>
<!-- camera_audio_monitor&#45;&gt;headphones -->
<g id="edge11" class="edge"><title>camera_audio_monitor&#45;&gt;headphones</title>
<path fill="none" stroke="black" d="M92,-348.776C92,-318.046 92,-255.697 92,-219.094"/>
<polygon fill="black" stroke="black" points="95.5001,-218.625 92,-208.625 88.5001,-218.625 95.5001,-218.625"/>
</g>
<!-- speaker_box_vga_out -->
<g id="node13" class="node"><title>speaker_box_vga_out</title>
<polygon fill="lightgrey" stroke="black" points="871.5,-216 770.5,-216 770.5,-163 871.5,-163 871.5,-216"/>
<text text-anchor="middle" x="821" y="-200.8" font-family="Times,serif" font-size="14.00">VGA out</text>
<text text-anchor="middle" x="821" y="-185.8" font-family="Times,serif" font-size="14.00">right VGA port</text>
<text text-anchor="middle" x="821" y="-170.8" font-family="Times,serif" font-size="14.00">female</text>
</g>
<!-- room_projector -->
<g id="node16" class="node"><title>room_projector</title>
<polygon fill="none" stroke="black" points="856.5,-91 785.5,-91 785.5,-38 856.5,-38 856.5,-91"/>
<text text-anchor="middle" x="821" y="-75.8" font-family="Times,serif" font-size="14.00">VGA in</text>
<text text-anchor="middle" x="821" y="-60.8" font-family="Times,serif" font-size="14.00">VGA port</text>
<text text-anchor="middle" x="821" y="-45.8" font-family="Times,serif" font-size="14.00">female</text>
</g>
<!-- speaker_box_vga_out&#45;&gt;room_projector -->
<g id="edge10" class="edge"><title>speaker_box_vga_out&#45;&gt;room_projector</title>
<path fill="none" stroke="black" d="M821,-162.715C821,-144.921 821,-121.022 821,-101.373"/>
<polygon fill="black" stroke="black" points="824.5,-101.251 821,-91.2509 817.5,-101.251 824.5,-101.251"/>
<text text-anchor="middle" x="852" y="-127.8" font-family="Times,serif" font-size="14.00">VGA cable</text>
<text text-anchor="middle" x="852" y="-112.8" font-family="Times,serif" font-size="14.00">male/male</text>
</g>
<!-- speaker_box_audio_out -->
<g id="node15" class="node"><title>speaker_box_audio_out</title>
<polygon fill="lightgrey" stroke="black" points="641,-216 519,-216 519,-163 641,-163 641,-216"/>
<text text-anchor="middle" x="580" y="-200.8" font-family="Times,serif" font-size="14.00">audio out</text>
<text text-anchor="middle" x="580" y="-185.8" font-family="Times,serif" font-size="14.00">right audio port</text>
<text text-anchor="middle" x="580" y="-170.8" font-family="Times,serif" font-size="14.00">6.35mm trs female</text>
</g>
</g>
</svg>
