<?xml version="1.0" encoding="UTF-8" standalone="no"?>
<!DOCTYPE svg PUBLIC "-//W3C//DTD SVG 1.1//EN"
 "http://www.w3.org/Graphics/SVG/1.1/DTD/svg11.dtd">
<!-- Generated by graphviz version 2.38.0 (20140413.2041)
 -->
<!-- Title: G Pages: 1 -->
<svg width="1356pt" height="735pt"
 viewBox="0.00 0.00 1356.00 735.00" xmlns="http://www.w3.org/2000/svg" xmlns:xlink="http://www.w3.org/1999/xlink">
<g id="graph0" class="graph" transform="scale(1 1) rotate(0) translate(4 731)">
<title>G</title>
<polygon fill="white" stroke="none" points="-4,4 -4,-731 1352,-731 1352,4 -4,4"/>
<text text-anchor="middle" x="674" y="-22.8" font-family="Times,serif" font-size="14.00">FOSDEM 2017 small rooms video cabling setup:</text>
<text text-anchor="middle" x="674" y="-7.8" font-family="Times,serif" font-size="14.00">aw1120, aw1121, aw1124, aw1125, aw1126, h2213, h2214, k3201, k3401, k4201, k4401, k4601</text>
<g id="clust1" class="cluster"><title>cluster_speaker_microphone_receiver</title>
<g id="a_clust1"><a xlink:href="https://en-us.sennheiser.com/global-downloads/file/6524/AVX_Manual_06_2015_EN.pdf" xlink:title="speaker microphone receiver\nsennheiser ekp avx receiver\nautonomy: &gt;4h (BA20 battery)\nphantom auto power on">
<polygon fill="none" stroke="black" points="519,-496 519,-618 769,-618 769,-496 519,-496"/>
<text text-anchor="middle" x="644" y="-602.8" font-family="Times,serif" font-size="14.00">speaker microphone receiver</text>
<text text-anchor="middle" x="644" y="-587.8" font-family="Times,serif" font-size="14.00">sennheiser ekp avx receiver</text>
<text text-anchor="middle" x="644" y="-572.8" font-family="Times,serif" font-size="14.00">autonomy: &gt;4h (BA20 battery)</text>
<text text-anchor="middle" x="644" y="-557.8" font-family="Times,serif" font-size="14.00">phantom auto power on</text>
</a>
</g>
</g>
<g id="clust2" class="cluster"><title>cluster_camera</title>
<g id="a_clust2"><a xlink:href="http://downloads.canon.com/cpr/software/video/Canon_XF100_XF105_Instruction_Manual.pdf" xlink:title="camera\nCanon XF100">
<polygon fill="none" stroke="black" points="8,-341 8,-448 651,-448 651,-341 8,-341"/>
<text text-anchor="middle" x="329.5" y="-432.8" font-family="Times,serif" font-size="14.00">camera</text>
<text text-anchor="middle" x="329.5" y="-417.8" font-family="Times,serif" font-size="14.00">Canon XF100</text>
</a>
</g>
</g>
<g id="clust4" class="cluster"><title>cluster_room</title>
<polygon fill="none" stroke="lightgrey" points="315,-147 315,-278 1028,-278 1028,-147 315,-147"/>
<text text-anchor="middle" x="671.5" y="-262.8" font-family="Times,serif" font-size="14.00">INGESTION</text>
</g>
<g id="clust5" class="cluster"><title>cluster_cam_box</title>
<g id="a_clust5"><a xlink:href="https://github.com/FOSDEM/video" xlink:title="camera box">
<polygon fill="none" stroke="lightgrey" points="323,-162.5 323,-239.5 503,-239.5 503,-162.5 323,-162.5"/>
<text text-anchor="middle" x="413" y="-224.3" font-family="Times,serif" font-size="14.00">camera box</text>
</a>
</g>
</g>
<g id="clust6" class="cluster"><title>cluster_speaker_box</title>
<g id="a_clust6"><a xlink:href="https://github.com/FOSDEM/video" xlink:title="speaker box">
<polygon fill="none" stroke="lightgrey" points="511,-155 511,-247 1020,-247 1020,-155 511,-155"/>
<text text-anchor="middle" x="765.5" y="-231.8" font-family="Times,serif" font-size="14.00">speaker box</text>
</a>
</g>
</g>
<!-- speaker_microphone -->
<g id="node1" class="node"><title>speaker_microphone</title>
<g id="a_node1"><a xlink:href="https://en-us.sennheiser.com/global-downloads/file/6524/AVX_Manual_06_2015_EN.pdf" xlink:title="speaker microphone\nsennheiser avx me2\nesk avx bodypack transmitter\nautonomy: 15h (BA30 battery)/11h (2x AA)">
<polygon fill="none" stroke="black" points="666.5,-727 407.5,-727 407.5,-659 666.5,-659 666.5,-727"/>
<text text-anchor="middle" x="537" y="-711.8" font-family="Times,serif" font-size="14.00">speaker microphone</text>
<text text-anchor="middle" x="537" y="-696.8" font-family="Times,serif" font-size="14.00">sennheiser avx me2</text>
<text text-anchor="middle" x="537" y="-681.8" font-family="Times,serif" font-size="14.00">esk avx bodypack transmitter</text>
<text text-anchor="middle" x="537" y="-666.8" font-family="Times,serif" font-size="14.00">autonomy: 15h (BA30 battery)/11h (2x AA)</text>
</a>
</g>
</g>
<!-- speaker_microphone_receiver_xlr_connector -->
<g id="node3" class="node"><title>speaker_microphone_receiver_xlr_connector</title>
<polygon fill="none" stroke="black" points="629,-541 527,-541 527,-505 629,-505 629,-541"/>
<text text-anchor="middle" x="578" y="-519.3" font-family="Times,serif" font-size="14.00">XLR male plug</text>
</g>
<!-- speaker_microphone&#45;&gt;speaker_microphone_receiver_xlr_connector -->
<g id="edge1" class="edge"><title>speaker_microphone&#45;&gt;speaker_microphone_receiver_xlr_connector</title>
<path fill="none" stroke="black" d="M545.1,-658.809C547.377,-649.479 549.981,-638.809 552.705,-627.649"/>
<polygon fill="black" stroke="black" points="556.153,-628.282 555.124,-617.737 549.352,-626.622 556.153,-628.282"/>
<text text-anchor="middle" x="600.5" y="-629.8" font-family="Times,serif" font-size="14.00">1.9 GHz wireless</text>
</g>
<!-- speaker_microphone_receiver_usb_power_connector -->
<g id="node2" class="node"><title>speaker_microphone_receiver_usb_power_connector</title>
<polygon fill="none" stroke="black" points="760.5,-542 647.5,-542 647.5,-504 760.5,-504 760.5,-542"/>
<text text-anchor="middle" x="704" y="-526.8" font-family="Times,serif" font-size="14.00">power input port</text>
<text text-anchor="middle" x="704" y="-511.8" font-family="Times,serif" font-size="14.00">micro usb female</text>
</g>
<!-- camera_xlr_in -->
<g id="node7" class="node"><title>camera_xlr_in</title>
<polygon fill="none" stroke="black" points="642.5,-402 513.5,-402 513.5,-349 642.5,-349 642.5,-402"/>
<text text-anchor="middle" x="578" y="-386.8" font-family="Times,serif" font-size="14.00">audio in CH1</text>
<text text-anchor="middle" x="578" y="-371.8" font-family="Times,serif" font-size="14.00">XLR female port</text>
<text text-anchor="middle" x="578" y="-356.8" font-family="Times,serif" font-size="14.00">48V phantom power</text>
</g>
<!-- speaker_microphone_receiver_xlr_connector&#45;&gt;camera_xlr_in -->
<g id="edge3" class="edge"><title>speaker_microphone_receiver_xlr_connector&#45;&gt;camera_xlr_in</title>
<path fill="none" stroke="black" d="M578,-504.738C578,-482.077 578,-441.733 578,-412.333"/>
<polygon fill="black" stroke="black" points="581.5,-412.05 578,-402.05 574.5,-412.05 581.5,-412.05"/>
<text text-anchor="middle" x="646" y="-467.3" font-family="Times,serif" font-size="14.00">direct xlr plug (no cable)</text>
</g>
<!-- speaker_microphone_receiver_charger -->
<g id="node4" class="node"><title>speaker_microphone_receiver_charger</title>
<polygon fill="none" stroke="black" points="803.5,-711 684.5,-711 684.5,-675 803.5,-675 803.5,-711"/>
<text text-anchor="middle" x="744" y="-689.3" font-family="Times,serif" font-size="14.00">USB power source</text>
</g>
<!-- speaker_microphone_receiver_charger&#45;&gt;speaker_microphone_receiver_usb_power_connector -->
<g id="edge2" class="edge"><title>speaker_microphone_receiver_charger&#45;&gt;speaker_microphone_receiver_usb_power_connector</title>
<path fill="none" stroke="black" d="M739.944,-674.967C733.069,-646.088 719.058,-587.244 710.704,-552.159"/>
<polygon fill="black" stroke="black" points="714.029,-551.01 708.308,-542.092 707.219,-552.631 714.029,-551.01"/>
<text text-anchor="middle" x="809.5" y="-629.8" font-family="Times,serif" font-size="14.00">USB A &#45;&gt; micro USB cable</text>
</g>
<!-- speaker_laptop -->
<g id="node5" class="node"><title>speaker_laptop</title>
<polygon fill="none" stroke="black" points="1012.5,-541 917.5,-541 917.5,-505 1012.5,-505 1012.5,-541"/>
<text text-anchor="middle" x="965" y="-519.3" font-family="Times,serif" font-size="14.00">speaker laptop</text>
</g>
<!-- speaker_laptop_optional_adapter -->
<g id="node6" class="node"><title>speaker_laptop_optional_adapter</title>
<polygon fill="none" stroke="black" stroke-dasharray="1,5" points="1281.5,-393.5 1112.5,-393.5 1112.5,-357.5 1281.5,-357.5 1281.5,-393.5"/>
<text text-anchor="middle" x="1197" y="-371.8" font-family="Times,serif" font-size="14.00">optional hdmi&#45;&gt;vga adapter</text>
</g>
<!-- speaker_laptop&#45;&gt;speaker_laptop_optional_adapter -->
<g id="edge6" class="edge"><title>speaker_laptop&#45;&gt;speaker_laptop_optional_adapter</title>
<path fill="none" stroke="black" stroke-dasharray="1,5" d="M998.147,-504.955C1025.44,-490.59 1064.89,-469.063 1098,-448 1121.68,-432.932 1147.35,-414.324 1166.62,-399.868"/>
<polygon fill="black" stroke="black" points="1168.85,-402.568 1174.72,-393.749 1164.63,-396.982 1168.85,-402.568"/>
<text text-anchor="middle" x="1118" y="-474.8" font-family="Times,serif" font-size="14.00">HDMI cable</text>
<text text-anchor="middle" x="1118" y="-459.8" font-family="Times,serif" font-size="14.00">male/male</text>
</g>
<!-- speaker_box_vga_in -->
<g id="node12" class="node"><title>speaker_box_vga_in</title>
<polygon fill="lightgrey" stroke="black" points="752.5,-216 659.5,-216 659.5,-163 752.5,-163 752.5,-216"/>
<text text-anchor="middle" x="706" y="-200.8" font-family="Times,serif" font-size="14.00">VGA in</text>
<text text-anchor="middle" x="706" y="-185.8" font-family="Times,serif" font-size="14.00">left VGA port</text>
<text text-anchor="middle" x="706" y="-170.8" font-family="Times,serif" font-size="14.00">female</text>
</g>
<!-- speaker_laptop&#45;&gt;speaker_box_vga_in -->
<g id="edge4" class="edge"><title>speaker_laptop&#45;&gt;speaker_box_vga_in</title>
<path fill="none" stroke="black" stroke-dasharray="1,5" d="M929.912,-504.973C912.985,-496.099 892.766,-484.5 876,-472"/>
<path fill="none" stroke="black" stroke-dasharray="1,5" d="M876,-470C859.493,-457.693 705.668,-463.399 692,-448 637.33,-386.404 668.458,-280.371 690.308,-225.568"/>
<polygon fill="black" stroke="black" points="693.564,-226.852 694.123,-216.272 687.088,-224.194 693.564,-226.852"/>
<text text-anchor="middle" x="766" y="-371.8" font-family="Times,serif" font-size="14.00">direct vga cable male/male</text>
</g>
<!-- speaker_box_audio_in -->
<g id="node14" class="node"><title>speaker_box_audio_in</title>
<polygon fill="lightgrey" stroke="black" points="1012,-216 890,-216 890,-163 1012,-163 1012,-216"/>
<text text-anchor="middle" x="951" y="-200.8" font-family="Times,serif" font-size="14.00">audio in</text>
<text text-anchor="middle" x="951" y="-185.8" font-family="Times,serif" font-size="14.00">left audio port</text>
<text text-anchor="middle" x="951" y="-170.8" font-family="Times,serif" font-size="14.00">6.35mm trs female</text>
</g>
<!-- speaker_laptop&#45;&gt;speaker_box_audio_in -->
<g id="edge5" class="edge"><title>speaker_laptop&#45;&gt;speaker_box_audio_in</title>
<path fill="none" stroke="black" stroke-dasharray="1,5" d="M876,-470C800.754,-410.823 879.065,-284.902 924.035,-224.373"/>
<polygon fill="black" stroke="black" points="926.912,-226.371 930.14,-216.28 921.324,-222.155 926.912,-226.371"/>
<text text-anchor="middle" x="965" y="-379.3" font-family="Times,serif" font-size="14.00">3.5mm male &#45;&gt; 6.35mm trs male cable</text>
<text text-anchor="middle" x="965" y="-364.3" font-family="Times,serif" font-size="14.00">unbalanced stereo</text>
</g>
<!-- speaker_laptop_optional_adapter&#45;&gt;speaker_box_vga_in -->
<g id="edge7" class="edge"><title>speaker_laptop_optional_adapter&#45;&gt;speaker_box_vga_in</title>
<path fill="none" stroke="black" stroke-dasharray="1,5" d="M1153.76,-357.369C1136.65,-351.253 1116.65,-344.914 1098,-341 1048.22,-330.552 1034.21,-339.124 984,-331 883.436,-314.728 843.823,-337.314 761,-278 742.739,-264.922 729.186,-243.713 720.103,-225.451"/>
<polygon fill="black" stroke="black" points="723.187,-223.784 715.759,-216.228 716.854,-226.766 723.187,-223.784"/>
<text text-anchor="middle" x="1041" y="-304.8" font-family="Times,serif" font-size="14.00">vga cable male/male</text>
</g>
<!-- speaker_laptop_optional_adapter&#45;&gt;speaker_box_audio_in -->
<g id="edge8" class="edge"><title>speaker_laptop_optional_adapter&#45;&gt;speaker_box_audio_in</title>
<path fill="none" stroke="black" stroke-dasharray="1,5" d="M1180.35,-357.173C1162.03,-338.547 1131.27,-308.576 1102,-286 1071.28,-262.309 1034.54,-238.974 1004.99,-221.3"/>
<polygon fill="black" stroke="black" points="1006.45,-218.097 996.066,-216.003 1002.88,-224.117 1006.45,-218.097"/>
<text text-anchor="middle" x="1250" y="-312.3" font-family="Times,serif" font-size="14.00">3.5 &#45;&gt; 6.35mm trs male/male cable</text>
<text text-anchor="middle" x="1250" y="-297.3" font-family="Times,serif" font-size="14.00">unbalanced stereo</text>
</g>
<!-- camera_hdmi_out -->
<g id="node8" class="node"><title>camera_hdmi_out</title>
<polygon fill="none" stroke="black" points="495,-394.5 331,-394.5 331,-356.5 495,-356.5 495,-394.5"/>
<text text-anchor="middle" x="413" y="-379.3" font-family="Times,serif" font-size="14.00">HDMI out</text>
<text text-anchor="middle" x="413" y="-364.3" font-family="Times,serif" font-size="14.00">HDMI A (full size) female</text>
</g>
<!-- cam_box_hdmi_in -->
<g id="node11" class="node"><title>cam_box_hdmi_in</title>
<polygon fill="lightgrey" stroke="black" points="495,-208.5 331,-208.5 331,-170.5 495,-170.5 495,-208.5"/>
<text text-anchor="middle" x="413" y="-193.3" font-family="Times,serif" font-size="14.00">HDMI in</text>
<text text-anchor="middle" x="413" y="-178.3" font-family="Times,serif" font-size="14.00">HDMI A (full size) female</text>
</g>
<!-- camera_hdmi_out&#45;&gt;cam_box_hdmi_in -->
<g id="edge9" class="edge"><title>camera_hdmi_out&#45;&gt;cam_box_hdmi_in</title>
<path fill="none" stroke="black" d="M413,-356.185C413,-324.084 413,-257.445 413,-219.182"/>
<polygon fill="black" stroke="black" points="416.5,-218.741 413,-208.741 409.5,-218.741 416.5,-218.741"/>
<text text-anchor="middle" x="466.5" y="-319.8" font-family="Times,serif" font-size="14.00">HDMI cable</text>
<text text-anchor="middle" x="466.5" y="-304.8" font-family="Times,serif" font-size="14.00">HDMI A (full size)</text>
<text text-anchor="middle" x="466.5" y="-289.8" font-family="Times,serif" font-size="14.00">male/male</text>
</g>
<!-- camera_internal_mic -->
<g id="node9" class="node"><title>camera_internal_mic</title>
<polygon fill="none" stroke="black" points="312.5,-394.5 185.5,-394.5 185.5,-356.5 312.5,-356.5 312.5,-394.5"/>
<text text-anchor="middle" x="249" y="-379.3" font-family="Times,serif" font-size="14.00">audio in CH2</text>
<text text-anchor="middle" x="249" y="-364.3" font-family="Times,serif" font-size="14.00">internal microphone</text>
</g>
<!-- camera_audio_monitor -->
<g id="node10" class="node"><title>camera_audio_monitor</title>
<polygon fill="none" stroke="black" points="167.5,-394.5 16.5,-394.5 16.5,-356.5 167.5,-356.5 167.5,-394.5"/>
<text text-anchor="middle" x="92" y="-379.3" font-family="Times,serif" font-size="14.00">audio monitoring port</text>
<text text-anchor="middle" x="92" y="-364.3" font-family="Times,serif" font-size="14.00">3.5mm trs stereo female</text>
</g>
<!-- headphones -->
<g id="node17" class="node"><title>headphones</title>
<polygon fill="none" stroke="black" points="162,-208.5 22,-208.5 22,-170.5 162,-170.5 162,-208.5"/>
<text text-anchor="middle" x="92" y="-193.3" font-family="Times,serif" font-size="14.00">headphones</text>
<text text-anchor="middle" x="92" y="-178.3" font-family="Times,serif" font-size="14.00">3.5mm trs stereo male</text>
</g>
<!-- camera_audio_monitor&#45;&gt;headphones -->
<g id="edge11" class="edge"><title>camera_audio_monitor&#45;&gt;headphones</title>
<path fill="none" stroke="black" d="M92,-356.185C92,-324.084 92,-257.445 92,-219.182"/>
<polygon fill="black" stroke="black" points="95.5001,-218.741 92,-208.741 88.5001,-218.741 95.5001,-218.741"/>
</g>
<!-- speaker_box_vga_out -->
<g id="node13" class="node"><title>speaker_box_vga_out</title>
<polygon fill="lightgrey" stroke="black" points="871.5,-216 770.5,-216 770.5,-163 871.5,-163 871.5,-216"/>
<text text-anchor="middle" x="821" y="-200.8" font-family="Times,serif" font-size="14.00">VGA out</text>
<text text-anchor="middle" x="821" y="-185.8" font-family="Times,serif" font-size="14.00">right VGA port</text>
<text text-anchor="middle" x="821" y="-170.8" font-family="Times,serif" font-size="14.00">female</text>
</g>
<!-- room_projector -->
<g id="node16" class="node"><title>room_projector</title>
<polygon fill="none" stroke="black" points="856.5,-91 785.5,-91 785.5,-38 856.5,-38 856.5,-91"/>
<text text-anchor="middle" x="821" y="-75.8" font-family="Times,serif" font-size="14.00">VGA in</text>
<text text-anchor="middle" x="821" y="-60.8" font-family="Times,serif" font-size="14.00">VGA port</text>
<text text-anchor="middle" x="821" y="-45.8" font-family="Times,serif" font-size="14.00">female</text>
</g>
<!-- speaker_box_vga_out&#45;&gt;room_projector -->
<g id="edge10" class="edge"><title>speaker_box_vga_out&#45;&gt;room_projector</title>
<path fill="none" stroke="black" d="M821,-162.715C821,-144.921 821,-121.022 821,-101.373"/>
<polygon fill="black" stroke="black" points="824.5,-101.251 821,-91.2509 817.5,-101.251 824.5,-101.251"/>
<text text-anchor="middle" x="852" y="-127.8" font-family="Times,serif" font-size="14.00">VGA cable</text>
<text text-anchor="middle" x="852" y="-112.8" font-family="Times,serif" font-size="14.00">male/male</text>
</g>
<!-- speaker_box_audio_out -->
<g id="node15" class="node"><title>speaker_box_audio_out</title>
<polygon fill="lightgrey" stroke="black" points="641,-216 519,-216 519,-163 641,-163 641,-216"/>
<text text-anchor="middle" x="580" y="-200.8" font-family="Times,serif" font-size="14.00">audio out</text>
<text text-anchor="middle" x="580" y="-185.8" font-family="Times,serif" font-size="14.00">right audio port</text>
<text text-anchor="middle" x="580" y="-170.8" font-family="Times,serif" font-size="14.00">6.35mm trs female</text>
</g>
</g>
</svg>
