<?xml version="1.0" encoding="UTF-8" standalone="no"?>
<!DOCTYPE svg PUBLIC "-//W3C//DTD SVG 1.1//EN"
 "http://www.w3.org/Graphics/SVG/1.1/DTD/svg11.dtd">
<!-- Generated by graphviz version 9.0.0 (0)
 -->
<!-- Title: G Pages: 1 -->
<svg width="1568pt" height="942pt"
 viewBox="0.00 0.00 1568.00 941.75" xmlns="http://www.w3.org/2000/svg" xmlns:xlink="http://www.w3.org/1999/xlink">
<g id="graph0" class="graph" transform="scale(1 1) rotate(0) translate(4 937.75)">
<title>G</title>
<polygon fill="white" stroke="none" points="-4,4 -4,-937.75 1564,-937.75 1564,4 -4,4"/>
<text text-anchor="middle" x="780" y="-23.7" font-family="Times,serif" font-size="14.00">FOSDEM 2024 xxl rooms video cabling setup:</text>
<text text-anchor="middle" x="780" y="-7.2" font-family="Times,serif" font-size="14.00">janson, k1105</text>
<g id="clust1" class="cluster">
<title>cluster_microphone_receivers</title>
<polygon fill="none" stroke="black" points="8,-612.75 8,-800.75 766,-800.75 766,-612.75 8,-612.75"/>
<text text-anchor="middle" x="387" y="-783.45" font-family="Times,serif" font-size="14.00">ULB provided</text>
<text text-anchor="middle" x="387" y="-766.95" font-family="Times,serif" font-size="14.00">Sennheiser G3 series</text>
<text text-anchor="middle" x="387" y="-750.45" font-family="Times,serif" font-size="14.00">autonomy: ?</text>
<text text-anchor="middle" x="387" y="-733.95" font-family="Times,serif" font-size="14.00">?AC powered EM{1,3}00?</text>
<text text-anchor="middle" x="387" y="-717.45" font-family="Times,serif" font-size="14.00">?DC: ?xAA batteries</text>
</g>
<g id="clust2" class="cluster">
<title>cluster_speaker_microphone_receiver</title>
<g id="a_clust2"><a xlink:href="https://en-us.sennheiser.com/global-downloads/file/671/Set100PG3_US_INT.pdf" xlink:title="speaker microphone receiver">
<polygon fill="none" stroke="black" points="16,-620.75 16,-702.25 258,-702.25 258,-620.75 16,-620.75"/>
<text text-anchor="middle" x="137" y="-684.95" font-family="Times,serif" font-size="14.00">speaker microphone receiver</text>
</a>
</g>
</g>
<g id="clust3" class="cluster">
<title>cluster_audience_microphone_1_receiver</title>
<g id="a_clust3"><a xlink:href="https://en-us.sennheiser.com/global-downloads/file/671/Set100PG3_US_INT.pdf" xlink:title="audience microphone receiver">
<polygon fill="none" stroke="black" points="266,-620.75 266,-702.25 508,-702.25 508,-620.75 266,-620.75"/>
<text text-anchor="middle" x="387" y="-684.95" font-family="Times,serif" font-size="14.00">audience microphone receiver</text>
</a>
</g>
</g>
<g id="clust4" class="cluster">
<title>cluster_audience_microphone_2_receiver</title>
<g id="a_clust4"><a xlink:href="https://en-us.sennheiser.com/global-downloads/file/671/Set100PG3_US_INT.pdf" xlink:title="audience microphone receiver">
<polygon fill="none" stroke="black" points="516,-620.75 516,-702.25 758,-702.25 758,-620.75 516,-620.75"/>
<text text-anchor="middle" x="637" y="-684.95" font-family="Times,serif" font-size="14.00">audience microphone receiver</text>
</a>
</g>
</g>
<g id="clust5" class="cluster">
<title>cluster_camera</title>
<g id="a_clust5"><a xlink:href="https://pro.sony.com/bbsccms/assets/files/micro/nxcam/latest/Sony_HXR-NX100.pdf" xlink:title="camera\nSony HXR&#45;NX100">
<polygon fill="none" stroke="black" points="24,-300.25 24,-414.75 933,-414.75 933,-300.25 24,-300.25"/>
<text text-anchor="middle" x="478.5" y="-397.45" font-family="Times,serif" font-size="14.00">camera</text>
<text text-anchor="middle" x="478.5" y="-380.95" font-family="Times,serif" font-size="14.00">Sony HXR&#45;NX100</text>
</a>
</g>
</g>
<g id="clust7" class="cluster">
<title>cluster_cam_box</title>
<g id="a_clust7"><a xlink:href="https://github.com/FOSDEM/video" xlink:title="camera box">
<polygon fill="none" stroke="lightgrey" points="720,-151.25 720,-232.75 1120,-232.75 1120,-151.25 720,-151.25"/>
<text text-anchor="middle" x="920" y="-215.45" font-family="Times,serif" font-size="14.00">camera box</text>
</a>
</g>
</g>
<g id="clust8" class="cluster">
<title>cluster_speaker_box</title>
<g id="a_clust8"><a xlink:href="https://github.com/FOSDEM/video" xlink:title="speaker box">
<polygon fill="none" stroke="lightgrey" points="1012,-300.25 1012,-398.25 1476,-398.25 1476,-300.25 1012,-300.25"/>
<text text-anchor="middle" x="1244" y="-380.95" font-family="Times,serif" font-size="14.00">speaker box</text>
</a>
</g>
</g>
<g id="clust9" class="cluster">
<title>cluster_mix_panel</title>
<polygon fill="none" stroke="black" points="12,-465.75 12,-580.25 860,-580.25 860,-465.75 12,-465.75"/>
<text text-anchor="middle" x="436" y="-562.95" font-family="Times,serif" font-size="14.00">audio mix panel</text>
<text text-anchor="middle" x="436" y="-546.45" font-family="Times,serif" font-size="14.00">?ULB provided</text>
</g>
<!-- speaker_microphone -->
<g id="node1" class="node">
<title>speaker_microphone</title>
<g id="a_node1"><a xlink:href="https://en-us.sennheiser.com/global-downloads/file/671/Set100PG3_US_INT.pdf" xlink:title="speaker microphone\nULB provided\nSennheiser G3 series\n G3 bodypack transmitter\nautonomy: ?h (2x AA)">
<polygon fill="none" stroke="black" points="214.75,-933.75 59.25,-933.75 59.25,-843.25 214.75,-843.25 214.75,-933.75"/>
<text text-anchor="middle" x="137" y="-916.45" font-family="Times,serif" font-size="14.00">speaker microphone</text>
<text text-anchor="middle" x="137" y="-899.95" font-family="Times,serif" font-size="14.00">ULB provided</text>
<text text-anchor="middle" x="137" y="-883.45" font-family="Times,serif" font-size="14.00">Sennheiser G3 series</text>
<text text-anchor="middle" x="137" y="-866.95" font-family="Times,serif" font-size="14.00"> G3 bodypack transmitter</text>
<text text-anchor="middle" x="137" y="-850.45" font-family="Times,serif" font-size="14.00">autonomy: ?h (2x AA)</text>
</a>
</g>
</g>
<!-- speaker_microphone_receiver_audio_out -->
<g id="node4" class="node">
<title>speaker_microphone_receiver_audio_out</title>
<polygon fill="none" stroke="black" points="250.38,-669.75 23.62,-669.75 23.62,-628.75 250.38,-628.75 250.38,-669.75"/>
<text text-anchor="middle" x="137" y="-652.45" font-family="Times,serif" font-size="14.00">audio out</text>
<text text-anchor="middle" x="137" y="-635.95" font-family="Times,serif" font-size="14.00">3.5mm trs ?unbalanced ?mono female</text>
</g>
<!-- speaker_microphone&#45;&gt;speaker_microphone_receiver_audio_out -->
<g id="edge1" class="edge">
<title>speaker_microphone&#45;&gt;speaker_microphone_receiver_audio_out</title>
<path fill="none" stroke="black" stroke-dasharray="5,2" d="M137,-842.88C137,-806.43 137,-754.47 137,-713.7"/>
<polygon fill="black" stroke="black" points="140.5,-713.76 137,-703.76 133.5,-713.76 140.5,-713.76"/>
<text text-anchor="middle" x="213.5" y="-811.95" font-family="Times,serif" font-size="14.00">+&#45;600 MHz analog wireless</text>
</g>
<!-- audience_microphone_1 -->
<g id="node2" class="node">
<title>audience_microphone_1</title>
<g id="a_node2"><a xlink:href="https://en-us.sennheiser.com/global-downloads/file/671/Set100PG3_US_INT.pdf" xlink:title="audience microphone\nULB provided\nSennheiser G3 series\nautonomy: ?h\nDC: ?xAA batteries">
<polygon fill="none" stroke="black" points="453.5,-933.75 320.5,-933.75 320.5,-843.25 453.5,-843.25 453.5,-933.75"/>
<text text-anchor="middle" x="387" y="-916.45" font-family="Times,serif" font-size="14.00">audience microphone</text>
<text text-anchor="middle" x="387" y="-899.95" font-family="Times,serif" font-size="14.00">ULB provided</text>
<text text-anchor="middle" x="387" y="-883.45" font-family="Times,serif" font-size="14.00">Sennheiser G3 series</text>
<text text-anchor="middle" x="387" y="-866.95" font-family="Times,serif" font-size="14.00">autonomy: ?h</text>
<text text-anchor="middle" x="387" y="-850.45" font-family="Times,serif" font-size="14.00">DC: ?xAA batteries</text>
</a>
</g>
</g>
<!-- audience_microphone_1_receiver_audio_out -->
<g id="node5" class="node">
<title>audience_microphone_1_receiver_audio_out</title>
<polygon fill="none" stroke="black" points="500.38,-669.75 273.62,-669.75 273.62,-628.75 500.38,-628.75 500.38,-669.75"/>
<text text-anchor="middle" x="387" y="-652.45" font-family="Times,serif" font-size="14.00">audio out</text>
<text text-anchor="middle" x="387" y="-635.95" font-family="Times,serif" font-size="14.00">3.5mm trs ?unbalanced ?mono female</text>
</g>
<!-- audience_microphone_1&#45;&gt;audience_microphone_1_receiver_audio_out -->
<g id="edge2" class="edge">
<title>audience_microphone_1&#45;&gt;audience_microphone_1_receiver_audio_out</title>
<path fill="none" stroke="black" stroke-dasharray="5,2" d="M387,-842.88C387,-806.43 387,-754.47 387,-713.7"/>
<polygon fill="black" stroke="black" points="390.5,-713.76 387,-703.76 383.5,-713.76 390.5,-713.76"/>
<text text-anchor="middle" x="463.5" y="-811.95" font-family="Times,serif" font-size="14.00">+&#45;600 MHz analog wireless</text>
</g>
<!-- audience_microphone_2 -->
<g id="node3" class="node">
<title>audience_microphone_2</title>
<g id="a_node3"><a xlink:href="https://en-us.sennheiser.com/global-downloads/file/671/Set100PG3_US_INT.pdf" xlink:title="audience microphone\nULB provided\nSennheiser G3 series\nautonomy: ?h\nDC: ?xAA batteries">
<polygon fill="none" stroke="black" points="703.5,-933.75 570.5,-933.75 570.5,-843.25 703.5,-843.25 703.5,-933.75"/>
<text text-anchor="middle" x="637" y="-916.45" font-family="Times,serif" font-size="14.00">audience microphone</text>
<text text-anchor="middle" x="637" y="-899.95" font-family="Times,serif" font-size="14.00">ULB provided</text>
<text text-anchor="middle" x="637" y="-883.45" font-family="Times,serif" font-size="14.00">Sennheiser G3 series</text>
<text text-anchor="middle" x="637" y="-866.95" font-family="Times,serif" font-size="14.00">autonomy: ?h</text>
<text text-anchor="middle" x="637" y="-850.45" font-family="Times,serif" font-size="14.00">DC: ?xAA batteries</text>
</a>
</g>
</g>
<!-- audience_microphone_2_receiver_audio_out -->
<g id="node6" class="node">
<title>audience_microphone_2_receiver_audio_out</title>
<polygon fill="none" stroke="black" points="750.38,-669.75 523.62,-669.75 523.62,-628.75 750.38,-628.75 750.38,-669.75"/>
<text text-anchor="middle" x="637" y="-652.45" font-family="Times,serif" font-size="14.00">audio out</text>
<text text-anchor="middle" x="637" y="-635.95" font-family="Times,serif" font-size="14.00">3.5mm trs ?unbalanced ?mono female</text>
</g>
<!-- audience_microphone_2&#45;&gt;audience_microphone_2_receiver_audio_out -->
<g id="edge3" class="edge">
<title>audience_microphone_2&#45;&gt;audience_microphone_2_receiver_audio_out</title>
<path fill="none" stroke="black" stroke-dasharray="5,2" d="M637,-842.88C637,-806.43 637,-754.47 637,-713.7"/>
<polygon fill="black" stroke="black" points="640.5,-713.76 637,-703.76 633.5,-713.76 640.5,-713.76"/>
<text text-anchor="middle" x="713.5" y="-811.95" font-family="Times,serif" font-size="14.00">+&#45;600 MHz analog wireless</text>
</g>
<!-- mix_panel_mic_1_in -->
<g id="node22" class="node">
<title>mix_panel_mic_1_in</title>
<polygon fill="none" stroke="black" points="156,-531.25 20,-531.25 20,-473.75 156,-473.75 156,-531.25"/>
<text text-anchor="middle" x="88" y="-513.95" font-family="Times,serif" font-size="14.00">mic 1 in</text>
<text text-anchor="middle" x="88" y="-497.45" font-family="Times,serif" font-size="14.00">XLR female port</text>
<text text-anchor="middle" x="88" y="-480.95" font-family="Times,serif" font-size="14.00">+48V phantom power</text>
</g>
<!-- speaker_microphone_receiver_audio_out&#45;&gt;mix_panel_mic_1_in -->
<g id="edge4" class="edge">
<title>speaker_microphone_receiver_audio_out&#45;&gt;mix_panel_mic_1_in</title>
<path fill="none" stroke="black" d="M116.78,-628.63C110.75,-621.66 104.75,-613.38 101,-604.75 92.64,-585.5 89.24,-562.39 87.99,-543.12"/>
<polygon fill="black" stroke="black" points="91.49,-543.02 87.53,-533.19 84.49,-543.34 91.49,-543.02"/>
<text text-anchor="middle" x="233" y="-591.45" font-family="Times,serif" font-size="14.00">3.5mm trs mono unbalanced male to XLR male</text>
</g>
<!-- mix_panel_mic_2_in -->
<g id="node23" class="node">
<title>mix_panel_mic_2_in</title>
<polygon fill="none" stroke="black" points="626,-531.25 490,-531.25 490,-473.75 626,-473.75 626,-531.25"/>
<text text-anchor="middle" x="558" y="-513.95" font-family="Times,serif" font-size="14.00">mic 2 in</text>
<text text-anchor="middle" x="558" y="-497.45" font-family="Times,serif" font-size="14.00">XLR female port</text>
<text text-anchor="middle" x="558" y="-480.95" font-family="Times,serif" font-size="14.00">+48V phantom power</text>
</g>
<!-- audience_microphone_1_receiver_audio_out&#45;&gt;mix_panel_mic_2_in -->
<g id="edge5" class="edge">
<title>audience_microphone_1_receiver_audio_out&#45;&gt;mix_panel_mic_2_in</title>
<path fill="none" stroke="black" d="M383.14,-628.53C381.78,-615.3 382.66,-598.49 393,-588.25 406.95,-574.43 463.21,-588.56 481,-580.25 500.3,-571.23 517.54,-555.25 530.8,-540.2"/>
<polygon fill="black" stroke="black" points="533.38,-542.56 537.15,-532.66 528.03,-538.05 533.38,-542.56"/>
<text text-anchor="middle" x="525" y="-591.45" font-family="Times,serif" font-size="14.00">3.5mm trs mono unbalanced male to XLR male</text>
</g>
<!-- mix_panel_mic_3_in -->
<g id="node24" class="node">
<title>mix_panel_mic_3_in</title>
<polygon fill="none" stroke="black" points="780,-531.25 644,-531.25 644,-473.75 780,-473.75 780,-531.25"/>
<text text-anchor="middle" x="712" y="-513.95" font-family="Times,serif" font-size="14.00">mic 3 in</text>
<text text-anchor="middle" x="712" y="-497.45" font-family="Times,serif" font-size="14.00">XLR female port</text>
<text text-anchor="middle" x="712" y="-480.95" font-family="Times,serif" font-size="14.00">+48V phantom power</text>
</g>
<!-- audience_microphone_2_receiver_audio_out&#45;&gt;mix_panel_mic_3_in -->
<g id="edge6" class="edge">
<title>audience_microphone_2_receiver_audio_out&#45;&gt;mix_panel_mic_3_in</title>
<path fill="none" stroke="black" d="M647.27,-628.43C658.8,-606.18 677.77,-569.57 692.2,-541.71"/>
<polygon fill="black" stroke="black" points="695.3,-543.35 696.79,-532.86 689.08,-540.13 695.3,-543.35"/>
<text text-anchor="middle" x="799" y="-591.45" font-family="Times,serif" font-size="14.00">3.5mm trs mono unbalanced male to XLR male</text>
</g>
<!-- room_projector_optional_adapter -->
<g id="node7" class="node">
<title>room_projector_optional_adapter</title>
<polygon fill="none" stroke="black" stroke-dasharray="1,5" points="1448.12,-197.75 1279.88,-197.75 1279.88,-161.75 1448.12,-161.75 1448.12,-197.75"/>
<text text-anchor="middle" x="1364" y="-174.7" font-family="Times,serif" font-size="14.00">optional vga&#45;&gt;hdmi adapter</text>
</g>
<!-- room_projector -->
<g id="node30" class="node">
<title>room_projector</title>
<polygon fill="none" stroke="black" points="1500.25,-98.5 1347.75,-98.5 1347.75,-41 1500.25,-41 1500.25,-98.5"/>
<text text-anchor="middle" x="1424" y="-81.2" font-family="Times,serif" font-size="14.00">room projector HDMI in</text>
<text text-anchor="middle" x="1424" y="-64.7" font-family="Times,serif" font-size="14.00">HDMI port</text>
<text text-anchor="middle" x="1424" y="-48.2" font-family="Times,serif" font-size="14.00">female</text>
</g>
<!-- room_projector_optional_adapter&#45;&gt;room_projector -->
<g id="edge11" class="edge">
<title>room_projector_optional_adapter&#45;&gt;room_projector</title>
<path fill="none" stroke="black" stroke-dasharray="1,5" d="M1354.96,-161.4C1349.49,-148.34 1344.9,-130.38 1352.5,-116.5 1354.4,-113.03 1356.68,-109.79 1359.25,-106.77"/>
<polygon fill="black" stroke="black" points="1361.53,-109.43 1366.09,-99.87 1356.56,-104.5 1361.53,-109.43"/>
<text text-anchor="middle" x="1417.25" y="-119.7" font-family="Times,serif" font-size="14.00">HDMI cable male/male</text>
</g>
<!-- speaker_laptop -->
<g id="node8" class="node">
<title>speaker_laptop</title>
<polygon fill="none" stroke="black" points="1315.38,-520.5 1220.62,-520.5 1220.62,-484.5 1315.38,-484.5 1315.38,-520.5"/>
<text text-anchor="middle" x="1268" y="-497.45" font-family="Times,serif" font-size="14.00">speaker laptop</text>
</g>
<!-- speaker_box_hdmi_in -->
<g id="node18" class="node">
<title>speaker_box_hdmi_in</title>
<polygon fill="lightgrey" stroke="black" points="1120,-365.75 1020,-365.75 1020,-308.25 1120,-308.25 1120,-365.75"/>
<text text-anchor="middle" x="1070" y="-348.45" font-family="Times,serif" font-size="14.00">HDMI in</text>
<text text-anchor="middle" x="1070" y="-331.95" font-family="Times,serif" font-size="14.00">left HDMI port</text>
<text text-anchor="middle" x="1070" y="-315.45" font-family="Times,serif" font-size="14.00">female</text>
</g>
<!-- speaker_laptop&#45;&gt;speaker_box_hdmi_in -->
<g id="edge9" class="edge">
<title>speaker_laptop&#45;&gt;speaker_box_hdmi_in</title>
<path fill="none" stroke="black" d="M1232.79,-484.1C1203.18,-468.44 1160.71,-443.51 1129,-414.75 1116.15,-403.1 1104.08,-388.37 1094.24,-374.94"/>
<polygon fill="black" stroke="black" points="1097.33,-373.25 1088.68,-367.13 1091.63,-377.31 1097.33,-373.25"/>
<text text-anchor="middle" x="1260.38" y="-434.2" font-family="Times,serif" font-size="14.00">direct hdmi cable male/male</text>
</g>
<!-- camera_xlr_in_1 -->
<g id="node9" class="node">
<title>camera_xlr_in_1</title>
<polygon fill="none" stroke="black" points="797.88,-365.75 670.12,-365.75 670.12,-308.25 797.88,-308.25 797.88,-365.75"/>
<text text-anchor="middle" x="734" y="-348.45" font-family="Times,serif" font-size="14.00">audio in CH1</text>
<text text-anchor="middle" x="734" y="-331.95" font-family="Times,serif" font-size="14.00">XLR female port</text>
<text text-anchor="middle" x="734" y="-315.45" font-family="Times,serif" font-size="14.00">48V phantom power</text>
</g>
<!-- camera_xlr_in_2 -->
<g id="node10" class="node">
<title>camera_xlr_in_2</title>
<polygon fill="none" stroke="black" points="159.88,-365.75 32.12,-365.75 32.12,-308.25 159.88,-308.25 159.88,-365.75"/>
<text text-anchor="middle" x="96" y="-348.45" font-family="Times,serif" font-size="14.00">audio in CH2</text>
<text text-anchor="middle" x="96" y="-331.95" font-family="Times,serif" font-size="14.00">XLR female port</text>
<text text-anchor="middle" x="96" y="-315.45" font-family="Times,serif" font-size="14.00">48V phantom power</text>
</g>
<!-- camera_hdmi_out -->
<g id="node11" class="node">
<title>camera_hdmi_out</title>
<polygon fill="none" stroke="black" points="651.75,-357.5 490.25,-357.5 490.25,-316.5 651.75,-316.5 651.75,-357.5"/>
<text text-anchor="middle" x="571" y="-340.2" font-family="Times,serif" font-size="14.00">HDMI out</text>
<text text-anchor="middle" x="571" y="-323.7" font-family="Times,serif" font-size="14.00">HDMI A (full size) female</text>
</g>
<!-- cam_box_hdmi_in -->
<g id="node15" class="node">
<title>cam_box_hdmi_in</title>
<polygon fill="lightgrey" stroke="black" points="889.75,-200.25 728.25,-200.25 728.25,-159.25 889.75,-159.25 889.75,-200.25"/>
<text text-anchor="middle" x="809" y="-182.95" font-family="Times,serif" font-size="14.00">HDMI in</text>
<text text-anchor="middle" x="809" y="-166.45" font-family="Times,serif" font-size="14.00">HDMI A (full size) female</text>
</g>
<!-- camera_hdmi_out&#45;&gt;cam_box_hdmi_in -->
<g id="edge12" class="edge">
<title>camera_hdmi_out&#45;&gt;cam_box_hdmi_in</title>
<path fill="none" stroke="black" d="M601.63,-316.02C644.29,-288.19 721.68,-237.71 768.9,-206.91"/>
<polygon fill="black" stroke="black" points="770.76,-209.87 777.22,-201.48 766.93,-204.01 770.76,-209.87"/>
<text text-anchor="middle" x="763.12" y="-276.95" font-family="Times,serif" font-size="14.00">HDMI cable</text>
<text text-anchor="middle" x="763.12" y="-260.45" font-family="Times,serif" font-size="14.00">HDMI A (full size)</text>
<text text-anchor="middle" x="763.12" y="-243.95" font-family="Times,serif" font-size="14.00">male/male</text>
</g>
<!-- camera_internal_mic -->
<g id="node12" class="node">
<title>camera_internal_mic</title>
<polygon fill="none" stroke="black" points="472.12,-357.5 345.88,-357.5 345.88,-316.5 472.12,-316.5 472.12,-357.5"/>
<text text-anchor="middle" x="409" y="-340.2" font-family="Times,serif" font-size="14.00">audio in CH2</text>
<text text-anchor="middle" x="409" y="-323.7" font-family="Times,serif" font-size="14.00">internal microphone</text>
</g>
<!-- camera_audio_monitor -->
<g id="node13" class="node">
<title>camera_audio_monitor</title>
<polygon fill="none" stroke="black" points="328.12,-357.5 177.88,-357.5 177.88,-316.5 328.12,-316.5 328.12,-357.5"/>
<text text-anchor="middle" x="253" y="-340.2" font-family="Times,serif" font-size="14.00">audio monitoring port</text>
<text text-anchor="middle" x="253" y="-323.7" font-family="Times,serif" font-size="14.00">3.5mm trs stereo female</text>
</g>
<!-- headphones -->
<g id="node31" class="node">
<title>headphones</title>
<g id="a_node31"><a xlink:href="https://en-us.sennheiser.com/over-ear-headphones-hd-201" xlink:title="Sennheiser HD201 headphones\n3.5mm trs stereo male\nrental budgetcam">
<polygon fill="none" stroke="black" points="346.12,-208.5 159.88,-208.5 159.88,-151 346.12,-151 346.12,-208.5"/>
<text text-anchor="middle" x="253" y="-191.2" font-family="Times,serif" font-size="14.00">Sennheiser HD201 headphones</text>
<text text-anchor="middle" x="253" y="-174.7" font-family="Times,serif" font-size="14.00">3.5mm trs stereo male</text>
<text text-anchor="middle" x="253" y="-158.2" font-family="Times,serif" font-size="14.00">rental budgetcam</text>
</a>
</g>
</g>
<!-- camera_audio_monitor&#45;&gt;headphones -->
<g id="edge14" class="edge">
<title>camera_audio_monitor&#45;&gt;headphones</title>
<path fill="none" stroke="black" d="M253,-316.02C253,-291.84 253,-250.56 253,-219.94"/>
<polygon fill="black" stroke="black" points="256.5,-220.3 253,-210.3 249.5,-220.3 256.5,-220.3"/>
</g>
<!-- camera_ac_in -->
<g id="node14" class="node">
<title>camera_ac_in</title>
<polygon fill="none" stroke="black" points="924.5,-355 815.5,-355 815.5,-319 924.5,-319 924.5,-355"/>
<text text-anchor="middle" x="870" y="-331.95" font-family="Times,serif" font-size="14.00">camera AC input</text>
</g>
<!-- cam_box_switch -->
<g id="node16" class="node">
<title>cam_box_switch</title>
<polygon fill="lightgrey" stroke="black" points="1111.75,-197.75 980.25,-197.75 980.25,-161.75 1111.75,-161.75 1111.75,-197.75"/>
<text text-anchor="middle" x="1046" y="-174.7" font-family="Times,serif" font-size="14.00">3x Gbit dumb switch</text>
</g>
<!-- cam_box_ac_in -->
<g id="node17" class="node">
<title>cam_box_ac_in</title>
<polygon fill="lightgrey" stroke="black" points="962,-197.75 908,-197.75 908,-161.75 962,-161.75 962,-197.75"/>
<text text-anchor="middle" x="935" y="-174.7" font-family="Times,serif" font-size="14.00">AC in</text>
</g>
<!-- speaker_box_hdmi_out -->
<g id="node19" class="node">
<title>speaker_box_hdmi_out</title>
<polygon fill="lightgrey" stroke="black" points="1395.75,-365.75 1288.25,-365.75 1288.25,-308.25 1395.75,-308.25 1395.75,-365.75"/>
<text text-anchor="middle" x="1342" y="-348.45" font-family="Times,serif" font-size="14.00">HDMI out</text>
<text text-anchor="middle" x="1342" y="-331.95" font-family="Times,serif" font-size="14.00">right HDMI port</text>
<text text-anchor="middle" x="1342" y="-315.45" font-family="Times,serif" font-size="14.00">female</text>
</g>
<!-- speaker_box_hdmi_out&#45;&gt;room_projector_optional_adapter -->
<g id="edge10" class="edge">
<title>speaker_box_hdmi_out&#45;&gt;room_projector_optional_adapter</title>
<path fill="none" stroke="black" stroke-dasharray="1,5" d="M1345.98,-307.89C1349.95,-279.9 1356,-237.19 1359.98,-209.11"/>
<polygon fill="black" stroke="black" points="1363.4,-209.96 1361.33,-199.56 1356.47,-208.97 1363.4,-209.96"/>
<text text-anchor="middle" x="1384.38" y="-268.7" font-family="Times,serif" font-size="14.00">VGA cable</text>
<text text-anchor="middle" x="1384.38" y="-252.2" font-family="Times,serif" font-size="14.00">male/male</text>
</g>
<!-- speaker_box_hdmi_out&#45;&gt;room_projector -->
<g id="edge13" class="edge">
<title>speaker_box_hdmi_out&#45;&gt;room_projector</title>
<path fill="none" stroke="black" d="M1391.05,-307.99C1404.55,-300.05 1416.27,-292.85 1419,-290.25 1441.17,-269.11 1444.52,-260.73 1457,-232.75 1478.56,-184.4 1506.3,-164.04 1483,-116.5 1481.45,-113.34 1479.57,-110.34 1477.44,-107.5"/>
<polygon fill="black" stroke="black" points="1480.15,-105.28 1470.92,-100.09 1474.9,-109.91 1480.15,-105.28"/>
<text text-anchor="middle" x="1525.5" y="-182.95" font-family="Times,serif" font-size="14.00">HDMI cable</text>
<text text-anchor="middle" x="1525.5" y="-166.45" font-family="Times,serif" font-size="14.00">male/male</text>
</g>
<!-- speaker_box_switch -->
<g id="node20" class="node">
<title>speaker_box_switch</title>
<polygon fill="lightgrey" stroke="black" points="1269.75,-355 1138.25,-355 1138.25,-319 1269.75,-319 1269.75,-355"/>
<text text-anchor="middle" x="1204" y="-331.95" font-family="Times,serif" font-size="14.00">3x Gbit dumb switch</text>
</g>
<!-- speaker_box_switch&#45;&gt;cam_box_switch -->
<g id="edge16" class="edge">
<title>speaker_box_switch&#45;&gt;cam_box_switch</title>
<path fill="none" stroke="black" d="M1152.45,-313.35C1140.8,-306.88 1129.01,-299.13 1119.25,-290.25 1093.43,-266.76 1072.36,-232.36 1059.55,-208.4"/>
<polygon fill="black" stroke="black" points="1150.77,-316.43 1161.25,-318 1154.04,-310.24 1150.77,-316.43"/>
<polygon fill="black" stroke="black" points="1062.67,-206.82 1054.96,-199.55 1056.46,-210.04 1062.67,-206.82"/>
<text text-anchor="middle" x="1156.88" y="-260.45" font-family="Times,serif" font-size="14.00">ethernet cable</text>
</g>
<!-- video_vlan -->
<g id="node32" class="node">
<title>video_vlan</title>
<polygon fill="none" stroke="black" stroke-dasharray="1,5" points="1262.12,-197.75 1129.88,-197.75 1129.88,-161.75 1262.12,-161.75 1262.12,-197.75"/>
<text text-anchor="middle" x="1196" y="-174.7" font-family="Times,serif" font-size="14.00">FOSDEM video vlan</text>
</g>
<!-- speaker_box_switch&#45;&gt;video_vlan -->
<g id="edge15" class="edge">
<title>speaker_box_switch&#45;&gt;video_vlan</title>
<path fill="none" stroke="black" d="M1202.53,-307.54C1201.1,-279.65 1198.92,-237.37 1197.48,-209.41"/>
<polygon fill="black" stroke="black" points="1199.03,-307.47 1203.04,-317.28 1206.02,-307.11 1199.03,-307.47"/>
<polygon fill="black" stroke="black" points="1200.98,-209.35 1196.97,-199.55 1193.99,-209.71 1200.98,-209.35"/>
<text text-anchor="middle" x="1238.88" y="-260.45" font-family="Times,serif" font-size="14.00">ethernet cable</text>
</g>
<!-- speaker_box_ac_in -->
<g id="node21" class="node">
<title>speaker_box_ac_in</title>
<polygon fill="lightgrey" stroke="black" points="1468,-355 1414,-355 1414,-319 1468,-319 1468,-355"/>
<text text-anchor="middle" x="1441" y="-331.95" font-family="Times,serif" font-size="14.00">AC in</text>
</g>
<!-- mix_panel_out_1 -->
<g id="node25" class="node">
<title>mix_panel_out_1</title>
<polygon fill="none" stroke="black" points="472,-531.25 336,-531.25 336,-473.75 472,-473.75 472,-531.25"/>
<text text-anchor="middle" x="404" y="-513.95" font-family="Times,serif" font-size="14.00">mix panel out left</text>
<text text-anchor="middle" x="404" y="-497.45" font-family="Times,serif" font-size="14.00">XLR male port</text>
<text text-anchor="middle" x="404" y="-480.95" font-family="Times,serif" font-size="14.00">balanced left or mono</text>
</g>
<!-- mix_panel_out_1&#45;&gt;camera_xlr_in_1 -->
<g id="edge7" class="edge">
<title>mix_panel_out_1&#45;&gt;camera_xlr_in_1</title>
<path fill="none" stroke="black" d="M462.03,-473.38C468.37,-470.66 474.78,-468.06 481,-465.75 558.95,-436.82 589.82,-457.73 661,-414.75 678.08,-404.44 693.79,-389.08 706.23,-374.81"/>
<polygon fill="black" stroke="black" points="708.8,-377.19 712.56,-367.28 703.45,-372.68 708.8,-377.19"/>
<text text-anchor="middle" x="678.12" y="-442.45" font-family="Times,serif" font-size="14.00">xlr cable</text>
<text text-anchor="middle" x="678.12" y="-425.95" font-family="Times,serif" font-size="14.00">female/male</text>
</g>
<!-- mix_panel_out_2 -->
<g id="node26" class="node">
<title>mix_panel_out_2</title>
<polygon fill="none" stroke="black" points="317.75,-531.25 174.25,-531.25 174.25,-473.75 317.75,-473.75 317.75,-531.25"/>
<text text-anchor="middle" x="246" y="-513.95" font-family="Times,serif" font-size="14.00">mix panel out right</text>
<text text-anchor="middle" x="246" y="-497.45" font-family="Times,serif" font-size="14.00">XLR male port</text>
<text text-anchor="middle" x="246" y="-480.95" font-family="Times,serif" font-size="14.00">balanced right or mono</text>
</g>
<!-- mix_panel_out_2&#45;&gt;camera_xlr_in_2 -->
<g id="edge8" class="edge">
<title>mix_panel_out_2&#45;&gt;camera_xlr_in_2</title>
<path fill="none" stroke="black" d="M220.21,-473.39C195.13,-446.05 156.9,-404.38 129.48,-374.49"/>
<polygon fill="black" stroke="black" points="132.06,-372.13 122.72,-367.13 126.9,-376.86 132.06,-372.13"/>
<text text-anchor="middle" x="235.12" y="-442.45" font-family="Times,serif" font-size="14.00">xlr cable</text>
<text text-anchor="middle" x="235.12" y="-425.95" font-family="Times,serif" font-size="14.00">female/male</text>
</g>
<!-- mix_panel_ac_in -->
<g id="node27" class="node">
<title>mix_panel_ac_in</title>
<polygon fill="none" stroke="black" points="852,-520.5 798,-520.5 798,-484.5 852,-484.5 852,-520.5"/>
<text text-anchor="middle" x="825" y="-497.45" font-family="Times,serif" font-size="14.00">AC in</text>
</g>
<!-- cam_power_strip -->
<g id="node28" class="node">
<title>cam_power_strip</title>
<polygon fill="none" stroke="black" points="1037.5,-669.75 868.5,-669.75 868.5,-628.75 1037.5,-628.75 1037.5,-669.75"/>
<text text-anchor="middle" x="953" y="-652.45" font-family="Times,serif" font-size="14.00">camera side power strip</text>
<text text-anchor="middle" x="953" y="-635.95" font-family="Times,serif" font-size="14.00">&gt;=4 CEE 7/3 or 7/5 sockets</text>
</g>
<!-- cam_power_strip&#45;&gt;camera_ac_in -->
<g id="edge17" class="edge">
<title>cam_power_strip&#45;&gt;camera_ac_in</title>
<path fill="none" stroke="black" d="M953,-595.5C932.68,-529.56 966.22,-507.97 953,-440.25"/>
<path fill="none" stroke="black" d="M953,-438.25C951.36,-429.11 917.59,-390.36 893.64,-363.8"/>
<polygon fill="black" stroke="black" points="896.28,-361.5 886.97,-356.45 891.09,-366.2 896.28,-361.5"/>
</g>
<!-- cam_power_strip&#45;&gt;cam_box_ac_in -->
<g id="edge18" class="edge">
<title>cam_power_strip&#45;&gt;cam_box_ac_in</title>
<path fill="none" stroke="black" d="M953,-438.25C938.3,-356.07 935.46,-257.14 935.01,-209.36"/>
<polygon fill="black" stroke="black" points="938.51,-209.57 934.95,-199.6 931.51,-209.62 938.51,-209.57"/>
</g>
<!-- cam_power_strip&#45;&gt;mix_panel_ac_in -->
<g id="edge19" class="edge">
<title>cam_power_strip&#45;&gt;mix_panel_ac_in</title>
<path fill="none" stroke="black" d="M955.67,-628.57C956.3,-618.99 956.06,-607.44 953,-597.5"/>
<path fill="none" stroke="black" d="M953,-595.5C949.71,-584.82 898.47,-550.29 861.84,-526.71"/>
<polygon fill="black" stroke="black" points="863.99,-523.94 853.68,-521.49 860.22,-529.83 863.99,-523.94"/>
</g>
<!-- speaker_power_strip -->
<g id="node29" class="node">
<title>speaker_power_strip</title>
<polygon fill="none" stroke="black" points="1475.5,-669.75 1306.5,-669.75 1306.5,-628.75 1475.5,-628.75 1475.5,-669.75"/>
<text text-anchor="middle" x="1391" y="-652.45" font-family="Times,serif" font-size="14.00">speaker side power strip</text>
<text text-anchor="middle" x="1391" y="-635.95" font-family="Times,serif" font-size="14.00">&gt;=4 CEE 7/3 or 7/5 sockets</text>
</g>
<!-- speaker_power_strip&#45;&gt;speaker_laptop -->
<g id="edge20" class="edge">
<title>speaker_power_strip&#45;&gt;speaker_laptop</title>
<path fill="none" stroke="black" d="M1393.59,-628.59C1394.2,-619.02 1393.97,-607.46 1391,-597.5"/>
<path fill="none" stroke="black" d="M1391,-595.5C1389.41,-590.18 1337.79,-552.81 1301.94,-527.37"/>
<polygon fill="black" stroke="black" points="1304.17,-524.66 1293.98,-521.74 1300.12,-530.38 1304.17,-524.66"/>
</g>
<!-- speaker_power_strip&#45;&gt;speaker_box_ac_in -->
<g id="edge21" class="edge">
<title>speaker_power_strip&#45;&gt;speaker_box_ac_in</title>
<path fill="none" stroke="black" d="M1391,-595.5C1366.56,-513.51 1404.92,-413.18 1427.07,-365.59"/>
<polygon fill="black" stroke="black" points="1430.1,-367.36 1431.26,-356.82 1423.79,-364.34 1430.1,-367.36"/>
</g>
</g>
</svg>
