<?xml version="1.0" encoding="UTF-8" standalone="no"?>
<!DOCTYPE svg PUBLIC "-//W3C//DTD SVG 1.1//EN"
 "http://www.w3.org/Graphics/SVG/1.1/DTD/svg11.dtd">
<!-- Generated by graphviz version 2.40.1 (20161225.0304)
 -->
<!-- Title: G Pages: 1 -->
<svg width="2090pt" height="957pt"
 viewBox="0.00 0.00 2090.00 957.00" xmlns="http://www.w3.org/2000/svg" xmlns:xlink="http://www.w3.org/1999/xlink">
<g id="graph0" class="graph" transform="scale(1 1) rotate(0) translate(4 953)">
<title>G</title>
<polygon fill="#ffffff" stroke="transparent" points="-4,4 -4,-953 2086,-953 2086,4 -4,4"/>
<text text-anchor="middle" x="1041" y="-22.8" font-family="Times,serif" font-size="14.00" fill="#000000">FOSDEM 2019 large rooms video cabling setup:</text>
<text text-anchor="middle" x="1041" y="-7.8" font-family="Times,serif" font-size="14.00" fill="#000000">h1301, h1302, h1308, h1309, h2215, ua2114, ua2118, ua2220, ub2252a, ud2120, ud2208, ud2218a</text>
<g id="clust1" class="cluster">
<title>cluster_speaker_microphone_receiver</title>
<g id="a_clust1"><a xlink:href="https://en-us.sennheiser.com/global-downloads/file/6524/AVX_Manual_06_2015_EN.pdf" xlink:title="speaker microphone receiver\nsennheiser ekp avx receiver\nDC autonomy: &gt;4h (BA20 battery)\n430 mAh\nAC autonomy: ∞\nphantom auto power on/off">
<polygon fill="none" stroke="#000000" points="1262,-583 1262,-735 1512,-735 1512,-583 1262,-583"/>
<text text-anchor="middle" x="1387" y="-719.8" font-family="Times,serif" font-size="14.00" fill="#000000">speaker microphone receiver</text>
<text text-anchor="middle" x="1387" y="-704.8" font-family="Times,serif" font-size="14.00" fill="#000000">sennheiser ekp avx receiver</text>
<text text-anchor="middle" x="1387" y="-689.8" font-family="Times,serif" font-size="14.00" fill="#000000">DC autonomy: &gt;4h (BA20 battery)</text>
<text text-anchor="middle" x="1387" y="-674.8" font-family="Times,serif" font-size="14.00" fill="#000000">430 mAh</text>
<text text-anchor="middle" x="1387" y="-659.8" font-family="Times,serif" font-size="14.00" fill="#000000">AC autonomy: ∞</text>
<text text-anchor="middle" x="1387" y="-644.8" font-family="Times,serif" font-size="14.00" fill="#000000">phantom auto power on/off</text>
</a>
</g>
</g>
<g id="clust2" class="cluster">
<title>cluster_audience_microphone_receiver</title>
<g id="a_clust2"><a xlink:href="https://en-us.sennheiser.com/global-downloads/file/6524/AVX_Manual_06_2015_EN.pdf" xlink:title="audience microphone receiver\nsennheiser ekp avx receiver\nDC autonomy: &gt;4h (BA20 battery)\n430 mAh\nAC autonomy: ∞\nphantom auto power on/off">
<polygon fill="none" stroke="#000000" points="968,-583 968,-735 1218,-735 1218,-583 968,-583"/>
<text text-anchor="middle" x="1093" y="-719.8" font-family="Times,serif" font-size="14.00" fill="#000000">audience microphone receiver</text>
<text text-anchor="middle" x="1093" y="-704.8" font-family="Times,serif" font-size="14.00" fill="#000000">sennheiser ekp avx receiver</text>
<text text-anchor="middle" x="1093" y="-689.8" font-family="Times,serif" font-size="14.00" fill="#000000">DC autonomy: &gt;4h (BA20 battery)</text>
<text text-anchor="middle" x="1093" y="-674.8" font-family="Times,serif" font-size="14.00" fill="#000000">430 mAh</text>
<text text-anchor="middle" x="1093" y="-659.8" font-family="Times,serif" font-size="14.00" fill="#000000">AC autonomy: ∞</text>
<text text-anchor="middle" x="1093" y="-644.8" font-family="Times,serif" font-size="14.00" fill="#000000">phantom auto power on/off</text>
</a>
</g>
</g>
<g id="clust3" class="cluster">
<title>cluster_mix_panel</title>
<polygon fill="none" stroke="#000000" points="821,-427 821,-534 1520,-534 1520,-427 821,-427"/>
<text text-anchor="middle" x="1170.5" y="-518.8" font-family="Times,serif" font-size="14.00" fill="#000000">FOSDEM audio mix panel</text>
<text text-anchor="middle" x="1170.5" y="-503.8" font-family="Times,serif" font-size="14.00" fill="#000000">Yamaha MG10</text>
</g>
<g id="clust4" class="cluster">
<title>cluster_camera</title>
<g id="a_clust4"><a xlink:href="https://pro.sony.com/bbsccms/assets/files/micro/nxcam/latest/Sony_HXR-NX100.pdf" xlink:title="camera\nSony HXR&#45;NX100">
<polygon fill="none" stroke="#000000" points="8,-272 8,-379 781,-379 781,-272 8,-272"/>
<text text-anchor="middle" x="394.5" y="-363.8" font-family="Times,serif" font-size="14.00" fill="#000000">camera</text>
<text text-anchor="middle" x="394.5" y="-348.8" font-family="Times,serif" font-size="14.00" fill="#000000">Sony HXR&#45;NX100</text>
</a>
</g>
</g>
<g id="clust5" class="cluster">
<title>cluster_fosdem_network</title>
<polygon fill="none" stroke="#d3d3d3" points="1528,-116.5 1528,-550 1992,-550 1992,-116.5 1528,-116.5"/>
<text text-anchor="middle" x="1760" y="-534.8" font-family="Times,serif" font-size="14.00" fill="#000000">FOSDEM video boxes</text>
</g>
<g id="clust6" class="cluster">
<title>cluster_cam_box</title>
<g id="a_clust6"><a xlink:href="https://github.com/FOSDEM/video" xlink:title="camera box">
<polygon fill="none" stroke="#d3d3d3" points="1536,-124.5 1536,-201.5 1938,-201.5 1938,-124.5 1536,-124.5"/>
<text text-anchor="middle" x="1737" y="-186.3" font-family="Times,serif" font-size="14.00" fill="#000000">camera box</text>
</a>
</g>
</g>
<g id="clust7" class="cluster">
<title>cluster_speaker_box</title>
<g id="a_clust7"><a xlink:href="https://github.com/FOSDEM/video" xlink:title="speaker box">
<polygon fill="none" stroke="#d3d3d3" points="1536,-427 1536,-519 1984,-519 1984,-427 1536,-427"/>
<text text-anchor="middle" x="1760" y="-503.8" font-family="Times,serif" font-size="14.00" fill="#000000">speaker box</text>
</a>
</g>
</g>
<g id="clust8" class="cluster">
<title>cluster_ulb_hardware</title>
<polygon fill="none" stroke="#000000" points="1135,-264.5 1135,-371.5 1487,-371.5 1487,-264.5 1135,-264.5"/>
<text text-anchor="middle" x="1311" y="-356.3" font-family="Times,serif" font-size="14.00" fill="#000000">ULB hardware</text>
</g>
<!-- usb_powerbank -->
<g id="node1" class="node">
<title>usb_powerbank</title>
<polygon fill="none" stroke="#000000" points="1321.5,-851.5 1214.5,-851.5 1214.5,-813.5 1321.5,-813.5 1321.5,-851.5"/>
<text text-anchor="middle" x="1268" y="-836.3" font-family="Times,serif" font-size="14.00" fill="#000000">USB powerbank</text>
<text text-anchor="middle" x="1268" y="-821.3" font-family="Times,serif" font-size="14.00" fill="#000000">10.4k mAh</text>
</g>
<!-- speaker_microphone_receiver_usb_power_connector -->
<g id="node3" class="node">
<title>speaker_microphone_receiver_usb_power_connector</title>
<polygon fill="none" stroke="#000000" points="1383.5,-629 1270.5,-629 1270.5,-591 1383.5,-591 1383.5,-629"/>
<text text-anchor="middle" x="1327" y="-613.8" font-family="Times,serif" font-size="14.00" fill="#000000">power input port</text>
<text text-anchor="middle" x="1327" y="-598.8" font-family="Times,serif" font-size="14.00" fill="#000000">micro usb female</text>
</g>
<!-- usb_powerbank&#45;&gt;speaker_microphone_receiver_usb_power_connector -->
<g id="edge2" class="edge">
<title>usb_powerbank&#45;&gt;speaker_microphone_receiver_usb_power_connector</title>
<path fill="none" stroke="#000000" d="M1282.7341,-813.4752C1290.6249,-802.2941 1299.7718,-787.537 1305,-773 1321.0624,-728.3387 1325.5413,-672.96 1326.7072,-639.6073"/>
<polygon fill="#000000" stroke="#000000" points="1330.2172,-639.2786 1326.9875,-629.1881 1323.2197,-639.0903 1330.2172,-639.2786"/>
<text text-anchor="middle" x="1389.5" y="-761.8" font-family="Times,serif" font-size="14.00" fill="#000000">USB A &#45;&gt; micro USB cable</text>
<text text-anchor="middle" x="1389.5" y="-746.8" font-family="Times,serif" font-size="14.00" fill="#000000">included in mic kit</text>
</g>
<!-- audience_microphone_receiver_usb_power_connector -->
<g id="node6" class="node">
<title>audience_microphone_receiver_usb_power_connector</title>
<polygon fill="none" stroke="#000000" points="1209.5,-629 1096.5,-629 1096.5,-591 1209.5,-591 1209.5,-629"/>
<text text-anchor="middle" x="1153" y="-613.8" font-family="Times,serif" font-size="14.00" fill="#000000">power input port</text>
<text text-anchor="middle" x="1153" y="-598.8" font-family="Times,serif" font-size="14.00" fill="#000000">micro usb female</text>
</g>
<!-- usb_powerbank&#45;&gt;audience_microphone_receiver_usb_power_connector -->
<g id="edge5" class="edge">
<title>usb_powerbank&#45;&gt;audience_microphone_receiver_usb_power_connector</title>
<path fill="none" stroke="#000000" d="M1215.6597,-813.4277C1186.4205,-801.5967 1154.242,-786.1897 1146,-773 1120.4946,-732.1839 1131.932,-673.7382 1142.5071,-639.049"/>
<polygon fill="#000000" stroke="#000000" points="1145.98,-639.6835 1145.7195,-629.0919 1139.3181,-637.5342 1145.98,-639.6835"/>
<text text-anchor="middle" x="1223.5" y="-761.8" font-family="Times,serif" font-size="14.00" fill="#000000">USB A &#45;&gt; micro USB cable</text>
<text text-anchor="middle" x="1223.5" y="-746.8" font-family="Times,serif" font-size="14.00" fill="#000000">included in mic kit</text>
</g>
<!-- speaker_microphone -->
<g id="node2" class="node">
<title>speaker_microphone</title>
<g id="a_node2"><a xlink:href="https://en-us.sennheiser.com/global-downloads/file/6524/AVX_Manual_06_2015_EN.pdf" xlink:title="speaker microphone\nsennheiser avx me2\nesk avx bodypack transmitter\nautonomy: 15h (BA30 battery)/11h (2x AA)\n2030 mAh">
<polygon fill="none" stroke="#000000" points="1634.5,-874 1375.5,-874 1375.5,-791 1634.5,-791 1634.5,-874"/>
<text text-anchor="middle" x="1505" y="-858.8" font-family="Times,serif" font-size="14.00" fill="#000000">speaker microphone</text>
<text text-anchor="middle" x="1505" y="-843.8" font-family="Times,serif" font-size="14.00" fill="#000000">sennheiser avx me2</text>
<text text-anchor="middle" x="1505" y="-828.8" font-family="Times,serif" font-size="14.00" fill="#000000">esk avx bodypack transmitter</text>
<text text-anchor="middle" x="1505" y="-813.8" font-family="Times,serif" font-size="14.00" fill="#000000">autonomy: 15h (BA30 battery)/11h (2x AA)</text>
<text text-anchor="middle" x="1505" y="-798.8" font-family="Times,serif" font-size="14.00" fill="#000000">2030 mAh</text>
</a>
</g>
</g>
<!-- speaker_microphone_receiver_xlr_connector -->
<g id="node4" class="node">
<title>speaker_microphone_receiver_xlr_connector</title>
<polygon fill="none" stroke="#000000" points="1504,-628 1402,-628 1402,-592 1504,-592 1504,-628"/>
<text text-anchor="middle" x="1453" y="-606.3" font-family="Times,serif" font-size="14.00" fill="#000000">XLR male plug</text>
</g>
<!-- speaker_microphone&#45;&gt;speaker_microphone_receiver_xlr_connector -->
<g id="edge1" class="edge">
<title>speaker_microphone&#45;&gt;speaker_microphone_receiver_xlr_connector</title>
<path fill="none" stroke="#000000" d="M1495.2802,-790.9105C1492.1097,-777.3443 1488.3987,-761.4656 1484.5157,-744.8508"/>
<polygon fill="#000000" stroke="#000000" points="1487.8963,-743.9361 1482.2123,-734.995 1481.08,-745.5292 1487.8963,-743.9361"/>
<text text-anchor="middle" x="1538.5" y="-754.3" font-family="Times,serif" font-size="14.00" fill="#000000">1.9 GHz wireless</text>
</g>
<!-- mix_panel_mic_1_in -->
<g id="node8" class="node">
<title>mix_panel_mic_1_in</title>
<polygon fill="none" stroke="#000000" points="1511.5,-488 1374.5,-488 1374.5,-435 1511.5,-435 1511.5,-488"/>
<text text-anchor="middle" x="1443" y="-472.8" font-family="Times,serif" font-size="14.00" fill="#000000">mic 1 in</text>
<text text-anchor="middle" x="1443" y="-457.8" font-family="Times,serif" font-size="14.00" fill="#000000">XLR female port</text>
<text text-anchor="middle" x="1443" y="-442.8" font-family="Times,serif" font-size="14.00" fill="#000000">+48V phantom power</text>
</g>
<!-- speaker_microphone_receiver_xlr_connector&#45;&gt;mix_panel_mic_1_in -->
<g id="edge3" class="edge">
<title>speaker_microphone_receiver_xlr_connector&#45;&gt;mix_panel_mic_1_in</title>
<path fill="none" stroke="#000000" d="M1451.7738,-591.791C1450.2109,-568.5821 1447.4719,-527.9081 1445.4689,-498.1638"/>
<polygon fill="#000000" stroke="#000000" points="1448.9584,-497.8875 1444.7943,-488.1452 1441.9742,-498.3578 1448.9584,-497.8875"/>
</g>
<!-- audience_microphone -->
<g id="node5" class="node">
<title>audience_microphone</title>
<g id="a_node5"><a xlink:href="https://en-us.sennheiser.com/global-downloads/file/6524/AVX_Manual_06_2015_EN.pdf" xlink:title="audience microphone\nsennheiser avx 835\nautonomy: 13h (BA10 battery)/11h (2x AA)\n2200 mAh">
<polygon fill="none" stroke="#000000" points="1156.5,-866.5 897.5,-866.5 897.5,-798.5 1156.5,-798.5 1156.5,-866.5"/>
<text text-anchor="middle" x="1027" y="-851.3" font-family="Times,serif" font-size="14.00" fill="#000000">audience microphone</text>
<text text-anchor="middle" x="1027" y="-836.3" font-family="Times,serif" font-size="14.00" fill="#000000">sennheiser avx 835</text>
<text text-anchor="middle" x="1027" y="-821.3" font-family="Times,serif" font-size="14.00" fill="#000000">autonomy: 13h (BA10 battery)/11h (2x AA)</text>
<text text-anchor="middle" x="1027" y="-806.3" font-family="Times,serif" font-size="14.00" fill="#000000">2200 mAh</text>
</a>
</g>
</g>
<!-- audience_microphone_receiver_xlr_connector -->
<g id="node7" class="node">
<title>audience_microphone_receiver_xlr_connector</title>
<polygon fill="none" stroke="#000000" points="1078,-628 976,-628 976,-592 1078,-592 1078,-628"/>
<text text-anchor="middle" x="1027" y="-606.3" font-family="Times,serif" font-size="14.00" fill="#000000">XLR male plug</text>
</g>
<!-- audience_microphone&#45;&gt;audience_microphone_receiver_xlr_connector -->
<g id="edge4" class="edge">
<title>audience_microphone&#45;&gt;audience_microphone_receiver_xlr_connector</title>
<path fill="none" stroke="#000000" d="M1027,-798.222C1027,-783.2634 1027,-764.6632 1027,-745.0262"/>
<polygon fill="#000000" stroke="#000000" points="1030.5001,-744.9969 1027,-734.997 1023.5001,-744.997 1030.5001,-744.9969"/>
<text text-anchor="middle" x="1074.5" y="-754.3" font-family="Times,serif" font-size="14.00" fill="#000000">1.9 GHz wireless</text>
</g>
<!-- mix_panel_mic_2_in -->
<g id="node9" class="node">
<title>mix_panel_mic_2_in</title>
<polygon fill="none" stroke="#000000" points="1356.5,-488 1219.5,-488 1219.5,-435 1356.5,-435 1356.5,-488"/>
<text text-anchor="middle" x="1288" y="-472.8" font-family="Times,serif" font-size="14.00" fill="#000000">mic 2 in</text>
<text text-anchor="middle" x="1288" y="-457.8" font-family="Times,serif" font-size="14.00" fill="#000000">XLR female port</text>
<text text-anchor="middle" x="1288" y="-442.8" font-family="Times,serif" font-size="14.00" fill="#000000">+48V phantom power</text>
</g>
<!-- audience_microphone_receiver_xlr_connector&#45;&gt;mix_panel_mic_2_in -->
<g id="edge6" class="edge">
<title>audience_microphone_receiver_xlr_connector&#45;&gt;mix_panel_mic_2_in</title>
<path fill="none" stroke="#000000" d="M1065.3643,-591.9574C1072.793,-588.7672 1080.5767,-585.6295 1088,-583 1140.9471,-564.2447 1162.2981,-579.6596 1210,-550 1231.8698,-536.402 1251.0737,-514.8108 1264.9543,-496.3592"/>
<polygon fill="#000000" stroke="#000000" points="1267.8824,-498.2841 1270.9477,-488.1424 1262.227,-494.159 1267.8824,-498.2841"/>
</g>
<!-- mix_panel_out_1 -->
<g id="node10" class="node">
<title>mix_panel_out_1</title>
<polygon fill="none" stroke="#000000" points="1038.5,-488 901.5,-488 901.5,-435 1038.5,-435 1038.5,-488"/>
<text text-anchor="middle" x="970" y="-472.8" font-family="Times,serif" font-size="14.00" fill="#000000">mix panel out left</text>
<text text-anchor="middle" x="970" y="-457.8" font-family="Times,serif" font-size="14.00" fill="#000000">XLR male port</text>
<text text-anchor="middle" x="970" y="-442.8" font-family="Times,serif" font-size="14.00" fill="#000000">balanced left or mono</text>
</g>
<!-- camera_xlr_in_1 -->
<g id="node15" class="node">
<title>camera_xlr_in_1</title>
<polygon fill="none" stroke="#000000" points="772.5,-333 643.5,-333 643.5,-280 772.5,-280 772.5,-333"/>
<text text-anchor="middle" x="708" y="-317.8" font-family="Times,serif" font-size="14.00" fill="#000000">audio in CH1</text>
<text text-anchor="middle" x="708" y="-302.8" font-family="Times,serif" font-size="14.00" fill="#000000">XLR female port</text>
<text text-anchor="middle" x="708" y="-287.8" font-family="Times,serif" font-size="14.00" fill="#000000">48V phantom power</text>
</g>
<!-- mix_panel_out_1&#45;&gt;camera_xlr_in_1 -->
<g id="edge7" class="edge">
<title>mix_panel_out_1&#45;&gt;camera_xlr_in_1</title>
<path fill="none" stroke="#000000" d="M924.9606,-434.8546C879.6457,-408.0461 809.7614,-366.7023 761.6154,-338.219"/>
<polygon fill="#000000" stroke="#000000" points="763.2781,-335.1361 752.8893,-333.0567 759.7139,-341.1608 763.2781,-335.1361"/>
<text text-anchor="middle" x="926.5" y="-405.8" font-family="Times,serif" font-size="14.00" fill="#000000">xlr cable</text>
<text text-anchor="middle" x="926.5" y="-390.8" font-family="Times,serif" font-size="14.00" fill="#000000">female/male</text>
</g>
<!-- mix_panel_out_2 -->
<g id="node11" class="node">
<title>mix_panel_out_2</title>
<polygon fill="none" stroke="#000000" points="1201,-488 1057,-488 1057,-435 1201,-435 1201,-488"/>
<text text-anchor="middle" x="1129" y="-472.8" font-family="Times,serif" font-size="14.00" fill="#000000">mix panel out right</text>
<text text-anchor="middle" x="1129" y="-457.8" font-family="Times,serif" font-size="14.00" fill="#000000">XLR male port</text>
<text text-anchor="middle" x="1129" y="-442.8" font-family="Times,serif" font-size="14.00" fill="#000000">balanced right or mono</text>
</g>
<!-- room_amplification -->
<g id="node29" class="node">
<title>room_amplification</title>
<polygon fill="none" stroke="#000000" points="1307,-324.5 1143,-324.5 1143,-288.5 1307,-288.5 1307,-324.5"/>
<text text-anchor="middle" x="1225" y="-302.8" font-family="Times,serif" font-size="14.00" fill="#000000">room amplification system</text>
</g>
<!-- mix_panel_out_2&#45;&gt;room_amplification -->
<g id="edge8" class="edge">
<title>mix_panel_out_2&#45;&gt;room_amplification</title>
<path fill="none" stroke="#000000" d="M1145.503,-434.8546C1163.111,-406.4249 1190.8434,-361.6486 1208.4641,-333.1986"/>
<polygon fill="#000000" stroke="#000000" points="1211.5142,-334.9211 1213.8041,-324.5767 1205.5631,-331.2353 1211.5142,-334.9211"/>
<text text-anchor="middle" x="1208.5" y="-405.8" font-family="Times,serif" font-size="14.00" fill="#000000">xlr cable</text>
<text text-anchor="middle" x="1208.5" y="-390.8" font-family="Times,serif" font-size="14.00" fill="#000000">female/male</text>
</g>
<!-- mix_panel_ac_in -->
<g id="node12" class="node">
<title>mix_panel_ac_in</title>
<polygon fill="none" stroke="#000000" points="883,-479.5 829,-479.5 829,-443.5 883,-443.5 883,-479.5"/>
<text text-anchor="middle" x="856" y="-457.8" font-family="Times,serif" font-size="14.00" fill="#000000">AC in</text>
</g>
<!-- speaker_laptop -->
<g id="node13" class="node">
<title>speaker_laptop</title>
<polygon fill="none" stroke="#000000" points="1804.5,-850.5 1709.5,-850.5 1709.5,-814.5 1804.5,-814.5 1804.5,-850.5"/>
<text text-anchor="middle" x="1757" y="-828.8" font-family="Times,serif" font-size="14.00" fill="#000000">speaker laptop</text>
</g>
<!-- speaker_laptop_optional_adapter -->
<g id="node14" class="node">
<title>speaker_laptop_optional_adapter</title>
<polygon fill="none" stroke="#000000" stroke-dasharray="1,5" points="1868.5,-628 1699.5,-628 1699.5,-592 1868.5,-592 1868.5,-628"/>
<text text-anchor="middle" x="1784" y="-606.3" font-family="Times,serif" font-size="14.00" fill="#000000">optional vga&#45;&gt;hdmi adapter</text>
</g>
<!-- speaker_laptop&#45;&gt;speaker_laptop_optional_adapter -->
<g id="edge10" class="edge">
<title>speaker_laptop&#45;&gt;speaker_laptop_optional_adapter</title>
<path fill="none" stroke="#000000" stroke-dasharray="1,5" d="M1759.2095,-814.2919C1763.9183,-775.4879 1774.9692,-684.4202 1780.589,-638.1092"/>
<polygon fill="#000000" stroke="#000000" points="1784.0676,-638.4965 1781.7978,-628.1476 1777.1186,-637.6532 1784.0676,-638.4965"/>
<text text-anchor="middle" x="1798" y="-761.8" font-family="Times,serif" font-size="14.00" fill="#000000">VGA cable</text>
<text text-anchor="middle" x="1798" y="-746.8" font-family="Times,serif" font-size="14.00" fill="#000000">male/male</text>
</g>
<!-- speaker_box_hdmi_in -->
<g id="node23" class="node">
<title>speaker_box_hdmi_in</title>
<polygon fill="#d3d3d3" stroke="#000000" points="1976,-488 1884,-488 1884,-435 1976,-435 1976,-488"/>
<text text-anchor="middle" x="1930" y="-472.8" font-family="Times,serif" font-size="14.00" fill="#000000">hdmi in</text>
<text text-anchor="middle" x="1930" y="-457.8" font-family="Times,serif" font-size="14.00" fill="#000000">left hdmi port</text>
<text text-anchor="middle" x="1930" y="-442.8" font-family="Times,serif" font-size="14.00" fill="#000000">female</text>
</g>
<!-- speaker_laptop&#45;&gt;speaker_box_hdmi_in -->
<g id="edge9" class="edge">
<title>speaker_laptop&#45;&gt;speaker_box_hdmi_in</title>
<path fill="none" stroke="#000000" d="M1790.3474,-814.443C1818.1828,-797.5944 1856.6379,-769.8449 1878,-735 1923.9221,-660.0939 1930.8463,-553.6606 1931.0015,-498.2449"/>
<polygon fill="#000000" stroke="#000000" points="1934.5013,-498.1722 1930.9558,-488.1882 1927.5014,-498.2041 1934.5013,-498.1722"/>
<text text-anchor="middle" x="2003.5" y="-606.3" font-family="Times,serif" font-size="14.00" fill="#000000">direct hdmi cable male/male</text>
</g>
<!-- speaker_laptop_optional_adapter&#45;&gt;speaker_box_hdmi_in -->
<g id="edge11" class="edge">
<title>speaker_laptop_optional_adapter&#45;&gt;speaker_box_hdmi_in</title>
<path fill="none" stroke="#000000" stroke-dasharray="1,5" d="M1778.8415,-591.8548C1776.8594,-580.68 1776.7465,-566.8474 1785,-558 1798.6966,-543.3179 1857.9001,-560.524 1875,-550 1894.3737,-538.0766 1907.9853,-516.512 1916.8209,-497.6554"/>
<polygon fill="#000000" stroke="#000000" points="1920.074,-498.9524 1920.895,-488.3894 1913.666,-496.1349 1920.074,-498.9524"/>
<text text-anchor="middle" x="1850.5" y="-561.8" font-family="Times,serif" font-size="14.00" fill="#000000">HDMI cable male/male</text>
</g>
<!-- camera_xlr_in_2 -->
<g id="node16" class="node">
<title>camera_xlr_in_2</title>
<polygon fill="none" stroke="#000000" points="625.5,-333 496.5,-333 496.5,-280 625.5,-280 625.5,-333"/>
<text text-anchor="middle" x="561" y="-317.8" font-family="Times,serif" font-size="14.00" fill="#000000">audio in CH2</text>
<text text-anchor="middle" x="561" y="-302.8" font-family="Times,serif" font-size="14.00" fill="#000000">XLR female port</text>
<text text-anchor="middle" x="561" y="-287.8" font-family="Times,serif" font-size="14.00" fill="#000000">48V phantom power</text>
</g>
<!-- camera_hdmi_out -->
<g id="node17" class="node">
<title>camera_hdmi_out</title>
<polygon fill="none" stroke="#000000" points="478,-325.5 314,-325.5 314,-287.5 478,-287.5 478,-325.5"/>
<text text-anchor="middle" x="396" y="-310.3" font-family="Times,serif" font-size="14.00" fill="#000000">HDMI out</text>
<text text-anchor="middle" x="396" y="-295.3" font-family="Times,serif" font-size="14.00" fill="#000000">HDMI A (full size) female</text>
</g>
<!-- cam_box_hdmi_in -->
<g id="node20" class="node">
<title>cam_box_hdmi_in</title>
<polygon fill="#d3d3d3" stroke="#000000" points="1708,-170.5 1544,-170.5 1544,-132.5 1708,-132.5 1708,-170.5"/>
<text text-anchor="middle" x="1626" y="-155.3" font-family="Times,serif" font-size="14.00" fill="#000000">HDMI in</text>
<text text-anchor="middle" x="1626" y="-140.3" font-family="Times,serif" font-size="14.00" fill="#000000">HDMI A (full size) female</text>
</g>
<!-- camera_hdmi_out&#45;&gt;cam_box_hdmi_in -->
<g id="edge12" class="edge">
<title>camera_hdmi_out&#45;&gt;cam_box_hdmi_in</title>
<path fill="none" stroke="#000000" d="M434.4073,-287.4144C450.7024,-279.7255 470.0461,-271.1276 488,-264.5 571.273,-233.7604 592.5158,-224.5272 680,-209.5 842.2681,-181.6271 1328.9329,-161.8886 1533.6555,-154.5998"/>
<polygon fill="#000000" stroke="#000000" points="1533.9099,-158.0931 1543.7798,-154.2413 1533.6621,-151.0974 1533.9099,-158.0931"/>
<text text-anchor="middle" x="733.5" y="-243.3" font-family="Times,serif" font-size="14.00" fill="#000000">HDMI cable</text>
<text text-anchor="middle" x="733.5" y="-228.3" font-family="Times,serif" font-size="14.00" fill="#000000">HDMI A (full size)</text>
<text text-anchor="middle" x="733.5" y="-213.3" font-family="Times,serif" font-size="14.00" fill="#000000">male/male</text>
</g>
<!-- camera_audio_monitor -->
<g id="node18" class="node">
<title>camera_audio_monitor</title>
<polygon fill="none" stroke="#000000" points="295.5,-325.5 144.5,-325.5 144.5,-287.5 295.5,-287.5 295.5,-325.5"/>
<text text-anchor="middle" x="220" y="-310.3" font-family="Times,serif" font-size="14.00" fill="#000000">audio monitoring port</text>
<text text-anchor="middle" x="220" y="-295.3" font-family="Times,serif" font-size="14.00" fill="#000000">3.5mm trs stereo female</text>
</g>
<!-- headphones -->
<g id="node31" class="node">
<title>headphones</title>
<g id="a_node31"><a xlink:href="https://en-us.sennheiser.com/over-ear-headphones-hd-201" xlink:title="Sennheiser HD201 headphones\n3.5mm trs stereo male\nrental budgetcam">
<polygon fill="none" stroke="#000000" points="313.5,-178 126.5,-178 126.5,-125 313.5,-125 313.5,-178"/>
<text text-anchor="middle" x="220" y="-162.8" font-family="Times,serif" font-size="14.00" fill="#000000">Sennheiser HD201 headphones</text>
<text text-anchor="middle" x="220" y="-147.8" font-family="Times,serif" font-size="14.00" fill="#000000">3.5mm trs stereo male</text>
<text text-anchor="middle" x="220" y="-132.8" font-family="Times,serif" font-size="14.00" fill="#000000">rental budgetcam</text>
</a>
</g>
</g>
<!-- camera_audio_monitor&#45;&gt;headphones -->
<g id="edge14" class="edge">
<title>camera_audio_monitor&#45;&gt;headphones</title>
<path fill="none" stroke="#000000" d="M220,-287.494C220,-262.8729 220,-219.4209 220,-188.2542"/>
<polygon fill="#000000" stroke="#000000" points="223.5001,-188.2005 220,-178.2006 216.5001,-188.2006 223.5001,-188.2005"/>
</g>
<!-- camera_ac_in -->
<g id="node19" class="node">
<title>camera_ac_in</title>
<polygon fill="none" stroke="#000000" points="126,-324.5 16,-324.5 16,-288.5 126,-288.5 126,-324.5"/>
<text text-anchor="middle" x="71" y="-302.8" font-family="Times,serif" font-size="14.00" fill="#000000">camera AC input</text>
</g>
<!-- cam_box_switch -->
<g id="node21" class="node">
<title>cam_box_switch</title>
<polygon fill="#d3d3d3" stroke="#000000" points="1930,-169.5 1798,-169.5 1798,-133.5 1930,-133.5 1930,-169.5"/>
<text text-anchor="middle" x="1864" y="-147.8" font-family="Times,serif" font-size="14.00" fill="#000000">3x Gbit dumb switch</text>
</g>
<!-- video_vlan -->
<g id="node32" class="node">
<title>video_vlan</title>
<polygon fill="none" stroke="#000000" stroke-dasharray="1,5" points="1977.5,-74 1844.5,-74 1844.5,-38 1977.5,-38 1977.5,-74"/>
<text text-anchor="middle" x="1911" y="-52.3" font-family="Times,serif" font-size="14.00" fill="#000000">FOSDEM video vlan</text>
</g>
<!-- cam_box_switch&#45;&gt;video_vlan -->
<g id="edge16" class="edge">
<title>cam_box_switch&#45;&gt;video_vlan</title>
<path fill="none" stroke="#000000" d="M1861.4018,-123.1565C1861.5926,-112.8648 1863.1934,-101.452 1868,-92 1869.9363,-88.1923 1872.472,-84.6324 1875.3447,-81.3471"/>
<polygon fill="#000000" stroke="#000000" points="1857.9071,-123.4304 1861.6382,-133.3466 1864.9053,-123.2681 1857.9071,-123.4304"/>
<polygon fill="#000000" stroke="#000000" points="1877.9153,-83.7268 1882.5358,-74.1925 1872.9781,-78.7644 1877.9153,-83.7268"/>
<text text-anchor="middle" x="1906" y="-95.8" font-family="Times,serif" font-size="14.00" fill="#000000">ethernet cable</text>
</g>
<!-- cam_box_ac_in -->
<g id="node22" class="node">
<title>cam_box_ac_in</title>
<polygon fill="#d3d3d3" stroke="#000000" points="1780,-169.5 1726,-169.5 1726,-133.5 1780,-133.5 1780,-169.5"/>
<text text-anchor="middle" x="1753" y="-147.8" font-family="Times,serif" font-size="14.00" fill="#000000">AC in</text>
</g>
<!-- speaker_box_hdmi_out -->
<g id="node24" class="node">
<title>speaker_box_hdmi_out</title>
<polygon fill="#d3d3d3" stroke="#000000" points="1716,-488 1616,-488 1616,-435 1716,-435 1716,-488"/>
<text text-anchor="middle" x="1666" y="-472.8" font-family="Times,serif" font-size="14.00" fill="#000000">hdmi out</text>
<text text-anchor="middle" x="1666" y="-457.8" font-family="Times,serif" font-size="14.00" fill="#000000">right hdmi port</text>
<text text-anchor="middle" x="1666" y="-442.8" font-family="Times,serif" font-size="14.00" fill="#000000">female</text>
</g>
<!-- room_projector -->
<g id="node30" class="node">
<title>room_projector</title>
<polygon fill="none" stroke="#000000" points="1478.5,-340.5 1325.5,-340.5 1325.5,-272.5 1478.5,-272.5 1478.5,-340.5"/>
<text text-anchor="middle" x="1402" y="-325.3" font-family="Times,serif" font-size="14.00" fill="#000000">room projector HDMI in</text>
<text text-anchor="middle" x="1402" y="-310.3" font-family="Times,serif" font-size="14.00" fill="#000000">HDMI port</text>
<text text-anchor="middle" x="1402" y="-295.3" font-family="Times,serif" font-size="14.00" fill="#000000">female</text>
<text text-anchor="middle" x="1402" y="-280.3" font-family="Times,serif" font-size="14.00" fill="#000000">exception: H2215 VGA</text>
</g>
<!-- speaker_box_hdmi_out&#45;&gt;room_projector -->
<g id="edge13" class="edge">
<title>speaker_box_hdmi_out&#45;&gt;room_projector</title>
<path fill="none" stroke="#000000" d="M1620.6168,-434.8546C1578.842,-410.3277 1516.3449,-373.6343 1468.8583,-345.7539"/>
<polygon fill="#000000" stroke="#000000" points="1470.5702,-342.7004 1460.1746,-340.6555 1467.0261,-348.7369 1470.5702,-342.7004"/>
<text text-anchor="middle" x="1622" y="-405.8" font-family="Times,serif" font-size="14.00" fill="#000000">HDMI cable</text>
<text text-anchor="middle" x="1622" y="-390.8" font-family="Times,serif" font-size="14.00" fill="#000000">male/male</text>
</g>
<!-- speaker_box_switch -->
<g id="node25" class="node">
<title>speaker_box_switch</title>
<polygon fill="#d3d3d3" stroke="#000000" points="1866,-479.5 1734,-479.5 1734,-443.5 1866,-443.5 1866,-479.5"/>
<text text-anchor="middle" x="1800" y="-457.8" font-family="Times,serif" font-size="14.00" fill="#000000">3x Gbit dumb switch</text>
</g>
<!-- speaker_box_switch&#45;&gt;cam_box_switch -->
<g id="edge17" class="edge">
<title>speaker_box_switch&#45;&gt;cam_box_switch</title>
<path fill="none" stroke="#000000" d="M1850.9047,-439.0231C1874.7925,-427.3299 1899.4528,-413.1832 1906,-402"/>
<polygon fill="#000000" stroke="#000000" points="1849.3323,-435.8954 1841.8267,-443.3732 1852.3573,-442.2081 1849.3323,-435.8954"/>
<path fill="none" stroke="#000000" d="M1906,-402C1915.9741,-384.9634 1877.8442,-396.112 1868,-379 1831.5275,-315.6009 1845.7212,-224.9021 1856.3701,-179.5586"/>
<polygon fill="#000000" stroke="#000000" points="1859.8383,-180.1123 1858.8349,-169.5651 1853.042,-178.436 1859.8383,-180.1123"/>
<text text-anchor="middle" x="1906" y="-302.8" font-family="Times,serif" font-size="14.00" fill="#000000">ethernet cable</text>
</g>
<!-- speaker_box_switch&#45;&gt;video_vlan -->
<g id="edge15" class="edge">
<title>speaker_box_switch&#45;&gt;video_vlan</title>
<path fill="none" stroke="#000000" d="M1906,-402C1916.5905,-385.3396 1934.3065,-396.1978 1944,-379 2006.6321,-267.88 1990.2418,-210.8786 1944,-92 1942.7004,-88.659 1940.9299,-85.4396 1938.8795,-82.3928"/>
<polygon fill="#000000" stroke="#000000" points="1941.4518,-80.0017 1932.5185,-74.3053 1935.9497,-84.3292 1941.4518,-80.0017"/>
<text text-anchor="middle" x="2023" y="-228.3" font-family="Times,serif" font-size="14.00" fill="#000000">ethernet cable</text>
</g>
<!-- speaker_box_ac_in -->
<g id="node26" class="node">
<title>speaker_box_ac_in</title>
<polygon fill="#d3d3d3" stroke="#000000" points="1598,-479.5 1544,-479.5 1544,-443.5 1598,-443.5 1598,-479.5"/>
<text text-anchor="middle" x="1571" y="-457.8" font-family="Times,serif" font-size="14.00" fill="#000000">AC in</text>
</g>
<!-- cam_power_strip -->
<g id="node27" class="node">
<title>cam_power_strip</title>
<polygon fill="none" stroke="#000000" points="886,-629 716,-629 716,-591 886,-591 886,-629"/>
<text text-anchor="middle" x="801" y="-613.8" font-family="Times,serif" font-size="14.00" fill="#000000">camera side power strip</text>
<text text-anchor="middle" x="801" y="-598.8" font-family="Times,serif" font-size="14.00" fill="#000000">&gt;=3 CEE 7/3 or 7/5 sockets</text>
</g>
<!-- cam_power_strip&#45;&gt;mix_panel_ac_in -->
<g id="edge20" class="edge">
<title>cam_power_strip&#45;&gt;mix_panel_ac_in</title>
<path fill="none" stroke="#000000" d="M801,-565.5C802.1965,-556.2945 809.88,-557.7433 815,-550 827.6871,-530.8123 838.4544,-507.0684 845.7669,-489.0066"/>
<polygon fill="#000000" stroke="#000000" points="849.055,-490.2088 849.4642,-479.6218 842.5422,-487.6429 849.055,-490.2088"/>
</g>
<!-- cam_power_strip&#45;&gt;camera_ac_in -->
<g id="edge18" class="edge">
<title>cam_power_strip&#45;&gt;camera_ac_in</title>
<path fill="none" stroke="#000000" d="M799.9217,-590.874C799.7565,-582.987 799.9245,-573.7741 801,-565.5"/>
<path fill="none" stroke="#000000" d="M801,-565.5C805.6831,-529.4697 823.2032,-430.7599 801,-402"/>
<path fill="none" stroke="#000000" d="M801,-402C776.9326,-373.8683 168.4791,-394.8045 135,-379 114.5034,-369.3242 97.8264,-349.6917 86.6405,-333.2945"/>
<polygon fill="#000000" stroke="#000000" points="89.3801,-331.0863 81.0017,-324.6015 83.5074,-334.8958 89.3801,-331.0863"/>
</g>
<!-- cam_power_strip&#45;&gt;cam_box_ac_in -->
<g id="edge19" class="edge">
<title>cam_power_strip&#45;&gt;cam_box_ac_in</title>
<path fill="none" stroke="#000000" d="M801,-402C749.3544,-341.6332 1054.0439,-284.2275 1131,-264.5 1384.7407,-199.4541 1490.587,-333.2288 1717,-201.5 1726.2917,-196.094 1733.8363,-187.2267 1739.5734,-178.4489"/>
<polygon fill="#000000" stroke="#000000" points="1742.5952,-180.2149 1744.7058,-169.8324 1736.5813,-176.6327 1742.5952,-180.2149"/>
</g>
<!-- speaker_power_strip -->
<g id="node28" class="node">
<title>speaker_power_strip</title>
<polygon fill="none" stroke="#000000" points="1757,-949 1587,-949 1587,-911 1757,-911 1757,-949"/>
<text text-anchor="middle" x="1672" y="-933.8" font-family="Times,serif" font-size="14.00" fill="#000000">speaker side power strip</text>
<text text-anchor="middle" x="1672" y="-918.8" font-family="Times,serif" font-size="14.00" fill="#000000">&gt;=3 CEE 7/3 or 7/5 sockets</text>
</g>
<!-- speaker_power_strip&#45;&gt;speaker_laptop -->
<g id="edge21" class="edge">
<title>speaker_power_strip&#45;&gt;speaker_laptop</title>
<path fill="none" stroke="#000000" d="M1672,-892.5C1675.3644,-881.9296 1695.0667,-867.6907 1714.6551,-855.7367"/>
<polygon fill="#000000" stroke="#000000" points="1716.486,-858.7201 1723.2906,-850.5992 1712.9069,-852.7042 1716.486,-858.7201"/>
</g>
<!-- speaker_power_strip&#45;&gt;speaker_box_ac_in -->
<g id="edge22" class="edge">
<title>speaker_power_strip&#45;&gt;speaker_box_ac_in</title>
<path fill="none" stroke="#000000" d="M1669.7702,-910.9607C1669.6509,-904.9365 1670.1439,-898.3315 1672,-892.5"/>
<path fill="none" stroke="#000000" d="M1672,-892.5C1696.6136,-815.1687 1611.8789,-572.1033 1581.462,-489.3833"/>
<polygon fill="#000000" stroke="#000000" points="1584.7035,-488.0578 1577.9513,-479.8933 1578.1383,-490.4865 1584.7035,-488.0578"/>
</g>
</g>
</svg>
