<?xml version="1.0" encoding="UTF-8" standalone="no"?>
<!DOCTYPE svg PUBLIC "-//W3C//DTD SVG 1.1//EN"
 "http://www.w3.org/Graphics/SVG/1.1/DTD/svg11.dtd">
<!-- Generated by graphviz version 2.40.1 (20161225.0304)
 -->
<!-- Title: G Pages: 1 -->
<svg width="2285pt" height="859pt"
 viewBox="0.00 0.00 2284.50 858.50" xmlns="http://www.w3.org/2000/svg" xmlns:xlink="http://www.w3.org/1999/xlink">
<g id="graph0" class="graph" transform="scale(1 1) rotate(0) translate(4 854.5)">
<title>G</title>
<polygon fill="#ffffff" stroke="transparent" points="-4,4 -4,-854.5 2280.5,-854.5 2280.5,4 -4,4"/>
<text text-anchor="middle" x="1138.25" y="-22.8" font-family="Times,serif" font-size="14.00" fill="#000000">FOSDEM 2019 xxl rooms video cabling setup:</text>
<text text-anchor="middle" x="1138.25" y="-7.8" font-family="Times,serif" font-size="14.00" fill="#000000">janson, k1105</text>
<g id="clust1" class="cluster">
<title>cluster_speaker_microphone_receiver</title>
<g id="a_clust1"><a xlink:href="https://en-us.sennheiser.com/global-downloads/file/671/Set100PG3_US_INT.pdf" xlink:title="speaker microphone receiver\nULB provided\nSennheiser G3 series\nautonomy: ?\n?AC powered EM{1,3}00?\n?DC: ?xAA batteries">
<polygon fill="none" stroke="#000000" points="1596.5,-574.5 1596.5,-726.5 1866.5,-726.5 1866.5,-574.5 1596.5,-574.5"/>
<text text-anchor="middle" x="1731.5" y="-711.3" font-family="Times,serif" font-size="14.00" fill="#000000">speaker microphone receiver</text>
<text text-anchor="middle" x="1731.5" y="-696.3" font-family="Times,serif" font-size="14.00" fill="#000000">ULB provided</text>
<text text-anchor="middle" x="1731.5" y="-681.3" font-family="Times,serif" font-size="14.00" fill="#000000">Sennheiser G3 series</text>
<text text-anchor="middle" x="1731.5" y="-666.3" font-family="Times,serif" font-size="14.00" fill="#000000">autonomy: ?</text>
<text text-anchor="middle" x="1731.5" y="-651.3" font-family="Times,serif" font-size="14.00" fill="#000000">?AC powered EM{1,3}00?</text>
<text text-anchor="middle" x="1731.5" y="-636.3" font-family="Times,serif" font-size="14.00" fill="#000000">?DC: ?xAA batteries</text>
</a>
</g>
</g>
<g id="clust2" class="cluster">
<title>cluster_audience_microphone_1_receiver</title>
<g id="a_clust2"><a xlink:href="https://en-us.sennheiser.com/global-downloads/file/671/Set100PG3_US_INT.pdf" xlink:title="speaker microphone receiver\nULB provided\nSennheiser G3 series\nautonomy: ?\n?AC powered EM{1,3}00?\n?DC: ?xAA batteries">
<polygon fill="none" stroke="#000000" points="1884.5,-574.5 1884.5,-726.5 2154.5,-726.5 2154.5,-574.5 1884.5,-574.5"/>
<text text-anchor="middle" x="2019.5" y="-711.3" font-family="Times,serif" font-size="14.00" fill="#000000">speaker microphone receiver</text>
<text text-anchor="middle" x="2019.5" y="-696.3" font-family="Times,serif" font-size="14.00" fill="#000000">ULB provided</text>
<text text-anchor="middle" x="2019.5" y="-681.3" font-family="Times,serif" font-size="14.00" fill="#000000">Sennheiser G3 series</text>
<text text-anchor="middle" x="2019.5" y="-666.3" font-family="Times,serif" font-size="14.00" fill="#000000">autonomy: ?</text>
<text text-anchor="middle" x="2019.5" y="-651.3" font-family="Times,serif" font-size="14.00" fill="#000000">?AC powered EM{1,3}00?</text>
<text text-anchor="middle" x="2019.5" y="-636.3" font-family="Times,serif" font-size="14.00" fill="#000000">?DC: ?xAA batteries</text>
</a>
</g>
</g>
<g id="clust3" class="cluster">
<title>cluster_audience_microphone_2_receiver</title>
<g id="a_clust3"><a xlink:href="https://en-us.sennheiser.com/global-downloads/file/671/Set100PG3_US_INT.pdf" xlink:title="speaker microphone receiver\nULB provided\nSennheiser G3 series\nautonomy: ?\n?AC powered EM{1,3}00?\n?DC: ?xAA batteries">
<polygon fill="none" stroke="#000000" points="1308.5,-574.5 1308.5,-726.5 1578.5,-726.5 1578.5,-574.5 1308.5,-574.5"/>
<text text-anchor="middle" x="1443.5" y="-711.3" font-family="Times,serif" font-size="14.00" fill="#000000">speaker microphone receiver</text>
<text text-anchor="middle" x="1443.5" y="-696.3" font-family="Times,serif" font-size="14.00" fill="#000000">ULB provided</text>
<text text-anchor="middle" x="1443.5" y="-681.3" font-family="Times,serif" font-size="14.00" fill="#000000">Sennheiser G3 series</text>
<text text-anchor="middle" x="1443.5" y="-666.3" font-family="Times,serif" font-size="14.00" fill="#000000">autonomy: ?</text>
<text text-anchor="middle" x="1443.5" y="-651.3" font-family="Times,serif" font-size="14.00" fill="#000000">?AC powered EM{1,3}00?</text>
<text text-anchor="middle" x="1443.5" y="-636.3" font-family="Times,serif" font-size="14.00" fill="#000000">?DC: ?xAA batteries</text>
</a>
</g>
</g>
<g id="clust5" class="cluster">
<title>cluster_camera</title>
<g id="a_clust5"><a xlink:href="https://pro.sony.com/bbsccms/assets/files/micro/nxcam/latest/Sony_HXR-NX100.pdf" xlink:title="camera\nSony HXR&#45;NX100">
<polygon fill="none" stroke="#000000" points="802.5,-264.5 802.5,-371.5 1719.5,-371.5 1719.5,-264.5 802.5,-264.5"/>
<text text-anchor="middle" x="1261" y="-356.3" font-family="Times,serif" font-size="14.00" fill="#000000">camera</text>
<text text-anchor="middle" x="1261" y="-341.3" font-family="Times,serif" font-size="14.00" fill="#000000">Sony HXR&#45;NX100</text>
</a>
</g>
</g>
<g id="clust7" class="cluster">
<title>cluster_cam_box</title>
<g id="a_clust7"><a xlink:href="https://github.com/FOSDEM/video" xlink:title="camera box">
<polygon fill="none" stroke="#d3d3d3" points="563.5,-124.5 563.5,-201.5 965.5,-201.5 965.5,-124.5 563.5,-124.5"/>
<text text-anchor="middle" x="764.5" y="-186.3" font-family="Times,serif" font-size="14.00" fill="#000000">camera box</text>
</a>
</g>
</g>
<g id="clust8" class="cluster">
<title>cluster_speaker_box</title>
<g id="a_clust8"><a xlink:href="https://github.com/FOSDEM/video" xlink:title="speaker box">
<polygon fill="none" stroke="#d3d3d3" points="122.5,-264.5 122.5,-356.5 588.5,-356.5 588.5,-264.5 122.5,-264.5"/>
<text text-anchor="middle" x="355.5" y="-341.3" font-family="Times,serif" font-size="14.00" fill="#000000">speaker box</text>
</a>
</g>
</g>
<g id="clust9" class="cluster">
<title>cluster_mix_panel</title>
<polygon fill="none" stroke="#000000" points="1110.5,-419.5 1110.5,-526.5 1963.5,-526.5 1963.5,-419.5 1110.5,-419.5"/>
<text text-anchor="middle" x="1537" y="-511.3" font-family="Times,serif" font-size="14.00" fill="#000000">audio mix panel</text>
<text text-anchor="middle" x="1537" y="-496.3" font-family="Times,serif" font-size="14.00" fill="#000000">?ULB provided</text>
</g>
<!-- speaker_microphone -->
<g id="node1" class="node">
<title>speaker_microphone</title>
<g id="a_node1"><a xlink:href="https://en-us.sennheiser.com/global-downloads/file/671/Set100PG3_US_INT.pdf" xlink:title="speaker microphone\nULB provided\nSennheiser G3 series\n G3 bodypack transmitter\nautonomy: ?h (2x AA)">
<polygon fill="none" stroke="#000000" points="1809.5,-850.5 1653.5,-850.5 1653.5,-767.5 1809.5,-767.5 1809.5,-850.5"/>
<text text-anchor="middle" x="1731.5" y="-835.3" font-family="Times,serif" font-size="14.00" fill="#000000">speaker microphone</text>
<text text-anchor="middle" x="1731.5" y="-820.3" font-family="Times,serif" font-size="14.00" fill="#000000">ULB provided</text>
<text text-anchor="middle" x="1731.5" y="-805.3" font-family="Times,serif" font-size="14.00" fill="#000000">Sennheiser G3 series</text>
<text text-anchor="middle" x="1731.5" y="-790.3" font-family="Times,serif" font-size="14.00" fill="#000000"> G3 bodypack transmitter</text>
<text text-anchor="middle" x="1731.5" y="-775.3" font-family="Times,serif" font-size="14.00" fill="#000000">autonomy: ?h (2x AA)</text>
</a>
</g>
</g>
<!-- speaker_microphone_receiver_audio_out -->
<g id="node4" class="node">
<title>speaker_microphone_receiver_audio_out</title>
<polygon fill="none" stroke="#000000" points="1858,-620.5 1605,-620.5 1605,-582.5 1858,-582.5 1858,-620.5"/>
<text text-anchor="middle" x="1731.5" y="-605.3" font-family="Times,serif" font-size="14.00" fill="#000000">audio out</text>
<text text-anchor="middle" x="1731.5" y="-590.3" font-family="Times,serif" font-size="14.00" fill="#000000">3.5mm trs ?unbalanced ?mono female port</text>
</g>
<!-- speaker_microphone&#45;&gt;speaker_microphone_receiver_audio_out -->
<g id="edge1" class="edge">
<title>speaker_microphone&#45;&gt;speaker_microphone_receiver_audio_out</title>
<path fill="none" stroke="#000000" d="M1731.5,-767.0093C1731.5,-757.7213 1731.5,-747.3951 1731.5,-736.5667"/>
<polygon fill="#000000" stroke="#000000" points="1735.0001,-736.4963 1731.5,-726.4964 1728.0001,-736.4964 1735.0001,-736.4963"/>
<text text-anchor="middle" x="1808.5" y="-738.3" font-family="Times,serif" font-size="14.00" fill="#000000">+&#45;600 MHz analog wireless</text>
</g>
<!-- audience_microphone_1 -->
<g id="node2" class="node">
<title>audience_microphone_1</title>
<g id="a_node2"><a xlink:href="https://en-us.sennheiser.com/global-downloads/file/671/Set100PG3_US_INT.pdf" xlink:title="audience microphone\nULB provided\nSennheiser G3 series\nautonomy: ?h\nDC: ?xAA batteries">
<polygon fill="none" stroke="#000000" points="2086.5,-850.5 1952.5,-850.5 1952.5,-767.5 2086.5,-767.5 2086.5,-850.5"/>
<text text-anchor="middle" x="2019.5" y="-835.3" font-family="Times,serif" font-size="14.00" fill="#000000">audience microphone</text>
<text text-anchor="middle" x="2019.5" y="-820.3" font-family="Times,serif" font-size="14.00" fill="#000000">ULB provided</text>
<text text-anchor="middle" x="2019.5" y="-805.3" font-family="Times,serif" font-size="14.00" fill="#000000">Sennheiser G3 series</text>
<text text-anchor="middle" x="2019.5" y="-790.3" font-family="Times,serif" font-size="14.00" fill="#000000">autonomy: ?h</text>
<text text-anchor="middle" x="2019.5" y="-775.3" font-family="Times,serif" font-size="14.00" fill="#000000">DC: ?xAA batteries</text>
</a>
</g>
</g>
<!-- audience_microphone_1_receiver_audio_out -->
<g id="node5" class="node">
<title>audience_microphone_1_receiver_audio_out</title>
<polygon fill="none" stroke="#000000" points="2146,-620.5 1893,-620.5 1893,-582.5 2146,-582.5 2146,-620.5"/>
<text text-anchor="middle" x="2019.5" y="-605.3" font-family="Times,serif" font-size="14.00" fill="#000000">audio out</text>
<text text-anchor="middle" x="2019.5" y="-590.3" font-family="Times,serif" font-size="14.00" fill="#000000">3.5mm trs ?unbalanced ?mono female port</text>
</g>
<!-- audience_microphone_1&#45;&gt;audience_microphone_1_receiver_audio_out -->
<g id="edge2" class="edge">
<title>audience_microphone_1&#45;&gt;audience_microphone_1_receiver_audio_out</title>
<path fill="none" stroke="#000000" d="M2019.5,-767.0093C2019.5,-757.7213 2019.5,-747.3951 2019.5,-736.5667"/>
<polygon fill="#000000" stroke="#000000" points="2023.0001,-736.4963 2019.5,-726.4964 2016.0001,-736.4964 2023.0001,-736.4963"/>
<text text-anchor="middle" x="2096.5" y="-738.3" font-family="Times,serif" font-size="14.00" fill="#000000">+&#45;600 MHz analog wireless</text>
</g>
<!-- audience_microphone_2 -->
<g id="node3" class="node">
<title>audience_microphone_2</title>
<g id="a_node3"><a xlink:href="https://en-us.sennheiser.com/global-downloads/file/671/Set100PG3_US_INT.pdf" xlink:title="audience microphone\nULB provided\nSennheiser G3 series\nautonomy: ?h\nDC: ?xAA batteries">
<polygon fill="none" stroke="#000000" points="1510.5,-850.5 1376.5,-850.5 1376.5,-767.5 1510.5,-767.5 1510.5,-850.5"/>
<text text-anchor="middle" x="1443.5" y="-835.3" font-family="Times,serif" font-size="14.00" fill="#000000">audience microphone</text>
<text text-anchor="middle" x="1443.5" y="-820.3" font-family="Times,serif" font-size="14.00" fill="#000000">ULB provided</text>
<text text-anchor="middle" x="1443.5" y="-805.3" font-family="Times,serif" font-size="14.00" fill="#000000">Sennheiser G3 series</text>
<text text-anchor="middle" x="1443.5" y="-790.3" font-family="Times,serif" font-size="14.00" fill="#000000">autonomy: ?h</text>
<text text-anchor="middle" x="1443.5" y="-775.3" font-family="Times,serif" font-size="14.00" fill="#000000">DC: ?xAA batteries</text>
</a>
</g>
</g>
<!-- audience_microphone_2_receiver_audio_out -->
<g id="node6" class="node">
<title>audience_microphone_2_receiver_audio_out</title>
<polygon fill="none" stroke="#000000" points="1570,-620.5 1317,-620.5 1317,-582.5 1570,-582.5 1570,-620.5"/>
<text text-anchor="middle" x="1443.5" y="-605.3" font-family="Times,serif" font-size="14.00" fill="#000000">audio out</text>
<text text-anchor="middle" x="1443.5" y="-590.3" font-family="Times,serif" font-size="14.00" fill="#000000">3.5mm trs ?unbalanced ?mono female port</text>
</g>
<!-- audience_microphone_2&#45;&gt;audience_microphone_2_receiver_audio_out -->
<g id="edge3" class="edge">
<title>audience_microphone_2&#45;&gt;audience_microphone_2_receiver_audio_out</title>
<path fill="none" stroke="#000000" d="M1443.5,-767.0093C1443.5,-757.7213 1443.5,-747.3951 1443.5,-736.5667"/>
<polygon fill="#000000" stroke="#000000" points="1447.0001,-736.4963 1443.5,-726.4964 1440.0001,-736.4964 1447.0001,-736.4963"/>
<text text-anchor="middle" x="1520.5" y="-738.3" font-family="Times,serif" font-size="14.00" fill="#000000">+&#45;600 MHz analog wireless</text>
</g>
<!-- mix_panel_mic_1_in -->
<g id="node21" class="node">
<title>mix_panel_mic_1_in</title>
<polygon fill="none" stroke="#000000" points="1800,-480.5 1663,-480.5 1663,-427.5 1800,-427.5 1800,-480.5"/>
<text text-anchor="middle" x="1731.5" y="-465.3" font-family="Times,serif" font-size="14.00" fill="#000000">mic 1 in</text>
<text text-anchor="middle" x="1731.5" y="-450.3" font-family="Times,serif" font-size="14.00" fill="#000000">XLR female port</text>
<text text-anchor="middle" x="1731.5" y="-435.3" font-family="Times,serif" font-size="14.00" fill="#000000">+48V phantom power</text>
</g>
<!-- speaker_microphone_receiver_audio_out&#45;&gt;mix_panel_mic_1_in -->
<g id="edge4" class="edge">
<title>speaker_microphone_receiver_audio_out&#45;&gt;mix_panel_mic_1_in</title>
<path fill="none" stroke="#000000" d="M1731.5,-582.217C1731.5,-559.0574 1731.5,-519.7071 1731.5,-490.694"/>
<polygon fill="#000000" stroke="#000000" points="1735.0001,-490.5217 1731.5,-480.5217 1728.0001,-490.5218 1735.0001,-490.5217"/>
<text text-anchor="middle" x="1864" y="-545.8" font-family="Times,serif" font-size="14.00" fill="#000000">3.5mm trs mono unbalanced male to XLR male</text>
</g>
<!-- mix_panel_mic_2_in -->
<g id="node22" class="node">
<title>mix_panel_mic_2_in</title>
<polygon fill="none" stroke="#000000" points="1955,-480.5 1818,-480.5 1818,-427.5 1955,-427.5 1955,-480.5"/>
<text text-anchor="middle" x="1886.5" y="-465.3" font-family="Times,serif" font-size="14.00" fill="#000000">mic 2 in</text>
<text text-anchor="middle" x="1886.5" y="-450.3" font-family="Times,serif" font-size="14.00" fill="#000000">XLR female port</text>
<text text-anchor="middle" x="1886.5" y="-435.3" font-family="Times,serif" font-size="14.00" fill="#000000">+48V phantom power</text>
</g>
<!-- audience_microphone_1_receiver_audio_out&#45;&gt;mix_panel_mic_2_in -->
<g id="edge5" class="edge">
<title>audience_microphone_1_receiver_audio_out&#45;&gt;mix_panel_mic_2_in</title>
<path fill="none" stroke="#000000" d="M2016.5184,-582.4267C2013.5529,-568.1612 2007.8909,-548.7423 1997.5,-534.5 1983.567,-515.4028 1963.741,-499.0084 1944.6903,-486.0936"/>
<polygon fill="#000000" stroke="#000000" points="1946.5863,-483.1515 1936.3054,-480.5912 1942.7458,-489.0039 1946.5863,-483.1515"/>
<text text-anchor="middle" x="2144" y="-545.8" font-family="Times,serif" font-size="14.00" fill="#000000">3.5mm trs mono unbalanced male to XLR male</text>
</g>
<!-- mix_panel_mic_3_in -->
<g id="node23" class="node">
<title>mix_panel_mic_3_in</title>
<polygon fill="none" stroke="#000000" points="1645,-480.5 1508,-480.5 1508,-427.5 1645,-427.5 1645,-480.5"/>
<text text-anchor="middle" x="1576.5" y="-465.3" font-family="Times,serif" font-size="14.00" fill="#000000">mic 3 in</text>
<text text-anchor="middle" x="1576.5" y="-450.3" font-family="Times,serif" font-size="14.00" fill="#000000">XLR female port</text>
<text text-anchor="middle" x="1576.5" y="-435.3" font-family="Times,serif" font-size="14.00" fill="#000000">+48V phantom power</text>
</g>
<!-- audience_microphone_2_receiver_audio_out&#45;&gt;mix_panel_mic_3_in -->
<g id="edge6" class="edge">
<title>audience_microphone_2_receiver_audio_out&#45;&gt;mix_panel_mic_3_in</title>
<path fill="none" stroke="#000000" d="M1443.8249,-582.3261C1445.1407,-567.2256 1449.4523,-546.7457 1462.5,-534.5 1474.7677,-522.9863 1484.609,-534.3306 1499.5,-526.5 1517.5997,-516.982 1534.5248,-502.0233 1547.8715,-488.1594"/>
<polygon fill="#000000" stroke="#000000" points="1550.6476,-490.3142 1554.9029,-480.6114 1545.5257,-485.5428 1550.6476,-490.3142"/>
<text text-anchor="middle" x="1595" y="-545.8" font-family="Times,serif" font-size="14.00" fill="#000000">3.5mm trs mono unbalanced male to XLR male</text>
</g>
<!-- vga_hdmi_adapter -->
<g id="node7" class="node">
<title>vga_hdmi_adapter</title>
<polygon fill="none" stroke="#000000" stroke-dasharray="1,5" points="169,-472 0,-472 0,-436 169,-436 169,-472"/>
<text text-anchor="middle" x="84.5" y="-450.3" font-family="Times,serif" font-size="14.00" fill="#000000">optional vga&#45;&gt;hdmi adapter</text>
</g>
<!-- speaker_box_hdmi_in -->
<g id="node17" class="node">
<title>speaker_box_hdmi_in</title>
<polygon fill="#d3d3d3" stroke="#000000" points="232,-325.5 131,-325.5 131,-272.5 232,-272.5 232,-325.5"/>
<text text-anchor="middle" x="181.5" y="-310.3" font-family="Times,serif" font-size="14.00" fill="#000000">HDMI in</text>
<text text-anchor="middle" x="181.5" y="-295.3" font-family="Times,serif" font-size="14.00" fill="#000000">left HDMI port</text>
<text text-anchor="middle" x="181.5" y="-280.3" font-family="Times,serif" font-size="14.00" fill="#000000">female</text>
</g>
<!-- vga_hdmi_adapter&#45;&gt;speaker_box_hdmi_in -->
<g id="edge11" class="edge">
<title>vga_hdmi_adapter&#45;&gt;speaker_box_hdmi_in</title>
<path fill="none" stroke="#000000" stroke-dasharray="1,5" d="M84.5456,-435.8234C85.2899,-420.0733 88.1128,-397.1112 97.5,-379.5 107.047,-361.5888 122.0412,-345.3359 136.7353,-332.1991"/>
<polygon fill="#000000" stroke="#000000" points="139.0753,-334.8029 144.3617,-325.6211 134.5033,-329.5022 139.0753,-334.8029"/>
<text text-anchor="middle" x="163" y="-390.8" font-family="Times,serif" font-size="14.00" fill="#000000">HDMI cable male/male</text>
</g>
<!-- camera_xlr_in_1 -->
<g id="node8" class="node">
<title>camera_xlr_in_1</title>
<polygon fill="none" stroke="#000000" points="1711,-325.5 1582,-325.5 1582,-272.5 1711,-272.5 1711,-325.5"/>
<text text-anchor="middle" x="1646.5" y="-310.3" font-family="Times,serif" font-size="14.00" fill="#000000">audio in CH1</text>
<text text-anchor="middle" x="1646.5" y="-295.3" font-family="Times,serif" font-size="14.00" fill="#000000">XLR female port</text>
<text text-anchor="middle" x="1646.5" y="-280.3" font-family="Times,serif" font-size="14.00" fill="#000000">48V phantom power</text>
</g>
<!-- camera_xlr_in_2 -->
<g id="node9" class="node">
<title>camera_xlr_in_2</title>
<polygon fill="none" stroke="#000000" points="1564,-325.5 1435,-325.5 1435,-272.5 1564,-272.5 1564,-325.5"/>
<text text-anchor="middle" x="1499.5" y="-310.3" font-family="Times,serif" font-size="14.00" fill="#000000">audio in CH2</text>
<text text-anchor="middle" x="1499.5" y="-295.3" font-family="Times,serif" font-size="14.00" fill="#000000">XLR female port</text>
<text text-anchor="middle" x="1499.5" y="-280.3" font-family="Times,serif" font-size="14.00" fill="#000000">48V phantom power</text>
</g>
<!-- camera_hdmi_out -->
<g id="node10" class="node">
<title>camera_hdmi_out</title>
<polygon fill="none" stroke="#000000" points="1102.5,-318 938.5,-318 938.5,-280 1102.5,-280 1102.5,-318"/>
<text text-anchor="middle" x="1020.5" y="-302.8" font-family="Times,serif" font-size="14.00" fill="#000000">HDMI out</text>
<text text-anchor="middle" x="1020.5" y="-287.8" font-family="Times,serif" font-size="14.00" fill="#000000">HDMI A (full size) female</text>
</g>
<!-- cam_box_hdmi_in -->
<g id="node14" class="node">
<title>cam_box_hdmi_in</title>
<polygon fill="#d3d3d3" stroke="#000000" points="957.5,-170.5 793.5,-170.5 793.5,-132.5 957.5,-132.5 957.5,-170.5"/>
<text text-anchor="middle" x="875.5" y="-155.3" font-family="Times,serif" font-size="14.00" fill="#000000">HDMI in</text>
<text text-anchor="middle" x="875.5" y="-140.3" font-family="Times,serif" font-size="14.00" fill="#000000">HDMI A (full size) female</text>
</g>
<!-- camera_hdmi_out&#45;&gt;cam_box_hdmi_in -->
<g id="edge12" class="edge">
<title>camera_hdmi_out&#45;&gt;cam_box_hdmi_in</title>
<path fill="none" stroke="#000000" d="M1001.5438,-279.717C976.0342,-253.7676 930.5426,-207.4916 901.7527,-178.2054"/>
<polygon fill="#000000" stroke="#000000" points="903.9672,-175.4654 894.4609,-170.7878 898.9753,-180.3727 903.9672,-175.4654"/>
<text text-anchor="middle" x="1027" y="-243.3" font-family="Times,serif" font-size="14.00" fill="#000000">HDMI cable</text>
<text text-anchor="middle" x="1027" y="-228.3" font-family="Times,serif" font-size="14.00" fill="#000000">HDMI A (full size)</text>
<text text-anchor="middle" x="1027" y="-213.3" font-family="Times,serif" font-size="14.00" fill="#000000">male/male</text>
</g>
<!-- camera_internal_mic -->
<g id="node11" class="node">
<title>camera_internal_mic</title>
<polygon fill="none" stroke="#000000" points="1248,-318 1121,-318 1121,-280 1248,-280 1248,-318"/>
<text text-anchor="middle" x="1184.5" y="-302.8" font-family="Times,serif" font-size="14.00" fill="#000000">audio in CH2</text>
<text text-anchor="middle" x="1184.5" y="-287.8" font-family="Times,serif" font-size="14.00" fill="#000000">internal microphone</text>
</g>
<!-- camera_audio_monitor -->
<g id="node12" class="node">
<title>camera_audio_monitor</title>
<polygon fill="none" stroke="#000000" points="1417,-318 1266,-318 1266,-280 1417,-280 1417,-318"/>
<text text-anchor="middle" x="1341.5" y="-302.8" font-family="Times,serif" font-size="14.00" fill="#000000">audio monitoring port</text>
<text text-anchor="middle" x="1341.5" y="-287.8" font-family="Times,serif" font-size="14.00" fill="#000000">3.5mm trs stereo female</text>
</g>
<!-- headphones -->
<g id="node30" class="node">
<title>headphones</title>
<g id="a_node30"><a xlink:href="https://en-us.sennheiser.com/over-ear-headphones-hd-201" xlink:title="Sennheiser HD201 headphones\n3.5mm trs stereo male\nrental budgetcam">
<polygon fill="none" stroke="#000000" points="1435,-178 1248,-178 1248,-125 1435,-125 1435,-178"/>
<text text-anchor="middle" x="1341.5" y="-162.8" font-family="Times,serif" font-size="14.00" fill="#000000">Sennheiser HD201 headphones</text>
<text text-anchor="middle" x="1341.5" y="-147.8" font-family="Times,serif" font-size="14.00" fill="#000000">3.5mm trs stereo male</text>
<text text-anchor="middle" x="1341.5" y="-132.8" font-family="Times,serif" font-size="14.00" fill="#000000">rental budgetcam</text>
</a>
</g>
</g>
<!-- camera_audio_monitor&#45;&gt;headphones -->
<g id="edge14" class="edge">
<title>camera_audio_monitor&#45;&gt;headphones</title>
<path fill="none" stroke="#000000" d="M1341.5,-279.717C1341.5,-256.5574 1341.5,-217.2071 1341.5,-188.194"/>
<polygon fill="#000000" stroke="#000000" points="1345.0001,-188.0217 1341.5,-178.0217 1338.0001,-188.0218 1345.0001,-188.0217"/>
</g>
<!-- camera_ac_in -->
<g id="node13" class="node">
<title>camera_ac_in</title>
<polygon fill="none" stroke="#000000" points="920.5,-317 810.5,-317 810.5,-281 920.5,-281 920.5,-317"/>
<text text-anchor="middle" x="865.5" y="-295.3" font-family="Times,serif" font-size="14.00" fill="#000000">camera AC input</text>
</g>
<!-- cam_box_switch -->
<g id="node15" class="node">
<title>cam_box_switch</title>
<polygon fill="#d3d3d3" stroke="#000000" points="703.5,-169.5 571.5,-169.5 571.5,-133.5 703.5,-133.5 703.5,-169.5"/>
<text text-anchor="middle" x="637.5" y="-147.8" font-family="Times,serif" font-size="14.00" fill="#000000">3x Gbit dumb switch</text>
</g>
<!-- video_vlan -->
<g id="node31" class="node">
<title>video_vlan</title>
<polygon fill="none" stroke="#000000" stroke-dasharray="1,5" points="542,-74 409,-74 409,-38 542,-38 542,-74"/>
<text text-anchor="middle" x="475.5" y="-52.3" font-family="Times,serif" font-size="14.00" fill="#000000">FOSDEM video vlan</text>
</g>
<!-- cam_box_switch&#45;&gt;video_vlan -->
<g id="edge16" class="edge">
<title>cam_box_switch&#45;&gt;video_vlan</title>
<path fill="none" stroke="#000000" d="M597.829,-128.1137C572.6847,-113.291 540.2826,-94.1898 515.1436,-79.3702"/>
<polygon fill="#000000" stroke="#000000" points="596.2557,-131.2491 606.6477,-133.3124 599.8106,-125.2189 596.2557,-131.2491"/>
<polygon fill="#000000" stroke="#000000" points="516.6294,-76.1832 506.2374,-74.1199 513.0745,-82.2134 516.6294,-76.1832"/>
<text text-anchor="middle" x="599.5" y="-95.8" font-family="Times,serif" font-size="14.00" fill="#000000">ethernet cable</text>
</g>
<!-- cam_box_ac_in -->
<g id="node16" class="node">
<title>cam_box_ac_in</title>
<polygon fill="#d3d3d3" stroke="#000000" points="775.5,-169.5 721.5,-169.5 721.5,-133.5 775.5,-133.5 775.5,-169.5"/>
<text text-anchor="middle" x="748.5" y="-147.8" font-family="Times,serif" font-size="14.00" fill="#000000">AC in</text>
</g>
<!-- speaker_box_hdmi_out -->
<g id="node18" class="node">
<title>speaker_box_hdmi_out</title>
<polygon fill="#d3d3d3" stroke="#000000" points="358.5,-325.5 250.5,-325.5 250.5,-272.5 358.5,-272.5 358.5,-325.5"/>
<text text-anchor="middle" x="304.5" y="-310.3" font-family="Times,serif" font-size="14.00" fill="#000000">HDMI out</text>
<text text-anchor="middle" x="304.5" y="-295.3" font-family="Times,serif" font-size="14.00" fill="#000000">right HDMI port</text>
<text text-anchor="middle" x="304.5" y="-280.3" font-family="Times,serif" font-size="14.00" fill="#000000">female</text>
</g>
<!-- room_projector -->
<g id="node29" class="node">
<title>room_projector</title>
<polygon fill="none" stroke="#000000" points="381,-178 228,-178 228,-125 381,-125 381,-178"/>
<text text-anchor="middle" x="304.5" y="-162.8" font-family="Times,serif" font-size="14.00" fill="#000000">room projector HDMI in</text>
<text text-anchor="middle" x="304.5" y="-147.8" font-family="Times,serif" font-size="14.00" fill="#000000">HDMI port</text>
<text text-anchor="middle" x="304.5" y="-132.8" font-family="Times,serif" font-size="14.00" fill="#000000">female</text>
</g>
<!-- speaker_box_hdmi_out&#45;&gt;room_projector -->
<g id="edge13" class="edge">
<title>speaker_box_hdmi_out&#45;&gt;room_projector</title>
<path fill="none" stroke="#000000" d="M304.5,-272.2889C304.5,-248.794 304.5,-214.3678 304.5,-188.2733"/>
<polygon fill="#000000" stroke="#000000" points="308.0001,-188.0124 304.5,-178.0124 301.0001,-188.0125 308.0001,-188.0124"/>
<text text-anchor="middle" x="339.5" y="-235.8" font-family="Times,serif" font-size="14.00" fill="#000000">HDMI cable</text>
<text text-anchor="middle" x="339.5" y="-220.8" font-family="Times,serif" font-size="14.00" fill="#000000">male/male</text>
</g>
<!-- speaker_box_switch -->
<g id="node19" class="node">
<title>speaker_box_switch</title>
<polygon fill="#d3d3d3" stroke="#000000" points="508.5,-317 376.5,-317 376.5,-281 508.5,-281 508.5,-317"/>
<text text-anchor="middle" x="442.5" y="-295.3" font-family="Times,serif" font-size="14.00" fill="#000000">3x Gbit dumb switch</text>
</g>
<!-- speaker_box_switch&#45;&gt;cam_box_switch -->
<g id="edge17" class="edge">
<title>speaker_box_switch&#45;&gt;cam_box_switch</title>
<path fill="none" stroke="#000000" d="M474.8183,-274.5541C511.0303,-247.163 569.376,-203.0297 605.47,-175.7278"/>
<polygon fill="#000000" stroke="#000000" points="472.2748,-272.0895 466.4108,-280.9136 476.4977,-277.6723 472.2748,-272.0895"/>
<polygon fill="#000000" stroke="#000000" points="607.8349,-178.3275 613.6989,-169.5034 603.612,-172.7447 607.8349,-178.3275"/>
<text text-anchor="middle" x="595.5" y="-228.3" font-family="Times,serif" font-size="14.00" fill="#000000">ethernet cable</text>
</g>
<!-- speaker_box_switch&#45;&gt;video_vlan -->
<g id="edge15" class="edge">
<title>speaker_box_switch&#45;&gt;video_vlan</title>
<path fill="none" stroke="#000000" d="M446.3671,-270.5237C452.7316,-223.658 465.3384,-130.8263 471.6751,-84.165"/>
<polygon fill="#000000" stroke="#000000" points="442.858,-270.3554 444.9804,-280.7355 449.7943,-271.2975 442.858,-270.3554"/>
<polygon fill="#000000" stroke="#000000" points="475.1583,-84.525 473.0359,-74.145 468.2219,-83.583 475.1583,-84.525"/>
<text text-anchor="middle" x="504.5" y="-147.8" font-family="Times,serif" font-size="14.00" fill="#000000">ethernet cable</text>
</g>
<!-- speaker_box_ac_in -->
<g id="node20" class="node">
<title>speaker_box_ac_in</title>
<polygon fill="#d3d3d3" stroke="#000000" points="580.5,-317 526.5,-317 526.5,-281 580.5,-281 580.5,-317"/>
<text text-anchor="middle" x="553.5" y="-295.3" font-family="Times,serif" font-size="14.00" fill="#000000">AC in</text>
</g>
<!-- mix_panel_out_1 -->
<g id="node24" class="node">
<title>mix_panel_out_1</title>
<polygon fill="none" stroke="#000000" points="1490,-480.5 1353,-480.5 1353,-427.5 1490,-427.5 1490,-480.5"/>
<text text-anchor="middle" x="1421.5" y="-465.3" font-family="Times,serif" font-size="14.00" fill="#000000">mix panel out left</text>
<text text-anchor="middle" x="1421.5" y="-450.3" font-family="Times,serif" font-size="14.00" fill="#000000">XLR male port</text>
<text text-anchor="middle" x="1421.5" y="-435.3" font-family="Times,serif" font-size="14.00" fill="#000000">balanced left or mono</text>
</g>
<!-- mix_panel_out_1&#45;&gt;camera_xlr_in_1 -->
<g id="edge7" class="edge">
<title>mix_panel_out_1&#45;&gt;camera_xlr_in_1</title>
<path fill="none" stroke="#000000" d="M1479.4099,-427.4611C1508.7995,-412.802 1544.351,-393.1853 1573.5,-371.5 1588.5946,-360.2704 1603.6258,-346.0085 1616.0905,-333.1104"/>
<polygon fill="#000000" stroke="#000000" points="1618.7706,-335.3707 1623.114,-325.7071 1613.6923,-330.5529 1618.7706,-335.3707"/>
<text text-anchor="middle" x="1596" y="-398.3" font-family="Times,serif" font-size="14.00" fill="#000000">xlr cable</text>
<text text-anchor="middle" x="1596" y="-383.3" font-family="Times,serif" font-size="14.00" fill="#000000">female/male</text>
</g>
<!-- mix_panel_out_2 -->
<g id="node25" class="node">
<title>mix_panel_out_2</title>
<polygon fill="none" stroke="#000000" points="1334.5,-480.5 1190.5,-480.5 1190.5,-427.5 1334.5,-427.5 1334.5,-480.5"/>
<text text-anchor="middle" x="1262.5" y="-465.3" font-family="Times,serif" font-size="14.00" fill="#000000">mix panel out right</text>
<text text-anchor="middle" x="1262.5" y="-450.3" font-family="Times,serif" font-size="14.00" fill="#000000">XLR male port</text>
<text text-anchor="middle" x="1262.5" y="-435.3" font-family="Times,serif" font-size="14.00" fill="#000000">balanced right or mono</text>
</g>
<!-- mix_panel_out_2&#45;&gt;camera_xlr_in_2 -->
<g id="edge8" class="edge">
<title>mix_panel_out_2&#45;&gt;camera_xlr_in_2</title>
<path fill="none" stroke="#000000" d="M1326.6892,-427.447C1358.1193,-413.046 1395.7205,-393.6612 1426.5,-371.5 1441.8891,-360.4199 1457.0688,-346.0612 1469.5662,-333.0488"/>
<polygon fill="#000000" stroke="#000000" points="1472.2922,-335.2592 1476.5959,-325.5778 1467.1941,-330.4623 1472.2922,-335.2592"/>
<text text-anchor="middle" x="1448" y="-398.3" font-family="Times,serif" font-size="14.00" fill="#000000">xlr cable</text>
<text text-anchor="middle" x="1448" y="-383.3" font-family="Times,serif" font-size="14.00" fill="#000000">female/male</text>
</g>
<!-- mix_panel_ac_in -->
<g id="node26" class="node">
<title>mix_panel_ac_in</title>
<polygon fill="none" stroke="#000000" points="1172.5,-472 1118.5,-472 1118.5,-436 1172.5,-436 1172.5,-472"/>
<text text-anchor="middle" x="1145.5" y="-450.3" font-family="Times,serif" font-size="14.00" fill="#000000">AC in</text>
</g>
<!-- cam_power_strip -->
<g id="node27" class="node">
<title>cam_power_strip</title>
<polygon fill="none" stroke="#000000" points="950.5,-620.5 780.5,-620.5 780.5,-582.5 950.5,-582.5 950.5,-620.5"/>
<text text-anchor="middle" x="865.5" y="-605.3" font-family="Times,serif" font-size="14.00" fill="#000000">camera side power strip</text>
<text text-anchor="middle" x="865.5" y="-590.3" font-family="Times,serif" font-size="14.00" fill="#000000">&gt;=4 CEE 7/3 or 7/5 sockets</text>
</g>
<!-- cam_power_strip&#45;&gt;camera_ac_in -->
<g id="edge18" class="edge">
<title>cam_power_strip&#45;&gt;camera_ac_in</title>
<path fill="none" stroke="#000000" d="M865.5,-394.5C860.8804,-372.2782 861.2014,-346.514 862.5001,-327.3503"/>
<polygon fill="#000000" stroke="#000000" points="866.0052,-327.4268 863.3222,-317.1773 859.028,-326.8629 866.0052,-327.4268"/>
</g>
<!-- cam_power_strip&#45;&gt;cam_box_ac_in -->
<g id="edge19" class="edge">
<title>cam_power_strip&#45;&gt;cam_box_ac_in</title>
<path fill="none" stroke="#000000" d="M861.3288,-582.1762C860.107,-571.9073 860.2704,-559.3978 865.5,-549.5"/>
<path fill="none" stroke="#000000" d="M865.5,-549.5C897.6822,-488.5904 879.5214,-461.9469 865.5,-394.5"/>
<path fill="none" stroke="#000000" d="M865.5,-394.5C856.3051,-364.3891 819.5375,-394.9229 798.5,-371.5 773.2185,-343.3518 757.6195,-232.3984 751.487,-179.648"/>
<polygon fill="#000000" stroke="#000000" points="754.9547,-179.1643 750.3542,-169.6204 747.9989,-179.9501 754.9547,-179.1643"/>
</g>
<!-- cam_power_strip&#45;&gt;mix_panel_ac_in -->
<g id="edge20" class="edge">
<title>cam_power_strip&#45;&gt;mix_panel_ac_in</title>
<path fill="none" stroke="#000000" d="M865.5,-549.5C888.7693,-505.4594 1037.5118,-473.3328 1108.2377,-460.3481"/>
<polygon fill="#000000" stroke="#000000" points="1108.8627,-463.7919 1118.0824,-458.572 1107.6198,-456.9031 1108.8627,-463.7919"/>
</g>
<!-- speaker_power_strip -->
<g id="node28" class="node">
<title>speaker_power_strip</title>
<polygon fill="none" stroke="#000000" points="761.5,-473 591.5,-473 591.5,-435 761.5,-435 761.5,-473"/>
<text text-anchor="middle" x="676.5" y="-457.8" font-family="Times,serif" font-size="14.00" fill="#000000">speaker side power strip</text>
<text text-anchor="middle" x="676.5" y="-442.8" font-family="Times,serif" font-size="14.00" fill="#000000">&gt;=4 CEE 7/3 or 7/5 sockets</text>
</g>
<!-- speaker_power_strip&#45;&gt;speaker_box_ac_in -->
<g id="edge22" class="edge">
<title>speaker_power_strip&#45;&gt;speaker_box_ac_in</title>
<path fill="none" stroke="#000000" d="M679.2082,-434.8514C680.2274,-422.9917 680.3476,-407.5813 676.5,-394.5"/>
<path fill="none" stroke="#000000" d="M676.5,-394.5C665.2142,-356.1303 620.4936,-396.7785 589.5,-371.5 575.5639,-360.1336 566.5649,-342.0147 561.0494,-326.7343"/>
<polygon fill="#000000" stroke="#000000" points="564.3629,-325.6062 557.9111,-317.2024 557.714,-327.7954 564.3629,-325.6062"/>
</g>
<!-- speaker_laptop_power_in -->
<g id="node34" class="node">
<title>speaker_laptop_power_in</title>
<polygon fill="none" stroke="#000000" points="754.5,-317 598.5,-317 598.5,-281 754.5,-281 754.5,-317"/>
<text text-anchor="middle" x="676.5" y="-295.3" font-family="Times,serif" font-size="14.00" fill="#000000">speaker_laptop_power_in</text>
</g>
<!-- speaker_power_strip&#45;&gt;speaker_laptop_power_in -->
<g id="edge21" class="edge">
<title>speaker_power_strip&#45;&gt;speaker_laptop_power_in</title>
<path fill="none" stroke="#000000" d="M676.5,-394.5C670.0261,-372.49 670.5509,-346.3718 672.3998,-327.0172"/>
<polygon fill="#000000" stroke="#000000" points="675.8834,-327.3591 673.5272,-317.0296 668.9275,-326.5739 675.8834,-327.3591"/>
</g>
<!-- speaker_laptop_hdmi_out -->
<g id="node32" class="node">
<title>speaker_laptop_hdmi_out</title>
<polygon fill="none" stroke="#000000" points="344.5,-472 186.5,-472 186.5,-436 344.5,-436 344.5,-472"/>
<text text-anchor="middle" x="265.5" y="-450.3" font-family="Times,serif" font-size="14.00" fill="#000000">speaker_laptop_hdmi_out</text>
</g>
<!-- speaker_laptop_hdmi_out&#45;&gt;speaker_box_hdmi_in -->
<g id="edge9" class="edge">
<title>speaker_laptop_hdmi_out&#45;&gt;speaker_box_hdmi_in</title>
<path fill="none" stroke="#000000" d="M258.3566,-435.8843C252.1127,-420.575 242.5022,-398.2139 232.5,-379.5 224.3755,-364.2991 214.4174,-348.1387 205.4637,-334.3171"/>
<polygon fill="#000000" stroke="#000000" points="208.1631,-332.0509 199.7542,-325.6057 202.3085,-335.888 208.1631,-332.0509"/>
<text text-anchor="middle" x="303.5" y="-390.8" font-family="Times,serif" font-size="14.00" fill="#000000">vga cable male/male</text>
</g>
<!-- speaker_laptop_vga_out -->
<g id="node33" class="node">
<title>speaker_laptop_vga_out</title>
<polygon fill="none" stroke="#000000" points="159,-619.5 10,-619.5 10,-583.5 159,-583.5 159,-619.5"/>
<text text-anchor="middle" x="84.5" y="-597.8" font-family="Times,serif" font-size="14.00" fill="#000000">speaker_laptop_vga_out</text>
</g>
<!-- speaker_laptop_vga_out&#45;&gt;vga_hdmi_adapter -->
<g id="edge10" class="edge">
<title>speaker_laptop_vga_out&#45;&gt;vga_hdmi_adapter</title>
<path fill="none" stroke="#000000" stroke-dasharray="1,5" d="M84.5,-583.4136C84.5,-558.2007 84.5,-512.2367 84.5,-482.4204"/>
<polygon fill="#000000" stroke="#000000" points="88.0001,-482.2343 84.5,-472.2343 81.0001,-482.2344 88.0001,-482.2343"/>
<text text-anchor="middle" x="115.5" y="-553.3" font-family="Times,serif" font-size="14.00" fill="#000000">VGA cable</text>
<text text-anchor="middle" x="115.5" y="-538.3" font-family="Times,serif" font-size="14.00" fill="#000000">male/male</text>
</g>
</g>
</svg>
