<?xml version="1.0" encoding="UTF-8" standalone="no"?>
<!DOCTYPE svg PUBLIC "-//W3C//DTD SVG 1.1//EN"
 "http://www.w3.org/Graphics/SVG/1.1/DTD/svg11.dtd">
<!-- Generated by graphviz version 9.0.0 (0)
 -->
<!-- Title: G Pages: 1 -->
<svg width="1533pt" height="961pt"
 viewBox="0.00 0.00 1533.25 961.00" xmlns="http://www.w3.org/2000/svg" xmlns:xlink="http://www.w3.org/1999/xlink">
<g id="graph0" class="graph" transform="scale(1 1) rotate(0) translate(4 957)">
<title>G</title>
<polygon fill="white" stroke="none" points="-4,4 -4,-957 1529.25,-957 1529.25,4 -4,4"/>
<text text-anchor="middle" x="762.63" y="-23.7" font-family="Times,serif" font-size="14.00">FOSDEM 2024 large rooms video cabling setup:</text>
<text text-anchor="middle" x="762.63" y="-7.2" font-family="Times,serif" font-size="14.00">h1301, h1302, h1308, h1309, h2215, ua2114, ua2118, ua2220, ub2252a, ud2120, ud2208, ud2218a</text>
<g id="clust1" class="cluster">
<title>cluster_mic_receivers</title>
<polygon fill="none" stroke="black" points="389.5,-537.5 389.5,-725.5 909.5,-725.5 909.5,-537.5 389.5,-537.5"/>
<text text-anchor="middle" x="649.5" y="-708.2" font-family="Times,serif" font-size="14.00">sennheiser ekp avx receivers</text>
<text text-anchor="middle" x="649.5" y="-691.7" font-family="Times,serif" font-size="14.00">DC autonomy: &gt;4h (BA20 battery)</text>
<text text-anchor="middle" x="649.5" y="-675.2" font-family="Times,serif" font-size="14.00">430 mAh</text>
<text text-anchor="middle" x="649.5" y="-658.7" font-family="Times,serif" font-size="14.00">AC autonomy: ∞</text>
<text text-anchor="middle" x="649.5" y="-642.2" font-family="Times,serif" font-size="14.00">phantom auto power on/off</text>
</g>
<g id="clust2" class="cluster">
<title>cluster_speaker_microphone_receiver</title>
<g id="a_clust2"><a xlink:href="https://en-us.sennheiser.com/global-downloads/file/6524/AVX_Manual_06_2015_EN.pdf" xlink:title="speaker microphone receiver">
<polygon fill="none" stroke="black" points="397.5,-545.5 397.5,-627 645.5,-627 645.5,-545.5 397.5,-545.5"/>
<text text-anchor="middle" x="521.5" y="-609.7" font-family="Times,serif" font-size="14.00">speaker microphone receiver</text>
</a>
</g>
</g>
<g id="clust3" class="cluster">
<title>cluster_audience_microphone_receiver</title>
<g id="a_clust3"><a xlink:href="https://en-us.sennheiser.com/global-downloads/file/6524/AVX_Manual_06_2015_EN.pdf" xlink:title="audience microphone receiver">
<polygon fill="none" stroke="black" points="653.5,-545.5 653.5,-627 901.5,-627 901.5,-545.5 653.5,-545.5"/>
<text text-anchor="middle" x="777.5" y="-609.7" font-family="Times,serif" font-size="14.00">audience microphone receiver</text>
</a>
</g>
</g>
<g id="clust4" class="cluster">
<title>cluster_mix_panel</title>
<polygon fill="none" stroke="black" points="127.5,-371.75 127.5,-486.25 821.5,-486.25 821.5,-371.75 127.5,-371.75"/>
<text text-anchor="middle" x="474.5" y="-468.95" font-family="Times,serif" font-size="14.00">FOSDEM audio mix panel</text>
<text text-anchor="middle" x="474.5" y="-452.45" font-family="Times,serif" font-size="14.00">Yamaha MG10</text>
</g>
<g id="clust5" class="cluster">
<title>cluster_camera</title>
<g id="a_clust5"><a xlink:href="https://pro.sony.com/bbsccms/assets/files/micro/nxcam/latest/Sony_HXR-NX100.pdf" xlink:title="camera\nSony HXR&#45;NX100">
<polygon fill="none" stroke="black" points="28.5,-206.25 28.5,-320.75 794.5,-320.75 794.5,-206.25 28.5,-206.25"/>
<text text-anchor="middle" x="411.5" y="-303.45" font-family="Times,serif" font-size="14.00">camera</text>
<text text-anchor="middle" x="411.5" y="-286.95" font-family="Times,serif" font-size="14.00">Sony HXR&#45;NX100</text>
</a>
</g>
</g>
<g id="clust7" class="cluster">
<title>cluster_cam_box</title>
<g id="a_clust7"><a xlink:href="https://github.com/FOSDEM/video" xlink:title="camera box">
<polygon fill="none" stroke="lightgrey" points="297.5,-49 297.5,-130.5 697.5,-130.5 697.5,-49 297.5,-49"/>
<text text-anchor="middle" x="497.5" y="-113.2" font-family="Times,serif" font-size="14.00">camera box</text>
</a>
</g>
</g>
<g id="clust8" class="cluster">
<title>cluster_speaker_box</title>
<g id="a_clust8"><a xlink:href="https://github.com/FOSDEM/video" xlink:title="speaker box">
<polygon fill="none" stroke="lightgrey" points="981.5,-537.25 981.5,-635.25 1428.5,-635.25 1428.5,-537.25 981.5,-537.25"/>
<text text-anchor="middle" x="1205" y="-617.95" font-family="Times,serif" font-size="14.00">speaker box</text>
</a>
</g>
</g>
<g id="clust9" class="cluster">
<title>cluster_ulb_hardware</title>
<polygon fill="none" stroke="black" points="802.5,-198 802.5,-312.5 1152.5,-312.5 1152.5,-198 802.5,-198"/>
<text text-anchor="middle" x="977.5" y="-295.2" font-family="Times,serif" font-size="14.00">ULB hardware</text>
</g>
<!-- cam_power_strip -->
<g id="node1" class="node">
<title>cam_power_strip</title>
<polygon fill="none" stroke="black" points="176,-594.5 7,-594.5 7,-553.5 176,-553.5 176,-594.5"/>
<text text-anchor="middle" x="91.5" y="-577.2" font-family="Times,serif" font-size="14.00">camera side power strip</text>
<text text-anchor="middle" x="91.5" y="-560.7" font-family="Times,serif" font-size="14.00">&gt;=3 CEE 7/3 or 7/5 sockets</text>
</g>
<!-- mix_panel_ac_in -->
<g id="node13" class="node">
<title>mix_panel_ac_in</title>
<polygon fill="none" stroke="black" points="189.5,-426.5 135.5,-426.5 135.5,-390.5 189.5,-390.5 189.5,-426.5"/>
<text text-anchor="middle" x="162.5" y="-403.45" font-family="Times,serif" font-size="14.00">AC in</text>
</g>
<!-- cam_power_strip&#45;&gt;mix_panel_ac_in -->
<g id="edge19" class="edge">
<title>cam_power_strip&#45;&gt;mix_panel_ac_in</title>
<path fill="none" stroke="black" d="M91.5,-509.75C92.24,-505.36 122.27,-463.98 143.03,-435.78"/>
<polygon fill="black" stroke="black" points="145.64,-438.13 148.76,-428.01 140.01,-433.98 145.64,-438.13"/>
</g>
<!-- camera_ac_in -->
<g id="node18" class="node">
<title>camera_ac_in</title>
<polygon fill="none" stroke="black" points="146,-261 37,-261 37,-225 146,-225 146,-261"/>
<text text-anchor="middle" x="91.5" y="-237.95" font-family="Times,serif" font-size="14.00">camera AC input</text>
</g>
<!-- cam_power_strip&#45;&gt;camera_ac_in -->
<g id="edge17" class="edge">
<title>cam_power_strip&#45;&gt;camera_ac_in</title>
<path fill="none" stroke="black" d="M91.5,-344.25C86.84,-320.37 87.27,-292.68 88.62,-272.46"/>
<polygon fill="black" stroke="black" points="92.09,-272.98 89.39,-262.73 85.11,-272.42 92.09,-272.98"/>
</g>
<!-- cam_box_ac_in -->
<g id="node21" class="node">
<title>cam_box_ac_in</title>
<polygon fill="lightgrey" stroke="black" points="359.5,-95.5 305.5,-95.5 305.5,-59.5 359.5,-59.5 359.5,-95.5"/>
<text text-anchor="middle" x="332.5" y="-72.45" font-family="Times,serif" font-size="14.00">AC in</text>
</g>
<!-- cam_power_strip&#45;&gt;cam_box_ac_in -->
<g id="edge18" class="edge">
<title>cam_power_strip&#45;&gt;cam_box_ac_in</title>
<path fill="none" stroke="black" d="M89.84,-553.28C89.24,-541.2 89.18,-525.49 91.5,-511.75"/>
<path fill="none" stroke="black" d="M91.5,-509.75C103.59,-438.1 105.42,-417.57 91.5,-346.25"/>
<path fill="none" stroke="black" d="M91.5,-344.25C83.76,-313.66 42.75,-346.49 24.5,-320.75 -7.05,-276.24 -9.11,-240.97 24.5,-198 101.24,-99.89 194,-201.27 296.5,-130.5 305.56,-124.25 313.05,-114.91 318.8,-105.87"/>
<polygon fill="black" stroke="black" points="321.8,-107.69 323.79,-97.28 315.74,-104.17 321.8,-107.69"/>
</g>
<!-- usb_powerbank -->
<g id="node2" class="node">
<title>usb_powerbank</title>
<polygon fill="none" stroke="black" points="727.5,-850.25 621.5,-850.25 621.5,-809.25 727.5,-809.25 727.5,-850.25"/>
<text text-anchor="middle" x="674.5" y="-832.95" font-family="Times,serif" font-size="14.00">USB powerbank</text>
<text text-anchor="middle" x="674.5" y="-816.45" font-family="Times,serif" font-size="14.00">10.4k mAh</text>
</g>
<!-- speaker_microphone_receiver_usb_power_connector -->
<g id="node5" class="node">
<title>speaker_microphone_receiver_usb_power_connector</title>
<polygon fill="none" stroke="black" points="637.5,-594.5 525.5,-594.5 525.5,-553.5 637.5,-553.5 637.5,-594.5"/>
<text text-anchor="middle" x="581.5" y="-577.2" font-family="Times,serif" font-size="14.00">power input port</text>
<text text-anchor="middle" x="581.5" y="-560.7" font-family="Times,serif" font-size="14.00">micro usb female</text>
</g>
<!-- usb_powerbank&#45;&gt;speaker_microphone_receiver_usb_power_connector -->
<g id="edge2" class="edge">
<title>usb_powerbank&#45;&gt;speaker_microphone_receiver_usb_power_connector</title>
<path fill="none" stroke="black" d="M631.13,-808.81C598.89,-793.54 559.73,-773.89 555.25,-766.5 524.81,-716.27 548.27,-645.2 566.15,-605.27"/>
<polygon fill="black" stroke="black" points="569.3,-606.79 570.36,-596.25 562.96,-603.83 569.3,-606.79"/>
<text text-anchor="middle" x="630.63" y="-753.2" font-family="Times,serif" font-size="14.00">USB A &#45;&gt; micro USB cable</text>
<text text-anchor="middle" x="630.63" y="-736.7" font-family="Times,serif" font-size="14.00">included in mic kit</text>
</g>
<!-- audience_microphone_receiver_usb_power_connector -->
<g id="node7" class="node">
<title>audience_microphone_receiver_usb_power_connector</title>
<polygon fill="none" stroke="black" points="773.5,-594.5 661.5,-594.5 661.5,-553.5 773.5,-553.5 773.5,-594.5"/>
<text text-anchor="middle" x="717.5" y="-577.2" font-family="Times,serif" font-size="14.00">power input port</text>
<text text-anchor="middle" x="717.5" y="-560.7" font-family="Times,serif" font-size="14.00">micro usb female</text>
</g>
<!-- usb_powerbank&#45;&gt;audience_microphone_receiver_usb_power_connector -->
<g id="edge5" class="edge">
<title>usb_powerbank&#45;&gt;audience_microphone_receiver_usb_power_connector</title>
<path fill="none" stroke="black" d="M689.81,-808.94C697.89,-797.27 707.03,-781.83 711.5,-766.5 727.46,-711.78 724.74,-644.51 721.2,-606.01"/>
<polygon fill="black" stroke="black" points="724.71,-605.91 720.22,-596.31 717.74,-606.61 724.71,-605.91"/>
<text text-anchor="middle" x="793.63" y="-753.2" font-family="Times,serif" font-size="14.00">USB A &#45;&gt; micro USB cable</text>
<text text-anchor="middle" x="793.63" y="-736.7" font-family="Times,serif" font-size="14.00">included in mic kit</text>
</g>
<!-- speaker_microphone -->
<g id="node3" class="node">
<title>speaker_microphone</title>
<g id="a_node3"><a xlink:href="https://en-us.sennheiser.com/global-downloads/file/6524/AVX_Manual_06_2015_EN.pdf" xlink:title="speaker microphone\nsennheiser avx me2\nesk avx bodypack transmitter\nautonomy: 15h (BA30 battery)/11h (2x AA)\n2030 mAh">
<polygon fill="none" stroke="black" points="569.25,-875 311.75,-875 311.75,-784.5 569.25,-784.5 569.25,-875"/>
<text text-anchor="middle" x="440.5" y="-857.7" font-family="Times,serif" font-size="14.00">speaker microphone</text>
<text text-anchor="middle" x="440.5" y="-841.2" font-family="Times,serif" font-size="14.00">sennheiser avx me2</text>
<text text-anchor="middle" x="440.5" y="-824.7" font-family="Times,serif" font-size="14.00">esk avx bodypack transmitter</text>
<text text-anchor="middle" x="440.5" y="-808.2" font-family="Times,serif" font-size="14.00">autonomy: 15h (BA30 battery)/11h (2x AA)</text>
<text text-anchor="middle" x="440.5" y="-791.7" font-family="Times,serif" font-size="14.00">2030 mAh</text>
</a>
</g>
</g>
<!-- speaker_microphone_receiver_xlr_connector -->
<g id="node6" class="node">
<title>speaker_microphone_receiver_xlr_connector</title>
<polygon fill="none" stroke="black" points="507.25,-592 405.75,-592 405.75,-556 507.25,-556 507.25,-592"/>
<text text-anchor="middle" x="456.5" y="-568.95" font-family="Times,serif" font-size="14.00">XLR male plug</text>
</g>
<!-- speaker_microphone&#45;&gt;speaker_microphone_receiver_xlr_connector -->
<g id="edge1" class="edge">
<title>speaker_microphone&#45;&gt;speaker_microphone_receiver_xlr_connector</title>
<path fill="none" stroke="black" stroke-dasharray="5,2" d="M440.51,-784.15C440.69,-768.16 441.12,-750.01 442,-733.5 443.68,-702.06 446.74,-667.21 449.62,-638.22"/>
<polygon fill="black" stroke="black" points="453.07,-638.81 450.6,-628.5 446.11,-638.1 453.07,-638.81"/>
<text text-anchor="middle" x="488.75" y="-744.95" font-family="Times,serif" font-size="14.00">1.9 GHz wireless</text>
</g>
<!-- audience_microphone -->
<g id="node4" class="node">
<title>audience_microphone</title>
<g id="a_node4"><a xlink:href="https://en-us.sennheiser.com/global-downloads/file/6524/AVX_Manual_06_2015_EN.pdf" xlink:title="audience microphone\nsennheiser avx 835\nautonomy: 13h (BA10 battery)/11h (2x AA)\n2200 mAh">
<polygon fill="none" stroke="black" points="1037.25,-866.75 779.75,-866.75 779.75,-792.75 1037.25,-792.75 1037.25,-866.75"/>
<text text-anchor="middle" x="908.5" y="-849.45" font-family="Times,serif" font-size="14.00">audience microphone</text>
<text text-anchor="middle" x="908.5" y="-832.95" font-family="Times,serif" font-size="14.00">sennheiser avx 835</text>
<text text-anchor="middle" x="908.5" y="-816.45" font-family="Times,serif" font-size="14.00">autonomy: 13h (BA10 battery)/11h (2x AA)</text>
<text text-anchor="middle" x="908.5" y="-799.95" font-family="Times,serif" font-size="14.00">2200 mAh</text>
</a>
</g>
</g>
<!-- audience_microphone_receiver_xlr_connector -->
<g id="node8" class="node">
<title>audience_microphone_receiver_xlr_connector</title>
<polygon fill="none" stroke="black" points="893.25,-592 791.75,-592 791.75,-556 893.25,-556 893.25,-592"/>
<text text-anchor="middle" x="842.5" y="-568.95" font-family="Times,serif" font-size="14.00">XLR male plug</text>
</g>
<!-- audience_microphone&#45;&gt;audience_microphone_receiver_xlr_connector -->
<g id="edge4" class="edge">
<title>audience_microphone&#45;&gt;audience_microphone_receiver_xlr_connector</title>
<path fill="none" stroke="black" stroke-dasharray="5,2" d="M899.04,-792.39C888.59,-752.18 871.54,-686.65 858.9,-638.03"/>
<polygon fill="black" stroke="black" points="862.31,-637.26 856.41,-628.46 855.54,-639.02 862.31,-637.26"/>
<text text-anchor="middle" x="937.75" y="-744.95" font-family="Times,serif" font-size="14.00">1.9 GHz wireless</text>
</g>
<!-- mix_panel_mic_1_in -->
<g id="node9" class="node">
<title>mix_panel_mic_1_in</title>
<polygon fill="none" stroke="black" points="659.5,-437.25 523.5,-437.25 523.5,-379.75 659.5,-379.75 659.5,-437.25"/>
<text text-anchor="middle" x="591.5" y="-419.95" font-family="Times,serif" font-size="14.00">mic 1 in</text>
<text text-anchor="middle" x="591.5" y="-403.45" font-family="Times,serif" font-size="14.00">XLR female port</text>
<text text-anchor="middle" x="591.5" y="-386.95" font-family="Times,serif" font-size="14.00">+48V phantom power</text>
</g>
<!-- speaker_microphone_receiver_xlr_connector&#45;&gt;mix_panel_mic_1_in -->
<g id="edge3" class="edge">
<title>speaker_microphone_receiver_xlr_connector&#45;&gt;mix_panel_mic_1_in</title>
<path fill="none" stroke="black" d="M470.95,-555.5C492.37,-529.56 533.03,-480.31 561.17,-446.23"/>
<polygon fill="black" stroke="black" points="563.76,-448.59 567.43,-438.65 558.36,-444.13 563.76,-448.59"/>
</g>
<!-- mix_panel_mic_2_in -->
<g id="node10" class="node">
<title>mix_panel_mic_2_in</title>
<polygon fill="none" stroke="black" points="813.5,-437.25 677.5,-437.25 677.5,-379.75 813.5,-379.75 813.5,-437.25"/>
<text text-anchor="middle" x="745.5" y="-419.95" font-family="Times,serif" font-size="14.00">mic 2 in</text>
<text text-anchor="middle" x="745.5" y="-403.45" font-family="Times,serif" font-size="14.00">XLR female port</text>
<text text-anchor="middle" x="745.5" y="-386.95" font-family="Times,serif" font-size="14.00">+48V phantom power</text>
</g>
<!-- audience_microphone_receiver_xlr_connector&#45;&gt;mix_panel_mic_2_in -->
<g id="edge6" class="edge">
<title>audience_microphone_receiver_xlr_connector&#45;&gt;mix_panel_mic_2_in</title>
<path fill="none" stroke="black" d="M832.12,-555.5C816.86,-529.78 788.01,-481.15 767.81,-447.1"/>
<polygon fill="black" stroke="black" points="770.99,-445.6 762.88,-438.79 764.97,-449.17 770.99,-445.6"/>
</g>
<!-- mix_panel_out_1 -->
<g id="node11" class="node">
<title>mix_panel_out_1</title>
<polygon fill="none" stroke="black" points="343.5,-437.25 207.5,-437.25 207.5,-379.75 343.5,-379.75 343.5,-437.25"/>
<text text-anchor="middle" x="275.5" y="-419.95" font-family="Times,serif" font-size="14.00">mix panel out left</text>
<text text-anchor="middle" x="275.5" y="-403.45" font-family="Times,serif" font-size="14.00">XLR male port</text>
<text text-anchor="middle" x="275.5" y="-386.95" font-family="Times,serif" font-size="14.00">balanced left or mono</text>
</g>
<!-- camera_xlr_in_1 -->
<g id="node14" class="node">
<title>camera_xlr_in_1</title>
<polygon fill="none" stroke="black" points="786.38,-271.75 658.63,-271.75 658.63,-214.25 786.38,-214.25 786.38,-271.75"/>
<text text-anchor="middle" x="722.5" y="-254.45" font-family="Times,serif" font-size="14.00">audio in CH1</text>
<text text-anchor="middle" x="722.5" y="-237.95" font-family="Times,serif" font-size="14.00">XLR female port</text>
<text text-anchor="middle" x="722.5" y="-221.45" font-family="Times,serif" font-size="14.00">48V phantom power</text>
</g>
<!-- mix_panel_out_1&#45;&gt;camera_xlr_in_1 -->
<g id="edge7" class="edge">
<title>mix_panel_out_1&#45;&gt;camera_xlr_in_1</title>
<path fill="none" stroke="black" d="M332.56,-379.39C339.2,-376.6 345.94,-373.98 352.5,-371.75 434.77,-343.74 457.3,-341.6 543.25,-328.75 566.67,-325.25 628.11,-330.9 649.5,-320.75 668.25,-311.86 684.66,-295.89 697.14,-280.81"/>
<polygon fill="black" stroke="black" points="699.63,-283.3 703.09,-273.29 694.14,-278.97 699.63,-283.3"/>
<text text-anchor="middle" x="576.63" y="-348.45" font-family="Times,serif" font-size="14.00">xlr cable</text>
<text text-anchor="middle" x="576.63" y="-331.95" font-family="Times,serif" font-size="14.00">female/male</text>
</g>
<!-- mix_panel_out_2 -->
<g id="node12" class="node">
<title>mix_panel_out_2</title>
<polygon fill="none" stroke="black" points="505.25,-437.25 361.75,-437.25 361.75,-379.75 505.25,-379.75 505.25,-437.25"/>
<text text-anchor="middle" x="433.5" y="-419.95" font-family="Times,serif" font-size="14.00">mix panel out right</text>
<text text-anchor="middle" x="433.5" y="-403.45" font-family="Times,serif" font-size="14.00">XLR male port</text>
<text text-anchor="middle" x="433.5" y="-386.95" font-family="Times,serif" font-size="14.00">balanced right or mono</text>
</g>
<!-- room_amplification -->
<g id="node26" class="node">
<title>room_amplification</title>
<polygon fill="none" stroke="black" points="974.38,-261 810.63,-261 810.63,-225 974.38,-225 974.38,-261"/>
<text text-anchor="middle" x="892.5" y="-237.95" font-family="Times,serif" font-size="14.00">room amplification system</text>
</g>
<!-- mix_panel_out_2&#45;&gt;room_amplification -->
<g id="edge8" class="edge">
<title>mix_panel_out_2&#45;&gt;room_amplification</title>
<path fill="none" stroke="black" d="M491.56,-379.31C499.15,-376.39 506.92,-373.76 514.5,-371.75 556.39,-360.64 568.71,-368.62 611.5,-361.75 695.51,-348.25 721.9,-357.78 798.5,-320.75 824.91,-307.98 850.39,-286.41 868.15,-269.37"/>
<polygon fill="black" stroke="black" points="870.46,-272.01 875.14,-262.5 865.55,-267.02 870.46,-272.01"/>
<text text-anchor="middle" x="814.63" y="-348.45" font-family="Times,serif" font-size="14.00">xlr cable</text>
<text text-anchor="middle" x="814.63" y="-331.95" font-family="Times,serif" font-size="14.00">female/male</text>
</g>
<!-- camera_xlr_in_2 -->
<g id="node15" class="node">
<title>camera_xlr_in_2</title>
<polygon fill="none" stroke="black" points="640.38,-271.75 512.63,-271.75 512.63,-214.25 640.38,-214.25 640.38,-271.75"/>
<text text-anchor="middle" x="576.5" y="-254.45" font-family="Times,serif" font-size="14.00">audio in CH2</text>
<text text-anchor="middle" x="576.5" y="-237.95" font-family="Times,serif" font-size="14.00">XLR female port</text>
<text text-anchor="middle" x="576.5" y="-221.45" font-family="Times,serif" font-size="14.00">48V phantom power</text>
</g>
<!-- camera_hdmi_out -->
<g id="node16" class="node">
<title>camera_hdmi_out</title>
<polygon fill="none" stroke="black" points="494.25,-263.5 332.75,-263.5 332.75,-222.5 494.25,-222.5 494.25,-263.5"/>
<text text-anchor="middle" x="413.5" y="-246.2" font-family="Times,serif" font-size="14.00">HDMI out</text>
<text text-anchor="middle" x="413.5" y="-229.7" font-family="Times,serif" font-size="14.00">HDMI A (full size) female</text>
</g>
<!-- cam_box_hdmi_in -->
<g id="node19" class="node">
<title>cam_box_hdmi_in</title>
<polygon fill="lightgrey" stroke="black" points="539.25,-98 377.75,-98 377.75,-57 539.25,-57 539.25,-98"/>
<text text-anchor="middle" x="458.5" y="-80.7" font-family="Times,serif" font-size="14.00">HDMI in</text>
<text text-anchor="middle" x="458.5" y="-64.2" font-family="Times,serif" font-size="14.00">HDMI A (full size) female</text>
</g>
<!-- camera_hdmi_out&#45;&gt;cam_box_hdmi_in -->
<g id="edge12" class="edge">
<title>camera_hdmi_out&#45;&gt;cam_box_hdmi_in</title>
<path fill="none" stroke="black" d="M418.93,-222.28C426.67,-194.17 440.94,-142.32 450.06,-109.17"/>
<polygon fill="black" stroke="black" points="453.37,-110.32 452.65,-99.75 446.62,-108.46 453.37,-110.32"/>
<text text-anchor="middle" x="492.63" y="-174.7" font-family="Times,serif" font-size="14.00">HDMI cable</text>
<text text-anchor="middle" x="492.63" y="-158.2" font-family="Times,serif" font-size="14.00">HDMI A (full size)</text>
<text text-anchor="middle" x="492.63" y="-141.7" font-family="Times,serif" font-size="14.00">male/male</text>
</g>
<!-- camera_audio_monitor -->
<g id="node17" class="node">
<title>camera_audio_monitor</title>
<polygon fill="none" stroke="black" points="314.63,-263.5 164.38,-263.5 164.38,-222.5 314.63,-222.5 314.63,-263.5"/>
<text text-anchor="middle" x="239.5" y="-246.2" font-family="Times,serif" font-size="14.00">audio monitoring port</text>
<text text-anchor="middle" x="239.5" y="-229.7" font-family="Times,serif" font-size="14.00">3.5mm trs stereo female</text>
</g>
<!-- headphones -->
<g id="node31" class="node">
<title>headphones</title>
<g id="a_node31"><a xlink:href="https://en-us.sennheiser.com/over-ear-headphones-hd-201" xlink:title="Sennheiser HD201 headphones\n3.5mm trs stereo male\nrental budgetcam">
<polygon fill="none" stroke="black" points="287.63,-106.25 101.38,-106.25 101.38,-48.75 287.63,-48.75 287.63,-106.25"/>
<text text-anchor="middle" x="194.5" y="-88.95" font-family="Times,serif" font-size="14.00">Sennheiser HD201 headphones</text>
<text text-anchor="middle" x="194.5" y="-72.45" font-family="Times,serif" font-size="14.00">3.5mm trs stereo male</text>
<text text-anchor="middle" x="194.5" y="-55.95" font-family="Times,serif" font-size="14.00">rental budgetcam</text>
</a>
</g>
</g>
<!-- camera_audio_monitor&#45;&gt;headphones -->
<g id="edge14" class="edge">
<title>camera_audio_monitor&#45;&gt;headphones</title>
<path fill="none" stroke="black" d="M234.07,-222.28C226.96,-196.45 214.34,-150.57 205.26,-117.58"/>
<polygon fill="black" stroke="black" points="208.64,-116.67 202.61,-107.96 201.89,-118.53 208.64,-116.67"/>
</g>
<!-- cam_box_switch -->
<g id="node20" class="node">
<title>cam_box_switch</title>
<polygon fill="lightgrey" stroke="black" points="689.25,-95.5 557.75,-95.5 557.75,-59.5 689.25,-59.5 689.25,-95.5"/>
<text text-anchor="middle" x="623.5" y="-72.45" font-family="Times,serif" font-size="14.00">3x Gbit dumb switch</text>
</g>
<!-- speaker_box_hdmi_in -->
<g id="node22" class="node">
<title>speaker_box_hdmi_in</title>
<polygon fill="lightgrey" stroke="black" points="1420.38,-602.75 1328.63,-602.75 1328.63,-545.25 1420.38,-545.25 1420.38,-602.75"/>
<text text-anchor="middle" x="1374.5" y="-585.45" font-family="Times,serif" font-size="14.00">hdmi in</text>
<text text-anchor="middle" x="1374.5" y="-568.95" font-family="Times,serif" font-size="14.00">left hdmi port</text>
<text text-anchor="middle" x="1374.5" y="-552.45" font-family="Times,serif" font-size="14.00">female</text>
</g>
<!-- speaker_box_hdmi_out -->
<g id="node23" class="node">
<title>speaker_box_hdmi_out</title>
<polygon fill="lightgrey" stroke="black" points="1089.13,-602.75 989.88,-602.75 989.88,-545.25 1089.13,-545.25 1089.13,-602.75"/>
<text text-anchor="middle" x="1039.5" y="-585.45" font-family="Times,serif" font-size="14.00">hdmi out</text>
<text text-anchor="middle" x="1039.5" y="-568.95" font-family="Times,serif" font-size="14.00">right hdmi port</text>
<text text-anchor="middle" x="1039.5" y="-552.45" font-family="Times,serif" font-size="14.00">female</text>
</g>
<!-- room_projector -->
<g id="node27" class="node">
<title>room_projector</title>
<polygon fill="none" stroke="black" points="1144.75,-280 992.25,-280 992.25,-206 1144.75,-206 1144.75,-280"/>
<text text-anchor="middle" x="1068.5" y="-262.7" font-family="Times,serif" font-size="14.00">room projector HDMI in</text>
<text text-anchor="middle" x="1068.5" y="-246.2" font-family="Times,serif" font-size="14.00">HDMI port</text>
<text text-anchor="middle" x="1068.5" y="-229.7" font-family="Times,serif" font-size="14.00">female</text>
<text text-anchor="middle" x="1068.5" y="-213.2" font-family="Times,serif" font-size="14.00">exception: H2215 VGA</text>
</g>
<!-- speaker_box_hdmi_out&#45;&gt;room_projector -->
<g id="edge13" class="edge">
<title>speaker_box_hdmi_out&#45;&gt;room_projector</title>
<path fill="none" stroke="black" d="M1052.26,-544.9C1054.37,-539.17 1056.27,-533.1 1057.5,-527.25 1074.58,-445.86 1073.9,-348.51 1071.47,-291.72"/>
<polygon fill="black" stroke="black" points="1074.97,-291.58 1071,-281.75 1067.98,-291.91 1074.97,-291.58"/>
<text text-anchor="middle" x="1107" y="-411.7" font-family="Times,serif" font-size="14.00">HDMI cable</text>
<text text-anchor="middle" x="1107" y="-395.2" font-family="Times,serif" font-size="14.00">male/male</text>
</g>
<!-- room_projector_optional_adapter -->
<g id="node29" class="node">
<title>room_projector_optional_adapter</title>
<polygon fill="none" stroke="black" stroke-dasharray="1,5" points="1023.63,-426.5 855.38,-426.5 855.38,-390.5 1023.63,-390.5 1023.63,-426.5"/>
<text text-anchor="middle" x="939.5" y="-403.45" font-family="Times,serif" font-size="14.00">optional vga&#45;&gt;hdmi adapter</text>
</g>
<!-- speaker_box_hdmi_out&#45;&gt;room_projector_optional_adapter -->
<g id="edge10" class="edge">
<title>speaker_box_hdmi_out&#45;&gt;room_projector_optional_adapter</title>
<path fill="none" stroke="black" stroke-dasharray="1,5" d="M1010.97,-545.08C1005.92,-539.43 1000.94,-533.34 996.75,-527.25 976.99,-498.49 960.35,-461.89 950.18,-437.19"/>
<polygon fill="black" stroke="black" points="953.53,-436.12 946.55,-428.15 947.03,-438.73 953.53,-436.12"/>
<text text-anchor="middle" x="1026.88" y="-513.95" font-family="Times,serif" font-size="14.00">VGA cable</text>
<text text-anchor="middle" x="1026.88" y="-497.45" font-family="Times,serif" font-size="14.00">male/male</text>
</g>
<!-- speaker_box_switch -->
<g id="node24" class="node">
<title>speaker_box_switch</title>
<polygon fill="lightgrey" stroke="black" points="1238.25,-592 1106.75,-592 1106.75,-556 1238.25,-556 1238.25,-592"/>
<text text-anchor="middle" x="1172.5" y="-568.95" font-family="Times,serif" font-size="14.00">3x Gbit dumb switch</text>
</g>
<!-- speaker_box_switch&#45;&gt;cam_box_switch -->
<g id="edge16" class="edge">
<title>speaker_box_switch&#45;&gt;cam_box_switch</title>
<path fill="none" stroke="black" d="M1181.43,-545.21C1201.42,-477.06 1241.66,-299.83 1156.5,-198 1098.79,-128.99 833.88,-96.63 700.58,-84.51"/>
<polygon fill="black" stroke="black" points="1178.18,-543.87 1178.63,-554.45 1184.88,-545.9 1178.18,-543.87"/>
<polygon fill="black" stroke="black" points="701.05,-81.03 690.78,-83.63 700.42,-88.01 701.05,-81.03"/>
<text text-anchor="middle" x="1245.38" y="-340.2" font-family="Times,serif" font-size="14.00">ethernet cable</text>
</g>
<!-- speaker_box_ac_in -->
<g id="node25" class="node">
<title>speaker_box_ac_in</title>
<polygon fill="lightgrey" stroke="black" points="1310.5,-592 1256.5,-592 1256.5,-556 1310.5,-556 1310.5,-592"/>
<text text-anchor="middle" x="1283.5" y="-568.95" font-family="Times,serif" font-size="14.00">AC in</text>
</g>
<!-- speaker_power_strip -->
<g id="node28" class="node">
<title>speaker_power_strip</title>
<polygon fill="none" stroke="black" points="1376,-953 1207,-953 1207,-912 1376,-912 1376,-953"/>
<text text-anchor="middle" x="1291.5" y="-935.7" font-family="Times,serif" font-size="14.00">speaker side power strip</text>
<text text-anchor="middle" x="1291.5" y="-919.2" font-family="Times,serif" font-size="14.00">&gt;=3 CEE 7/3 or 7/5 sockets</text>
</g>
<!-- speaker_power_strip&#45;&gt;speaker_box_ac_in -->
<g id="edge21" class="edge">
<title>speaker_power_strip&#45;&gt;speaker_box_ac_in</title>
<path fill="none" stroke="black" d="M1289.56,-911.78C1289.5,-905.97 1289.96,-899.65 1291.5,-894"/>
<path fill="none" stroke="black" d="M1291.5,-893C1319.69,-789.49 1300.49,-659.98 1289.59,-603.52"/>
<polygon fill="black" stroke="black" points="1293.04,-602.91 1287.65,-593.79 1286.18,-604.28 1293.04,-602.91"/>
</g>
<!-- speaker_laptop -->
<g id="node30" class="node">
<title>speaker_laptop</title>
<polygon fill="none" stroke="black" points="1413.88,-847.75 1319.13,-847.75 1319.13,-811.75 1413.88,-811.75 1413.88,-847.75"/>
<text text-anchor="middle" x="1366.5" y="-824.7" font-family="Times,serif" font-size="14.00">speaker laptop</text>
</g>
<!-- speaker_power_strip&#45;&gt;speaker_laptop -->
<g id="edge20" class="edge">
<title>speaker_power_strip&#45;&gt;speaker_laptop</title>
<path fill="none" stroke="black" d="M1291.5,-893C1293.03,-887.4 1314.48,-869.91 1334.05,-854.89"/>
<polygon fill="black" stroke="black" points="1336.07,-857.75 1341.91,-848.91 1331.83,-852.17 1336.07,-857.75"/>
</g>
<!-- room_projector_optional_adapter&#45;&gt;room_projector -->
<g id="edge11" class="edge">
<title>room_projector_optional_adapter&#45;&gt;room_projector</title>
<path fill="none" stroke="black" stroke-dasharray="1,5" d="M929.74,-390.29C921.21,-372.72 912.3,-345.68 927,-328.75 935.32,-319.18 972.01,-326.12 983.5,-320.75 1000.35,-312.87 1016.24,-300.49 1029.62,-287.96"/>
<polygon fill="black" stroke="black" points="1031.81,-290.72 1036.53,-281.23 1026.92,-285.7 1031.81,-290.72"/>
<text text-anchor="middle" x="991.75" y="-340.2" font-family="Times,serif" font-size="14.00">HDMI cable male/male</text>
</g>
<!-- speaker_laptop&#45;&gt;speaker_box_hdmi_in -->
<g id="edge9" class="edge">
<title>speaker_laptop&#45;&gt;speaker_box_hdmi_in</title>
<path fill="none" stroke="black" d="M1367.05,-811.31C1368.32,-770.96 1371.5,-670.34 1373.26,-614.29"/>
<polygon fill="black" stroke="black" points="1376.75,-614.66 1373.57,-604.55 1369.76,-614.44 1376.75,-614.66"/>
<text text-anchor="middle" x="1446.88" y="-744.95" font-family="Times,serif" font-size="14.00">direct hdmi cable male/male</text>
</g>
<!-- video_vlan -->
<g id="node32" class="node">
<title>video_vlan</title>
<polygon fill="none" stroke="black" stroke-dasharray="1,5" points="1238.63,-847.75 1106.38,-847.75 1106.38,-811.75 1238.63,-811.75 1238.63,-847.75"/>
<text text-anchor="middle" x="1172.5" y="-824.7" font-family="Times,serif" font-size="14.00">FOSDEM video vlan</text>
</g>
<!-- video_vlan&#45;&gt;speaker_box_switch -->
<g id="edge15" class="edge">
<title>video_vlan&#45;&gt;speaker_box_switch</title>
<path fill="none" stroke="black" d="M1172.5,-800.04C1172.5,-751.14 1172.5,-652.23 1172.5,-603.48"/>
<polygon fill="black" stroke="black" points="1169,-799.8 1172.5,-809.8 1176,-799.8 1169,-799.8"/>
<polygon fill="black" stroke="black" points="1176,-603.74 1172.5,-593.74 1169,-603.74 1176,-603.74"/>
<text text-anchor="middle" x="1210.38" y="-744.95" font-family="Times,serif" font-size="14.00">ethernet cable</text>
</g>
</g>
</svg>
