<?xml version="1.0" encoding="UTF-8" standalone="no"?>
<!DOCTYPE svg PUBLIC "-//W3C//DTD SVG 1.1//EN"
 "http://www.w3.org/Graphics/SVG/1.1/DTD/svg11.dtd">
<!-- Generated by graphviz version 2.42.4 (0)
 -->
<!-- Title: G Pages: 1 -->
<svg width="1917pt" height="848pt"
 viewBox="0.00 0.00 1917.00 847.50" xmlns="http://www.w3.org/2000/svg" xmlns:xlink="http://www.w3.org/1999/xlink">
<g id="graph0" class="graph" transform="scale(1 1) rotate(0) translate(4 843.5)">
<title>G</title>
<polygon fill="white" stroke="transparent" points="-4,4 -4,-843.5 1913,-843.5 1913,4 -4,4"/>
<text text-anchor="middle" x="954.5" y="-22.8" font-family="Times,serif" font-size="14.00">FOSDEM 2027 xxl rooms video cabling setup:</text>
<text text-anchor="middle" x="954.5" y="-7.8" font-family="Times,serif" font-size="14.00">janson, k1105</text>
<g id="clust1" class="cluster">
<title>cluster_microphone_receivers</title>
<polygon fill="none" stroke="black" points="998,-325.5 998,-501.5 1885,-501.5 1885,-325.5 998,-325.5"/>
<text text-anchor="middle" x="1441.5" y="-486.3" font-family="Times,serif" font-size="14.00">ULB provided</text>
<text text-anchor="middle" x="1441.5" y="-471.3" font-family="Times,serif" font-size="14.00">Sennheiser G3 series</text>
<text text-anchor="middle" x="1441.5" y="-456.3" font-family="Times,serif" font-size="14.00">autonomy: ?</text>
<text text-anchor="middle" x="1441.5" y="-441.3" font-family="Times,serif" font-size="14.00">?AC powered EM{1,3}00?</text>
<text text-anchor="middle" x="1441.5" y="-426.3" font-family="Times,serif" font-size="14.00">?DC: ?xAA batteries</text>
</g>
<g id="clust2" class="cluster">
<title>cluster_speaker_microphone_receiver</title>
<g id="a_clust2"><a xlink:href="https://en-us.sennheiser.com/global-downloads/file/671/Set100PG3_US_INT.pdf" xlink:title="speaker microphone receiver">
<polygon fill="none" stroke="black" points="1381,-333.5 1381,-410.5 1625,-410.5 1625,-333.5 1381,-333.5"/>
<text text-anchor="middle" x="1503" y="-395.3" font-family="Times,serif" font-size="14.00">speaker microphone receiver</text>
</a>
</g>
</g>
<g id="clust3" class="cluster">
<title>cluster_audience_microphone_1_receiver</title>
<g id="a_clust3"><a xlink:href="https://en-us.sennheiser.com/global-downloads/file/671/Set100PG3_US_INT.pdf" xlink:title="audience microphone receiver">
<polygon fill="none" stroke="black" points="1633,-333.5 1633,-410.5 1877,-410.5 1877,-333.5 1633,-333.5"/>
<text text-anchor="middle" x="1755" y="-395.3" font-family="Times,serif" font-size="14.00">audience microphone receiver</text>
</a>
</g>
</g>
<g id="clust4" class="cluster">
<title>cluster_audience_microphone_2_receiver</title>
<g id="a_clust4"><a xlink:href="https://en-us.sennheiser.com/global-downloads/file/671/Set100PG3_US_INT.pdf" xlink:title="audience microphone receiver">
<polygon fill="none" stroke="black" points="1129,-333.5 1129,-410.5 1373,-410.5 1373,-333.5 1129,-333.5"/>
<text text-anchor="middle" x="1251" y="-395.3" font-family="Times,serif" font-size="14.00">audience microphone receiver</text>
</a>
</g>
</g>
<g id="clust5" class="cluster">
<title>cluster_camera</title>
<g id="a_clust5"><a xlink:href="https://pro.sony.com/bbsccms/assets/files/micro/nxcam/latest/Sony_HXR-NX100.pdf" xlink:title="camera\nSony HXR&#45;NX100">
<polygon fill="none" stroke="black" points="218,-186 218,-293 1136,-293 1136,-186 218,-186"/>
<text text-anchor="middle" x="677" y="-277.8" font-family="Times,serif" font-size="14.00">camera</text>
<text text-anchor="middle" x="677" y="-262.8" font-family="Times,serif" font-size="14.00">Sony HXR&#45;NX100</text>
</a>
</g>
</g>
<g id="clust8" class="cluster">
<title>cluster_cam_box</title>
<g id="a_clust8"><a xlink:href="https://github.com/FOSDEM/video" xlink:title="camera box">
<polygon fill="none" stroke="lightgrey" points="83,-46 83,-123 485,-123 485,-46 83,-46"/>
<text text-anchor="middle" x="284" y="-107.8" font-family="Times,serif" font-size="14.00">camera box</text>
</a>
</g>
</g>
<g id="clust10" class="cluster">
<title>cluster_speaker_box</title>
<g id="a_clust10"><a xlink:href="https://github.com/FOSDEM/video" xlink:title="speaker box">
<polygon fill="none" stroke="lightgrey" points="8,-556.5 8,-687.5 1186,-687.5 1186,-556.5 8,-556.5"/>
<text text-anchor="middle" x="597" y="-672.3" font-family="Times,serif" font-size="14.00">speaker box</text>
</a>
</g>
</g>
<g id="clust11" class="cluster">
<title>cluster_mix_panel</title>
<g id="a_clust11"><a xlink:href="https://github.com/FOSDEM/video" xlink:title="audio mixer">
<polygon fill="none" stroke="lightgrey" points="478,-564.5 478,-656.5 1178,-656.5 1178,-564.5 478,-564.5"/>
<text text-anchor="middle" x="828" y="-641.3" font-family="Times,serif" font-size="14.00">audio mixer</text>
</a>
</g>
</g>
<!-- speaker_microphone -->
<g id="node1" class="node">
<title>speaker_microphone</title>
<g id="a_node1"><a xlink:href="https://en-us.sennheiser.com/global-downloads/file/671/Set100PG3_US_INT.pdf" xlink:title="speaker microphone\nULB provided\nSennheiser G3 series\n G3 bodypack transmitter\nautonomy: ?h (2x AA)">
<polygon fill="none" stroke="black" points="1581,-640.5 1425,-640.5 1425,-557.5 1581,-557.5 1581,-640.5"/>
<text text-anchor="middle" x="1503" y="-625.3" font-family="Times,serif" font-size="14.00">speaker microphone</text>
<text text-anchor="middle" x="1503" y="-610.3" font-family="Times,serif" font-size="14.00">ULB provided</text>
<text text-anchor="middle" x="1503" y="-595.3" font-family="Times,serif" font-size="14.00">Sennheiser G3 series</text>
<text text-anchor="middle" x="1503" y="-580.3" font-family="Times,serif" font-size="14.00"> G3 bodypack transmitter</text>
<text text-anchor="middle" x="1503" y="-565.3" font-family="Times,serif" font-size="14.00">autonomy: ?h (2x AA)</text>
</a>
</g>
</g>
<!-- speaker_microphone_receiver_audio_out -->
<g id="node4" class="node">
<title>speaker_microphone_receiver_audio_out</title>
<polygon fill="none" stroke="black" points="1616.5,-379.5 1389.5,-379.5 1389.5,-341.5 1616.5,-341.5 1616.5,-379.5"/>
<text text-anchor="middle" x="1503" y="-364.3" font-family="Times,serif" font-size="14.00">audio out</text>
<text text-anchor="middle" x="1503" y="-349.3" font-family="Times,serif" font-size="14.00">3.5mm trs ?unbalanced ?mono female</text>
</g>
<!-- speaker_microphone&#45;&gt;speaker_microphone_receiver_audio_out -->
<g id="edge1" class="edge">
<title>speaker_microphone&#45;&gt;speaker_microphone_receiver_audio_out</title>
<path fill="none" stroke="black" stroke-dasharray="5,2" d="M1503,-557.34C1503,-519.73 1503,-463.36 1503,-420.74"/>
<polygon fill="black" stroke="black" points="1506.5,-420.5 1503,-410.5 1499.5,-420.5 1506.5,-420.5"/>
<text text-anchor="middle" x="1580" y="-520.8" font-family="Times,serif" font-size="14.00">+&#45;600 MHz analog wireless</text>
</g>
<!-- audience_microphone_1 -->
<g id="node2" class="node">
<title>audience_microphone_1</title>
<g id="a_node2"><a xlink:href="https://en-us.sennheiser.com/global-downloads/file/671/Set100PG3_US_INT.pdf" xlink:title="audience microphone\nULB provided\nSennheiser G3 series\nautonomy: ?h\nDC: ?xAA batteries">
<polygon fill="none" stroke="black" points="1822,-640.5 1688,-640.5 1688,-557.5 1822,-557.5 1822,-640.5"/>
<text text-anchor="middle" x="1755" y="-625.3" font-family="Times,serif" font-size="14.00">audience microphone</text>
<text text-anchor="middle" x="1755" y="-610.3" font-family="Times,serif" font-size="14.00">ULB provided</text>
<text text-anchor="middle" x="1755" y="-595.3" font-family="Times,serif" font-size="14.00">Sennheiser G3 series</text>
<text text-anchor="middle" x="1755" y="-580.3" font-family="Times,serif" font-size="14.00">autonomy: ?h</text>
<text text-anchor="middle" x="1755" y="-565.3" font-family="Times,serif" font-size="14.00">DC: ?xAA batteries</text>
</a>
</g>
</g>
<!-- audience_microphone_1_receiver_audio_out -->
<g id="node5" class="node">
<title>audience_microphone_1_receiver_audio_out</title>
<polygon fill="none" stroke="black" points="1868.5,-379.5 1641.5,-379.5 1641.5,-341.5 1868.5,-341.5 1868.5,-379.5"/>
<text text-anchor="middle" x="1755" y="-364.3" font-family="Times,serif" font-size="14.00">audio out</text>
<text text-anchor="middle" x="1755" y="-349.3" font-family="Times,serif" font-size="14.00">3.5mm trs ?unbalanced ?mono female</text>
</g>
<!-- audience_microphone_1&#45;&gt;audience_microphone_1_receiver_audio_out -->
<g id="edge2" class="edge">
<title>audience_microphone_1&#45;&gt;audience_microphone_1_receiver_audio_out</title>
<path fill="none" stroke="black" stroke-dasharray="5,2" d="M1755,-557.34C1755,-519.73 1755,-463.36 1755,-420.74"/>
<polygon fill="black" stroke="black" points="1758.5,-420.5 1755,-410.5 1751.5,-420.5 1758.5,-420.5"/>
<text text-anchor="middle" x="1832" y="-520.8" font-family="Times,serif" font-size="14.00">+&#45;600 MHz analog wireless</text>
</g>
<!-- audience_microphone_2 -->
<g id="node3" class="node">
<title>audience_microphone_2</title>
<g id="a_node3"><a xlink:href="https://en-us.sennheiser.com/global-downloads/file/671/Set100PG3_US_INT.pdf" xlink:title="audience microphone\nULB provided\nSennheiser G3 series\nautonomy: ?h\nDC: ?xAA batteries">
<polygon fill="none" stroke="black" points="1328,-640.5 1194,-640.5 1194,-557.5 1328,-557.5 1328,-640.5"/>
<text text-anchor="middle" x="1261" y="-625.3" font-family="Times,serif" font-size="14.00">audience microphone</text>
<text text-anchor="middle" x="1261" y="-610.3" font-family="Times,serif" font-size="14.00">ULB provided</text>
<text text-anchor="middle" x="1261" y="-595.3" font-family="Times,serif" font-size="14.00">Sennheiser G3 series</text>
<text text-anchor="middle" x="1261" y="-580.3" font-family="Times,serif" font-size="14.00">autonomy: ?h</text>
<text text-anchor="middle" x="1261" y="-565.3" font-family="Times,serif" font-size="14.00">DC: ?xAA batteries</text>
</a>
</g>
</g>
<!-- audience_microphone_2_receiver_audio_out -->
<g id="node6" class="node">
<title>audience_microphone_2_receiver_audio_out</title>
<polygon fill="none" stroke="black" points="1364.5,-379.5 1137.5,-379.5 1137.5,-341.5 1364.5,-341.5 1364.5,-379.5"/>
<text text-anchor="middle" x="1251" y="-364.3" font-family="Times,serif" font-size="14.00">audio out</text>
<text text-anchor="middle" x="1251" y="-349.3" font-family="Times,serif" font-size="14.00">3.5mm trs ?unbalanced ?mono female</text>
</g>
<!-- audience_microphone_2&#45;&gt;audience_microphone_2_receiver_audio_out -->
<g id="edge3" class="edge">
<title>audience_microphone_2&#45;&gt;audience_microphone_2_receiver_audio_out</title>
<path fill="none" stroke="black" stroke-dasharray="5,2" d="M1259.28,-557.34C1257.69,-519.73 1255.31,-463.36 1253.5,-420.74"/>
<polygon fill="black" stroke="black" points="1256.99,-420.34 1253.07,-410.5 1250,-420.64 1256.99,-420.34"/>
<text text-anchor="middle" x="1335" y="-520.8" font-family="Times,serif" font-size="14.00">+&#45;600 MHz analog wireless</text>
</g>
<!-- ulb_mixer -->
<g id="node7" class="node">
<title>ulb_mixer</title>
<polygon fill="none" stroke="black" points="1119.5,-378.5 1006.5,-378.5 1006.5,-342.5 1119.5,-342.5 1119.5,-378.5"/>
<text text-anchor="middle" x="1063" y="-356.8" font-family="Times,serif" font-size="14.00">ULB audio mixer</text>
</g>
<!-- camera_xlr_in_1 -->
<g id="node9" class="node">
<title>camera_xlr_in_1</title>
<polygon fill="none" stroke="black" points="1127.5,-247 998.5,-247 998.5,-194 1127.5,-194 1127.5,-247"/>
<text text-anchor="middle" x="1063" y="-231.8" font-family="Times,serif" font-size="14.00">audio in CH1 (left)</text>
<text text-anchor="middle" x="1063" y="-216.8" font-family="Times,serif" font-size="14.00">XLR female port</text>
<text text-anchor="middle" x="1063" y="-201.8" font-family="Times,serif" font-size="14.00">48V phantom power</text>
</g>
<!-- ulb_mixer&#45;&gt;camera_xlr_in_1 -->
<g id="edge10" class="edge">
<title>ulb_mixer&#45;&gt;camera_xlr_in_1</title>
<path fill="none" stroke="black" d="M1063,-342.3C1063,-321.19 1063,-284.83 1063,-257.5"/>
<polygon fill="black" stroke="black" points="1066.5,-257.15 1063,-247.15 1059.5,-257.15 1066.5,-257.15"/>
</g>
<!-- speaker_laptop -->
<g id="node8" class="node">
<title>speaker_laptop</title>
<polygon fill="none" stroke="black" points="464.5,-764.5 369.5,-764.5 369.5,-728.5 464.5,-728.5 464.5,-764.5"/>
<text text-anchor="middle" x="417" y="-742.8" font-family="Times,serif" font-size="14.00">speaker laptop</text>
</g>
<!-- speaker_box_hdmi_in -->
<g id="node18" class="node">
<title>speaker_box_hdmi_in</title>
<polygon fill="lightgrey" stroke="black" points="467.5,-625.5 366.5,-625.5 366.5,-572.5 467.5,-572.5 467.5,-625.5"/>
<text text-anchor="middle" x="417" y="-610.3" font-family="Times,serif" font-size="14.00">HDMI in</text>
<text text-anchor="middle" x="417" y="-595.3" font-family="Times,serif" font-size="14.00">left HDMI port</text>
<text text-anchor="middle" x="417" y="-580.3" font-family="Times,serif" font-size="14.00">female</text>
</g>
<!-- speaker_laptop&#45;&gt;speaker_box_hdmi_in -->
<g id="edge4" class="edge">
<title>speaker_laptop&#45;&gt;speaker_box_hdmi_in</title>
<path fill="none" stroke="black" d="M417,-728.24C417,-705.58 417,-665.23 417,-635.83"/>
<polygon fill="black" stroke="black" points="420.5,-635.55 417,-625.55 413.5,-635.55 420.5,-635.55"/>
<text text-anchor="middle" x="495.5" y="-699.3" font-family="Times,serif" font-size="14.00">direct hdmi cable male/male</text>
</g>
<!-- camera_xlr_in_2 -->
<g id="node10" class="node">
<title>camera_xlr_in_2</title>
<polygon fill="none" stroke="black" points="980.5,-247 851.5,-247 851.5,-194 980.5,-194 980.5,-247"/>
<text text-anchor="middle" x="916" y="-231.8" font-family="Times,serif" font-size="14.00">audio in CH2 (right)</text>
<text text-anchor="middle" x="916" y="-216.8" font-family="Times,serif" font-size="14.00">XLR female port</text>
<text text-anchor="middle" x="916" y="-201.8" font-family="Times,serif" font-size="14.00">48V phantom power</text>
</g>
<!-- camera_hdmi_out -->
<g id="node11" class="node">
<title>camera_hdmi_out</title>
<polygon fill="none" stroke="black" points="518,-239.5 354,-239.5 354,-201.5 518,-201.5 518,-239.5"/>
<text text-anchor="middle" x="436" y="-224.3" font-family="Times,serif" font-size="14.00">HDMI out</text>
<text text-anchor="middle" x="436" y="-209.3" font-family="Times,serif" font-size="14.00">HDMI A (full size) female</text>
</g>
<!-- cam_box_hdmi_in -->
<g id="node15" class="node">
<title>cam_box_hdmi_in</title>
<polygon fill="lightgrey" stroke="black" points="477,-92 313,-92 313,-54 477,-54 477,-92"/>
<text text-anchor="middle" x="395" y="-76.8" font-family="Times,serif" font-size="14.00">HDMI in</text>
<text text-anchor="middle" x="395" y="-61.8" font-family="Times,serif" font-size="14.00">HDMI A (full size) female</text>
</g>
<!-- camera_hdmi_out&#45;&gt;cam_box_hdmi_in -->
<g id="edge5" class="edge">
<title>camera_hdmi_out&#45;&gt;cam_box_hdmi_in</title>
<path fill="none" stroke="black" d="M430.89,-201.37C423.86,-176.43 411.15,-131.3 402.89,-102.01"/>
<polygon fill="black" stroke="black" points="406.26,-101.04 400.17,-92.36 399.52,-102.94 406.26,-101.04"/>
<text text-anchor="middle" x="476.5" y="-164.8" font-family="Times,serif" font-size="14.00">HDMI cable</text>
<text text-anchor="middle" x="476.5" y="-149.8" font-family="Times,serif" font-size="14.00">HDMI A (full size)</text>
<text text-anchor="middle" x="476.5" y="-134.8" font-family="Times,serif" font-size="14.00">male/male</text>
</g>
<!-- camera_internal_mic -->
<g id="node12" class="node">
<title>camera_internal_mic</title>
<polygon fill="none" stroke="black" points="664,-239.5 536,-239.5 536,-201.5 664,-201.5 664,-239.5"/>
<text text-anchor="middle" x="600" y="-224.3" font-family="Times,serif" font-size="14.00">audio in CH2</text>
<text text-anchor="middle" x="600" y="-209.3" font-family="Times,serif" font-size="14.00">internal microphone</text>
</g>
<!-- camera_audio_monitor -->
<g id="node13" class="node">
<title>camera_audio_monitor</title>
<polygon fill="none" stroke="black" points="833.5,-239.5 682.5,-239.5 682.5,-201.5 833.5,-201.5 833.5,-239.5"/>
<text text-anchor="middle" x="758" y="-224.3" font-family="Times,serif" font-size="14.00">audio monitoring port</text>
<text text-anchor="middle" x="758" y="-209.3" font-family="Times,serif" font-size="14.00">3.5mm trs stereo female</text>
</g>
<!-- headphones -->
<g id="node30" class="node">
<title>headphones</title>
<g id="a_node30"><a xlink:href="https://www.sennheiser.com/en-us/catalog/products/headphones/hd-25/hd-25-506909" xlink:title="Sennheiser HD25 headphones\n3.5mm trs stereo male">
<polygon fill="none" stroke="black" points="848,-92 668,-92 668,-54 848,-54 848,-92"/>
<text text-anchor="middle" x="758" y="-76.8" font-family="Times,serif" font-size="14.00">Sennheiser HD25 headphones</text>
<text text-anchor="middle" x="758" y="-61.8" font-family="Times,serif" font-size="14.00">3.5mm trs stereo male</text>
</a>
</g>
</g>
<!-- camera_audio_monitor&#45;&gt;headphones -->
<g id="edge7" class="edge">
<title>camera_audio_monitor&#45;&gt;headphones</title>
<path fill="none" stroke="black" d="M758,-201.37C758,-176.53 758,-131.7 758,-102.39"/>
<polygon fill="black" stroke="black" points="761.5,-102.36 758,-92.36 754.5,-102.36 761.5,-102.36"/>
</g>
<!-- camera_ac_in -->
<g id="node14" class="node">
<title>camera_ac_in</title>
<polygon fill="none" stroke="black" points="336,-238.5 226,-238.5 226,-202.5 336,-202.5 336,-238.5"/>
<text text-anchor="middle" x="281" y="-216.8" font-family="Times,serif" font-size="14.00">camera AC input</text>
</g>
<!-- cam_box_switch -->
<g id="node16" class="node">
<title>cam_box_switch</title>
<polygon fill="lightgrey" stroke="black" points="295,-91 163,-91 163,-55 295,-55 295,-91"/>
<text text-anchor="middle" x="229" y="-69.3" font-family="Times,serif" font-size="14.00">4x Gbit dumb switch</text>
</g>
<!-- cam_box_usb -->
<g id="node17" class="node">
<title>cam_box_usb</title>
<polygon fill="lightgrey" stroke="black" points="145,-91 91,-91 91,-55 145,-55 145,-91"/>
<text text-anchor="middle" x="118" y="-69.3" font-family="Times,serif" font-size="14.00">USB</text>
</g>
<!-- speaker_box_hdmi_out -->
<g id="node19" class="node">
<title>speaker_box_hdmi_out</title>
<polygon fill="lightgrey" stroke="black" points="348,-625.5 238,-625.5 238,-572.5 348,-572.5 348,-625.5"/>
<text text-anchor="middle" x="293" y="-610.3" font-family="Times,serif" font-size="14.00">HDMI out</text>
<text text-anchor="middle" x="293" y="-595.3" font-family="Times,serif" font-size="14.00">right HDMI port</text>
<text text-anchor="middle" x="293" y="-580.3" font-family="Times,serif" font-size="14.00">female</text>
</g>
<!-- room_projector -->
<g id="node29" class="node">
<title>room_projector</title>
<polygon fill="none" stroke="black" points="369.5,-387 216.5,-387 216.5,-334 369.5,-334 369.5,-387"/>
<text text-anchor="middle" x="293" y="-371.8" font-family="Times,serif" font-size="14.00">room projector HDMI in</text>
<text text-anchor="middle" x="293" y="-356.8" font-family="Times,serif" font-size="14.00">HDMI port</text>
<text text-anchor="middle" x="293" y="-341.8" font-family="Times,serif" font-size="14.00">female</text>
</g>
<!-- speaker_box_hdmi_out&#45;&gt;room_projector -->
<g id="edge6" class="edge">
<title>speaker_box_hdmi_out&#45;&gt;room_projector</title>
<path fill="none" stroke="black" d="M293,-572.24C293,-529.95 293,-445.68 293,-397.51"/>
<polygon fill="black" stroke="black" points="296.5,-397.23 293,-387.23 289.5,-397.23 296.5,-397.23"/>
<text text-anchor="middle" x="328" y="-528.3" font-family="Times,serif" font-size="14.00">HDMI cable</text>
<text text-anchor="middle" x="328" y="-513.3" font-family="Times,serif" font-size="14.00">male/male</text>
</g>
<!-- speaker_box_switch -->
<g id="node20" class="node">
<title>speaker_box_switch</title>
<polygon fill="lightgrey" stroke="black" points="220,-617 88,-617 88,-581 220,-581 220,-617"/>
<text text-anchor="middle" x="154" y="-595.3" font-family="Times,serif" font-size="14.00">4x Gbit dumb switch</text>
</g>
<!-- speaker_box_switch&#45;&gt;cam_box_switch -->
<g id="edge9" class="edge">
<title>speaker_box_switch&#45;&gt;cam_box_switch</title>
<path fill="none" stroke="black" d="M164.51,-571.25C168.01,-561.4 171.62,-550.07 174,-539.5 208.67,-385.23 194.62,-342.92 214,-186 217.59,-156.92 222.1,-123.65 225.23,-100.98"/>
<polygon fill="black" stroke="black" points="161.13,-570.28 160.95,-580.88 167.7,-572.71 161.13,-570.28"/>
<polygon fill="black" stroke="black" points="228.7,-101.45 226.6,-91.06 221.76,-100.49 228.7,-101.45"/>
<text text-anchor="middle" x="242.5" y="-304.8" font-family="Times,serif" font-size="14.00">ethernet cable</text>
</g>
<!-- video_vlan -->
<g id="node31" class="node">
<title>video_vlan</title>
<polygon fill="none" stroke="black" stroke-dasharray="1,5" points="159.5,-378.5 26.5,-378.5 26.5,-342.5 159.5,-342.5 159.5,-378.5"/>
<text text-anchor="middle" x="93" y="-356.8" font-family="Times,serif" font-size="14.00">FOSDEM video vlan</text>
</g>
<!-- speaker_box_switch&#45;&gt;video_vlan -->
<g id="edge8" class="edge">
<title>speaker_box_switch&#45;&gt;video_vlan</title>
<path fill="none" stroke="black" d="M122.53,-573.99C112.47,-564.46 102.51,-552.63 97,-539.5 76.07,-489.65 81.88,-424.83 87.65,-388.76"/>
<polygon fill="black" stroke="black" points="120.39,-576.76 130.18,-580.81 125.05,-571.54 120.39,-576.76"/>
<polygon fill="black" stroke="black" points="91.16,-388.99 89.41,-378.54 84.26,-387.8 91.16,-388.99"/>
<text text-anchor="middle" x="135.5" y="-520.8" font-family="Times,serif" font-size="14.00">ethernet cable</text>
</g>
<!-- speaker_box_usb -->
<g id="node21" class="node">
<title>speaker_box_usb</title>
<polygon fill="lightgrey" stroke="black" points="70,-617 16,-617 16,-581 70,-581 70,-617"/>
<text text-anchor="middle" x="43" y="-595.3" font-family="Times,serif" font-size="14.00">USB</text>
</g>
<!-- mix_panel_mic_1_in -->
<g id="node22" class="node">
<title>mix_panel_mic_1_in</title>
<polygon fill="lightgrey" stroke="black" points="1169.5,-625.5 1032.5,-625.5 1032.5,-572.5 1169.5,-572.5 1169.5,-625.5"/>
<text text-anchor="middle" x="1101" y="-610.3" font-family="Times,serif" font-size="14.00">mic 1 in</text>
<text text-anchor="middle" x="1101" y="-595.3" font-family="Times,serif" font-size="14.00">XLR female port</text>
<text text-anchor="middle" x="1101" y="-580.3" font-family="Times,serif" font-size="14.00">+48V phantom power</text>
</g>
<!-- mix_panel_mic_2_in -->
<g id="node23" class="node">
<title>mix_panel_mic_2_in</title>
<polygon fill="lightgrey" stroke="black" points="1014.5,-625.5 877.5,-625.5 877.5,-572.5 1014.5,-572.5 1014.5,-625.5"/>
<text text-anchor="middle" x="946" y="-610.3" font-family="Times,serif" font-size="14.00">mic 2 in</text>
<text text-anchor="middle" x="946" y="-595.3" font-family="Times,serif" font-size="14.00">XLR female port</text>
<text text-anchor="middle" x="946" y="-580.3" font-family="Times,serif" font-size="14.00">+48V phantom power</text>
</g>
<!-- mix_panel_mic_3_in -->
<g id="node24" class="node">
<title>mix_panel_mic_3_in</title>
<polygon fill="lightgrey" stroke="black" points="859.5,-625.5 722.5,-625.5 722.5,-572.5 859.5,-572.5 859.5,-625.5"/>
<text text-anchor="middle" x="791" y="-610.3" font-family="Times,serif" font-size="14.00">mic 3 in</text>
<text text-anchor="middle" x="791" y="-595.3" font-family="Times,serif" font-size="14.00">XLR female port</text>
<text text-anchor="middle" x="791" y="-580.3" font-family="Times,serif" font-size="14.00">+48V phantom power</text>
</g>
<!-- mix_panel_out_1 -->
<g id="node25" class="node">
<title>mix_panel_out_1</title>
<polygon fill="lightgrey" stroke="black" points="704,-625.5 604,-625.5 604,-572.5 704,-572.5 704,-625.5"/>
<text text-anchor="middle" x="654" y="-610.3" font-family="Times,serif" font-size="14.00">XLR out 1</text>
<text text-anchor="middle" x="654" y="-595.3" font-family="Times,serif" font-size="14.00">male port</text>
<text text-anchor="middle" x="654" y="-580.3" font-family="Times,serif" font-size="14.00">balanced mono</text>
</g>
<!-- mix_panel_out_2 -->
<g id="node26" class="node">
<title>mix_panel_out_2</title>
<polygon fill="lightgrey" stroke="black" points="586,-625.5 486,-625.5 486,-572.5 586,-572.5 586,-625.5"/>
<text text-anchor="middle" x="536" y="-610.3" font-family="Times,serif" font-size="14.00">XLR out 2</text>
<text text-anchor="middle" x="536" y="-595.3" font-family="Times,serif" font-size="14.00">male port</text>
<text text-anchor="middle" x="536" y="-580.3" font-family="Times,serif" font-size="14.00">balanced mono</text>
</g>
<!-- mix_panel_out_2&#45;&gt;ulb_mixer -->
<g id="edge11" class="edge">
<title>mix_panel_out_2&#45;&gt;ulb_mixer</title>
<path fill="none" stroke="black" d="M569.81,-572.33C577.85,-566.77 586.56,-561.16 595,-556.5 734.82,-479.41 911.46,-413.66 1002.54,-381.89"/>
<polygon fill="black" stroke="black" points="1003.86,-385.14 1012.15,-378.55 1001.56,-378.53 1003.86,-385.14"/>
</g>
<!-- cam_power_strip -->
<g id="node27" class="node">
<title>cam_power_strip</title>
<polygon fill="none" stroke="black" points="558,-379.5 388,-379.5 388,-341.5 558,-341.5 558,-379.5"/>
<text text-anchor="middle" x="473" y="-364.3" font-family="Times,serif" font-size="14.00">camera side power strip</text>
<text text-anchor="middle" x="473" y="-349.3" font-family="Times,serif" font-size="14.00">&gt;=4 CEE 7/3 or 7/5 sockets</text>
</g>
<!-- cam_power_strip&#45;&gt;camera_ac_in -->
<g id="edge12" class="edge">
<title>cam_power_strip&#45;&gt;camera_ac_in</title>
<path fill="none" stroke="black" d="M428.89,-341.4C403.08,-329.67 370.62,-312.88 345,-293 327.95,-279.77 311.76,-261.61 299.93,-246.91"/>
<polygon fill="black" stroke="black" points="302.43,-244.42 293.5,-238.71 296.92,-248.74 302.43,-244.42"/>
</g>
<!-- speaker_power_strip -->
<g id="node28" class="node">
<title>speaker_power_strip</title>
<polygon fill="none" stroke="black" points="502,-839.5 332,-839.5 332,-801.5 502,-801.5 502,-839.5"/>
<text text-anchor="middle" x="417" y="-824.3" font-family="Times,serif" font-size="14.00">speaker side power strip</text>
<text text-anchor="middle" x="417" y="-809.3" font-family="Times,serif" font-size="14.00">&gt;=4 CEE 7/3 or 7/5 sockets</text>
</g>
<!-- speaker_power_strip&#45;&gt;speaker_laptop -->
<g id="edge13" class="edge">
<title>speaker_power_strip&#45;&gt;speaker_laptop</title>
<path fill="none" stroke="black" d="M417,-801.33C417,-793.39 417,-783.91 417,-775.13"/>
<polygon fill="black" stroke="black" points="420.5,-774.92 417,-764.92 413.5,-774.92 420.5,-774.92"/>
</g>
</g>
</svg>
