<?xml version="1.0" encoding="UTF-8" standalone="no"?>
<!DOCTYPE svg PUBLIC "-//W3C//DTD SVG 1.1//EN"
 "http://www.w3.org/Graphics/SVG/1.1/DTD/svg11.dtd">
<!-- Generated by graphviz version 2.38.0 (20140413.2041)
 -->
<!-- Title: G Pages: 1 -->
<svg width="1041pt" height="578pt"
 viewBox="0.00 0.00 1041.00 578.00" xmlns="http://www.w3.org/2000/svg" xmlns:xlink="http://www.w3.org/1999/xlink">
<g id="graph0" class="graph" transform="scale(1 1) rotate(0) translate(4 574)">
<title>G</title>
<polygon fill="white" stroke="none" points="-4,4 -4,-574 1037,-574 1037,4 -4,4"/>
<text text-anchor="middle" x="516.5" y="-22.8" font-family="Times,serif" font-size="14.00">FOSDEM 2017 xxl rooms video cabling setup:</text>
<text text-anchor="middle" x="516.5" y="-7.8" font-family="Times,serif" font-size="14.00">h2215, janson, k1105, ua2220, ub2252a, ud2120</text>
<g id="clust2" class="cluster"><title>cluster_room</title>
<polygon fill="lightgrey" stroke="lightgrey" points="390,-46 390,-121 586,-121 586,-46 390,-46"/>
<text text-anchor="middle" x="488" y="-105.8" font-family="Times,serif" font-size="14.00">INGESTION</text>
</g>
<!-- speaker_microphone -->
<g id="node1" class="node"><title>speaker_microphone</title>
<polygon fill="none" stroke="black" points="165,-570 9,-570 9,-487 165,-487 165,-570"/>
<text text-anchor="middle" x="87" y="-554.8" font-family="Times,serif" font-size="14.00">speaker microphone</text>
<text text-anchor="middle" x="87" y="-539.8" font-family="Times,serif" font-size="14.00">ULB provided</text>
<text text-anchor="middle" x="87" y="-524.8" font-family="Times,serif" font-size="14.00">Sennheiser G3 series</text>
<text text-anchor="middle" x="87" y="-509.8" font-family="Times,serif" font-size="14.00"> G3 bodypack transmitter</text>
<text text-anchor="middle" x="87" y="-494.8" font-family="Times,serif" font-size="14.00">autonomy: ?h (2x AA)</text>
</g>
<!-- speaker_microphone_receiver -->
<g id="node2" class="node"><title>speaker_microphone_receiver</title>
<polygon fill="none" stroke="black" points="174,-436 0,-436 0,-353 174,-353 174,-436"/>
<text text-anchor="middle" x="87" y="-420.8" font-family="Times,serif" font-size="14.00">speaker microphone receiver</text>
<text text-anchor="middle" x="87" y="-405.8" font-family="Times,serif" font-size="14.00">ULB provided</text>
<text text-anchor="middle" x="87" y="-390.8" font-family="Times,serif" font-size="14.00">Sennheiser G3 series</text>
<text text-anchor="middle" x="87" y="-375.8" font-family="Times,serif" font-size="14.00">autonomy: ?AC powered</text>
<text text-anchor="middle" x="87" y="-360.8" font-family="Times,serif" font-size="14.00">?DC: &gt;4h (2x AA battery)</text>
</g>
<!-- speaker_microphone&#45;&gt;speaker_microphone_receiver -->
<g id="edge1" class="edge"><title>speaker_microphone&#45;&gt;speaker_microphone_receiver</title>
<path fill="none" stroke="black" d="M87,-486.819C87,-474.021 87,-459.727 87,-446.317"/>
<polygon fill="black" stroke="black" points="90.5001,-446.274 87,-436.274 83.5001,-446.274 90.5001,-446.274"/>
<text text-anchor="middle" x="144" y="-457.8" font-family="Times,serif" font-size="14.00">+&#45;600 MHz wireless</text>
</g>
<!-- mix_panel -->
<g id="node7" class="node"><title>mix_panel</title>
<polygon fill="none" stroke="black" points="415.5,-302 310.5,-302 310.5,-264 415.5,-264 415.5,-302"/>
<text text-anchor="middle" x="363" y="-286.8" font-family="Times,serif" font-size="14.00">audio mix panel</text>
<text text-anchor="middle" x="363" y="-271.8" font-family="Times,serif" font-size="14.00">ULB provided</text>
</g>
<!-- speaker_microphone_receiver&#45;&gt;mix_panel -->
<g id="edge2" class="edge"><title>speaker_microphone_receiver&#45;&gt;mix_panel</title>
<path fill="none" stroke="black" d="M89.0066,-352.744C91.6321,-340.607 96.6573,-328.336 106,-320 133.899,-295.108 233.656,-287.36 300.363,-284.99"/>
<polygon fill="black" stroke="black" points="300.479,-288.488 310.361,-284.666 300.252,-281.492 300.479,-288.488"/>
<text text-anchor="middle" x="232.5" y="-323.8" font-family="Times,serif" font-size="14.00">mini jack male &#45;&gt; xlr adapter cable+ xlr cable</text>
</g>
<!-- audience_microphone1 -->
<g id="node3" class="node"><title>audience_microphone1</title>
<polygon fill="none" stroke="black" points="430,-555 296,-555 296,-502 430,-502 430,-555"/>
<text text-anchor="middle" x="363" y="-539.8" font-family="Times,serif" font-size="14.00">audience microphone</text>
<text text-anchor="middle" x="363" y="-524.8" font-family="Times,serif" font-size="14.00">ULB provided</text>
<text text-anchor="middle" x="363" y="-509.8" font-family="Times,serif" font-size="14.00">Sennheiser G3 series</text>
</g>
<!-- audience_microphone_receiver1 -->
<g id="node4" class="node"><title>audience_microphone_receiver1</title>
<polygon fill="none" stroke="black" points="453.5,-421 272.5,-421 272.5,-368 453.5,-368 453.5,-421"/>
<text text-anchor="middle" x="363" y="-405.8" font-family="Times,serif" font-size="14.00">audience microphone receiver</text>
<text text-anchor="middle" x="363" y="-390.8" font-family="Times,serif" font-size="14.00">ULB provided</text>
<text text-anchor="middle" x="363" y="-375.8" font-family="Times,serif" font-size="14.00">Sennheiser G3 series</text>
</g>
<!-- audience_microphone1&#45;&gt;audience_microphone_receiver1 -->
<g id="edge3" class="edge"><title>audience_microphone1&#45;&gt;audience_microphone_receiver1</title>
<path fill="none" stroke="black" d="M363,-501.736C363,-481.657 363,-453.544 363,-431.281"/>
<polygon fill="black" stroke="black" points="366.5,-431.199 363,-421.199 359.5,-431.199 366.5,-431.199"/>
<text text-anchor="middle" x="420" y="-457.8" font-family="Times,serif" font-size="14.00">+&#45;600 MHz wireless</text>
</g>
<!-- audience_microphone_receiver1&#45;&gt;mix_panel -->
<g id="edge4" class="edge"><title>audience_microphone_receiver1&#45;&gt;mix_panel</title>
<path fill="none" stroke="black" d="M363,-367.827C363,-351.18 363,-329.482 363,-312.332"/>
<polygon fill="black" stroke="black" points="366.5,-312.327 363,-302.327 359.5,-312.327 366.5,-312.327"/>
<text text-anchor="middle" x="491.5" y="-323.8" font-family="Times,serif" font-size="14.00">mini jack male &#45;&gt; xlr adapter cable + xlr cable</text>
</g>
<!-- audience_microphone2 -->
<g id="node5" class="node"><title>audience_microphone2</title>
<polygon fill="none" stroke="black" points="710,-555 576,-555 576,-502 710,-502 710,-555"/>
<text text-anchor="middle" x="643" y="-539.8" font-family="Times,serif" font-size="14.00">audience microphone</text>
<text text-anchor="middle" x="643" y="-524.8" font-family="Times,serif" font-size="14.00">ULB provided</text>
<text text-anchor="middle" x="643" y="-509.8" font-family="Times,serif" font-size="14.00">Sennheiser G3 series</text>
</g>
<!-- audience_microphone_receiver2 -->
<g id="node6" class="node"><title>audience_microphone_receiver2</title>
<polygon fill="none" stroke="black" points="733.5,-421 552.5,-421 552.5,-368 733.5,-368 733.5,-421"/>
<text text-anchor="middle" x="643" y="-405.8" font-family="Times,serif" font-size="14.00">audience microphone receiver</text>
<text text-anchor="middle" x="643" y="-390.8" font-family="Times,serif" font-size="14.00">ULB provided</text>
<text text-anchor="middle" x="643" y="-375.8" font-family="Times,serif" font-size="14.00">Sennheiser G3 series</text>
</g>
<!-- audience_microphone2&#45;&gt;audience_microphone_receiver2 -->
<g id="edge5" class="edge"><title>audience_microphone2&#45;&gt;audience_microphone_receiver2</title>
<path fill="none" stroke="black" d="M643,-501.736C643,-481.657 643,-453.544 643,-431.281"/>
<polygon fill="black" stroke="black" points="646.5,-431.199 643,-421.199 639.5,-431.199 646.5,-431.199"/>
<text text-anchor="middle" x="700" y="-457.8" font-family="Times,serif" font-size="14.00">+&#45;600 MHz wireless</text>
</g>
<!-- audience_microphone_receiver2&#45;&gt;mix_panel -->
<g id="edge6" class="edge"><title>audience_microphone_receiver2&#45;&gt;mix_panel</title>
<path fill="none" stroke="black" d="M642.091,-367.968C640.096,-351.805 634.746,-331.798 621,-320 592.52,-295.555 492.515,-287.675 425.706,-285.156"/>
<polygon fill="black" stroke="black" points="425.808,-281.657 415.693,-284.809 425.566,-288.653 425.808,-281.657"/>
<text text-anchor="middle" x="761.5" y="-323.8" font-family="Times,serif" font-size="14.00">mini jack male &#45;&gt; xlr adapter cable + xlr cable</text>
</g>
<!-- camera -->
<g id="node10" class="node"><title>camera</title>
<g id="a_node10"><a xlink:href="https://pro.sony.com/bbsccms/assets/files/micro/nxcam/latest/Sony_HXR-NX100.pdf" xlink:title="camera Sony HXR&#45;NX100">
<polygon fill="none" stroke="black" points="445,-213 281,-213 281,-177 445,-177 445,-213"/>
<text text-anchor="middle" x="363" y="-191.3" font-family="Times,serif" font-size="14.00">camera Sony HXR&#45;NX100</text>
</a>
</g>
</g>
<!-- mix_panel&#45;&gt;camera -->
<g id="edge7" class="edge"><title>mix_panel&#45;&gt;camera</title>
<path fill="none" stroke="black" d="M363,-263.762C363,-251.934 363,-236.316 363,-223.055"/>
<polygon fill="black" stroke="black" points="366.5,-223.042 363,-213.042 359.5,-223.042 366.5,-223.042"/>
<text text-anchor="middle" x="413" y="-234.8" font-family="Times,serif" font-size="14.00">XLR sex? &#45;&gt; sex?</text>
</g>
<!-- speaker_laptop -->
<g id="node8" class="node"><title>speaker_laptop</title>
<polygon fill="none" stroke="black" points="724.5,-301 629.5,-301 629.5,-265 724.5,-265 724.5,-301"/>
<text text-anchor="middle" x="677" y="-279.3" font-family="Times,serif" font-size="14.00">speaker laptop</text>
</g>
<!-- speaker_laptop_optional_adapter -->
<g id="node9" class="node"><title>speaker_laptop_optional_adapter</title>
<polygon fill="none" stroke="black" stroke-dasharray="1,5" points="632.5,-213 463.5,-213 463.5,-177 632.5,-177 632.5,-213"/>
<text text-anchor="middle" x="548" y="-191.3" font-family="Times,serif" font-size="14.00">optional hdmi&#45;&gt;vga adapter</text>
</g>
<!-- speaker_laptop&#45;&gt;speaker_laptop_optional_adapter -->
<g id="edge10" class="edge"><title>speaker_laptop&#45;&gt;speaker_laptop_optional_adapter</title>
<path fill="none" stroke="black" stroke-dasharray="1,5" d="M651.205,-264.803C631.43,-251.62 603.954,-233.302 582.323,-218.882"/>
<polygon fill="black" stroke="black" points="584.012,-215.802 573.75,-213.167 580.129,-221.626 584.012,-215.802"/>
<text text-anchor="middle" x="669" y="-234.8" font-family="Times,serif" font-size="14.00">either hdmi cable</text>
</g>
<!-- speaker_box -->
<g id="node12" class="node"><title>speaker_box</title>
<g id="a_node12"><a xlink:href="https://github.com/FOSDEM/video" xlink:title="speaker box">
<polygon fill="lightgrey" stroke="black" points="578,-90 496,-90 496,-54 578,-54 578,-90"/>
<text text-anchor="middle" x="537" y="-68.3" font-family="Times,serif" font-size="14.00">speaker box</text>
</a>
</g>
</g>
<!-- speaker_laptop&#45;&gt;speaker_box -->
<g id="edge8" class="edge"><title>speaker_laptop&#45;&gt;speaker_box</title>
<path fill="none" stroke="black" stroke-dasharray="1,5" d="M724.888,-267.45C737.915,-261.045 750.489,-252.032 758,-239.5"/>
<path fill="none" stroke="black" stroke-dasharray="1,5" d="M758,-237.5C776.245,-207.06 702.893,-241.688 682,-213 672.58,-200.067 671.552,-189.118 682,-177 705.82,-149.374 848.666,-181.035 843,-145"/>
<path fill="none" stroke="black" stroke-dasharray="1,5" d="M843,-143C834.05,-92.5183 672.961,-78.429 588.202,-74.5067"/>
<polygon fill="black" stroke="black" points="588.153,-71.0014 578.012,-74.0671 587.851,-77.9949 588.153,-71.0014"/>
<text text-anchor="middle" x="754.5" y="-191.3" font-family="Times,serif" font-size="14.00">or vga cable male &#45;&gt; male</text>
</g>
<!-- speaker_laptop&#45;&gt;speaker_box -->
<g id="edge9" class="edge"><title>speaker_laptop&#45;&gt;speaker_box</title>
<path fill="none" stroke="black" stroke-dasharray="1,5" d="M758,-237.5C776.897,-211.006 805.29,-237.242 827,-213 847.713,-189.871 848.42,-175.571 843,-145"/>
<text text-anchor="middle" x="939.5" y="-198.8" font-family="Times,serif" font-size="14.00">3.5mm &#45;&gt; 6.35mm trs male cable</text>
<text text-anchor="middle" x="939.5" y="-183.8" font-family="Times,serif" font-size="14.00">unbalanced stereo</text>
</g>
<!-- speaker_laptop_optional_adapter&#45;&gt;speaker_box -->
<g id="edge11" class="edge"><title>speaker_laptop_optional_adapter&#45;&gt;speaker_box</title>
<path fill="none" stroke="black" stroke-dasharray="1,5" d="M495.58,-176.852C488.194,-172.205 481.573,-166.352 477,-159 469.958,-147.678 471.224,-141.017 477,-129 479.466,-123.87 482.72,-124.752 487,-121 495.414,-113.622 504.314,-105.27 512.235,-97.6251"/>
<polygon fill="black" stroke="black" points="515.056,-99.7634 519.777,-90.2784 510.172,-94.7493 515.056,-99.7634"/>
<text text-anchor="middle" x="542" y="-140.3" font-family="Times,serif" font-size="14.00">vga cable male &#45;&gt; male</text>
</g>
<!-- speaker_laptop_optional_adapter&#45;&gt;speaker_box -->
<g id="edge12" class="edge"><title>speaker_laptop_optional_adapter&#45;&gt;speaker_box</title>
<path fill="none" stroke="black" stroke-dasharray="1,5" d="M589.645,-176.892C596.594,-172.144 602.874,-166.244 607,-159 613.598,-147.414 612.776,-141.017 607,-129 600.653,-115.794 589.506,-104.727 577.949,-96.0122"/>
<polygon fill="black" stroke="black" points="579.717,-92.9764 569.524,-90.0852 575.689,-98.7016 579.717,-92.9764"/>
<text text-anchor="middle" x="705.5" y="-147.8" font-family="Times,serif" font-size="14.00">3.5mm &#45;&gt; 6.35mm trs male cable</text>
<text text-anchor="middle" x="705.5" y="-132.8" font-family="Times,serif" font-size="14.00">unbalanced stereo</text>
</g>
<!-- cam_box -->
<g id="node11" class="node"><title>cam_box</title>
<g id="a_node11"><a xlink:href="https://github.com/FOSDEM/video" xlink:title="camera box">
<polygon fill="lightgrey" stroke="black" points="478,-90 398,-90 398,-54 478,-54 478,-90"/>
<text text-anchor="middle" x="438" y="-68.3" font-family="Times,serif" font-size="14.00">camera box</text>
</a>
</g>
</g>
<!-- camera&#45;&gt;cam_box -->
<g id="edge13" class="edge"><title>camera&#45;&gt;cam_box</title>
<path fill="none" stroke="black" d="M373.587,-176.92C386.134,-156.677 407.179,-122.725 421.784,-99.1625"/>
<polygon fill="black" stroke="black" points="424.931,-100.728 427.224,-90.3846 418.981,-97.0404 424.931,-100.728"/>
<text text-anchor="middle" x="433.5" y="-140.3" font-family="Times,serif" font-size="14.00">hdmi cable</text>
</g>
</g>
</svg>
