<?xml version="1.0" encoding="UTF-8" standalone="no"?>
<!DOCTYPE svg PUBLIC "-//W3C//DTD SVG 1.1//EN"
 "http://www.w3.org/Graphics/SVG/1.1/DTD/svg11.dtd">
<!-- Generated by graphviz version 2.38.0 (20140413.2041)
 -->
<!-- Title: G Pages: 1 -->
<svg width="1833pt" height="919pt"
 viewBox="0.00 0.00 1833.00 918.50" xmlns="http://www.w3.org/2000/svg" xmlns:xlink="http://www.w3.org/1999/xlink">
<g id="graph0" class="graph" transform="scale(1 1) rotate(0) translate(4 914.5)">
<title>G</title>
<polygon fill="white" stroke="none" points="-4,4 -4,-914.5 1829,-914.5 1829,4 -4,4"/>
<text text-anchor="middle" x="912.5" y="-22.8" font-family="Times,serif" font-size="14.00">FOSDEM 2017 large rooms video cabling setup:</text>
<text text-anchor="middle" x="912.5" y="-7.8" font-family="Times,serif" font-size="14.00">h1301, h1302, h1308, h1309, ua2114, ua2218a</text>
<g id="clust1" class="cluster"><title>cluster_speaker_microphone_receiver</title>
<g id="a_clust1"><a xlink:href="https://en-us.sennheiser.com/global-downloads/file/6524/AVX_Manual_06_2015_EN.pdf" xlink:title="speaker microphone receiver\nsennheiser ekp avx receiver\nDC autonomy: &gt;4h (BA20 battery)\nAC autonomy: ∞\nphantom auto power on/off">
<polygon fill="none" stroke="black" points="1004,-574.5 1004,-711.5 1254,-711.5 1254,-574.5 1004,-574.5"/>
<text text-anchor="middle" x="1129" y="-696.3" font-family="Times,serif" font-size="14.00">speaker microphone receiver</text>
<text text-anchor="middle" x="1129" y="-681.3" font-family="Times,serif" font-size="14.00">sennheiser ekp avx receiver</text>
<text text-anchor="middle" x="1129" y="-666.3" font-family="Times,serif" font-size="14.00">DC autonomy: &gt;4h (BA20 battery)</text>
<text text-anchor="middle" x="1129" y="-651.3" font-family="Times,serif" font-size="14.00">AC autonomy: ∞</text>
<text text-anchor="middle" x="1129" y="-636.3" font-family="Times,serif" font-size="14.00">phantom auto power on/off</text>
</a>
</g>
</g>
<g id="clust2" class="cluster"><title>cluster_audience_microphone_receiver</title>
<g id="a_clust2"><a xlink:href="https://en-us.sennheiser.com/global-downloads/file/6524/AVX_Manual_06_2015_EN.pdf" xlink:title="audience microphone receiver\nsennheiser ekp avx receiver\nDC autonomy: &gt;4h (BA20 battery)\nAC autonomy: ∞\nphantom auto power on/off">
<polygon fill="none" stroke="black" points="1426,-574.5 1426,-711.5 1676,-711.5 1676,-574.5 1426,-574.5"/>
<text text-anchor="middle" x="1551" y="-696.3" font-family="Times,serif" font-size="14.00">audience microphone receiver</text>
<text text-anchor="middle" x="1551" y="-681.3" font-family="Times,serif" font-size="14.00">sennheiser ekp avx receiver</text>
<text text-anchor="middle" x="1551" y="-666.3" font-family="Times,serif" font-size="14.00">DC autonomy: &gt;4h (BA20 battery)</text>
<text text-anchor="middle" x="1551" y="-651.3" font-family="Times,serif" font-size="14.00">AC autonomy: ∞</text>
<text text-anchor="middle" x="1551" y="-636.3" font-family="Times,serif" font-size="14.00">phantom auto power on/off</text>
</a>
</g>
</g>
<g id="clust3" class="cluster"><title>cluster_camera</title>
<g id="a_clust3"><a xlink:href="https://pro.sony.com/bbsccms/assets/files/micro/nxcam/latest/Sony_HXR-NX100.pdf" xlink:title="camera\nSony HXR&#45;NX100">
<polygon fill="none" stroke="black" points="845,-264.5 845,-371.5 1762,-371.5 1762,-264.5 845,-264.5"/>
<text text-anchor="middle" x="1303.5" y="-356.3" font-family="Times,serif" font-size="14.00">camera</text>
<text text-anchor="middle" x="1303.5" y="-341.3" font-family="Times,serif" font-size="14.00">Sony HXR&#45;NX100</text>
</a>
</g>
</g>
<g id="clust5" class="cluster"><title>cluster_cam_box</title>
<g id="a_clust5"><a xlink:href="https://github.com/FOSDEM/video" xlink:title="camera box">
<polygon fill="none" stroke="lightgrey" points="640,-124.5 640,-201.5 1042,-201.5 1042,-124.5 640,-124.5"/>
<text text-anchor="middle" x="841" y="-186.3" font-family="Times,serif" font-size="14.00">camera box</text>
</a>
</g>
</g>
<g id="clust6" class="cluster"><title>cluster_speaker_box</title>
<g id="a_clust6"><a xlink:href="https://github.com/FOSDEM/video" xlink:title="speaker box">
<polygon fill="none" stroke="lightgrey" points="8,-264.5 8,-356.5 739,-356.5 739,-264.5 8,-264.5"/>
<text text-anchor="middle" x="373.5" y="-341.3" font-family="Times,serif" font-size="14.00">speaker box</text>
</a>
</g>
</g>
<g id="clust7" class="cluster"><title>cluster_mix_panel</title>
<polygon fill="none" stroke="black" points="1118,-419.5 1118,-526.5 1817,-526.5 1817,-419.5 1118,-419.5"/>
<text text-anchor="middle" x="1467.5" y="-511.3" font-family="Times,serif" font-size="14.00">audio mix panel</text>
<text text-anchor="middle" x="1467.5" y="-496.3" font-family="Times,serif" font-size="14.00">Yamaha MG06</text>
</g>
<!-- speaker_microphone -->
<g id="node1" class="node"><title>speaker_microphone</title>
<g id="a_node1"><a xlink:href="https://en-us.sennheiser.com/global-downloads/file/6524/AVX_Manual_06_2015_EN.pdf" xlink:title="speaker microphone\nsennheiser avx me2\nesk avx bodypack transmitter\nautonomy: 15h (BA30 battery)/11h (2x AA)">
<polygon fill="none" stroke="black" points="1332.5,-835.5 1073.5,-835.5 1073.5,-767.5 1332.5,-767.5 1332.5,-835.5"/>
<text text-anchor="middle" x="1203" y="-820.3" font-family="Times,serif" font-size="14.00">speaker microphone</text>
<text text-anchor="middle" x="1203" y="-805.3" font-family="Times,serif" font-size="14.00">sennheiser avx me2</text>
<text text-anchor="middle" x="1203" y="-790.3" font-family="Times,serif" font-size="14.00">esk avx bodypack transmitter</text>
<text text-anchor="middle" x="1203" y="-775.3" font-family="Times,serif" font-size="14.00">autonomy: 15h (BA30 battery)/11h (2x AA)</text>
</a>
</g>
</g>
<!-- speaker_microphone_receiver_xlr_connector -->
<g id="node3" class="node"><title>speaker_microphone_receiver_xlr_connector</title>
<polygon fill="none" stroke="black" points="1246,-619.5 1144,-619.5 1144,-583.5 1246,-583.5 1246,-619.5"/>
<text text-anchor="middle" x="1195" y="-597.8" font-family="Times,serif" font-size="14.00">XLR male plug</text>
</g>
<!-- speaker_microphone&#45;&gt;speaker_microphone_receiver_xlr_connector -->
<g id="edge1" class="edge"><title>speaker_microphone&#45;&gt;speaker_microphone_receiver_xlr_connector</title>
<path fill="none" stroke="black" d="M1201.66,-767.359C1201.13,-754.337 1200.5,-738.532 1199.83,-721.926"/>
<polygon fill="black" stroke="black" points="1203.3,-721.351 1199.4,-711.5 1196.31,-721.633 1203.3,-721.351"/>
<text text-anchor="middle" x="1247.5" y="-730.8" font-family="Times,serif" font-size="14.00">1.9 GHz wireless</text>
</g>
<!-- speaker_microphone_receiver_usb_power_connector -->
<g id="node2" class="node"><title>speaker_microphone_receiver_usb_power_connector</title>
<polygon fill="none" stroke="black" points="1125.5,-620.5 1012.5,-620.5 1012.5,-582.5 1125.5,-582.5 1125.5,-620.5"/>
<text text-anchor="middle" x="1069" y="-605.3" font-family="Times,serif" font-size="14.00">power input port</text>
<text text-anchor="middle" x="1069" y="-590.3" font-family="Times,serif" font-size="14.00">micro usb female</text>
</g>
<!-- mix_panel_mic_1_in -->
<g id="node26" class="node"><title>mix_panel_mic_1_in</title>
<polygon fill="none" stroke="black" points="1263.5,-480.5 1126.5,-480.5 1126.5,-427.5 1263.5,-427.5 1263.5,-480.5"/>
<text text-anchor="middle" x="1195" y="-465.3" font-family="Times,serif" font-size="14.00">mic 1 in</text>
<text text-anchor="middle" x="1195" y="-450.3" font-family="Times,serif" font-size="14.00">XLR female port</text>
<text text-anchor="middle" x="1195" y="-435.3" font-family="Times,serif" font-size="14.00">+48V phantom power</text>
</g>
<!-- speaker_microphone_receiver_xlr_connector&#45;&gt;mix_panel_mic_1_in -->
<g id="edge3" class="edge"><title>speaker_microphone_receiver_xlr_connector&#45;&gt;mix_panel_mic_1_in</title>
<path fill="none" stroke="black" d="M1195,-583.238C1195,-560.577 1195,-520.233 1195,-490.833"/>
<polygon fill="black" stroke="black" points="1198.5,-490.55 1195,-480.55 1191.5,-490.55 1198.5,-490.55"/>
</g>
<!-- speaker_microphone_receiver_charger -->
<g id="node4" class="node"><title>speaker_microphone_receiver_charger</title>
<polygon fill="none" stroke="black" points="1055.5,-819.5 936.5,-819.5 936.5,-783.5 1055.5,-783.5 1055.5,-819.5"/>
<text text-anchor="middle" x="996" y="-797.8" font-family="Times,serif" font-size="14.00">USB power source</text>
</g>
<!-- speaker_microphone_receiver_charger&#45;&gt;speaker_microphone_receiver_usb_power_connector -->
<g id="edge2" class="edge"><title>speaker_microphone_receiver_charger&#45;&gt;speaker_microphone_receiver_usb_power_connector</title>
<path fill="none" stroke="black" d="M1002.35,-783.275C1015.01,-748.942 1043.48,-671.721 1058.79,-630.186"/>
<polygon fill="black" stroke="black" points="1062.12,-631.277 1062.3,-620.683 1055.55,-628.855 1062.12,-631.277"/>
<text text-anchor="middle" x="1102.5" y="-738.3" font-family="Times,serif" font-size="14.00">USB A &#45;&gt; micro USB cable</text>
<text text-anchor="middle" x="1102.5" y="-723.3" font-family="Times,serif" font-size="14.00">included in mic kit</text>
</g>
<!-- audience_microphone -->
<g id="node5" class="node"><title>audience_microphone</title>
<g id="a_node5"><a xlink:href="https://en-us.sennheiser.com/global-downloads/file/6524/AVX_Manual_06_2015_EN.pdf" xlink:title="audience microphone\nsennheiser avx 835\nautonomy: 13h (BA10 battery)/11h (2x AA)">
<polygon fill="none" stroke="black" points="1746.5,-828 1487.5,-828 1487.5,-775 1746.5,-775 1746.5,-828"/>
<text text-anchor="middle" x="1617" y="-812.8" font-family="Times,serif" font-size="14.00">audience microphone</text>
<text text-anchor="middle" x="1617" y="-797.8" font-family="Times,serif" font-size="14.00">sennheiser avx 835</text>
<text text-anchor="middle" x="1617" y="-782.8" font-family="Times,serif" font-size="14.00">autonomy: 13h (BA10 battery)/11h (2x AA)</text>
</a>
</g>
</g>
<!-- audience_microphone_receiver_xlr_connector -->
<g id="node7" class="node"><title>audience_microphone_receiver_xlr_connector</title>
<polygon fill="none" stroke="black" points="1668,-619.5 1566,-619.5 1566,-583.5 1668,-583.5 1668,-619.5"/>
<text text-anchor="middle" x="1617" y="-597.8" font-family="Times,serif" font-size="14.00">XLR male plug</text>
</g>
<!-- audience_microphone&#45;&gt;audience_microphone_receiver_xlr_connector -->
<g id="edge4" class="edge"><title>audience_microphone&#45;&gt;audience_microphone_receiver_xlr_connector</title>
<path fill="none" stroke="black" d="M1617,-774.615C1617,-760.385 1617,-741.601 1617,-721.679"/>
<polygon fill="black" stroke="black" points="1620.5,-721.5 1617,-711.5 1613.5,-721.5 1620.5,-721.5"/>
<text text-anchor="middle" x="1664.5" y="-730.8" font-family="Times,serif" font-size="14.00">1.9 GHz wireless</text>
</g>
<!-- audience_microphone_receiver_usb_power_connector -->
<g id="node6" class="node"><title>audience_microphone_receiver_usb_power_connector</title>
<polygon fill="none" stroke="black" points="1547.5,-620.5 1434.5,-620.5 1434.5,-582.5 1547.5,-582.5 1547.5,-620.5"/>
<text text-anchor="middle" x="1491" y="-605.3" font-family="Times,serif" font-size="14.00">power input port</text>
<text text-anchor="middle" x="1491" y="-590.3" font-family="Times,serif" font-size="14.00">micro usb female</text>
</g>
<!-- mix_panel_mic_2_in -->
<g id="node27" class="node"><title>mix_panel_mic_2_in</title>
<polygon fill="none" stroke="black" points="1736.5,-480.5 1599.5,-480.5 1599.5,-427.5 1736.5,-427.5 1736.5,-480.5"/>
<text text-anchor="middle" x="1668" y="-465.3" font-family="Times,serif" font-size="14.00">mic 2 in</text>
<text text-anchor="middle" x="1668" y="-450.3" font-family="Times,serif" font-size="14.00">XLR female port</text>
<text text-anchor="middle" x="1668" y="-435.3" font-family="Times,serif" font-size="14.00">+48V phantom power</text>
</g>
<!-- audience_microphone_receiver_xlr_connector&#45;&gt;mix_panel_mic_2_in -->
<g id="edge6" class="edge"><title>audience_microphone_receiver_xlr_connector&#45;&gt;mix_panel_mic_2_in</title>
<path fill="none" stroke="black" d="M1623.05,-583.238C1631.06,-560.379 1645.38,-519.524 1655.71,-490.062"/>
<polygon fill="black" stroke="black" points="1659.04,-491.145 1659.04,-480.55 1652.43,-488.829 1659.04,-491.145"/>
</g>
<!-- audience_microphone_receiver_charger -->
<g id="node8" class="node"><title>audience_microphone_receiver_charger</title>
<polygon fill="none" stroke="black" points="1469.5,-819.5 1350.5,-819.5 1350.5,-783.5 1469.5,-783.5 1469.5,-819.5"/>
<text text-anchor="middle" x="1410" y="-797.8" font-family="Times,serif" font-size="14.00">USB power source</text>
</g>
<!-- audience_microphone_receiver_charger&#45;&gt;audience_microphone_receiver_usb_power_connector -->
<g id="edge5" class="edge"><title>audience_microphone_receiver_charger&#45;&gt;audience_microphone_receiver_usb_power_connector</title>
<path fill="none" stroke="black" d="M1417.05,-783.275C1431.09,-748.942 1462.68,-671.721 1479.67,-630.186"/>
<polygon fill="black" stroke="black" points="1483.01,-631.264 1483.56,-620.683 1476.54,-628.614 1483.01,-631.264"/>
<text text-anchor="middle" x="1520.5" y="-738.3" font-family="Times,serif" font-size="14.00">USB A &#45;&gt; micro USB cable</text>
<text text-anchor="middle" x="1520.5" y="-723.3" font-family="Times,serif" font-size="14.00">included in mic kit</text>
</g>
<!-- speaker_laptop -->
<g id="node9" class="node"><title>speaker_laptop</title>
<polygon fill="none" stroke="black" points="344.5,-619.5 249.5,-619.5 249.5,-583.5 344.5,-583.5 344.5,-619.5"/>
<text text-anchor="middle" x="297" y="-597.8" font-family="Times,serif" font-size="14.00">speaker laptop</text>
</g>
<!-- speaker_laptop_optional_adapter -->
<g id="node10" class="node"><title>speaker_laptop_optional_adapter</title>
<polygon fill="none" stroke="black" stroke-dasharray="1,5" points="687.5,-472 518.5,-472 518.5,-436 687.5,-436 687.5,-472"/>
<text text-anchor="middle" x="603" y="-450.3" font-family="Times,serif" font-size="14.00">optional hdmi&#45;&gt;vga adapter</text>
</g>
<!-- speaker_laptop&#45;&gt;speaker_laptop_optional_adapter -->
<g id="edge11" class="edge"><title>speaker_laptop&#45;&gt;speaker_laptop_optional_adapter</title>
<path fill="none" stroke="black" stroke-dasharray="1,5" d="M344.627,-587.654C387.644,-575.089 451.988,-553.87 504,-526.5 529.496,-513.083 555.82,-493.764 574.908,-478.588"/>
<polygon fill="black" stroke="black" points="577.296,-481.159 582.881,-472.156 572.901,-475.711 577.296,-481.159"/>
<text text-anchor="middle" x="524" y="-553.3" font-family="Times,serif" font-size="14.00">HDMI cable</text>
<text text-anchor="middle" x="524" y="-538.3" font-family="Times,serif" font-size="14.00">male/male</text>
</g>
<!-- speaker_box_vga_in -->
<g id="node20" class="node"><title>speaker_box_vga_in</title>
<polygon fill="lightgrey" stroke="black" points="731.5,-325.5 638.5,-325.5 638.5,-272.5 731.5,-272.5 731.5,-325.5"/>
<text text-anchor="middle" x="685" y="-310.3" font-family="Times,serif" font-size="14.00">VGA in</text>
<text text-anchor="middle" x="685" y="-295.3" font-family="Times,serif" font-size="14.00">left VGA port</text>
<text text-anchor="middle" x="685" y="-280.3" font-family="Times,serif" font-size="14.00">female</text>
</g>
<!-- speaker_laptop&#45;&gt;speaker_box_vga_in -->
<g id="edge9" class="edge"><title>speaker_laptop&#45;&gt;speaker_box_vga_in</title>
<path fill="none" stroke="black" stroke-dasharray="1,5" d="M344.814,-598.619C440.311,-593.795 649.487,-577.524 696,-526.5 740.504,-477.68 730.912,-444.287 718,-379.5 714.991,-364.405 709.062,-348.587 703.049,-335.072"/>
<polygon fill="black" stroke="black" points="706.077,-333.282 698.696,-325.681 699.726,-336.225 706.077,-333.282"/>
<text text-anchor="middle" x="803" y="-450.3" font-family="Times,serif" font-size="14.00">direct vga cable male/male</text>
</g>
<!-- speaker_box_audio_in -->
<g id="node22" class="node"><title>speaker_box_audio_in</title>
<polygon fill="lightgrey" stroke="black" points="470,-325.5 348,-325.5 348,-272.5 470,-272.5 470,-325.5"/>
<text text-anchor="middle" x="409" y="-310.3" font-family="Times,serif" font-size="14.00">audio in</text>
<text text-anchor="middle" x="409" y="-295.3" font-family="Times,serif" font-size="14.00">left audio port</text>
<text text-anchor="middle" x="409" y="-280.3" font-family="Times,serif" font-size="14.00">6.35mm trs female</text>
</g>
<!-- speaker_laptop&#45;&gt;speaker_box_audio_in -->
<g id="edge10" class="edge"><title>speaker_laptop&#45;&gt;speaker_box_audio_in</title>
<path fill="none" stroke="black" stroke-dasharray="1,5" d="M291.939,-583.453C283.06,-550.354 267.718,-475.707 291,-419.5 302.546,-391.627 317.78,-392.946 339,-371.5 351.446,-358.922 365.069,-345.033 376.963,-332.869"/>
<polygon fill="black" stroke="black" points="379.634,-335.143 384.12,-325.545 374.628,-330.251 379.634,-335.143"/>
<text text-anchor="middle" x="400" y="-457.8" font-family="Times,serif" font-size="14.00">3.5mm male &#45;&gt; 6.35mm trs male cable</text>
<text text-anchor="middle" x="400" y="-442.8" font-family="Times,serif" font-size="14.00">unbalanced stereo</text>
</g>
<!-- speaker_laptop_optional_adapter&#45;&gt;speaker_box_vga_in -->
<g id="edge12" class="edge"><title>speaker_laptop_optional_adapter&#45;&gt;speaker_box_vga_in</title>
<path fill="none" stroke="black" stroke-dasharray="1,5" d="M597.984,-435.75C594.403,-419.598 592.077,-395.602 604,-379.5 610.942,-370.124 619.425,-378.164 629,-371.5 643.013,-361.747 655.191,-347.453 664.578,-334.204"/>
<polygon fill="black" stroke="black" points="667.624,-335.948 670.336,-325.706 661.829,-332.022 667.624,-335.948"/>
<text text-anchor="middle" x="661" y="-390.8" font-family="Times,serif" font-size="14.00">vga cable male/male</text>
</g>
<!-- speaker_laptop_optional_adapter&#45;&gt;speaker_box_audio_in -->
<g id="edge13" class="edge"><title>speaker_laptop_optional_adapter&#45;&gt;speaker_box_audio_in</title>
<path fill="none" stroke="black" stroke-dasharray="1,5" d="M559.753,-435.916C542.64,-429.806 522.636,-423.459 504,-419.5 480.423,-414.492 412.238,-427.312 396,-409.5 377.976,-389.73 383.504,-358.915 392.241,-335.004"/>
<polygon fill="black" stroke="black" points="395.553,-336.147 395.982,-325.561 389.045,-333.569 395.553,-336.147"/>
<text text-anchor="middle" x="494" y="-398.3" font-family="Times,serif" font-size="14.00">3.5 &#45;&gt; 6.35mm trs male/male cable</text>
<text text-anchor="middle" x="494" y="-383.3" font-family="Times,serif" font-size="14.00">unbalanced stereo</text>
</g>
<!-- camera_xlr_in_1 -->
<g id="node11" class="node"><title>camera_xlr_in_1</title>
<polygon fill="none" stroke="black" points="1753.5,-325.5 1624.5,-325.5 1624.5,-272.5 1753.5,-272.5 1753.5,-325.5"/>
<text text-anchor="middle" x="1689" y="-310.3" font-family="Times,serif" font-size="14.00">audio in CH1</text>
<text text-anchor="middle" x="1689" y="-295.3" font-family="Times,serif" font-size="14.00">XLR female port</text>
<text text-anchor="middle" x="1689" y="-280.3" font-family="Times,serif" font-size="14.00">48V phantom power</text>
</g>
<!-- camera_xlr_in_2 -->
<g id="node12" class="node"><title>camera_xlr_in_2</title>
<polygon fill="none" stroke="black" points="1606.5,-325.5 1477.5,-325.5 1477.5,-272.5 1606.5,-272.5 1606.5,-325.5"/>
<text text-anchor="middle" x="1542" y="-310.3" font-family="Times,serif" font-size="14.00">audio in CH2</text>
<text text-anchor="middle" x="1542" y="-295.3" font-family="Times,serif" font-size="14.00">XLR female port</text>
<text text-anchor="middle" x="1542" y="-280.3" font-family="Times,serif" font-size="14.00">48V phantom power</text>
</g>
<!-- camera_hdmi_out -->
<g id="node13" class="node"><title>camera_hdmi_out</title>
<polygon fill="none" stroke="black" points="1145,-318 981,-318 981,-280 1145,-280 1145,-318"/>
<text text-anchor="middle" x="1063" y="-302.8" font-family="Times,serif" font-size="14.00">HDMI out</text>
<text text-anchor="middle" x="1063" y="-287.8" font-family="Times,serif" font-size="14.00">HDMI A (full size) female</text>
</g>
<!-- cam_box_hdmi_in -->
<g id="node17" class="node"><title>cam_box_hdmi_in</title>
<polygon fill="lightgrey" stroke="black" points="1034,-170.5 870,-170.5 870,-132.5 1034,-132.5 1034,-170.5"/>
<text text-anchor="middle" x="952" y="-155.3" font-family="Times,serif" font-size="14.00">HDMI in</text>
<text text-anchor="middle" x="952" y="-140.3" font-family="Times,serif" font-size="14.00">HDMI A (full size) female</text>
</g>
<!-- camera_hdmi_out&#45;&gt;cam_box_hdmi_in -->
<g id="edge14" class="edge"><title>camera_hdmi_out&#45;&gt;cam_box_hdmi_in</title>
<path fill="none" stroke="black" d="M1049.17,-279.867C1029.81,-254.49 994.508,-208.219 972.205,-178.985"/>
<polygon fill="black" stroke="black" points="974.856,-176.69 966.008,-170.862 969.291,-180.935 974.856,-176.69"/>
<text text-anchor="middle" x="1080.5" y="-243.3" font-family="Times,serif" font-size="14.00">HDMI cable</text>
<text text-anchor="middle" x="1080.5" y="-228.3" font-family="Times,serif" font-size="14.00">HDMI A (full size)</text>
<text text-anchor="middle" x="1080.5" y="-213.3" font-family="Times,serif" font-size="14.00">male/male</text>
</g>
<!-- camera_internal_mic -->
<g id="node14" class="node"><title>camera_internal_mic</title>
<polygon fill="none" stroke="black" points="1290.5,-318 1163.5,-318 1163.5,-280 1290.5,-280 1290.5,-318"/>
<text text-anchor="middle" x="1227" y="-302.8" font-family="Times,serif" font-size="14.00">audio in CH2</text>
<text text-anchor="middle" x="1227" y="-287.8" font-family="Times,serif" font-size="14.00">internal microphone</text>
</g>
<!-- camera_audio_monitor -->
<g id="node15" class="node"><title>camera_audio_monitor</title>
<polygon fill="none" stroke="black" points="1459.5,-318 1308.5,-318 1308.5,-280 1459.5,-280 1459.5,-318"/>
<text text-anchor="middle" x="1384" y="-302.8" font-family="Times,serif" font-size="14.00">audio monitoring port</text>
<text text-anchor="middle" x="1384" y="-287.8" font-family="Times,serif" font-size="14.00">3.5mm trs stereo female</text>
</g>
<!-- headphones -->
<g id="node34" class="node"><title>headphones</title>
<g id="a_node34"><a xlink:href="https://en-us.sennheiser.com/over-ear-headphones-hd-201" xlink:title="Sennheiser HD201 headphones\n3.5mm trs stereo male\nrental budgetcam">
<polygon fill="none" stroke="black" points="1477.5,-178 1290.5,-178 1290.5,-125 1477.5,-125 1477.5,-178"/>
<text text-anchor="middle" x="1384" y="-162.8" font-family="Times,serif" font-size="14.00">Sennheiser HD201 headphones</text>
<text text-anchor="middle" x="1384" y="-147.8" font-family="Times,serif" font-size="14.00">3.5mm trs stereo male</text>
<text text-anchor="middle" x="1384" y="-132.8" font-family="Times,serif" font-size="14.00">rental budgetcam</text>
</a>
</g>
</g>
<!-- camera_audio_monitor&#45;&gt;headphones -->
<g id="edge16" class="edge"><title>camera_audio_monitor&#45;&gt;headphones</title>
<path fill="none" stroke="black" d="M1384,-279.867C1384,-257.07 1384,-217.412 1384,-188.39"/>
<polygon fill="black" stroke="black" points="1387.5,-188.23 1384,-178.23 1380.5,-188.23 1387.5,-188.23"/>
</g>
<!-- camera_ac_in -->
<g id="node16" class="node"><title>camera_ac_in</title>
<polygon fill="none" stroke="black" points="963,-317 853,-317 853,-281 963,-281 963,-317"/>
<text text-anchor="middle" x="908" y="-295.3" font-family="Times,serif" font-size="14.00">camera AC input</text>
</g>
<!-- cam_box_switch -->
<g id="node18" class="node"><title>cam_box_switch</title>
<polygon fill="lightgrey" stroke="black" points="780,-169.5 648,-169.5 648,-133.5 780,-133.5 780,-169.5"/>
<text text-anchor="middle" x="714" y="-147.8" font-family="Times,serif" font-size="14.00">3x Gbit dumb switch</text>
</g>
<!-- video_vlan -->
<g id="node35" class="node"><title>video_vlan</title>
<polygon fill="none" stroke="black" stroke-dasharray="1,5" points="668.5,-74 535.5,-74 535.5,-38 668.5,-38 668.5,-74"/>
<text text-anchor="middle" x="602" y="-52.3" font-family="Times,serif" font-size="14.00">FOSDEM video vlan</text>
</g>
<!-- cam_box_switch&#45;&gt;video_vlan -->
<g id="edge18" class="edge"><title>cam_box_switch&#45;&gt;video_vlan</title>
<path fill="none" stroke="black" d="M685.693,-126.869C668.747,-112.722 647.281,-94.8012 630.331,-80.6511"/>
<polygon fill="black" stroke="black" points="683.538,-129.629 693.457,-133.351 688.024,-124.255 683.538,-129.629"/>
<polygon fill="black" stroke="black" points="632.332,-77.7624 622.412,-74.0406 627.846,-83.1361 632.332,-77.7624"/>
<text text-anchor="middle" x="700" y="-95.8" font-family="Times,serif" font-size="14.00">ethernet cable</text>
</g>
<!-- cam_box_ac_in -->
<g id="node19" class="node"><title>cam_box_ac_in</title>
<polygon fill="lightgrey" stroke="black" points="852,-169.5 798,-169.5 798,-133.5 852,-133.5 852,-169.5"/>
<text text-anchor="middle" x="825" y="-147.8" font-family="Times,serif" font-size="14.00">AC in</text>
</g>
<!-- speaker_box_vga_out -->
<g id="node21" class="node"><title>speaker_box_vga_out</title>
<polygon fill="lightgrey" stroke="black" points="189.5,-325.5 88.5,-325.5 88.5,-272.5 189.5,-272.5 189.5,-325.5"/>
<text text-anchor="middle" x="139" y="-310.3" font-family="Times,serif" font-size="14.00">VGA out</text>
<text text-anchor="middle" x="139" y="-295.3" font-family="Times,serif" font-size="14.00">right VGA port</text>
<text text-anchor="middle" x="139" y="-280.3" font-family="Times,serif" font-size="14.00">female</text>
</g>
<!-- room_projector -->
<g id="node33" class="node"><title>room_projector</title>
<polygon fill="none" stroke="black" points="212,-178 66,-178 66,-125 212,-125 212,-178"/>
<text text-anchor="middle" x="139" y="-162.8" font-family="Times,serif" font-size="14.00">room projector VGA in</text>
<text text-anchor="middle" x="139" y="-147.8" font-family="Times,serif" font-size="14.00">VGA port</text>
<text text-anchor="middle" x="139" y="-132.8" font-family="Times,serif" font-size="14.00">female</text>
</g>
<!-- speaker_box_vga_out&#45;&gt;room_projector -->
<g id="edge15" class="edge"><title>speaker_box_vga_out&#45;&gt;room_projector</title>
<path fill="none" stroke="black" d="M139,-272.322C139,-249.091 139,-214.635 139,-188.628"/>
<polygon fill="black" stroke="black" points="142.5,-188.41 139,-178.41 135.5,-188.41 142.5,-188.41"/>
<text text-anchor="middle" x="170" y="-235.8" font-family="Times,serif" font-size="14.00">VGA cable</text>
<text text-anchor="middle" x="170" y="-220.8" font-family="Times,serif" font-size="14.00">male/male</text>
</g>
<!-- speaker_box_audio_out -->
<g id="node23" class="node"><title>speaker_box_audio_out</title>
<polygon fill="lightgrey" stroke="black" points="330,-325.5 208,-325.5 208,-272.5 330,-272.5 330,-325.5"/>
<text text-anchor="middle" x="269" y="-310.3" font-family="Times,serif" font-size="14.00">audio out</text>
<text text-anchor="middle" x="269" y="-295.3" font-family="Times,serif" font-size="14.00">right audio port</text>
<text text-anchor="middle" x="269" y="-280.3" font-family="Times,serif" font-size="14.00">6.35mm trs female</text>
</g>
<!-- speaker_box_switch -->
<g id="node24" class="node"><title>speaker_box_switch</title>
<polygon fill="lightgrey" stroke="black" points="620,-317 488,-317 488,-281 620,-281 620,-317"/>
<text text-anchor="middle" x="554" y="-295.3" font-family="Times,serif" font-size="14.00">3x Gbit dumb switch</text>
</g>
<!-- speaker_box_switch&#45;&gt;cam_box_switch -->
<g id="edge19" class="edge"><title>speaker_box_switch&#45;&gt;cam_box_switch</title>
<path fill="none" stroke="black" d="M580.715,-273.706C610.394,-246.717 658.015,-203.411 687.576,-176.529"/>
<polygon fill="black" stroke="black" points="578.026,-271.421 572.982,-280.738 582.736,-276.599 578.026,-271.421"/>
<polygon fill="black" stroke="black" points="689.999,-179.057 695.042,-169.74 685.289,-173.878 689.999,-179.057"/>
<text text-anchor="middle" x="687" y="-228.3" font-family="Times,serif" font-size="14.00">ethernet cable</text>
</g>
<!-- speaker_box_switch&#45;&gt;video_vlan -->
<g id="edge17" class="edge"><title>speaker_box_switch&#45;&gt;video_vlan</title>
<path fill="none" stroke="black" d="M550.656,-270.448C547.392,-235.613 544.869,-174.192 560,-124.5 564.594,-109.413 573.455,-94.3462 581.858,-82.2874"/>
<polygon fill="black" stroke="black" points="547.214,-271.187 551.721,-280.775 554.177,-270.469 547.214,-271.187"/>
<polygon fill="black" stroke="black" points="584.775,-84.2265 587.828,-74.081 579.115,-80.1083 584.775,-84.2265"/>
<text text-anchor="middle" x="598" y="-147.8" font-family="Times,serif" font-size="14.00">ethernet cable</text>
</g>
<!-- speaker_box_ac_in -->
<g id="node25" class="node"><title>speaker_box_ac_in</title>
<polygon fill="lightgrey" stroke="black" points="70,-317 16,-317 16,-281 70,-281 70,-317"/>
<text text-anchor="middle" x="43" y="-295.3" font-family="Times,serif" font-size="14.00">AC in</text>
</g>
<!-- mix_panel_out_1 -->
<g id="node28" class="node"><title>mix_panel_out_1</title>
<polygon fill="none" stroke="black" points="1581.5,-480.5 1444.5,-480.5 1444.5,-427.5 1581.5,-427.5 1581.5,-480.5"/>
<text text-anchor="middle" x="1513" y="-465.3" font-family="Times,serif" font-size="14.00">mix panel out left</text>
<text text-anchor="middle" x="1513" y="-450.3" font-family="Times,serif" font-size="14.00">XLR male port</text>
<text text-anchor="middle" x="1513" y="-435.3" font-family="Times,serif" font-size="14.00">balanced left or mono</text>
</g>
<!-- mix_panel_out_1&#45;&gt;camera_xlr_in_1 -->
<g id="edge7" class="edge"><title>mix_panel_out_1&#45;&gt;camera_xlr_in_1</title>
<path fill="none" stroke="black" d="M1547.13,-427.446C1567.54,-411.806 1593.76,-391.096 1616,-371.5 1629.8,-359.344 1644.39,-345.31 1656.87,-332.912"/>
<polygon fill="black" stroke="black" points="1659.36,-335.373 1663.95,-325.827 1654.41,-330.424 1659.36,-335.373"/>
<text text-anchor="middle" x="1639.5" y="-398.3" font-family="Times,serif" font-size="14.00">xlr cable</text>
<text text-anchor="middle" x="1639.5" y="-383.3" font-family="Times,serif" font-size="14.00">female/male</text>
</g>
<!-- mix_panel_out_2 -->
<g id="node29" class="node"><title>mix_panel_out_2</title>
<polygon fill="none" stroke="black" points="1426,-480.5 1282,-480.5 1282,-427.5 1426,-427.5 1426,-480.5"/>
<text text-anchor="middle" x="1354" y="-465.3" font-family="Times,serif" font-size="14.00">mix panel out right</text>
<text text-anchor="middle" x="1354" y="-450.3" font-family="Times,serif" font-size="14.00">XLR male port</text>
<text text-anchor="middle" x="1354" y="-435.3" font-family="Times,serif" font-size="14.00">balanced right or mono</text>
</g>
<!-- mix_panel_out_2&#45;&gt;camera_xlr_in_2 -->
<g id="edge8" class="edge"><title>mix_panel_out_2&#45;&gt;camera_xlr_in_2</title>
<path fill="none" stroke="black" d="M1393.2,-427.488C1415.98,-412.111 1444.86,-391.656 1469,-371.5 1483.34,-359.523 1498.24,-345.298 1510.81,-332.702"/>
<polygon fill="black" stroke="black" points="1513.38,-335.078 1517.92,-325.504 1508.4,-330.16 1513.38,-335.078"/>
<text text-anchor="middle" x="1491.5" y="-398.3" font-family="Times,serif" font-size="14.00">xlr cable</text>
<text text-anchor="middle" x="1491.5" y="-383.3" font-family="Times,serif" font-size="14.00">female/male</text>
</g>
<!-- mix_panel_ac_in -->
<g id="node30" class="node"><title>mix_panel_ac_in</title>
<polygon fill="none" stroke="black" points="1809,-472 1755,-472 1755,-436 1809,-436 1809,-472"/>
<text text-anchor="middle" x="1782" y="-450.3" font-family="Times,serif" font-size="14.00">AC in</text>
</g>
<!-- cam_power_strip -->
<g id="node31" class="node"><title>cam_power_strip</title>
<polygon fill="none" stroke="black" points="1495,-910.5 1325,-910.5 1325,-872.5 1495,-872.5 1495,-910.5"/>
<text text-anchor="middle" x="1410" y="-895.3" font-family="Times,serif" font-size="14.00">camera side power strip</text>
<text text-anchor="middle" x="1410" y="-880.3" font-family="Times,serif" font-size="14.00">&gt;=4 CEE 7/3 or 7/5 sockets</text>
</g>
<!-- cam_power_strip&#45;&gt;speaker_microphone_receiver_charger -->
<g id="edge20" class="edge"><title>cam_power_strip&#45;&gt;speaker_microphone_receiver_charger</title>
<path fill="none" stroke="black" d="M1410,-853.5C1388.22,-821.892 1102.2,-844.964 1065,-835.5 1054.66,-832.87 1044.02,-828.642 1034.28,-824.077"/>
<polygon fill="black" stroke="black" points="1035.78,-820.912 1025.26,-819.638 1032.68,-827.193 1035.78,-820.912"/>
</g>
<!-- cam_power_strip&#45;&gt;audience_microphone_receiver_charger -->
<g id="edge21" class="edge"><title>cam_power_strip&#45;&gt;audience_microphone_receiver_charger</title>
<path fill="none" stroke="black" d="M1410,-853.5C1405.27,-846.631 1404.02,-837.909 1404.33,-829.63"/>
<polygon fill="black" stroke="black" points="1407.82,-829.869 1405.41,-819.552 1400.86,-829.12 1407.82,-829.869"/>
</g>
<!-- cam_power_strip&#45;&gt;camera_ac_in -->
<g id="edge22" class="edge"><title>cam_power_strip&#45;&gt;camera_ac_in</title>
<path fill="none" stroke="black" d="M908,-393.5C903.443,-371.579 903.796,-346.137 905.092,-327.332"/>
<polygon fill="black" stroke="black" points="908.602,-327.357 905.933,-317.104 901.625,-326.783 908.602,-327.357"/>
</g>
<!-- cam_power_strip&#45;&gt;cam_box_ac_in -->
<g id="edge23" class="edge"><title>cam_power_strip&#45;&gt;cam_box_ac_in</title>
<path fill="none" stroke="black" d="M1413.95,-872.424C1414.32,-866.268 1413.54,-859.649 1410,-854.5"/>
<path fill="none" stroke="black" d="M1410,-853.5C1379.62,-809.351 966.049,-873.242 928,-835.5 789.019,-697.64 947.844,-587.16 908,-395.5"/>
<path fill="none" stroke="black" d="M908,-393.5C900.85,-362.984 860.296,-396.198 841,-371.5 797.108,-315.322 808.804,-224.355 818.296,-179.404"/>
<polygon fill="black" stroke="black" points="821.739,-180.045 820.507,-169.522 814.908,-178.517 821.739,-180.045"/>
</g>
<!-- cam_power_strip&#45;&gt;mix_panel_ac_in -->
<g id="edge24" class="edge"><title>cam_power_strip&#45;&gt;mix_panel_ac_in</title>
<path fill="none" stroke="black" d="M1410,-853.5C1388.16,-821.8 1728.56,-862.499 1756,-835.5 1853.2,-739.871 1810.84,-551.88 1790.56,-482"/>
<polygon fill="black" stroke="black" points="1793.85,-480.78 1787.63,-472.2 1787.14,-482.784 1793.85,-480.78"/>
</g>
<!-- speaker_power_strip -->
<g id="node32" class="node"><title>speaker_power_strip</title>
<polygon fill="none" stroke="black" points="306,-820.5 136,-820.5 136,-782.5 306,-782.5 306,-820.5"/>
<text text-anchor="middle" x="221" y="-805.3" font-family="Times,serif" font-size="14.00">speaker side power strip</text>
<text text-anchor="middle" x="221" y="-790.3" font-family="Times,serif" font-size="14.00">&gt;=4 CEE 7/3 or 7/5 sockets</text>
</g>
<!-- speaker_power_strip&#45;&gt;speaker_laptop -->
<g id="edge25" class="edge"><title>speaker_power_strip&#45;&gt;speaker_laptop</title>
<path fill="none" stroke="black" d="M221,-733.5C222.608,-722.022 229.022,-721.429 235,-711.5 251.9,-683.43 270.358,-650.692 282.7,-628.476"/>
<polygon fill="black" stroke="black" points="285.809,-630.087 287.593,-619.644 279.686,-626.695 285.809,-630.087"/>
</g>
<!-- speaker_power_strip&#45;&gt;speaker_box_ac_in -->
<g id="edge26" class="edge"><title>speaker_power_strip&#45;&gt;speaker_box_ac_in</title>
<path fill="none" stroke="black" d="M219.664,-782.474C219.017,-769.376 218.793,-751.258 221,-735.5"/>
<path fill="none" stroke="black" d="M221,-733.5C227.071,-690.151 97.1441,-413.334 55.5818,-326.213"/>
<polygon fill="black" stroke="black" points="58.6532,-324.523 51.183,-317.01 52.3375,-327.541 58.6532,-324.523"/>
</g>
</g>
</svg>
