<?xml version="1.0" encoding="UTF-8" standalone="no"?>
<!DOCTYPE svg PUBLIC "-//W3C//DTD SVG 1.1//EN"
 "http://www.w3.org/Graphics/SVG/1.1/DTD/svg11.dtd">
<!-- Generated by graphviz version 9.0.0 (0)
 -->
<!-- Title: G Pages: 1 -->
<svg width="1609pt" height="760pt"
 viewBox="0.00 0.00 1609.12 760.25" xmlns="http://www.w3.org/2000/svg" xmlns:xlink="http://www.w3.org/1999/xlink">
<g id="graph0" class="graph" transform="scale(1 1) rotate(0) translate(4 756.25)">
<title>G</title>
<polygon fill="white" stroke="none" points="-4,4 -4,-756.25 1605.12,-756.25 1605.12,4 -4,4"/>
<text text-anchor="middle" x="800.56" y="-23.7" font-family="Times,serif" font-size="14.00">FOSDEM 2024 12 small rooms video cabling setup:</text>
<text text-anchor="middle" x="800.56" y="-7.2" font-family="Times,serif" font-size="14.00">aw1120, aw1121, aw1125, aw1126, h2213, h2214, k3201, k3401, k4201, k4401, k4601, ud2119</text>
<g id="clust1" class="cluster">
<title>cluster_speaker_microphone_receiver</title>
<g id="a_clust1"><a xlink:href="https://en-us.sennheiser.com/global-downloads/file/6524/AVX_Manual_06_2015_EN.pdf" xlink:title="speaker microphone receiver\nsennheiser ekp avx receiver\nDC autonomy: &gt;4h (BA20 battery)\nAC autonomy: ∞\nphantom auto power on/off">
<polygon fill="none" stroke="black" points="1246.38,-471.75 1246.38,-619.25 1494.38,-619.25 1494.38,-471.75 1246.38,-471.75"/>
<text text-anchor="middle" x="1370.38" y="-601.95" font-family="Times,serif" font-size="14.00">speaker microphone receiver</text>
<text text-anchor="middle" x="1370.38" y="-585.45" font-family="Times,serif" font-size="14.00">sennheiser ekp avx receiver</text>
<text text-anchor="middle" x="1370.38" y="-568.95" font-family="Times,serif" font-size="14.00">DC autonomy: &gt;4h (BA20 battery)</text>
<text text-anchor="middle" x="1370.38" y="-552.45" font-family="Times,serif" font-size="14.00">AC autonomy: ∞</text>
<text text-anchor="middle" x="1370.38" y="-535.95" font-family="Times,serif" font-size="14.00">phantom auto power on/off</text>
</a>
</g>
</g>
<g id="clust2" class="cluster">
<title>cluster_camera</title>
<g id="a_clust2"><a xlink:href="https://pro.sony.com/bbsccms/assets/files/micro/nxcam/latest/Sony_HXR-NX100.pdf" xlink:title="camera\nSony HXR&#45;NX100">
<polygon fill="none" stroke="black" points="744.38,-322.75 744.38,-437.25 1507.38,-437.25 1507.38,-322.75 744.38,-322.75"/>
<text text-anchor="middle" x="1125.88" y="-419.95" font-family="Times,serif" font-size="14.00">camera</text>
<text text-anchor="middle" x="1125.88" y="-403.45" font-family="Times,serif" font-size="14.00">Sony HXR&#45;NX100</text>
</a>
</g>
</g>
<g id="clust5" class="cluster">
<title>cluster_cam_laptop</title>
<polygon fill="none" stroke="lightgrey" points="594.38,-333.5 594.38,-410 736.38,-410 736.38,-333.5 594.38,-333.5"/>
<text text-anchor="middle" x="665.38" y="-392.7" font-family="Times,serif" font-size="14.00">cam box laptop</text>
</g>
<g id="clust6" class="cluster">
<title>cluster_cam_box</title>
<g id="a_clust6"><a xlink:href="https://github.com/FOSDEM/video" xlink:title="camera box">
<polygon fill="none" stroke="lightgrey" points="512.38,-167.75 512.38,-249.25 912.38,-249.25 912.38,-167.75 512.38,-167.75"/>
<text text-anchor="middle" x="712.38" y="-231.95" font-family="Times,serif" font-size="14.00">camera box</text>
</a>
</g>
</g>
<g id="clust7" class="cluster">
<title>cluster_speaker</title>
<polygon fill="none" stroke="lightgrey" points="102.38,-314.75 102.38,-558.75 582.38,-558.75 582.38,-314.75 102.38,-314.75"/>
</g>
<g id="clust8" class="cluster">
<title>cluster_speaker_box</title>
<g id="a_clust8"><a xlink:href="https://github.com/FOSDEM/video" xlink:title="speaker box">
<polygon fill="none" stroke="lightgrey" points="110.38,-322.75 110.38,-420.75 574.38,-420.75 574.38,-322.75 110.38,-322.75"/>
<text text-anchor="middle" x="342.38" y="-403.45" font-family="Times,serif" font-size="14.00">speaker box</text>
</a>
</g>
</g>
<g id="clust9" class="cluster">
<title>cluster_speaker_video_laptop</title>
<polygon fill="none" stroke="lightgrey" points="241.38,-474.25 241.38,-550.75 383.38,-550.75 383.38,-474.25 241.38,-474.25"/>
<text text-anchor="middle" x="312.38" y="-533.45" font-family="Times,serif" font-size="14.00">speaker box laptop</text>
</g>
<!-- cam_power_strip -->
<g id="node1" class="node">
<title>cam_power_strip</title>
<polygon fill="none" stroke="black" points="891.88,-520.75 722.88,-520.75 722.88,-479.75 891.88,-479.75 891.88,-520.75"/>
<text text-anchor="middle" x="807.38" y="-503.45" font-family="Times,serif" font-size="14.00">camera side power strip</text>
<text text-anchor="middle" x="807.38" y="-486.95" font-family="Times,serif" font-size="14.00">&gt;=4 CEE 7/3 or 7/5 sockets</text>
</g>
<!-- camera_ac_in -->
<g id="node12" class="node">
<title>camera_ac_in</title>
<polygon fill="none" stroke="black" points="861.88,-377.5 752.88,-377.5 752.88,-341.5 861.88,-341.5 861.88,-377.5"/>
<text text-anchor="middle" x="807.38" y="-354.45" font-family="Times,serif" font-size="14.00">camera AC input</text>
</g>
<!-- cam_power_strip&#45;&gt;camera_ac_in -->
<g id="edge14" class="edge">
<title>cam_power_strip&#45;&gt;camera_ac_in</title>
<path fill="none" stroke="black" d="M807.38,-452.5C801.95,-431.82 802.2,-407.6 803.67,-389.21"/>
<polygon fill="black" stroke="black" points="807.15,-389.59 804.65,-379.3 800.18,-388.9 807.15,-389.59"/>
</g>
<!-- cam_laptop_ac_in -->
<g id="node13" class="node">
<title>cam_laptop_ac_in</title>
<polygon fill="lightgrey" stroke="black" points="728.38,-377.5 674.38,-377.5 674.38,-341.5 728.38,-341.5 728.38,-377.5"/>
<text text-anchor="middle" x="701.38" y="-354.45" font-family="Times,serif" font-size="14.00">AC in</text>
</g>
<!-- cam_power_strip&#45;&gt;cam_laptop_ac_in -->
<g id="edge15" class="edge">
<title>cam_power_strip&#45;&gt;cam_laptop_ac_in</title>
<path fill="none" stroke="black" d="M809.53,-479.37C809.83,-471.51 809.47,-462.47 807.38,-454.5"/>
<path fill="none" stroke="black" d="M807.38,-452.5C799.62,-422.96 764.46,-456.03 740.38,-437.25 724.86,-425.15 714.99,-405.21 709.06,-388.68"/>
<polygon fill="black" stroke="black" points="712.45,-387.79 706.03,-379.36 705.79,-389.95 712.45,-387.79"/>
</g>
<!-- usb_powerbank -->
<g id="node2" class="node">
<title>usb_powerbank</title>
<polygon fill="none" stroke="black" points="1325.38,-735.75 1219.38,-735.75 1219.38,-694.75 1325.38,-694.75 1325.38,-735.75"/>
<text text-anchor="middle" x="1272.38" y="-718.45" font-family="Times,serif" font-size="14.00">USB powerbank</text>
<text text-anchor="middle" x="1272.38" y="-701.95" font-family="Times,serif" font-size="14.00">10.4k mAh</text>
</g>
<!-- speaker_microphone_receiver_usb_power_connector -->
<g id="node4" class="node">
<title>speaker_microphone_receiver_usb_power_connector</title>
<polygon fill="none" stroke="black" points="1366.38,-520.75 1254.38,-520.75 1254.38,-479.75 1366.38,-479.75 1366.38,-520.75"/>
<text text-anchor="middle" x="1310.38" y="-503.45" font-family="Times,serif" font-size="14.00">power input port</text>
<text text-anchor="middle" x="1310.38" y="-486.95" font-family="Times,serif" font-size="14.00">micro usb female</text>
</g>
<!-- usb_powerbank&#45;&gt;speaker_microphone_receiver_usb_power_connector -->
<g id="edge4" class="edge">
<title>usb_powerbank&#45;&gt;speaker_microphone_receiver_usb_power_connector</title>
<path fill="none" stroke="black" d="M1275.88,-694.59C1282.5,-657.52 1296.86,-577 1304.81,-532.45"/>
<polygon fill="black" stroke="black" points="1308.24,-533.12 1306.56,-522.66 1301.35,-531.89 1308.24,-533.12"/>
<text text-anchor="middle" x="1362.5" y="-646.95" font-family="Times,serif" font-size="14.00">USB A &#45;&gt; micro USB cable</text>
<text text-anchor="middle" x="1362.5" y="-630.45" font-family="Times,serif" font-size="14.00">included in mic kit</text>
</g>
<!-- speaker_microphone -->
<g id="node3" class="node">
<title>speaker_microphone</title>
<g id="a_node3"><a xlink:href="https://en-us.sennheiser.com/global-downloads/file/6524/AVX_Manual_06_2015_EN.pdf" xlink:title="speaker microphone\nsennheiser avx me2\nesk avx bodypack transmitter\nautonomy: 15h (BA30 battery)/11h (2x AA)">
<polygon fill="none" stroke="black" points="1601.12,-752.25 1343.62,-752.25 1343.62,-678.25 1601.12,-678.25 1601.12,-752.25"/>
<text text-anchor="middle" x="1472.38" y="-734.95" font-family="Times,serif" font-size="14.00">speaker microphone</text>
<text text-anchor="middle" x="1472.38" y="-718.45" font-family="Times,serif" font-size="14.00">sennheiser avx me2</text>
<text text-anchor="middle" x="1472.38" y="-701.95" font-family="Times,serif" font-size="14.00">esk avx bodypack transmitter</text>
<text text-anchor="middle" x="1472.38" y="-685.45" font-family="Times,serif" font-size="14.00">autonomy: 15h (BA30 battery)/11h (2x AA)</text>
</a>
</g>
</g>
<!-- speaker_microphone_receiver_xlr_connector -->
<g id="node5" class="node">
<title>speaker_microphone_receiver_xlr_connector</title>
<polygon fill="none" stroke="black" points="1486.12,-518.25 1384.62,-518.25 1384.62,-482.25 1486.12,-482.25 1486.12,-518.25"/>
<text text-anchor="middle" x="1435.38" y="-495.2" font-family="Times,serif" font-size="14.00">XLR male plug</text>
</g>
<!-- speaker_microphone&#45;&gt;speaker_microphone_receiver_xlr_connector -->
<g id="edge3" class="edge">
<title>speaker_microphone&#45;&gt;speaker_microphone_receiver_xlr_connector</title>
<path fill="none" stroke="black" stroke-dasharray="5,2" d="M1466.1,-678.12C1463.7,-664.33 1460.81,-647.7 1457.78,-630.22"/>
<polygon fill="black" stroke="black" points="1461.29,-629.99 1456.13,-620.74 1454.39,-631.19 1461.29,-629.99"/>
<text text-anchor="middle" x="1509.62" y="-638.7" font-family="Times,serif" font-size="14.00">1.9 GHz wireless</text>
</g>
<!-- camera_xlr_in -->
<g id="node8" class="node">
<title>camera_xlr_in</title>
<polygon fill="none" stroke="black" points="1499.25,-388.25 1371.5,-388.25 1371.5,-330.75 1499.25,-330.75 1499.25,-388.25"/>
<text text-anchor="middle" x="1435.38" y="-370.95" font-family="Times,serif" font-size="14.00">audio in CH1</text>
<text text-anchor="middle" x="1435.38" y="-354.45" font-family="Times,serif" font-size="14.00">XLR female port</text>
<text text-anchor="middle" x="1435.38" y="-337.95" font-family="Times,serif" font-size="14.00">48V phantom power</text>
</g>
<!-- speaker_microphone_receiver_xlr_connector&#45;&gt;camera_xlr_in -->
<g id="edge5" class="edge">
<title>speaker_microphone_receiver_xlr_connector&#45;&gt;camera_xlr_in</title>
<path fill="none" stroke="black" d="M1435.38,-481.96C1435.38,-461.58 1435.38,-427.08 1435.38,-400.04"/>
<polygon fill="black" stroke="black" points="1438.88,-400.11 1435.38,-390.11 1431.88,-400.11 1438.88,-400.11"/>
<text text-anchor="middle" x="1503.25" y="-448.45" font-family="Times,serif" font-size="14.00">direct xlr plug (no cable)</text>
</g>
<!-- speaker_laptop -->
<g id="node6" class="node">
<title>speaker_laptop</title>
<polygon fill="none" stroke="black" points="94.75,-518.25 0,-518.25 0,-482.25 94.75,-482.25 94.75,-518.25"/>
<text text-anchor="middle" x="47.38" y="-495.2" font-family="Times,serif" font-size="14.00">speaker laptop</text>
</g>
<!-- speaker_box_hdmi_in -->
<g id="node18" class="node">
<title>speaker_box_hdmi_in</title>
<polygon fill="lightgrey" stroke="black" points="218.38,-388.25 118.38,-388.25 118.38,-330.75 218.38,-330.75 218.38,-388.25"/>
<text text-anchor="middle" x="168.38" y="-370.95" font-family="Times,serif" font-size="14.00">HDMI in</text>
<text text-anchor="middle" x="168.38" y="-354.45" font-family="Times,serif" font-size="14.00">left HDMI port</text>
<text text-anchor="middle" x="168.38" y="-337.95" font-family="Times,serif" font-size="14.00">female</text>
</g>
<!-- speaker_laptop&#45;&gt;speaker_box_hdmi_in -->
<g id="edge6" class="edge">
<title>speaker_laptop&#45;&gt;speaker_box_hdmi_in</title>
<path fill="none" stroke="black" d="M62.46,-481.96C80.86,-460.85 112.49,-424.58 136.4,-397.16"/>
<polygon fill="black" stroke="black" points="138.94,-399.58 142.87,-389.74 133.66,-394.98 138.94,-399.58"/>
<text text-anchor="middle" x="176.88" y="-448.45" font-family="Times,serif" font-size="14.00">direct HDMI cable male/male</text>
</g>
<!-- room_projector_optional_adapter -->
<g id="node7" class="node">
<title>room_projector_optional_adapter</title>
<polygon fill="none" stroke="black" stroke-dasharray="1,5" points="234.5,-214.25 66.25,-214.25 66.25,-178.25 234.5,-178.25 234.5,-214.25"/>
<text text-anchor="middle" x="150.38" y="-191.2" font-family="Times,serif" font-size="14.00">optional vga&#45;&gt;hdmi adapter</text>
</g>
<!-- room_projector -->
<g id="node25" class="node">
<title>room_projector</title>
<polygon fill="none" stroke="black" points="293.62,-98.5 141.12,-98.5 141.12,-41 293.62,-41 293.62,-98.5"/>
<text text-anchor="middle" x="217.38" y="-81.2" font-family="Times,serif" font-size="14.00">room projector HDMI in</text>
<text text-anchor="middle" x="217.38" y="-64.7" font-family="Times,serif" font-size="14.00">HDMI port</text>
<text text-anchor="middle" x="217.38" y="-48.2" font-family="Times,serif" font-size="14.00">female</text>
</g>
<!-- room_projector_optional_adapter&#45;&gt;room_projector -->
<g id="edge7" class="edge">
<title>room_projector_optional_adapter&#45;&gt;room_projector</title>
<path fill="none" stroke="black" stroke-dasharray="1,5" d="M159.69,-177.94C169.28,-160.13 184.51,-131.81 196.92,-108.75"/>
<polygon fill="black" stroke="black" points="199.84,-110.71 201.5,-100.25 193.68,-107.39 199.84,-110.71"/>
<text text-anchor="middle" x="221.75" y="-136.2" font-family="Times,serif" font-size="14.00">VGA cable</text>
<text text-anchor="middle" x="221.75" y="-119.7" font-family="Times,serif" font-size="14.00">male/male</text>
</g>
<!-- camera_hdmi_out -->
<g id="node9" class="node">
<title>camera_hdmi_out</title>
<polygon fill="none" stroke="black" points="1041.12,-380 879.62,-380 879.62,-339 1041.12,-339 1041.12,-380"/>
<text text-anchor="middle" x="960.38" y="-362.7" font-family="Times,serif" font-size="14.00">HDMI out</text>
<text text-anchor="middle" x="960.38" y="-346.2" font-family="Times,serif" font-size="14.00">HDMI A (full size) female</text>
</g>
<!-- cam_box_hdmi_in -->
<g id="node15" class="node">
<title>cam_box_hdmi_in</title>
<polygon fill="lightgrey" stroke="black" points="904.12,-216.75 742.62,-216.75 742.62,-175.75 904.12,-175.75 904.12,-216.75"/>
<text text-anchor="middle" x="823.38" y="-199.45" font-family="Times,serif" font-size="14.00">HDMI in</text>
<text text-anchor="middle" x="823.38" y="-182.95" font-family="Times,serif" font-size="14.00">HDMI A (full size) female</text>
</g>
<!-- camera_hdmi_out&#45;&gt;cam_box_hdmi_in -->
<g id="edge9" class="edge">
<title>camera_hdmi_out&#45;&gt;cam_box_hdmi_in</title>
<path fill="none" stroke="black" d="M943.58,-338.73C919.54,-310.44 875.21,-258.26 847.62,-225.78"/>
<polygon fill="black" stroke="black" points="850.43,-223.69 841.29,-218.34 845.1,-228.22 850.43,-223.69"/>
<text text-anchor="middle" x="967.5" y="-293.45" font-family="Times,serif" font-size="14.00">HDMI cable</text>
<text text-anchor="middle" x="967.5" y="-276.95" font-family="Times,serif" font-size="14.00">HDMI A (full size)</text>
<text text-anchor="middle" x="967.5" y="-260.45" font-family="Times,serif" font-size="14.00">male/male</text>
</g>
<!-- camera_internal_mic -->
<g id="node10" class="node">
<title>camera_internal_mic</title>
<polygon fill="none" stroke="black" points="1185.5,-380 1059.25,-380 1059.25,-339 1185.5,-339 1185.5,-380"/>
<text text-anchor="middle" x="1122.38" y="-362.7" font-family="Times,serif" font-size="14.00">audio in CH2</text>
<text text-anchor="middle" x="1122.38" y="-346.2" font-family="Times,serif" font-size="14.00">internal microphone</text>
</g>
<!-- camera_audio_monitor -->
<g id="node11" class="node">
<title>camera_audio_monitor</title>
<polygon fill="none" stroke="black" points="1353.5,-380 1203.25,-380 1203.25,-339 1353.5,-339 1353.5,-380"/>
<text text-anchor="middle" x="1278.38" y="-362.7" font-family="Times,serif" font-size="14.00">audio monitoring port</text>
<text text-anchor="middle" x="1278.38" y="-346.2" font-family="Times,serif" font-size="14.00">3.5mm trs stereo female</text>
</g>
<!-- headphones -->
<g id="node26" class="node">
<title>headphones</title>
<g id="a_node26"><a xlink:href="https://en-us.sennheiser.com/over-ear-headphones-hd-201" xlink:title="Sennheiser HD201 headphones\n3.5mm trs stereo male\nrental budgetcam">
<polygon fill="none" stroke="black" points="1371.5,-225 1185.25,-225 1185.25,-167.5 1371.5,-167.5 1371.5,-225"/>
<text text-anchor="middle" x="1278.38" y="-207.7" font-family="Times,serif" font-size="14.00">Sennheiser HD201 headphones</text>
<text text-anchor="middle" x="1278.38" y="-191.2" font-family="Times,serif" font-size="14.00">3.5mm trs stereo male</text>
<text text-anchor="middle" x="1278.38" y="-174.7" font-family="Times,serif" font-size="14.00">rental budgetcam</text>
</a>
</g>
</g>
<!-- camera_audio_monitor&#45;&gt;headphones -->
<g id="edge11" class="edge">
<title>camera_audio_monitor&#45;&gt;headphones</title>
<path fill="none" stroke="black" d="M1278.38,-338.73C1278.38,-313.41 1278.38,-268.96 1278.38,-236.62"/>
<polygon fill="black" stroke="black" points="1281.88,-236.83 1278.38,-226.83 1274.88,-236.83 1281.88,-236.83"/>
</g>
<!-- cam_laptop_usb -->
<g id="node14" class="node">
<title>cam_laptop_usb</title>
<polygon fill="lightgrey" stroke="black" points="656.38,-377.5 602.38,-377.5 602.38,-341.5 656.38,-341.5 656.38,-377.5"/>
<text text-anchor="middle" x="629.38" y="-354.45" font-family="Times,serif" font-size="14.00">USB</text>
</g>
<!-- cam_box_usb -->
<g id="node17" class="node">
<title>cam_box_usb</title>
<polygon fill="lightgrey" stroke="black" points="724.38,-214.25 670.38,-214.25 670.38,-178.25 724.38,-178.25 724.38,-214.25"/>
<text text-anchor="middle" x="697.38" y="-191.2" font-family="Times,serif" font-size="14.00">USB</text>
</g>
<!-- cam_laptop_usb&#45;&gt;cam_box_usb -->
<g id="edge1" class="edge">
<title>cam_laptop_usb&#45;&gt;cam_box_usb</title>
<path fill="none" stroke="black" d="M641.05,-330.81C653.55,-301.17 673.27,-254.41 685.75,-224.81"/>
<polygon fill="black" stroke="black" points="637.9,-329.27 637.24,-339.85 644.35,-331.99 637.9,-329.27"/>
<polygon fill="black" stroke="black" points="688.9,-226.35 689.56,-215.78 682.45,-223.63 688.9,-226.35"/>
</g>
<!-- cam_box_switch -->
<g id="node16" class="node">
<title>cam_box_switch</title>
<polygon fill="lightgrey" stroke="black" points="652.12,-214.25 520.62,-214.25 520.62,-178.25 652.12,-178.25 652.12,-214.25"/>
<text text-anchor="middle" x="586.38" y="-191.2" font-family="Times,serif" font-size="14.00">3x Gbit dumb switch</text>
</g>
<!-- speaker_box_hdmi_out -->
<g id="node19" class="node">
<title>speaker_box_hdmi_out</title>
<polygon fill="lightgrey" stroke="black" points="344.12,-388.25 236.62,-388.25 236.62,-330.75 344.12,-330.75 344.12,-388.25"/>
<text text-anchor="middle" x="290.38" y="-370.95" font-family="Times,serif" font-size="14.00">HDMI out</text>
<text text-anchor="middle" x="290.38" y="-354.45" font-family="Times,serif" font-size="14.00">right HDMI port</text>
<text text-anchor="middle" x="290.38" y="-337.95" font-family="Times,serif" font-size="14.00">female</text>
</g>
<!-- speaker_box_hdmi_out&#45;&gt;room_projector_optional_adapter -->
<g id="edge8" class="edge">
<title>speaker_box_hdmi_out&#45;&gt;room_projector_optional_adapter</title>
<path fill="none" stroke="black" stroke-dasharray="1,5" d="M256.52,-330.28C247.54,-324.17 237.51,-318.43 227.38,-314.75 208.82,-308.01 152.19,-321.33 138.88,-306.75 118.97,-284.97 127.25,-249.64 136.96,-225.03"/>
<polygon fill="black" stroke="black" points="140.13,-226.52 140.84,-215.95 133.69,-223.77 140.13,-226.52"/>
<text text-anchor="middle" x="203.62" y="-276.95" font-family="Times,serif" font-size="14.00">HDMI cable male/male</text>
</g>
<!-- speaker_box_hdmi_out&#45;&gt;room_projector -->
<g id="edge10" class="edge">
<title>speaker_box_hdmi_out&#45;&gt;room_projector</title>
<path fill="none" stroke="black" d="M291.4,-330.26C292.03,-283.61 288.75,-188.47 256.38,-116.5 255.11,-113.7 253.63,-110.93 251.98,-108.24"/>
<polygon fill="black" stroke="black" points="254.89,-106.29 246.32,-100.06 249.14,-110.28 254.89,-106.29"/>
<text text-anchor="middle" x="321.88" y="-199.45" font-family="Times,serif" font-size="14.00">HDMI cable</text>
<text text-anchor="middle" x="321.88" y="-182.95" font-family="Times,serif" font-size="14.00">male/male</text>
</g>
<!-- speaker_box_switch -->
<g id="node20" class="node">
<title>speaker_box_switch</title>
<polygon fill="lightgrey" stroke="black" points="494.12,-377.5 362.62,-377.5 362.62,-341.5 494.12,-341.5 494.12,-377.5"/>
<text text-anchor="middle" x="428.38" y="-354.45" font-family="Times,serif" font-size="14.00">3x Gbit dumb switch</text>
</g>
<!-- speaker_box_switch&#45;&gt;cam_box_switch -->
<g id="edge13" class="edge">
<title>speaker_box_switch&#45;&gt;cam_box_switch</title>
<path fill="none" stroke="black" d="M473.39,-335.56C486.79,-327.52 500.93,-317.72 512.38,-306.75 537.65,-282.52 559.09,-248.26 572.29,-224.54"/>
<polygon fill="black" stroke="black" points="472.03,-332.31 465.12,-340.35 475.53,-338.37 472.03,-332.31"/>
<polygon fill="black" stroke="black" points="575.34,-226.25 577.03,-215.79 569.19,-222.91 575.34,-226.25"/>
<text text-anchor="middle" x="588.25" y="-276.95" font-family="Times,serif" font-size="14.00">ethernet cable</text>
</g>
<!-- video_vlan -->
<g id="node27" class="node">
<title>video_vlan</title>
<polygon fill="none" stroke="black" stroke-dasharray="1,5" points="502.5,-214.25 370.25,-214.25 370.25,-178.25 502.5,-178.25 502.5,-214.25"/>
<text text-anchor="middle" x="436.38" y="-191.2" font-family="Times,serif" font-size="14.00">FOSDEM video vlan</text>
</g>
<!-- speaker_box_switch&#45;&gt;video_vlan -->
<g id="edge12" class="edge">
<title>speaker_box_switch&#45;&gt;video_vlan</title>
<path fill="none" stroke="black" d="M429.79,-329.93C431.25,-300.48 433.52,-254.83 434.97,-225.49"/>
<polygon fill="black" stroke="black" points="426.31,-329.57 429.31,-339.73 433.3,-329.92 426.31,-329.57"/>
<polygon fill="black" stroke="black" points="438.45,-226.06 435.45,-215.89 431.46,-225.71 438.45,-226.06"/>
<text text-anchor="middle" x="470.25" y="-276.95" font-family="Times,serif" font-size="14.00">ethernet cable</text>
</g>
<!-- speaker_box_usb -->
<g id="node21" class="node">
<title>speaker_box_usb</title>
<polygon fill="lightgrey" stroke="black" points="566.38,-377.5 512.38,-377.5 512.38,-341.5 566.38,-341.5 566.38,-377.5"/>
<text text-anchor="middle" x="539.38" y="-354.45" font-family="Times,serif" font-size="14.00">USB</text>
</g>
<!-- speaker_video_laptop_ac_in -->
<g id="node22" class="node">
<title>speaker_video_laptop_ac_in</title>
<polygon fill="lightgrey" stroke="black" points="375.38,-518.25 321.38,-518.25 321.38,-482.25 375.38,-482.25 375.38,-518.25"/>
<text text-anchor="middle" x="348.38" y="-495.2" font-family="Times,serif" font-size="14.00">AC in</text>
</g>
<!-- speaker_video_laptop_usb -->
<g id="node23" class="node">
<title>speaker_video_laptop_usb</title>
<polygon fill="lightgrey" stroke="black" points="303.38,-518.25 249.38,-518.25 249.38,-482.25 303.38,-482.25 303.38,-518.25"/>
<text text-anchor="middle" x="276.38" y="-495.2" font-family="Times,serif" font-size="14.00">USB</text>
</g>
<!-- speaker_video_laptop_usb&#45;&gt;speaker_box_usb -->
<g id="edge2" class="edge">
<title>speaker_video_laptop_usb&#45;&gt;speaker_box_usb</title>
<path fill="none" stroke="black" d="M304.99,-475.59C307.41,-474.15 309.89,-472.85 312.38,-471.75 391.3,-436.93 434.99,-489.83 503.38,-437.25 518.83,-425.37 527.93,-405.24 533.11,-388.58"/>
<polygon fill="black" stroke="black" points="303.06,-472.67 296.74,-481.17 306.98,-478.47 303.06,-472.67"/>
<polygon fill="black" stroke="black" points="536.41,-389.77 535.7,-379.2 529.66,-387.9 536.41,-389.77"/>
</g>
<!-- speaker_power_strip -->
<g id="node24" class="node">
<title>speaker_power_strip</title>
<polygon fill="none" stroke="black" points="432.88,-735.75 263.88,-735.75 263.88,-694.75 432.88,-694.75 432.88,-735.75"/>
<text text-anchor="middle" x="348.38" y="-718.45" font-family="Times,serif" font-size="14.00">speaker side power strip</text>
<text text-anchor="middle" x="348.38" y="-701.95" font-family="Times,serif" font-size="14.00">&gt;=4 CEE 7/3 or 7/5 sockets</text>
</g>
<!-- speaker_power_strip&#45;&gt;speaker_laptop -->
<g id="edge16" class="edge">
<title>speaker_power_strip&#45;&gt;speaker_laptop</title>
<path fill="none" stroke="black" d="M352.39,-694.55C354.38,-680.16 355.12,-660.5 348.38,-644.75"/>
<path fill="none" stroke="black" d="M348.38,-642.75C328.52,-596.39 284.16,-638.06 237.38,-619.25 177.35,-595.12 114.98,-552.42 78.74,-525.54"/>
<polygon fill="black" stroke="black" points="80.98,-522.84 70.88,-519.64 76.78,-528.44 80.98,-522.84"/>
</g>
<!-- speaker_power_strip&#45;&gt;speaker_video_laptop_ac_in -->
<g id="edge17" class="edge">
<title>speaker_power_strip&#45;&gt;speaker_video_laptop_ac_in</title>
<path fill="none" stroke="black" d="M348.38,-642.75C332.74,-606.23 336.86,-559.38 342.01,-529.83"/>
<polygon fill="black" stroke="black" points="345.42,-530.64 343.87,-520.16 338.55,-529.32 345.42,-530.64"/>
</g>
</g>
</svg>
