<?xml version="1.0" encoding="UTF-8" standalone="no"?>
<!DOCTYPE svg PUBLIC "-//W3C//DTD SVG 1.1//EN"
 "http://www.w3.org/Graphics/SVG/1.1/DTD/svg11.dtd">
<!-- Generated by graphviz version 2.40.1 (20161225.0304)
 -->
<!-- Title: G Pages: 1 -->
<svg width="1490pt" height="749pt"
 viewBox="0.00 0.00 1489.50 748.50" xmlns="http://www.w3.org/2000/svg" xmlns:xlink="http://www.w3.org/1999/xlink">
<g id="graph0" class="graph" transform="scale(1 1) rotate(0) translate(4 744.5)">
<title>G</title>
<polygon fill="#ffffff" stroke="transparent" points="-4,4 -4,-744.5 1485.5,-744.5 1485.5,4 -4,4"/>
<text text-anchor="middle" x="740.75" y="-22.8" font-family="Times,serif" font-size="14.00" fill="#000000">FOSDEM 2019 12 small rooms video cabling setup:</text>
<text text-anchor="middle" x="740.75" y="-7.8" font-family="Times,serif" font-size="14.00" fill="#000000">aw1120, aw1121, aw1125, aw1126, h2213, h2214, k3201, k3401, k4201, k4401, k4601, ud2119</text>
<g id="clust1" class="cluster">
<title>cluster_speaker_microphone_receiver</title>
<g id="a_clust1"><a xlink:href="https://en-us.sennheiser.com/global-downloads/file/6524/AVX_Manual_06_2015_EN.pdf" xlink:title="speaker microphone receiver\nsennheiser ekp avx receiver\nDC autonomy: &gt;4h (BA20 battery)\nAC autonomy: ∞\nphantom auto power on/off">
<polygon fill="none" stroke="#000000" points="25.5,-404.5 25.5,-541.5 275.5,-541.5 275.5,-404.5 25.5,-404.5"/>
<text text-anchor="middle" x="150.5" y="-526.3" font-family="Times,serif" font-size="14.00" fill="#000000">speaker microphone receiver</text>
<text text-anchor="middle" x="150.5" y="-511.3" font-family="Times,serif" font-size="14.00" fill="#000000">sennheiser ekp avx receiver</text>
<text text-anchor="middle" x="150.5" y="-496.3" font-family="Times,serif" font-size="14.00" fill="#000000">DC autonomy: &gt;4h (BA20 battery)</text>
<text text-anchor="middle" x="150.5" y="-481.3" font-family="Times,serif" font-size="14.00" fill="#000000">AC autonomy: ∞</text>
<text text-anchor="middle" x="150.5" y="-466.3" font-family="Times,serif" font-size="14.00" fill="#000000">phantom auto power on/off</text>
</a>
</g>
</g>
<g id="clust2" class="cluster">
<title>cluster_camera</title>
<g id="a_clust2"><a xlink:href="https://pro.sony.com/bbsccms/assets/files/micro/nxcam/latest/Sony_HXR-NX100.pdf" xlink:title="camera\nSony HXR&#45;NX100">
<polygon fill="none" stroke="#000000" points="143.5,-264.5 143.5,-371.5 913.5,-371.5 913.5,-264.5 143.5,-264.5"/>
<text text-anchor="middle" x="528.5" y="-356.3" font-family="Times,serif" font-size="14.00" fill="#000000">camera</text>
<text text-anchor="middle" x="528.5" y="-341.3" font-family="Times,serif" font-size="14.00" fill="#000000">Sony HXR&#45;NX100</text>
</a>
</g>
</g>
<g id="clust4" class="cluster">
<title>cluster_cam_box</title>
<g id="a_clust4"><a xlink:href="https://github.com/FOSDEM/video" xlink:title="camera box">
<polygon fill="none" stroke="#d3d3d3" points="716.5,-124.5 716.5,-201.5 1118.5,-201.5 1118.5,-124.5 716.5,-124.5"/>
<text text-anchor="middle" x="917.5" y="-186.3" font-family="Times,serif" font-size="14.00" fill="#000000">camera box</text>
</a>
</g>
</g>
<g id="clust5" class="cluster">
<title>cluster_speaker_box</title>
<g id="a_clust5"><a xlink:href="https://github.com/FOSDEM/video" xlink:title="speaker box">
<polygon fill="none" stroke="#d3d3d3" points="969.5,-264.5 969.5,-356.5 1435.5,-356.5 1435.5,-264.5 969.5,-264.5"/>
<text text-anchor="middle" x="1202.5" y="-341.3" font-family="Times,serif" font-size="14.00" fill="#000000">speaker box</text>
</a>
</g>
</g>
<!-- usb_powerbank -->
<g id="node1" class="node">
<title>usb_powerbank</title>
<polygon fill="none" stroke="#000000" points="107,-650.5 0,-650.5 0,-612.5 107,-612.5 107,-650.5"/>
<text text-anchor="middle" x="53.5" y="-635.3" font-family="Times,serif" font-size="14.00" fill="#000000">USB powerbank</text>
<text text-anchor="middle" x="53.5" y="-620.3" font-family="Times,serif" font-size="14.00" fill="#000000">10.4k mAh</text>
</g>
<!-- speaker_microphone_receiver_usb_power_connector -->
<g id="node3" class="node">
<title>speaker_microphone_receiver_usb_power_connector</title>
<polygon fill="none" stroke="#000000" points="147,-450.5 34,-450.5 34,-412.5 147,-412.5 147,-450.5"/>
<text text-anchor="middle" x="90.5" y="-435.3" font-family="Times,serif" font-size="14.00" fill="#000000">power input port</text>
<text text-anchor="middle" x="90.5" y="-420.3" font-family="Times,serif" font-size="14.00" fill="#000000">micro usb female</text>
</g>
<!-- usb_powerbank&#45;&gt;speaker_microphone_receiver_usb_power_connector -->
<g id="edge2" class="edge">
<title>usb_powerbank&#45;&gt;speaker_microphone_receiver_usb_power_connector</title>
<path fill="none" stroke="#000000" d="M57.0477,-612.3232C63.5536,-577.1562 77.4283,-502.1581 85.1074,-460.6491"/>
<polygon fill="#000000" stroke="#000000" points="88.5854,-461.0887 86.963,-450.6188 81.7022,-459.8152 88.5854,-461.0887"/>
<text text-anchor="middle" x="145" y="-568.3" font-family="Times,serif" font-size="14.00" fill="#000000">USB A &#45;&gt; micro USB cable</text>
<text text-anchor="middle" x="145" y="-553.3" font-family="Times,serif" font-size="14.00" fill="#000000">included in mic kit</text>
</g>
<!-- speaker_microphone -->
<g id="node2" class="node">
<title>speaker_microphone</title>
<g id="a_node2"><a xlink:href="https://en-us.sennheiser.com/global-downloads/file/6524/AVX_Manual_06_2015_EN.pdf" xlink:title="speaker microphone\nsennheiser avx me2\nesk avx bodypack transmitter\nautonomy: 15h (BA30 battery)/11h (2x AA)">
<polygon fill="none" stroke="#000000" points="384,-665.5 125,-665.5 125,-597.5 384,-597.5 384,-665.5"/>
<text text-anchor="middle" x="254.5" y="-650.3" font-family="Times,serif" font-size="14.00" fill="#000000">speaker microphone</text>
<text text-anchor="middle" x="254.5" y="-635.3" font-family="Times,serif" font-size="14.00" fill="#000000">sennheiser avx me2</text>
<text text-anchor="middle" x="254.5" y="-620.3" font-family="Times,serif" font-size="14.00" fill="#000000">esk avx bodypack transmitter</text>
<text text-anchor="middle" x="254.5" y="-605.3" font-family="Times,serif" font-size="14.00" fill="#000000">autonomy: 15h (BA30 battery)/11h (2x AA)</text>
</a>
</g>
</g>
<!-- speaker_microphone_receiver_xlr_connector -->
<g id="node4" class="node">
<title>speaker_microphone_receiver_xlr_connector</title>
<polygon fill="none" stroke="#000000" points="267.5,-449.5 165.5,-449.5 165.5,-413.5 267.5,-413.5 267.5,-449.5"/>
<text text-anchor="middle" x="216.5" y="-427.8" font-family="Times,serif" font-size="14.00" fill="#000000">XLR male plug</text>
</g>
<!-- speaker_microphone&#45;&gt;speaker_microphone_receiver_xlr_connector -->
<g id="edge1" class="edge">
<title>speaker_microphone&#45;&gt;speaker_microphone_receiver_xlr_connector</title>
<path fill="none" stroke="#000000" d="M247.9676,-597.1188C245.4642,-583.943 242.4438,-568.0462 239.2776,-551.3818"/>
<polygon fill="#000000" stroke="#000000" points="242.7044,-550.6671 237.3993,-541.4962 235.8275,-551.9738 242.7044,-550.6671"/>
<text text-anchor="middle" x="291" y="-560.8" font-family="Times,serif" font-size="14.00" fill="#000000">1.9 GHz wireless</text>
</g>
<!-- camera_xlr_in -->
<g id="node7" class="node">
<title>camera_xlr_in</title>
<polygon fill="none" stroke="#000000" points="281,-325.5 152,-325.5 152,-272.5 281,-272.5 281,-325.5"/>
<text text-anchor="middle" x="216.5" y="-310.3" font-family="Times,serif" font-size="14.00" fill="#000000">audio in CH1</text>
<text text-anchor="middle" x="216.5" y="-295.3" font-family="Times,serif" font-size="14.00" fill="#000000">XLR female port</text>
<text text-anchor="middle" x="216.5" y="-280.3" font-family="Times,serif" font-size="14.00" fill="#000000">48V phantom power</text>
</g>
<!-- speaker_microphone_receiver_xlr_connector&#45;&gt;camera_xlr_in -->
<g id="edge3" class="edge">
<title>speaker_microphone_receiver_xlr_connector&#45;&gt;camera_xlr_in</title>
<path fill="none" stroke="#000000" d="M216.5,-413.3543C216.5,-393.509 216.5,-361.1693 216.5,-335.9362"/>
<polygon fill="#000000" stroke="#000000" points="220.0001,-335.6141 216.5,-325.6142 213.0001,-335.6142 220.0001,-335.6141"/>
<text text-anchor="middle" x="284.5" y="-383.3" font-family="Times,serif" font-size="14.00" fill="#000000">direct xlr plug (no cable)</text>
</g>
<!-- speaker_laptop -->
<g id="node5" class="node">
<title>speaker_laptop</title>
<polygon fill="none" stroke="#000000" points="1234,-649.5 1139,-649.5 1139,-613.5 1234,-613.5 1234,-649.5"/>
<text text-anchor="middle" x="1186.5" y="-627.8" font-family="Times,serif" font-size="14.00" fill="#000000">speaker laptop</text>
</g>
<!-- speaker_laptop_optional_adapter -->
<g id="node6" class="node">
<title>speaker_laptop_optional_adapter</title>
<polygon fill="none" stroke="#000000" stroke-dasharray="1,5" points="1151,-449.5 982,-449.5 982,-413.5 1151,-413.5 1151,-449.5"/>
<text text-anchor="middle" x="1066.5" y="-427.8" font-family="Times,serif" font-size="14.00" fill="#000000">optional vga&#45;&gt;hdmi adapter</text>
</g>
<!-- speaker_laptop&#45;&gt;speaker_laptop_optional_adapter -->
<g id="edge5" class="edge">
<title>speaker_laptop&#45;&gt;speaker_laptop_optional_adapter</title>
<path fill="none" stroke="#000000" stroke-dasharray="1,5" d="M1149.8639,-613.4464C1135.7859,-604.8881 1120.6704,-593.4531 1110.5,-579.5 1084.1142,-543.3006 1073.4273,-491.2967 1069.187,-459.5468"/>
<polygon fill="#000000" stroke="#000000" points="1072.6603,-459.1143 1067.9828,-449.6079 1065.7111,-459.9563 1072.6603,-459.1143"/>
<text text-anchor="middle" x="1141.5" y="-568.3" font-family="Times,serif" font-size="14.00" fill="#000000">VGA cable</text>
<text text-anchor="middle" x="1141.5" y="-553.3" font-family="Times,serif" font-size="14.00" fill="#000000">male/male</text>
</g>
<!-- speaker_box_hdmi_in -->
<g id="node15" class="node">
<title>speaker_box_hdmi_in</title>
<polygon fill="#d3d3d3" stroke="#000000" points="1079,-325.5 978,-325.5 978,-272.5 1079,-272.5 1079,-325.5"/>
<text text-anchor="middle" x="1028.5" y="-310.3" font-family="Times,serif" font-size="14.00" fill="#000000">HDMI in</text>
<text text-anchor="middle" x="1028.5" y="-295.3" font-family="Times,serif" font-size="14.00" fill="#000000">left HDMI port</text>
<text text-anchor="middle" x="1028.5" y="-280.3" font-family="Times,serif" font-size="14.00" fill="#000000">female</text>
</g>
<!-- speaker_laptop&#45;&gt;speaker_box_hdmi_in -->
<g id="edge4" class="edge">
<title>speaker_laptop&#45;&gt;speaker_box_hdmi_in</title>
<path fill="none" stroke="#000000" d="M1192.4664,-613.191C1206.2807,-566.8968 1234.7512,-444.257 1172.5,-379.5 1159.5051,-365.982 1105.0693,-380.2785 1088.5,-371.5 1072.4793,-363.0122 1059.0738,-348.2602 1049.0265,-334.2697"/>
<polygon fill="#000000" stroke="#000000" points="1051.7293,-332.02 1043.2112,-325.7197 1045.9412,-335.9568 1051.7293,-332.02"/>
<text text-anchor="middle" x="1293.5" y="-427.8" font-family="Times,serif" font-size="14.00" fill="#000000">direct HDMI cable male/male</text>
</g>
<!-- speaker_laptop_optional_adapter&#45;&gt;speaker_box_hdmi_in -->
<g id="edge6" class="edge">
<title>speaker_laptop_optional_adapter&#45;&gt;speaker_box_hdmi_in</title>
<path fill="none" stroke="#000000" stroke-dasharray="1,5" d="M1051.7367,-413.2259C1047.8177,-407.5264 1043.9889,-401.0182 1041.5,-394.5 1034.4147,-375.9444 1031.1051,-354.0639 1029.593,-335.9314"/>
<polygon fill="#000000" stroke="#000000" points="1033.0703,-335.4794 1028.8955,-325.7418 1026.0867,-335.9575 1033.0703,-335.4794"/>
<text text-anchor="middle" x="1107" y="-383.3" font-family="Times,serif" font-size="14.00" fill="#000000">HDMI cable male/male</text>
</g>
<!-- camera_hdmi_out -->
<g id="node8" class="node">
<title>camera_hdmi_out</title>
<polygon fill="none" stroke="#000000" points="777.5,-318 613.5,-318 613.5,-280 777.5,-280 777.5,-318"/>
<text text-anchor="middle" x="695.5" y="-302.8" font-family="Times,serif" font-size="14.00" fill="#000000">HDMI out</text>
<text text-anchor="middle" x="695.5" y="-287.8" font-family="Times,serif" font-size="14.00" fill="#000000">HDMI A (full size) female</text>
</g>
<!-- cam_box_hdmi_in -->
<g id="node12" class="node">
<title>cam_box_hdmi_in</title>
<polygon fill="#d3d3d3" stroke="#000000" points="888.5,-170.5 724.5,-170.5 724.5,-132.5 888.5,-132.5 888.5,-170.5"/>
<text text-anchor="middle" x="806.5" y="-155.3" font-family="Times,serif" font-size="14.00" fill="#000000">HDMI in</text>
<text text-anchor="middle" x="806.5" y="-140.3" font-family="Times,serif" font-size="14.00" fill="#000000">HDMI A (full size) female</text>
</g>
<!-- camera_hdmi_out&#45;&gt;cam_box_hdmi_in -->
<g id="edge7" class="edge">
<title>camera_hdmi_out&#45;&gt;cam_box_hdmi_in</title>
<path fill="none" stroke="#000000" d="M710.0113,-279.717C729.3731,-253.9884 763.7723,-208.2778 785.8376,-178.9568"/>
<polygon fill="#000000" stroke="#000000" points="788.7687,-180.8826 791.9851,-170.7878 783.1755,-176.6735 788.7687,-180.8826"/>
<text text-anchor="middle" x="814" y="-243.3" font-family="Times,serif" font-size="14.00" fill="#000000">HDMI cable</text>
<text text-anchor="middle" x="814" y="-228.3" font-family="Times,serif" font-size="14.00" fill="#000000">HDMI A (full size)</text>
<text text-anchor="middle" x="814" y="-213.3" font-family="Times,serif" font-size="14.00" fill="#000000">male/male</text>
</g>
<!-- camera_internal_mic -->
<g id="node9" class="node">
<title>camera_internal_mic</title>
<polygon fill="none" stroke="#000000" points="595,-318 468,-318 468,-280 595,-280 595,-318"/>
<text text-anchor="middle" x="531.5" y="-302.8" font-family="Times,serif" font-size="14.00" fill="#000000">audio in CH2</text>
<text text-anchor="middle" x="531.5" y="-287.8" font-family="Times,serif" font-size="14.00" fill="#000000">internal microphone</text>
</g>
<!-- camera_audio_monitor -->
<g id="node10" class="node">
<title>camera_audio_monitor</title>
<polygon fill="none" stroke="#000000" points="450,-318 299,-318 299,-280 450,-280 450,-318"/>
<text text-anchor="middle" x="374.5" y="-302.8" font-family="Times,serif" font-size="14.00" fill="#000000">audio monitoring port</text>
<text text-anchor="middle" x="374.5" y="-287.8" font-family="Times,serif" font-size="14.00" fill="#000000">3.5mm trs stereo female</text>
</g>
<!-- headphones -->
<g id="node22" class="node">
<title>headphones</title>
<g id="a_node22"><a xlink:href="https://en-us.sennheiser.com/over-ear-headphones-hd-201" xlink:title="Sennheiser HD201 headphones\n3.5mm trs stereo male\nrental budgetcam">
<polygon fill="none" stroke="#000000" points="468,-178 281,-178 281,-125 468,-125 468,-178"/>
<text text-anchor="middle" x="374.5" y="-162.8" font-family="Times,serif" font-size="14.00" fill="#000000">Sennheiser HD201 headphones</text>
<text text-anchor="middle" x="374.5" y="-147.8" font-family="Times,serif" font-size="14.00" fill="#000000">3.5mm trs stereo male</text>
<text text-anchor="middle" x="374.5" y="-132.8" font-family="Times,serif" font-size="14.00" fill="#000000">rental budgetcam</text>
</a>
</g>
</g>
<!-- camera_audio_monitor&#45;&gt;headphones -->
<g id="edge9" class="edge">
<title>camera_audio_monitor&#45;&gt;headphones</title>
<path fill="none" stroke="#000000" d="M374.5,-279.717C374.5,-256.5574 374.5,-217.2071 374.5,-188.194"/>
<polygon fill="#000000" stroke="#000000" points="378.0001,-188.0217 374.5,-178.0217 371.0001,-188.0218 378.0001,-188.0217"/>
</g>
<!-- camera_ac_in -->
<g id="node11" class="node">
<title>camera_ac_in</title>
<polygon fill="none" stroke="#000000" points="905.5,-317 795.5,-317 795.5,-281 905.5,-281 905.5,-317"/>
<text text-anchor="middle" x="850.5" y="-295.3" font-family="Times,serif" font-size="14.00" fill="#000000">camera AC input</text>
</g>
<!-- cam_box_switch -->
<g id="node13" class="node">
<title>cam_box_switch</title>
<polygon fill="#d3d3d3" stroke="#000000" points="1110.5,-169.5 978.5,-169.5 978.5,-133.5 1110.5,-133.5 1110.5,-169.5"/>
<text text-anchor="middle" x="1044.5" y="-147.8" font-family="Times,serif" font-size="14.00" fill="#000000">3x Gbit dumb switch</text>
</g>
<!-- video_vlan -->
<g id="node23" class="node">
<title>video_vlan</title>
<polygon fill="none" stroke="#000000" stroke-dasharray="1,5" points="1162,-74 1029,-74 1029,-38 1162,-38 1162,-74"/>
<text text-anchor="middle" x="1095.5" y="-52.3" font-family="Times,serif" font-size="14.00" fill="#000000">FOSDEM video vlan</text>
</g>
<!-- cam_box_switch&#45;&gt;video_vlan -->
<g id="edge11" class="edge">
<title>cam_box_switch&#45;&gt;video_vlan</title>
<path fill="none" stroke="#000000" d="M1046.5634,-123.1091C1048.2326,-112.8121 1051.2104,-101.408 1056.5,-92 1058.583,-88.2952 1061.1814,-84.7568 1064.042,-81.4451"/>
<polygon fill="#000000" stroke="#000000" points="1043.0559,-122.9449 1045.2556,-133.3088 1049.999,-123.8352 1043.0559,-122.9449"/>
<polygon fill="#000000" stroke="#000000" points="1066.6486,-83.7842 1071.073,-74.1574 1061.6109,-78.9239 1066.6486,-83.7842"/>
<text text-anchor="middle" x="1094.5" y="-95.8" font-family="Times,serif" font-size="14.00" fill="#000000">ethernet cable</text>
</g>
<!-- cam_box_ac_in -->
<g id="node14" class="node">
<title>cam_box_ac_in</title>
<polygon fill="#d3d3d3" stroke="#000000" points="960.5,-169.5 906.5,-169.5 906.5,-133.5 960.5,-133.5 960.5,-169.5"/>
<text text-anchor="middle" x="933.5" y="-147.8" font-family="Times,serif" font-size="14.00" fill="#000000">AC in</text>
</g>
<!-- speaker_box_hdmi_out -->
<g id="node16" class="node">
<title>speaker_box_hdmi_out</title>
<polygon fill="#d3d3d3" stroke="#000000" points="1355.5,-325.5 1247.5,-325.5 1247.5,-272.5 1355.5,-272.5 1355.5,-325.5"/>
<text text-anchor="middle" x="1301.5" y="-310.3" font-family="Times,serif" font-size="14.00" fill="#000000">HDMI out</text>
<text text-anchor="middle" x="1301.5" y="-295.3" font-family="Times,serif" font-size="14.00" fill="#000000">right HDMI port</text>
<text text-anchor="middle" x="1301.5" y="-280.3" font-family="Times,serif" font-size="14.00" fill="#000000">female</text>
</g>
<!-- room_projector -->
<g id="node21" class="node">
<title>room_projector</title>
<polygon fill="none" stroke="#000000" points="1394,-178 1241,-178 1241,-125 1394,-125 1394,-178"/>
<text text-anchor="middle" x="1317.5" y="-162.8" font-family="Times,serif" font-size="14.00" fill="#000000">room projector HDMI in</text>
<text text-anchor="middle" x="1317.5" y="-147.8" font-family="Times,serif" font-size="14.00" fill="#000000">HDMI port</text>
<text text-anchor="middle" x="1317.5" y="-132.8" font-family="Times,serif" font-size="14.00" fill="#000000">female</text>
</g>
<!-- speaker_box_hdmi_out&#45;&gt;room_projector -->
<g id="edge8" class="edge">
<title>speaker_box_hdmi_out&#45;&gt;room_projector</title>
<path fill="none" stroke="#000000" d="M1304.3975,-272.2889C1306.9461,-248.794 1310.6804,-214.3678 1313.511,-188.2733"/>
<polygon fill="#000000" stroke="#000000" points="1317.0252,-188.3316 1314.6241,-178.0124 1310.066,-187.5766 1317.0252,-188.3316"/>
<text text-anchor="middle" x="1345.5" y="-235.8" font-family="Times,serif" font-size="14.00" fill="#000000">HDMI cable</text>
<text text-anchor="middle" x="1345.5" y="-220.8" font-family="Times,serif" font-size="14.00" fill="#000000">male/male</text>
</g>
<!-- speaker_box_switch -->
<g id="node17" class="node">
<title>speaker_box_switch</title>
<polygon fill="#d3d3d3" stroke="#000000" points="1229.5,-317 1097.5,-317 1097.5,-281 1229.5,-281 1229.5,-317"/>
<text text-anchor="middle" x="1163.5" y="-295.3" font-family="Times,serif" font-size="14.00" fill="#000000">3x Gbit dumb switch</text>
</g>
<!-- speaker_box_switch&#45;&gt;cam_box_switch -->
<g id="edge12" class="edge">
<title>speaker_box_switch&#45;&gt;cam_box_switch</title>
<path fill="none" stroke="#000000" d="M1117.2873,-276.6195C1107.8562,-272.3709 1097.9314,-268.1257 1088.5,-264.5 1074.5918,-259.1533 1066.0071,-265.9735 1056.5,-254.5 1039.4443,-233.9166 1038.1368,-202.5594 1040.0469,-179.8511"/>
<polygon fill="#000000" stroke="#000000" points="1115.968,-279.8648 1126.5173,-280.8463 1118.8826,-273.5004 1115.968,-279.8648"/>
<polygon fill="#000000" stroke="#000000" points="1043.5392,-180.1111 1041.1467,-169.7899 1036.5806,-179.3504 1043.5392,-180.1111"/>
<text text-anchor="middle" x="1094.5" y="-228.3" font-family="Times,serif" font-size="14.00" fill="#000000">ethernet cable</text>
</g>
<!-- speaker_box_switch&#45;&gt;video_vlan -->
<g id="edge10" class="edge">
<title>speaker_box_switch&#45;&gt;video_vlan</title>
<path fill="none" stroke="#000000" d="M1161.5014,-270.6764C1157.6648,-221.5044 1148.2249,-122.6618 1132.5,-92 1130.6659,-88.4238 1128.3391,-84.9958 1125.7484,-81.7739"/>
<polygon fill="#000000" stroke="#000000" points="1158.0326,-271.2218 1162.2761,-280.9297 1165.0127,-270.6944 1158.0326,-271.2218"/>
<polygon fill="#000000" stroke="#000000" points="1128.2075,-79.2755 1118.8953,-74.2223 1123.0238,-83.9797 1128.2075,-79.2755"/>
<text text-anchor="middle" x="1192.5" y="-147.8" font-family="Times,serif" font-size="14.00" fill="#000000">ethernet cable</text>
</g>
<!-- speaker_box_ac_in -->
<g id="node18" class="node">
<title>speaker_box_ac_in</title>
<polygon fill="#d3d3d3" stroke="#000000" points="1427.5,-317 1373.5,-317 1373.5,-281 1427.5,-281 1427.5,-317"/>
<text text-anchor="middle" x="1400.5" y="-295.3" font-family="Times,serif" font-size="14.00" fill="#000000">AC in</text>
</g>
<!-- cam_power_strip -->
<g id="node19" class="node">
<title>cam_power_strip</title>
<polygon fill="none" stroke="#000000" points="963.5,-450.5 793.5,-450.5 793.5,-412.5 963.5,-412.5 963.5,-450.5"/>
<text text-anchor="middle" x="878.5" y="-435.3" font-family="Times,serif" font-size="14.00" fill="#000000">camera side power strip</text>
<text text-anchor="middle" x="878.5" y="-420.3" font-family="Times,serif" font-size="14.00" fill="#000000">&gt;=4 CEE 7/3 or 7/5 sockets</text>
</g>
<!-- cam_power_strip&#45;&gt;camera_ac_in -->
<g id="edge13" class="edge">
<title>cam_power_strip&#45;&gt;camera_ac_in</title>
<path fill="none" stroke="#000000" d="M915.9325,-412.314C924.1639,-405.6976 931.144,-397.2969 933.5,-387"/>
<path fill="none" stroke="#000000" d="M933.5,-387C933.6206,-386.473 899.2154,-350.1832 874.6697,-324.3761"/>
<polygon fill="#000000" stroke="#000000" points="877.1606,-321.9165 867.7318,-317.0846 872.0895,-326.7418 877.1606,-321.9165"/>
</g>
<!-- cam_power_strip&#45;&gt;cam_box_ac_in -->
<g id="edge14" class="edge">
<title>cam_power_strip&#45;&gt;cam_box_ac_in</title>
<path fill="none" stroke="#000000" d="M933.5,-387C950.265,-313.729 942.9511,-224.244 937.4959,-179.6194"/>
<polygon fill="#000000" stroke="#000000" points="940.9455,-179.0024 936.199,-169.5303 934.0026,-179.895 940.9455,-179.0024"/>
</g>
<!-- speaker_power_strip -->
<g id="node20" class="node">
<title>speaker_power_strip</title>
<polygon fill="none" stroke="#000000" points="1481.5,-740.5 1311.5,-740.5 1311.5,-702.5 1481.5,-702.5 1481.5,-740.5"/>
<text text-anchor="middle" x="1396.5" y="-725.3" font-family="Times,serif" font-size="14.00" fill="#000000">speaker side power strip</text>
<text text-anchor="middle" x="1396.5" y="-710.3" font-family="Times,serif" font-size="14.00" fill="#000000">&gt;=4 CEE 7/3 or 7/5 sockets</text>
</g>
<!-- speaker_power_strip&#45;&gt;speaker_laptop -->
<g id="edge15" class="edge">
<title>speaker_power_strip&#45;&gt;speaker_laptop</title>
<path fill="none" stroke="#000000" d="M1400.3331,-702.481C1400.6404,-696.1948 1399.8543,-689.4273 1396.5,-684"/>
<path fill="none" stroke="#000000" d="M1396.5,-684C1380.5044,-658.1186 1300.7297,-643.9741 1244.2567,-637.0734"/>
<polygon fill="#000000" stroke="#000000" points="1244.344,-633.5597 1234.0038,-635.868 1243.5267,-640.5118 1244.344,-633.5597"/>
</g>
<!-- speaker_power_strip&#45;&gt;speaker_box_ac_in -->
<g id="edge16" class="edge">
<title>speaker_power_strip&#45;&gt;speaker_box_ac_in</title>
<path fill="none" stroke="#000000" d="M1396.5,-684C1377.9415,-653.9717 1392.734,-411.358 1398.474,-327.4383"/>
<polygon fill="#000000" stroke="#000000" points="1401.9733,-327.567 1399.173,-317.349 1394.9901,-327.0831 1401.9733,-327.567"/>
</g>
</g>
</svg>
