<?xml version="1.0" encoding="UTF-8" standalone="no"?>
<!DOCTYPE svg PUBLIC "-//W3C//DTD SVG 1.1//EN"
 "http://www.w3.org/Graphics/SVG/1.1/DTD/svg11.dtd">
<!-- Generated by graphviz version 9.0.0 (0)
 -->
<!-- Title: G Pages: 1 -->
<svg width="1578pt" height="961pt"
 viewBox="0.00 0.00 1577.50 961.00" xmlns="http://www.w3.org/2000/svg" xmlns:xlink="http://www.w3.org/1999/xlink">
<g id="graph0" class="graph" transform="scale(1 1) rotate(0) translate(4 957)">
<title>G</title>
<polygon fill="white" stroke="none" points="-4,4 -4,-957 1573.5,-957 1573.5,4 -4,4"/>
<text text-anchor="middle" x="784.75" y="-23.7" font-family="Times,serif" font-size="14.00">FOSDEM 2024 large rooms video cabling setup:</text>
<text text-anchor="middle" x="784.75" y="-7.2" font-family="Times,serif" font-size="14.00">h1301, h1302, h1308, h1309, h2215, ua2114, ua2118, ua2220, ub2252a, ud2120, ud2208, ud2218a</text>
<g id="clust1" class="cluster">
<title>cluster_mic_receivers</title>
<polygon fill="none" stroke="black" points="428,-537.5 428,-725.5 948,-725.5 948,-537.5 428,-537.5"/>
<text text-anchor="middle" x="688" y="-708.2" font-family="Times,serif" font-size="14.00">sennheiser ekp avx receivers</text>
<text text-anchor="middle" x="688" y="-691.7" font-family="Times,serif" font-size="14.00">DC autonomy: &gt;4h (BA20 battery)</text>
<text text-anchor="middle" x="688" y="-675.2" font-family="Times,serif" font-size="14.00">430 mAh</text>
<text text-anchor="middle" x="688" y="-658.7" font-family="Times,serif" font-size="14.00">AC autonomy: ∞</text>
<text text-anchor="middle" x="688" y="-642.2" font-family="Times,serif" font-size="14.00">phantom auto power on/off</text>
</g>
<g id="clust2" class="cluster">
<title>cluster_speaker_microphone_receiver</title>
<g id="a_clust2"><a xlink:href="https://en-us.sennheiser.com/global-downloads/file/6524/AVX_Manual_06_2015_EN.pdf" xlink:title="speaker microphone receiver">
<polygon fill="none" stroke="black" points="692,-545.5 692,-627 940,-627 940,-545.5 692,-545.5"/>
<text text-anchor="middle" x="816" y="-609.7" font-family="Times,serif" font-size="14.00">speaker microphone receiver</text>
</a>
</g>
</g>
<g id="clust3" class="cluster">
<title>cluster_audience_microphone_receiver</title>
<g id="a_clust3"><a xlink:href="https://en-us.sennheiser.com/global-downloads/file/6524/AVX_Manual_06_2015_EN.pdf" xlink:title="audience microphone receiver">
<polygon fill="none" stroke="black" points="436,-545.5 436,-627 684,-627 684,-545.5 436,-545.5"/>
<text text-anchor="middle" x="560" y="-609.7" font-family="Times,serif" font-size="14.00">audience microphone receiver</text>
</a>
</g>
</g>
<g id="clust4" class="cluster">
<title>cluster_mix_panel</title>
<polygon fill="none" stroke="black" points="248,-371.75 248,-486.25 942,-486.25 942,-371.75 248,-371.75"/>
<text text-anchor="middle" x="595" y="-468.95" font-family="Times,serif" font-size="14.00">FOSDEM audio mix panel</text>
<text text-anchor="middle" x="595" y="-452.45" font-family="Times,serif" font-size="14.00">Yamaha MG10</text>
</g>
<g id="clust5" class="cluster">
<title>cluster_camera</title>
<g id="a_clust5"><a xlink:href="https://pro.sony.com/bbsccms/assets/files/micro/nxcam/latest/Sony_HXR-NX100.pdf" xlink:title="camera\nSony HXR&#45;NX100">
<polygon fill="none" stroke="black" points="158,-206.25 158,-320.75 924,-320.75 924,-206.25 158,-206.25"/>
<text text-anchor="middle" x="541" y="-303.45" font-family="Times,serif" font-size="14.00">camera</text>
<text text-anchor="middle" x="541" y="-286.95" font-family="Times,serif" font-size="14.00">Sony HXR&#45;NX100</text>
</a>
</g>
</g>
<g id="clust8" class="cluster">
<title>cluster_cam_laptop</title>
<polygon fill="none" stroke="lightgrey" points="8,-217 8,-293.5 150,-293.5 150,-217 8,-217"/>
<text text-anchor="middle" x="79" y="-276.2" font-family="Times,serif" font-size="14.00">cam box laptop</text>
</g>
<g id="clust9" class="cluster">
<title>cluster_cam_box</title>
<g id="a_clust9"><a xlink:href="https://github.com/FOSDEM/video" xlink:title="camera box">
<polygon fill="none" stroke="lightgrey" points="427,-49 427,-130.5 827,-130.5 827,-49 427,-49"/>
<text text-anchor="middle" x="627" y="-113.2" font-family="Times,serif" font-size="14.00">camera box</text>
</a>
</g>
</g>
<g id="clust11" class="cluster">
<title>cluster_speaker_box</title>
<g id="a_clust11"><a xlink:href="https://github.com/FOSDEM/video" xlink:title="speaker box">
<polygon fill="none" stroke="lightgrey" points="984,-537.25 984,-635.25 1448,-635.25 1448,-537.25 984,-537.25"/>
<text text-anchor="middle" x="1216" y="-617.95" font-family="Times,serif" font-size="14.00">speaker box</text>
</a>
</g>
</g>
<g id="clust12" class="cluster">
<title>cluster_speaker_video_laptop</title>
<polygon fill="none" stroke="lightgrey" points="1378,-803.75 1378,-880.25 1520,-880.25 1520,-803.75 1378,-803.75"/>
<text text-anchor="middle" x="1449" y="-862.95" font-family="Times,serif" font-size="14.00">speaker box laptop</text>
</g>
<g id="clust13" class="cluster">
<title>cluster_ulb_hardware</title>
<polygon fill="none" stroke="black" points="932,-198 932,-312.5 1282,-312.5 1282,-198 932,-198"/>
<text text-anchor="middle" x="1107" y="-295.2" font-family="Times,serif" font-size="14.00">ULB hardware</text>
</g>
<!-- cam_power_strip -->
<g id="node1" class="node">
<title>cam_power_strip</title>
<polygon fill="none" stroke="black" points="305.5,-594.5 136.5,-594.5 136.5,-553.5 305.5,-553.5 305.5,-594.5"/>
<text text-anchor="middle" x="221" y="-577.2" font-family="Times,serif" font-size="14.00">camera side power strip</text>
<text text-anchor="middle" x="221" y="-560.7" font-family="Times,serif" font-size="14.00">&gt;=3 CEE 7/3 or 7/5 sockets</text>
</g>
<!-- mix_panel_ac_in -->
<g id="node13" class="node">
<title>mix_panel_ac_in</title>
<polygon fill="none" stroke="black" points="310,-426.5 256,-426.5 256,-390.5 310,-390.5 310,-426.5"/>
<text text-anchor="middle" x="283" y="-403.45" font-family="Times,serif" font-size="14.00">AC in</text>
</g>
<!-- cam_power_strip&#45;&gt;mix_panel_ac_in -->
<g id="edge21" class="edge">
<title>cam_power_strip&#45;&gt;mix_panel_ac_in</title>
<path fill="none" stroke="black" d="M221,-509.75C221.16,-508.69 247.86,-465.76 266.17,-436.43"/>
<polygon fill="black" stroke="black" points="269.11,-438.33 271.44,-427.99 263.17,-434.62 269.11,-438.33"/>
</g>
<!-- camera_ac_in -->
<g id="node18" class="node">
<title>camera_ac_in</title>
<polygon fill="none" stroke="black" points="275.5,-261 166.5,-261 166.5,-225 275.5,-225 275.5,-261"/>
<text text-anchor="middle" x="221" y="-237.95" font-family="Times,serif" font-size="14.00">camera AC input</text>
</g>
<!-- cam_power_strip&#45;&gt;camera_ac_in -->
<g id="edge19" class="edge">
<title>cam_power_strip&#45;&gt;camera_ac_in</title>
<path fill="none" stroke="black" d="M221,-344.25C215.24,-320.61 215.77,-292.9 217.44,-272.61"/>
<polygon fill="black" stroke="black" points="220.9,-273.12 218.4,-262.83 213.94,-272.44 220.9,-273.12"/>
</g>
<!-- cam_laptop_ac_in -->
<g id="node19" class="node">
<title>cam_laptop_ac_in</title>
<polygon fill="lightgrey" stroke="black" points="142,-261 88,-261 88,-225 142,-225 142,-261"/>
<text text-anchor="middle" x="115" y="-237.95" font-family="Times,serif" font-size="14.00">AC in</text>
</g>
<!-- cam_power_strip&#45;&gt;cam_laptop_ac_in -->
<g id="edge20" class="edge">
<title>cam_power_strip&#45;&gt;cam_laptop_ac_in</title>
<path fill="none" stroke="black" d="M219.53,-553.03C219,-541.01 218.97,-525.42 221,-511.75"/>
<path fill="none" stroke="black" d="M221,-509.75C231.66,-437.87 238.21,-416.85 221,-346.25"/>
<path fill="none" stroke="black" d="M221,-344.25C211.61,-314.12 177.75,-341.53 154,-320.75 139.29,-307.87 129.43,-288.12 123.3,-271.87"/>
<polygon fill="black" stroke="black" points="126.72,-271.05 120.14,-262.75 120.11,-273.34 126.72,-271.05"/>
</g>
<!-- usb_powerbank -->
<g id="node2" class="node">
<title>usb_powerbank</title>
<polygon fill="none" stroke="black" points="756,-850.25 650,-850.25 650,-809.25 756,-809.25 756,-850.25"/>
<text text-anchor="middle" x="703" y="-832.95" font-family="Times,serif" font-size="14.00">USB powerbank</text>
<text text-anchor="middle" x="703" y="-816.45" font-family="Times,serif" font-size="14.00">10.4k mAh</text>
</g>
<!-- speaker_microphone_receiver_usb_power_connector -->
<g id="node5" class="node">
<title>speaker_microphone_receiver_usb_power_connector</title>
<polygon fill="none" stroke="black" points="812,-594.5 700,-594.5 700,-553.5 812,-553.5 812,-594.5"/>
<text text-anchor="middle" x="756" y="-577.2" font-family="Times,serif" font-size="14.00">power input port</text>
<text text-anchor="middle" x="756" y="-560.7" font-family="Times,serif" font-size="14.00">micro usb female</text>
</g>
<!-- usb_powerbank&#45;&gt;speaker_microphone_receiver_usb_power_connector -->
<g id="edge4" class="edge">
<title>usb_powerbank&#45;&gt;speaker_microphone_receiver_usb_power_connector</title>
<path fill="none" stroke="black" d="M718.01,-808.84C725.99,-797.15 735.13,-781.71 740,-766.5 757.39,-712.17 758.69,-644.98 757.63,-606.35"/>
<polygon fill="black" stroke="black" points="761.13,-606.25 757.28,-596.38 754.14,-606.49 761.13,-606.25"/>
<text text-anchor="middle" x="823.12" y="-753.2" font-family="Times,serif" font-size="14.00">USB A &#45;&gt; micro USB cable</text>
<text text-anchor="middle" x="823.12" y="-736.7" font-family="Times,serif" font-size="14.00">included in mic kit</text>
</g>
<!-- audience_microphone_receiver_usb_power_connector -->
<g id="node7" class="node">
<title>audience_microphone_receiver_usb_power_connector</title>
<polygon fill="none" stroke="black" points="676,-594.5 564,-594.5 564,-553.5 676,-553.5 676,-594.5"/>
<text text-anchor="middle" x="620" y="-577.2" font-family="Times,serif" font-size="14.00">power input port</text>
<text text-anchor="middle" x="620" y="-560.7" font-family="Times,serif" font-size="14.00">micro usb female</text>
</g>
<!-- usb_powerbank&#45;&gt;audience_microphone_receiver_usb_power_connector -->
<g id="edge7" class="edge">
<title>usb_powerbank&#45;&gt;audience_microphone_receiver_usb_power_connector</title>
<path fill="none" stroke="black" d="M659.63,-808.81C627.39,-793.54 588.23,-773.89 583.75,-766.5 552.99,-715.74 581.4,-644.63 602.34,-604.89"/>
<polygon fill="black" stroke="black" points="605.41,-606.57 607.13,-596.12 599.27,-603.22 605.41,-606.57"/>
<text text-anchor="middle" x="660.12" y="-753.2" font-family="Times,serif" font-size="14.00">USB A &#45;&gt; micro USB cable</text>
<text text-anchor="middle" x="660.12" y="-736.7" font-family="Times,serif" font-size="14.00">included in mic kit</text>
</g>
<!-- speaker_microphone -->
<g id="node3" class="node">
<title>speaker_microphone</title>
<g id="a_node3"><a xlink:href="https://en-us.sennheiser.com/global-downloads/file/6524/AVX_Manual_06_2015_EN.pdf" xlink:title="speaker microphone\nsennheiser avx me2\nesk avx bodypack transmitter\nautonomy: 15h (BA30 battery)/11h (2x AA)\n2030 mAh">
<polygon fill="none" stroke="black" points="1065.75,-875 808.25,-875 808.25,-784.5 1065.75,-784.5 1065.75,-875"/>
<text text-anchor="middle" x="937" y="-857.7" font-family="Times,serif" font-size="14.00">speaker microphone</text>
<text text-anchor="middle" x="937" y="-841.2" font-family="Times,serif" font-size="14.00">sennheiser avx me2</text>
<text text-anchor="middle" x="937" y="-824.7" font-family="Times,serif" font-size="14.00">esk avx bodypack transmitter</text>
<text text-anchor="middle" x="937" y="-808.2" font-family="Times,serif" font-size="14.00">autonomy: 15h (BA30 battery)/11h (2x AA)</text>
<text text-anchor="middle" x="937" y="-791.7" font-family="Times,serif" font-size="14.00">2030 mAh</text>
</a>
</g>
</g>
<!-- speaker_microphone_receiver_xlr_connector -->
<g id="node6" class="node">
<title>speaker_microphone_receiver_xlr_connector</title>
<polygon fill="none" stroke="black" points="931.75,-592 830.25,-592 830.25,-556 931.75,-556 931.75,-592"/>
<text text-anchor="middle" x="881" y="-568.95" font-family="Times,serif" font-size="14.00">XLR male plug</text>
</g>
<!-- speaker_microphone&#45;&gt;speaker_microphone_receiver_xlr_connector -->
<g id="edge3" class="edge">
<title>speaker_microphone&#45;&gt;speaker_microphone_receiver_xlr_connector</title>
<path fill="none" stroke="black" stroke-dasharray="5,2" d="M927.18,-784.26C918.25,-743.8 904.98,-683.66 894.95,-638.22"/>
<polygon fill="black" stroke="black" points="898.37,-637.49 892.8,-628.48 891.54,-639 898.37,-637.49"/>
<text text-anchor="middle" x="968.25" y="-744.95" font-family="Times,serif" font-size="14.00">1.9 GHz wireless</text>
</g>
<!-- audience_microphone -->
<g id="node4" class="node">
<title>audience_microphone</title>
<g id="a_node4"><a xlink:href="https://en-us.sennheiser.com/global-downloads/file/6524/AVX_Manual_06_2015_EN.pdf" xlink:title="audience microphone\nsennheiser avx 835\nautonomy: 13h (BA10 battery)/11h (2x AA)\n2200 mAh">
<polygon fill="none" stroke="black" points="597.75,-866.75 340.25,-866.75 340.25,-792.75 597.75,-792.75 597.75,-866.75"/>
<text text-anchor="middle" x="469" y="-849.45" font-family="Times,serif" font-size="14.00">audience microphone</text>
<text text-anchor="middle" x="469" y="-832.95" font-family="Times,serif" font-size="14.00">sennheiser avx 835</text>
<text text-anchor="middle" x="469" y="-816.45" font-family="Times,serif" font-size="14.00">autonomy: 13h (BA10 battery)/11h (2x AA)</text>
<text text-anchor="middle" x="469" y="-799.95" font-family="Times,serif" font-size="14.00">2200 mAh</text>
</a>
</g>
</g>
<!-- audience_microphone_receiver_xlr_connector -->
<g id="node8" class="node">
<title>audience_microphone_receiver_xlr_connector</title>
<polygon fill="none" stroke="black" points="545.75,-592 444.25,-592 444.25,-556 545.75,-556 545.75,-592"/>
<text text-anchor="middle" x="495" y="-568.95" font-family="Times,serif" font-size="14.00">XLR male plug</text>
</g>
<!-- audience_microphone&#45;&gt;audience_microphone_receiver_xlr_connector -->
<g id="edge6" class="edge">
<title>audience_microphone&#45;&gt;audience_microphone_receiver_xlr_connector</title>
<path fill="none" stroke="black" stroke-dasharray="5,2" d="M468.4,-792.51C468.4,-774.7 468.85,-752.95 470.5,-733.5 473.18,-701.94 478.31,-667.13 483.19,-638.19"/>
<polygon fill="black" stroke="black" points="486.61,-638.94 484.86,-628.49 479.72,-637.75 486.61,-638.94"/>
<text text-anchor="middle" x="518.25" y="-744.95" font-family="Times,serif" font-size="14.00">1.9 GHz wireless</text>
</g>
<!-- mix_panel_mic_1_in -->
<g id="node9" class="node">
<title>mix_panel_mic_1_in</title>
<polygon fill="none" stroke="black" points="934,-437.25 798,-437.25 798,-379.75 934,-379.75 934,-437.25"/>
<text text-anchor="middle" x="866" y="-419.95" font-family="Times,serif" font-size="14.00">mic 1 in</text>
<text text-anchor="middle" x="866" y="-403.45" font-family="Times,serif" font-size="14.00">XLR female port</text>
<text text-anchor="middle" x="866" y="-386.95" font-family="Times,serif" font-size="14.00">+48V phantom power</text>
</g>
<!-- speaker_microphone_receiver_xlr_connector&#45;&gt;mix_panel_mic_1_in -->
<g id="edge5" class="edge">
<title>speaker_microphone_receiver_xlr_connector&#45;&gt;mix_panel_mic_1_in</title>
<path fill="none" stroke="black" d="M879.39,-555.5C877.08,-530.23 872.73,-482.81 869.61,-448.87"/>
<polygon fill="black" stroke="black" points="873.1,-448.63 868.71,-438.99 866.13,-449.27 873.1,-448.63"/>
</g>
<!-- mix_panel_mic_2_in -->
<g id="node10" class="node">
<title>mix_panel_mic_2_in</title>
<polygon fill="none" stroke="black" points="780,-437.25 644,-437.25 644,-379.75 780,-379.75 780,-437.25"/>
<text text-anchor="middle" x="712" y="-419.95" font-family="Times,serif" font-size="14.00">mic 2 in</text>
<text text-anchor="middle" x="712" y="-403.45" font-family="Times,serif" font-size="14.00">XLR female port</text>
<text text-anchor="middle" x="712" y="-386.95" font-family="Times,serif" font-size="14.00">+48V phantom power</text>
</g>
<!-- audience_microphone_receiver_xlr_connector&#45;&gt;mix_panel_mic_2_in -->
<g id="edge8" class="edge">
<title>audience_microphone_receiver_xlr_connector&#45;&gt;mix_panel_mic_2_in</title>
<path fill="none" stroke="black" d="M523.93,-555.56C561.95,-532.56 625.08,-494.1 635,-486.25 650.32,-474.13 665.84,-459.26 678.9,-445.85"/>
<polygon fill="black" stroke="black" points="681.24,-448.46 685.64,-438.82 676.19,-443.62 681.24,-448.46"/>
</g>
<!-- mix_panel_out_1 -->
<g id="node11" class="node">
<title>mix_panel_out_1</title>
<polygon fill="none" stroke="black" points="464,-437.25 328,-437.25 328,-379.75 464,-379.75 464,-437.25"/>
<text text-anchor="middle" x="396" y="-419.95" font-family="Times,serif" font-size="14.00">mix panel out left</text>
<text text-anchor="middle" x="396" y="-403.45" font-family="Times,serif" font-size="14.00">XLR male port</text>
<text text-anchor="middle" x="396" y="-386.95" font-family="Times,serif" font-size="14.00">balanced left or mono</text>
</g>
<!-- camera_xlr_in_1 -->
<g id="node14" class="node">
<title>camera_xlr_in_1</title>
<polygon fill="none" stroke="black" points="915.88,-271.75 788.12,-271.75 788.12,-214.25 915.88,-214.25 915.88,-271.75"/>
<text text-anchor="middle" x="852" y="-254.45" font-family="Times,serif" font-size="14.00">audio in CH1</text>
<text text-anchor="middle" x="852" y="-237.95" font-family="Times,serif" font-size="14.00">XLR female port</text>
<text text-anchor="middle" x="852" y="-221.45" font-family="Times,serif" font-size="14.00">48V phantom power</text>
</g>
<!-- mix_panel_out_1&#45;&gt;camera_xlr_in_1 -->
<g id="edge9" class="edge">
<title>mix_panel_out_1&#45;&gt;camera_xlr_in_1</title>
<path fill="none" stroke="black" d="M452.08,-379.36C459.02,-376.51 466.1,-373.88 473,-371.75 604.72,-331.02 657.2,-385.37 779,-320.75 796.89,-311.26 812.9,-295.73 825.34,-281.11"/>
<polygon fill="black" stroke="black" points="828.04,-283.33 831.64,-273.36 822.62,-278.91 828.04,-283.33"/>
<text text-anchor="middle" x="791.12" y="-348.45" font-family="Times,serif" font-size="14.00">xlr cable</text>
<text text-anchor="middle" x="791.12" y="-331.95" font-family="Times,serif" font-size="14.00">female/male</text>
</g>
<!-- mix_panel_out_2 -->
<g id="node12" class="node">
<title>mix_panel_out_2</title>
<polygon fill="none" stroke="black" points="625.75,-437.25 482.25,-437.25 482.25,-379.75 625.75,-379.75 625.75,-437.25"/>
<text text-anchor="middle" x="554" y="-419.95" font-family="Times,serif" font-size="14.00">mix panel out right</text>
<text text-anchor="middle" x="554" y="-403.45" font-family="Times,serif" font-size="14.00">XLR male port</text>
<text text-anchor="middle" x="554" y="-386.95" font-family="Times,serif" font-size="14.00">balanced right or mono</text>
</g>
<!-- room_amplification -->
<g id="node30" class="node">
<title>room_amplification</title>
<polygon fill="none" stroke="black" points="1103.88,-261 940.12,-261 940.12,-225 1103.88,-225 1103.88,-261"/>
<text text-anchor="middle" x="1022" y="-237.95" font-family="Times,serif" font-size="14.00">room amplification system</text>
</g>
<!-- mix_panel_out_2&#45;&gt;room_amplification -->
<g id="edge10" class="edge">
<title>mix_panel_out_2&#45;&gt;room_amplification</title>
<path fill="none" stroke="black" d="M611.07,-379.27C618.96,-376.27 627.07,-373.64 635,-371.75 718.99,-351.77 744.78,-380.77 829,-361.75 875.45,-351.26 887.12,-345.18 928,-320.75 952.71,-305.98 977.82,-285.11 995.87,-268.86"/>
<polygon fill="black" stroke="black" points="998,-271.66 1003.01,-262.33 993.27,-266.5 998,-271.66"/>
<text text-anchor="middle" x="948.12" y="-348.45" font-family="Times,serif" font-size="14.00">xlr cable</text>
<text text-anchor="middle" x="948.12" y="-331.95" font-family="Times,serif" font-size="14.00">female/male</text>
</g>
<!-- camera_xlr_in_2 -->
<g id="node15" class="node">
<title>camera_xlr_in_2</title>
<polygon fill="none" stroke="black" points="769.88,-271.75 642.12,-271.75 642.12,-214.25 769.88,-214.25 769.88,-271.75"/>
<text text-anchor="middle" x="706" y="-254.45" font-family="Times,serif" font-size="14.00">audio in CH2</text>
<text text-anchor="middle" x="706" y="-237.95" font-family="Times,serif" font-size="14.00">XLR female port</text>
<text text-anchor="middle" x="706" y="-221.45" font-family="Times,serif" font-size="14.00">48V phantom power</text>
</g>
<!-- camera_hdmi_out -->
<g id="node16" class="node">
<title>camera_hdmi_out</title>
<polygon fill="none" stroke="black" points="623.75,-263.5 462.25,-263.5 462.25,-222.5 623.75,-222.5 623.75,-263.5"/>
<text text-anchor="middle" x="543" y="-246.2" font-family="Times,serif" font-size="14.00">HDMI out</text>
<text text-anchor="middle" x="543" y="-229.7" font-family="Times,serif" font-size="14.00">HDMI A (full size) female</text>
</g>
<!-- cam_box_hdmi_in -->
<g id="node21" class="node">
<title>cam_box_hdmi_in</title>
<polygon fill="lightgrey" stroke="black" points="668.75,-98 507.25,-98 507.25,-57 668.75,-57 668.75,-98"/>
<text text-anchor="middle" x="588" y="-80.7" font-family="Times,serif" font-size="14.00">HDMI in</text>
<text text-anchor="middle" x="588" y="-64.2" font-family="Times,serif" font-size="14.00">HDMI A (full size) female</text>
</g>
<!-- camera_hdmi_out&#45;&gt;cam_box_hdmi_in -->
<g id="edge14" class="edge">
<title>camera_hdmi_out&#45;&gt;cam_box_hdmi_in</title>
<path fill="none" stroke="black" d="M548.43,-222.28C556.17,-194.17 570.44,-142.32 579.56,-109.17"/>
<polygon fill="black" stroke="black" points="582.87,-110.32 582.15,-99.75 576.12,-108.46 582.87,-110.32"/>
<text text-anchor="middle" x="623.12" y="-174.7" font-family="Times,serif" font-size="14.00">HDMI cable</text>
<text text-anchor="middle" x="623.12" y="-158.2" font-family="Times,serif" font-size="14.00">HDMI A (full size)</text>
<text text-anchor="middle" x="623.12" y="-141.7" font-family="Times,serif" font-size="14.00">male/male</text>
</g>
<!-- camera_audio_monitor -->
<g id="node17" class="node">
<title>camera_audio_monitor</title>
<polygon fill="none" stroke="black" points="444.12,-263.5 293.88,-263.5 293.88,-222.5 444.12,-222.5 444.12,-263.5"/>
<text text-anchor="middle" x="369" y="-246.2" font-family="Times,serif" font-size="14.00">audio monitoring port</text>
<text text-anchor="middle" x="369" y="-229.7" font-family="Times,serif" font-size="14.00">3.5mm trs stereo female</text>
</g>
<!-- headphones -->
<g id="node35" class="node">
<title>headphones</title>
<g id="a_node35"><a xlink:href="https://en-us.sennheiser.com/over-ear-headphones-hd-201" xlink:title="Sennheiser HD201 headphones\n3.5mm trs stereo male\nrental budgetcam">
<polygon fill="none" stroke="black" points="417.12,-106.25 230.88,-106.25 230.88,-48.75 417.12,-48.75 417.12,-106.25"/>
<text text-anchor="middle" x="324" y="-88.95" font-family="Times,serif" font-size="14.00">Sennheiser HD201 headphones</text>
<text text-anchor="middle" x="324" y="-72.45" font-family="Times,serif" font-size="14.00">3.5mm trs stereo male</text>
<text text-anchor="middle" x="324" y="-55.95" font-family="Times,serif" font-size="14.00">rental budgetcam</text>
</a>
</g>
</g>
<!-- camera_audio_monitor&#45;&gt;headphones -->
<g id="edge16" class="edge">
<title>camera_audio_monitor&#45;&gt;headphones</title>
<path fill="none" stroke="black" d="M363.57,-222.28C356.46,-196.45 343.84,-150.57 334.76,-117.58"/>
<polygon fill="black" stroke="black" points="338.14,-116.67 332.11,-107.96 331.39,-118.53 338.14,-116.67"/>
</g>
<!-- cam_laptop_usb -->
<g id="node20" class="node">
<title>cam_laptop_usb</title>
<polygon fill="lightgrey" stroke="black" points="70,-261 16,-261 16,-225 70,-225 70,-261"/>
<text text-anchor="middle" x="43" y="-237.95" font-family="Times,serif" font-size="14.00">USB</text>
</g>
<!-- cam_box_usb -->
<g id="node23" class="node">
<title>cam_box_usb</title>
<polygon fill="lightgrey" stroke="black" points="489,-95.5 435,-95.5 435,-59.5 489,-59.5 489,-95.5"/>
<text text-anchor="middle" x="462" y="-72.45" font-family="Times,serif" font-size="14.00">USB</text>
</g>
<!-- cam_laptop_usb&#45;&gt;cam_box_usb -->
<g id="edge1" class="edge">
<title>cam_laptop_usb&#45;&gt;cam_box_usb</title>
<path fill="none" stroke="black" d="M59.53,-215.78C64.96,-209.05 71.54,-202.46 79,-198 213.87,-117.41 294.47,-216.43 426,-130.5 435.38,-124.37 443.01,-114.86 448.78,-105.64"/>
<polygon fill="black" stroke="black" points="56.86,-213.51 53.76,-223.64 62.5,-217.65 56.86,-213.51"/>
<polygon fill="black" stroke="black" points="451.66,-107.66 453.57,-97.24 445.58,-104.2 451.66,-107.66"/>
</g>
<!-- cam_box_switch -->
<g id="node22" class="node">
<title>cam_box_switch</title>
<polygon fill="lightgrey" stroke="black" points="818.75,-95.5 687.25,-95.5 687.25,-59.5 818.75,-59.5 818.75,-95.5"/>
<text text-anchor="middle" x="753" y="-72.45" font-family="Times,serif" font-size="14.00">3x Gbit dumb switch</text>
</g>
<!-- speaker_box_hdmi_in -->
<g id="node24" class="node">
<title>speaker_box_hdmi_in</title>
<polygon fill="lightgrey" stroke="black" points="1092,-602.75 992,-602.75 992,-545.25 1092,-545.25 1092,-602.75"/>
<text text-anchor="middle" x="1042" y="-585.45" font-family="Times,serif" font-size="14.00">HDMI in</text>
<text text-anchor="middle" x="1042" y="-568.95" font-family="Times,serif" font-size="14.00">left HDMI port</text>
<text text-anchor="middle" x="1042" y="-552.45" font-family="Times,serif" font-size="14.00">female</text>
</g>
<!-- speaker_box_hdmi_out -->
<g id="node25" class="node">
<title>speaker_box_hdmi_out</title>
<polygon fill="lightgrey" stroke="black" points="1217.75,-602.75 1110.25,-602.75 1110.25,-545.25 1217.75,-545.25 1217.75,-602.75"/>
<text text-anchor="middle" x="1164" y="-585.45" font-family="Times,serif" font-size="14.00">HDMI out</text>
<text text-anchor="middle" x="1164" y="-568.95" font-family="Times,serif" font-size="14.00">right HDMI port</text>
<text text-anchor="middle" x="1164" y="-552.45" font-family="Times,serif" font-size="14.00">female</text>
</g>
<!-- room_projector -->
<g id="node31" class="node">
<title>room_projector</title>
<polygon fill="none" stroke="black" points="1274.25,-280 1121.75,-280 1121.75,-206 1274.25,-206 1274.25,-280"/>
<text text-anchor="middle" x="1198" y="-262.7" font-family="Times,serif" font-size="14.00">room projector HDMI in</text>
<text text-anchor="middle" x="1198" y="-246.2" font-family="Times,serif" font-size="14.00">HDMI port</text>
<text text-anchor="middle" x="1198" y="-229.7" font-family="Times,serif" font-size="14.00">female</text>
<text text-anchor="middle" x="1198" y="-213.2" font-family="Times,serif" font-size="14.00">exception: H2215 VGA</text>
</g>
<!-- speaker_box_hdmi_out&#45;&gt;room_projector -->
<g id="edge15" class="edge">
<title>speaker_box_hdmi_out&#45;&gt;room_projector</title>
<path fill="none" stroke="black" d="M1180.32,-545.18C1183.02,-539.43 1185.45,-533.28 1187,-527.25 1207.8,-446.56 1205.9,-348.68 1202.22,-291.66"/>
<polygon fill="black" stroke="black" points="1205.74,-291.72 1201.55,-281.99 1198.75,-292.21 1205.74,-291.72"/>
<text text-anchor="middle" x="1238.5" y="-411.7" font-family="Times,serif" font-size="14.00">HDMI cable</text>
<text text-anchor="middle" x="1238.5" y="-395.2" font-family="Times,serif" font-size="14.00">male/male</text>
</g>
<!-- room_projector_optional_adapter -->
<g id="node33" class="node">
<title>room_projector_optional_adapter</title>
<polygon fill="none" stroke="black" stroke-dasharray="1,5" points="1152.12,-426.5 983.88,-426.5 983.88,-390.5 1152.12,-390.5 1152.12,-426.5"/>
<text text-anchor="middle" x="1068" y="-403.45" font-family="Times,serif" font-size="14.00">optional vga&#45;&gt;hdmi adapter</text>
</g>
<!-- speaker_box_hdmi_out&#45;&gt;room_projector_optional_adapter -->
<g id="edge12" class="edge">
<title>speaker_box_hdmi_out&#45;&gt;room_projector_optional_adapter</title>
<path fill="none" stroke="black" stroke-dasharray="1,5" d="M1139.38,-545.22C1134.77,-539.46 1130.17,-533.3 1126.25,-527.25 1107.33,-498.03 1090.27,-461.8 1079.57,-437.3"/>
<polygon fill="black" stroke="black" points="1082.88,-436.14 1075.72,-428.33 1076.45,-438.9 1082.88,-436.14"/>
<text text-anchor="middle" x="1156.38" y="-513.95" font-family="Times,serif" font-size="14.00">VGA cable</text>
<text text-anchor="middle" x="1156.38" y="-497.45" font-family="Times,serif" font-size="14.00">male/male</text>
</g>
<!-- speaker_box_switch -->
<g id="node26" class="node">
<title>speaker_box_switch</title>
<polygon fill="lightgrey" stroke="black" points="1367.75,-592 1236.25,-592 1236.25,-556 1367.75,-556 1367.75,-592"/>
<text text-anchor="middle" x="1302" y="-568.95" font-family="Times,serif" font-size="14.00">3x Gbit dumb switch</text>
</g>
<!-- speaker_box_switch&#45;&gt;cam_box_switch -->
<g id="edge18" class="edge">
<title>speaker_box_switch&#45;&gt;cam_box_switch</title>
<path fill="none" stroke="black" d="M1310.93,-545.21C1330.92,-477.06 1371.16,-299.83 1286,-198 1228.29,-128.99 963.38,-96.63 830.08,-84.51"/>
<polygon fill="black" stroke="black" points="1307.68,-543.87 1308.13,-554.45 1314.37,-545.9 1307.68,-543.87"/>
<polygon fill="black" stroke="black" points="830.55,-81.03 820.27,-83.63 829.92,-88.01 830.55,-81.03"/>
<text text-anchor="middle" x="1374.88" y="-340.2" font-family="Times,serif" font-size="14.00">ethernet cable</text>
</g>
<!-- speaker_box_usb -->
<g id="node27" class="node">
<title>speaker_box_usb</title>
<polygon fill="lightgrey" stroke="black" points="1440,-592 1386,-592 1386,-556 1440,-556 1440,-592"/>
<text text-anchor="middle" x="1413" y="-568.95" font-family="Times,serif" font-size="14.00">USB</text>
</g>
<!-- speaker_video_laptop_ac_in -->
<g id="node28" class="node">
<title>speaker_video_laptop_ac_in</title>
<polygon fill="lightgrey" stroke="black" points="1512,-847.75 1458,-847.75 1458,-811.75 1512,-811.75 1512,-847.75"/>
<text text-anchor="middle" x="1485" y="-824.7" font-family="Times,serif" font-size="14.00">AC in</text>
</g>
<!-- speaker_video_laptop_usb -->
<g id="node29" class="node">
<title>speaker_video_laptop_usb</title>
<polygon fill="lightgrey" stroke="black" points="1440,-847.75 1386,-847.75 1386,-811.75 1440,-811.75 1440,-847.75"/>
<text text-anchor="middle" x="1413" y="-824.7" font-family="Times,serif" font-size="14.00">USB</text>
</g>
<!-- speaker_video_laptop_usb&#45;&gt;speaker_box_usb -->
<g id="edge2" class="edge">
<title>speaker_video_laptop_usb&#45;&gt;speaker_box_usb</title>
<path fill="none" stroke="black" d="M1413,-800.04C1413,-751.14 1413,-652.23 1413,-603.48"/>
<polygon fill="black" stroke="black" points="1409.5,-799.8 1413,-809.8 1416.5,-799.8 1409.5,-799.8"/>
<polygon fill="black" stroke="black" points="1416.5,-603.74 1413,-593.74 1409.5,-603.74 1416.5,-603.74"/>
</g>
<!-- speaker_power_strip -->
<g id="node32" class="node">
<title>speaker_power_strip</title>
<polygon fill="none" stroke="black" points="1569.5,-953 1400.5,-953 1400.5,-912 1569.5,-912 1569.5,-953"/>
<text text-anchor="middle" x="1485" y="-935.7" font-family="Times,serif" font-size="14.00">speaker side power strip</text>
<text text-anchor="middle" x="1485" y="-919.2" font-family="Times,serif" font-size="14.00">&gt;=3 CEE 7/3 or 7/5 sockets</text>
</g>
<!-- speaker_power_strip&#45;&gt;speaker_video_laptop_ac_in -->
<g id="edge23" class="edge">
<title>speaker_power_strip&#45;&gt;speaker_video_laptop_ac_in</title>
<path fill="none" stroke="black" d="M1485,-893C1478.29,-883.4 1477.26,-870.77 1478.31,-859.4"/>
<polygon fill="black" stroke="black" points="1481.74,-860.09 1479.77,-849.69 1474.82,-859.05 1481.74,-860.09"/>
</g>
<!-- speaker_laptop -->
<g id="node34" class="node">
<title>speaker_laptop</title>
<polygon fill="none" stroke="black" points="1184.38,-847.75 1089.62,-847.75 1089.62,-811.75 1184.38,-811.75 1184.38,-847.75"/>
<text text-anchor="middle" x="1137" y="-824.7" font-family="Times,serif" font-size="14.00">speaker laptop</text>
</g>
<!-- speaker_power_strip&#45;&gt;speaker_laptop -->
<g id="edge22" class="edge">
<title>speaker_power_strip&#45;&gt;speaker_laptop</title>
<path fill="none" stroke="black" d="M1489.19,-911.87C1489.47,-905.68 1488.58,-899.12 1485,-894"/>
<path fill="none" stroke="black" d="M1485,-893C1468.56,-869.47 1254.61,-888.07 1227,-880.25 1207.25,-874.65 1187.07,-864.08 1170.83,-854.14"/>
<polygon fill="black" stroke="black" points="1172.87,-851.29 1162.55,-848.89 1169.12,-857.2 1172.87,-851.29"/>
</g>
<!-- room_projector_optional_adapter&#45;&gt;room_projector -->
<g id="edge13" class="edge">
<title>room_projector_optional_adapter&#45;&gt;room_projector</title>
<path fill="none" stroke="black" stroke-dasharray="1,5" d="M1058.55,-390.28C1050.33,-372.7 1041.82,-345.65 1056.5,-328.75 1064.81,-319.18 1101.51,-326.12 1113,-320.75 1129.85,-312.87 1145.74,-300.49 1159.12,-287.96"/>
<polygon fill="black" stroke="black" points="1161.31,-290.72 1166.03,-281.23 1156.42,-285.7 1161.31,-290.72"/>
<text text-anchor="middle" x="1121.25" y="-340.2" font-family="Times,serif" font-size="14.00">HDMI cable male/male</text>
</g>
<!-- speaker_laptop&#45;&gt;speaker_box_hdmi_in -->
<g id="edge11" class="edge">
<title>speaker_laptop&#45;&gt;speaker_box_hdmi_in</title>
<path fill="none" stroke="black" d="M1130.47,-811.31C1115.3,-770.79 1077.38,-669.5 1056.45,-613.58"/>
<polygon fill="black" stroke="black" points="1059.81,-612.59 1053.03,-604.46 1053.26,-615.05 1059.81,-612.59"/>
<text text-anchor="middle" x="1189.38" y="-744.95" font-family="Times,serif" font-size="14.00">direct hdmi cable male/male</text>
</g>
<!-- video_vlan -->
<g id="node36" class="node">
<title>video_vlan</title>
<polygon fill="none" stroke="black" stroke-dasharray="1,5" points="1368.12,-847.75 1235.88,-847.75 1235.88,-811.75 1368.12,-811.75 1368.12,-847.75"/>
<text text-anchor="middle" x="1302" y="-824.7" font-family="Times,serif" font-size="14.00">FOSDEM video vlan</text>
</g>
<!-- video_vlan&#45;&gt;speaker_box_switch -->
<g id="edge17" class="edge">
<title>video_vlan&#45;&gt;speaker_box_switch</title>
<path fill="none" stroke="black" d="M1302,-800.04C1302,-751.14 1302,-652.23 1302,-603.48"/>
<polygon fill="black" stroke="black" points="1298.5,-799.8 1302,-809.8 1305.5,-799.8 1298.5,-799.8"/>
<polygon fill="black" stroke="black" points="1305.5,-603.74 1302,-593.74 1298.5,-603.74 1305.5,-603.74"/>
<text text-anchor="middle" x="1339.88" y="-744.95" font-family="Times,serif" font-size="14.00">ethernet cable</text>
</g>
</g>
</svg>
