<?xml version="1.0" encoding="UTF-8" standalone="no"?>
<!DOCTYPE svg PUBLIC "-//W3C//DTD SVG 1.1//EN"
 "http://www.w3.org/Graphics/SVG/1.1/DTD/svg11.dtd">
<!-- Generated by graphviz version 2.38.0 (20140413.2041)
 -->
<!-- Title: G Pages: 1 -->
<svg width="2290pt" height="859pt"
 viewBox="0.00 0.00 2290.00 858.50" xmlns="http://www.w3.org/2000/svg" xmlns:xlink="http://www.w3.org/1999/xlink">
<g id="graph0" class="graph" transform="scale(1 1) rotate(0) translate(4 854.5)">
<title>G</title>
<polygon fill="white" stroke="none" points="-4,4 -4,-854.5 2286,-854.5 2286,4 -4,4"/>
<text text-anchor="middle" x="1141" y="-22.8" font-family="Times,serif" font-size="14.00">FOSDEM 2017 xxl rooms video cabling setup:</text>
<text text-anchor="middle" x="1141" y="-7.8" font-family="Times,serif" font-size="14.00">h2215, janson, k1105, ua2220, ub2252a, ud2120</text>
<g id="clust1" class="cluster"><title>cluster_speaker_microphone_receiver</title>
<g id="a_clust1"><a xlink:href="https://en-us.sennheiser.com/global-downloads/file/671/Set100PG3_US_INT.pdf" xlink:title="speaker microphone receiver\nULB provided\nSennheiser G3 series\nautonomy: ?\n?AC powered EM{1,3}00?\n?DC: ?xAA batteries">
<polygon fill="none" stroke="black" points="8,-574.5 8,-726.5 278,-726.5 278,-574.5 8,-574.5"/>
<text text-anchor="middle" x="143" y="-711.3" font-family="Times,serif" font-size="14.00">speaker microphone receiver</text>
<text text-anchor="middle" x="143" y="-696.3" font-family="Times,serif" font-size="14.00">ULB provided</text>
<text text-anchor="middle" x="143" y="-681.3" font-family="Times,serif" font-size="14.00">Sennheiser G3 series</text>
<text text-anchor="middle" x="143" y="-666.3" font-family="Times,serif" font-size="14.00">autonomy: ?</text>
<text text-anchor="middle" x="143" y="-651.3" font-family="Times,serif" font-size="14.00">?AC powered EM{1,3}00?</text>
<text text-anchor="middle" x="143" y="-636.3" font-family="Times,serif" font-size="14.00">?DC: ?xAA batteries</text>
</a>
</g>
</g>
<g id="clust2" class="cluster"><title>cluster_audience_microphone_1_receiver</title>
<g id="a_clust2"><a xlink:href="https://en-us.sennheiser.com/global-downloads/file/671/Set100PG3_US_INT.pdf" xlink:title="speaker microphone receiver\nULB provided\nSennheiser G3 series\nautonomy: ?\n?AC powered EM{1,3}00?\n?DC: ?xAA batteries">
<polygon fill="none" stroke="black" points="348,-574.5 348,-726.5 618,-726.5 618,-574.5 348,-574.5"/>
<text text-anchor="middle" x="483" y="-711.3" font-family="Times,serif" font-size="14.00">speaker microphone receiver</text>
<text text-anchor="middle" x="483" y="-696.3" font-family="Times,serif" font-size="14.00">ULB provided</text>
<text text-anchor="middle" x="483" y="-681.3" font-family="Times,serif" font-size="14.00">Sennheiser G3 series</text>
<text text-anchor="middle" x="483" y="-666.3" font-family="Times,serif" font-size="14.00">autonomy: ?</text>
<text text-anchor="middle" x="483" y="-651.3" font-family="Times,serif" font-size="14.00">?AC powered EM{1,3}00?</text>
<text text-anchor="middle" x="483" y="-636.3" font-family="Times,serif" font-size="14.00">?DC: ?xAA batteries</text>
</a>
</g>
</g>
<g id="clust3" class="cluster"><title>cluster_audience_microphone_2_receiver</title>
<g id="a_clust3"><a xlink:href="https://en-us.sennheiser.com/global-downloads/file/671/Set100PG3_US_INT.pdf" xlink:title="speaker microphone receiver\nULB provided\nSennheiser G3 series\nautonomy: ?\n?AC powered EM{1,3}00?\n?DC: ?xAA batteries">
<polygon fill="none" stroke="black" points="636,-574.5 636,-726.5 906,-726.5 906,-574.5 636,-574.5"/>
<text text-anchor="middle" x="771" y="-711.3" font-family="Times,serif" font-size="14.00">speaker microphone receiver</text>
<text text-anchor="middle" x="771" y="-696.3" font-family="Times,serif" font-size="14.00">ULB provided</text>
<text text-anchor="middle" x="771" y="-681.3" font-family="Times,serif" font-size="14.00">Sennheiser G3 series</text>
<text text-anchor="middle" x="771" y="-666.3" font-family="Times,serif" font-size="14.00">autonomy: ?</text>
<text text-anchor="middle" x="771" y="-651.3" font-family="Times,serif" font-size="14.00">?AC powered EM{1,3}00?</text>
<text text-anchor="middle" x="771" y="-636.3" font-family="Times,serif" font-size="14.00">?DC: ?xAA batteries</text>
</a>
</g>
</g>
<g id="clust5" class="cluster"><title>cluster_camera</title>
<g id="a_clust5"><a xlink:href="https://pro.sony.com/bbsccms/assets/files/micro/nxcam/latest/Sony_HXR-NX100.pdf" xlink:title="camera\nSony HXR&#45;NX100">
<polygon fill="none" stroke="black" points="113,-264.5 113,-371.5 1031,-371.5 1031,-264.5 113,-264.5"/>
<text text-anchor="middle" x="572" y="-356.3" font-family="Times,serif" font-size="14.00">camera</text>
<text text-anchor="middle" x="572" y="-341.3" font-family="Times,serif" font-size="14.00">Sony HXR&#45;NX100</text>
</a>
</g>
</g>
<g id="clust7" class="cluster"><title>cluster_cam_box</title>
<g id="a_clust7"><a xlink:href="https://github.com/FOSDEM/video" xlink:title="camera box">
<polygon fill="none" stroke="lightgrey" points="866,-124.5 866,-201.5 1268,-201.5 1268,-124.5 866,-124.5"/>
<text text-anchor="middle" x="1067" y="-186.3" font-family="Times,serif" font-size="14.00">camera box</text>
</a>
</g>
</g>
<g id="clust8" class="cluster"><title>cluster_speaker_box</title>
<g id="a_clust8"><a xlink:href="https://github.com/FOSDEM/video" xlink:title="speaker box">
<polygon fill="none" stroke="lightgrey" points="1245,-264.5 1245,-356.5 1976,-356.5 1976,-264.5 1245,-264.5"/>
<text text-anchor="middle" x="1610.5" y="-341.3" font-family="Times,serif" font-size="14.00">speaker box</text>
</a>
</g>
</g>
<g id="clust9" class="cluster"><title>cluster_mix_panel</title>
<polygon fill="none" stroke="black" points="66,-419.5 66,-526.5 920,-526.5 920,-419.5 66,-419.5"/>
<text text-anchor="middle" x="493" y="-511.3" font-family="Times,serif" font-size="14.00">audio mix panel</text>
<text text-anchor="middle" x="493" y="-496.3" font-family="Times,serif" font-size="14.00">?ULB provided</text>
</g>
<!-- speaker_microphone -->
<g id="node1" class="node"><title>speaker_microphone</title>
<g id="a_node1"><a xlink:href="https://en-us.sennheiser.com/global-downloads/file/671/Set100PG3_US_INT.pdf" xlink:title="speaker microphone\nULB provided\nSennheiser G3 series\n G3 bodypack transmitter\nautonomy: ?h (2x AA)">
<polygon fill="none" stroke="black" points="221,-850.5 65,-850.5 65,-767.5 221,-767.5 221,-850.5"/>
<text text-anchor="middle" x="143" y="-835.3" font-family="Times,serif" font-size="14.00">speaker microphone</text>
<text text-anchor="middle" x="143" y="-820.3" font-family="Times,serif" font-size="14.00">ULB provided</text>
<text text-anchor="middle" x="143" y="-805.3" font-family="Times,serif" font-size="14.00">Sennheiser G3 series</text>
<text text-anchor="middle" x="143" y="-790.3" font-family="Times,serif" font-size="14.00"> G3 bodypack transmitter</text>
<text text-anchor="middle" x="143" y="-775.3" font-family="Times,serif" font-size="14.00">autonomy: ?h (2x AA)</text>
</a>
</g>
</g>
<!-- speaker_microphone_receiver_audio_out -->
<g id="node4" class="node"><title>speaker_microphone_receiver_audio_out</title>
<polygon fill="none" stroke="black" points="269.5,-620.5 16.5,-620.5 16.5,-582.5 269.5,-582.5 269.5,-620.5"/>
<text text-anchor="middle" x="143" y="-605.3" font-family="Times,serif" font-size="14.00">audio out</text>
<text text-anchor="middle" x="143" y="-590.3" font-family="Times,serif" font-size="14.00">3.5mm trs ?unbalanced ?mono female port</text>
</g>
<!-- speaker_microphone&#45;&gt;speaker_microphone_receiver_audio_out -->
<g id="edge1" class="edge"><title>speaker_microphone&#45;&gt;speaker_microphone_receiver_audio_out</title>
<path fill="none" stroke="black" d="M143,-767.4C143,-758.069 143,-747.644 143,-736.691"/>
<polygon fill="black" stroke="black" points="146.5,-736.5 143,-726.5 139.5,-736.5 146.5,-736.5"/>
<text text-anchor="middle" x="220" y="-738.3" font-family="Times,serif" font-size="14.00">+&#45;600 MHz analog wireless</text>
</g>
<!-- audience_microphone_1 -->
<g id="node2" class="node"><title>audience_microphone_1</title>
<g id="a_node2"><a xlink:href="https://en-us.sennheiser.com/global-downloads/file/671/Set100PG3_US_INT.pdf" xlink:title="audience microphone\nULB provided\nSennheiser G3 series\nautonomy: ?h\nDC: ?xAA batteries">
<polygon fill="none" stroke="black" points="550,-850.5 416,-850.5 416,-767.5 550,-767.5 550,-850.5"/>
<text text-anchor="middle" x="483" y="-835.3" font-family="Times,serif" font-size="14.00">audience microphone</text>
<text text-anchor="middle" x="483" y="-820.3" font-family="Times,serif" font-size="14.00">ULB provided</text>
<text text-anchor="middle" x="483" y="-805.3" font-family="Times,serif" font-size="14.00">Sennheiser G3 series</text>
<text text-anchor="middle" x="483" y="-790.3" font-family="Times,serif" font-size="14.00">autonomy: ?h</text>
<text text-anchor="middle" x="483" y="-775.3" font-family="Times,serif" font-size="14.00">DC: ?xAA batteries</text>
</a>
</g>
</g>
<!-- audience_microphone_1_receiver_audio_out -->
<g id="node5" class="node"><title>audience_microphone_1_receiver_audio_out</title>
<polygon fill="none" stroke="black" points="609.5,-620.5 356.5,-620.5 356.5,-582.5 609.5,-582.5 609.5,-620.5"/>
<text text-anchor="middle" x="483" y="-605.3" font-family="Times,serif" font-size="14.00">audio out</text>
<text text-anchor="middle" x="483" y="-590.3" font-family="Times,serif" font-size="14.00">3.5mm trs ?unbalanced ?mono female port</text>
</g>
<!-- audience_microphone_1&#45;&gt;audience_microphone_1_receiver_audio_out -->
<g id="edge2" class="edge"><title>audience_microphone_1&#45;&gt;audience_microphone_1_receiver_audio_out</title>
<path fill="none" stroke="black" d="M483,-767.4C483,-758.069 483,-747.644 483,-736.691"/>
<polygon fill="black" stroke="black" points="486.5,-736.5 483,-726.5 479.5,-736.5 486.5,-736.5"/>
<text text-anchor="middle" x="560" y="-738.3" font-family="Times,serif" font-size="14.00">+&#45;600 MHz analog wireless</text>
</g>
<!-- audience_microphone_2 -->
<g id="node3" class="node"><title>audience_microphone_2</title>
<g id="a_node3"><a xlink:href="https://en-us.sennheiser.com/global-downloads/file/671/Set100PG3_US_INT.pdf" xlink:title="audience microphone\nULB provided\nSennheiser G3 series\nautonomy: ?h\nDC: ?xAA batteries">
<polygon fill="none" stroke="black" points="838,-850.5 704,-850.5 704,-767.5 838,-767.5 838,-850.5"/>
<text text-anchor="middle" x="771" y="-835.3" font-family="Times,serif" font-size="14.00">audience microphone</text>
<text text-anchor="middle" x="771" y="-820.3" font-family="Times,serif" font-size="14.00">ULB provided</text>
<text text-anchor="middle" x="771" y="-805.3" font-family="Times,serif" font-size="14.00">Sennheiser G3 series</text>
<text text-anchor="middle" x="771" y="-790.3" font-family="Times,serif" font-size="14.00">autonomy: ?h</text>
<text text-anchor="middle" x="771" y="-775.3" font-family="Times,serif" font-size="14.00">DC: ?xAA batteries</text>
</a>
</g>
</g>
<!-- audience_microphone_2_receiver_audio_out -->
<g id="node6" class="node"><title>audience_microphone_2_receiver_audio_out</title>
<polygon fill="none" stroke="black" points="897.5,-620.5 644.5,-620.5 644.5,-582.5 897.5,-582.5 897.5,-620.5"/>
<text text-anchor="middle" x="771" y="-605.3" font-family="Times,serif" font-size="14.00">audio out</text>
<text text-anchor="middle" x="771" y="-590.3" font-family="Times,serif" font-size="14.00">3.5mm trs ?unbalanced ?mono female port</text>
</g>
<!-- audience_microphone_2&#45;&gt;audience_microphone_2_receiver_audio_out -->
<g id="edge3" class="edge"><title>audience_microphone_2&#45;&gt;audience_microphone_2_receiver_audio_out</title>
<path fill="none" stroke="black" d="M771,-767.4C771,-758.069 771,-747.644 771,-736.691"/>
<polygon fill="black" stroke="black" points="774.5,-736.5 771,-726.5 767.5,-736.5 774.5,-736.5"/>
<text text-anchor="middle" x="848" y="-738.3" font-family="Times,serif" font-size="14.00">+&#45;600 MHz analog wireless</text>
</g>
<!-- mix_panel_mic_1_in -->
<g id="node23" class="node"><title>mix_panel_mic_1_in</title>
<polygon fill="none" stroke="black" points="211.5,-480.5 74.5,-480.5 74.5,-427.5 211.5,-427.5 211.5,-480.5"/>
<text text-anchor="middle" x="143" y="-465.3" font-family="Times,serif" font-size="14.00">mic 1 in</text>
<text text-anchor="middle" x="143" y="-450.3" font-family="Times,serif" font-size="14.00">XLR female port</text>
<text text-anchor="middle" x="143" y="-435.3" font-family="Times,serif" font-size="14.00">+48V phantom power</text>
</g>
<!-- speaker_microphone_receiver_audio_out&#45;&gt;mix_panel_mic_1_in -->
<g id="edge4" class="edge"><title>speaker_microphone_receiver_audio_out&#45;&gt;mix_panel_mic_1_in</title>
<path fill="none" stroke="black" d="M143,-582.367C143,-559.57 143,-519.912 143,-490.89"/>
<polygon fill="black" stroke="black" points="146.5,-490.73 143,-480.73 139.5,-490.73 146.5,-490.73"/>
<text text-anchor="middle" x="275.5" y="-545.8" font-family="Times,serif" font-size="14.00">3.5mm trs mono unbalanced male to XLR male</text>
</g>
<!-- mix_panel_mic_2_in -->
<g id="node24" class="node"><title>mix_panel_mic_2_in</title>
<polygon fill="none" stroke="black" points="684.5,-480.5 547.5,-480.5 547.5,-427.5 684.5,-427.5 684.5,-480.5"/>
<text text-anchor="middle" x="616" y="-465.3" font-family="Times,serif" font-size="14.00">mic 2 in</text>
<text text-anchor="middle" x="616" y="-450.3" font-family="Times,serif" font-size="14.00">XLR female port</text>
<text text-anchor="middle" x="616" y="-435.3" font-family="Times,serif" font-size="14.00">+48V phantom power</text>
</g>
<!-- audience_microphone_1_receiver_audio_out&#45;&gt;mix_panel_mic_2_in -->
<g id="edge5" class="edge"><title>audience_microphone_1_receiver_audio_out&#45;&gt;mix_panel_mic_2_in</title>
<path fill="none" stroke="black" d="M483.373,-582.225C484.686,-567.305 488.969,-546.751 502,-534.5 513.941,-523.273 523.464,-534.073 538,-526.5 556.282,-516.975 573.524,-502.061 587.125,-488.314"/>
<polygon fill="black" stroke="black" points="589.898,-490.48 594.29,-480.838 584.844,-485.636 589.898,-490.48"/>
<text text-anchor="middle" x="634.5" y="-545.8" font-family="Times,serif" font-size="14.00">3.5mm trs mono unbalanced male to XLR male</text>
</g>
<!-- mix_panel_mic_3_in -->
<g id="node25" class="node"><title>mix_panel_mic_3_in</title>
<polygon fill="none" stroke="black" points="839.5,-480.5 702.5,-480.5 702.5,-427.5 839.5,-427.5 839.5,-480.5"/>
<text text-anchor="middle" x="771" y="-465.3" font-family="Times,serif" font-size="14.00">mic 3 in</text>
<text text-anchor="middle" x="771" y="-450.3" font-family="Times,serif" font-size="14.00">XLR female port</text>
<text text-anchor="middle" x="771" y="-435.3" font-family="Times,serif" font-size="14.00">+48V phantom power</text>
</g>
<!-- audience_microphone_2_receiver_audio_out&#45;&gt;mix_panel_mic_3_in -->
<g id="edge6" class="edge"><title>audience_microphone_2_receiver_audio_out&#45;&gt;mix_panel_mic_3_in</title>
<path fill="none" stroke="black" d="M771,-582.367C771,-559.57 771,-519.912 771,-490.89"/>
<polygon fill="black" stroke="black" points="774.5,-490.73 771,-480.73 767.5,-490.73 774.5,-490.73"/>
<text text-anchor="middle" x="903.5" y="-545.8" font-family="Times,serif" font-size="14.00">3.5mm trs mono unbalanced male to XLR male</text>
</g>
<!-- hdmi_vga_adapter -->
<g id="node7" class="node"><title>hdmi_vga_adapter</title>
<polygon fill="none" stroke="black" stroke-dasharray="1,5" points="1888.5,-472 1719.5,-472 1719.5,-436 1888.5,-436 1888.5,-472"/>
<text text-anchor="middle" x="1804" y="-450.3" font-family="Times,serif" font-size="14.00">optional hdmi&#45;&gt;vga adapter</text>
</g>
<!-- speaker_box_vga_in -->
<g id="node17" class="node"><title>speaker_box_vga_in</title>
<polygon fill="lightgrey" stroke="black" points="1708.5,-325.5 1615.5,-325.5 1615.5,-272.5 1708.5,-272.5 1708.5,-325.5"/>
<text text-anchor="middle" x="1662" y="-310.3" font-family="Times,serif" font-size="14.00">VGA in</text>
<text text-anchor="middle" x="1662" y="-295.3" font-family="Times,serif" font-size="14.00">left VGA port</text>
<text text-anchor="middle" x="1662" y="-280.3" font-family="Times,serif" font-size="14.00">female</text>
</g>
<!-- hdmi_vga_adapter&#45;&gt;speaker_box_vga_in -->
<g id="edge12" class="edge"><title>hdmi_vga_adapter&#45;&gt;speaker_box_vga_in</title>
<path fill="none" stroke="black" stroke-dasharray="1,5" d="M1755.57,-435.973C1741.56,-429.33 1727.08,-420.592 1716,-409.5 1704.78,-398.266 1688.19,-362.672 1676.37,-335.081"/>
<polygon fill="black" stroke="black" points="1679.52,-333.553 1672.4,-325.709 1673.08,-336.282 1679.52,-333.553"/>
<text text-anchor="middle" x="1773" y="-390.8" font-family="Times,serif" font-size="14.00">vga cable male/male</text>
</g>
<!-- speaker_box_audio_in -->
<g id="node19" class="node"><title>speaker_box_audio_in</title>
<polygon fill="lightgrey" stroke="black" points="1968,-325.5 1846,-325.5 1846,-272.5 1968,-272.5 1968,-325.5"/>
<text text-anchor="middle" x="1907" y="-310.3" font-family="Times,serif" font-size="14.00">audio in</text>
<text text-anchor="middle" x="1907" y="-295.3" font-family="Times,serif" font-size="14.00">left audio port</text>
<text text-anchor="middle" x="1907" y="-280.3" font-family="Times,serif" font-size="14.00">6.35mm trs female</text>
</g>
<!-- hdmi_vga_adapter&#45;&gt;speaker_box_audio_in -->
<g id="edge13" class="edge"><title>hdmi_vga_adapter&#45;&gt;speaker_box_audio_in</title>
<path fill="none" stroke="black" stroke-dasharray="1,5" d="M1815.62,-435.746C1832.16,-411.173 1862.85,-365.584 1884.07,-334.06"/>
<polygon fill="black" stroke="black" points="1887.1,-335.821 1889.79,-325.571 1881.3,-331.912 1887.1,-335.821"/>
<text text-anchor="middle" x="1950" y="-398.3" font-family="Times,serif" font-size="14.00">3.5 &#45;&gt; 6.35mm trs male/male cable</text>
<text text-anchor="middle" x="1950" y="-383.3" font-family="Times,serif" font-size="14.00">unbalanced stereo</text>
</g>
<!-- camera_xlr_in_1 -->
<g id="node8" class="node"><title>camera_xlr_in_1</title>
<polygon fill="none" stroke="black" points="250.5,-325.5 121.5,-325.5 121.5,-272.5 250.5,-272.5 250.5,-325.5"/>
<text text-anchor="middle" x="186" y="-310.3" font-family="Times,serif" font-size="14.00">audio in CH1</text>
<text text-anchor="middle" x="186" y="-295.3" font-family="Times,serif" font-size="14.00">XLR female port</text>
<text text-anchor="middle" x="186" y="-280.3" font-family="Times,serif" font-size="14.00">48V phantom power</text>
</g>
<!-- camera_xlr_in_2 -->
<g id="node9" class="node"><title>camera_xlr_in_2</title>
<polygon fill="none" stroke="black" points="894.5,-325.5 765.5,-325.5 765.5,-272.5 894.5,-272.5 894.5,-325.5"/>
<text text-anchor="middle" x="830" y="-310.3" font-family="Times,serif" font-size="14.00">audio in CH2</text>
<text text-anchor="middle" x="830" y="-295.3" font-family="Times,serif" font-size="14.00">XLR female port</text>
<text text-anchor="middle" x="830" y="-280.3" font-family="Times,serif" font-size="14.00">48V phantom power</text>
</g>
<!-- camera_hdmi_out -->
<g id="node10" class="node"><title>camera_hdmi_out</title>
<polygon fill="none" stroke="black" points="747,-318 583,-318 583,-280 747,-280 747,-318"/>
<text text-anchor="middle" x="665" y="-302.8" font-family="Times,serif" font-size="14.00">HDMI out</text>
<text text-anchor="middle" x="665" y="-287.8" font-family="Times,serif" font-size="14.00">HDMI A (full size) female</text>
</g>
<!-- cam_box_hdmi_in -->
<g id="node14" class="node"><title>cam_box_hdmi_in</title>
<polygon fill="lightgrey" stroke="black" points="1038,-170.5 874,-170.5 874,-132.5 1038,-132.5 1038,-170.5"/>
<text text-anchor="middle" x="956" y="-155.3" font-family="Times,serif" font-size="14.00">HDMI in</text>
<text text-anchor="middle" x="956" y="-140.3" font-family="Times,serif" font-size="14.00">HDMI A (full size) female</text>
</g>
<!-- camera_hdmi_out&#45;&gt;cam_box_hdmi_in -->
<g id="edge14" class="edge"><title>camera_hdmi_out&#45;&gt;cam_box_hdmi_in</title>
<path fill="none" stroke="black" d="M701.267,-279.867C754.234,-253.383 852.713,-204.143 910.48,-175.26"/>
<polygon fill="black" stroke="black" points="912.355,-178.236 919.734,-170.633 909.225,-171.975 912.355,-178.236"/>
<text text-anchor="middle" x="890.5" y="-243.3" font-family="Times,serif" font-size="14.00">HDMI cable</text>
<text text-anchor="middle" x="890.5" y="-228.3" font-family="Times,serif" font-size="14.00">HDMI A (full size)</text>
<text text-anchor="middle" x="890.5" y="-213.3" font-family="Times,serif" font-size="14.00">male/male</text>
</g>
<!-- camera_internal_mic -->
<g id="node11" class="node"><title>camera_internal_mic</title>
<polygon fill="none" stroke="black" points="564.5,-318 437.5,-318 437.5,-280 564.5,-280 564.5,-318"/>
<text text-anchor="middle" x="501" y="-302.8" font-family="Times,serif" font-size="14.00">audio in CH2</text>
<text text-anchor="middle" x="501" y="-287.8" font-family="Times,serif" font-size="14.00">internal microphone</text>
</g>
<!-- camera_audio_monitor -->
<g id="node12" class="node"><title>camera_audio_monitor</title>
<polygon fill="none" stroke="black" points="419.5,-318 268.5,-318 268.5,-280 419.5,-280 419.5,-318"/>
<text text-anchor="middle" x="344" y="-302.8" font-family="Times,serif" font-size="14.00">audio monitoring port</text>
<text text-anchor="middle" x="344" y="-287.8" font-family="Times,serif" font-size="14.00">3.5mm trs stereo female</text>
</g>
<!-- headphones -->
<g id="node32" class="node"><title>headphones</title>
<g id="a_node32"><a xlink:href="https://en-us.sennheiser.com/over-ear-headphones-hd-201" xlink:title="Sennheiser HD201 headphones\n3.5mm trs stereo male\nrental budgetcam">
<polygon fill="none" stroke="black" points="437.5,-178 250.5,-178 250.5,-125 437.5,-125 437.5,-178"/>
<text text-anchor="middle" x="344" y="-162.8" font-family="Times,serif" font-size="14.00">Sennheiser HD201 headphones</text>
<text text-anchor="middle" x="344" y="-147.8" font-family="Times,serif" font-size="14.00">3.5mm trs stereo male</text>
<text text-anchor="middle" x="344" y="-132.8" font-family="Times,serif" font-size="14.00">rental budgetcam</text>
</a>
</g>
</g>
<!-- camera_audio_monitor&#45;&gt;headphones -->
<g id="edge16" class="edge"><title>camera_audio_monitor&#45;&gt;headphones</title>
<path fill="none" stroke="black" d="M344,-279.867C344,-257.07 344,-217.412 344,-188.39"/>
<polygon fill="black" stroke="black" points="347.5,-188.23 344,-178.23 340.5,-188.23 347.5,-188.23"/>
</g>
<!-- camera_ac_in -->
<g id="node13" class="node"><title>camera_ac_in</title>
<polygon fill="none" stroke="black" points="1023,-317 913,-317 913,-281 1023,-281 1023,-317"/>
<text text-anchor="middle" x="968" y="-295.3" font-family="Times,serif" font-size="14.00">camera AC input</text>
</g>
<!-- cam_box_switch -->
<g id="node15" class="node"><title>cam_box_switch</title>
<polygon fill="lightgrey" stroke="black" points="1260,-169.5 1128,-169.5 1128,-133.5 1260,-133.5 1260,-169.5"/>
<text text-anchor="middle" x="1194" y="-147.8" font-family="Times,serif" font-size="14.00">3x Gbit dumb switch</text>
</g>
<!-- video_vlan -->
<g id="node33" class="node"><title>video_vlan</title>
<polygon fill="none" stroke="black" stroke-dasharray="1,5" points="1338.5,-74 1205.5,-74 1205.5,-38 1338.5,-38 1338.5,-74"/>
<text text-anchor="middle" x="1272" y="-52.3" font-family="Times,serif" font-size="14.00">FOSDEM video vlan</text>
</g>
<!-- cam_box_switch&#45;&gt;video_vlan -->
<g id="edge18" class="edge"><title>cam_box_switch&#45;&gt;video_vlan</title>
<path fill="none" stroke="black" d="M1212.04,-125.078C1219.75,-114.601 1229.03,-102.485 1238,-92 1240.99,-88.5024 1244.25,-84.9125 1247.52,-81.4272"/>
<polygon fill="black" stroke="black" points="1209.02,-123.274 1205.97,-133.421 1214.68,-127.391 1209.02,-123.274"/>
<polygon fill="black" stroke="black" points="1250.21,-83.6793 1254.61,-74.0406 1245.16,-78.8327 1250.21,-83.6793"/>
<text text-anchor="middle" x="1276" y="-95.8" font-family="Times,serif" font-size="14.00">ethernet cable</text>
</g>
<!-- cam_box_ac_in -->
<g id="node16" class="node"><title>cam_box_ac_in</title>
<polygon fill="lightgrey" stroke="black" points="1110,-169.5 1056,-169.5 1056,-133.5 1110,-133.5 1110,-169.5"/>
<text text-anchor="middle" x="1083" y="-147.8" font-family="Times,serif" font-size="14.00">AC in</text>
</g>
<!-- speaker_box_vga_out -->
<g id="node18" class="node"><title>speaker_box_vga_out</title>
<polygon fill="lightgrey" stroke="black" points="1827.5,-325.5 1726.5,-325.5 1726.5,-272.5 1827.5,-272.5 1827.5,-325.5"/>
<text text-anchor="middle" x="1777" y="-310.3" font-family="Times,serif" font-size="14.00">VGA out</text>
<text text-anchor="middle" x="1777" y="-295.3" font-family="Times,serif" font-size="14.00">right VGA port</text>
<text text-anchor="middle" x="1777" y="-280.3" font-family="Times,serif" font-size="14.00">female</text>
</g>
<!-- room_projector -->
<g id="node31" class="node"><title>room_projector</title>
<polygon fill="none" stroke="black" points="1850,-178 1704,-178 1704,-125 1850,-125 1850,-178"/>
<text text-anchor="middle" x="1777" y="-162.8" font-family="Times,serif" font-size="14.00">room projector VGA in</text>
<text text-anchor="middle" x="1777" y="-147.8" font-family="Times,serif" font-size="14.00">VGA port</text>
<text text-anchor="middle" x="1777" y="-132.8" font-family="Times,serif" font-size="14.00">female</text>
</g>
<!-- speaker_box_vga_out&#45;&gt;room_projector -->
<g id="edge15" class="edge"><title>speaker_box_vga_out&#45;&gt;room_projector</title>
<path fill="none" stroke="black" d="M1777,-272.322C1777,-249.091 1777,-214.635 1777,-188.628"/>
<polygon fill="black" stroke="black" points="1780.5,-188.41 1777,-178.41 1773.5,-188.41 1780.5,-188.41"/>
<text text-anchor="middle" x="1808" y="-235.8" font-family="Times,serif" font-size="14.00">VGA cable</text>
<text text-anchor="middle" x="1808" y="-220.8" font-family="Times,serif" font-size="14.00">male/male</text>
</g>
<!-- speaker_box_audio_out -->
<g id="node20" class="node"><title>speaker_box_audio_out</title>
<polygon fill="lightgrey" stroke="black" points="1597,-325.5 1475,-325.5 1475,-272.5 1597,-272.5 1597,-325.5"/>
<text text-anchor="middle" x="1536" y="-310.3" font-family="Times,serif" font-size="14.00">audio out</text>
<text text-anchor="middle" x="1536" y="-295.3" font-family="Times,serif" font-size="14.00">right audio port</text>
<text text-anchor="middle" x="1536" y="-280.3" font-family="Times,serif" font-size="14.00">6.35mm trs female</text>
</g>
<!-- speaker_box_switch -->
<g id="node21" class="node"><title>speaker_box_switch</title>
<polygon fill="lightgrey" stroke="black" points="1457,-317 1325,-317 1325,-281 1457,-281 1457,-317"/>
<text text-anchor="middle" x="1391" y="-295.3" font-family="Times,serif" font-size="14.00">3x Gbit dumb switch</text>
</g>
<!-- speaker_box_switch&#45;&gt;cam_box_switch -->
<g id="edge19" class="edge"><title>speaker_box_switch&#45;&gt;cam_box_switch</title>
<path fill="none" stroke="black" d="M1348.82,-276.579C1338.32,-271.971 1326.93,-267.57 1316,-264.5 1282.35,-255.05 1265.92,-275.527 1238,-254.5 1214.35,-236.691 1203.25,-203.569 1198.14,-179.899"/>
<polygon fill="black" stroke="black" points="1347.63,-279.88 1358.18,-280.835 1350.53,-273.509 1347.63,-279.88"/>
<polygon fill="black" stroke="black" points="1201.52,-178.937 1196.19,-169.778 1194.65,-180.259 1201.52,-178.937"/>
<text text-anchor="middle" x="1276" y="-228.3" font-family="Times,serif" font-size="14.00">ethernet cable</text>
</g>
<!-- speaker_box_switch&#45;&gt;video_vlan -->
<g id="edge17" class="edge"><title>speaker_box_switch&#45;&gt;video_vlan</title>
<path fill="none" stroke="black" d="M1385.59,-270.935C1376.3,-229.421 1354.33,-148.869 1314,-92 1311.33,-88.2402 1308.17,-84.6474 1304.79,-81.2935"/>
<polygon fill="black" stroke="black" points="1382.2,-271.811 1387.73,-280.847 1389.04,-270.334 1382.2,-271.811"/>
<polygon fill="black" stroke="black" points="1306.91,-78.4942 1297.16,-74.3608 1302.2,-83.6755 1306.91,-78.4942"/>
<text text-anchor="middle" x="1403" y="-147.8" font-family="Times,serif" font-size="14.00">ethernet cable</text>
</g>
<!-- speaker_box_ac_in -->
<g id="node22" class="node"><title>speaker_box_ac_in</title>
<polygon fill="lightgrey" stroke="black" points="1307,-317 1253,-317 1253,-281 1307,-281 1307,-317"/>
<text text-anchor="middle" x="1280" y="-295.3" font-family="Times,serif" font-size="14.00">AC in</text>
</g>
<!-- mix_panel_out_1 -->
<g id="node26" class="node"><title>mix_panel_out_1</title>
<polygon fill="none" stroke="black" points="366.5,-480.5 229.5,-480.5 229.5,-427.5 366.5,-427.5 366.5,-480.5"/>
<text text-anchor="middle" x="298" y="-465.3" font-family="Times,serif" font-size="14.00">mix panel out left</text>
<text text-anchor="middle" x="298" y="-450.3" font-family="Times,serif" font-size="14.00">XLR male port</text>
<text text-anchor="middle" x="298" y="-435.3" font-family="Times,serif" font-size="14.00">balanced left or mono</text>
</g>
<!-- mix_panel_out_1&#45;&gt;camera_xlr_in_1 -->
<g id="edge7" class="edge"><title>mix_panel_out_1&#45;&gt;camera_xlr_in_1</title>
<path fill="none" stroke="black" d="M279.254,-427.391C260.517,-401.796 231.599,-362.291 210.935,-334.063"/>
<polygon fill="black" stroke="black" points="213.538,-331.694 204.807,-325.692 207.89,-335.829 213.538,-331.694"/>
<text text-anchor="middle" x="299.5" y="-398.3" font-family="Times,serif" font-size="14.00">xlr cable</text>
<text text-anchor="middle" x="299.5" y="-383.3" font-family="Times,serif" font-size="14.00">female/male</text>
</g>
<!-- mix_panel_out_2 -->
<g id="node27" class="node"><title>mix_panel_out_2</title>
<polygon fill="none" stroke="black" points="529,-480.5 385,-480.5 385,-427.5 529,-427.5 529,-480.5"/>
<text text-anchor="middle" x="457" y="-465.3" font-family="Times,serif" font-size="14.00">mix panel out right</text>
<text text-anchor="middle" x="457" y="-450.3" font-family="Times,serif" font-size="14.00">XLR male port</text>
<text text-anchor="middle" x="457" y="-435.3" font-family="Times,serif" font-size="14.00">balanced right or mono</text>
</g>
<!-- mix_panel_out_2&#45;&gt;camera_xlr_in_2 -->
<g id="edge8" class="edge"><title>mix_panel_out_2&#45;&gt;camera_xlr_in_2</title>
<path fill="none" stroke="black" d="M515.393,-427.434C522.927,-424.556 530.596,-421.826 538,-419.5 632.647,-389.761 668.58,-418.407 756,-371.5 773.798,-361.95 790.309,-346.889 803.198,-333.048"/>
<polygon fill="black" stroke="black" points="805.88,-335.3 809.972,-325.527 800.679,-330.616 805.88,-335.3"/>
<text text-anchor="middle" x="775.5" y="-398.3" font-family="Times,serif" font-size="14.00">xlr cable</text>
<text text-anchor="middle" x="775.5" y="-383.3" font-family="Times,serif" font-size="14.00">female/male</text>
</g>
<!-- mix_panel_ac_in -->
<g id="node28" class="node"><title>mix_panel_ac_in</title>
<polygon fill="none" stroke="black" points="912,-472 858,-472 858,-436 912,-436 912,-472"/>
<text text-anchor="middle" x="885" y="-450.3" font-family="Times,serif" font-size="14.00">AC in</text>
</g>
<!-- cam_power_strip -->
<g id="node29" class="node"><title>cam_power_strip</title>
<polygon fill="none" stroke="black" points="1136,-620.5 966,-620.5 966,-582.5 1136,-582.5 1136,-620.5"/>
<text text-anchor="middle" x="1051" y="-605.3" font-family="Times,serif" font-size="14.00">camera side power strip</text>
<text text-anchor="middle" x="1051" y="-590.3" font-family="Times,serif" font-size="14.00">&gt;=4 CEE 7/3 or 7/5 sockets</text>
</g>
<!-- cam_power_strip&#45;&gt;camera_ac_in -->
<g id="edge20" class="edge"><title>cam_power_strip&#45;&gt;camera_ac_in</title>
<path fill="none" stroke="black" d="M1051,-548.5C1027.19,-484.805 1064.84,-462.077 1051,-395.5"/>
<path fill="none" stroke="black" d="M1051,-393.5C1049.34,-384.804 1016.1,-349.227 992.193,-324.556"/>
<polygon fill="black" stroke="black" points="994.603,-322.015 985.119,-317.292 989.588,-326.898 994.603,-322.015"/>
</g>
<!-- cam_power_strip&#45;&gt;cam_box_ac_in -->
<g id="edge21" class="edge"><title>cam_power_strip&#45;&gt;cam_box_ac_in</title>
<path fill="none" stroke="black" d="M1051,-393.5C1036.31,-316.346 1059.88,-224.021 1073.86,-179.346"/>
<polygon fill="black" stroke="black" points="1077.28,-180.143 1077.01,-169.552 1070.61,-178 1077.28,-180.143"/>
</g>
<!-- cam_power_strip&#45;&gt;mix_panel_ac_in -->
<g id="edge22" class="edge"><title>cam_power_strip&#45;&gt;mix_panel_ac_in</title>
<path fill="none" stroke="black" d="M1054.01,-582.37C1054.89,-572.628 1054.77,-560.582 1051,-550.5"/>
<path fill="none" stroke="black" d="M1051,-548.5C1040.89,-521.455 967.367,-487.813 921.624,-469.15"/>
<polygon fill="black" stroke="black" points="922.901,-465.891 912.317,-465.402 920.286,-472.384 922.901,-465.891"/>
</g>
<!-- speaker_power_strip -->
<g id="node30" class="node"><title>speaker_power_strip</title>
<polygon fill="none" stroke="black" points="1307,-473 1137,-473 1137,-435 1307,-435 1307,-473"/>
<text text-anchor="middle" x="1222" y="-457.8" font-family="Times,serif" font-size="14.00">speaker side power strip</text>
<text text-anchor="middle" x="1222" y="-442.8" font-family="Times,serif" font-size="14.00">&gt;=4 CEE 7/3 or 7/5 sockets</text>
</g>
<!-- speaker_power_strip&#45;&gt;speaker_box_ac_in -->
<g id="edge24" class="edge"><title>speaker_power_strip&#45;&gt;speaker_box_ac_in</title>
<path fill="none" stroke="black" d="M1222,-393.5C1221.75,-379.674 1235.9,-382.706 1244,-371.5 1254.02,-357.633 1262.73,-340.567 1269.07,-326.586"/>
<polygon fill="black" stroke="black" points="1272.45,-327.605 1273.26,-317.041 1266.04,-324.795 1272.45,-327.605"/>
</g>
<!-- speaker_laptop_power_in -->
<g id="node37" class="node"><title>speaker_laptop_power_in</title>
<polygon fill="none" stroke="black" points="1235,-317 1079,-317 1079,-281 1235,-281 1235,-317"/>
<text text-anchor="middle" x="1157" y="-295.3" font-family="Times,serif" font-size="14.00">speaker_laptop_power_in</text>
</g>
<!-- speaker_power_strip&#45;&gt;speaker_laptop_power_in -->
<g id="edge23" class="edge"><title>speaker_power_strip&#45;&gt;speaker_laptop_power_in</title>
<path fill="none" stroke="black" d="M1222.17,-434.87C1222.23,-423.551 1222.24,-408.675 1222,-395.5"/>
<path fill="none" stroke="black" d="M1222,-393.5C1221.5,-366.346 1202.82,-341.41 1185.62,-324.131"/>
<polygon fill="black" stroke="black" points="1188.03,-321.6 1178.39,-317.211 1183.19,-326.655 1188.03,-321.6"/>
</g>
<!-- speaker_laptop_vga_out -->
<g id="node34" class="node"><title>speaker_laptop_vga_out</title>
<polygon fill="none" stroke="black" points="1653.5,-472 1504.5,-472 1504.5,-436 1653.5,-436 1653.5,-472"/>
<text text-anchor="middle" x="1579" y="-450.3" font-family="Times,serif" font-size="14.00">speaker_laptop_vga_out</text>
</g>
<!-- speaker_laptop_vga_out&#45;&gt;speaker_box_vga_in -->
<g id="edge9" class="edge"><title>speaker_laptop_vga_out&#45;&gt;speaker_box_vga_in</title>
<path fill="none" stroke="black" stroke-dasharray="1,5" d="M1573.94,-435.72C1570.33,-419.547 1567.99,-395.535 1580,-379.5 1587.25,-369.824 1596.04,-378.351 1606,-371.5 1620.07,-361.826 1632.25,-347.543 1641.63,-334.282"/>
<polygon fill="black" stroke="black" points="1644.68,-336.019 1647.38,-325.774 1638.88,-332.099 1644.68,-336.019"/>
<text text-anchor="middle" x="1637" y="-390.8" font-family="Times,serif" font-size="14.00">vga cable male/male</text>
</g>
<!-- speaker_laptop_audio_out -->
<g id="node35" class="node"><title>speaker_laptop_audio_out</title>
<polygon fill="none" stroke="black" points="2151.5,-472 1992.5,-472 1992.5,-436 2151.5,-436 2151.5,-472"/>
<text text-anchor="middle" x="2072" y="-450.3" font-family="Times,serif" font-size="14.00">speaker_laptop_audio_out</text>
</g>
<!-- speaker_laptop_audio_out&#45;&gt;speaker_box_audio_in -->
<g id="edge10" class="edge"><title>speaker_laptop_audio_out&#45;&gt;speaker_box_audio_in</title>
<path fill="none" stroke="black" stroke-dasharray="1,5" d="M2070.55,-435.838C2068.41,-419.75 2063.1,-395.798 2050,-379.5 2031.13,-356.033 2003.37,-338.369 1977.32,-325.726"/>
<polygon fill="black" stroke="black" points="1978.73,-322.524 1968.19,-321.463 1975.77,-328.866 1978.73,-322.524"/>
<text text-anchor="middle" x="2173" y="-398.3" font-family="Times,serif" font-size="14.00">3.5mm male &#45;&gt; 6.35mm trs male cable</text>
<text text-anchor="middle" x="2173" y="-383.3" font-family="Times,serif" font-size="14.00">unbalanced stereo</text>
</g>
<!-- speaker_laptop_hdmi_out -->
<g id="node36" class="node"><title>speaker_laptop_hdmi_out</title>
<polygon fill="none" stroke="black" points="1883,-619.5 1725,-619.5 1725,-583.5 1883,-583.5 1883,-619.5"/>
<text text-anchor="middle" x="1804" y="-597.8" font-family="Times,serif" font-size="14.00">speaker_laptop_hdmi_out</text>
</g>
<!-- speaker_laptop_hdmi_out&#45;&gt;hdmi_vga_adapter -->
<g id="edge11" class="edge"><title>speaker_laptop_hdmi_out&#45;&gt;hdmi_vga_adapter</title>
<path fill="none" stroke="black" stroke-dasharray="1,5" d="M1804,-583.238C1804,-558.298 1804,-511.938 1804,-482.322"/>
<polygon fill="black" stroke="black" points="1807.5,-482.24 1804,-472.24 1800.5,-482.24 1807.5,-482.24"/>
<text text-anchor="middle" x="1839" y="-553.3" font-family="Times,serif" font-size="14.00">HDMI cable</text>
<text text-anchor="middle" x="1839" y="-538.3" font-family="Times,serif" font-size="14.00">male/male</text>
</g>
</g>
</svg>
