<?xml version="1.0" encoding="UTF-8" standalone="no"?>
<!DOCTYPE svg PUBLIC "-//W3C//DTD SVG 1.1//EN"
 "http://www.w3.org/Graphics/SVG/1.1/DTD/svg11.dtd">
<!-- Generated by graphviz version 2.42.4 (0)
 -->
<!-- Title: G Pages: 1 -->
<svg width="1836pt" height="824pt"
 viewBox="0.00 0.00 1836.00 824.00" xmlns="http://www.w3.org/2000/svg" xmlns:xlink="http://www.w3.org/1999/xlink">
<g id="graph0" class="graph" transform="scale(1 1) rotate(0) translate(4 820)">
<title>G</title>
<polygon fill="white" stroke="transparent" points="-4,4 -4,-820 1832,-820 1832,4 -4,4"/>
<text text-anchor="middle" x="914" y="-22.8" font-family="Times,serif" font-size="14.00">FOSDEM 2027 large rooms video cabling setup:</text>
<text text-anchor="middle" x="914" y="-7.8" font-family="Times,serif" font-size="14.00">h1301, h1302, h1308, h1309, h2215, ua2114, ua2118, ua2220, ub2252a, ud2120, ud2208, ud2218a</text>
<g id="clust1" class="cluster">
<title>cluster_mic_receivers</title>
<polygon fill="none" stroke="black" points="659,-516 659,-692 1183,-692 1183,-516 659,-516"/>
<text text-anchor="middle" x="921" y="-676.8" font-family="Times,serif" font-size="14.00">sennheiser ekp avx receivers</text>
<text text-anchor="middle" x="921" y="-661.8" font-family="Times,serif" font-size="14.00">DC autonomy: &gt;4h (BA20 battery)</text>
<text text-anchor="middle" x="921" y="-646.8" font-family="Times,serif" font-size="14.00">430 mAh</text>
<text text-anchor="middle" x="921" y="-631.8" font-family="Times,serif" font-size="14.00">AC autonomy: ∞</text>
<text text-anchor="middle" x="921" y="-616.8" font-family="Times,serif" font-size="14.00">phantom auto power on/off</text>
</g>
<g id="clust2" class="cluster">
<title>cluster_speaker_microphone_receiver</title>
<g id="a_clust2"><a xlink:href="https://en-us.sennheiser.com/global-downloads/file/6524/AVX_Manual_06_2015_EN.pdf" xlink:title="speaker microphone receiver">
<polygon fill="none" stroke="black" points="667,-524 667,-601 917,-601 917,-524 667,-524"/>
<text text-anchor="middle" x="792" y="-585.8" font-family="Times,serif" font-size="14.00">speaker microphone receiver</text>
</a>
</g>
</g>
<g id="clust3" class="cluster">
<title>cluster_audience_microphone_receiver</title>
<g id="a_clust3"><a xlink:href="https://en-us.sennheiser.com/global-downloads/file/6524/AVX_Manual_06_2015_EN.pdf" xlink:title="audience microphone receiver">
<polygon fill="none" stroke="black" points="925,-524 925,-601 1175,-601 1175,-524 925,-524"/>
<text text-anchor="middle" x="1050" y="-585.8" font-family="Times,serif" font-size="14.00">audience microphone receiver</text>
</a>
</g>
</g>
<g id="clust4" class="cluster">
<title>cluster_camera</title>
<g id="a_clust4"><a xlink:href="https://pro.sony.com/bbsccms/assets/files/micro/nxcam/latest/Sony_HXR-NX100.pdf" xlink:title="camera\nSony HXR&#45;NX100">
<polygon fill="none" stroke="black" points="8,-186 8,-293 781,-293 781,-186 8,-186"/>
<text text-anchor="middle" x="394.5" y="-277.8" font-family="Times,serif" font-size="14.00">camera</text>
<text text-anchor="middle" x="394.5" y="-262.8" font-family="Times,serif" font-size="14.00">Sony HXR&#45;NX100</text>
</a>
</g>
</g>
<g id="clust7" class="cluster">
<title>cluster_cam_box</title>
<g id="a_clust7"><a xlink:href="https://github.com/FOSDEM/video" xlink:title="camera video box">
<polygon fill="none" stroke="lightgrey" points="397,-46 397,-123 995,-123 995,-46 397,-46"/>
<text text-anchor="middle" x="696" y="-107.8" font-family="Times,serif" font-size="14.00">camera video box</text>
</a>
</g>
</g>
<g id="clust9" class="cluster">
<title>cluster_speaker_box</title>
<g id="a_clust9"><a xlink:href="https://github.com/FOSDEM/video" xlink:title="speaker video box">
<polygon fill="none" stroke="lightgrey" points="392,-339 392,-470 1818,-470 1818,-339 392,-339"/>
<text text-anchor="middle" x="1105" y="-454.8" font-family="Times,serif" font-size="14.00">speaker video box</text>
</a>
</g>
</g>
<g id="clust10" class="cluster">
<title>cluster_mix_panel</title>
<g id="a_clust10"><a xlink:href="https://github.com/FOSDEM/video" xlink:title="audio mixer">
<polygon fill="none" stroke="lightgrey" points="752,-347 752,-439 1452,-439 1452,-347 752,-347"/>
<text text-anchor="middle" x="1102" y="-423.8" font-family="Times,serif" font-size="14.00">audio mixer</text>
</a>
</g>
</g>
<g id="clust11" class="cluster">
<title>cluster_ulb_hardware</title>
<polygon fill="none" stroke="black" points="821,-186 821,-278 1172,-278 1172,-186 821,-186"/>
<text text-anchor="middle" x="996.5" y="-262.8" font-family="Times,serif" font-size="14.00">ULB hardware</text>
</g>
<!-- cam_power_strip -->
<g id="node1" class="node">
<title>cam_power_strip</title>
<polygon fill="none" stroke="black" points="249,-400.5 79,-400.5 79,-362.5 249,-362.5 249,-400.5"/>
<text text-anchor="middle" x="164" y="-385.3" font-family="Times,serif" font-size="14.00">camera side power strip</text>
<text text-anchor="middle" x="164" y="-370.3" font-family="Times,serif" font-size="14.00">&gt;=3 CEE 7/3 or 7/5 sockets</text>
</g>
<!-- camera_ac_in -->
<g id="node12" class="node">
<title>camera_ac_in</title>
<polygon fill="none" stroke="black" points="126,-238.5 16,-238.5 16,-202.5 126,-202.5 126,-238.5"/>
<text text-anchor="middle" x="71" y="-216.8" font-family="Times,serif" font-size="14.00">camera AC input</text>
</g>
<!-- cam_power_strip&#45;&gt;camera_ac_in -->
<g id="edge15" class="edge">
<title>cam_power_strip&#45;&gt;camera_ac_in</title>
<path fill="none" stroke="black" d="M153.33,-362.26C136.83,-334.05 105.05,-279.72 86.17,-247.43"/>
<polygon fill="black" stroke="black" points="89.05,-245.43 80.98,-238.56 83.01,-248.96 89.05,-245.43"/>
</g>
<!-- cam_box_ac_in -->
<g id="node13" class="node">
<title>cam_box_ac_in</title>
<polygon fill="lightgrey" stroke="black" points="837,-91 765,-91 765,-55 837,-55 837,-91"/>
<text text-anchor="middle" x="801" y="-69.3" font-family="Times,serif" font-size="14.00">ac adapter</text>
</g>
<!-- cam_power_strip&#45;&gt;cam_box_ac_in -->
<g id="edge16" class="edge">
<title>cam_power_strip&#45;&gt;cam_box_ac_in</title>
<path fill="none" stroke="black" d="M243.63,-362.48C286.22,-353.67 339.7,-343.92 388,-339 399.03,-337.88 779.03,-338.7 787,-331 819.07,-300.02 809.64,-161.14 803.93,-101.43"/>
<polygon fill="black" stroke="black" points="807.39,-100.85 802.92,-91.25 800.43,-101.55 807.39,-100.85"/>
</g>
<!-- speaker_microphone -->
<g id="node2" class="node">
<title>speaker_microphone</title>
<g id="a_node2"><a xlink:href="https://en-us.sennheiser.com/global-downloads/file/6524/AVX_Manual_06_2015_EN.pdf" xlink:title="speaker microphone\nsennheiser avx me2\nesk avx bodypack transmitter\nautonomy: 15h (BA30 battery)/11h (2x AA)\n2030 mAh">
<polygon fill="none" stroke="black" points="978,-816 720,-816 720,-733 978,-733 978,-816"/>
<text text-anchor="middle" x="849" y="-800.8" font-family="Times,serif" font-size="14.00">speaker microphone</text>
<text text-anchor="middle" x="849" y="-785.8" font-family="Times,serif" font-size="14.00">sennheiser avx me2</text>
<text text-anchor="middle" x="849" y="-770.8" font-family="Times,serif" font-size="14.00">esk avx bodypack transmitter</text>
<text text-anchor="middle" x="849" y="-755.8" font-family="Times,serif" font-size="14.00">autonomy: 15h (BA30 battery)/11h (2x AA)</text>
<text text-anchor="middle" x="849" y="-740.8" font-family="Times,serif" font-size="14.00">2030 mAh</text>
</a>
</g>
</g>
<!-- speaker_microphone_receiver_xlr_connector -->
<g id="node5" class="node">
<title>speaker_microphone_receiver_xlr_connector</title>
<polygon fill="none" stroke="black" points="909,-569 807,-569 807,-533 909,-533 909,-569"/>
<text text-anchor="middle" x="858" y="-547.3" font-family="Times,serif" font-size="14.00">XLR male plug</text>
</g>
<!-- speaker_microphone&#45;&gt;speaker_microphone_receiver_xlr_connector -->
<g id="edge1" class="edge">
<title>speaker_microphone&#45;&gt;speaker_microphone_receiver_xlr_connector</title>
<path fill="none" stroke="black" stroke-dasharray="5,2" d="M850.65,-732.87C852.04,-698.74 854.04,-649.52 855.6,-611.04"/>
<polygon fill="black" stroke="black" points="859.1,-611.13 856.01,-601 852.11,-610.85 859.1,-611.13"/>
<text text-anchor="middle" x="898.5" y="-703.8" font-family="Times,serif" font-size="14.00">1.9 GHz wireless</text>
</g>
<!-- audience_microphone -->
<g id="node3" class="node">
<title>audience_microphone</title>
<g id="a_node3"><a xlink:href="https://en-us.sennheiser.com/global-downloads/file/6524/AVX_Manual_06_2015_EN.pdf" xlink:title="audience microphone\nsennheiser avx 835\nautonomy: 13h (BA10 battery)/11h (2x AA)\n2200 mAh">
<polygon fill="none" stroke="black" points="1254,-808.5 996,-808.5 996,-740.5 1254,-740.5 1254,-808.5"/>
<text text-anchor="middle" x="1125" y="-793.3" font-family="Times,serif" font-size="14.00">audience microphone</text>
<text text-anchor="middle" x="1125" y="-778.3" font-family="Times,serif" font-size="14.00">sennheiser avx 835</text>
<text text-anchor="middle" x="1125" y="-763.3" font-family="Times,serif" font-size="14.00">autonomy: 13h (BA10 battery)/11h (2x AA)</text>
<text text-anchor="middle" x="1125" y="-748.3" font-family="Times,serif" font-size="14.00">2200 mAh</text>
</a>
</g>
</g>
<!-- audience_microphone_receiver_xlr_connector -->
<g id="node7" class="node">
<title>audience_microphone_receiver_xlr_connector</title>
<polygon fill="none" stroke="black" points="1167,-569 1065,-569 1065,-533 1167,-533 1167,-569"/>
<text text-anchor="middle" x="1116" y="-547.3" font-family="Times,serif" font-size="14.00">XLR male plug</text>
</g>
<!-- audience_microphone&#45;&gt;audience_microphone_receiver_xlr_connector -->
<g id="edge4" class="edge">
<title>audience_microphone&#45;&gt;audience_microphone_receiver_xlr_connector</title>
<path fill="none" stroke="black" stroke-dasharray="5,2" d="M1123.65,-740.34C1122.27,-706.3 1120.09,-652.59 1118.41,-611.23"/>
<polygon fill="black" stroke="black" points="1121.89,-610.85 1117.99,-601 1114.9,-611.13 1121.89,-610.85"/>
<text text-anchor="middle" x="1169.5" y="-703.8" font-family="Times,serif" font-size="14.00">1.9 GHz wireless</text>
</g>
<!-- speaker_microphone_receiver_usb_power_connector -->
<g id="node4" class="node">
<title>speaker_microphone_receiver_usb_power_connector</title>
<polygon fill="none" stroke="black" points="788.5,-570 675.5,-570 675.5,-532 788.5,-532 788.5,-570"/>
<text text-anchor="middle" x="732" y="-554.8" font-family="Times,serif" font-size="14.00">power input port</text>
<text text-anchor="middle" x="732" y="-539.8" font-family="Times,serif" font-size="14.00">micro usb female</text>
</g>
<!-- mix_panel_mic_3_in -->
<g id="node26" class="node">
<title>mix_panel_mic_3_in</title>
<polygon fill="lightgrey" stroke="black" points="1133.5,-408 996.5,-408 996.5,-355 1133.5,-355 1133.5,-408"/>
<text text-anchor="middle" x="1065" y="-392.8" font-family="Times,serif" font-size="14.00">mic 3 in</text>
<text text-anchor="middle" x="1065" y="-377.8" font-family="Times,serif" font-size="14.00">XLR female port</text>
<text text-anchor="middle" x="1065" y="-362.8" font-family="Times,serif" font-size="14.00">+48V phantom power</text>
</g>
<!-- speaker_microphone_receiver_xlr_connector&#45;&gt;mix_panel_mic_3_in -->
<g id="edge3" class="edge">
<title>speaker_microphone_receiver_xlr_connector&#45;&gt;mix_panel_mic_3_in</title>
<path fill="none" stroke="black" d="M883.59,-532.95C894.63,-526.47 907.98,-519.75 921,-516 933.95,-512.27 1031.94,-516.96 1042,-508 1066.75,-485.95 1070.42,-446.81 1069.21,-418.08"/>
<polygon fill="black" stroke="black" points="1072.69,-417.78 1068.56,-408.02 1065.71,-418.22 1072.69,-417.78"/>
</g>
<!-- audience_microphone_receiver_usb_power_connector -->
<g id="node6" class="node">
<title>audience_microphone_receiver_usb_power_connector</title>
<polygon fill="none" stroke="black" points="1046.5,-570 933.5,-570 933.5,-532 1046.5,-532 1046.5,-570"/>
<text text-anchor="middle" x="990" y="-554.8" font-family="Times,serif" font-size="14.00">power input port</text>
<text text-anchor="middle" x="990" y="-539.8" font-family="Times,serif" font-size="14.00">micro usb female</text>
</g>
<!-- mix_panel_mic_2_in -->
<g id="node25" class="node">
<title>mix_panel_mic_2_in</title>
<polygon fill="lightgrey" stroke="black" points="1288.5,-408 1151.5,-408 1151.5,-355 1288.5,-355 1288.5,-408"/>
<text text-anchor="middle" x="1220" y="-392.8" font-family="Times,serif" font-size="14.00">mic 2 in</text>
<text text-anchor="middle" x="1220" y="-377.8" font-family="Times,serif" font-size="14.00">XLR female port</text>
<text text-anchor="middle" x="1220" y="-362.8" font-family="Times,serif" font-size="14.00">+48V phantom power</text>
</g>
<!-- audience_microphone_receiver_xlr_connector&#45;&gt;mix_panel_mic_2_in -->
<g id="edge6" class="edge">
<title>audience_microphone_receiver_xlr_connector&#45;&gt;mix_panel_mic_2_in</title>
<path fill="none" stroke="black" d="M1126.74,-532.71C1143.67,-505.43 1176.91,-451.9 1198.79,-416.67"/>
<polygon fill="black" stroke="black" points="1201.78,-418.47 1204.09,-408.13 1195.84,-414.78 1201.78,-418.47"/>
</g>
<!-- camera_xlr_in_1 -->
<g id="node8" class="node">
<title>camera_xlr_in_1</title>
<polygon fill="none" stroke="black" points="772.5,-247 643.5,-247 643.5,-194 772.5,-194 772.5,-247"/>
<text text-anchor="middle" x="708" y="-231.8" font-family="Times,serif" font-size="14.00">audio in CH1 (left)</text>
<text text-anchor="middle" x="708" y="-216.8" font-family="Times,serif" font-size="14.00">XLR female port</text>
<text text-anchor="middle" x="708" y="-201.8" font-family="Times,serif" font-size="14.00">48V phantom power</text>
</g>
<!-- camera_xlr_in_2 -->
<g id="node9" class="node">
<title>camera_xlr_in_2</title>
<polygon fill="none" stroke="black" points="625.5,-247 496.5,-247 496.5,-194 625.5,-194 625.5,-247"/>
<text text-anchor="middle" x="561" y="-231.8" font-family="Times,serif" font-size="14.00">audio in CH2 (right)</text>
<text text-anchor="middle" x="561" y="-216.8" font-family="Times,serif" font-size="14.00">XLR female port</text>
<text text-anchor="middle" x="561" y="-201.8" font-family="Times,serif" font-size="14.00">48V phantom power</text>
</g>
<!-- camera_hdmi_out -->
<g id="node10" class="node">
<title>camera_hdmi_out</title>
<polygon fill="none" stroke="black" points="478,-239.5 314,-239.5 314,-201.5 478,-201.5 478,-239.5"/>
<text text-anchor="middle" x="396" y="-224.3" font-family="Times,serif" font-size="14.00">HDMI out</text>
<text text-anchor="middle" x="396" y="-209.3" font-family="Times,serif" font-size="14.00">HDMI A (full size) female</text>
</g>
<!-- cam_box_hdmi_in -->
<g id="node14" class="node">
<title>cam_box_hdmi_in</title>
<polygon fill="lightgrey" stroke="black" points="747,-92 639,-92 639,-54 747,-54 747,-92"/>
<text text-anchor="middle" x="693" y="-76.8" font-family="Times,serif" font-size="14.00">HDMI in</text>
<text text-anchor="middle" x="693" y="-61.8" font-family="Times,serif" font-size="14.00">HDMI A female</text>
</g>
<!-- camera_hdmi_out&#45;&gt;cam_box_hdmi_in -->
<g id="edge10" class="edge">
<title>camera_hdmi_out&#45;&gt;cam_box_hdmi_in</title>
<path fill="none" stroke="black" d="M443.98,-201.47C502.37,-179.23 597.22,-142.03 630,-123 642.01,-116.03 654.27,-107.01 664.74,-98.61"/>
<polygon fill="black" stroke="black" points="667.22,-101.11 672.72,-92.06 662.77,-95.7 667.22,-101.11"/>
<text text-anchor="middle" x="664.5" y="-164.8" font-family="Times,serif" font-size="14.00">HDMI cable</text>
<text text-anchor="middle" x="664.5" y="-149.8" font-family="Times,serif" font-size="14.00">HDMI A (full size)</text>
<text text-anchor="middle" x="664.5" y="-134.8" font-family="Times,serif" font-size="14.00">male/male</text>
</g>
<!-- camera_audio_monitor -->
<g id="node11" class="node">
<title>camera_audio_monitor</title>
<polygon fill="none" stroke="black" points="295.5,-239.5 144.5,-239.5 144.5,-201.5 295.5,-201.5 295.5,-239.5"/>
<text text-anchor="middle" x="220" y="-224.3" font-family="Times,serif" font-size="14.00">audio monitoring port</text>
<text text-anchor="middle" x="220" y="-209.3" font-family="Times,serif" font-size="14.00">3.5mm trs stereo female</text>
</g>
<!-- headphones -->
<g id="node33" class="node">
<title>headphones</title>
<g id="a_node33"><a xlink:href="https://www.sennheiser.com/en-us/catalog/products/headphones/hd-25/hd-25-506909" xlink:title="Sennheiser HD25 headphones\n3.5mm trs stereo male">
<polygon fill="none" stroke="black" points="310,-92 130,-92 130,-54 310,-54 310,-92"/>
<text text-anchor="middle" x="220" y="-76.8" font-family="Times,serif" font-size="14.00">Sennheiser HD25 headphones</text>
<text text-anchor="middle" x="220" y="-61.8" font-family="Times,serif" font-size="14.00">3.5mm trs stereo male</text>
</a>
</g>
</g>
<!-- camera_audio_monitor&#45;&gt;headphones -->
<g id="edge12" class="edge">
<title>camera_audio_monitor&#45;&gt;headphones</title>
<path fill="none" stroke="black" d="M220,-201.37C220,-176.53 220,-131.7 220,-102.39"/>
<polygon fill="black" stroke="black" points="223.5,-102.36 220,-92.36 216.5,-102.36 223.5,-102.36"/>
</g>
<!-- cam_box_switch -->
<g id="node15" class="node">
<title>cam_box_switch</title>
<polygon fill="lightgrey" stroke="black" points="987,-91 855,-91 855,-55 987,-55 987,-91"/>
<text text-anchor="middle" x="921" y="-69.3" font-family="Times,serif" font-size="14.00">4x Gbit dumb switch</text>
</g>
<!-- cam_box_usb -->
<g id="node16" class="node">
<title>cam_box_usb</title>
<polygon fill="lightgrey" stroke="black" points="621,-91 567,-91 567,-55 621,-55 621,-91"/>
<text text-anchor="middle" x="594" y="-69.3" font-family="Times,serif" font-size="14.00">USB</text>
</g>
<!-- cam_box_usb_power -->
<g id="node17" class="node">
<title>cam_box_usb_power</title>
<polygon fill="lightgrey" stroke="black" points="548.5,-91 405.5,-91 405.5,-55 548.5,-55 548.5,-91"/>
<text text-anchor="middle" x="477" y="-69.3" font-family="Times,serif" font-size="14.00">USB power 4x 500mA</text>
</g>
<!-- speaker_box_ac_in -->
<g id="node18" class="node">
<title>speaker_box_ac_in</title>
<polygon fill="lightgrey" stroke="black" points="1534,-399.5 1462,-399.5 1462,-363.5 1534,-363.5 1534,-399.5"/>
<text text-anchor="middle" x="1498" y="-377.8" font-family="Times,serif" font-size="14.00">ac adapter</text>
</g>
<!-- speaker_box_hdmi_in -->
<g id="node19" class="node">
<title>speaker_box_hdmi_in</title>
<polygon fill="lightgrey" stroke="black" points="1660,-400.5 1552,-400.5 1552,-362.5 1660,-362.5 1660,-400.5"/>
<text text-anchor="middle" x="1606" y="-385.3" font-family="Times,serif" font-size="14.00">HDMI in</text>
<text text-anchor="middle" x="1606" y="-370.3" font-family="Times,serif" font-size="14.00">HDMI A female</text>
</g>
<!-- speaker_box_hdmi_out -->
<g id="node20" class="node">
<title>speaker_box_hdmi_out</title>
<polygon fill="lightgrey" stroke="black" points="508,-400.5 400,-400.5 400,-362.5 508,-362.5 508,-400.5"/>
<text text-anchor="middle" x="454" y="-385.3" font-family="Times,serif" font-size="14.00">HDMI out</text>
<text text-anchor="middle" x="454" y="-370.3" font-family="Times,serif" font-size="14.00">HDMI A female</text>
</g>
<!-- room_projector -->
<g id="node30" class="node">
<title>room_projector</title>
<polygon fill="none" stroke="black" points="982.5,-247 829.5,-247 829.5,-194 982.5,-194 982.5,-247"/>
<text text-anchor="middle" x="906" y="-231.8" font-family="Times,serif" font-size="14.00">room projector HDMI in</text>
<text text-anchor="middle" x="906" y="-216.8" font-family="Times,serif" font-size="14.00">HDMI port</text>
<text text-anchor="middle" x="906" y="-201.8" font-family="Times,serif" font-size="14.00">female</text>
</g>
<!-- speaker_box_hdmi_out&#45;&gt;room_projector -->
<g id="edge11" class="edge">
<title>speaker_box_hdmi_out&#45;&gt;room_projector</title>
<path fill="none" stroke="black" d="M474.9,-362.45C486.49,-353.6 501.63,-343.83 517,-339 548.6,-329.06 785.21,-345.47 815,-331 847.42,-315.25 872.43,-281.92 887.95,-256.15"/>
<polygon fill="black" stroke="black" points="891.05,-257.79 893.05,-247.38 885,-254.27 891.05,-257.79"/>
<text text-anchor="middle" x="886" y="-319.8" font-family="Times,serif" font-size="14.00">HDMI cable</text>
<text text-anchor="middle" x="886" y="-304.8" font-family="Times,serif" font-size="14.00">male/male</text>
</g>
<!-- speaker_box_switch -->
<g id="node21" class="node">
<title>speaker_box_switch</title>
<polygon fill="lightgrey" stroke="black" points="1810,-399.5 1678,-399.5 1678,-363.5 1810,-363.5 1810,-399.5"/>
<text text-anchor="middle" x="1744" y="-377.8" font-family="Times,serif" font-size="14.00">4x Gbit dumb switch</text>
</g>
<!-- speaker_box_switch&#45;&gt;cam_box_switch -->
<g id="edge14" class="edge">
<title>speaker_box_switch&#45;&gt;cam_box_switch</title>
<path fill="none" stroke="black" d="M1706.94,-358.41C1695.04,-351.75 1681.65,-344.69 1669,-339 1425.71,-229.5 1122.47,-134.02 989.2,-94.01"/>
<polygon fill="black" stroke="black" points="1705.3,-361.5 1715.72,-363.4 1708.76,-355.42 1705.3,-361.5"/>
<polygon fill="black" stroke="black" points="990.1,-90.63 979.51,-91.11 988.09,-97.33 990.1,-90.63"/>
<text text-anchor="middle" x="1596.5" y="-216.8" font-family="Times,serif" font-size="14.00">ethernet cable</text>
</g>
<!-- speaker_box_usb -->
<g id="node22" class="node">
<title>speaker_box_usb</title>
<polygon fill="lightgrey" stroke="black" points="580,-399.5 526,-399.5 526,-363.5 580,-363.5 580,-399.5"/>
<text text-anchor="middle" x="553" y="-377.8" font-family="Times,serif" font-size="14.00">USB 3</text>
</g>
<!-- speaker_box_usb_power -->
<g id="node23" class="node">
<title>speaker_box_usb_power</title>
<polygon fill="lightgrey" stroke="black" points="741.5,-399.5 598.5,-399.5 598.5,-363.5 741.5,-363.5 741.5,-399.5"/>
<text text-anchor="middle" x="670" y="-377.8" font-family="Times,serif" font-size="14.00">USB power 4x 500mA</text>
</g>
<!-- speaker_box_usb_power&#45;&gt;speaker_microphone_receiver_usb_power_connector -->
<g id="edge2" class="edge">
<title>speaker_box_usb_power&#45;&gt;speaker_microphone_receiver_usb_power_connector</title>
<path fill="none" stroke="black" d="M673.35,-399.66C678.52,-424.32 689.57,-470.9 706,-508 708.26,-513.1 711.04,-518.31 713.95,-523.26"/>
<polygon fill="black" stroke="black" points="710.98,-525.11 719.21,-531.79 716.94,-521.44 710.98,-525.11"/>
<text text-anchor="middle" x="783.5" y="-496.8" font-family="Times,serif" font-size="14.00">USB A &#45;&gt; micro USB cable</text>
<text text-anchor="middle" x="783.5" y="-481.8" font-family="Times,serif" font-size="14.00">included in mic kit</text>
</g>
<!-- speaker_box_usb_power&#45;&gt;audience_microphone_receiver_usb_power_connector -->
<g id="edge5" class="edge">
<title>speaker_box_usb_power&#45;&gt;audience_microphone_receiver_usb_power_connector</title>
<path fill="none" stroke="black" d="M679.54,-399.59C692.17,-420.37 716.58,-454.56 748,-470 770.59,-481.1 836.88,-470.8 861,-478 895.96,-488.43 931.89,-509.49 956.92,-526.16"/>
<polygon fill="black" stroke="black" points="955.07,-529.12 965.31,-531.84 959,-523.33 955.07,-529.12"/>
<text text-anchor="middle" x="1003.5" y="-496.8" font-family="Times,serif" font-size="14.00">USB A &#45;&gt; micro USB cable</text>
<text text-anchor="middle" x="1003.5" y="-481.8" font-family="Times,serif" font-size="14.00">included in mic kit</text>
</g>
<!-- mix_panel_mic_1_in -->
<g id="node24" class="node">
<title>mix_panel_mic_1_in</title>
<polygon fill="lightgrey" stroke="black" points="1443.5,-408 1306.5,-408 1306.5,-355 1443.5,-355 1443.5,-408"/>
<text text-anchor="middle" x="1375" y="-392.8" font-family="Times,serif" font-size="14.00">mic 1 in</text>
<text text-anchor="middle" x="1375" y="-377.8" font-family="Times,serif" font-size="14.00">XLR female port</text>
<text text-anchor="middle" x="1375" y="-362.8" font-family="Times,serif" font-size="14.00">+48V phantom power</text>
</g>
<!-- mix_panel_out_1 -->
<g id="node27" class="node">
<title>mix_panel_out_1</title>
<polygon fill="lightgrey" stroke="black" points="860,-408 760,-408 760,-355 860,-355 860,-408"/>
<text text-anchor="middle" x="810" y="-392.8" font-family="Times,serif" font-size="14.00">XLR out 1</text>
<text text-anchor="middle" x="810" y="-377.8" font-family="Times,serif" font-size="14.00">male port</text>
<text text-anchor="middle" x="810" y="-362.8" font-family="Times,serif" font-size="14.00">balanced mono</text>
</g>
<!-- mix_panel_out_1&#45;&gt;camera_xlr_in_1 -->
<g id="edge7" class="edge">
<title>mix_panel_out_1&#45;&gt;camera_xlr_in_1</title>
<path fill="none" stroke="black" d="M793.61,-354.95C776.34,-328.03 749.04,-285.47 729.92,-255.67"/>
<polygon fill="black" stroke="black" points="732.86,-253.77 724.52,-247.25 726.97,-257.55 732.86,-253.77"/>
<text text-anchor="middle" x="811.5" y="-319.8" font-family="Times,serif" font-size="14.00">xlr cable</text>
<text text-anchor="middle" x="811.5" y="-304.8" font-family="Times,serif" font-size="14.00">female/male</text>
</g>
<!-- mix_panel_out_2 -->
<g id="node28" class="node">
<title>mix_panel_out_2</title>
<polygon fill="lightgrey" stroke="black" points="978,-408 878,-408 878,-355 978,-355 978,-408"/>
<text text-anchor="middle" x="928" y="-392.8" font-family="Times,serif" font-size="14.00">XLR out 2</text>
<text text-anchor="middle" x="928" y="-377.8" font-family="Times,serif" font-size="14.00">male port</text>
<text text-anchor="middle" x="928" y="-362.8" font-family="Times,serif" font-size="14.00">balanced mono</text>
</g>
<!-- room_amplification -->
<g id="node29" class="node">
<title>room_amplification</title>
<polygon fill="none" stroke="black" points="1163.5,-238.5 1000.5,-238.5 1000.5,-202.5 1163.5,-202.5 1163.5,-238.5"/>
<text text-anchor="middle" x="1082" y="-216.8" font-family="Times,serif" font-size="14.00">room amplification system</text>
</g>
<!-- mix_panel_out_2&#45;&gt;room_amplification -->
<g id="edge8" class="edge">
<title>mix_panel_out_2&#45;&gt;room_amplification</title>
<path fill="none" stroke="black" d="M952.74,-354.95C981.78,-324.98 1029.58,-275.62 1058.2,-246.07"/>
<polygon fill="black" stroke="black" points="1060.94,-248.27 1065.39,-238.65 1055.92,-243.4 1060.94,-248.27"/>
<text text-anchor="middle" x="1039.5" y="-319.8" font-family="Times,serif" font-size="14.00">xlr cable</text>
<text text-anchor="middle" x="1039.5" y="-304.8" font-family="Times,serif" font-size="14.00">female/male</text>
</g>
<!-- speaker_power_strip -->
<g id="node31" class="node">
<title>speaker_power_strip</title>
<polygon fill="none" stroke="black" points="1583,-793.5 1413,-793.5 1413,-755.5 1583,-755.5 1583,-793.5"/>
<text text-anchor="middle" x="1498" y="-778.3" font-family="Times,serif" font-size="14.00">speaker side power strip</text>
<text text-anchor="middle" x="1498" y="-763.3" font-family="Times,serif" font-size="14.00">&gt;=3 CEE 7/3 or 7/5 sockets</text>
</g>
<!-- speaker_power_strip&#45;&gt;speaker_box_ac_in -->
<g id="edge18" class="edge">
<title>speaker_power_strip&#45;&gt;speaker_box_ac_in</title>
<path fill="none" stroke="black" d="M1496.86,-755.5C1496.3,-742.41 1496.11,-724.3 1498,-708.5"/>
<path fill="none" stroke="black" d="M1498,-706.5C1511.06,-597.33 1504.18,-465.98 1500.19,-409.97"/>
<polygon fill="black" stroke="black" points="1503.67,-409.51 1499.44,-399.8 1496.69,-410.03 1503.67,-409.51"/>
</g>
<!-- speaker_laptop -->
<g id="node32" class="node">
<title>speaker_laptop</title>
<polygon fill="none" stroke="black" points="1621.5,-569 1526.5,-569 1526.5,-533 1621.5,-533 1621.5,-569"/>
<text text-anchor="middle" x="1574" y="-547.3" font-family="Times,serif" font-size="14.00">speaker laptop</text>
</g>
<!-- speaker_power_strip&#45;&gt;speaker_laptop -->
<g id="edge17" class="edge">
<title>speaker_power_strip&#45;&gt;speaker_laptop</title>
<path fill="none" stroke="black" d="M1498,-706.5C1499.06,-697.61 1507,-699.43 1512,-692 1536.43,-655.7 1555.07,-608.21 1565.27,-578.92"/>
<polygon fill="black" stroke="black" points="1568.62,-579.96 1568.53,-569.36 1561.99,-577.7 1568.62,-579.96"/>
</g>
<!-- speaker_laptop&#45;&gt;speaker_box_hdmi_in -->
<g id="edge9" class="edge">
<title>speaker_laptop&#45;&gt;speaker_box_hdmi_in</title>
<path fill="none" stroke="black" d="M1577.3,-532.71C1582.82,-503.84 1593.95,-445.6 1600.61,-410.73"/>
<polygon fill="black" stroke="black" points="1604.08,-411.19 1602.52,-400.71 1597.21,-409.88 1604.08,-411.19"/>
<text text-anchor="middle" x="1665.5" y="-489.3" font-family="Times,serif" font-size="14.00">direct hdmi cable male/male</text>
</g>
<!-- video_vlan -->
<g id="node34" class="node">
<title>video_vlan</title>
<polygon fill="none" stroke="black" stroke-dasharray="1,5" points="1820.5,-569 1687.5,-569 1687.5,-533 1820.5,-533 1820.5,-569"/>
<text text-anchor="middle" x="1754" y="-547.3" font-family="Times,serif" font-size="14.00">FOSDEM video vlan</text>
</g>
<!-- video_vlan&#45;&gt;speaker_box_switch -->
<g id="edge13" class="edge">
<title>video_vlan&#45;&gt;speaker_box_switch</title>
<path fill="none" stroke="black" d="M1752.35,-522.33C1750.49,-491.25 1747.5,-441.11 1745.65,-410.07"/>
<polygon fill="black" stroke="black" points="1748.88,-522.93 1752.97,-532.71 1755.87,-522.51 1748.88,-522.93"/>
<polygon fill="black" stroke="black" points="1749.13,-409.73 1745.04,-399.95 1742.14,-410.14 1749.13,-409.73"/>
<text text-anchor="middle" x="1789.5" y="-489.3" font-family="Times,serif" font-size="14.00">ethernet cable</text>
</g>
</g>
</svg>
