<?xml version="1.0" encoding="UTF-8" standalone="no"?>
<!DOCTYPE svg PUBLIC "-//W3C//DTD SVG 1.1//EN"
 "http://www.w3.org/Graphics/SVG/1.1/DTD/svg11.dtd">
<!-- Generated by graphviz version 2.38.0 (20140413.2041)
 -->
<!-- Title: G Pages: 1 -->
<svg width="1828pt" height="764pt"
 viewBox="0.00 0.00 1828.00 763.50" xmlns="http://www.w3.org/2000/svg" xmlns:xlink="http://www.w3.org/1999/xlink">
<g id="graph0" class="graph" transform="scale(1 1) rotate(0) translate(4 759.5)">
<title>G</title>
<polygon fill="white" stroke="none" points="-4,4 -4,-759.5 1824,-759.5 1824,4 -4,4"/>
<text text-anchor="middle" x="910" y="-22.8" font-family="Times,serif" font-size="14.00">FOSDEM 2017 small rooms video cabling setup:</text>
<text text-anchor="middle" x="910" y="-7.8" font-family="Times,serif" font-size="14.00">aw1120, aw1121, aw1124, aw1125, aw1126, h2213, h2214, k3201, k3401, k4201, k4401, k4601</text>
<g id="clust1" class="cluster"><title>cluster_speaker_microphone_receiver</title>
<g id="a_clust1"><a xlink:href="https://en-us.sennheiser.com/global-downloads/file/6524/AVX_Manual_06_2015_EN.pdf" xlink:title="speaker microphone receiver\nsennheiser ekp avx receiver\nDC autonomy: &gt;4h (BA20 battery)\nAC autonomy: ∞\nphantom auto power on/off">
<polygon fill="none" stroke="black" points="285,-419.5 285,-556.5 535,-556.5 535,-419.5 285,-419.5"/>
<text text-anchor="middle" x="410" y="-541.3" font-family="Times,serif" font-size="14.00">speaker microphone receiver</text>
<text text-anchor="middle" x="410" y="-526.3" font-family="Times,serif" font-size="14.00">sennheiser ekp avx receiver</text>
<text text-anchor="middle" x="410" y="-511.3" font-family="Times,serif" font-size="14.00">DC autonomy: &gt;4h (BA20 battery)</text>
<text text-anchor="middle" x="410" y="-496.3" font-family="Times,serif" font-size="14.00">AC autonomy: ∞</text>
<text text-anchor="middle" x="410" y="-481.3" font-family="Times,serif" font-size="14.00">phantom auto power on/off</text>
</a>
</g>
</g>
<g id="clust2" class="cluster"><title>cluster_camera</title>
<g id="a_clust2"><a xlink:href="http://downloads.canon.com/cpr/software/video/Canon_XF100_XF105_Instruction_Manual.pdf" xlink:title="camera\nCanon XF100">
<polygon fill="none" stroke="black" points="8,-264.5 8,-371.5 778,-371.5 778,-264.5 8,-264.5"/>
<text text-anchor="middle" x="393" y="-356.3" font-family="Times,serif" font-size="14.00">camera</text>
<text text-anchor="middle" x="393" y="-341.3" font-family="Times,serif" font-size="14.00">Canon XF100</text>
</a>
</g>
</g>
<g id="clust4" class="cluster"><title>cluster_cam_box</title>
<g id="a_clust4"><a xlink:href="https://github.com/FOSDEM/video" xlink:title="camera box">
<polygon fill="none" stroke="lightgrey" points="569,-124.5 569,-201.5 971,-201.5 971,-124.5 569,-124.5"/>
<text text-anchor="middle" x="770" y="-186.3" font-family="Times,serif" font-size="14.00">camera box</text>
</a>
</g>
</g>
<g id="clust5" class="cluster"><title>cluster_speaker_box</title>
<g id="a_clust5"><a xlink:href="https://github.com/FOSDEM/video" xlink:title="speaker box">
<polygon fill="none" stroke="lightgrey" points="841,-264.5 841,-356.5 1572,-356.5 1572,-264.5 841,-264.5"/>
<text text-anchor="middle" x="1206.5" y="-341.3" font-family="Times,serif" font-size="14.00">speaker box</text>
</a>
</g>
</g>
<!-- speaker_microphone -->
<g id="node1" class="node"><title>speaker_microphone</title>
<g id="a_node1"><a xlink:href="https://en-us.sennheiser.com/global-downloads/file/6524/AVX_Manual_06_2015_EN.pdf" xlink:title="speaker microphone\nsennheiser avx me2\nesk avx bodypack transmitter\nautonomy: 15h (BA30 battery)/11h (2x AA)">
<polygon fill="none" stroke="black" points="473.5,-680.5 214.5,-680.5 214.5,-612.5 473.5,-612.5 473.5,-680.5"/>
<text text-anchor="middle" x="344" y="-665.3" font-family="Times,serif" font-size="14.00">speaker microphone</text>
<text text-anchor="middle" x="344" y="-650.3" font-family="Times,serif" font-size="14.00">sennheiser avx me2</text>
<text text-anchor="middle" x="344" y="-635.3" font-family="Times,serif" font-size="14.00">esk avx bodypack transmitter</text>
<text text-anchor="middle" x="344" y="-620.3" font-family="Times,serif" font-size="14.00">autonomy: 15h (BA30 battery)/11h (2x AA)</text>
</a>
</g>
</g>
<!-- speaker_microphone_receiver_xlr_connector -->
<g id="node3" class="node"><title>speaker_microphone_receiver_xlr_connector</title>
<polygon fill="none" stroke="black" points="395,-464.5 293,-464.5 293,-428.5 395,-428.5 395,-464.5"/>
<text text-anchor="middle" x="344" y="-442.8" font-family="Times,serif" font-size="14.00">XLR male plug</text>
</g>
<!-- speaker_microphone&#45;&gt;speaker_microphone_receiver_xlr_connector -->
<g id="edge1" class="edge"><title>speaker_microphone&#45;&gt;speaker_microphone_receiver_xlr_connector</title>
<path fill="none" stroke="black" d="M344,-612.359C344,-599.337 344,-583.532 344,-566.926"/>
<polygon fill="black" stroke="black" points="347.5,-566.5 344,-556.5 340.5,-566.5 347.5,-566.5"/>
<text text-anchor="middle" x="391.5" y="-575.8" font-family="Times,serif" font-size="14.00">1.9 GHz wireless</text>
</g>
<!-- speaker_microphone_receiver_usb_power_connector -->
<g id="node2" class="node"><title>speaker_microphone_receiver_usb_power_connector</title>
<polygon fill="none" stroke="black" points="526.5,-465.5 413.5,-465.5 413.5,-427.5 526.5,-427.5 526.5,-465.5"/>
<text text-anchor="middle" x="470" y="-450.3" font-family="Times,serif" font-size="14.00">power input port</text>
<text text-anchor="middle" x="470" y="-435.3" font-family="Times,serif" font-size="14.00">micro usb female</text>
</g>
<!-- camera_xlr_in -->
<g id="node7" class="node"><title>camera_xlr_in</title>
<polygon fill="none" stroke="black" points="145.5,-325.5 16.5,-325.5 16.5,-272.5 145.5,-272.5 145.5,-325.5"/>
<text text-anchor="middle" x="81" y="-310.3" font-family="Times,serif" font-size="14.00">audio in CH1</text>
<text text-anchor="middle" x="81" y="-295.3" font-family="Times,serif" font-size="14.00">XLR female port</text>
<text text-anchor="middle" x="81" y="-280.3" font-family="Times,serif" font-size="14.00">48V phantom power</text>
</g>
<!-- speaker_microphone_receiver_xlr_connector&#45;&gt;camera_xlr_in -->
<g id="edge3" class="edge"><title>speaker_microphone_receiver_xlr_connector&#45;&gt;camera_xlr_in</title>
<path fill="none" stroke="black" d="M292.959,-431.779C253.115,-419.657 197.423,-399.53 154,-371.5 137.803,-361.045 122.203,-346.582 109.611,-333.398"/>
<polygon fill="black" stroke="black" points="111.937,-330.76 102.563,-325.823 106.813,-335.528 111.937,-330.76"/>
<text text-anchor="middle" x="297" y="-390.8" font-family="Times,serif" font-size="14.00">direct xlr plug (no cable)</text>
</g>
<!-- speaker_microphone_receiver_charger -->
<g id="node4" class="node"><title>speaker_microphone_receiver_charger</title>
<polygon fill="none" stroke="black" points="690.5,-664.5 571.5,-664.5 571.5,-628.5 690.5,-628.5 690.5,-664.5"/>
<text text-anchor="middle" x="631" y="-642.8" font-family="Times,serif" font-size="14.00">USB power source</text>
</g>
<!-- speaker_microphone_receiver_charger&#45;&gt;speaker_microphone_receiver_usb_power_connector -->
<g id="edge2" class="edge"><title>speaker_microphone_receiver_charger&#45;&gt;speaker_microphone_receiver_usb_power_connector</title>
<path fill="none" stroke="black" d="M616.994,-628.275C588.722,-593.506 524.687,-514.755 491.241,-473.622"/>
<polygon fill="black" stroke="black" points="493.81,-471.234 484.786,-465.683 488.379,-475.65 493.81,-471.234"/>
<text text-anchor="middle" x="665.5" y="-583.3" font-family="Times,serif" font-size="14.00">USB A &#45;&gt; micro USB cable</text>
<text text-anchor="middle" x="665.5" y="-568.3" font-family="Times,serif" font-size="14.00">included in mic kit</text>
</g>
<!-- speaker_laptop -->
<g id="node5" class="node"><title>speaker_laptop</title>
<polygon fill="none" stroke="black" points="1206.5,-664.5 1111.5,-664.5 1111.5,-628.5 1206.5,-628.5 1206.5,-664.5"/>
<text text-anchor="middle" x="1159" y="-642.8" font-family="Times,serif" font-size="14.00">speaker laptop</text>
</g>
<!-- speaker_laptop_optional_adapter -->
<g id="node6" class="node"><title>speaker_laptop_optional_adapter</title>
<polygon fill="none" stroke="black" stroke-dasharray="1,5" points="1479.5,-464.5 1310.5,-464.5 1310.5,-428.5 1479.5,-428.5 1479.5,-464.5"/>
<text text-anchor="middle" x="1395" y="-442.8" font-family="Times,serif" font-size="14.00">optional hdmi&#45;&gt;vga adapter</text>
</g>
<!-- speaker_laptop&#45;&gt;speaker_laptop_optional_adapter -->
<g id="edge6" class="edge"><title>speaker_laptop&#45;&gt;speaker_laptop_optional_adapter</title>
<path fill="none" stroke="black" stroke-dasharray="1,5" d="M1189.95,-628.491C1218.79,-611.944 1262.3,-585.166 1296,-556.5 1326.35,-530.687 1356.44,-495.902 1375.34,-472.638"/>
<polygon fill="black" stroke="black" points="1378.24,-474.615 1381.77,-464.627 1372.78,-470.231 1378.24,-474.615"/>
<text text-anchor="middle" x="1320" y="-583.3" font-family="Times,serif" font-size="14.00">HDMI cable</text>
<text text-anchor="middle" x="1320" y="-568.3" font-family="Times,serif" font-size="14.00">male/male</text>
</g>
<!-- speaker_box_vga_in -->
<g id="node15" class="node"><title>speaker_box_vga_in</title>
<polygon fill="lightgrey" stroke="black" points="1304.5,-325.5 1211.5,-325.5 1211.5,-272.5 1304.5,-272.5 1304.5,-325.5"/>
<text text-anchor="middle" x="1258" y="-310.3" font-family="Times,serif" font-size="14.00">VGA in</text>
<text text-anchor="middle" x="1258" y="-295.3" font-family="Times,serif" font-size="14.00">left VGA port</text>
<text text-anchor="middle" x="1258" y="-280.3" font-family="Times,serif" font-size="14.00">female</text>
</g>
<!-- speaker_laptop&#45;&gt;speaker_box_vga_in -->
<g id="edge4" class="edge"><title>speaker_laptop&#45;&gt;speaker_box_vga_in</title>
<path fill="none" stroke="black" stroke-dasharray="1,5" d="M1154.15,-628.49C1144.01,-589.651 1123.89,-492.198 1154,-419.5 1165.55,-391.627 1182,-394.084 1202,-371.5 1212.53,-359.609 1223.45,-346.003 1232.82,-333.874"/>
<polygon fill="black" stroke="black" points="1235.73,-335.821 1239.03,-325.752 1230.17,-331.568 1235.73,-335.821"/>
<text text-anchor="middle" x="1228" y="-442.8" font-family="Times,serif" font-size="14.00">direct vga cable male/male</text>
</g>
<!-- speaker_box_audio_in -->
<g id="node17" class="node"><title>speaker_box_audio_in</title>
<polygon fill="lightgrey" stroke="black" points="1564,-325.5 1442,-325.5 1442,-272.5 1564,-272.5 1564,-325.5"/>
<text text-anchor="middle" x="1503" y="-310.3" font-family="Times,serif" font-size="14.00">audio in</text>
<text text-anchor="middle" x="1503" y="-295.3" font-family="Times,serif" font-size="14.00">left audio port</text>
<text text-anchor="middle" x="1503" y="-280.3" font-family="Times,serif" font-size="14.00">6.35mm trs female</text>
</g>
<!-- speaker_laptop&#45;&gt;speaker_box_audio_in -->
<g id="edge5" class="edge"><title>speaker_laptop&#45;&gt;speaker_box_audio_in</title>
<path fill="none" stroke="black" stroke-dasharray="1,5" d="M1206.6,-643.033C1275.02,-637.347 1402.44,-618.561 1489,-556.5 1562.97,-503.468 1629.18,-462.574 1592,-379.5 1583.64,-360.82 1568.48,-344.719 1553.01,-331.988"/>
<polygon fill="black" stroke="black" points="1554.96,-329.065 1544.93,-325.642 1550.63,-334.571 1554.96,-329.065"/>
<text text-anchor="middle" x="1711" y="-450.3" font-family="Times,serif" font-size="14.00">3.5mm male &#45;&gt; 6.35mm trs male cable</text>
<text text-anchor="middle" x="1711" y="-435.3" font-family="Times,serif" font-size="14.00">unbalanced stereo</text>
</g>
<!-- speaker_laptop_optional_adapter&#45;&gt;speaker_box_vga_in -->
<g id="edge7" class="edge"><title>speaker_laptop_optional_adapter&#45;&gt;speaker_box_vga_in</title>
<path fill="none" stroke="black" stroke-dasharray="1,5" d="M1329.4,-428.423C1299.95,-420.463 1271.23,-412.162 1269,-409.5 1252.13,-389.325 1250.22,-359.193 1252.06,-335.642"/>
<polygon fill="black" stroke="black" points="1255.55,-335.978 1253.09,-325.672 1248.58,-335.261 1255.55,-335.978"/>
<text text-anchor="middle" x="1326" y="-390.8" font-family="Times,serif" font-size="14.00">vga cable male/male</text>
</g>
<!-- speaker_laptop_optional_adapter&#45;&gt;speaker_box_audio_in -->
<g id="edge8" class="edge"><title>speaker_laptop_optional_adapter&#45;&gt;speaker_box_audio_in</title>
<path fill="none" stroke="black" stroke-dasharray="1,5" d="M1389.89,-428.343C1386.68,-413.714 1384.96,-392.973 1396,-379.5 1406.66,-366.487 1418.27,-379.632 1433,-371.5 1450.04,-362.095 1465.56,-347.231 1477.64,-333.486"/>
<polygon fill="black" stroke="black" points="1480.55,-335.466 1484.34,-325.572 1475.21,-330.943 1480.55,-335.466"/>
<text text-anchor="middle" x="1494" y="-398.3" font-family="Times,serif" font-size="14.00">3.5 &#45;&gt; 6.35mm trs male/male cable</text>
<text text-anchor="middle" x="1494" y="-383.3" font-family="Times,serif" font-size="14.00">unbalanced stereo</text>
</g>
<!-- camera_hdmi_out -->
<g id="node8" class="node"><title>camera_hdmi_out</title>
<polygon fill="none" stroke="black" points="642,-318 478,-318 478,-280 642,-280 642,-318"/>
<text text-anchor="middle" x="560" y="-302.8" font-family="Times,serif" font-size="14.00">HDMI out</text>
<text text-anchor="middle" x="560" y="-287.8" font-family="Times,serif" font-size="14.00">HDMI A (full size) female</text>
</g>
<!-- cam_box_hdmi_in -->
<g id="node12" class="node"><title>cam_box_hdmi_in</title>
<polygon fill="lightgrey" stroke="black" points="741,-170.5 577,-170.5 577,-132.5 741,-132.5 741,-170.5"/>
<text text-anchor="middle" x="659" y="-155.3" font-family="Times,serif" font-size="14.00">HDMI in</text>
<text text-anchor="middle" x="659" y="-140.3" font-family="Times,serif" font-size="14.00">HDMI A (full size) female</text>
</g>
<!-- camera_hdmi_out&#45;&gt;cam_box_hdmi_in -->
<g id="edge9" class="edge"><title>camera_hdmi_out&#45;&gt;cam_box_hdmi_in</title>
<path fill="none" stroke="black" d="M572.338,-279.867C589.531,-254.599 620.818,-208.616 640.723,-179.362"/>
<polygon fill="black" stroke="black" points="643.774,-181.099 646.506,-170.862 637.987,-177.161 643.774,-181.099"/>
<text text-anchor="middle" x="672.5" y="-243.3" font-family="Times,serif" font-size="14.00">HDMI cable</text>
<text text-anchor="middle" x="672.5" y="-228.3" font-family="Times,serif" font-size="14.00">HDMI A (full size)</text>
<text text-anchor="middle" x="672.5" y="-213.3" font-family="Times,serif" font-size="14.00">male/male</text>
</g>
<!-- camera_internal_mic -->
<g id="node9" class="node"><title>camera_internal_mic</title>
<polygon fill="none" stroke="black" points="459.5,-318 332.5,-318 332.5,-280 459.5,-280 459.5,-318"/>
<text text-anchor="middle" x="396" y="-302.8" font-family="Times,serif" font-size="14.00">audio in CH2</text>
<text text-anchor="middle" x="396" y="-287.8" font-family="Times,serif" font-size="14.00">internal microphone</text>
</g>
<!-- camera_audio_monitor -->
<g id="node10" class="node"><title>camera_audio_monitor</title>
<polygon fill="none" stroke="black" points="314.5,-318 163.5,-318 163.5,-280 314.5,-280 314.5,-318"/>
<text text-anchor="middle" x="239" y="-302.8" font-family="Times,serif" font-size="14.00">audio monitoring port</text>
<text text-anchor="middle" x="239" y="-287.8" font-family="Times,serif" font-size="14.00">3.5mm trs stereo female</text>
</g>
<!-- headphones -->
<g id="node24" class="node"><title>headphones</title>
<g id="a_node24"><a xlink:href="https://en-us.sennheiser.com/over-ear-headphones-hd-201" xlink:title="Sennheiser HD201 headphones\n3.5mm trs stereo male\nrental budgetcam">
<polygon fill="none" stroke="black" points="332.5,-178 145.5,-178 145.5,-125 332.5,-125 332.5,-178"/>
<text text-anchor="middle" x="239" y="-162.8" font-family="Times,serif" font-size="14.00">Sennheiser HD201 headphones</text>
<text text-anchor="middle" x="239" y="-147.8" font-family="Times,serif" font-size="14.00">3.5mm trs stereo male</text>
<text text-anchor="middle" x="239" y="-132.8" font-family="Times,serif" font-size="14.00">rental budgetcam</text>
</a>
</g>
</g>
<!-- camera_audio_monitor&#45;&gt;headphones -->
<g id="edge11" class="edge"><title>camera_audio_monitor&#45;&gt;headphones</title>
<path fill="none" stroke="black" d="M239,-279.867C239,-257.07 239,-217.412 239,-188.39"/>
<polygon fill="black" stroke="black" points="242.5,-188.23 239,-178.23 235.5,-188.23 242.5,-188.23"/>
</g>
<!-- camera_ac_in -->
<g id="node11" class="node"><title>camera_ac_in</title>
<polygon fill="none" stroke="black" points="770,-317 660,-317 660,-281 770,-281 770,-317"/>
<text text-anchor="middle" x="715" y="-295.3" font-family="Times,serif" font-size="14.00">camera AC input</text>
</g>
<!-- cam_box_switch -->
<g id="node13" class="node"><title>cam_box_switch</title>
<polygon fill="lightgrey" stroke="black" points="963,-169.5 831,-169.5 831,-133.5 963,-133.5 963,-169.5"/>
<text text-anchor="middle" x="897" y="-147.8" font-family="Times,serif" font-size="14.00">3x Gbit dumb switch</text>
</g>
<!-- video_vlan -->
<g id="node25" class="node"><title>video_vlan</title>
<polygon fill="none" stroke="black" stroke-dasharray="1,5" points="1017.5,-74 884.5,-74 884.5,-38 1017.5,-38 1017.5,-74"/>
<text text-anchor="middle" x="951" y="-52.3" font-family="Times,serif" font-size="14.00">FOSDEM video vlan</text>
</g>
<!-- cam_box_switch&#45;&gt;video_vlan -->
<g id="edge13" class="edge"><title>cam_box_switch&#45;&gt;video_vlan</title>
<path fill="none" stroke="black" d="M898.782,-123.097C900.408,-112.784 903.429,-101.31 909,-92 911.31,-88.1388 914.205,-84.5074 917.389,-81.1531"/>
<polygon fill="black" stroke="black" points="895.276,-122.936 897.545,-133.285 902.225,-123.78 895.276,-122.936"/>
<polygon fill="black" stroke="black" points="919.819,-83.672 924.705,-74.271 915.023,-78.5732 919.819,-83.672"/>
<text text-anchor="middle" x="947" y="-95.8" font-family="Times,serif" font-size="14.00">ethernet cable</text>
</g>
<!-- cam_box_ac_in -->
<g id="node14" class="node"><title>cam_box_ac_in</title>
<polygon fill="lightgrey" stroke="black" points="813,-169.5 759,-169.5 759,-133.5 813,-133.5 813,-169.5"/>
<text text-anchor="middle" x="786" y="-147.8" font-family="Times,serif" font-size="14.00">AC in</text>
</g>
<!-- speaker_box_vga_out -->
<g id="node16" class="node"><title>speaker_box_vga_out</title>
<polygon fill="lightgrey" stroke="black" points="1423.5,-325.5 1322.5,-325.5 1322.5,-272.5 1423.5,-272.5 1423.5,-325.5"/>
<text text-anchor="middle" x="1373" y="-310.3" font-family="Times,serif" font-size="14.00">VGA out</text>
<text text-anchor="middle" x="1373" y="-295.3" font-family="Times,serif" font-size="14.00">right VGA port</text>
<text text-anchor="middle" x="1373" y="-280.3" font-family="Times,serif" font-size="14.00">female</text>
</g>
<!-- room_projector -->
<g id="node23" class="node"><title>room_projector</title>
<polygon fill="none" stroke="black" points="1446,-178 1300,-178 1300,-125 1446,-125 1446,-178"/>
<text text-anchor="middle" x="1373" y="-162.8" font-family="Times,serif" font-size="14.00">room projector VGA in</text>
<text text-anchor="middle" x="1373" y="-147.8" font-family="Times,serif" font-size="14.00">VGA port</text>
<text text-anchor="middle" x="1373" y="-132.8" font-family="Times,serif" font-size="14.00">female</text>
</g>
<!-- speaker_box_vga_out&#45;&gt;room_projector -->
<g id="edge10" class="edge"><title>speaker_box_vga_out&#45;&gt;room_projector</title>
<path fill="none" stroke="black" d="M1373,-272.322C1373,-249.091 1373,-214.635 1373,-188.628"/>
<polygon fill="black" stroke="black" points="1376.5,-188.41 1373,-178.41 1369.5,-188.41 1376.5,-188.41"/>
<text text-anchor="middle" x="1404" y="-235.8" font-family="Times,serif" font-size="14.00">VGA cable</text>
<text text-anchor="middle" x="1404" y="-220.8" font-family="Times,serif" font-size="14.00">male/male</text>
</g>
<!-- speaker_box_audio_out -->
<g id="node18" class="node"><title>speaker_box_audio_out</title>
<polygon fill="lightgrey" stroke="black" points="1193,-325.5 1071,-325.5 1071,-272.5 1193,-272.5 1193,-325.5"/>
<text text-anchor="middle" x="1132" y="-310.3" font-family="Times,serif" font-size="14.00">audio out</text>
<text text-anchor="middle" x="1132" y="-295.3" font-family="Times,serif" font-size="14.00">right audio port</text>
<text text-anchor="middle" x="1132" y="-280.3" font-family="Times,serif" font-size="14.00">6.35mm trs female</text>
</g>
<!-- speaker_box_switch -->
<g id="node19" class="node"><title>speaker_box_switch</title>
<polygon fill="lightgrey" stroke="black" points="1053,-317 921,-317 921,-281 1053,-281 1053,-317"/>
<text text-anchor="middle" x="987" y="-295.3" font-family="Times,serif" font-size="14.00">3x Gbit dumb switch</text>
</g>
<!-- speaker_box_switch&#45;&gt;cam_box_switch -->
<g id="edge14" class="edge"><title>speaker_box_switch&#45;&gt;cam_box_switch</title>
<path fill="none" stroke="black" d="M930.988,-275.543C922.45,-269.857 914.625,-262.909 909,-254.5 894.261,-232.467 892.594,-201.623 893.787,-179.634"/>
<polygon fill="black" stroke="black" points="929.34,-278.637 939.709,-280.816 932.962,-272.647 929.34,-278.637"/>
<polygon fill="black" stroke="black" points="897.279,-179.867 894.558,-169.628 890.3,-179.33 897.279,-179.867"/>
<text text-anchor="middle" x="947" y="-228.3" font-family="Times,serif" font-size="14.00">ethernet cable</text>
</g>
<!-- speaker_box_switch&#45;&gt;video_vlan -->
<g id="edge12" class="edge"><title>speaker_box_switch&#45;&gt;video_vlan</title>
<path fill="none" stroke="black" d="M992.891,-270.933C1000.4,-230.315 1009.67,-151.966 985,-92 983.562,-88.5039 981.592,-85.1632 979.319,-82.0299"/>
<polygon fill="black" stroke="black" points="989.43,-270.392 990.945,-280.878 996.3,-271.737 989.43,-270.392"/>
<polygon fill="black" stroke="black" points="981.88,-79.6377 972.754,-74.2559 976.532,-84.1542 981.88,-79.6377"/>
<text text-anchor="middle" x="1039" y="-147.8" font-family="Times,serif" font-size="14.00">ethernet cable</text>
</g>
<!-- speaker_box_ac_in -->
<g id="node20" class="node"><title>speaker_box_ac_in</title>
<polygon fill="lightgrey" stroke="black" points="903,-317 849,-317 849,-281 903,-281 903,-317"/>
<text text-anchor="middle" x="876" y="-295.3" font-family="Times,serif" font-size="14.00">AC in</text>
</g>
<!-- cam_power_strip -->
<g id="node21" class="node"><title>cam_power_strip</title>
<polygon fill="none" stroke="black" points="883,-755.5 713,-755.5 713,-717.5 883,-717.5 883,-755.5"/>
<text text-anchor="middle" x="798" y="-740.3" font-family="Times,serif" font-size="14.00">camera side power strip</text>
<text text-anchor="middle" x="798" y="-725.3" font-family="Times,serif" font-size="14.00">&gt;=4 CEE 7/3 or 7/5 sockets</text>
</g>
<!-- cam_power_strip&#45;&gt;speaker_microphone_receiver_charger -->
<g id="edge15" class="edge"><title>cam_power_strip&#45;&gt;speaker_microphone_receiver_charger</title>
<path fill="none" stroke="black" d="M801.385,-717.414C801.656,-711.393 800.962,-704.861 798,-699.5"/>
<path fill="none" stroke="black" d="M798,-698.5C788.058,-680.506 741.777,-667.264 700.452,-658.788"/>
<polygon fill="black" stroke="black" points="701.119,-655.353 690.629,-656.842 699.758,-662.219 701.119,-655.353"/>
</g>
<!-- cam_power_strip&#45;&gt;camera_ac_in -->
<g id="edge16" class="edge"><title>cam_power_strip&#45;&gt;camera_ac_in</title>
<path fill="none" stroke="black" d="M798,-698.5C732.876,-580.627 825.409,-527.348 798,-395.5"/>
<path fill="none" stroke="black" d="M798,-393.5C796.616,-384.757 763.295,-349.192 739.3,-324.538"/>
<polygon fill="black" stroke="black" points="741.693,-321.979 732.198,-317.278 736.689,-326.874 741.693,-321.979"/>
</g>
<!-- cam_power_strip&#45;&gt;cam_box_ac_in -->
<g id="edge17" class="edge"><title>cam_power_strip&#45;&gt;cam_box_ac_in</title>
<path fill="none" stroke="black" d="M798,-393.5C785.834,-316.668 785.004,-224.498 785.465,-179.665"/>
<polygon fill="black" stroke="black" points="788.966,-179.622 785.6,-169.576 781.967,-179.528 788.966,-179.622"/>
</g>
<!-- speaker_power_strip -->
<g id="node22" class="node"><title>speaker_power_strip</title>
<polygon fill="none" stroke="black" points="1168,-755.5 998,-755.5 998,-717.5 1168,-717.5 1168,-755.5"/>
<text text-anchor="middle" x="1083" y="-740.3" font-family="Times,serif" font-size="14.00">speaker side power strip</text>
<text text-anchor="middle" x="1083" y="-725.3" font-family="Times,serif" font-size="14.00">&gt;=4 CEE 7/3 or 7/5 sockets</text>
</g>
<!-- speaker_power_strip&#45;&gt;speaker_laptop -->
<g id="edge18" class="edge"><title>speaker_power_strip&#45;&gt;speaker_laptop</title>
<path fill="none" stroke="black" d="M1083,-698.5C1085.75,-690.018 1100.69,-679.173 1116.61,-669.665"/>
<polygon fill="black" stroke="black" points="1118.57,-672.575 1125.48,-664.545 1115.07,-666.512 1118.57,-672.575"/>
</g>
<!-- speaker_power_strip&#45;&gt;speaker_box_ac_in -->
<g id="edge19" class="edge"><title>speaker_power_strip&#45;&gt;speaker_box_ac_in</title>
<path fill="none" stroke="black" d="M1080.82,-717.211C1080.71,-711.427 1081.19,-705.089 1083,-699.5"/>
<path fill="none" stroke="black" d="M1083,-698.5C1133.54,-542.476 986.88,-517.414 912,-371.5 904.341,-356.575 895.901,-339.829 889.12,-326.298"/>
<polygon fill="black" stroke="black" points="892.114,-324.461 884.51,-317.084 885.854,-327.594 892.114,-324.461"/>
</g>
</g>
</svg>
