<?xml version="1.0" encoding="UTF-8" standalone="no"?>
<!DOCTYPE svg PUBLIC "-//W3C//DTD SVG 1.1//EN"
 "http://www.w3.org/Graphics/SVG/1.1/DTD/svg11.dtd">
<!-- Generated by graphviz version 2.42.4 (0)
 -->
<!-- Title: G Pages: 1 -->
<svg width="2959pt" height="852pt"
 viewBox="0.00 0.00 2959.00 852.00" xmlns="http://www.w3.org/2000/svg" xmlns:xlink="http://www.w3.org/1999/xlink">
<g id="graph0" class="graph" transform="scale(1 1) rotate(0) translate(4 848)">
<title>G</title>
<polygon fill="white" stroke="transparent" points="-4,4 -4,-848 2955,-848 2955,4 -4,4"/>
<text text-anchor="middle" x="1475.5" y="-22.8" font-family="Times,serif" font-size="14.00">FOSDEM 2027 small rooms video cabling setup:</text>
<text text-anchor="middle" x="1475.5" y="-7.8" font-family="Times,serif" font-size="14.00">aw1120, aw1121, aw1125, aw1126, h2213, h2214, k3201, k3401, k4201, k4401, k4601, ud2119</text>
<g id="clust1" class="cluster">
<title>cluster_speaker_microphone_receiver</title>
<g id="a_clust1"><a xlink:href="https://en-us.sennheiser.com/global-downloads/file/6524/AVX_Manual_06_2015_EN.pdf" xlink:title="speaker microphone receiver\nsennheiser ekp avx receiver\nDC autonomy: &gt;4h (BA20 battery)\nAC autonomy: ∞\nphantom auto power on/off">
<polygon fill="none" stroke="black" points="1034,-529 1034,-749 1284,-749 1284,-529 1034,-529"/>
<text text-anchor="middle" x="1159" y="-733.8" font-family="Times,serif" font-size="14.00">speaker microphone receiver</text>
<text text-anchor="middle" x="1159" y="-718.8" font-family="Times,serif" font-size="14.00">sennheiser ekp avx receiver</text>
<text text-anchor="middle" x="1159" y="-703.8" font-family="Times,serif" font-size="14.00">DC autonomy: &gt;4h (BA20 battery)</text>
<text text-anchor="middle" x="1159" y="-688.8" font-family="Times,serif" font-size="14.00">AC autonomy: ∞</text>
<text text-anchor="middle" x="1159" y="-673.8" font-family="Times,serif" font-size="14.00">phantom auto power on/off</text>
</a>
</g>
</g>
<g id="clust2" class="cluster">
<title>cluster_camera</title>
<g id="a_clust2"><a xlink:href="https://pro.sony.com/bbsccms/assets/files/micro/nxcam/latest/Sony_HXR-NX100.pdf" xlink:title="camera\nSony HXR&#45;NX100">
<polygon fill="none" stroke="black" points="670,-120 670,-265 1443,-265 1443,-120 670,-120"/>
<text text-anchor="middle" x="1056.5" y="-249.8" font-family="Times,serif" font-size="14.00">camera</text>
<text text-anchor="middle" x="1056.5" y="-234.8" font-family="Times,serif" font-size="14.00">Sony HXR&#45;NX100</text>
</a>
</g>
</g>
<g id="clust5" class="cluster">
<title>cluster_cam_box</title>
<g id="a_clust5"><a xlink:href="https://github.com/FOSDEM/video" xlink:title="camera box">
<polygon fill="none" stroke="lightgrey" points="8,-127.5 8,-227.5 662,-227.5 662,-127.5 8,-127.5"/>
<text text-anchor="middle" x="335" y="-212.3" font-family="Times,serif" font-size="14.00">camera box</text>
</a>
</g>
</g>
<g id="clust6" class="cluster">
<title>cluster_speaker</title>
<polygon fill="none" stroke="lightgrey" points="1164,-326 1164,-496 2606,-496 2606,-326 1164,-326"/>
</g>
<g id="clust7" class="cluster">
<title>cluster_speaker_box</title>
<g id="a_clust7"><a xlink:href="https://github.com/FOSDEM/video" xlink:title="speaker video box">
<polygon fill="none" stroke="lightgrey" points="1172,-334 1172,-488 2598,-488 2598,-334 1172,-334"/>
<text text-anchor="middle" x="1885" y="-472.8" font-family="Times,serif" font-size="14.00">speaker video box</text>
</a>
</g>
</g>
<g id="clust8" class="cluster">
<title>cluster_mix_panel</title>
<g id="a_clust8"><a xlink:href="https://github.com/FOSDEM/video" xlink:title="audio mixer">
<polygon fill="none" stroke="lightgrey" points="1682,-342 1682,-457 2382,-457 2382,-342 1682,-342"/>
<text text-anchor="middle" x="2032" y="-441.8" font-family="Times,serif" font-size="14.00">audio mixer</text>
</a>
</g>
</g>
<!-- cam_power_strip -->
<g id="node1" class="node">
<title>cam_power_strip</title>
<polygon fill="none" stroke="black" points="818,-395.5 648,-395.5 648,-357.5 818,-357.5 818,-395.5"/>
<text text-anchor="middle" x="733" y="-380.3" font-family="Times,serif" font-size="14.00">camera side power strip</text>
<text text-anchor="middle" x="733" y="-365.3" font-family="Times,serif" font-size="14.00">&gt;=4 CEE 7/3 or 7/5 sockets</text>
</g>
<!-- camera_ac_in -->
<g id="node10" class="node">
<title>camera_ac_in</title>
<polygon fill="none" stroke="black" points="788,-172.5 678,-172.5 678,-136.5 788,-136.5 788,-172.5"/>
<text text-anchor="middle" x="733" y="-150.8" font-family="Times,serif" font-size="14.00">camera AC input</text>
</g>
<!-- cam_power_strip&#45;&gt;camera_ac_in -->
<g id="edge11" class="edge">
<title>cam_power_strip&#45;&gt;camera_ac_in</title>
<path fill="none" stroke="black" d="M733,-294.5C713.8,-259.68 719.31,-212.1 725.68,-182.61"/>
<polygon fill="black" stroke="black" points="729.15,-183.16 728.02,-172.62 722.34,-181.56 729.15,-183.16"/>
</g>
<!-- cam_box_ac_in -->
<g id="node12" class="node">
<title>cam_box_ac_in</title>
<polygon fill="lightgrey" stroke="black" points="322,-172.5 250,-172.5 250,-136.5 322,-136.5 322,-172.5"/>
<text text-anchor="middle" x="286" y="-150.8" font-family="Times,serif" font-size="14.00">ac adapter</text>
</g>
<!-- cam_power_strip&#45;&gt;cam_box_ac_in -->
<g id="edge12" class="edge">
<title>cam_power_strip&#45;&gt;cam_box_ac_in</title>
<path fill="none" stroke="black" d="M737.73,-357.33C741.07,-340.47 743.33,-315.24 733,-296.5"/>
<path fill="none" stroke="black" d="M733,-294.5C722.19,-274.89 349.13,-278.14 331,-265 304.64,-245.9 293.67,-208.52 289.14,-182.79"/>
<polygon fill="black" stroke="black" points="292.55,-181.92 287.57,-172.57 285.63,-182.98 292.55,-181.92"/>
</g>
<!-- speaker_microphone -->
<g id="node2" class="node">
<title>speaker_microphone</title>
<g id="a_node2"><a xlink:href="https://en-us.sennheiser.com/global-downloads/file/6524/AVX_Manual_06_2015_EN.pdf" xlink:title="speaker microphone\nsennheiser avx me2\nesk avx bodypack transmitter\nautonomy: 15h (BA30 battery)/11h (2x AA)">
<polygon fill="none" stroke="black" points="2951,-844 2693,-844 2693,-776 2951,-776 2951,-844"/>
<text text-anchor="middle" x="2822" y="-828.8" font-family="Times,serif" font-size="14.00">speaker microphone</text>
<text text-anchor="middle" x="2822" y="-813.8" font-family="Times,serif" font-size="14.00">sennheiser avx me2</text>
<text text-anchor="middle" x="2822" y="-798.8" font-family="Times,serif" font-size="14.00">esk avx bodypack transmitter</text>
<text text-anchor="middle" x="2822" y="-783.8" font-family="Times,serif" font-size="14.00">autonomy: 15h (BA30 battery)/11h (2x AA)</text>
</a>
</g>
</g>
<!-- speaker_microphone_receiver_usb_power_connector -->
<g id="node3" class="node">
<title>speaker_microphone_receiver_usb_power_connector</title>
<polygon fill="none" stroke="black" points="1155.5,-575 1042.5,-575 1042.5,-537 1155.5,-537 1155.5,-575"/>
<text text-anchor="middle" x="1099" y="-559.8" font-family="Times,serif" font-size="14.00">power input port</text>
<text text-anchor="middle" x="1099" y="-544.8" font-family="Times,serif" font-size="14.00">micro usb female</text>
</g>
<!-- speaker_microphone_receiver_xlr_connector -->
<g id="node4" class="node">
<title>speaker_microphone_receiver_xlr_connector</title>
<polygon fill="none" stroke="black" points="1276,-574 1174,-574 1174,-538 1276,-538 1276,-574"/>
<text text-anchor="middle" x="1225" y="-552.3" font-family="Times,serif" font-size="14.00">XLR male plug</text>
</g>
<!-- mix_panel_mic_3_in -->
<g id="node25" class="node">
<title>mix_panel_mic_3_in</title>
<polygon fill="lightgrey" stroke="black" points="2063.5,-403 1926.5,-403 1926.5,-350 2063.5,-350 2063.5,-403"/>
<text text-anchor="middle" x="1995" y="-387.8" font-family="Times,serif" font-size="14.00">mic 3 in</text>
<text text-anchor="middle" x="1995" y="-372.8" font-family="Times,serif" font-size="14.00">XLR female port</text>
<text text-anchor="middle" x="1995" y="-357.8" font-family="Times,serif" font-size="14.00">+48V phantom power</text>
</g>
<!-- speaker_microphone_receiver_xlr_connector&#45;&gt;mix_panel_mic_3_in -->
<g id="edge1" class="edge">
<title>speaker_microphone_receiver_xlr_connector&#45;&gt;mix_panel_mic_3_in</title>
<path fill="none" stroke="black" d="M1276.03,-553.21C1426.65,-547.56 1862.28,-528.57 1917,-496 1948.52,-477.24 1969.77,-440.2 1982.02,-412.5"/>
<polygon fill="black" stroke="black" points="1985.31,-413.71 1985.99,-403.13 1978.87,-410.98 1985.31,-413.71"/>
</g>
<!-- speaker_laptop -->
<g id="node5" class="node">
<title>speaker_laptop</title>
<polygon fill="none" stroke="black" points="2509.5,-574 2414.5,-574 2414.5,-538 2509.5,-538 2509.5,-574"/>
<text text-anchor="middle" x="2462" y="-552.3" font-family="Times,serif" font-size="14.00">speaker laptop</text>
</g>
<!-- speaker_box_hdmi_in -->
<g id="node18" class="node">
<title>speaker_box_hdmi_in</title>
<polygon fill="lightgrey" stroke="black" points="2500,-395.5 2392,-395.5 2392,-357.5 2500,-357.5 2500,-395.5"/>
<text text-anchor="middle" x="2446" y="-380.3" font-family="Times,serif" font-size="14.00">HDMI in</text>
<text text-anchor="middle" x="2446" y="-365.3" font-family="Times,serif" font-size="14.00">HDMI A female</text>
</g>
<!-- speaker_laptop&#45;&gt;speaker_box_hdmi_in -->
<g id="edge2" class="edge">
<title>speaker_laptop&#45;&gt;speaker_box_hdmi_in</title>
<path fill="none" stroke="black" d="M2427.31,-537.99C2420.35,-532.89 2413.97,-526.59 2410,-519 2390.68,-482.13 2410.96,-434.33 2427.99,-404.8"/>
<polygon fill="black" stroke="black" points="2431.19,-406.26 2433.35,-395.89 2425.19,-402.66 2431.19,-406.26"/>
<text text-anchor="middle" x="2493" y="-507.8" font-family="Times,serif" font-size="14.00">direct HDMI cable male/male</text>
</g>
<!-- camera_xlr_in -->
<g id="node6" class="node">
<title>camera_xlr_in</title>
<polygon fill="none" stroke="black" points="1434.5,-181 1305.5,-181 1305.5,-128 1434.5,-128 1434.5,-181"/>
<text text-anchor="middle" x="1370" y="-165.8" font-family="Times,serif" font-size="14.00">audio in CH1 (left)</text>
<text text-anchor="middle" x="1370" y="-150.8" font-family="Times,serif" font-size="14.00">XLR female port</text>
<text text-anchor="middle" x="1370" y="-135.8" font-family="Times,serif" font-size="14.00">48V phantom power</text>
</g>
<!-- camera_hdmi_out -->
<g id="node7" class="node">
<title>camera_hdmi_out</title>
<polygon fill="none" stroke="black" points="1287,-173.5 1123,-173.5 1123,-135.5 1287,-135.5 1287,-173.5"/>
<text text-anchor="middle" x="1205" y="-158.3" font-family="Times,serif" font-size="14.00">HDMI out</text>
<text text-anchor="middle" x="1205" y="-143.3" font-family="Times,serif" font-size="14.00">HDMI A (full size) female</text>
</g>
<!-- cam_box_hdmi_in -->
<g id="node13" class="node">
<title>cam_box_hdmi_in</title>
<polygon fill="lightgrey" stroke="black" points="504,-173.5 340,-173.5 340,-135.5 504,-135.5 504,-173.5"/>
<text text-anchor="middle" x="422" y="-158.3" font-family="Times,serif" font-size="14.00">HDMI in</text>
<text text-anchor="middle" x="422" y="-143.3" font-family="Times,serif" font-size="14.00">HDMI A (full size) female</text>
</g>
<!-- camera_hdmi_out&#45;&gt;cam_box_hdmi_in -->
<g id="edge3" class="edge">
<title>camera_hdmi_out&#45;&gt;cam_box_hdmi_in</title>
<path fill="none" stroke="black" d="M1193.81,-173.52C1178.59,-197.86 1149.2,-239.88 1114,-265 1096.43,-277.54 1089.74,-278.16 1068.5,-282 946.97,-303.96 623.67,-319.82 513,-265 477.54,-247.44 450.99,-208.97 435.98,-182.4"/>
<polygon fill="black" stroke="black" points="439.01,-180.66 431.16,-173.56 432.87,-184.01 439.01,-180.66"/>
<text text-anchor="middle" x="1015" y="-306.8" font-family="Times,serif" font-size="14.00">HDMI cable</text>
<text text-anchor="middle" x="1015" y="-291.8" font-family="Times,serif" font-size="14.00">HDMI A (full size)</text>
<text text-anchor="middle" x="1015" y="-276.8" font-family="Times,serif" font-size="14.00">male/male</text>
</g>
<!-- camera_internal_mic -->
<g id="node8" class="node">
<title>camera_internal_mic</title>
<polygon fill="none" stroke="black" points="1104.5,-173.5 975.5,-173.5 975.5,-135.5 1104.5,-135.5 1104.5,-173.5"/>
<text text-anchor="middle" x="1040" y="-158.3" font-family="Times,serif" font-size="14.00">audio in CH2 (right)</text>
<text text-anchor="middle" x="1040" y="-143.3" font-family="Times,serif" font-size="14.00">internal microphone</text>
</g>
<!-- camera_audio_monitor -->
<g id="node9" class="node">
<title>camera_audio_monitor</title>
<polygon fill="none" stroke="black" points="957.5,-173.5 806.5,-173.5 806.5,-135.5 957.5,-135.5 957.5,-173.5"/>
<text text-anchor="middle" x="882" y="-158.3" font-family="Times,serif" font-size="14.00">audio monitoring port</text>
<text text-anchor="middle" x="882" y="-143.3" font-family="Times,serif" font-size="14.00">3.5mm trs stereo female</text>
</g>
<!-- headphones -->
<g id="node30" class="node">
<title>headphones</title>
<g id="a_node30"><a xlink:href="https://www.sennheiser.com/en-us/catalog/products/headphones/hd-25/hd-25-506909" xlink:title="Sennheiser HD25 headphones\n3.5mm trs stereo male\nrental budgetcam">
<polygon fill="none" stroke="black" points="972,-91 792,-91 792,-38 972,-38 972,-91"/>
<text text-anchor="middle" x="882" y="-75.8" font-family="Times,serif" font-size="14.00">Sennheiser HD25 headphones</text>
<text text-anchor="middle" x="882" y="-60.8" font-family="Times,serif" font-size="14.00">3.5mm trs stereo male</text>
<text text-anchor="middle" x="882" y="-45.8" font-family="Times,serif" font-size="14.00">rental budgetcam</text>
</a>
</g>
</g>
<!-- camera_audio_monitor&#45;&gt;headphones -->
<g id="edge5" class="edge">
<title>camera_audio_monitor&#45;&gt;headphones</title>
<path fill="none" stroke="black" d="M882,-135.27C882,-125.38 882,-112.8 882,-101.07"/>
<polygon fill="black" stroke="black" points="885.5,-101.05 882,-91.05 878.5,-101.05 885.5,-101.05"/>
</g>
<!-- fosdem_speaker -->
<g id="node11" class="node">
<title>fosdem_speaker</title>
<g id="a_node11"><a xlink:href="https://www.thomann.de/intl/the_box_pro_achat_104_a.htm" xlink:title="FOSDEM speaker\nthebox pro 104a">
<polygon fill="none" stroke="black" points="1916.5,-173.5 1799.5,-173.5 1799.5,-135.5 1916.5,-135.5 1916.5,-173.5"/>
<text text-anchor="middle" x="1858" y="-158.3" font-family="Times,serif" font-size="14.00">FOSDEM speaker</text>
<text text-anchor="middle" x="1858" y="-143.3" font-family="Times,serif" font-size="14.00">thebox pro 104a</text>
</a>
</g>
</g>
<!-- cam_box_switch -->
<g id="node14" class="node">
<title>cam_box_switch</title>
<polygon fill="lightgrey" stroke="black" points="654,-172.5 522,-172.5 522,-136.5 654,-136.5 654,-172.5"/>
<text text-anchor="middle" x="588" y="-150.8" font-family="Times,serif" font-size="14.00">4x Gbit dumb switch</text>
</g>
<!-- cam_box_usb -->
<g id="node15" class="node">
<title>cam_box_usb</title>
<polygon fill="lightgrey" stroke="black" points="232,-172.5 178,-172.5 178,-136.5 232,-136.5 232,-172.5"/>
<text text-anchor="middle" x="205" y="-150.8" font-family="Times,serif" font-size="14.00">USB 3</text>
</g>
<!-- cam_box_usb_power -->
<g id="node16" class="node">
<title>cam_box_usb_power</title>
<polygon fill="lightgrey" stroke="black" points="159.5,-172.5 16.5,-172.5 16.5,-136.5 159.5,-136.5 159.5,-172.5"/>
<text text-anchor="middle" x="88" y="-150.8" font-family="Times,serif" font-size="14.00">USB power 4x 500mA</text>
</g>
<!-- cam_box_usb_power&#45;&gt;speaker_microphone_receiver_usb_power_connector -->
<g id="edge8" class="edge">
<title>cam_box_usb_power&#45;&gt;speaker_microphone_receiver_usb_power_connector</title>
<path fill="none" stroke="black" d="M97.2,-172.69C110.44,-196.1 136.86,-238.19 169,-265 347.71,-414.12 416.11,-428.95 639,-496 774.68,-536.81 941.17,-549.39 1032.02,-553.27"/>
<polygon fill="black" stroke="black" points="1032.04,-556.78 1042.18,-553.68 1032.33,-549.78 1032.04,-556.78"/>
</g>
<!-- speaker_box_ac_in -->
<g id="node17" class="node">
<title>speaker_box_ac_in</title>
<polygon fill="lightgrey" stroke="black" points="2590,-394.5 2518,-394.5 2518,-358.5 2590,-358.5 2590,-394.5"/>
<text text-anchor="middle" x="2554" y="-372.8" font-family="Times,serif" font-size="14.00">ac adapter</text>
</g>
<!-- speaker_box_hdmi_out -->
<g id="node19" class="node">
<title>speaker_box_hdmi_out</title>
<polygon fill="lightgrey" stroke="black" points="1672,-395.5 1564,-395.5 1564,-357.5 1672,-357.5 1672,-395.5"/>
<text text-anchor="middle" x="1618" y="-380.3" font-family="Times,serif" font-size="14.00">HDMI out</text>
<text text-anchor="middle" x="1618" y="-365.3" font-family="Times,serif" font-size="14.00">HDMI A female</text>
</g>
<!-- room_projector -->
<g id="node29" class="node">
<title>room_projector</title>
<polygon fill="none" stroke="black" points="1756.5,-181 1603.5,-181 1603.5,-128 1756.5,-128 1756.5,-181"/>
<text text-anchor="middle" x="1680" y="-165.8" font-family="Times,serif" font-size="14.00">room projector HDMI in</text>
<text text-anchor="middle" x="1680" y="-150.8" font-family="Times,serif" font-size="14.00">HDMI port</text>
<text text-anchor="middle" x="1680" y="-135.8" font-family="Times,serif" font-size="14.00">female</text>
</g>
<!-- speaker_box_hdmi_out&#45;&gt;room_projector -->
<g id="edge4" class="edge">
<title>speaker_box_hdmi_out&#45;&gt;room_projector</title>
<path fill="none" stroke="black" d="M1623.07,-357.5C1633.31,-321.17 1656.61,-238.5 1670.01,-190.95"/>
<polygon fill="black" stroke="black" points="1673.45,-191.65 1672.79,-181.08 1666.71,-189.76 1673.45,-191.65"/>
<text text-anchor="middle" x="1680" y="-299.3" font-family="Times,serif" font-size="14.00">HDMI cable</text>
<text text-anchor="middle" x="1680" y="-284.3" font-family="Times,serif" font-size="14.00">male/male</text>
</g>
<!-- speaker_box_switch -->
<g id="node20" class="node">
<title>speaker_box_switch</title>
<polygon fill="lightgrey" stroke="black" points="1546,-394.5 1414,-394.5 1414,-358.5 1546,-358.5 1546,-394.5"/>
<text text-anchor="middle" x="1480" y="-372.8" font-family="Times,serif" font-size="14.00">4x Gbit dumb switch</text>
</g>
<!-- speaker_box_switch&#45;&gt;cam_box_switch -->
<g id="edge7" class="edge">
<title>speaker_box_switch&#45;&gt;cam_box_switch</title>
<path fill="none" stroke="black" d="M1453.02,-352.27C1439.54,-342.14 1422.41,-331.37 1405,-326 1349.25,-308.8 937.49,-327.91 880,-318 818.5,-307.4 808,-286.15 747,-273 729.32,-269.19 681.65,-274.07 666,-265 633.59,-246.22 611.16,-207.95 598.93,-182.01"/>
<polygon fill="black" stroke="black" points="1450.88,-355.04 1460.92,-358.43 1455.19,-349.52 1450.88,-355.04"/>
<polygon fill="black" stroke="black" points="602.05,-180.41 594.75,-172.73 595.67,-183.29 602.05,-180.41"/>
<text text-anchor="middle" x="918.5" y="-291.8" font-family="Times,serif" font-size="14.00">ethernet cable</text>
</g>
<!-- video_vlan -->
<g id="node31" class="node">
<title>video_vlan</title>
<polygon fill="none" stroke="black" stroke-dasharray="1,5" points="1585.5,-172.5 1452.5,-172.5 1452.5,-136.5 1585.5,-136.5 1585.5,-172.5"/>
<text text-anchor="middle" x="1519" y="-150.8" font-family="Times,serif" font-size="14.00">FOSDEM video vlan</text>
</g>
<!-- speaker_box_switch&#45;&gt;video_vlan -->
<g id="edge6" class="edge">
<title>speaker_box_switch&#45;&gt;video_vlan</title>
<path fill="none" stroke="black" d="M1484.86,-348.1C1492.36,-305.79 1506.67,-225.03 1514.16,-182.79"/>
<polygon fill="black" stroke="black" points="1481.36,-347.78 1483.06,-358.24 1488.25,-349 1481.36,-347.78"/>
<polygon fill="black" stroke="black" points="1517.65,-183.14 1515.95,-172.68 1510.76,-181.92 1517.65,-183.14"/>
<text text-anchor="middle" x="1535.5" y="-291.8" font-family="Times,serif" font-size="14.00">ethernet cable</text>
</g>
<!-- speaker_box_usb -->
<g id="node21" class="node">
<title>speaker_box_usb</title>
<polygon fill="lightgrey" stroke="black" points="1396,-394.5 1342,-394.5 1342,-358.5 1396,-358.5 1396,-394.5"/>
<text text-anchor="middle" x="1369" y="-372.8" font-family="Times,serif" font-size="14.00">USB 3</text>
</g>
<!-- speaker_box_usb_power -->
<g id="node22" class="node">
<title>speaker_box_usb_power</title>
<polygon fill="lightgrey" stroke="black" points="1323.5,-394.5 1180.5,-394.5 1180.5,-358.5 1323.5,-358.5 1323.5,-394.5"/>
<text text-anchor="middle" x="1252" y="-372.8" font-family="Times,serif" font-size="14.00">USB power 4x 500mA</text>
</g>
<!-- mix_panel_mic_1_in -->
<g id="node23" class="node">
<title>mix_panel_mic_1_in</title>
<polygon fill="lightgrey" stroke="black" points="2373.5,-403 2236.5,-403 2236.5,-350 2373.5,-350 2373.5,-403"/>
<text text-anchor="middle" x="2305" y="-387.8" font-family="Times,serif" font-size="14.00">mic 1 in</text>
<text text-anchor="middle" x="2305" y="-372.8" font-family="Times,serif" font-size="14.00">XLR female port</text>
<text text-anchor="middle" x="2305" y="-357.8" font-family="Times,serif" font-size="14.00">+48V phantom power</text>
</g>
<!-- mix_panel_mic_2_in -->
<g id="node24" class="node">
<title>mix_panel_mic_2_in</title>
<polygon fill="lightgrey" stroke="black" points="2218.5,-403 2081.5,-403 2081.5,-350 2218.5,-350 2218.5,-403"/>
<text text-anchor="middle" x="2150" y="-387.8" font-family="Times,serif" font-size="14.00">mic 2 in</text>
<text text-anchor="middle" x="2150" y="-372.8" font-family="Times,serif" font-size="14.00">XLR female port</text>
<text text-anchor="middle" x="2150" y="-357.8" font-family="Times,serif" font-size="14.00">+48V phantom power</text>
</g>
<!-- mix_panel_out_1 -->
<g id="node26" class="node">
<title>mix_panel_out_1</title>
<polygon fill="lightgrey" stroke="black" points="1790,-403 1690,-403 1690,-350 1790,-350 1790,-403"/>
<text text-anchor="middle" x="1740" y="-387.8" font-family="Times,serif" font-size="14.00">XLR out 1</text>
<text text-anchor="middle" x="1740" y="-372.8" font-family="Times,serif" font-size="14.00">male port</text>
<text text-anchor="middle" x="1740" y="-357.8" font-family="Times,serif" font-size="14.00">balanced mono</text>
</g>
<!-- mix_panel_out_1&#45;&gt;camera_xlr_in -->
<g id="edge9" class="edge">
<title>mix_panel_out_1&#45;&gt;camera_xlr_in</title>
<path fill="none" stroke="black" d="M1742.8,-349.6C1743.78,-325.74 1740.83,-291.35 1719,-273 1695.6,-253.33 1470.79,-279.73 1444,-265 1414.94,-249.02 1395.11,-216.18 1383.34,-190.61"/>
<polygon fill="black" stroke="black" points="1386.45,-188.97 1379.23,-181.22 1380.04,-191.78 1386.45,-188.97"/>
</g>
<!-- mix_panel_out_2 -->
<g id="node27" class="node">
<title>mix_panel_out_2</title>
<polygon fill="lightgrey" stroke="black" points="1908,-403 1808,-403 1808,-350 1908,-350 1908,-403"/>
<text text-anchor="middle" x="1858" y="-387.8" font-family="Times,serif" font-size="14.00">XLR out 2</text>
<text text-anchor="middle" x="1858" y="-372.8" font-family="Times,serif" font-size="14.00">male port</text>
<text text-anchor="middle" x="1858" y="-357.8" font-family="Times,serif" font-size="14.00">balanced mono</text>
</g>
<!-- mix_panel_out_2&#45;&gt;fosdem_speaker -->
<g id="edge10" class="edge">
<title>mix_panel_out_2&#45;&gt;fosdem_speaker</title>
<path fill="none" stroke="black" d="M1858,-349.83C1858,-308.35 1858,-226.88 1858,-183.78"/>
<polygon fill="black" stroke="black" points="1861.5,-183.7 1858,-173.7 1854.5,-183.7 1861.5,-183.7"/>
</g>
<!-- speaker_power_strip -->
<g id="node28" class="node">
<title>speaker_power_strip</title>
<polygon fill="none" stroke="black" points="2675,-829 2505,-829 2505,-791 2675,-791 2675,-829"/>
<text text-anchor="middle" x="2590" y="-813.8" font-family="Times,serif" font-size="14.00">speaker side power strip</text>
<text text-anchor="middle" x="2590" y="-798.8" font-family="Times,serif" font-size="14.00">&gt;=4 CEE 7/3 or 7/5 sockets</text>
</g>
<!-- speaker_power_strip&#45;&gt;speaker_laptop -->
<g id="edge13" class="edge">
<title>speaker_power_strip&#45;&gt;speaker_laptop</title>
<path fill="none" stroke="black" d="M2591.34,-790.96C2591.73,-781.15 2591.68,-768.85 2590,-758"/>
<path fill="none" stroke="black" d="M2590,-757C2588.9,-749.92 2581.11,-754.03 2576,-749 2525.68,-699.51 2489.27,-623.3 2472.44,-583.41"/>
<polygon fill="black" stroke="black" points="2475.64,-581.99 2468.59,-574.09 2469.17,-584.66 2475.64,-581.99"/>
</g>
<!-- speaker_power_strip&#45;&gt;speaker_box_ac_in -->
<g id="edge14" class="edge">
<title>speaker_power_strip&#45;&gt;speaker_box_ac_in</title>
<path fill="none" stroke="black" d="M2590,-757C2572.75,-645.71 2588.78,-615.89 2576,-504 2572.06,-469.51 2564.77,-430.16 2559.67,-404.63"/>
<polygon fill="black" stroke="black" points="2563.05,-403.7 2557.63,-394.6 2556.19,-405.09 2563.05,-403.7"/>
</g>
</g>
</svg>
