<?xml version="1.0" encoding="UTF-8" standalone="no"?>
<!DOCTYPE svg PUBLIC "-//W3C//DTD SVG 1.1//EN"
 "http://www.w3.org/Graphics/SVG/1.1/DTD/svg11.dtd">
<!-- Generated by graphviz version 9.0.0 (0)
 -->
<!-- Title: G Pages: 1 -->
<svg width="1413pt" height="754pt"
 viewBox="0.00 0.00 1412.50 754.25" xmlns="http://www.w3.org/2000/svg" xmlns:xlink="http://www.w3.org/1999/xlink">
<g id="graph0" class="graph" transform="scale(1 1) rotate(0) translate(4 750.25)">
<title>G</title>
<polygon fill="white" stroke="none" points="-4,4 -4,-750.25 1408.5,-750.25 1408.5,4 -4,4"/>
<text text-anchor="middle" x="702.25" y="-23.7" font-family="Times,serif" font-size="14.00">FOSDEM 2024 12 small rooms video cabling setup:</text>
<text text-anchor="middle" x="702.25" y="-7.2" font-family="Times,serif" font-size="14.00">aw1120, aw1121, aw1125, aw1126, h2213, h2214, k3201, k3401, k4201, k4401, k4601, ud2119</text>
<g id="clust1" class="cluster">
<title>cluster_speaker_microphone_receiver</title>
<g id="a_clust1"><a xlink:href="https://en-us.sennheiser.com/global-downloads/file/6524/AVX_Manual_06_2015_EN.pdf" xlink:title="speaker microphone receiver\nsennheiser ekp avx receiver\nDC autonomy: &gt;4h (BA20 battery)\nAC autonomy: ∞\nphantom auto power on/off">
<polygon fill="none" stroke="black" points="607.5,-465.75 607.5,-613.25 855.5,-613.25 855.5,-465.75 607.5,-465.75"/>
<text text-anchor="middle" x="731.5" y="-595.95" font-family="Times,serif" font-size="14.00">speaker microphone receiver</text>
<text text-anchor="middle" x="731.5" y="-579.45" font-family="Times,serif" font-size="14.00">sennheiser ekp avx receiver</text>
<text text-anchor="middle" x="731.5" y="-562.95" font-family="Times,serif" font-size="14.00">DC autonomy: &gt;4h (BA20 battery)</text>
<text text-anchor="middle" x="731.5" y="-546.45" font-family="Times,serif" font-size="14.00">AC autonomy: ∞</text>
<text text-anchor="middle" x="731.5" y="-529.95" font-family="Times,serif" font-size="14.00">phantom auto power on/off</text>
</a>
</g>
</g>
<g id="clust2" class="cluster">
<title>cluster_camera</title>
<g id="a_clust2"><a xlink:href="https://pro.sony.com/bbsccms/assets/files/micro/nxcam/latest/Sony_HXR-NX100.pdf" xlink:title="camera\nSony HXR&#45;NX100">
<polygon fill="none" stroke="black" points="104.5,-316.75 104.5,-431.25 868.5,-431.25 868.5,-316.75 104.5,-316.75"/>
<text text-anchor="middle" x="486.5" y="-413.95" font-family="Times,serif" font-size="14.00">camera</text>
<text text-anchor="middle" x="486.5" y="-397.45" font-family="Times,serif" font-size="14.00">Sony HXR&#45;NX100</text>
</a>
</g>
</g>
<g id="clust4" class="cluster">
<title>cluster_cam_box</title>
<g id="a_clust4"><a xlink:href="https://github.com/FOSDEM/video" xlink:title="camera box">
<polygon fill="none" stroke="lightgrey" points="472.5,-167.75 472.5,-249.25 872.5,-249.25 872.5,-167.75 472.5,-167.75"/>
<text text-anchor="middle" x="672.5" y="-231.95" font-family="Times,serif" font-size="14.00">camera box</text>
</a>
</g>
</g>
<g id="clust5" class="cluster">
<title>cluster_speaker_box</title>
<g id="a_clust5"><a xlink:href="https://github.com/FOSDEM/video" xlink:title="speaker box">
<polygon fill="none" stroke="lightgrey" points="876.5,-316.75 876.5,-414.75 1340.5,-414.75 1340.5,-316.75 876.5,-316.75"/>
<text text-anchor="middle" x="1108.5" y="-397.45" font-family="Times,serif" font-size="14.00">speaker box</text>
</a>
</g>
</g>
<!-- cam_power_strip -->
<g id="node1" class="node">
<title>cam_power_strip</title>
<polygon fill="none" stroke="black" points="169,-514.75 0,-514.75 0,-473.75 169,-473.75 169,-514.75"/>
<text text-anchor="middle" x="84.5" y="-497.45" font-family="Times,serif" font-size="14.00">camera side power strip</text>
<text text-anchor="middle" x="84.5" y="-480.95" font-family="Times,serif" font-size="14.00">&gt;=4 CEE 7/3 or 7/5 sockets</text>
</g>
<!-- camera_ac_in -->
<g id="node12" class="node">
<title>camera_ac_in</title>
<polygon fill="none" stroke="black" points="222,-371.5 113,-371.5 113,-335.5 222,-335.5 222,-371.5"/>
<text text-anchor="middle" x="167.5" y="-348.45" font-family="Times,serif" font-size="14.00">camera AC input</text>
</g>
<!-- cam_power_strip&#45;&gt;camera_ac_in -->
<g id="edge12" class="edge">
<title>cam_power_strip&#45;&gt;camera_ac_in</title>
<path fill="none" stroke="black" d="M84.5,-446.5C86.4,-437.5 92.31,-438.06 98.5,-431.25 113.91,-414.29 131.14,-395.12 144.53,-380.18"/>
<polygon fill="black" stroke="black" points="146.86,-382.83 150.92,-373.05 141.64,-378.16 146.86,-382.83"/>
</g>
<!-- cam_box_ac_in -->
<g id="node15" class="node">
<title>cam_box_ac_in</title>
<polygon fill="lightgrey" stroke="black" points="534.5,-214.25 480.5,-214.25 480.5,-178.25 534.5,-178.25 534.5,-214.25"/>
<text text-anchor="middle" x="507.5" y="-191.2" font-family="Times,serif" font-size="14.00">AC in</text>
</g>
<!-- cam_power_strip&#45;&gt;cam_box_ac_in -->
<g id="edge13" class="edge">
<title>cam_power_strip&#45;&gt;cam_box_ac_in</title>
<path fill="none" stroke="black" d="M82.75,-473.46C82.51,-465.62 82.8,-456.56 84.5,-448.5"/>
<path fill="none" stroke="black" d="M84.5,-446.5C96.49,-389.65 61.24,-359.59 100.5,-316.75 197.83,-210.55 283.04,-300.92 417.5,-249.25 436.75,-241.85 456.75,-230.7 472.99,-220.61"/>
<polygon fill="black" stroke="black" points="474.74,-223.65 481.3,-215.33 470.99,-217.74 474.74,-223.65"/>
</g>
<!-- usb_powerbank -->
<g id="node2" class="node">
<title>usb_powerbank</title>
<polygon fill="none" stroke="black" points="671.5,-729.75 565.5,-729.75 565.5,-688.75 671.5,-688.75 671.5,-729.75"/>
<text text-anchor="middle" x="618.5" y="-712.45" font-family="Times,serif" font-size="14.00">USB powerbank</text>
<text text-anchor="middle" x="618.5" y="-695.95" font-family="Times,serif" font-size="14.00">10.4k mAh</text>
</g>
<!-- speaker_microphone_receiver_usb_power_connector -->
<g id="node4" class="node">
<title>speaker_microphone_receiver_usb_power_connector</title>
<polygon fill="none" stroke="black" points="727.5,-514.75 615.5,-514.75 615.5,-473.75 727.5,-473.75 727.5,-514.75"/>
<text text-anchor="middle" x="671.5" y="-497.45" font-family="Times,serif" font-size="14.00">power input port</text>
<text text-anchor="middle" x="671.5" y="-480.95" font-family="Times,serif" font-size="14.00">micro usb female</text>
</g>
<!-- usb_powerbank&#45;&gt;speaker_microphone_receiver_usb_power_connector -->
<g id="edge2" class="edge">
<title>usb_powerbank&#45;&gt;speaker_microphone_receiver_usb_power_connector</title>
<path fill="none" stroke="black" d="M623.39,-688.59C632.64,-651.44 652.74,-570.65 663.81,-526.17"/>
<polygon fill="black" stroke="black" points="667.16,-527.19 666.18,-516.64 660.37,-525.5 667.16,-527.19"/>
<text text-anchor="middle" x="714.62" y="-640.95" font-family="Times,serif" font-size="14.00">USB A &#45;&gt; micro USB cable</text>
<text text-anchor="middle" x="714.62" y="-624.45" font-family="Times,serif" font-size="14.00">included in mic kit</text>
</g>
<!-- speaker_microphone -->
<g id="node3" class="node">
<title>speaker_microphone</title>
<g id="a_node3"><a xlink:href="https://en-us.sennheiser.com/global-downloads/file/6524/AVX_Manual_06_2015_EN.pdf" xlink:title="speaker microphone\nsennheiser avx me2\nesk avx bodypack transmitter\nautonomy: 15h (BA30 battery)/11h (2x AA)">
<polygon fill="none" stroke="black" points="947.25,-746.25 689.75,-746.25 689.75,-672.25 947.25,-672.25 947.25,-746.25"/>
<text text-anchor="middle" x="818.5" y="-728.95" font-family="Times,serif" font-size="14.00">speaker microphone</text>
<text text-anchor="middle" x="818.5" y="-712.45" font-family="Times,serif" font-size="14.00">sennheiser avx me2</text>
<text text-anchor="middle" x="818.5" y="-695.95" font-family="Times,serif" font-size="14.00">esk avx bodypack transmitter</text>
<text text-anchor="middle" x="818.5" y="-679.45" font-family="Times,serif" font-size="14.00">autonomy: 15h (BA30 battery)/11h (2x AA)</text>
</a>
</g>
</g>
<!-- speaker_microphone_receiver_xlr_connector -->
<g id="node5" class="node">
<title>speaker_microphone_receiver_xlr_connector</title>
<polygon fill="none" stroke="black" points="847.25,-512.25 745.75,-512.25 745.75,-476.25 847.25,-476.25 847.25,-512.25"/>
<text text-anchor="middle" x="796.5" y="-489.2" font-family="Times,serif" font-size="14.00">XLR male plug</text>
</g>
<!-- speaker_microphone&#45;&gt;speaker_microphone_receiver_xlr_connector -->
<g id="edge1" class="edge">
<title>speaker_microphone&#45;&gt;speaker_microphone_receiver_xlr_connector</title>
<path fill="none" stroke="black" stroke-dasharray="5,2" d="M814.77,-672.12C813.34,-658.33 811.63,-641.7 809.82,-624.22"/>
<polygon fill="black" stroke="black" points="813.35,-624.34 808.84,-614.75 806.39,-625.06 813.35,-624.34"/>
<text text-anchor="middle" x="859.75" y="-632.7" font-family="Times,serif" font-size="14.00">1.9 GHz wireless</text>
</g>
<!-- camera_xlr_in -->
<g id="node8" class="node">
<title>camera_xlr_in</title>
<polygon fill="none" stroke="black" points="860.38,-382.25 732.62,-382.25 732.62,-324.75 860.38,-324.75 860.38,-382.25"/>
<text text-anchor="middle" x="796.5" y="-364.95" font-family="Times,serif" font-size="14.00">audio in CH1</text>
<text text-anchor="middle" x="796.5" y="-348.45" font-family="Times,serif" font-size="14.00">XLR female port</text>
<text text-anchor="middle" x="796.5" y="-331.95" font-family="Times,serif" font-size="14.00">48V phantom power</text>
</g>
<!-- speaker_microphone_receiver_xlr_connector&#45;&gt;camera_xlr_in -->
<g id="edge3" class="edge">
<title>speaker_microphone_receiver_xlr_connector&#45;&gt;camera_xlr_in</title>
<path fill="none" stroke="black" d="M796.5,-475.96C796.5,-455.58 796.5,-421.08 796.5,-394.04"/>
<polygon fill="black" stroke="black" points="800,-394.11 796.5,-384.11 793,-394.11 800,-394.11"/>
<text text-anchor="middle" x="864.38" y="-442.45" font-family="Times,serif" font-size="14.00">direct xlr plug (no cable)</text>
</g>
<!-- speaker_laptop -->
<g id="node6" class="node">
<title>speaker_laptop</title>
<polygon fill="none" stroke="black" points="1261.88,-512.25 1167.12,-512.25 1167.12,-476.25 1261.88,-476.25 1261.88,-512.25"/>
<text text-anchor="middle" x="1214.5" y="-489.2" font-family="Times,serif" font-size="14.00">speaker laptop</text>
</g>
<!-- speaker_box_hdmi_in -->
<g id="node16" class="node">
<title>speaker_box_hdmi_in</title>
<polygon fill="lightgrey" stroke="black" points="1332.5,-382.25 1232.5,-382.25 1232.5,-324.75 1332.5,-324.75 1332.5,-382.25"/>
<text text-anchor="middle" x="1282.5" y="-364.95" font-family="Times,serif" font-size="14.00">HDMI in</text>
<text text-anchor="middle" x="1282.5" y="-348.45" font-family="Times,serif" font-size="14.00">left HDMI port</text>
<text text-anchor="middle" x="1282.5" y="-331.95" font-family="Times,serif" font-size="14.00">female</text>
</g>
<!-- speaker_laptop&#45;&gt;speaker_box_hdmi_in -->
<g id="edge4" class="edge">
<title>speaker_laptop&#45;&gt;speaker_box_hdmi_in</title>
<path fill="none" stroke="black" d="M1222.97,-475.96C1233.14,-455.22 1250.48,-419.84 1263.83,-392.59"/>
<polygon fill="black" stroke="black" points="1266.8,-394.48 1268.06,-383.96 1260.52,-391.4 1266.8,-394.48"/>
<text text-anchor="middle" x="1322" y="-442.45" font-family="Times,serif" font-size="14.00">direct HDMI cable male/male</text>
</g>
<!-- room_projector_optional_adapter -->
<g id="node7" class="node">
<title>room_projector_optional_adapter</title>
<polygon fill="none" stroke="black" stroke-dasharray="1,5" points="1380.62,-214.25 1212.38,-214.25 1212.38,-178.25 1380.62,-178.25 1380.62,-214.25"/>
<text text-anchor="middle" x="1296.5" y="-191.2" font-family="Times,serif" font-size="14.00">optional vga&#45;&gt;hdmi adapter</text>
</g>
<!-- room_projector -->
<g id="node21" class="node">
<title>room_projector</title>
<polygon fill="none" stroke="black" points="1217.75,-98.5 1065.25,-98.5 1065.25,-41 1217.75,-41 1217.75,-98.5"/>
<text text-anchor="middle" x="1141.5" y="-81.2" font-family="Times,serif" font-size="14.00">room projector HDMI in</text>
<text text-anchor="middle" x="1141.5" y="-64.7" font-family="Times,serif" font-size="14.00">HDMI port</text>
<text text-anchor="middle" x="1141.5" y="-48.2" font-family="Times,serif" font-size="14.00">female</text>
</g>
<!-- room_projector_optional_adapter&#45;&gt;room_projector -->
<g id="edge5" class="edge">
<title>room_projector_optional_adapter&#45;&gt;room_projector</title>
<path fill="none" stroke="black" stroke-dasharray="1,5" d="M1274.95,-177.94C1251.88,-159.41 1214.65,-129.51 1185.37,-105.99"/>
<polygon fill="black" stroke="black" points="1187.73,-103.39 1177.74,-99.86 1183.35,-108.85 1187.73,-103.39"/>
<text text-anchor="middle" x="1266.88" y="-136.2" font-family="Times,serif" font-size="14.00">VGA cable</text>
<text text-anchor="middle" x="1266.88" y="-119.7" font-family="Times,serif" font-size="14.00">male/male</text>
</g>
<!-- camera_hdmi_out -->
<g id="node9" class="node">
<title>camera_hdmi_out</title>
<polygon fill="none" stroke="black" points="714.25,-374 552.75,-374 552.75,-333 714.25,-333 714.25,-374"/>
<text text-anchor="middle" x="633.5" y="-356.7" font-family="Times,serif" font-size="14.00">HDMI out</text>
<text text-anchor="middle" x="633.5" y="-340.2" font-family="Times,serif" font-size="14.00">HDMI A (full size) female</text>
</g>
<!-- cam_box_hdmi_in -->
<g id="node13" class="node">
<title>cam_box_hdmi_in</title>
<polygon fill="lightgrey" stroke="black" points="714.25,-216.75 552.75,-216.75 552.75,-175.75 714.25,-175.75 714.25,-216.75"/>
<text text-anchor="middle" x="633.5" y="-199.45" font-family="Times,serif" font-size="14.00">HDMI in</text>
<text text-anchor="middle" x="633.5" y="-182.95" font-family="Times,serif" font-size="14.00">HDMI A (full size) female</text>
</g>
<!-- camera_hdmi_out&#45;&gt;cam_box_hdmi_in -->
<g id="edge7" class="edge">
<title>camera_hdmi_out&#45;&gt;cam_box_hdmi_in</title>
<path fill="none" stroke="black" d="M633.5,-332.52C633.5,-306.2 633.5,-259.64 633.5,-228.6"/>
<polygon fill="black" stroke="black" points="637,-228.67 633.5,-218.67 630,-228.67 637,-228.67"/>
<text text-anchor="middle" x="685.62" y="-293.45" font-family="Times,serif" font-size="14.00">HDMI cable</text>
<text text-anchor="middle" x="685.62" y="-276.95" font-family="Times,serif" font-size="14.00">HDMI A (full size)</text>
<text text-anchor="middle" x="685.62" y="-260.45" font-family="Times,serif" font-size="14.00">male/male</text>
</g>
<!-- camera_internal_mic -->
<g id="node10" class="node">
<title>camera_internal_mic</title>
<polygon fill="none" stroke="black" points="534.62,-374 408.38,-374 408.38,-333 534.62,-333 534.62,-374"/>
<text text-anchor="middle" x="471.5" y="-356.7" font-family="Times,serif" font-size="14.00">audio in CH2</text>
<text text-anchor="middle" x="471.5" y="-340.2" font-family="Times,serif" font-size="14.00">internal microphone</text>
</g>
<!-- camera_audio_monitor -->
<g id="node11" class="node">
<title>camera_audio_monitor</title>
<polygon fill="none" stroke="black" points="390.62,-374 240.38,-374 240.38,-333 390.62,-333 390.62,-374"/>
<text text-anchor="middle" x="315.5" y="-356.7" font-family="Times,serif" font-size="14.00">audio monitoring port</text>
<text text-anchor="middle" x="315.5" y="-340.2" font-family="Times,serif" font-size="14.00">3.5mm trs stereo female</text>
</g>
<!-- headphones -->
<g id="node22" class="node">
<title>headphones</title>
<g id="a_node22"><a xlink:href="https://en-us.sennheiser.com/over-ear-headphones-hd-201" xlink:title="Sennheiser HD201 headphones\n3.5mm trs stereo male\nrental budgetcam">
<polygon fill="none" stroke="black" points="408.62,-225 222.38,-225 222.38,-167.5 408.62,-167.5 408.62,-225"/>
<text text-anchor="middle" x="315.5" y="-207.7" font-family="Times,serif" font-size="14.00">Sennheiser HD201 headphones</text>
<text text-anchor="middle" x="315.5" y="-191.2" font-family="Times,serif" font-size="14.00">3.5mm trs stereo male</text>
<text text-anchor="middle" x="315.5" y="-174.7" font-family="Times,serif" font-size="14.00">rental budgetcam</text>
</a>
</g>
</g>
<!-- camera_audio_monitor&#45;&gt;headphones -->
<g id="edge9" class="edge">
<title>camera_audio_monitor&#45;&gt;headphones</title>
<path fill="none" stroke="black" d="M315.5,-332.52C315.5,-308.34 315.5,-267.06 315.5,-236.44"/>
<polygon fill="black" stroke="black" points="319,-236.8 315.5,-226.8 312,-236.8 319,-236.8"/>
</g>
<!-- cam_box_switch -->
<g id="node14" class="node">
<title>cam_box_switch</title>
<polygon fill="lightgrey" stroke="black" points="864.25,-214.25 732.75,-214.25 732.75,-178.25 864.25,-178.25 864.25,-214.25"/>
<text text-anchor="middle" x="798.5" y="-191.2" font-family="Times,serif" font-size="14.00">3x Gbit dumb switch</text>
</g>
<!-- speaker_box_hdmi_out -->
<g id="node17" class="node">
<title>speaker_box_hdmi_out</title>
<polygon fill="lightgrey" stroke="black" points="1214.25,-382.25 1106.75,-382.25 1106.75,-324.75 1214.25,-324.75 1214.25,-382.25"/>
<text text-anchor="middle" x="1160.5" y="-364.95" font-family="Times,serif" font-size="14.00">HDMI out</text>
<text text-anchor="middle" x="1160.5" y="-348.45" font-family="Times,serif" font-size="14.00">right HDMI port</text>
<text text-anchor="middle" x="1160.5" y="-331.95" font-family="Times,serif" font-size="14.00">female</text>
</g>
<!-- speaker_box_hdmi_out&#45;&gt;room_projector_optional_adapter -->
<g id="edge6" class="edge">
<title>speaker_box_hdmi_out&#45;&gt;room_projector_optional_adapter</title>
<path fill="none" stroke="black" stroke-dasharray="1,5" d="M1185.13,-324.39C1210.41,-295.53 1249.41,-251 1273.92,-223.03"/>
<polygon fill="black" stroke="black" points="1276.38,-225.53 1280.33,-215.7 1271.11,-220.92 1276.38,-225.53"/>
<text text-anchor="middle" x="1305.75" y="-276.95" font-family="Times,serif" font-size="14.00">HDMI cable male/male</text>
</g>
<!-- speaker_box_hdmi_out&#45;&gt;room_projector -->
<g id="edge8" class="edge">
<title>speaker_box_hdmi_out&#45;&gt;room_projector</title>
<path fill="none" stroke="black" d="M1151.41,-324.37C1145.27,-303.81 1137.71,-275.12 1134.5,-249.25 1128.58,-201.48 1132.41,-146.03 1136.34,-109.76"/>
<polygon fill="black" stroke="black" points="1139.78,-110.53 1137.44,-100.2 1132.82,-109.73 1139.78,-110.53"/>
<text text-anchor="middle" x="1169" y="-199.45" font-family="Times,serif" font-size="14.00">HDMI cable</text>
<text text-anchor="middle" x="1169" y="-182.95" font-family="Times,serif" font-size="14.00">male/male</text>
</g>
<!-- speaker_box_switch -->
<g id="node18" class="node">
<title>speaker_box_switch</title>
<polygon fill="lightgrey" stroke="black" points="1088.25,-371.5 956.75,-371.5 956.75,-335.5 1088.25,-335.5 1088.25,-371.5"/>
<text text-anchor="middle" x="1022.5" y="-348.45" font-family="Times,serif" font-size="14.00">3x Gbit dumb switch</text>
</g>
<!-- speaker_box_switch&#45;&gt;cam_box_switch -->
<g id="edge11" class="edge">
<title>speaker_box_switch&#45;&gt;cam_box_switch</title>
<path fill="none" stroke="black" d="M980.11,-329.52C967.86,-322.53 954.6,-314.6 942.75,-306.75 901.6,-279.49 856.66,-244.48 828.07,-221.48"/>
<polygon fill="black" stroke="black" points="978.36,-332.56 988.79,-334.42 981.8,-326.46 978.36,-332.56"/>
<polygon fill="black" stroke="black" points="830.53,-218.97 820.56,-215.41 826.13,-224.42 830.53,-218.97"/>
<text text-anchor="middle" x="980.38" y="-276.95" font-family="Times,serif" font-size="14.00">ethernet cable</text>
</g>
<!-- video_vlan -->
<g id="node23" class="node">
<title>video_vlan</title>
<polygon fill="none" stroke="black" stroke-dasharray="1,5" points="1088.62,-214.25 956.38,-214.25 956.38,-178.25 1088.62,-178.25 1088.62,-214.25"/>
<text text-anchor="middle" x="1022.5" y="-191.2" font-family="Times,serif" font-size="14.00">FOSDEM video vlan</text>
</g>
<!-- speaker_box_switch&#45;&gt;video_vlan -->
<g id="edge10" class="edge">
<title>speaker_box_switch&#45;&gt;video_vlan</title>
<path fill="none" stroke="black" d="M1022.5,-324.04C1022.5,-296.15 1022.5,-253.87 1022.5,-225.91"/>
<polygon fill="black" stroke="black" points="1019,-323.78 1022.5,-333.78 1026,-323.78 1019,-323.78"/>
<polygon fill="black" stroke="black" points="1026,-226.05 1022.5,-216.05 1019,-226.05 1026,-226.05"/>
<text text-anchor="middle" x="1060.38" y="-276.95" font-family="Times,serif" font-size="14.00">ethernet cable</text>
</g>
<!-- speaker_box_ac_in -->
<g id="node19" class="node">
<title>speaker_box_ac_in</title>
<polygon fill="lightgrey" stroke="black" points="938.5,-371.5 884.5,-371.5 884.5,-335.5 938.5,-335.5 938.5,-371.5"/>
<text text-anchor="middle" x="911.5" y="-348.45" font-family="Times,serif" font-size="14.00">AC in</text>
</g>
<!-- speaker_power_strip -->
<g id="node20" class="node">
<title>speaker_power_strip</title>
<polygon fill="none" stroke="black" points="1224,-729.75 1055,-729.75 1055,-688.75 1224,-688.75 1224,-729.75"/>
<text text-anchor="middle" x="1139.5" y="-712.45" font-family="Times,serif" font-size="14.00">speaker side power strip</text>
<text text-anchor="middle" x="1139.5" y="-695.95" font-family="Times,serif" font-size="14.00">&gt;=4 CEE 7/3 or 7/5 sockets</text>
</g>
<!-- speaker_power_strip&#45;&gt;speaker_laptop -->
<g id="edge14" class="edge">
<title>speaker_power_strip&#45;&gt;speaker_laptop</title>
<path fill="none" stroke="black" d="M1139.5,-636.75C1141.05,-624.69 1147.59,-623.88 1153.5,-613.25 1170.5,-582.66 1188.78,-546.87 1200.85,-522.8"/>
<polygon fill="black" stroke="black" points="1203.92,-524.48 1205.26,-513.97 1197.66,-521.36 1203.92,-524.48"/>
</g>
<!-- speaker_power_strip&#45;&gt;speaker_box_ac_in -->
<g id="edge15" class="edge">
<title>speaker_power_strip&#45;&gt;speaker_box_ac_in</title>
<path fill="none" stroke="black" d="M1138.16,-688.39C1137.55,-674.44 1137.36,-655.38 1139.5,-638.75"/>
<path fill="none" stroke="black" d="M1139.5,-636.75C1155.43,-512.78 1017.56,-534.76 947.5,-431.25 937.14,-415.95 928.29,-397.2 921.95,-382.06"/>
<polygon fill="black" stroke="black" points="925.36,-381.14 918.36,-373.18 918.86,-383.77 925.36,-381.14"/>
</g>
</g>
</svg>
