<?xml version="1.0" encoding="UTF-8" standalone="no"?>
<!DOCTYPE svg PUBLIC "-//W3C//DTD SVG 1.1//EN"
 "http://www.w3.org/Graphics/SVG/1.1/DTD/svg11.dtd">
<!-- Generated by graphviz version 2.42.4 (0)
 -->
<!-- Title: G Pages: 1 -->
<svg width="2018pt" height="848pt"
 viewBox="0.00 0.00 2017.50 847.50" xmlns="http://www.w3.org/2000/svg" xmlns:xlink="http://www.w3.org/1999/xlink">
<g id="graph0" class="graph" transform="scale(1 1) rotate(0) translate(4 843.5)">
<title>G</title>
<polygon fill="white" stroke="transparent" points="-4,4 -4,-843.5 2013.5,-843.5 2013.5,4 -4,4"/>
<text text-anchor="middle" x="1004.75" y="-22.8" font-family="Times,serif" font-size="14.00">FOSDEM 2027 xxl rooms video cabling setup:</text>
<text text-anchor="middle" x="1004.75" y="-7.8" font-family="Times,serif" font-size="14.00">janson, k1105</text>
<g id="clust1" class="cluster">
<title>cluster_microphone_receivers</title>
<polygon fill="none" stroke="black" points="8,-325.5 8,-501.5 895,-501.5 895,-325.5 8,-325.5"/>
<text text-anchor="middle" x="451.5" y="-486.3" font-family="Times,serif" font-size="14.00">ULB provided</text>
<text text-anchor="middle" x="451.5" y="-471.3" font-family="Times,serif" font-size="14.00">Sennheiser G3 series</text>
<text text-anchor="middle" x="451.5" y="-456.3" font-family="Times,serif" font-size="14.00">autonomy: ?</text>
<text text-anchor="middle" x="451.5" y="-441.3" font-family="Times,serif" font-size="14.00">?AC powered EM{1,3}00?</text>
<text text-anchor="middle" x="451.5" y="-426.3" font-family="Times,serif" font-size="14.00">?DC: ?xAA batteries</text>
</g>
<g id="clust2" class="cluster">
<title>cluster_speaker_microphone_receiver</title>
<g id="a_clust2"><a xlink:href="https://en-us.sennheiser.com/global-downloads/file/671/Set100PG3_US_INT.pdf" xlink:title="speaker microphone receiver">
<polygon fill="none" stroke="black" points="16,-333.5 16,-410.5 260,-410.5 260,-333.5 16,-333.5"/>
<text text-anchor="middle" x="138" y="-395.3" font-family="Times,serif" font-size="14.00">speaker microphone receiver</text>
</a>
</g>
</g>
<g id="clust3" class="cluster">
<title>cluster_audience_microphone_1_receiver</title>
<g id="a_clust3"><a xlink:href="https://en-us.sennheiser.com/global-downloads/file/671/Set100PG3_US_INT.pdf" xlink:title="audience microphone receiver">
<polygon fill="none" stroke="black" points="268,-333.5 268,-410.5 512,-410.5 512,-333.5 268,-333.5"/>
<text text-anchor="middle" x="390" y="-395.3" font-family="Times,serif" font-size="14.00">audience microphone receiver</text>
</a>
</g>
</g>
<g id="clust4" class="cluster">
<title>cluster_audience_microphone_2_receiver</title>
<g id="a_clust4"><a xlink:href="https://en-us.sennheiser.com/global-downloads/file/671/Set100PG3_US_INT.pdf" xlink:title="audience microphone receiver">
<polygon fill="none" stroke="black" points="520,-333.5 520,-410.5 764,-410.5 764,-333.5 520,-333.5"/>
<text text-anchor="middle" x="642" y="-395.3" font-family="Times,serif" font-size="14.00">audience microphone receiver</text>
</a>
</g>
</g>
<g id="clust5" class="cluster">
<title>cluster_camera</title>
<g id="a_clust5"><a xlink:href="https://pro.sony.com/bbsccms/assets/files/micro/nxcam/latest/Sony_HXR-NX100.pdf" xlink:title="camera\nSony HXR&#45;NX100">
<polygon fill="none" stroke="black" points="748,-186 748,-293 1667,-293 1667,-186 748,-186"/>
<text text-anchor="middle" x="1207.5" y="-277.8" font-family="Times,serif" font-size="14.00">camera</text>
<text text-anchor="middle" x="1207.5" y="-262.8" font-family="Times,serif" font-size="14.00">Sony HXR&#45;NX100</text>
</a>
</g>
</g>
<g id="clust8" class="cluster">
<title>cluster_cam_box</title>
<g id="a_clust8"><a xlink:href="https://github.com/FOSDEM/video" xlink:title="camera box">
<polygon fill="none" stroke="lightgrey" points="1381,-46 1381,-123 1873,-123 1873,-46 1381,-46"/>
<text text-anchor="middle" x="1627" y="-107.8" font-family="Times,serif" font-size="14.00">camera box</text>
</a>
</g>
</g>
<g id="clust10" class="cluster">
<title>cluster_speaker_box</title>
<g id="a_clust10"><a xlink:href="https://github.com/FOSDEM/video" xlink:title="speaker box">
<polygon fill="none" stroke="lightgrey" points="736,-556.5 736,-687.5 1996,-687.5 1996,-556.5 736,-556.5"/>
<text text-anchor="middle" x="1366" y="-672.3" font-family="Times,serif" font-size="14.00">speaker box</text>
</a>
</g>
</g>
<g id="clust11" class="cluster">
<title>cluster_mix_panel</title>
<g id="a_clust11"><a xlink:href="https://github.com/FOSDEM/video" xlink:title="audio mixer">
<polygon fill="none" stroke="lightgrey" points="928,-564.5 928,-656.5 1628,-656.5 1628,-564.5 928,-564.5"/>
<text text-anchor="middle" x="1278" y="-641.3" font-family="Times,serif" font-size="14.00">audio mixer</text>
</a>
</g>
</g>
<!-- speaker_microphone -->
<g id="node1" class="node">
<title>speaker_microphone</title>
<g id="a_node1"><a xlink:href="https://en-us.sennheiser.com/global-downloads/file/671/Set100PG3_US_INT.pdf" xlink:title="speaker microphone\nULB provided\nSennheiser G3 series\n G3 bodypack transmitter\nautonomy: ?h (2x AA)">
<polygon fill="none" stroke="black" points="216,-640.5 60,-640.5 60,-557.5 216,-557.5 216,-640.5"/>
<text text-anchor="middle" x="138" y="-625.3" font-family="Times,serif" font-size="14.00">speaker microphone</text>
<text text-anchor="middle" x="138" y="-610.3" font-family="Times,serif" font-size="14.00">ULB provided</text>
<text text-anchor="middle" x="138" y="-595.3" font-family="Times,serif" font-size="14.00">Sennheiser G3 series</text>
<text text-anchor="middle" x="138" y="-580.3" font-family="Times,serif" font-size="14.00"> G3 bodypack transmitter</text>
<text text-anchor="middle" x="138" y="-565.3" font-family="Times,serif" font-size="14.00">autonomy: ?h (2x AA)</text>
</a>
</g>
</g>
<!-- speaker_microphone_receiver_audio_out -->
<g id="node4" class="node">
<title>speaker_microphone_receiver_audio_out</title>
<polygon fill="none" stroke="black" points="251.5,-379.5 24.5,-379.5 24.5,-341.5 251.5,-341.5 251.5,-379.5"/>
<text text-anchor="middle" x="138" y="-364.3" font-family="Times,serif" font-size="14.00">audio out</text>
<text text-anchor="middle" x="138" y="-349.3" font-family="Times,serif" font-size="14.00">3.5mm trs ?unbalanced ?mono female</text>
</g>
<!-- speaker_microphone&#45;&gt;speaker_microphone_receiver_audio_out -->
<g id="edge1" class="edge">
<title>speaker_microphone&#45;&gt;speaker_microphone_receiver_audio_out</title>
<path fill="none" stroke="black" stroke-dasharray="5,2" d="M138,-557.34C138,-519.73 138,-463.36 138,-420.74"/>
<polygon fill="black" stroke="black" points="141.5,-420.5 138,-410.5 134.5,-420.5 141.5,-420.5"/>
<text text-anchor="middle" x="215" y="-520.8" font-family="Times,serif" font-size="14.00">+&#45;600 MHz analog wireless</text>
</g>
<!-- audience_microphone_1 -->
<g id="node2" class="node">
<title>audience_microphone_1</title>
<g id="a_node2"><a xlink:href="https://en-us.sennheiser.com/global-downloads/file/671/Set100PG3_US_INT.pdf" xlink:title="audience microphone\nULB provided\nSennheiser G3 series\nautonomy: ?h\nDC: ?xAA batteries">
<polygon fill="none" stroke="black" points="457,-640.5 323,-640.5 323,-557.5 457,-557.5 457,-640.5"/>
<text text-anchor="middle" x="390" y="-625.3" font-family="Times,serif" font-size="14.00">audience microphone</text>
<text text-anchor="middle" x="390" y="-610.3" font-family="Times,serif" font-size="14.00">ULB provided</text>
<text text-anchor="middle" x="390" y="-595.3" font-family="Times,serif" font-size="14.00">Sennheiser G3 series</text>
<text text-anchor="middle" x="390" y="-580.3" font-family="Times,serif" font-size="14.00">autonomy: ?h</text>
<text text-anchor="middle" x="390" y="-565.3" font-family="Times,serif" font-size="14.00">DC: ?xAA batteries</text>
</a>
</g>
</g>
<!-- audience_microphone_1_receiver_audio_out -->
<g id="node5" class="node">
<title>audience_microphone_1_receiver_audio_out</title>
<polygon fill="none" stroke="black" points="503.5,-379.5 276.5,-379.5 276.5,-341.5 503.5,-341.5 503.5,-379.5"/>
<text text-anchor="middle" x="390" y="-364.3" font-family="Times,serif" font-size="14.00">audio out</text>
<text text-anchor="middle" x="390" y="-349.3" font-family="Times,serif" font-size="14.00">3.5mm trs ?unbalanced ?mono female</text>
</g>
<!-- audience_microphone_1&#45;&gt;audience_microphone_1_receiver_audio_out -->
<g id="edge2" class="edge">
<title>audience_microphone_1&#45;&gt;audience_microphone_1_receiver_audio_out</title>
<path fill="none" stroke="black" stroke-dasharray="5,2" d="M390,-557.34C390,-519.73 390,-463.36 390,-420.74"/>
<polygon fill="black" stroke="black" points="393.5,-420.5 390,-410.5 386.5,-420.5 393.5,-420.5"/>
<text text-anchor="middle" x="467" y="-520.8" font-family="Times,serif" font-size="14.00">+&#45;600 MHz analog wireless</text>
</g>
<!-- audience_microphone_2 -->
<g id="node3" class="node">
<title>audience_microphone_2</title>
<g id="a_node3"><a xlink:href="https://en-us.sennheiser.com/global-downloads/file/671/Set100PG3_US_INT.pdf" xlink:title="audience microphone\nULB provided\nSennheiser G3 series\nautonomy: ?h\nDC: ?xAA batteries">
<polygon fill="none" stroke="black" points="709,-640.5 575,-640.5 575,-557.5 709,-557.5 709,-640.5"/>
<text text-anchor="middle" x="642" y="-625.3" font-family="Times,serif" font-size="14.00">audience microphone</text>
<text text-anchor="middle" x="642" y="-610.3" font-family="Times,serif" font-size="14.00">ULB provided</text>
<text text-anchor="middle" x="642" y="-595.3" font-family="Times,serif" font-size="14.00">Sennheiser G3 series</text>
<text text-anchor="middle" x="642" y="-580.3" font-family="Times,serif" font-size="14.00">autonomy: ?h</text>
<text text-anchor="middle" x="642" y="-565.3" font-family="Times,serif" font-size="14.00">DC: ?xAA batteries</text>
</a>
</g>
</g>
<!-- audience_microphone_2_receiver_audio_out -->
<g id="node6" class="node">
<title>audience_microphone_2_receiver_audio_out</title>
<polygon fill="none" stroke="black" points="755.5,-379.5 528.5,-379.5 528.5,-341.5 755.5,-341.5 755.5,-379.5"/>
<text text-anchor="middle" x="642" y="-364.3" font-family="Times,serif" font-size="14.00">audio out</text>
<text text-anchor="middle" x="642" y="-349.3" font-family="Times,serif" font-size="14.00">3.5mm trs ?unbalanced ?mono female</text>
</g>
<!-- audience_microphone_2&#45;&gt;audience_microphone_2_receiver_audio_out -->
<g id="edge3" class="edge">
<title>audience_microphone_2&#45;&gt;audience_microphone_2_receiver_audio_out</title>
<path fill="none" stroke="black" stroke-dasharray="5,2" d="M642,-557.34C642,-519.73 642,-463.36 642,-420.74"/>
<polygon fill="black" stroke="black" points="645.5,-420.5 642,-410.5 638.5,-420.5 645.5,-420.5"/>
<text text-anchor="middle" x="719" y="-520.8" font-family="Times,serif" font-size="14.00">+&#45;600 MHz analog wireless</text>
</g>
<!-- ulb_mixer -->
<g id="node7" class="node">
<title>ulb_mixer</title>
<polygon fill="none" stroke="black" points="886.5,-378.5 773.5,-378.5 773.5,-342.5 886.5,-342.5 886.5,-378.5"/>
<text text-anchor="middle" x="830" y="-356.8" font-family="Times,serif" font-size="14.00">ULB audio mixer</text>
</g>
<!-- camera_xlr_in_1 -->
<g id="node9" class="node">
<title>camera_xlr_in_1</title>
<polygon fill="none" stroke="black" points="885.5,-247 756.5,-247 756.5,-194 885.5,-194 885.5,-247"/>
<text text-anchor="middle" x="821" y="-231.8" font-family="Times,serif" font-size="14.00">audio in CH1 (left)</text>
<text text-anchor="middle" x="821" y="-216.8" font-family="Times,serif" font-size="14.00">XLR female port</text>
<text text-anchor="middle" x="821" y="-201.8" font-family="Times,serif" font-size="14.00">48V phantom power</text>
</g>
<!-- ulb_mixer&#45;&gt;camera_xlr_in_1 -->
<g id="edge10" class="edge">
<title>ulb_mixer&#45;&gt;camera_xlr_in_1</title>
<path fill="none" stroke="black" d="M828.88,-342.3C827.5,-321.09 825.11,-284.5 823.32,-257.14"/>
<polygon fill="black" stroke="black" points="826.82,-256.9 822.67,-247.15 819.83,-257.36 826.82,-256.9"/>
</g>
<!-- speaker_laptop -->
<g id="node8" class="node">
<title>speaker_laptop</title>
<polygon fill="none" stroke="black" points="1425.5,-764.5 1330.5,-764.5 1330.5,-728.5 1425.5,-728.5 1425.5,-764.5"/>
<text text-anchor="middle" x="1378" y="-742.8" font-family="Times,serif" font-size="14.00">speaker laptop</text>
</g>
<!-- speaker_box_hdmi_in -->
<g id="node19" class="node">
<title>speaker_box_hdmi_in</title>
<polygon fill="lightgrey" stroke="black" points="845.5,-625.5 744.5,-625.5 744.5,-572.5 845.5,-572.5 845.5,-625.5"/>
<text text-anchor="middle" x="795" y="-610.3" font-family="Times,serif" font-size="14.00">HDMI in</text>
<text text-anchor="middle" x="795" y="-595.3" font-family="Times,serif" font-size="14.00">left HDMI port</text>
<text text-anchor="middle" x="795" y="-580.3" font-family="Times,serif" font-size="14.00">female</text>
</g>
<!-- speaker_laptop&#45;&gt;speaker_box_hdmi_in -->
<g id="edge4" class="edge">
<title>speaker_laptop&#45;&gt;speaker_box_hdmi_in</title>
<path fill="none" stroke="black" d="M1330.26,-745.2C1216.79,-743.71 934.53,-735.18 855,-687.5 834.77,-675.37 819.77,-653.49 809.82,-634.64"/>
<polygon fill="black" stroke="black" points="812.95,-633.06 805.35,-625.68 806.69,-636.19 812.95,-633.06"/>
<text text-anchor="middle" x="992.5" y="-699.3" font-family="Times,serif" font-size="14.00">direct hdmi cable male/male</text>
</g>
<!-- camera_xlr_in_2 -->
<g id="node10" class="node">
<title>camera_xlr_in_2</title>
<polygon fill="none" stroke="black" points="1530.5,-247 1401.5,-247 1401.5,-194 1530.5,-194 1530.5,-247"/>
<text text-anchor="middle" x="1466" y="-231.8" font-family="Times,serif" font-size="14.00">audio in CH2 (right)</text>
<text text-anchor="middle" x="1466" y="-216.8" font-family="Times,serif" font-size="14.00">XLR female port</text>
<text text-anchor="middle" x="1466" y="-201.8" font-family="Times,serif" font-size="14.00">48V phantom power</text>
</g>
<!-- camera_hdmi_out -->
<g id="node11" class="node">
<title>camera_hdmi_out</title>
<polygon fill="none" stroke="black" points="1383,-239.5 1219,-239.5 1219,-201.5 1383,-201.5 1383,-239.5"/>
<text text-anchor="middle" x="1301" y="-224.3" font-family="Times,serif" font-size="14.00">HDMI out</text>
<text text-anchor="middle" x="1301" y="-209.3" font-family="Times,serif" font-size="14.00">HDMI A (full size) female</text>
</g>
<!-- cam_box_hdmi_in -->
<g id="node15" class="node">
<title>cam_box_hdmi_in</title>
<polygon fill="lightgrey" stroke="black" points="1553,-92 1389,-92 1389,-54 1553,-54 1553,-92"/>
<text text-anchor="middle" x="1471" y="-76.8" font-family="Times,serif" font-size="14.00">HDMI in</text>
<text text-anchor="middle" x="1471" y="-61.8" font-family="Times,serif" font-size="14.00">HDMI A (full size) female</text>
</g>
<!-- camera_hdmi_out&#45;&gt;cam_box_hdmi_in -->
<g id="edge5" class="edge">
<title>camera_hdmi_out&#45;&gt;cam_box_hdmi_in</title>
<path fill="none" stroke="black" d="M1322.19,-201.37C1352.43,-175.48 1408.06,-127.87 1442.08,-98.76"/>
<polygon fill="black" stroke="black" points="1444.49,-101.29 1449.81,-92.13 1439.94,-95.98 1444.49,-101.29"/>
<text text-anchor="middle" x="1454.5" y="-164.8" font-family="Times,serif" font-size="14.00">HDMI cable</text>
<text text-anchor="middle" x="1454.5" y="-149.8" font-family="Times,serif" font-size="14.00">HDMI A (full size)</text>
<text text-anchor="middle" x="1454.5" y="-134.8" font-family="Times,serif" font-size="14.00">male/male</text>
</g>
<!-- camera_internal_mic -->
<g id="node12" class="node">
<title>camera_internal_mic</title>
<polygon fill="none" stroke="black" points="1201,-239.5 1073,-239.5 1073,-201.5 1201,-201.5 1201,-239.5"/>
<text text-anchor="middle" x="1137" y="-224.3" font-family="Times,serif" font-size="14.00">audio in CH2</text>
<text text-anchor="middle" x="1137" y="-209.3" font-family="Times,serif" font-size="14.00">internal microphone</text>
</g>
<!-- camera_audio_monitor -->
<g id="node13" class="node">
<title>camera_audio_monitor</title>
<polygon fill="none" stroke="black" points="1054.5,-239.5 903.5,-239.5 903.5,-201.5 1054.5,-201.5 1054.5,-239.5"/>
<text text-anchor="middle" x="979" y="-224.3" font-family="Times,serif" font-size="14.00">audio monitoring port</text>
<text text-anchor="middle" x="979" y="-209.3" font-family="Times,serif" font-size="14.00">3.5mm trs stereo female</text>
</g>
<!-- headphones -->
<g id="node32" class="node">
<title>headphones</title>
<g id="a_node32"><a xlink:href="https://www.sennheiser.com/en-us/catalog/products/headphones/hd-25/hd-25-506909" xlink:title="Sennheiser HD25 headphones\n3.5mm trs stereo male">
<polygon fill="none" stroke="black" points="1069,-92 889,-92 889,-54 1069,-54 1069,-92"/>
<text text-anchor="middle" x="979" y="-76.8" font-family="Times,serif" font-size="14.00">Sennheiser HD25 headphones</text>
<text text-anchor="middle" x="979" y="-61.8" font-family="Times,serif" font-size="14.00">3.5mm trs stereo male</text>
</a>
</g>
</g>
<!-- camera_audio_monitor&#45;&gt;headphones -->
<g id="edge7" class="edge">
<title>camera_audio_monitor&#45;&gt;headphones</title>
<path fill="none" stroke="black" d="M979,-201.37C979,-176.53 979,-131.7 979,-102.39"/>
<polygon fill="black" stroke="black" points="982.5,-102.36 979,-92.36 975.5,-102.36 982.5,-102.36"/>
</g>
<!-- camera_ac_in -->
<g id="node14" class="node">
<title>camera_ac_in</title>
<polygon fill="none" stroke="black" points="1659,-238.5 1549,-238.5 1549,-202.5 1659,-202.5 1659,-238.5"/>
<text text-anchor="middle" x="1604" y="-216.8" font-family="Times,serif" font-size="14.00">camera AC input</text>
</g>
<!-- cam_box_switch -->
<g id="node16" class="node">
<title>cam_box_switch</title>
<polygon fill="lightgrey" stroke="black" points="1865,-91 1733,-91 1733,-55 1865,-55 1865,-91"/>
<text text-anchor="middle" x="1799" y="-69.3" font-family="Times,serif" font-size="14.00">4x Gbit dumb switch</text>
</g>
<!-- cam_box_usb -->
<g id="node17" class="node">
<title>cam_box_usb</title>
<polygon fill="lightgrey" stroke="black" points="1625,-91 1571,-91 1571,-55 1625,-55 1625,-91"/>
<text text-anchor="middle" x="1598" y="-69.3" font-family="Times,serif" font-size="14.00">USB</text>
</g>
<!-- cam_box_ac_in -->
<g id="node18" class="node">
<title>cam_box_ac_in</title>
<polygon fill="lightgrey" stroke="black" points="1715,-91 1643,-91 1643,-55 1715,-55 1715,-91"/>
<text text-anchor="middle" x="1679" y="-69.3" font-family="Times,serif" font-size="14.00">ac adapter</text>
</g>
<!-- speaker_box_hdmi_out -->
<g id="node20" class="node">
<title>speaker_box_hdmi_out</title>
<polygon fill="lightgrey" stroke="black" points="1988,-625.5 1878,-625.5 1878,-572.5 1988,-572.5 1988,-625.5"/>
<text text-anchor="middle" x="1933" y="-610.3" font-family="Times,serif" font-size="14.00">HDMI out</text>
<text text-anchor="middle" x="1933" y="-595.3" font-family="Times,serif" font-size="14.00">right HDMI port</text>
<text text-anchor="middle" x="1933" y="-580.3" font-family="Times,serif" font-size="14.00">female</text>
</g>
<!-- room_projector -->
<g id="node31" class="node">
<title>room_projector</title>
<polygon fill="none" stroke="black" points="2009.5,-387 1856.5,-387 1856.5,-334 2009.5,-334 2009.5,-387"/>
<text text-anchor="middle" x="1933" y="-371.8" font-family="Times,serif" font-size="14.00">room projector HDMI in</text>
<text text-anchor="middle" x="1933" y="-356.8" font-family="Times,serif" font-size="14.00">HDMI port</text>
<text text-anchor="middle" x="1933" y="-341.8" font-family="Times,serif" font-size="14.00">female</text>
</g>
<!-- speaker_box_hdmi_out&#45;&gt;room_projector -->
<g id="edge6" class="edge">
<title>speaker_box_hdmi_out&#45;&gt;room_projector</title>
<path fill="none" stroke="black" d="M1933,-572.24C1933,-529.95 1933,-445.68 1933,-397.51"/>
<polygon fill="black" stroke="black" points="1936.5,-397.23 1933,-387.23 1929.5,-397.23 1936.5,-397.23"/>
<text text-anchor="middle" x="1968" y="-528.3" font-family="Times,serif" font-size="14.00">HDMI cable</text>
<text text-anchor="middle" x="1968" y="-513.3" font-family="Times,serif" font-size="14.00">male/male</text>
</g>
<!-- speaker_box_switch -->
<g id="node21" class="node">
<title>speaker_box_switch</title>
<polygon fill="lightgrey" stroke="black" points="1770,-617 1638,-617 1638,-581 1770,-581 1770,-617"/>
<text text-anchor="middle" x="1704" y="-595.3" font-family="Times,serif" font-size="14.00">4x Gbit dumb switch</text>
</g>
<!-- speaker_box_switch&#45;&gt;cam_box_switch -->
<g id="edge9" class="edge">
<title>speaker_box_switch&#45;&gt;cam_box_switch</title>
<path fill="none" stroke="black" d="M1749.85,-575.5C1763.61,-566.34 1777.12,-554.35 1785,-539.5 1863.72,-391.09 1823.88,-176.94 1806.08,-101.53"/>
<polygon fill="black" stroke="black" points="1747.92,-572.58 1741.3,-580.85 1751.63,-578.52 1747.92,-572.58"/>
<polygon fill="black" stroke="black" points="1809.39,-100.32 1803.63,-91.43 1802.58,-101.98 1809.39,-100.32"/>
<text text-anchor="middle" x="1870.5" y="-304.8" font-family="Times,serif" font-size="14.00">ethernet cable</text>
</g>
<!-- video_vlan -->
<g id="node33" class="node">
<title>video_vlan</title>
<polygon fill="none" stroke="black" stroke-dasharray="1,5" points="1770.5,-378.5 1637.5,-378.5 1637.5,-342.5 1770.5,-342.5 1770.5,-378.5"/>
<text text-anchor="middle" x="1704" y="-356.8" font-family="Times,serif" font-size="14.00">FOSDEM video vlan</text>
</g>
<!-- speaker_box_switch&#45;&gt;video_vlan -->
<g id="edge8" class="edge">
<title>speaker_box_switch&#45;&gt;video_vlan</title>
<path fill="none" stroke="black" d="M1704,-570.8C1704,-525.28 1704,-434.2 1704,-388.69"/>
<polygon fill="black" stroke="black" points="1700.5,-570.99 1704,-580.99 1707.5,-570.99 1700.5,-570.99"/>
<polygon fill="black" stroke="black" points="1707.5,-388.67 1704,-378.67 1700.5,-388.67 1707.5,-388.67"/>
<text text-anchor="middle" x="1742.5" y="-520.8" font-family="Times,serif" font-size="14.00">ethernet cable</text>
</g>
<!-- speaker_box_usb -->
<g id="node22" class="node">
<title>speaker_box_usb</title>
<polygon fill="lightgrey" stroke="black" points="918,-617 864,-617 864,-581 918,-581 918,-617"/>
<text text-anchor="middle" x="891" y="-595.3" font-family="Times,serif" font-size="14.00">USB</text>
</g>
<!-- mix_panel_mic_1_in -->
<g id="node23" class="node">
<title>mix_panel_mic_1_in</title>
<polygon fill="lightgrey" stroke="black" points="1619.5,-625.5 1482.5,-625.5 1482.5,-572.5 1619.5,-572.5 1619.5,-625.5"/>
<text text-anchor="middle" x="1551" y="-610.3" font-family="Times,serif" font-size="14.00">mic 1 in</text>
<text text-anchor="middle" x="1551" y="-595.3" font-family="Times,serif" font-size="14.00">XLR female port</text>
<text text-anchor="middle" x="1551" y="-580.3" font-family="Times,serif" font-size="14.00">+48V phantom power</text>
</g>
<!-- mix_panel_mic_2_in -->
<g id="node24" class="node">
<title>mix_panel_mic_2_in</title>
<polygon fill="lightgrey" stroke="black" points="1464.5,-625.5 1327.5,-625.5 1327.5,-572.5 1464.5,-572.5 1464.5,-625.5"/>
<text text-anchor="middle" x="1396" y="-610.3" font-family="Times,serif" font-size="14.00">mic 2 in</text>
<text text-anchor="middle" x="1396" y="-595.3" font-family="Times,serif" font-size="14.00">XLR female port</text>
<text text-anchor="middle" x="1396" y="-580.3" font-family="Times,serif" font-size="14.00">+48V phantom power</text>
</g>
<!-- mix_panel_mic_3_in -->
<g id="node25" class="node">
<title>mix_panel_mic_3_in</title>
<polygon fill="lightgrey" stroke="black" points="1309.5,-625.5 1172.5,-625.5 1172.5,-572.5 1309.5,-572.5 1309.5,-625.5"/>
<text text-anchor="middle" x="1241" y="-610.3" font-family="Times,serif" font-size="14.00">mic 3 in</text>
<text text-anchor="middle" x="1241" y="-595.3" font-family="Times,serif" font-size="14.00">XLR female port</text>
<text text-anchor="middle" x="1241" y="-580.3" font-family="Times,serif" font-size="14.00">+48V phantom power</text>
</g>
<!-- mix_panel_out_1 -->
<g id="node26" class="node">
<title>mix_panel_out_1</title>
<polygon fill="lightgrey" stroke="black" points="1154,-625.5 1054,-625.5 1054,-572.5 1154,-572.5 1154,-625.5"/>
<text text-anchor="middle" x="1104" y="-610.3" font-family="Times,serif" font-size="14.00">XLR out 1</text>
<text text-anchor="middle" x="1104" y="-595.3" font-family="Times,serif" font-size="14.00">male port</text>
<text text-anchor="middle" x="1104" y="-580.3" font-family="Times,serif" font-size="14.00">balanced mono</text>
</g>
<!-- mix_panel_out_2 -->
<g id="node27" class="node">
<title>mix_panel_out_2</title>
<polygon fill="lightgrey" stroke="black" points="1036,-625.5 936,-625.5 936,-572.5 1036,-572.5 1036,-625.5"/>
<text text-anchor="middle" x="986" y="-610.3" font-family="Times,serif" font-size="14.00">XLR out 2</text>
<text text-anchor="middle" x="986" y="-595.3" font-family="Times,serif" font-size="14.00">male port</text>
<text text-anchor="middle" x="986" y="-580.3" font-family="Times,serif" font-size="14.00">balanced mono</text>
</g>
<!-- mix_panel_out_2&#45;&gt;ulb_mixer -->
<g id="edge11" class="edge">
<title>mix_panel_out_2&#45;&gt;ulb_mixer</title>
<path fill="none" stroke="black" d="M969.01,-572.24C938.95,-526.67 876.76,-432.39 846.82,-387"/>
<polygon fill="black" stroke="black" points="849.71,-385.03 841.28,-378.61 843.87,-388.88 849.71,-385.03"/>
</g>
<!-- speaker_box_ac_in -->
<g id="node28" class="node">
<title>speaker_box_ac_in</title>
<polygon fill="lightgrey" stroke="black" points="1860,-617 1788,-617 1788,-581 1860,-581 1860,-617"/>
<text text-anchor="middle" x="1824" y="-595.3" font-family="Times,serif" font-size="14.00">ac adapter</text>
</g>
<!-- cam_power_strip -->
<g id="node29" class="node">
<title>cam_power_strip</title>
<polygon fill="none" stroke="black" points="1619,-379.5 1449,-379.5 1449,-341.5 1619,-341.5 1619,-379.5"/>
<text text-anchor="middle" x="1534" y="-364.3" font-family="Times,serif" font-size="14.00">camera side power strip</text>
<text text-anchor="middle" x="1534" y="-349.3" font-family="Times,serif" font-size="14.00">&gt;=4 CEE 7/3 or 7/5 sockets</text>
</g>
<!-- cam_power_strip&#45;&gt;camera_ac_in -->
<g id="edge12" class="edge">
<title>cam_power_strip&#45;&gt;camera_ac_in</title>
<path fill="none" stroke="black" d="M1582.58,-341.33C1597.4,-335.99 1613.8,-330.31 1629,-325.5 1654.49,-317.43 1676.56,-334.12 1687,-309.5"/>
<path fill="none" stroke="black" d="M1687,-307.5C1687,-307.5 1652.55,-271.8 1628.03,-246.4"/>
<polygon fill="black" stroke="black" points="1630.26,-243.67 1620.8,-238.9 1625.22,-248.53 1630.26,-243.67"/>
</g>
<!-- cam_power_strip&#45;&gt;cam_box_ac_in -->
<g id="edge13" class="edge">
<title>cam_power_strip&#45;&gt;cam_box_ac_in</title>
<path fill="none" stroke="black" d="M1687,-307.5C1716.55,-237.84 1698.79,-145.72 1686.97,-100.85"/>
<polygon fill="black" stroke="black" points="1690.29,-99.73 1684.27,-91.01 1683.54,-101.58 1690.29,-99.73"/>
</g>
<!-- speaker_power_strip -->
<g id="node30" class="node">
<title>speaker_power_strip</title>
<polygon fill="none" stroke="black" points="1694,-839.5 1524,-839.5 1524,-801.5 1694,-801.5 1694,-839.5"/>
<text text-anchor="middle" x="1609" y="-824.3" font-family="Times,serif" font-size="14.00">speaker side power strip</text>
<text text-anchor="middle" x="1609" y="-809.3" font-family="Times,serif" font-size="14.00">&gt;=4 CEE 7/3 or 7/5 sockets</text>
</g>
<!-- speaker_power_strip&#45;&gt;speaker_laptop -->
<g id="edge14" class="edge">
<title>speaker_power_strip&#45;&gt;speaker_laptop</title>
<path fill="none" stroke="black" d="M1613.12,-801.3C1613.5,-795.14 1612.69,-788.54 1609,-783.5"/>
<path fill="none" stroke="black" d="M1609,-782.5C1589.04,-755.26 1497.35,-748.65 1435.66,-747.36"/>
<polygon fill="black" stroke="black" points="1435.71,-743.86 1425.66,-747.19 1435.6,-750.85 1435.71,-743.86"/>
</g>
<!-- speaker_power_strip&#45;&gt;speaker_box_ac_in -->
<g id="edge15" class="edge">
<title>speaker_power_strip&#45;&gt;speaker_box_ac_in</title>
<path fill="none" stroke="black" d="M1609,-782.5C1557.84,-712.68 1718.87,-749.75 1779,-687.5 1795.7,-670.21 1807.64,-645.49 1815,-626.74"/>
<polygon fill="black" stroke="black" points="1818.31,-627.87 1818.53,-617.28 1811.76,-625.42 1818.31,-627.87"/>
</g>
</g>
</svg>
