<?xml version="1.0" encoding="UTF-8" standalone="no"?>
<!DOCTYPE svg PUBLIC "-//W3C//DTD SVG 1.1//EN"
 "http://www.w3.org/Graphics/SVG/1.1/DTD/svg11.dtd">
<!-- Generated by graphviz version 9.0.0 (0)
 -->
<!-- Title: G Pages: 1 -->
<svg width="1633pt" height="942pt"
 viewBox="0.00 0.00 1633.12 941.75" xmlns="http://www.w3.org/2000/svg" xmlns:xlink="http://www.w3.org/1999/xlink">
<g id="graph0" class="graph" transform="scale(1 1) rotate(0) translate(4 937.75)">
<title>G</title>
<polygon fill="white" stroke="none" points="-4,4 -4,-937.75 1629.12,-937.75 1629.12,4 -4,4"/>
<text text-anchor="middle" x="812.56" y="-23.7" font-family="Times,serif" font-size="14.00">FOSDEM 2024 xxl rooms video cabling setup:</text>
<text text-anchor="middle" x="812.56" y="-7.2" font-family="Times,serif" font-size="14.00">janson, k1105</text>
<g id="clust1" class="cluster">
<title>cluster_microphone_receivers</title>
<polygon fill="none" stroke="black" points="87,-612.75 87,-800.75 845,-800.75 845,-612.75 87,-612.75"/>
<text text-anchor="middle" x="466" y="-783.45" font-family="Times,serif" font-size="14.00">ULB provided</text>
<text text-anchor="middle" x="466" y="-766.95" font-family="Times,serif" font-size="14.00">Sennheiser G3 series</text>
<text text-anchor="middle" x="466" y="-750.45" font-family="Times,serif" font-size="14.00">autonomy: ?</text>
<text text-anchor="middle" x="466" y="-733.95" font-family="Times,serif" font-size="14.00">?AC powered EM{1,3}00?</text>
<text text-anchor="middle" x="466" y="-717.45" font-family="Times,serif" font-size="14.00">?DC: ?xAA batteries</text>
</g>
<g id="clust2" class="cluster">
<title>cluster_speaker_microphone_receiver</title>
<g id="a_clust2"><a xlink:href="https://en-us.sennheiser.com/global-downloads/file/671/Set100PG3_US_INT.pdf" xlink:title="speaker microphone receiver">
<polygon fill="none" stroke="black" points="95,-620.75 95,-702.25 337,-702.25 337,-620.75 95,-620.75"/>
<text text-anchor="middle" x="216" y="-684.95" font-family="Times,serif" font-size="14.00">speaker microphone receiver</text>
</a>
</g>
</g>
<g id="clust3" class="cluster">
<title>cluster_audience_microphone_1_receiver</title>
<g id="a_clust3"><a xlink:href="https://en-us.sennheiser.com/global-downloads/file/671/Set100PG3_US_INT.pdf" xlink:title="audience microphone receiver">
<polygon fill="none" stroke="black" points="345,-620.75 345,-702.25 587,-702.25 587,-620.75 345,-620.75"/>
<text text-anchor="middle" x="466" y="-684.95" font-family="Times,serif" font-size="14.00">audience microphone receiver</text>
</a>
</g>
</g>
<g id="clust4" class="cluster">
<title>cluster_audience_microphone_2_receiver</title>
<g id="a_clust4"><a xlink:href="https://en-us.sennheiser.com/global-downloads/file/671/Set100PG3_US_INT.pdf" xlink:title="audience microphone receiver">
<polygon fill="none" stroke="black" points="595,-620.75 595,-702.25 837,-702.25 837,-620.75 595,-620.75"/>
<text text-anchor="middle" x="716" y="-684.95" font-family="Times,serif" font-size="14.00">audience microphone receiver</text>
</a>
</g>
</g>
<g id="clust5" class="cluster">
<title>cluster_camera</title>
<g id="a_clust5"><a xlink:href="https://pro.sony.com/bbsccms/assets/files/micro/nxcam/latest/Sony_HXR-NX100.pdf" xlink:title="camera\nSony HXR&#45;NX100">
<polygon fill="none" stroke="black" points="8,-300.25 8,-414.75 917,-414.75 917,-300.25 8,-300.25"/>
<text text-anchor="middle" x="462.5" y="-397.45" font-family="Times,serif" font-size="14.00">camera</text>
<text text-anchor="middle" x="462.5" y="-380.95" font-family="Times,serif" font-size="14.00">Sony HXR&#45;NX100</text>
</a>
</g>
</g>
<g id="clust8" class="cluster">
<title>cluster_cam_laptop</title>
<polygon fill="none" stroke="lightgrey" points="925,-311 925,-387.5 1067,-387.5 1067,-311 925,-311"/>
<text text-anchor="middle" x="996" y="-370.2" font-family="Times,serif" font-size="14.00">cam box laptop</text>
</g>
<g id="clust9" class="cluster">
<title>cluster_cam_box</title>
<g id="a_clust9"><a xlink:href="https://github.com/FOSDEM/video" xlink:title="camera box">
<polygon fill="none" stroke="lightgrey" points="745,-151.25 745,-232.75 1145,-232.75 1145,-151.25 745,-151.25"/>
<text text-anchor="middle" x="945" y="-215.45" font-family="Times,serif" font-size="14.00">camera box</text>
</a>
</g>
</g>
<g id="clust11" class="cluster">
<title>cluster_speaker_box</title>
<g id="a_clust11"><a xlink:href="https://github.com/FOSDEM/video" xlink:title="speaker box">
<polygon fill="none" stroke="lightgrey" points="1075,-300.25 1075,-398.25 1539,-398.25 1539,-300.25 1075,-300.25"/>
<text text-anchor="middle" x="1307" y="-380.95" font-family="Times,serif" font-size="14.00">speaker box</text>
</a>
</g>
</g>
<g id="clust12" class="cluster">
<title>cluster_speaker_video_laptop</title>
<polygon fill="none" stroke="lightgrey" points="1300,-476.5 1300,-553 1442,-553 1442,-476.5 1300,-476.5"/>
<text text-anchor="middle" x="1371" y="-535.7" font-family="Times,serif" font-size="14.00">speaker box laptop</text>
</g>
<g id="clust13" class="cluster">
<title>cluster_mix_panel</title>
<polygon fill="none" stroke="black" points="66,-465.75 66,-580.25 914,-580.25 914,-465.75 66,-465.75"/>
<text text-anchor="middle" x="490" y="-562.95" font-family="Times,serif" font-size="14.00">audio mix panel</text>
<text text-anchor="middle" x="490" y="-546.45" font-family="Times,serif" font-size="14.00">?ULB provided</text>
</g>
<!-- speaker_microphone -->
<g id="node1" class="node">
<title>speaker_microphone</title>
<g id="a_node1"><a xlink:href="https://en-us.sennheiser.com/global-downloads/file/671/Set100PG3_US_INT.pdf" xlink:title="speaker microphone\nULB provided\nSennheiser G3 series\n G3 bodypack transmitter\nautonomy: ?h (2x AA)">
<polygon fill="none" stroke="black" points="293.75,-933.75 138.25,-933.75 138.25,-843.25 293.75,-843.25 293.75,-933.75"/>
<text text-anchor="middle" x="216" y="-916.45" font-family="Times,serif" font-size="14.00">speaker microphone</text>
<text text-anchor="middle" x="216" y="-899.95" font-family="Times,serif" font-size="14.00">ULB provided</text>
<text text-anchor="middle" x="216" y="-883.45" font-family="Times,serif" font-size="14.00">Sennheiser G3 series</text>
<text text-anchor="middle" x="216" y="-866.95" font-family="Times,serif" font-size="14.00"> G3 bodypack transmitter</text>
<text text-anchor="middle" x="216" y="-850.45" font-family="Times,serif" font-size="14.00">autonomy: ?h (2x AA)</text>
</a>
</g>
</g>
<!-- speaker_microphone_receiver_audio_out -->
<g id="node4" class="node">
<title>speaker_microphone_receiver_audio_out</title>
<polygon fill="none" stroke="black" points="329.38,-669.75 102.62,-669.75 102.62,-628.75 329.38,-628.75 329.38,-669.75"/>
<text text-anchor="middle" x="216" y="-652.45" font-family="Times,serif" font-size="14.00">audio out</text>
<text text-anchor="middle" x="216" y="-635.95" font-family="Times,serif" font-size="14.00">3.5mm trs ?unbalanced ?mono female</text>
</g>
<!-- speaker_microphone&#45;&gt;speaker_microphone_receiver_audio_out -->
<g id="edge3" class="edge">
<title>speaker_microphone&#45;&gt;speaker_microphone_receiver_audio_out</title>
<path fill="none" stroke="black" stroke-dasharray="5,2" d="M216,-842.88C216,-806.43 216,-754.47 216,-713.7"/>
<polygon fill="black" stroke="black" points="219.5,-713.76 216,-703.76 212.5,-713.76 219.5,-713.76"/>
<text text-anchor="middle" x="292.5" y="-811.95" font-family="Times,serif" font-size="14.00">+&#45;600 MHz analog wireless</text>
</g>
<!-- audience_microphone_1 -->
<g id="node2" class="node">
<title>audience_microphone_1</title>
<g id="a_node2"><a xlink:href="https://en-us.sennheiser.com/global-downloads/file/671/Set100PG3_US_INT.pdf" xlink:title="audience microphone\nULB provided\nSennheiser G3 series\nautonomy: ?h\nDC: ?xAA batteries">
<polygon fill="none" stroke="black" points="532.5,-933.75 399.5,-933.75 399.5,-843.25 532.5,-843.25 532.5,-933.75"/>
<text text-anchor="middle" x="466" y="-916.45" font-family="Times,serif" font-size="14.00">audience microphone</text>
<text text-anchor="middle" x="466" y="-899.95" font-family="Times,serif" font-size="14.00">ULB provided</text>
<text text-anchor="middle" x="466" y="-883.45" font-family="Times,serif" font-size="14.00">Sennheiser G3 series</text>
<text text-anchor="middle" x="466" y="-866.95" font-family="Times,serif" font-size="14.00">autonomy: ?h</text>
<text text-anchor="middle" x="466" y="-850.45" font-family="Times,serif" font-size="14.00">DC: ?xAA batteries</text>
</a>
</g>
</g>
<!-- audience_microphone_1_receiver_audio_out -->
<g id="node5" class="node">
<title>audience_microphone_1_receiver_audio_out</title>
<polygon fill="none" stroke="black" points="579.38,-669.75 352.62,-669.75 352.62,-628.75 579.38,-628.75 579.38,-669.75"/>
<text text-anchor="middle" x="466" y="-652.45" font-family="Times,serif" font-size="14.00">audio out</text>
<text text-anchor="middle" x="466" y="-635.95" font-family="Times,serif" font-size="14.00">3.5mm trs ?unbalanced ?mono female</text>
</g>
<!-- audience_microphone_1&#45;&gt;audience_microphone_1_receiver_audio_out -->
<g id="edge4" class="edge">
<title>audience_microphone_1&#45;&gt;audience_microphone_1_receiver_audio_out</title>
<path fill="none" stroke="black" stroke-dasharray="5,2" d="M466,-842.88C466,-806.43 466,-754.47 466,-713.7"/>
<polygon fill="black" stroke="black" points="469.5,-713.76 466,-703.76 462.5,-713.76 469.5,-713.76"/>
<text text-anchor="middle" x="542.5" y="-811.95" font-family="Times,serif" font-size="14.00">+&#45;600 MHz analog wireless</text>
</g>
<!-- audience_microphone_2 -->
<g id="node3" class="node">
<title>audience_microphone_2</title>
<g id="a_node3"><a xlink:href="https://en-us.sennheiser.com/global-downloads/file/671/Set100PG3_US_INT.pdf" xlink:title="audience microphone\nULB provided\nSennheiser G3 series\nautonomy: ?h\nDC: ?xAA batteries">
<polygon fill="none" stroke="black" points="782.5,-933.75 649.5,-933.75 649.5,-843.25 782.5,-843.25 782.5,-933.75"/>
<text text-anchor="middle" x="716" y="-916.45" font-family="Times,serif" font-size="14.00">audience microphone</text>
<text text-anchor="middle" x="716" y="-899.95" font-family="Times,serif" font-size="14.00">ULB provided</text>
<text text-anchor="middle" x="716" y="-883.45" font-family="Times,serif" font-size="14.00">Sennheiser G3 series</text>
<text text-anchor="middle" x="716" y="-866.95" font-family="Times,serif" font-size="14.00">autonomy: ?h</text>
<text text-anchor="middle" x="716" y="-850.45" font-family="Times,serif" font-size="14.00">DC: ?xAA batteries</text>
</a>
</g>
</g>
<!-- audience_microphone_2_receiver_audio_out -->
<g id="node6" class="node">
<title>audience_microphone_2_receiver_audio_out</title>
<polygon fill="none" stroke="black" points="829.38,-669.75 602.62,-669.75 602.62,-628.75 829.38,-628.75 829.38,-669.75"/>
<text text-anchor="middle" x="716" y="-652.45" font-family="Times,serif" font-size="14.00">audio out</text>
<text text-anchor="middle" x="716" y="-635.95" font-family="Times,serif" font-size="14.00">3.5mm trs ?unbalanced ?mono female</text>
</g>
<!-- audience_microphone_2&#45;&gt;audience_microphone_2_receiver_audio_out -->
<g id="edge5" class="edge">
<title>audience_microphone_2&#45;&gt;audience_microphone_2_receiver_audio_out</title>
<path fill="none" stroke="black" stroke-dasharray="5,2" d="M716,-842.88C716,-806.43 716,-754.47 716,-713.7"/>
<polygon fill="black" stroke="black" points="719.5,-713.76 716,-703.76 712.5,-713.76 719.5,-713.76"/>
<text text-anchor="middle" x="792.5" y="-811.95" font-family="Times,serif" font-size="14.00">+&#45;600 MHz analog wireless</text>
</g>
<!-- mix_panel_mic_1_in -->
<g id="node26" class="node">
<title>mix_panel_mic_1_in</title>
<polygon fill="none" stroke="black" points="210,-531.25 74,-531.25 74,-473.75 210,-473.75 210,-531.25"/>
<text text-anchor="middle" x="142" y="-513.95" font-family="Times,serif" font-size="14.00">mic 1 in</text>
<text text-anchor="middle" x="142" y="-497.45" font-family="Times,serif" font-size="14.00">XLR female port</text>
<text text-anchor="middle" x="142" y="-480.95" font-family="Times,serif" font-size="14.00">+48V phantom power</text>
</g>
<!-- speaker_microphone_receiver_audio_out&#45;&gt;mix_panel_mic_1_in -->
<g id="edge6" class="edge">
<title>speaker_microphone_receiver_audio_out&#45;&gt;mix_panel_mic_1_in</title>
<path fill="none" stroke="black" d="M197.29,-628.49C191.22,-621.38 184.82,-613.06 180,-604.75 168.75,-585.33 159.72,-561.97 153.29,-542.58"/>
<polygon fill="black" stroke="black" points="156.65,-541.59 150.27,-533.13 149.98,-543.72 156.65,-541.59"/>
<text text-anchor="middle" x="312" y="-591.45" font-family="Times,serif" font-size="14.00">3.5mm trs mono unbalanced male to XLR male</text>
</g>
<!-- mix_panel_mic_2_in -->
<g id="node27" class="node">
<title>mix_panel_mic_2_in</title>
<polygon fill="none" stroke="black" points="680,-531.25 544,-531.25 544,-473.75 680,-473.75 680,-531.25"/>
<text text-anchor="middle" x="612" y="-513.95" font-family="Times,serif" font-size="14.00">mic 2 in</text>
<text text-anchor="middle" x="612" y="-497.45" font-family="Times,serif" font-size="14.00">XLR female port</text>
<text text-anchor="middle" x="612" y="-480.95" font-family="Times,serif" font-size="14.00">+48V phantom power</text>
</g>
<!-- audience_microphone_1_receiver_audio_out&#45;&gt;mix_panel_mic_2_in -->
<g id="edge7" class="edge">
<title>audience_microphone_1_receiver_audio_out&#45;&gt;mix_panel_mic_2_in</title>
<path fill="none" stroke="black" d="M458.94,-628.31C455.73,-615.33 454.49,-598.9 464,-588.25 474.58,-576.41 520.69,-587.13 535,-580.25 554.06,-571.09 571.18,-555.25 584.41,-540.33"/>
<polygon fill="black" stroke="black" points="586.95,-542.75 590.76,-532.87 581.61,-538.22 586.95,-542.75"/>
<text text-anchor="middle" x="596" y="-591.45" font-family="Times,serif" font-size="14.00">3.5mm trs mono unbalanced male to XLR male</text>
</g>
<!-- mix_panel_mic_3_in -->
<g id="node28" class="node">
<title>mix_panel_mic_3_in</title>
<polygon fill="none" stroke="black" points="834,-531.25 698,-531.25 698,-473.75 834,-473.75 834,-531.25"/>
<text text-anchor="middle" x="766" y="-513.95" font-family="Times,serif" font-size="14.00">mic 3 in</text>
<text text-anchor="middle" x="766" y="-497.45" font-family="Times,serif" font-size="14.00">XLR female port</text>
<text text-anchor="middle" x="766" y="-480.95" font-family="Times,serif" font-size="14.00">+48V phantom power</text>
</g>
<!-- audience_microphone_2_receiver_audio_out&#45;&gt;mix_panel_mic_3_in -->
<g id="edge8" class="edge">
<title>audience_microphone_2_receiver_audio_out&#45;&gt;mix_panel_mic_3_in</title>
<path fill="none" stroke="black" d="M722.85,-628.43C730.5,-606.28 743.07,-569.89 752.67,-542.08"/>
<polygon fill="black" stroke="black" points="755.87,-543.54 755.83,-532.94 749.26,-541.25 755.87,-543.54"/>
<text text-anchor="middle" x="868" y="-591.45" font-family="Times,serif" font-size="14.00">3.5mm trs mono unbalanced male to XLR male</text>
</g>
<!-- room_projector_optional_adapter -->
<g id="node7" class="node">
<title>room_projector_optional_adapter</title>
<polygon fill="none" stroke="black" stroke-dasharray="1,5" points="1625.12,-197.75 1456.88,-197.75 1456.88,-161.75 1625.12,-161.75 1625.12,-197.75"/>
<text text-anchor="middle" x="1541" y="-174.7" font-family="Times,serif" font-size="14.00">optional vga&#45;&gt;hdmi adapter</text>
</g>
<!-- room_projector -->
<g id="node34" class="node">
<title>room_projector</title>
<polygon fill="none" stroke="black" points="1462.25,-98.5 1309.75,-98.5 1309.75,-41 1462.25,-41 1462.25,-98.5"/>
<text text-anchor="middle" x="1386" y="-81.2" font-family="Times,serif" font-size="14.00">room projector HDMI in</text>
<text text-anchor="middle" x="1386" y="-64.7" font-family="Times,serif" font-size="14.00">HDMI port</text>
<text text-anchor="middle" x="1386" y="-48.2" font-family="Times,serif" font-size="14.00">female</text>
</g>
<!-- room_projector_optional_adapter&#45;&gt;room_projector -->
<g id="edge13" class="edge">
<title>room_projector_optional_adapter&#45;&gt;room_projector</title>
<path fill="none" stroke="black" stroke-dasharray="1,5" d="M1516.1,-161.4C1494.43,-146.3 1462.39,-123.97 1435.52,-105.26"/>
<polygon fill="black" stroke="black" points="1437.71,-102.51 1427.5,-99.67 1433.71,-108.26 1437.71,-102.51"/>
<text text-anchor="middle" x="1537.25" y="-119.7" font-family="Times,serif" font-size="14.00">HDMI cable male/male</text>
</g>
<!-- speaker_laptop -->
<g id="node8" class="node">
<title>speaker_laptop</title>
<polygon fill="none" stroke="black" points="1250.38,-520.5 1155.62,-520.5 1155.62,-484.5 1250.38,-484.5 1250.38,-520.5"/>
<text text-anchor="middle" x="1203" y="-497.45" font-family="Times,serif" font-size="14.00">speaker laptop</text>
</g>
<!-- speaker_box_hdmi_in -->
<g id="node20" class="node">
<title>speaker_box_hdmi_in</title>
<polygon fill="lightgrey" stroke="black" points="1183,-365.75 1083,-365.75 1083,-308.25 1183,-308.25 1183,-365.75"/>
<text text-anchor="middle" x="1133" y="-348.45" font-family="Times,serif" font-size="14.00">HDMI in</text>
<text text-anchor="middle" x="1133" y="-331.95" font-family="Times,serif" font-size="14.00">left HDMI port</text>
<text text-anchor="middle" x="1133" y="-315.45" font-family="Times,serif" font-size="14.00">female</text>
</g>
<!-- speaker_laptop&#45;&gt;speaker_box_hdmi_in -->
<g id="edge11" class="edge">
<title>speaker_laptop&#45;&gt;speaker_box_hdmi_in</title>
<path fill="none" stroke="black" d="M1195.51,-484C1184.59,-458.51 1164.03,-410.48 1149.48,-376.48"/>
<polygon fill="black" stroke="black" points="1152.73,-375.19 1145.58,-367.38 1146.3,-377.95 1152.73,-375.19"/>
<text text-anchor="middle" x="1260.38" y="-434.2" font-family="Times,serif" font-size="14.00">direct hdmi cable male/male</text>
</g>
<!-- camera_xlr_in_1 -->
<g id="node9" class="node">
<title>camera_xlr_in_1</title>
<polygon fill="none" stroke="black" points="143.88,-365.75 16.12,-365.75 16.12,-308.25 143.88,-308.25 143.88,-365.75"/>
<text text-anchor="middle" x="80" y="-348.45" font-family="Times,serif" font-size="14.00">audio in CH1</text>
<text text-anchor="middle" x="80" y="-331.95" font-family="Times,serif" font-size="14.00">XLR female port</text>
<text text-anchor="middle" x="80" y="-315.45" font-family="Times,serif" font-size="14.00">48V phantom power</text>
</g>
<!-- camera_xlr_in_2 -->
<g id="node10" class="node">
<title>camera_xlr_in_2</title>
<polygon fill="none" stroke="black" points="781.88,-365.75 654.12,-365.75 654.12,-308.25 781.88,-308.25 781.88,-365.75"/>
<text text-anchor="middle" x="718" y="-348.45" font-family="Times,serif" font-size="14.00">audio in CH2</text>
<text text-anchor="middle" x="718" y="-331.95" font-family="Times,serif" font-size="14.00">XLR female port</text>
<text text-anchor="middle" x="718" y="-315.45" font-family="Times,serif" font-size="14.00">48V phantom power</text>
</g>
<!-- camera_hdmi_out -->
<g id="node11" class="node">
<title>camera_hdmi_out</title>
<polygon fill="none" stroke="black" points="635.75,-357.5 474.25,-357.5 474.25,-316.5 635.75,-316.5 635.75,-357.5"/>
<text text-anchor="middle" x="555" y="-340.2" font-family="Times,serif" font-size="14.00">HDMI out</text>
<text text-anchor="middle" x="555" y="-323.7" font-family="Times,serif" font-size="14.00">HDMI A (full size) female</text>
</g>
<!-- cam_box_hdmi_in -->
<g id="node17" class="node">
<title>cam_box_hdmi_in</title>
<polygon fill="lightgrey" stroke="black" points="914.75,-200.25 753.25,-200.25 753.25,-159.25 914.75,-159.25 914.75,-200.25"/>
<text text-anchor="middle" x="834" y="-182.95" font-family="Times,serif" font-size="14.00">HDMI in</text>
<text text-anchor="middle" x="834" y="-166.45" font-family="Times,serif" font-size="14.00">HDMI A (full size) female</text>
</g>
<!-- camera_hdmi_out&#45;&gt;cam_box_hdmi_in -->
<g id="edge14" class="edge">
<title>camera_hdmi_out&#45;&gt;cam_box_hdmi_in</title>
<path fill="none" stroke="black" d="M590.9,-316.02C641.34,-287.96 733.15,-236.87 788.37,-206.14"/>
<polygon fill="black" stroke="black" points="789.88,-209.31 796.91,-201.39 786.47,-203.19 789.88,-209.31"/>
<text text-anchor="middle" x="771.12" y="-276.95" font-family="Times,serif" font-size="14.00">HDMI cable</text>
<text text-anchor="middle" x="771.12" y="-260.45" font-family="Times,serif" font-size="14.00">HDMI A (full size)</text>
<text text-anchor="middle" x="771.12" y="-243.95" font-family="Times,serif" font-size="14.00">male/male</text>
</g>
<!-- camera_internal_mic -->
<g id="node12" class="node">
<title>camera_internal_mic</title>
<polygon fill="none" stroke="black" points="456.12,-357.5 329.88,-357.5 329.88,-316.5 456.12,-316.5 456.12,-357.5"/>
<text text-anchor="middle" x="393" y="-340.2" font-family="Times,serif" font-size="14.00">audio in CH2</text>
<text text-anchor="middle" x="393" y="-323.7" font-family="Times,serif" font-size="14.00">internal microphone</text>
</g>
<!-- camera_audio_monitor -->
<g id="node13" class="node">
<title>camera_audio_monitor</title>
<polygon fill="none" stroke="black" points="312.12,-357.5 161.88,-357.5 161.88,-316.5 312.12,-316.5 312.12,-357.5"/>
<text text-anchor="middle" x="237" y="-340.2" font-family="Times,serif" font-size="14.00">audio monitoring port</text>
<text text-anchor="middle" x="237" y="-323.7" font-family="Times,serif" font-size="14.00">3.5mm trs stereo female</text>
</g>
<!-- headphones -->
<g id="node35" class="node">
<title>headphones</title>
<g id="a_node35"><a xlink:href="https://en-us.sennheiser.com/over-ear-headphones-hd-201" xlink:title="Sennheiser HD201 headphones\n3.5mm trs stereo male\nrental budgetcam">
<polygon fill="none" stroke="black" points="330.12,-208.5 143.88,-208.5 143.88,-151 330.12,-151 330.12,-208.5"/>
<text text-anchor="middle" x="237" y="-191.2" font-family="Times,serif" font-size="14.00">Sennheiser HD201 headphones</text>
<text text-anchor="middle" x="237" y="-174.7" font-family="Times,serif" font-size="14.00">3.5mm trs stereo male</text>
<text text-anchor="middle" x="237" y="-158.2" font-family="Times,serif" font-size="14.00">rental budgetcam</text>
</a>
</g>
</g>
<!-- camera_audio_monitor&#45;&gt;headphones -->
<g id="edge16" class="edge">
<title>camera_audio_monitor&#45;&gt;headphones</title>
<path fill="none" stroke="black" d="M237,-316.02C237,-291.84 237,-250.56 237,-219.94"/>
<polygon fill="black" stroke="black" points="240.5,-220.3 237,-210.3 233.5,-220.3 240.5,-220.3"/>
</g>
<!-- camera_ac_in -->
<g id="node14" class="node">
<title>camera_ac_in</title>
<polygon fill="none" stroke="black" points="908.5,-355 799.5,-355 799.5,-319 908.5,-319 908.5,-355"/>
<text text-anchor="middle" x="854" y="-331.95" font-family="Times,serif" font-size="14.00">camera AC input</text>
</g>
<!-- cam_laptop_ac_in -->
<g id="node15" class="node">
<title>cam_laptop_ac_in</title>
<polygon fill="lightgrey" stroke="black" points="1059,-355 1005,-355 1005,-319 1059,-319 1059,-355"/>
<text text-anchor="middle" x="1032" y="-331.95" font-family="Times,serif" font-size="14.00">AC in</text>
</g>
<!-- cam_laptop_usb -->
<g id="node16" class="node">
<title>cam_laptop_usb</title>
<polygon fill="lightgrey" stroke="black" points="987,-355 933,-355 933,-319 987,-319 987,-355"/>
<text text-anchor="middle" x="960" y="-331.95" font-family="Times,serif" font-size="14.00">USB</text>
</g>
<!-- cam_box_usb -->
<g id="node19" class="node">
<title>cam_box_usb</title>
<polygon fill="lightgrey" stroke="black" points="987,-197.75 933,-197.75 933,-161.75 987,-161.75 987,-197.75"/>
<text text-anchor="middle" x="960" y="-174.7" font-family="Times,serif" font-size="14.00">USB</text>
</g>
<!-- cam_laptop_usb&#45;&gt;cam_box_usb -->
<g id="edge1" class="edge">
<title>cam_laptop_usb&#45;&gt;cam_box_usb</title>
<path fill="none" stroke="black" d="M960,-307.54C960,-279.65 960,-237.37 960,-209.41"/>
<polygon fill="black" stroke="black" points="956.5,-307.28 960,-317.28 963.5,-307.28 956.5,-307.28"/>
<polygon fill="black" stroke="black" points="963.5,-209.55 960,-199.55 956.5,-209.55 963.5,-209.55"/>
</g>
<!-- cam_box_switch -->
<g id="node18" class="node">
<title>cam_box_switch</title>
<polygon fill="lightgrey" stroke="black" points="1136.75,-197.75 1005.25,-197.75 1005.25,-161.75 1136.75,-161.75 1136.75,-197.75"/>
<text text-anchor="middle" x="1071" y="-174.7" font-family="Times,serif" font-size="14.00">3x Gbit dumb switch</text>
</g>
<!-- speaker_box_hdmi_out -->
<g id="node21" class="node">
<title>speaker_box_hdmi_out</title>
<polygon fill="lightgrey" stroke="black" points="1458.75,-365.75 1351.25,-365.75 1351.25,-308.25 1458.75,-308.25 1458.75,-365.75"/>
<text text-anchor="middle" x="1405" y="-348.45" font-family="Times,serif" font-size="14.00">HDMI out</text>
<text text-anchor="middle" x="1405" y="-331.95" font-family="Times,serif" font-size="14.00">right HDMI port</text>
<text text-anchor="middle" x="1405" y="-315.45" font-family="Times,serif" font-size="14.00">female</text>
</g>
<!-- speaker_box_hdmi_out&#45;&gt;room_projector_optional_adapter -->
<g id="edge12" class="edge">
<title>speaker_box_hdmi_out&#45;&gt;room_projector_optional_adapter</title>
<path fill="none" stroke="black" stroke-dasharray="1,5" d="M1429.63,-307.89C1454.91,-279.03 1493.91,-234.5 1518.42,-206.53"/>
<polygon fill="black" stroke="black" points="1520.88,-209.03 1524.83,-199.2 1515.61,-204.42 1520.88,-209.03"/>
<text text-anchor="middle" x="1515.38" y="-268.7" font-family="Times,serif" font-size="14.00">VGA cable</text>
<text text-anchor="middle" x="1515.38" y="-252.2" font-family="Times,serif" font-size="14.00">male/male</text>
</g>
<!-- speaker_box_hdmi_out&#45;&gt;room_projector -->
<g id="edge15" class="edge">
<title>speaker_box_hdmi_out&#45;&gt;room_projector</title>
<path fill="none" stroke="black" d="M1395.91,-307.87C1389.77,-287.31 1382.21,-258.62 1379,-232.75 1374.53,-196.69 1377.42,-187.3 1379,-151 1379.58,-137.74 1380.69,-123.27 1381.86,-110.32"/>
<polygon fill="black" stroke="black" points="1385.34,-110.73 1382.79,-100.44 1378.37,-110.07 1385.34,-110.73"/>
<text text-anchor="middle" x="1413.5" y="-182.95" font-family="Times,serif" font-size="14.00">HDMI cable</text>
<text text-anchor="middle" x="1413.5" y="-166.45" font-family="Times,serif" font-size="14.00">male/male</text>
</g>
<!-- speaker_box_switch -->
<g id="node22" class="node">
<title>speaker_box_switch</title>
<polygon fill="lightgrey" stroke="black" points="1332.75,-355 1201.25,-355 1201.25,-319 1332.75,-319 1332.75,-355"/>
<text text-anchor="middle" x="1267" y="-331.95" font-family="Times,serif" font-size="14.00">3x Gbit dumb switch</text>
</g>
<!-- speaker_box_switch&#45;&gt;cam_box_switch -->
<g id="edge18" class="edge">
<title>speaker_box_switch&#45;&gt;cam_box_switch</title>
<path fill="none" stroke="black" d="M1222.76,-313.07C1210.88,-306.26 1198.27,-298.42 1187.25,-290.25 1152.54,-264.51 1117.01,-229.52 1094.52,-206.09"/>
<polygon fill="black" stroke="black" points="1220.77,-315.97 1231.21,-317.8 1224.19,-309.86 1220.77,-315.97"/>
<polygon fill="black" stroke="black" points="1097.31,-203.95 1087.89,-199.12 1092.24,-208.78 1097.31,-203.95"/>
<text text-anchor="middle" x="1224.88" y="-260.45" font-family="Times,serif" font-size="14.00">ethernet cable</text>
</g>
<!-- video_vlan -->
<g id="node36" class="node">
<title>video_vlan</title>
<polygon fill="none" stroke="black" stroke-dasharray="1,5" points="1333.12,-197.75 1200.88,-197.75 1200.88,-161.75 1333.12,-161.75 1333.12,-197.75"/>
<text text-anchor="middle" x="1267" y="-174.7" font-family="Times,serif" font-size="14.00">FOSDEM video vlan</text>
</g>
<!-- speaker_box_switch&#45;&gt;video_vlan -->
<g id="edge17" class="edge">
<title>speaker_box_switch&#45;&gt;video_vlan</title>
<path fill="none" stroke="black" d="M1267,-307.54C1267,-279.65 1267,-237.37 1267,-209.41"/>
<polygon fill="black" stroke="black" points="1263.5,-307.28 1267,-317.28 1270.5,-307.28 1263.5,-307.28"/>
<polygon fill="black" stroke="black" points="1270.5,-209.55 1267,-199.55 1263.5,-209.55 1270.5,-209.55"/>
<text text-anchor="middle" x="1304.88" y="-260.45" font-family="Times,serif" font-size="14.00">ethernet cable</text>
</g>
<!-- speaker_box_usb -->
<g id="node23" class="node">
<title>speaker_box_usb</title>
<polygon fill="lightgrey" stroke="black" points="1531,-355 1477,-355 1477,-319 1531,-319 1531,-355"/>
<text text-anchor="middle" x="1504" y="-331.95" font-family="Times,serif" font-size="14.00">USB</text>
</g>
<!-- speaker_video_laptop_ac_in -->
<g id="node24" class="node">
<title>speaker_video_laptop_ac_in</title>
<polygon fill="lightgrey" stroke="black" points="1434,-520.5 1380,-520.5 1380,-484.5 1434,-484.5 1434,-520.5"/>
<text text-anchor="middle" x="1407" y="-497.45" font-family="Times,serif" font-size="14.00">AC in</text>
</g>
<!-- speaker_video_laptop_usb -->
<g id="node25" class="node">
<title>speaker_video_laptop_usb</title>
<polygon fill="lightgrey" stroke="black" points="1362,-520.5 1308,-520.5 1308,-484.5 1362,-484.5 1362,-520.5"/>
<text text-anchor="middle" x="1335" y="-497.45" font-family="Times,serif" font-size="14.00">USB</text>
</g>
<!-- speaker_video_laptop_usb&#45;&gt;speaker_box_usb -->
<g id="edge2" class="edge">
<title>speaker_video_laptop_usb&#45;&gt;speaker_box_usb</title>
<path fill="none" stroke="black" d="M1358.71,-476.03C1362.64,-472.38 1366.81,-468.82 1371,-465.75 1410.27,-436.94 1434.35,-449.96 1468,-414.75 1481.01,-401.14 1490.01,-381.96 1495.75,-366.18"/>
<polygon fill="black" stroke="black" points="1356.32,-473.47 1351.63,-482.96 1361.22,-478.47 1356.32,-473.47"/>
<polygon fill="black" stroke="black" points="1499.02,-367.45 1498.89,-356.85 1492.39,-365.22 1499.02,-367.45"/>
</g>
<!-- mix_panel_out_1 -->
<g id="node29" class="node">
<title>mix_panel_out_1</title>
<polygon fill="none" stroke="black" points="364,-531.25 228,-531.25 228,-473.75 364,-473.75 364,-531.25"/>
<text text-anchor="middle" x="296" y="-513.95" font-family="Times,serif" font-size="14.00">mix panel out left</text>
<text text-anchor="middle" x="296" y="-497.45" font-family="Times,serif" font-size="14.00">XLR male port</text>
<text text-anchor="middle" x="296" y="-480.95" font-family="Times,serif" font-size="14.00">balanced left or mono</text>
</g>
<!-- mix_panel_out_1&#45;&gt;camera_xlr_in_1 -->
<g id="edge9" class="edge">
<title>mix_panel_out_1&#45;&gt;camera_xlr_in_1</title>
<path fill="none" stroke="black" d="M242.16,-473.34C214.36,-457.71 180.59,-436.97 153,-414.75 138.05,-402.72 123.16,-387.74 110.77,-374.22"/>
<polygon fill="black" stroke="black" points="113.7,-372.25 104.41,-367.16 108.5,-376.93 113.7,-372.25"/>
<text text-anchor="middle" x="243.12" y="-442.45" font-family="Times,serif" font-size="14.00">xlr cable</text>
<text text-anchor="middle" x="243.12" y="-425.95" font-family="Times,serif" font-size="14.00">female/male</text>
</g>
<!-- mix_panel_out_2 -->
<g id="node30" class="node">
<title>mix_panel_out_2</title>
<polygon fill="none" stroke="black" points="525.75,-531.25 382.25,-531.25 382.25,-473.75 525.75,-473.75 525.75,-531.25"/>
<text text-anchor="middle" x="454" y="-513.95" font-family="Times,serif" font-size="14.00">mix panel out right</text>
<text text-anchor="middle" x="454" y="-497.45" font-family="Times,serif" font-size="14.00">XLR male port</text>
<text text-anchor="middle" x="454" y="-480.95" font-family="Times,serif" font-size="14.00">balanced right or mono</text>
</g>
<!-- mix_panel_out_2&#45;&gt;camera_xlr_in_2 -->
<g id="edge10" class="edge">
<title>mix_panel_out_2&#45;&gt;camera_xlr_in_2</title>
<path fill="none" stroke="black" d="M517.56,-473.33C570.89,-449.58 639.27,-418.83 645,-414.75 660.88,-403.45 676.13,-388.35 688.54,-374.53"/>
<polygon fill="black" stroke="black" points="690.94,-377.11 694.89,-367.28 685.67,-372.5 690.94,-377.11"/>
<text text-anchor="middle" x="662.12" y="-442.45" font-family="Times,serif" font-size="14.00">xlr cable</text>
<text text-anchor="middle" x="662.12" y="-425.95" font-family="Times,serif" font-size="14.00">female/male</text>
</g>
<!-- mix_panel_ac_in -->
<g id="node31" class="node">
<title>mix_panel_ac_in</title>
<polygon fill="none" stroke="black" points="906,-520.5 852,-520.5 852,-484.5 906,-484.5 906,-520.5"/>
<text text-anchor="middle" x="879" y="-497.45" font-family="Times,serif" font-size="14.00">AC in</text>
</g>
<!-- cam_power_strip -->
<g id="node32" class="node">
<title>cam_power_strip</title>
<polygon fill="none" stroke="black" points="1116.5,-669.75 947.5,-669.75 947.5,-628.75 1116.5,-628.75 1116.5,-669.75"/>
<text text-anchor="middle" x="1032" y="-652.45" font-family="Times,serif" font-size="14.00">camera side power strip</text>
<text text-anchor="middle" x="1032" y="-635.95" font-family="Times,serif" font-size="14.00">&gt;=4 CEE 7/3 or 7/5 sockets</text>
</g>
<!-- cam_power_strip&#45;&gt;camera_ac_in -->
<g id="edge19" class="edge">
<title>cam_power_strip&#45;&gt;camera_ac_in</title>
<path fill="none" stroke="black" d="M1032,-595.5C1008.89,-530.49 1056.19,-504.87 1032,-440.25"/>
<path fill="none" stroke="black" d="M1032,-438.25C1014.32,-391.02 964.49,-440.28 921,-414.75 900.22,-402.55 882.58,-381.59 870.62,-364.66"/>
<polygon fill="black" stroke="black" points="873.61,-362.83 865.11,-356.5 867.81,-366.75 873.61,-362.83"/>
</g>
<!-- cam_power_strip&#45;&gt;cam_laptop_ac_in -->
<g id="edge20" class="edge">
<title>cam_power_strip&#45;&gt;cam_laptop_ac_in</title>
<path fill="none" stroke="black" d="M1032,-438.25C1023.38,-415.22 1024.28,-387.08 1026.81,-366.48"/>
<polygon fill="black" stroke="black" points="1030.24,-367.22 1028.21,-356.82 1023.31,-366.21 1030.24,-367.22"/>
</g>
<!-- cam_power_strip&#45;&gt;mix_panel_ac_in -->
<g id="edge21" class="edge">
<title>cam_power_strip&#45;&gt;mix_panel_ac_in</title>
<path fill="none" stroke="black" d="M1035.04,-628.45C1035.75,-618.84 1035.48,-607.3 1032,-597.5"/>
<path fill="none" stroke="black" d="M1032,-595.5C1027.54,-582.96 960.21,-545.84 916.37,-522.77"/>
<polygon fill="black" stroke="black" points="918.15,-519.75 907.67,-518.21 914.9,-525.95 918.15,-519.75"/>
</g>
<!-- speaker_power_strip -->
<g id="node33" class="node">
<title>speaker_power_strip</title>
<polygon fill="none" stroke="black" points="1491.5,-669.75 1322.5,-669.75 1322.5,-628.75 1491.5,-628.75 1491.5,-669.75"/>
<text text-anchor="middle" x="1407" y="-652.45" font-family="Times,serif" font-size="14.00">speaker side power strip</text>
<text text-anchor="middle" x="1407" y="-635.95" font-family="Times,serif" font-size="14.00">&gt;=4 CEE 7/3 or 7/5 sockets</text>
</g>
<!-- speaker_power_strip&#45;&gt;speaker_laptop -->
<g id="edge22" class="edge">
<title>speaker_power_strip&#45;&gt;speaker_laptop</title>
<path fill="none" stroke="black" d="M1410.59,-628.7C1411.51,-618.94 1411.24,-607.18 1407,-597.5"/>
<path fill="none" stroke="black" d="M1407,-595.5C1397,-572.7 1318.8,-590.25 1296,-580.25 1268.98,-568.4 1243.52,-546.34 1226.1,-528.9"/>
<polygon fill="black" stroke="black" points="1228.75,-526.6 1219.27,-521.86 1223.72,-531.47 1228.75,-526.6"/>
</g>
<!-- speaker_power_strip&#45;&gt;speaker_video_laptop_ac_in -->
<g id="edge23" class="edge">
<title>speaker_power_strip&#45;&gt;speaker_video_laptop_ac_in</title>
<path fill="none" stroke="black" d="M1407,-595.5C1398.28,-575.61 1398.82,-550.89 1401.25,-532.08"/>
<polygon fill="black" stroke="black" points="1404.67,-532.88 1402.76,-522.46 1397.75,-531.8 1404.67,-532.88"/>
</g>
</g>
</svg>
