<?xml version="1.0" encoding="UTF-8" standalone="no"?>
<!DOCTYPE svg PUBLIC "-//W3C//DTD SVG 1.1//EN"
 "http://www.w3.org/Graphics/SVG/1.1/DTD/svg11.dtd">
<!-- Generated by graphviz version 2.40.1 (20161225.0304)
 -->
<!-- Title: G Pages: 1 -->
<svg width="2235pt" height="957pt"
 viewBox="0.00 0.00 2235.00 957.00" xmlns="http://www.w3.org/2000/svg" xmlns:xlink="http://www.w3.org/1999/xlink">
<g id="graph0" class="graph" transform="scale(1 1) rotate(0) translate(4 953)">
<title>G</title>
<polygon fill="#ffffff" stroke="transparent" points="-4,4 -4,-953 2231,-953 2231,4 -4,4"/>
<text text-anchor="middle" x="1113.5" y="-22.8" font-family="Times,serif" font-size="14.00" fill="#000000">FOSDEM 2019 large rooms video cabling setup:</text>
<text text-anchor="middle" x="1113.5" y="-7.8" font-family="Times,serif" font-size="14.00" fill="#000000">h1301, h1302, h1308, h1309, h2215, ua2114, ua2118, ua2220, ub2252a, ud2120, ud2208, ud2218a</text>
<g id="clust1" class="cluster">
<title>cluster_speaker_microphone_receiver</title>
<g id="a_clust1"><a xlink:href="https://en-us.sennheiser.com/global-downloads/file/6524/AVX_Manual_06_2015_EN.pdf" xlink:title="speaker microphone receiver\nsennheiser ekp avx receiver\nDC autonomy: &gt;4h (BA20 battery)\n430 mAh\nAC autonomy: ∞\nphantom auto power on/off">
<polygon fill="none" stroke="#000000" points="1407,-583 1407,-735 1657,-735 1657,-583 1407,-583"/>
<text text-anchor="middle" x="1532" y="-719.8" font-family="Times,serif" font-size="14.00" fill="#000000">speaker microphone receiver</text>
<text text-anchor="middle" x="1532" y="-704.8" font-family="Times,serif" font-size="14.00" fill="#000000">sennheiser ekp avx receiver</text>
<text text-anchor="middle" x="1532" y="-689.8" font-family="Times,serif" font-size="14.00" fill="#000000">DC autonomy: &gt;4h (BA20 battery)</text>
<text text-anchor="middle" x="1532" y="-674.8" font-family="Times,serif" font-size="14.00" fill="#000000">430 mAh</text>
<text text-anchor="middle" x="1532" y="-659.8" font-family="Times,serif" font-size="14.00" fill="#000000">AC autonomy: ∞</text>
<text text-anchor="middle" x="1532" y="-644.8" font-family="Times,serif" font-size="14.00" fill="#000000">phantom auto power on/off</text>
</a>
</g>
</g>
<g id="clust2" class="cluster">
<title>cluster_audience_microphone_receiver</title>
<g id="a_clust2"><a xlink:href="https://en-us.sennheiser.com/global-downloads/file/6524/AVX_Manual_06_2015_EN.pdf" xlink:title="audience microphone receiver\nsennheiser ekp avx receiver\nDC autonomy: &gt;4h (BA20 battery)\n430 mAh\nAC autonomy: ∞\nphantom auto power on/off">
<polygon fill="none" stroke="#000000" points="1113,-583 1113,-735 1363,-735 1363,-583 1113,-583"/>
<text text-anchor="middle" x="1238" y="-719.8" font-family="Times,serif" font-size="14.00" fill="#000000">audience microphone receiver</text>
<text text-anchor="middle" x="1238" y="-704.8" font-family="Times,serif" font-size="14.00" fill="#000000">sennheiser ekp avx receiver</text>
<text text-anchor="middle" x="1238" y="-689.8" font-family="Times,serif" font-size="14.00" fill="#000000">DC autonomy: &gt;4h (BA20 battery)</text>
<text text-anchor="middle" x="1238" y="-674.8" font-family="Times,serif" font-size="14.00" fill="#000000">430 mAh</text>
<text text-anchor="middle" x="1238" y="-659.8" font-family="Times,serif" font-size="14.00" fill="#000000">AC autonomy: ∞</text>
<text text-anchor="middle" x="1238" y="-644.8" font-family="Times,serif" font-size="14.00" fill="#000000">phantom auto power on/off</text>
</a>
</g>
</g>
<g id="clust3" class="cluster">
<title>cluster_mix_panel</title>
<polygon fill="none" stroke="#000000" points="966,-427 966,-534 1665,-534 1665,-427 966,-427"/>
<text text-anchor="middle" x="1315.5" y="-518.8" font-family="Times,serif" font-size="14.00" fill="#000000">FOSDEM audio mix panel</text>
<text text-anchor="middle" x="1315.5" y="-503.8" font-family="Times,serif" font-size="14.00" fill="#000000">Yamaha MG10</text>
</g>
<g id="clust4" class="cluster">
<title>cluster_camera</title>
<g id="a_clust4"><a xlink:href="https://pro.sony.com/bbsccms/assets/files/micro/nxcam/latest/Sony_HXR-NX100.pdf" xlink:title="camera\nSony HXR&#45;NX100">
<polygon fill="none" stroke="#000000" points="8,-272 8,-379 926,-379 926,-272 8,-272"/>
<text text-anchor="middle" x="467" y="-363.8" font-family="Times,serif" font-size="14.00" fill="#000000">camera</text>
<text text-anchor="middle" x="467" y="-348.8" font-family="Times,serif" font-size="14.00" fill="#000000">Sony HXR&#45;NX100</text>
</a>
</g>
</g>
<g id="clust5" class="cluster">
<title>cluster_fosdem_network</title>
<polygon fill="none" stroke="#d3d3d3" points="1673,-116.5 1673,-550 2137,-550 2137,-116.5 1673,-116.5"/>
<text text-anchor="middle" x="1905" y="-534.8" font-family="Times,serif" font-size="14.00" fill="#000000">FOSDEM video boxes</text>
</g>
<g id="clust6" class="cluster">
<title>cluster_cam_box</title>
<g id="a_clust6"><a xlink:href="https://github.com/FOSDEM/video" xlink:title="camera box">
<polygon fill="none" stroke="#d3d3d3" points="1681,-124.5 1681,-201.5 2083,-201.5 2083,-124.5 1681,-124.5"/>
<text text-anchor="middle" x="1882" y="-186.3" font-family="Times,serif" font-size="14.00" fill="#000000">camera box</text>
</a>
</g>
</g>
<g id="clust7" class="cluster">
<title>cluster_speaker_box</title>
<g id="a_clust7"><a xlink:href="https://github.com/FOSDEM/video" xlink:title="speaker box">
<polygon fill="none" stroke="#d3d3d3" points="1681,-427 1681,-519 2129,-519 2129,-427 1681,-427"/>
<text text-anchor="middle" x="1905" y="-503.8" font-family="Times,serif" font-size="14.00" fill="#000000">speaker box</text>
</a>
</g>
</g>
<g id="clust8" class="cluster">
<title>cluster_ulb_hardware</title>
<polygon fill="none" stroke="#000000" points="1280,-264.5 1280,-371.5 1632,-371.5 1632,-264.5 1280,-264.5"/>
<text text-anchor="middle" x="1456" y="-356.3" font-family="Times,serif" font-size="14.00" fill="#000000">ULB hardware</text>
</g>
<!-- usb_powerbank -->
<g id="node1" class="node">
<title>usb_powerbank</title>
<polygon fill="none" stroke="#000000" points="1466.5,-851.5 1359.5,-851.5 1359.5,-813.5 1466.5,-813.5 1466.5,-851.5"/>
<text text-anchor="middle" x="1413" y="-836.3" font-family="Times,serif" font-size="14.00" fill="#000000">USB powerbank</text>
<text text-anchor="middle" x="1413" y="-821.3" font-family="Times,serif" font-size="14.00" fill="#000000">10.4k mAh</text>
</g>
<!-- speaker_microphone_receiver_usb_power_connector -->
<g id="node3" class="node">
<title>speaker_microphone_receiver_usb_power_connector</title>
<polygon fill="none" stroke="#000000" points="1528.5,-629 1415.5,-629 1415.5,-591 1528.5,-591 1528.5,-629"/>
<text text-anchor="middle" x="1472" y="-613.8" font-family="Times,serif" font-size="14.00" fill="#000000">power input port</text>
<text text-anchor="middle" x="1472" y="-598.8" font-family="Times,serif" font-size="14.00" fill="#000000">micro usb female</text>
</g>
<!-- usb_powerbank&#45;&gt;speaker_microphone_receiver_usb_power_connector -->
<g id="edge2" class="edge">
<title>usb_powerbank&#45;&gt;speaker_microphone_receiver_usb_power_connector</title>
<path fill="none" stroke="#000000" d="M1427.7341,-813.4752C1435.6249,-802.2941 1444.7718,-787.537 1450,-773 1466.0624,-728.3387 1470.5413,-672.96 1471.7072,-639.6073"/>
<polygon fill="#000000" stroke="#000000" points="1475.2172,-639.2786 1471.9875,-629.1881 1468.2197,-639.0903 1475.2172,-639.2786"/>
<text text-anchor="middle" x="1534.5" y="-761.8" font-family="Times,serif" font-size="14.00" fill="#000000">USB A &#45;&gt; micro USB cable</text>
<text text-anchor="middle" x="1534.5" y="-746.8" font-family="Times,serif" font-size="14.00" fill="#000000">included in mic kit</text>
</g>
<!-- audience_microphone_receiver_usb_power_connector -->
<g id="node6" class="node">
<title>audience_microphone_receiver_usb_power_connector</title>
<polygon fill="none" stroke="#000000" points="1354.5,-629 1241.5,-629 1241.5,-591 1354.5,-591 1354.5,-629"/>
<text text-anchor="middle" x="1298" y="-613.8" font-family="Times,serif" font-size="14.00" fill="#000000">power input port</text>
<text text-anchor="middle" x="1298" y="-598.8" font-family="Times,serif" font-size="14.00" fill="#000000">micro usb female</text>
</g>
<!-- usb_powerbank&#45;&gt;audience_microphone_receiver_usb_power_connector -->
<g id="edge5" class="edge">
<title>usb_powerbank&#45;&gt;audience_microphone_receiver_usb_power_connector</title>
<path fill="none" stroke="#000000" d="M1360.6597,-813.4277C1331.4205,-801.5967 1299.242,-786.1897 1291,-773 1265.4946,-732.1839 1276.932,-673.7382 1287.5071,-639.049"/>
<polygon fill="#000000" stroke="#000000" points="1290.98,-639.6835 1290.7195,-629.0919 1284.3181,-637.5342 1290.98,-639.6835"/>
<text text-anchor="middle" x="1368.5" y="-761.8" font-family="Times,serif" font-size="14.00" fill="#000000">USB A &#45;&gt; micro USB cable</text>
<text text-anchor="middle" x="1368.5" y="-746.8" font-family="Times,serif" font-size="14.00" fill="#000000">included in mic kit</text>
</g>
<!-- speaker_microphone -->
<g id="node2" class="node">
<title>speaker_microphone</title>
<g id="a_node2"><a xlink:href="https://en-us.sennheiser.com/global-downloads/file/6524/AVX_Manual_06_2015_EN.pdf" xlink:title="speaker microphone\nsennheiser avx me2\nesk avx bodypack transmitter\nautonomy: 15h (BA30 battery)/11h (2x AA)\n2030 mAh">
<polygon fill="none" stroke="#000000" points="1779.5,-874 1520.5,-874 1520.5,-791 1779.5,-791 1779.5,-874"/>
<text text-anchor="middle" x="1650" y="-858.8" font-family="Times,serif" font-size="14.00" fill="#000000">speaker microphone</text>
<text text-anchor="middle" x="1650" y="-843.8" font-family="Times,serif" font-size="14.00" fill="#000000">sennheiser avx me2</text>
<text text-anchor="middle" x="1650" y="-828.8" font-family="Times,serif" font-size="14.00" fill="#000000">esk avx bodypack transmitter</text>
<text text-anchor="middle" x="1650" y="-813.8" font-family="Times,serif" font-size="14.00" fill="#000000">autonomy: 15h (BA30 battery)/11h (2x AA)</text>
<text text-anchor="middle" x="1650" y="-798.8" font-family="Times,serif" font-size="14.00" fill="#000000">2030 mAh</text>
</a>
</g>
</g>
<!-- speaker_microphone_receiver_xlr_connector -->
<g id="node4" class="node">
<title>speaker_microphone_receiver_xlr_connector</title>
<polygon fill="none" stroke="#000000" points="1649,-628 1547,-628 1547,-592 1649,-592 1649,-628"/>
<text text-anchor="middle" x="1598" y="-606.3" font-family="Times,serif" font-size="14.00" fill="#000000">XLR male plug</text>
</g>
<!-- speaker_microphone&#45;&gt;speaker_microphone_receiver_xlr_connector -->
<g id="edge1" class="edge">
<title>speaker_microphone&#45;&gt;speaker_microphone_receiver_xlr_connector</title>
<path fill="none" stroke="#000000" d="M1640.2802,-790.9105C1637.1097,-777.3443 1633.3987,-761.4656 1629.5157,-744.8508"/>
<polygon fill="#000000" stroke="#000000" points="1632.8963,-743.9361 1627.2123,-734.995 1626.08,-745.5292 1632.8963,-743.9361"/>
<text text-anchor="middle" x="1683.5" y="-754.3" font-family="Times,serif" font-size="14.00" fill="#000000">1.9 GHz wireless</text>
</g>
<!-- mix_panel_mic_1_in -->
<g id="node8" class="node">
<title>mix_panel_mic_1_in</title>
<polygon fill="none" stroke="#000000" points="1656.5,-488 1519.5,-488 1519.5,-435 1656.5,-435 1656.5,-488"/>
<text text-anchor="middle" x="1588" y="-472.8" font-family="Times,serif" font-size="14.00" fill="#000000">mic 1 in</text>
<text text-anchor="middle" x="1588" y="-457.8" font-family="Times,serif" font-size="14.00" fill="#000000">XLR female port</text>
<text text-anchor="middle" x="1588" y="-442.8" font-family="Times,serif" font-size="14.00" fill="#000000">+48V phantom power</text>
</g>
<!-- speaker_microphone_receiver_xlr_connector&#45;&gt;mix_panel_mic_1_in -->
<g id="edge3" class="edge">
<title>speaker_microphone_receiver_xlr_connector&#45;&gt;mix_panel_mic_1_in</title>
<path fill="none" stroke="#000000" d="M1596.7738,-591.791C1595.2109,-568.5821 1592.4719,-527.9081 1590.4689,-498.1638"/>
<polygon fill="#000000" stroke="#000000" points="1593.9584,-497.8875 1589.7943,-488.1452 1586.9742,-498.3578 1593.9584,-497.8875"/>
</g>
<!-- audience_microphone -->
<g id="node5" class="node">
<title>audience_microphone</title>
<g id="a_node5"><a xlink:href="https://en-us.sennheiser.com/global-downloads/file/6524/AVX_Manual_06_2015_EN.pdf" xlink:title="audience microphone\nsennheiser avx 835\nautonomy: 13h (BA10 battery)/11h (2x AA)\n2200 mAh">
<polygon fill="none" stroke="#000000" points="1301.5,-866.5 1042.5,-866.5 1042.5,-798.5 1301.5,-798.5 1301.5,-866.5"/>
<text text-anchor="middle" x="1172" y="-851.3" font-family="Times,serif" font-size="14.00" fill="#000000">audience microphone</text>
<text text-anchor="middle" x="1172" y="-836.3" font-family="Times,serif" font-size="14.00" fill="#000000">sennheiser avx 835</text>
<text text-anchor="middle" x="1172" y="-821.3" font-family="Times,serif" font-size="14.00" fill="#000000">autonomy: 13h (BA10 battery)/11h (2x AA)</text>
<text text-anchor="middle" x="1172" y="-806.3" font-family="Times,serif" font-size="14.00" fill="#000000">2200 mAh</text>
</a>
</g>
</g>
<!-- audience_microphone_receiver_xlr_connector -->
<g id="node7" class="node">
<title>audience_microphone_receiver_xlr_connector</title>
<polygon fill="none" stroke="#000000" points="1223,-628 1121,-628 1121,-592 1223,-592 1223,-628"/>
<text text-anchor="middle" x="1172" y="-606.3" font-family="Times,serif" font-size="14.00" fill="#000000">XLR male plug</text>
</g>
<!-- audience_microphone&#45;&gt;audience_microphone_receiver_xlr_connector -->
<g id="edge4" class="edge">
<title>audience_microphone&#45;&gt;audience_microphone_receiver_xlr_connector</title>
<path fill="none" stroke="#000000" d="M1172,-798.222C1172,-783.2634 1172,-764.6632 1172,-745.0262"/>
<polygon fill="#000000" stroke="#000000" points="1175.5001,-744.9969 1172,-734.997 1168.5001,-744.997 1175.5001,-744.9969"/>
<text text-anchor="middle" x="1219.5" y="-754.3" font-family="Times,serif" font-size="14.00" fill="#000000">1.9 GHz wireless</text>
</g>
<!-- mix_panel_mic_2_in -->
<g id="node9" class="node">
<title>mix_panel_mic_2_in</title>
<polygon fill="none" stroke="#000000" points="1501.5,-488 1364.5,-488 1364.5,-435 1501.5,-435 1501.5,-488"/>
<text text-anchor="middle" x="1433" y="-472.8" font-family="Times,serif" font-size="14.00" fill="#000000">mic 2 in</text>
<text text-anchor="middle" x="1433" y="-457.8" font-family="Times,serif" font-size="14.00" fill="#000000">XLR female port</text>
<text text-anchor="middle" x="1433" y="-442.8" font-family="Times,serif" font-size="14.00" fill="#000000">+48V phantom power</text>
</g>
<!-- audience_microphone_receiver_xlr_connector&#45;&gt;mix_panel_mic_2_in -->
<g id="edge6" class="edge">
<title>audience_microphone_receiver_xlr_connector&#45;&gt;mix_panel_mic_2_in</title>
<path fill="none" stroke="#000000" d="M1210.3643,-591.9574C1217.793,-588.7672 1225.5767,-585.6295 1233,-583 1285.9471,-564.2447 1307.2981,-579.6596 1355,-550 1376.8698,-536.402 1396.0737,-514.8108 1409.9543,-496.3592"/>
<polygon fill="#000000" stroke="#000000" points="1412.8824,-498.2841 1415.9477,-488.1424 1407.227,-494.159 1412.8824,-498.2841"/>
</g>
<!-- mix_panel_out_1 -->
<g id="node10" class="node">
<title>mix_panel_out_1</title>
<polygon fill="none" stroke="#000000" points="1183.5,-488 1046.5,-488 1046.5,-435 1183.5,-435 1183.5,-488"/>
<text text-anchor="middle" x="1115" y="-472.8" font-family="Times,serif" font-size="14.00" fill="#000000">mix panel out left</text>
<text text-anchor="middle" x="1115" y="-457.8" font-family="Times,serif" font-size="14.00" fill="#000000">XLR male port</text>
<text text-anchor="middle" x="1115" y="-442.8" font-family="Times,serif" font-size="14.00" fill="#000000">balanced left or mono</text>
</g>
<!-- camera_xlr_in_1 -->
<g id="node15" class="node">
<title>camera_xlr_in_1</title>
<polygon fill="none" stroke="#000000" points="917.5,-333 788.5,-333 788.5,-280 917.5,-280 917.5,-333"/>
<text text-anchor="middle" x="853" y="-317.8" font-family="Times,serif" font-size="14.00" fill="#000000">audio in CH1</text>
<text text-anchor="middle" x="853" y="-302.8" font-family="Times,serif" font-size="14.00" fill="#000000">XLR female port</text>
<text text-anchor="middle" x="853" y="-287.8" font-family="Times,serif" font-size="14.00" fill="#000000">48V phantom power</text>
</g>
<!-- mix_panel_out_1&#45;&gt;camera_xlr_in_1 -->
<g id="edge7" class="edge">
<title>mix_panel_out_1&#45;&gt;camera_xlr_in_1</title>
<path fill="none" stroke="#000000" d="M1069.9606,-434.8546C1024.6457,-408.0461 954.7614,-366.7023 906.6154,-338.219"/>
<polygon fill="#000000" stroke="#000000" points="908.2781,-335.1361 897.8893,-333.0567 904.7139,-341.1608 908.2781,-335.1361"/>
<text text-anchor="middle" x="1071.5" y="-405.8" font-family="Times,serif" font-size="14.00" fill="#000000">xlr cable</text>
<text text-anchor="middle" x="1071.5" y="-390.8" font-family="Times,serif" font-size="14.00" fill="#000000">female/male</text>
</g>
<!-- mix_panel_out_2 -->
<g id="node11" class="node">
<title>mix_panel_out_2</title>
<polygon fill="none" stroke="#000000" points="1346,-488 1202,-488 1202,-435 1346,-435 1346,-488"/>
<text text-anchor="middle" x="1274" y="-472.8" font-family="Times,serif" font-size="14.00" fill="#000000">mix panel out right</text>
<text text-anchor="middle" x="1274" y="-457.8" font-family="Times,serif" font-size="14.00" fill="#000000">XLR male port</text>
<text text-anchor="middle" x="1274" y="-442.8" font-family="Times,serif" font-size="14.00" fill="#000000">balanced right or mono</text>
</g>
<!-- room_amplification -->
<g id="node30" class="node">
<title>room_amplification</title>
<polygon fill="none" stroke="#000000" points="1452,-324.5 1288,-324.5 1288,-288.5 1452,-288.5 1452,-324.5"/>
<text text-anchor="middle" x="1370" y="-302.8" font-family="Times,serif" font-size="14.00" fill="#000000">room amplification system</text>
</g>
<!-- mix_panel_out_2&#45;&gt;room_amplification -->
<g id="edge8" class="edge">
<title>mix_panel_out_2&#45;&gt;room_amplification</title>
<path fill="none" stroke="#000000" d="M1290.503,-434.8546C1308.111,-406.4249 1335.8434,-361.6486 1353.4641,-333.1986"/>
<polygon fill="#000000" stroke="#000000" points="1356.5142,-334.9211 1358.8041,-324.5767 1350.5631,-331.2353 1356.5142,-334.9211"/>
<text text-anchor="middle" x="1353.5" y="-405.8" font-family="Times,serif" font-size="14.00" fill="#000000">xlr cable</text>
<text text-anchor="middle" x="1353.5" y="-390.8" font-family="Times,serif" font-size="14.00" fill="#000000">female/male</text>
</g>
<!-- mix_panel_ac_in -->
<g id="node12" class="node">
<title>mix_panel_ac_in</title>
<polygon fill="none" stroke="#000000" points="1028,-479.5 974,-479.5 974,-443.5 1028,-443.5 1028,-479.5"/>
<text text-anchor="middle" x="1001" y="-457.8" font-family="Times,serif" font-size="14.00" fill="#000000">AC in</text>
</g>
<!-- speaker_laptop -->
<g id="node13" class="node">
<title>speaker_laptop</title>
<polygon fill="none" stroke="#000000" points="1949.5,-850.5 1854.5,-850.5 1854.5,-814.5 1949.5,-814.5 1949.5,-850.5"/>
<text text-anchor="middle" x="1902" y="-828.8" font-family="Times,serif" font-size="14.00" fill="#000000">speaker laptop</text>
</g>
<!-- speaker_laptop_optional_adapter -->
<g id="node14" class="node">
<title>speaker_laptop_optional_adapter</title>
<polygon fill="none" stroke="#000000" stroke-dasharray="1,5" points="2013.5,-628 1844.5,-628 1844.5,-592 2013.5,-592 2013.5,-628"/>
<text text-anchor="middle" x="1929" y="-606.3" font-family="Times,serif" font-size="14.00" fill="#000000">optional vga&#45;&gt;hdmi adapter</text>
</g>
<!-- speaker_laptop&#45;&gt;speaker_laptop_optional_adapter -->
<g id="edge10" class="edge">
<title>speaker_laptop&#45;&gt;speaker_laptop_optional_adapter</title>
<path fill="none" stroke="#000000" stroke-dasharray="1,5" d="M1904.2095,-814.2919C1908.9183,-775.4879 1919.9692,-684.4202 1925.589,-638.1092"/>
<polygon fill="#000000" stroke="#000000" points="1929.0676,-638.4965 1926.7978,-628.1476 1922.1186,-637.6532 1929.0676,-638.4965"/>
<text text-anchor="middle" x="1943" y="-761.8" font-family="Times,serif" font-size="14.00" fill="#000000">VGA cable</text>
<text text-anchor="middle" x="1943" y="-746.8" font-family="Times,serif" font-size="14.00" fill="#000000">male/male</text>
</g>
<!-- speaker_box_hdmi_in -->
<g id="node24" class="node">
<title>speaker_box_hdmi_in</title>
<polygon fill="#d3d3d3" stroke="#000000" points="2121,-488 2029,-488 2029,-435 2121,-435 2121,-488"/>
<text text-anchor="middle" x="2075" y="-472.8" font-family="Times,serif" font-size="14.00" fill="#000000">hdmi in</text>
<text text-anchor="middle" x="2075" y="-457.8" font-family="Times,serif" font-size="14.00" fill="#000000">left hdmi port</text>
<text text-anchor="middle" x="2075" y="-442.8" font-family="Times,serif" font-size="14.00" fill="#000000">female</text>
</g>
<!-- speaker_laptop&#45;&gt;speaker_box_hdmi_in -->
<g id="edge9" class="edge">
<title>speaker_laptop&#45;&gt;speaker_box_hdmi_in</title>
<path fill="none" stroke="#000000" d="M1935.3474,-814.443C1963.1828,-797.5944 2001.6379,-769.8449 2023,-735 2068.9221,-660.0939 2075.8463,-553.6606 2076.0015,-498.2449"/>
<polygon fill="#000000" stroke="#000000" points="2079.5013,-498.1722 2075.9558,-488.1882 2072.5014,-498.2041 2079.5013,-498.1722"/>
<text text-anchor="middle" x="2148.5" y="-606.3" font-family="Times,serif" font-size="14.00" fill="#000000">direct hdmi cable male/male</text>
</g>
<!-- speaker_laptop_optional_adapter&#45;&gt;speaker_box_hdmi_in -->
<g id="edge11" class="edge">
<title>speaker_laptop_optional_adapter&#45;&gt;speaker_box_hdmi_in</title>
<path fill="none" stroke="#000000" stroke-dasharray="1,5" d="M1923.8415,-591.8548C1921.8594,-580.68 1921.7465,-566.8474 1930,-558 1943.6966,-543.3179 2002.9001,-560.524 2020,-550 2039.3737,-538.0766 2052.9853,-516.512 2061.8209,-497.6554"/>
<polygon fill="#000000" stroke="#000000" points="2065.074,-498.9524 2065.895,-488.3894 2058.666,-496.1349 2065.074,-498.9524"/>
<text text-anchor="middle" x="1995.5" y="-561.8" font-family="Times,serif" font-size="14.00" fill="#000000">HDMI cable male/male</text>
</g>
<!-- camera_xlr_in_2 -->
<g id="node16" class="node">
<title>camera_xlr_in_2</title>
<polygon fill="none" stroke="#000000" points="770.5,-333 641.5,-333 641.5,-280 770.5,-280 770.5,-333"/>
<text text-anchor="middle" x="706" y="-317.8" font-family="Times,serif" font-size="14.00" fill="#000000">audio in CH2</text>
<text text-anchor="middle" x="706" y="-302.8" font-family="Times,serif" font-size="14.00" fill="#000000">XLR female port</text>
<text text-anchor="middle" x="706" y="-287.8" font-family="Times,serif" font-size="14.00" fill="#000000">48V phantom power</text>
</g>
<!-- camera_hdmi_out -->
<g id="node17" class="node">
<title>camera_hdmi_out</title>
<polygon fill="none" stroke="#000000" points="623,-325.5 459,-325.5 459,-287.5 623,-287.5 623,-325.5"/>
<text text-anchor="middle" x="541" y="-310.3" font-family="Times,serif" font-size="14.00" fill="#000000">HDMI out</text>
<text text-anchor="middle" x="541" y="-295.3" font-family="Times,serif" font-size="14.00" fill="#000000">HDMI A (full size) female</text>
</g>
<!-- cam_box_hdmi_in -->
<g id="node21" class="node">
<title>cam_box_hdmi_in</title>
<polygon fill="#d3d3d3" stroke="#000000" points="1853,-170.5 1689,-170.5 1689,-132.5 1853,-132.5 1853,-170.5"/>
<text text-anchor="middle" x="1771" y="-155.3" font-family="Times,serif" font-size="14.00" fill="#000000">HDMI in</text>
<text text-anchor="middle" x="1771" y="-140.3" font-family="Times,serif" font-size="14.00" fill="#000000">HDMI A (full size) female</text>
</g>
<!-- camera_hdmi_out&#45;&gt;cam_box_hdmi_in -->
<g id="edge12" class="edge">
<title>camera_hdmi_out&#45;&gt;cam_box_hdmi_in</title>
<path fill="none" stroke="#000000" d="M579.4073,-287.4144C595.7024,-279.7255 615.0461,-271.1276 633,-264.5 716.273,-233.7604 737.5158,-224.5272 825,-209.5 987.2681,-181.6271 1473.9329,-161.8886 1678.6555,-154.5998"/>
<polygon fill="#000000" stroke="#000000" points="1678.9099,-158.0931 1688.7798,-154.2413 1678.6621,-151.0974 1678.9099,-158.0931"/>
<text text-anchor="middle" x="878.5" y="-243.3" font-family="Times,serif" font-size="14.00" fill="#000000">HDMI cable</text>
<text text-anchor="middle" x="878.5" y="-228.3" font-family="Times,serif" font-size="14.00" fill="#000000">HDMI A (full size)</text>
<text text-anchor="middle" x="878.5" y="-213.3" font-family="Times,serif" font-size="14.00" fill="#000000">male/male</text>
</g>
<!-- camera_internal_mic -->
<g id="node18" class="node">
<title>camera_internal_mic</title>
<polygon fill="none" stroke="#000000" points="440.5,-325.5 313.5,-325.5 313.5,-287.5 440.5,-287.5 440.5,-325.5"/>
<text text-anchor="middle" x="377" y="-310.3" font-family="Times,serif" font-size="14.00" fill="#000000">audio in CH2</text>
<text text-anchor="middle" x="377" y="-295.3" font-family="Times,serif" font-size="14.00" fill="#000000">internal microphone</text>
</g>
<!-- camera_audio_monitor -->
<g id="node19" class="node">
<title>camera_audio_monitor</title>
<polygon fill="none" stroke="#000000" points="295.5,-325.5 144.5,-325.5 144.5,-287.5 295.5,-287.5 295.5,-325.5"/>
<text text-anchor="middle" x="220" y="-310.3" font-family="Times,serif" font-size="14.00" fill="#000000">audio monitoring port</text>
<text text-anchor="middle" x="220" y="-295.3" font-family="Times,serif" font-size="14.00" fill="#000000">3.5mm trs stereo female</text>
</g>
<!-- headphones -->
<g id="node32" class="node">
<title>headphones</title>
<g id="a_node32"><a xlink:href="https://en-us.sennheiser.com/over-ear-headphones-hd-201" xlink:title="Sennheiser HD201 headphones\n3.5mm trs stereo male\nrental budgetcam">
<polygon fill="none" stroke="#000000" points="313.5,-178 126.5,-178 126.5,-125 313.5,-125 313.5,-178"/>
<text text-anchor="middle" x="220" y="-162.8" font-family="Times,serif" font-size="14.00" fill="#000000">Sennheiser HD201 headphones</text>
<text text-anchor="middle" x="220" y="-147.8" font-family="Times,serif" font-size="14.00" fill="#000000">3.5mm trs stereo male</text>
<text text-anchor="middle" x="220" y="-132.8" font-family="Times,serif" font-size="14.00" fill="#000000">rental budgetcam</text>
</a>
</g>
</g>
<!-- camera_audio_monitor&#45;&gt;headphones -->
<g id="edge14" class="edge">
<title>camera_audio_monitor&#45;&gt;headphones</title>
<path fill="none" stroke="#000000" d="M220,-287.494C220,-262.8729 220,-219.4209 220,-188.2542"/>
<polygon fill="#000000" stroke="#000000" points="223.5001,-188.2005 220,-178.2006 216.5001,-188.2006 223.5001,-188.2005"/>
</g>
<!-- camera_ac_in -->
<g id="node20" class="node">
<title>camera_ac_in</title>
<polygon fill="none" stroke="#000000" points="126,-324.5 16,-324.5 16,-288.5 126,-288.5 126,-324.5"/>
<text text-anchor="middle" x="71" y="-302.8" font-family="Times,serif" font-size="14.00" fill="#000000">camera AC input</text>
</g>
<!-- cam_box_switch -->
<g id="node22" class="node">
<title>cam_box_switch</title>
<polygon fill="#d3d3d3" stroke="#000000" points="2075,-169.5 1943,-169.5 1943,-133.5 2075,-133.5 2075,-169.5"/>
<text text-anchor="middle" x="2009" y="-147.8" font-family="Times,serif" font-size="14.00" fill="#000000">3x Gbit dumb switch</text>
</g>
<!-- video_vlan -->
<g id="node33" class="node">
<title>video_vlan</title>
<polygon fill="none" stroke="#000000" stroke-dasharray="1,5" points="2122.5,-74 1989.5,-74 1989.5,-38 2122.5,-38 2122.5,-74"/>
<text text-anchor="middle" x="2056" y="-52.3" font-family="Times,serif" font-size="14.00" fill="#000000">FOSDEM video vlan</text>
</g>
<!-- cam_box_switch&#45;&gt;video_vlan -->
<g id="edge16" class="edge">
<title>cam_box_switch&#45;&gt;video_vlan</title>
<path fill="none" stroke="#000000" d="M2006.4018,-123.1565C2006.5926,-112.8648 2008.1934,-101.452 2013,-92 2014.9363,-88.1923 2017.472,-84.6324 2020.3447,-81.3471"/>
<polygon fill="#000000" stroke="#000000" points="2002.9071,-123.4304 2006.6382,-133.3466 2009.9053,-123.2681 2002.9071,-123.4304"/>
<polygon fill="#000000" stroke="#000000" points="2022.9153,-83.7268 2027.5358,-74.1925 2017.9781,-78.7644 2022.9153,-83.7268"/>
<text text-anchor="middle" x="2051" y="-95.8" font-family="Times,serif" font-size="14.00" fill="#000000">ethernet cable</text>
</g>
<!-- cam_box_ac_in -->
<g id="node23" class="node">
<title>cam_box_ac_in</title>
<polygon fill="#d3d3d3" stroke="#000000" points="1925,-169.5 1871,-169.5 1871,-133.5 1925,-133.5 1925,-169.5"/>
<text text-anchor="middle" x="1898" y="-147.8" font-family="Times,serif" font-size="14.00" fill="#000000">AC in</text>
</g>
<!-- speaker_box_hdmi_out -->
<g id="node25" class="node">
<title>speaker_box_hdmi_out</title>
<polygon fill="#d3d3d3" stroke="#000000" points="1861,-488 1761,-488 1761,-435 1861,-435 1861,-488"/>
<text text-anchor="middle" x="1811" y="-472.8" font-family="Times,serif" font-size="14.00" fill="#000000">hdmi out</text>
<text text-anchor="middle" x="1811" y="-457.8" font-family="Times,serif" font-size="14.00" fill="#000000">right hdmi port</text>
<text text-anchor="middle" x="1811" y="-442.8" font-family="Times,serif" font-size="14.00" fill="#000000">female</text>
</g>
<!-- room_projector -->
<g id="node31" class="node">
<title>room_projector</title>
<polygon fill="none" stroke="#000000" points="1623.5,-340.5 1470.5,-340.5 1470.5,-272.5 1623.5,-272.5 1623.5,-340.5"/>
<text text-anchor="middle" x="1547" y="-325.3" font-family="Times,serif" font-size="14.00" fill="#000000">room projector HDMI in</text>
<text text-anchor="middle" x="1547" y="-310.3" font-family="Times,serif" font-size="14.00" fill="#000000">HDMI port</text>
<text text-anchor="middle" x="1547" y="-295.3" font-family="Times,serif" font-size="14.00" fill="#000000">female</text>
<text text-anchor="middle" x="1547" y="-280.3" font-family="Times,serif" font-size="14.00" fill="#000000">exception: H2215 VGA</text>
</g>
<!-- speaker_box_hdmi_out&#45;&gt;room_projector -->
<g id="edge13" class="edge">
<title>speaker_box_hdmi_out&#45;&gt;room_projector</title>
<path fill="none" stroke="#000000" d="M1765.6168,-434.8546C1723.842,-410.3277 1661.3449,-373.6343 1613.8583,-345.7539"/>
<polygon fill="#000000" stroke="#000000" points="1615.5702,-342.7004 1605.1746,-340.6555 1612.0261,-348.7369 1615.5702,-342.7004"/>
<text text-anchor="middle" x="1767" y="-405.8" font-family="Times,serif" font-size="14.00" fill="#000000">HDMI cable</text>
<text text-anchor="middle" x="1767" y="-390.8" font-family="Times,serif" font-size="14.00" fill="#000000">male/male</text>
</g>
<!-- speaker_box_switch -->
<g id="node26" class="node">
<title>speaker_box_switch</title>
<polygon fill="#d3d3d3" stroke="#000000" points="2011,-479.5 1879,-479.5 1879,-443.5 2011,-443.5 2011,-479.5"/>
<text text-anchor="middle" x="1945" y="-457.8" font-family="Times,serif" font-size="14.00" fill="#000000">3x Gbit dumb switch</text>
</g>
<!-- speaker_box_switch&#45;&gt;cam_box_switch -->
<g id="edge17" class="edge">
<title>speaker_box_switch&#45;&gt;cam_box_switch</title>
<path fill="none" stroke="#000000" d="M1995.9047,-439.0231C2019.7925,-427.3299 2044.4528,-413.1832 2051,-402"/>
<polygon fill="#000000" stroke="#000000" points="1994.3323,-435.8954 1986.8267,-443.3732 1997.3573,-442.2081 1994.3323,-435.8954"/>
<path fill="none" stroke="#000000" d="M2051,-402C2060.9741,-384.9634 2022.8442,-396.112 2013,-379 1976.5275,-315.6009 1990.7212,-224.9021 2001.3701,-179.5586"/>
<polygon fill="#000000" stroke="#000000" points="2004.8383,-180.1123 2003.8349,-169.5651 1998.042,-178.436 2004.8383,-180.1123"/>
<text text-anchor="middle" x="2051" y="-302.8" font-family="Times,serif" font-size="14.00" fill="#000000">ethernet cable</text>
</g>
<!-- speaker_box_switch&#45;&gt;video_vlan -->
<g id="edge15" class="edge">
<title>speaker_box_switch&#45;&gt;video_vlan</title>
<path fill="none" stroke="#000000" d="M2051,-402C2061.5905,-385.3396 2079.3065,-396.1978 2089,-379 2151.6321,-267.88 2135.2418,-210.8786 2089,-92 2087.7004,-88.659 2085.9299,-85.4396 2083.8795,-82.3928"/>
<polygon fill="#000000" stroke="#000000" points="2086.4518,-80.0017 2077.5185,-74.3053 2080.9497,-84.3292 2086.4518,-80.0017"/>
<text text-anchor="middle" x="2168" y="-228.3" font-family="Times,serif" font-size="14.00" fill="#000000">ethernet cable</text>
</g>
<!-- speaker_box_ac_in -->
<g id="node27" class="node">
<title>speaker_box_ac_in</title>
<polygon fill="#d3d3d3" stroke="#000000" points="1743,-479.5 1689,-479.5 1689,-443.5 1743,-443.5 1743,-479.5"/>
<text text-anchor="middle" x="1716" y="-457.8" font-family="Times,serif" font-size="14.00" fill="#000000">AC in</text>
</g>
<!-- cam_power_strip -->
<g id="node28" class="node">
<title>cam_power_strip</title>
<polygon fill="none" stroke="#000000" points="1031,-629 861,-629 861,-591 1031,-591 1031,-629"/>
<text text-anchor="middle" x="946" y="-613.8" font-family="Times,serif" font-size="14.00" fill="#000000">camera side power strip</text>
<text text-anchor="middle" x="946" y="-598.8" font-family="Times,serif" font-size="14.00" fill="#000000">&gt;=3 CEE 7/3 or 7/5 sockets</text>
</g>
<!-- cam_power_strip&#45;&gt;mix_panel_ac_in -->
<g id="edge20" class="edge">
<title>cam_power_strip&#45;&gt;mix_panel_ac_in</title>
<path fill="none" stroke="#000000" d="M946,-565.5C947.1965,-556.2945 954.88,-557.7433 960,-550 972.6871,-530.8123 983.4544,-507.0684 990.7669,-489.0066"/>
<polygon fill="#000000" stroke="#000000" points="994.055,-490.2088 994.4642,-479.6218 987.5422,-487.6429 994.055,-490.2088"/>
</g>
<!-- cam_power_strip&#45;&gt;camera_ac_in -->
<g id="edge18" class="edge">
<title>cam_power_strip&#45;&gt;camera_ac_in</title>
<path fill="none" stroke="#000000" d="M944.9217,-590.874C944.7565,-582.987 944.9245,-573.7741 946,-565.5"/>
<path fill="none" stroke="#000000" d="M946,-565.5C950.6831,-529.4697 968.7879,-430.2988 946,-402"/>
<path fill="none" stroke="#000000" d="M946,-402C916.0025,-368.3579 175.8194,-398.1159 135,-379 114.4736,-369.3874 97.7983,-349.7515 86.6206,-333.3369"/>
<polygon fill="#000000" stroke="#000000" points="89.3589,-331.1261 80.9868,-324.6332 83.4825,-334.9299 89.3589,-331.1261"/>
</g>
<!-- cam_power_strip&#45;&gt;cam_box_ac_in -->
<g id="edge19" class="edge">
<title>cam_power_strip&#45;&gt;cam_box_ac_in</title>
<path fill="none" stroke="#000000" d="M946,-402C893.1281,-342.7043 1199.0439,-284.2275 1276,-264.5 1529.7407,-199.4541 1635.587,-333.2288 1862,-201.5 1871.2917,-196.094 1878.8363,-187.2267 1884.5734,-178.4489"/>
<polygon fill="#000000" stroke="#000000" points="1887.5952,-180.2149 1889.7058,-169.8324 1881.5813,-176.6327 1887.5952,-180.2149"/>
</g>
<!-- speaker_power_strip -->
<g id="node29" class="node">
<title>speaker_power_strip</title>
<polygon fill="none" stroke="#000000" points="1902,-949 1732,-949 1732,-911 1902,-911 1902,-949"/>
<text text-anchor="middle" x="1817" y="-933.8" font-family="Times,serif" font-size="14.00" fill="#000000">speaker side power strip</text>
<text text-anchor="middle" x="1817" y="-918.8" font-family="Times,serif" font-size="14.00" fill="#000000">&gt;=3 CEE 7/3 or 7/5 sockets</text>
</g>
<!-- speaker_power_strip&#45;&gt;speaker_laptop -->
<g id="edge21" class="edge">
<title>speaker_power_strip&#45;&gt;speaker_laptop</title>
<path fill="none" stroke="#000000" d="M1817,-892.5C1820.3644,-881.9296 1840.0667,-867.6907 1859.6551,-855.7367"/>
<polygon fill="#000000" stroke="#000000" points="1861.486,-858.7201 1868.2906,-850.5992 1857.9069,-852.7042 1861.486,-858.7201"/>
</g>
<!-- speaker_power_strip&#45;&gt;speaker_box_ac_in -->
<g id="edge22" class="edge">
<title>speaker_power_strip&#45;&gt;speaker_box_ac_in</title>
<path fill="none" stroke="#000000" d="M1814.7702,-910.9607C1814.6509,-904.9365 1815.1439,-898.3315 1817,-892.5"/>
<path fill="none" stroke="#000000" d="M1817,-892.5C1841.6136,-815.1687 1756.8789,-572.1033 1726.462,-489.3833"/>
<polygon fill="#000000" stroke="#000000" points="1729.7035,-488.0578 1722.9513,-479.8933 1723.1383,-490.4865 1729.7035,-488.0578"/>
</g>
</g>
</svg>
