<?xml version="1.0" encoding="UTF-8" standalone="no"?>
<!DOCTYPE svg PUBLIC "-//W3C//DTD SVG 1.1//EN"
 "http://www.w3.org/Graphics/SVG/1.1/DTD/svg11.dtd">
<!-- Generated by graphviz version 2.40.1 (20161225.0304)
 -->
<!-- Title: G Pages: 1 -->
<svg width="2255pt" height="1281pt"
 viewBox="0.00 0.00 2254.50 1281.00" xmlns="http://www.w3.org/2000/svg" xmlns:xlink="http://www.w3.org/1999/xlink">
<g id="graph0" class="graph" transform="scale(1 1) rotate(0) translate(4 1277)">
<title>G</title>
<polygon fill="#ffffff" stroke="transparent" points="-4,4 -4,-1277 2250.5,-1277 2250.5,4 -4,4"/>
<g id="clust1" class="cluster">
<title>cluster_matrix_run_infra</title>
<g id="a_clust1"><a xlink:href="https://hack.allmende.io/XWLiTMEQQFuzQA4vl1WMaw" xlink:title="matrix run infra">
<polygon fill="#ffff00" stroke="#ffff00" points="640,-8 640,-351 2173,-351 2173,-8 640,-8"/>
<text text-anchor="middle" x="1406.5" y="-335.8" font-family="Times,serif" font-size="14.00" fill="#000000">matrix run infra</text>
</a>
</g>
</g>
<g id="clust2" class="cluster">
<title>cluster_chat_fosdem_org</title>
<polygon fill="none" stroke="#000000" points="648,-198 648,-320 2165,-320 2165,-198 648,-198"/>
<text text-anchor="middle" x="1406.5" y="-304.8" font-family="Times,serif" font-size="14.00" fill="#000000">chat.fosdem.org</text>
</g>
<g id="clust3" class="cluster">
<title>cluster_jibri_fosdem_org</title>
<polygon fill="none" stroke="#000000" points="723,-16 723,-106 975,-106 975,-16 723,-16"/>
<text text-anchor="middle" x="849" y="-90.8" font-family="Times,serif" font-size="14.00" fill="#000000">jibri elastic cluster</text>
<text text-anchor="middle" x="849" y="-75.8" font-family="Times,serif" font-size="14.00" fill="#000000"> convert jitsi rooms into rtmp video stream</text>
</g>
<g id="clust4" class="cluster">
<title>cluster_fosdem_infra</title>
<g id="a_clust4"><a xlink:href="https://github.com/FOSDEM/infrastructure/tree/master/ansible/roles/" xlink:title="FOSDEM run infra">
<polygon fill="#add8e6" stroke="#add8e6" points="8,-125 8,-1181 632,-1181 632,-125 8,-125"/>
<text text-anchor="middle" x="320" y="-1165.8" font-family="Times,serif" font-size="14.00" fill="#000000">FOSDEM run infra</text>
</a>
</g>
</g>
<g id="clust7" class="cluster">
<title>cluster_vocto_video_fosdem_org</title>
<polygon fill="none" stroke="#000000" points="16,-495 16,-1035 624,-1035 624,-495 16,-495"/>
<text text-anchor="middle" x="320" y="-1019.8" font-family="Times,serif" font-size="14.00" fill="#000000">vocto&#45;&lt;room&gt;.video.fosdem.org</text>
</g>
<g id="clust8" class="cluster">
<title>cluster_cdn_video_fosdem_org</title>
<polygon fill="none" stroke="#000000" points="478,-384 478,-436 624,-436 624,-384 478,-384"/>
</g>
<!-- speaker_laptop -->
<g id="node1" class="node">
<title>speaker_laptop</title>
<polygon fill="none" stroke="#000000" points="898,-1273 840,-1273 840,-1237 898,-1237 898,-1273"/>
<text text-anchor="middle" x="869" y="-1251.3" font-family="Times,serif" font-size="14.00" fill="#000000">speaker</text>
</g>
<!-- matrix_room_talk_backstage -->
<g id="node6" class="node">
<title>matrix_room_talk_backstage</title>
<g id="a_node6"><a xlink:href="https://chat.fosdem.org" xlink:title="\&lt;talk_id_or_slug\&gt;&#45;backstage#chat.fosdem.org\nmatrix room\nbuiltin jitsi video chat\ninvite only\nopens up after q\&amp;a">
<polygon fill="none" stroke="#000000" points="1655.5,-289 1384.5,-289 1384.5,-206 1655.5,-206 1655.5,-289"/>
<text text-anchor="middle" x="1520" y="-273.8" font-family="Times,serif" font-size="14.00" fill="#000000">&lt;talk_id_or_slug&gt;&#45;backstage#chat.fosdem.org</text>
<text text-anchor="middle" x="1520" y="-258.8" font-family="Times,serif" font-size="14.00" fill="#000000">matrix room</text>
<text text-anchor="middle" x="1520" y="-243.8" font-family="Times,serif" font-size="14.00" fill="#000000">builtin jitsi video chat</text>
<text text-anchor="middle" x="1520" y="-228.8" font-family="Times,serif" font-size="14.00" fill="#000000">invite only</text>
<text text-anchor="middle" x="1520" y="-213.8" font-family="Times,serif" font-size="14.00" fill="#000000">opens up after q&amp;a</text>
</a>
</g>
</g>
<!-- speaker_laptop&#45;&gt;matrix_room_talk_backstage -->
<g id="edge1" class="edge">
<title>speaker_laptop&#45;&gt;matrix_room_talk_backstage</title>
<path fill="none" stroke="#000000" d="M898.1142,-1253.3453C997.6102,-1246.907 1318,-1219.3903 1318,-1132 1318,-1132 1318,-1132 1318,-410 1318,-401.0131 1396.6469,-339.9734 1455.7937,-295.3389"/>
<polygon fill="#000000" stroke="#000000" points="1458.1188,-297.9694 1464,-289.1568 1453.9068,-292.3784 1458.1188,-297.9694"/>
<text text-anchor="middle" x="1377" y="-777.3" font-family="Times,serif" font-size="14.00" fill="#000000">live q&amp;a and hallway</text>
</g>
<!-- review_fosdem_org -->
<g id="node11" class="node">
<title>review_fosdem_org</title>
<g id="a_node11"><a xlink:href="https://review.fosdem.org" xlink:title="review.fosdem.org">
<polygon fill="none" stroke="#000000" points="455.5,-1150 336.5,-1150 336.5,-1114 455.5,-1114 455.5,-1150"/>
<text text-anchor="middle" x="396" y="-1128.3" font-family="Times,serif" font-size="14.00" fill="#000000">review.fosdem.org</text>
</a>
</g>
</g>
<!-- speaker_laptop&#45;&gt;review_fosdem_org -->
<g id="edge2" class="edge">
<title>speaker_laptop&#45;&gt;review_fosdem_org</title>
<path fill="none" stroke="#000000" d="M839.9729,-1251.7283C776.6054,-1244.0448 621.6565,-1222.3023 498,-1181 477.3718,-1174.11 455.5104,-1164.016 437.3398,-1154.7774"/>
<polygon fill="#000000" stroke="#000000" points="438.6898,-1151.5352 428.2002,-1150.0457 435.4715,-1157.7515 438.6898,-1151.5352"/>
<text text-anchor="middle" x="684.5" y="-1207.8" font-family="Times,serif" font-size="14.00" fill="#000000">upload recording</text>
<text text-anchor="middle" x="684.5" y="-1192.8" font-family="Times,serif" font-size="14.00" fill="#000000">auth method?</text>
</g>
<!-- matrix_room_fosdem -->
<g id="node2" class="node">
<title>matrix_room_fosdem</title>
<g id="a_node2"><a xlink:href="https://chat.fosdem.org" xlink:title="general FOSDEM public matrix rooms\ninfodesk, video, ...">
<polygon fill="none" stroke="#000000" points="2157.5,-266.5 1926.5,-266.5 1926.5,-228.5 2157.5,-228.5 2157.5,-266.5"/>
<text text-anchor="middle" x="2042" y="-251.3" font-family="Times,serif" font-size="14.00" fill="#000000">general FOSDEM public matrix rooms</text>
<text text-anchor="middle" x="2042" y="-236.3" font-family="Times,serif" font-size="14.00" fill="#000000">infodesk, video, ...</text>
</a>
</g>
</g>
<!-- matrix_room_fosdem_backstage -->
<g id="node3" class="node">
<title>matrix_room_fosdem_backstage</title>
<g id="a_node3"><a xlink:href="https://chat.fosdem.org" xlink:title="general FOSDEM private matrix rooms\nconduct, ...">
<polygon fill="none" stroke="#000000" points="1908.5,-266.5 1673.5,-266.5 1673.5,-228.5 1908.5,-228.5 1908.5,-266.5"/>
<text text-anchor="middle" x="1791" y="-251.3" font-family="Times,serif" font-size="14.00" fill="#000000">general FOSDEM private matrix rooms</text>
<text text-anchor="middle" x="1791" y="-236.3" font-family="Times,serif" font-size="14.00" fill="#000000">conduct, ...</text>
</a>
</g>
</g>
<!-- matrix_room_track -->
<g id="node4" class="node">
<title>matrix_room_track</title>
<g id="a_node4"><a xlink:href="https://chat.fosdem.org" xlink:title="&lt;track&gt;#chat.fosdem.org\npublic matrix room\nno jitsi">
<polygon fill="none" stroke="#000000" points="811.5,-274 656.5,-274 656.5,-221 811.5,-221 811.5,-274"/>
<text text-anchor="middle" x="734" y="-258.8" font-family="Times,serif" font-size="14.00" fill="#000000">&lt;track&gt;#chat.fosdem.org</text>
<text text-anchor="middle" x="734" y="-243.8" font-family="Times,serif" font-size="14.00" fill="#000000">public matrix room</text>
<text text-anchor="middle" x="734" y="-228.8" font-family="Times,serif" font-size="14.00" fill="#000000">no jitsi</text>
</a>
</g>
</g>
<!-- matrix_room_track_backstage -->
<g id="node5" class="node">
<title>matrix_room_track_backstage</title>
<g id="a_node5"><a xlink:href="https://chat.fosdem.org" xlink:title="&lt;track&gt;&#45;backstage#chat.fosdem.org\nprivate matrix room\njitsi might come in handy">
<polygon fill="none" stroke="#000000" points="1366.5,-274 1153.5,-274 1153.5,-221 1366.5,-221 1366.5,-274"/>
<text text-anchor="middle" x="1260" y="-258.8" font-family="Times,serif" font-size="14.00" fill="#000000">&lt;track&gt;&#45;backstage#chat.fosdem.org</text>
<text text-anchor="middle" x="1260" y="-243.8" font-family="Times,serif" font-size="14.00" fill="#000000">private matrix room</text>
<text text-anchor="middle" x="1260" y="-228.8" font-family="Times,serif" font-size="14.00" fill="#000000">jitsi might come in handy</text>
</a>
</g>
</g>
<!-- jibri_instance_n -->
<g id="node9" class="node">
<title>jibri_instance_n</title>
<polygon fill="none" stroke="#000000" points="898,-60 800,-60 800,-24 898,-24 898,-60"/>
<text text-anchor="middle" x="849" y="-38.3" font-family="Times,serif" font-size="14.00" fill="#000000">jibri instance n</text>
</g>
<!-- matrix_room_talk_backstage&#45;&gt;jibri_instance_n -->
<g id="edge5" class="edge">
<title>matrix_room_talk_backstage&#45;&gt;jibri_instance_n</title>
<path fill="none" stroke="#000000" d="M1400.3038,-205.9147C1392.0918,-203.1972 1383.9318,-200.5359 1376,-198 1207.0745,-143.9916 1005.6419,-86.1746 907.9521,-58.5492"/>
<polygon fill="#000000" stroke="#000000" points="908.8346,-55.1616 898.2597,-55.8111 906.9315,-61.8979 908.8346,-55.1616"/>
</g>
<!-- audience -->
<g id="node19" class="node">
<title>audience</title>
<polygon fill="none" stroke="#000000" points="2246.5,-60 2181.5,-60 2181.5,-24 2246.5,-24 2246.5,-60"/>
<text text-anchor="middle" x="2214" y="-38.3" font-family="Times,serif" font-size="14.00" fill="#000000">audience</text>
</g>
<!-- matrix_room_talk_backstage&#45;&gt;audience -->
<g id="edge16" class="edge">
<title>matrix_room_talk_backstage&#45;&gt;audience</title>
<path fill="none" stroke="#000000" d="M1640.1086,-205.9591C1648.5165,-203.217 1656.8755,-200.5392 1665,-198 1852.5559,-139.3826 2078.9866,-77.9657 2171.5068,-53.2638"/>
<polygon fill="#000000" stroke="#000000" points="2172.5773,-56.6007 2181.3381,-50.6427 2170.7739,-49.837 2172.5773,-56.6007"/>
<text text-anchor="middle" x="2016" y="-154.8" font-family="Times,serif" font-size="14.00" fill="#000000">after q&amp;a: change to</text>
<text text-anchor="middle" x="2016" y="-139.8" font-family="Times,serif" font-size="14.00" fill="#000000">public matrix room with moderated jitsi</text>
</g>
<!-- matrix_room_talk -->
<g id="node7" class="node">
<title>matrix_room_talk</title>
<g id="a_node7"><a xlink:href="https://chat.fosdem.org/" xlink:title="\&lt;talk_id_or_slug\&gt;#chat.fosdem.org\nmatrix room\ngeneral audience">
<polygon fill="none" stroke="#000000" points="1135.5,-274 922.5,-274 922.5,-221 1135.5,-221 1135.5,-274"/>
<text text-anchor="middle" x="1029" y="-258.8" font-family="Times,serif" font-size="14.00" fill="#000000">&lt;talk_id_or_slug&gt;#chat.fosdem.org</text>
<text text-anchor="middle" x="1029" y="-243.8" font-family="Times,serif" font-size="14.00" fill="#000000">matrix room</text>
<text text-anchor="middle" x="1029" y="-228.8" font-family="Times,serif" font-size="14.00" fill="#000000">general audience</text>
</a>
</g>
</g>
<!-- matrix_room_talk&#45;&gt;audience -->
<g id="edge15" class="edge">
<title>matrix_room_talk&#45;&gt;audience</title>
<path fill="none" stroke="#000000" d="M1083.1195,-220.9749C1102.2796,-212.512 1124.2378,-203.8383 1145,-198 1533.8409,-88.6588 2024.9923,-52.8826 2171.1315,-44.2793"/>
<polygon fill="#000000" stroke="#000000" points="2171.6661,-47.7544 2181.4477,-43.6838 2171.2626,-40.766 2171.6661,-47.7544"/>
</g>
<!-- matrix_bot -->
<g id="node8" class="node">
<title>matrix_bot</title>
<polygon fill="none" stroke="#000000" points="904,-265.5 830,-265.5 830,-229.5 904,-229.5 904,-265.5"/>
<text text-anchor="middle" x="867" y="-243.8" font-family="Times,serif" font-size="14.00" fill="#000000">matrix bot</text>
</g>
<!-- nginx_rtmp -->
<g id="node12" class="node">
<title>nginx_rtmp</title>
<polygon fill="none" stroke="#000000" points="254.5,-1004 23.5,-1004 23.5,-951 254.5,-951 254.5,-1004"/>
<text text-anchor="middle" x="139" y="-988.8" font-family="Times,serif" font-size="14.00" fill="#000000">nginx rtmp</text>
<text text-anchor="middle" x="139" y="-973.8" font-family="Times,serif" font-size="14.00" fill="#000000">dns 1: &lt;talk_id&gt;.talk.video.fosdem.org</text>
<text text-anchor="middle" x="139" y="-958.8" font-family="Times,serif" font-size="14.00" fill="#000000">dns 2: &lt;track&gt;.video.fosdem.org</text>
</g>
<!-- jibri_instance_n&#45;&gt;nginx_rtmp -->
<g id="edge6" class="edge">
<title>jibri_instance_n&#45;&gt;nginx_rtmp</title>
<path fill="none" stroke="#000000" d="M799.6338,-42.5658C664.9954,-44.9848 294.9455,-57.7418 197,-125 186.1809,-132.4293 183,-137.8757 183,-151 183,-913.5 183,-913.5 183,-913.5 183,-923.815 179.0709,-933.6803 173.5609,-942.4435"/>
<polygon fill="#000000" stroke="#000000" points="170.5512,-940.6365 167.6109,-950.8152 176.257,-944.6917 170.5512,-940.6365"/>
<text text-anchor="middle" x="342" y="-613.8" font-family="Times,serif" font-size="14.00" fill="#000000">rtmp push</text>
<text text-anchor="middle" x="342" y="-598.8" font-family="Times,serif" font-size="14.00" fill="#000000"> rtmp://&lt;talk_id&gt;.talk.video.fosdem.org/stream/&lt;talk_id&gt;</text>
</g>
<!-- penta_fosdem_org -->
<g id="node10" class="node">
<title>penta_fosdem_org</title>
<g id="a_node10"><a xlink:href="https://penta.fosdem.org" xlink:title="penta.fosdem.org">
<polygon fill="none" stroke="#000000" points="619,-1150 507,-1150 507,-1114 619,-1114 619,-1150"/>
<text text-anchor="middle" x="563" y="-1128.3" font-family="Times,serif" font-size="14.00" fill="#000000">penta.fosdem.org</text>
</a>
</g>
</g>
<!-- penta_fosdem_org&#45;&gt;matrix_bot -->
<g id="edge8" class="edge">
<title>penta_fosdem_org&#45;&gt;matrix_bot</title>
<path fill="none" stroke="#000000" d="M619.1093,-1125.2864C701.8755,-1114.6101 847,-1092.5971 847,-1069.5 847,-1069.5 847,-1069.5 847,-410 847,-362.7551 855.4308,-308.3584 861.3448,-276.0124"/>
<polygon fill="#000000" stroke="#000000" points="864.8323,-276.4046 863.2382,-265.9304 857.9525,-275.1126 864.8323,-276.4046"/>
<text text-anchor="middle" x="962.5" y="-732.8" font-family="Times,serif" font-size="14.00" fill="#000000">populate matrix: rooms, talks, speakers(?)</text>
<text text-anchor="middle" x="962.5" y="-717.8" font-family="Times,serif" font-size="14.00" fill="#000000">invite speakers to their rooms, ...</text>
</g>
<!-- ingest_timers -->
<g id="node15" class="node">
<title>ingest_timers</title>
<polygon fill="none" stroke="#000000" points="616,-995.5 480,-995.5 480,-959.5 616,-959.5 616,-995.5"/>
<text text-anchor="middle" x="548" y="-973.8" font-family="Times,serif" font-size="14.00" fill="#000000">systemd ingest timers</text>
</g>
<!-- penta_fosdem_org&#45;&gt;ingest_timers -->
<g id="edge7" class="edge">
<title>penta_fosdem_org&#45;&gt;ingest_timers</title>
<path fill="none" stroke="#000000" d="M561.25,-1113.9745C558.6783,-1087.4862 553.8525,-1037.7806 550.7889,-1006.226"/>
<polygon fill="#000000" stroke="#000000" points="554.2354,-1005.5045 549.7854,-995.8896 547.2682,-1006.181 554.2354,-1005.5045"/>
<text text-anchor="middle" x="584.5" y="-1065.8" font-family="Times,serif" font-size="14.00" fill="#000000">penta xml</text>
</g>
<!-- recordings_cache -->
<g id="node16" class="node">
<title>recordings_cache</title>
<polygon fill="none" stroke="#000000" points="461.5,-995.5 272.5,-995.5 272.5,-959.5 461.5,-959.5 461.5,-995.5"/>
<text text-anchor="middle" x="367" y="-973.8" font-family="Times,serif" font-size="14.00" fill="#000000">local video prerecordings cache</text>
</g>
<!-- review_fosdem_org&#45;&gt;recordings_cache -->
<g id="edge3" class="edge">
<title>review_fosdem_org&#45;&gt;recordings_cache</title>
<path fill="none" stroke="#000000" d="M392.6166,-1113.9745C387.623,-1087.3706 378.2332,-1037.346 372.3145,-1005.8137"/>
<polygon fill="#000000" stroke="#000000" points="375.7366,-1005.0722 370.4518,-995.8896 368.8567,-1006.3637 375.7366,-1005.0722"/>
<text text-anchor="middle" x="403" y="-1065.8" font-family="Times,serif" font-size="14.00" fill="#000000">rsync?</text>
</g>
<!-- vocto_ingest -->
<g id="node13" class="node">
<title>vocto_ingest</title>
<polygon fill="none" stroke="#000000" points="531.5,-800 382.5,-800 382.5,-762 531.5,-762 531.5,-800"/>
<text text-anchor="middle" x="457" y="-784.8" font-family="Times,serif" font-size="14.00" fill="#000000">ingest prerecordings&amp;&amp;</text>
<text text-anchor="middle" x="457" y="-769.8" font-family="Times,serif" font-size="14.00" fill="#000000">ingest q&amp;a</text>
</g>
<!-- nginx_rtmp&#45;&gt;vocto_ingest -->
<g id="edge10" class="edge">
<title>nginx_rtmp&#45;&gt;vocto_ingest</title>
<path fill="none" stroke="#000000" d="M229.247,-950.9927C256.3367,-940.3118 279,-927.2633 279,-913.5 279,-913.5 279,-913.5 279,-837.5 279,-816.0916 326.3678,-801.7354 372.2331,-792.8525"/>
<polygon fill="#000000" stroke="#000000" points="373.0932,-796.2527 382.2857,-790.9849 371.8146,-789.3704 373.0932,-796.2527"/>
</g>
<!-- voctomix -->
<g id="node14" class="node">
<title>voctomix</title>
<polygon fill="none" stroke="#000000" points="574,-539 506,-539 506,-503 574,-503 574,-539"/>
<text text-anchor="middle" x="540" y="-517.3" font-family="Times,serif" font-size="14.00" fill="#000000">voctomix</text>
</g>
<!-- vocto_ingest&#45;&gt;voctomix -->
<g id="edge11" class="edge">
<title>vocto_ingest&#45;&gt;voctomix</title>
<path fill="none" stroke="#000000" d="M486.7008,-761.9508C506.5341,-746.6767 529,-723.2504 529,-695.5 529,-695.5 529,-695.5 529,-576.5 529,-567.5612 530.3899,-557.9645 532.1817,-549.307"/>
<polygon fill="#000000" stroke="#000000" points="535.648,-549.8525 534.5,-539.3201 528.8293,-548.2696 535.648,-549.8525"/>
<text text-anchor="middle" x="555" y="-646.8" font-family="Times,serif" font-size="14.00" fill="#000000">rtmp pull</text>
</g>
<!-- cdn_video_fosdem_org -->
<g id="node17" class="node">
<title>cdn_video_fosdem_org</title>
<polygon fill="none" stroke="#000000" points="615.5,-428 486.5,-428 486.5,-392 615.5,-392 615.5,-428"/>
<text text-anchor="middle" x="551" y="-406.3" font-family="Times,serif" font-size="14.00" fill="#000000">FOSDEM video cdn</text>
</g>
<!-- voctomix&#45;&gt;cdn_video_fosdem_org -->
<g id="edge12" class="edge">
<title>voctomix&#45;&gt;cdn_video_fosdem_org</title>
<path fill="none" stroke="#000000" d="M541.8164,-502.6706C543.5441,-485.2373 546.1691,-458.7482 548.1708,-438.5489"/>
<polygon fill="#000000" stroke="#000000" points="551.6776,-438.6531 549.1809,-428.3566 544.7117,-437.9627 551.6776,-438.6531"/>
</g>
<!-- ingest_timers&#45;&gt;vocto_ingest -->
<g id="edge9" class="edge">
<title>ingest_timers&#45;&gt;vocto_ingest</title>
<path fill="none" stroke="#000000" d="M522.7988,-959.4068C509.95,-947.9355 497,-931.8277 497,-913.5 497,-913.5 497,-913.5 497,-837.5 497,-826.7529 492.1195,-816.6201 485.768,-807.9836"/>
<polygon fill="#000000" stroke="#000000" points="488.4026,-805.6772 479.339,-800.1907 483.0029,-810.1318 488.4026,-805.6772"/>
</g>
<!-- recordings_cache&#45;&gt;vocto_ingest -->
<g id="edge4" class="edge">
<title>recordings_cache&#45;&gt;vocto_ingest</title>
<path fill="none" stroke="#000000" d="M391.707,-959.3044C404.3039,-947.7978 417,-931.6889 417,-913.5 417,-913.5 417,-913.5 417,-837.5 417,-826.7529 421.8805,-816.6201 428.232,-807.9836"/>
<polygon fill="#000000" stroke="#000000" points="430.9971,-810.1318 434.661,-800.1907 425.5974,-805.6772 430.9971,-810.1318"/>
</g>
<!-- cdn_video_fosdem_org&#45;&gt;matrix_room_track -->
<g id="edge13" class="edge">
<title>cdn_video_fosdem_org&#45;&gt;matrix_room_track</title>
<path fill="none" stroke="#000000" d="M580.024,-391.9945C596.9764,-380.9635 618.4224,-366.1001 636,-351 660.7999,-329.6956 686.1044,-302.8135 704.7871,-281.7856"/>
<polygon fill="#000000" stroke="#000000" points="707.6278,-283.8556 711.6083,-274.037 702.3736,-279.2303 707.6278,-283.8556"/>
<text text-anchor="middle" x="720.5" y="-362.8" font-family="Times,serif" font-size="14.00" fill="#000000">public stream: prerecording + q&amp;a</text>
</g>
<!-- www_fosdem_org -->
<g id="node18" class="node">
<title>www_fosdem_org</title>
<g id="a_node18"><a xlink:href="https://fosdem.org" xlink:title="FOSDEM website">
<polygon fill="none" stroke="#000000" points="619.5,-169 502.5,-169 502.5,-133 619.5,-133 619.5,-169"/>
<text text-anchor="middle" x="561" y="-147.3" font-family="Times,serif" font-size="14.00" fill="#000000">FOSDEM website</text>
</a>
</g>
</g>
<!-- cdn_video_fosdem_org&#45;&gt;www_fosdem_org -->
<g id="edge14" class="edge">
<title>cdn_video_fosdem_org&#45;&gt;www_fosdem_org</title>
<path fill="none" stroke="#000000" d="M551.7032,-391.7876C553.4209,-347.2981 557.8406,-232.8288 559.9059,-179.3369"/>
<polygon fill="#000000" stroke="#000000" points="563.4091,-179.3199 560.2976,-169.1923 556.4143,-179.0497 563.4091,-179.3199"/>
</g>
<!-- www_fosdem_org&#45;&gt;audience -->
<g id="edge17" class="edge">
<title>www_fosdem_org&#45;&gt;audience</title>
<path fill="none" stroke="#000000" d="M619.8311,-147.1206C882.3782,-129.8081 1944.0581,-59.8002 2171.1262,-44.8271"/>
<polygon fill="#000000" stroke="#000000" points="2171.5536,-48.3066 2181.3016,-44.1562 2171.0929,-41.3218 2171.5536,-48.3066"/>
</g>
</g>
</svg>
