<?xml version="1.0" encoding="UTF-8" standalone="no"?>
<!DOCTYPE svg PUBLIC "-//W3C//DTD SVG 1.1//EN"
 "http://www.w3.org/Graphics/SVG/1.1/DTD/svg11.dtd">
<!-- Generated by graphviz version 2.38.0 (20140413.2041)
 -->
<!-- Title: G Pages: 1 -->
<svg width="7011pt" height="766pt"
 viewBox="0.00 0.00 7011.00 766.00" xmlns="http://www.w3.org/2000/svg" xmlns:xlink="http://www.w3.org/1999/xlink">
<g id="graph0" class="graph" transform="scale(1 1) rotate(0) translate(4 762)">
<title>G</title>
<polygon fill="white" stroke="none" points="-4,4 -4,-762 7007,-762 7007,4 -4,4"/>
<g id="clust2" class="cluster"><title>cluster_rooms</title>
<polygon fill="lightgrey" stroke="lightgrey" points="29,-642 29,-750 6995,-750 6995,-642 29,-642"/>
<text text-anchor="middle" x="3512" y="-734.8" font-family="Times,serif" font-size="14.00">INGESTION</text>
</g>
<g id="clust3" class="cluster"><title>cluster_aw1120</title>
<polygon fill="white" stroke="white" points="6709,-650 6709,-719 6987,-719 6987,-650 6709,-650"/>
</g>
<g id="clust4" class="cluster"><title>cluster_aw1121</title>
<polygon fill="white" stroke="white" points="6423,-650 6423,-719 6701,-719 6701,-650 6423,-650"/>
</g>
<g id="clust5" class="cluster"><title>cluster_aw1124</title>
<polygon fill="white" stroke="white" points="6137,-650 6137,-719 6415,-719 6415,-650 6137,-650"/>
</g>
<g id="clust6" class="cluster"><title>cluster_aw1125</title>
<polygon fill="white" stroke="white" points="5851,-650 5851,-719 6129,-719 6129,-650 5851,-650"/>
</g>
<g id="clust7" class="cluster"><title>cluster_aw1126</title>
<polygon fill="white" stroke="white" points="5565,-650 5565,-719 5843,-719 5843,-650 5565,-650"/>
</g>
<g id="clust8" class="cluster"><title>cluster_h1301</title>
<polygon fill="white" stroke="white" points="5279,-650 5279,-719 5557,-719 5557,-650 5279,-650"/>
</g>
<g id="clust9" class="cluster"><title>cluster_h1302</title>
<polygon fill="white" stroke="white" points="4993,-650 4993,-719 5271,-719 5271,-650 4993,-650"/>
</g>
<g id="clust10" class="cluster"><title>cluster_h1308</title>
<polygon fill="white" stroke="white" points="4707,-650 4707,-719 4985,-719 4985,-650 4707,-650"/>
</g>
<g id="clust11" class="cluster"><title>cluster_h1309</title>
<polygon fill="white" stroke="white" points="4421,-650 4421,-719 4699,-719 4699,-650 4421,-650"/>
</g>
<g id="clust12" class="cluster"><title>cluster_h2213</title>
<polygon fill="white" stroke="white" points="4135,-650 4135,-719 4413,-719 4413,-650 4135,-650"/>
</g>
<g id="clust13" class="cluster"><title>cluster_h2214</title>
<polygon fill="white" stroke="white" points="3849,-650 3849,-719 4127,-719 4127,-650 3849,-650"/>
</g>
<g id="clust14" class="cluster"><title>cluster_h2215</title>
<polygon fill="white" stroke="white" points="3563,-650 3563,-719 3841,-719 3841,-650 3563,-650"/>
</g>
<g id="clust15" class="cluster"><title>cluster_janson</title>
<polygon fill="white" stroke="white" points="3277,-650 3277,-719 3555,-719 3555,-650 3277,-650"/>
</g>
<g id="clust16" class="cluster"><title>cluster_k1105</title>
<polygon fill="white" stroke="white" points="2991,-650 2991,-719 3269,-719 3269,-650 2991,-650"/>
</g>
<g id="clust17" class="cluster"><title>cluster_k3201</title>
<polygon fill="white" stroke="white" points="2705,-650 2705,-719 2983,-719 2983,-650 2705,-650"/>
</g>
<g id="clust18" class="cluster"><title>cluster_k3401</title>
<polygon fill="white" stroke="white" points="2419,-650 2419,-719 2697,-719 2697,-650 2419,-650"/>
</g>
<g id="clust19" class="cluster"><title>cluster_k4201</title>
<polygon fill="white" stroke="white" points="2133,-650 2133,-719 2411,-719 2411,-650 2133,-650"/>
</g>
<g id="clust20" class="cluster"><title>cluster_k4401</title>
<polygon fill="white" stroke="white" points="1847,-650 1847,-719 2125,-719 2125,-650 1847,-650"/>
</g>
<g id="clust21" class="cluster"><title>cluster_k4601</title>
<polygon fill="white" stroke="white" points="1561,-650 1561,-719 1839,-719 1839,-650 1561,-650"/>
</g>
<g id="clust22" class="cluster"><title>cluster_ua2114</title>
<polygon fill="white" stroke="white" points="1275,-650 1275,-719 1553,-719 1553,-650 1275,-650"/>
</g>
<g id="clust23" class="cluster"><title>cluster_ua2220</title>
<polygon fill="white" stroke="white" points="989,-650 989,-719 1267,-719 1267,-650 989,-650"/>
</g>
<g id="clust24" class="cluster"><title>cluster_ub2252a</title>
<polygon fill="white" stroke="white" points="703,-650 703,-719 981,-719 981,-650 703,-650"/>
</g>
<g id="clust25" class="cluster"><title>cluster_ud2120</title>
<polygon fill="white" stroke="white" points="417,-650 417,-719 695,-719 695,-650 417,-650"/>
</g>
<g id="clust26" class="cluster"><title>cluster_ud2218a</title>
<polygon fill="white" stroke="white" points="131,-650 131,-719 409,-719 409,-650 131,-650"/>
</g>
<g id="clust27" class="cluster"><title>cluster_voc</title>
<polygon fill="lightgrey" stroke="lightgrey" points="36,-404 36,-625 3193,-625 3193,-404 36,-404"/>
<text text-anchor="middle" x="1614.5" y="-609.8" font-family="Times,serif" font-size="14.00">VOCTORACK</text>
<text text-anchor="middle" x="1614.5" y="-594.8" font-family="Times,serif" font-size="14.00">24x LXC container</text>
<text text-anchor="middle" x="1614.5" y="-579.8" font-family="Times,serif" font-size="14.00">on site in VOC</text>
<text text-anchor="middle" x="1614.5" y="-564.8" font-family="Times,serif" font-size="14.00">&lt;=96Mbit/s network in</text>
<text text-anchor="middle" x="1614.5" y="-549.8" font-family="Times,serif" font-size="14.00">&lt;=48Mbit/s network out</text>
<text text-anchor="middle" x="1614.5" y="-534.8" font-family="Times,serif" font-size="14.00">1.4 Tb video data</text>
<text text-anchor="middle" x="1614.5" y="-519.8" font-family="Times,serif" font-size="14.00">UPS</text>
</g>
<g id="clust28" class="cluster"><title>cluster_voctohost0</title>
<polygon fill="white" stroke="white" points="2587,-412 2587,-504 3185,-504 3185,-412 2587,-412"/>
<text text-anchor="middle" x="2886" y="-488.8" font-family="Times,serif" font-size="14.00">voctohost0</text>
<text text-anchor="middle" x="2886" y="-473.8" font-family="Times,serif" font-size="14.00">ip:185.175.218.10</text>
</g>
<g id="clust29" class="cluster"><title>cluster_voctohost1</title>
<polygon fill="white" stroke="white" points="1981,-412 1981,-504 2579,-504 2579,-412 1981,-412"/>
<text text-anchor="middle" x="2280" y="-488.8" font-family="Times,serif" font-size="14.00">voctohost1</text>
<text text-anchor="middle" x="2280" y="-473.8" font-family="Times,serif" font-size="14.00">ip:185.175.218.11</text>
</g>
<g id="clust30" class="cluster"><title>cluster_voctohost2</title>
<polygon fill="white" stroke="white" points="1495,-412 1495,-504 1973,-504 1973,-412 1495,-412"/>
<text text-anchor="middle" x="1734" y="-488.8" font-family="Times,serif" font-size="14.00">voctohost2</text>
<text text-anchor="middle" x="1734" y="-473.8" font-family="Times,serif" font-size="14.00">ip:185.175.218.12</text>
</g>
<g id="clust31" class="cluster"><title>cluster_voctohost3</title>
<polygon fill="white" stroke="white" points="889,-412 889,-504 1487,-504 1487,-412 889,-412"/>
<text text-anchor="middle" x="1188" y="-488.8" font-family="Times,serif" font-size="14.00">voctohost3</text>
<text text-anchor="middle" x="1188" y="-473.8" font-family="Times,serif" font-size="14.00">ip:185.175.218.13</text>
</g>
<g id="clust32" class="cluster"><title>cluster_voctohost4</title>
<polygon fill="white" stroke="white" points="283,-412 283,-504 881,-504 881,-412 283,-412"/>
<text text-anchor="middle" x="582" y="-488.8" font-family="Times,serif" font-size="14.00">voctohost3</text>
<text text-anchor="middle" x="582" y="-473.8" font-family="Times,serif" font-size="14.00">ip:185.175.218.14</text>
</g>
<g id="clust33" class="cluster"><title>cluster_ingest_stream</title>
<polygon fill="lightgrey" stroke="lightgrey" points="8,-286 8,-385 811,-385 811,-286 8,-286"/>
</g>
<g id="clust34" class="cluster"><title>cluster_stream</title>
<polygon fill="lightgrey" stroke="lightgrey" points="316,-152 316,-251 628,-251 628,-152 316,-152"/>
</g>
<!-- aw1120slides -->
<g id="node1" class="node"><title>aw1120slides</title>
<polygon fill="lightgrey" stroke="black" points="6979,-711 6857,-711 6857,-658 6979,-658 6979,-711"/>
<text text-anchor="middle" x="6918" y="-695.8" font-family="Times,serif" font-size="14.00">aw1120&#45;slides</text>
<text text-anchor="middle" x="6918" y="-680.8" font-family="Times,serif" font-size="14.00">185.175.218.128</text>
<text text-anchor="middle" x="6918" y="-665.8" font-family="Times,serif" font-size="14.00">multicast 227.0.0.1</text>
</g>
<!-- aw1120cam -->
<g id="node2" class="node"><title>aw1120cam</title>
<polygon fill="lightgrey" stroke="black" points="6839,-711 6717,-711 6717,-658 6839,-658 6839,-711"/>
<text text-anchor="middle" x="6778" y="-695.8" font-family="Times,serif" font-size="14.00">aw1120&#45;cam</text>
<text text-anchor="middle" x="6778" y="-680.8" font-family="Times,serif" font-size="14.00">185.175.218.129</text>
<text text-anchor="middle" x="6778" y="-665.8" font-family="Times,serif" font-size="14.00">multicast 227.0.0.2</text>
</g>
<!-- aw1121slides -->
<g id="node3" class="node"><title>aw1121slides</title>
<polygon fill="lightgrey" stroke="black" points="6693,-711 6571,-711 6571,-658 6693,-658 6693,-711"/>
<text text-anchor="middle" x="6632" y="-695.8" font-family="Times,serif" font-size="14.00">aw1121&#45;slides</text>
<text text-anchor="middle" x="6632" y="-680.8" font-family="Times,serif" font-size="14.00">185.175.218.130</text>
<text text-anchor="middle" x="6632" y="-665.8" font-family="Times,serif" font-size="14.00">multicast 227.0.1.1</text>
</g>
<!-- aw1121cam -->
<g id="node4" class="node"><title>aw1121cam</title>
<polygon fill="lightgrey" stroke="black" points="6553,-711 6431,-711 6431,-658 6553,-658 6553,-711"/>
<text text-anchor="middle" x="6492" y="-695.8" font-family="Times,serif" font-size="14.00">aw1121&#45;cam</text>
<text text-anchor="middle" x="6492" y="-680.8" font-family="Times,serif" font-size="14.00">185.175.218.131</text>
<text text-anchor="middle" x="6492" y="-665.8" font-family="Times,serif" font-size="14.00">multicast 227.0.1.2</text>
</g>
<!-- aw1124slides -->
<g id="node5" class="node"><title>aw1124slides</title>
<polygon fill="lightgrey" stroke="black" points="6407,-711 6285,-711 6285,-658 6407,-658 6407,-711"/>
<text text-anchor="middle" x="6346" y="-695.8" font-family="Times,serif" font-size="14.00">aw1124&#45;slides</text>
<text text-anchor="middle" x="6346" y="-680.8" font-family="Times,serif" font-size="14.00">185.175.218.132</text>
<text text-anchor="middle" x="6346" y="-665.8" font-family="Times,serif" font-size="14.00">multicast 227.0.2.1</text>
</g>
<!-- aw1124cam -->
<g id="node6" class="node"><title>aw1124cam</title>
<polygon fill="lightgrey" stroke="black" points="6267,-711 6145,-711 6145,-658 6267,-658 6267,-711"/>
<text text-anchor="middle" x="6206" y="-695.8" font-family="Times,serif" font-size="14.00">aw1124&#45;cam</text>
<text text-anchor="middle" x="6206" y="-680.8" font-family="Times,serif" font-size="14.00">185.175.218.133</text>
<text text-anchor="middle" x="6206" y="-665.8" font-family="Times,serif" font-size="14.00">multicast 227.0.2.2</text>
</g>
<!-- aw1125slides -->
<g id="node7" class="node"><title>aw1125slides</title>
<polygon fill="lightgrey" stroke="black" points="6121,-711 5999,-711 5999,-658 6121,-658 6121,-711"/>
<text text-anchor="middle" x="6060" y="-695.8" font-family="Times,serif" font-size="14.00">aw1125&#45;slides</text>
<text text-anchor="middle" x="6060" y="-680.8" font-family="Times,serif" font-size="14.00">185.175.218.134</text>
<text text-anchor="middle" x="6060" y="-665.8" font-family="Times,serif" font-size="14.00">multicast 227.0.3.1</text>
</g>
<!-- aw1125cam -->
<g id="node8" class="node"><title>aw1125cam</title>
<polygon fill="lightgrey" stroke="black" points="5981,-711 5859,-711 5859,-658 5981,-658 5981,-711"/>
<text text-anchor="middle" x="5920" y="-695.8" font-family="Times,serif" font-size="14.00">aw1125&#45;cam</text>
<text text-anchor="middle" x="5920" y="-680.8" font-family="Times,serif" font-size="14.00">185.175.218.135</text>
<text text-anchor="middle" x="5920" y="-665.8" font-family="Times,serif" font-size="14.00">multicast 227.0.3.2</text>
</g>
<!-- aw1126slides -->
<g id="node9" class="node"><title>aw1126slides</title>
<polygon fill="lightgrey" stroke="black" points="5835,-711 5713,-711 5713,-658 5835,-658 5835,-711"/>
<text text-anchor="middle" x="5774" y="-695.8" font-family="Times,serif" font-size="14.00">aw1126&#45;slides</text>
<text text-anchor="middle" x="5774" y="-680.8" font-family="Times,serif" font-size="14.00">185.175.218.136</text>
<text text-anchor="middle" x="5774" y="-665.8" font-family="Times,serif" font-size="14.00">multicast 227.0.4.1</text>
</g>
<!-- aw1126cam -->
<g id="node10" class="node"><title>aw1126cam</title>
<polygon fill="lightgrey" stroke="black" points="5695,-711 5573,-711 5573,-658 5695,-658 5695,-711"/>
<text text-anchor="middle" x="5634" y="-695.8" font-family="Times,serif" font-size="14.00">aw1126&#45;cam</text>
<text text-anchor="middle" x="5634" y="-680.8" font-family="Times,serif" font-size="14.00">185.175.218.137</text>
<text text-anchor="middle" x="5634" y="-665.8" font-family="Times,serif" font-size="14.00">multicast 227.0.4.2</text>
</g>
<!-- h1301slides -->
<g id="node11" class="node"><title>h1301slides</title>
<polygon fill="lightgrey" stroke="black" points="5549,-711 5427,-711 5427,-658 5549,-658 5549,-711"/>
<text text-anchor="middle" x="5488" y="-695.8" font-family="Times,serif" font-size="14.00">h1301&#45;slides</text>
<text text-anchor="middle" x="5488" y="-680.8" font-family="Times,serif" font-size="14.00">185.175.218.138</text>
<text text-anchor="middle" x="5488" y="-665.8" font-family="Times,serif" font-size="14.00">multicast 227.1.0.1</text>
</g>
<!-- h1301cam -->
<g id="node12" class="node"><title>h1301cam</title>
<polygon fill="lightgrey" stroke="black" points="5409,-711 5287,-711 5287,-658 5409,-658 5409,-711"/>
<text text-anchor="middle" x="5348" y="-695.8" font-family="Times,serif" font-size="14.00">h1301&#45;cam</text>
<text text-anchor="middle" x="5348" y="-680.8" font-family="Times,serif" font-size="14.00">185.175.218.139</text>
<text text-anchor="middle" x="5348" y="-665.8" font-family="Times,serif" font-size="14.00">multicast 227.1.0.2</text>
</g>
<!-- h1302slides -->
<g id="node13" class="node"><title>h1302slides</title>
<polygon fill="lightgrey" stroke="black" points="5263,-711 5141,-711 5141,-658 5263,-658 5263,-711"/>
<text text-anchor="middle" x="5202" y="-695.8" font-family="Times,serif" font-size="14.00">h1302&#45;slides</text>
<text text-anchor="middle" x="5202" y="-680.8" font-family="Times,serif" font-size="14.00">185.175.218.140</text>
<text text-anchor="middle" x="5202" y="-665.8" font-family="Times,serif" font-size="14.00">multicast 227.1.1.1</text>
</g>
<!-- h1302cam -->
<g id="node14" class="node"><title>h1302cam</title>
<polygon fill="lightgrey" stroke="black" points="5123,-711 5001,-711 5001,-658 5123,-658 5123,-711"/>
<text text-anchor="middle" x="5062" y="-695.8" font-family="Times,serif" font-size="14.00">h1302&#45;cam</text>
<text text-anchor="middle" x="5062" y="-680.8" font-family="Times,serif" font-size="14.00">185.175.218.141</text>
<text text-anchor="middle" x="5062" y="-665.8" font-family="Times,serif" font-size="14.00">multicast 227.1.1.2</text>
</g>
<!-- h1308slides -->
<g id="node15" class="node"><title>h1308slides</title>
<polygon fill="lightgrey" stroke="black" points="4977,-711 4855,-711 4855,-658 4977,-658 4977,-711"/>
<text text-anchor="middle" x="4916" y="-695.8" font-family="Times,serif" font-size="14.00">h1308&#45;slides</text>
<text text-anchor="middle" x="4916" y="-680.8" font-family="Times,serif" font-size="14.00">185.175.218.142</text>
<text text-anchor="middle" x="4916" y="-665.8" font-family="Times,serif" font-size="14.00">multicast 227.1.2.1</text>
</g>
<!-- h1080cam -->
<g id="node16" class="node"><title>h1080cam</title>
<polygon fill="lightgrey" stroke="black" points="4837,-711 4715,-711 4715,-658 4837,-658 4837,-711"/>
<text text-anchor="middle" x="4776" y="-695.8" font-family="Times,serif" font-size="14.00">h1308&#45;cam</text>
<text text-anchor="middle" x="4776" y="-680.8" font-family="Times,serif" font-size="14.00">185.175.218.143</text>
<text text-anchor="middle" x="4776" y="-665.8" font-family="Times,serif" font-size="14.00">multicast 227.1.2.2</text>
</g>
<!-- h1309slides -->
<g id="node17" class="node"><title>h1309slides</title>
<polygon fill="lightgrey" stroke="black" points="4691,-711 4569,-711 4569,-658 4691,-658 4691,-711"/>
<text text-anchor="middle" x="4630" y="-695.8" font-family="Times,serif" font-size="14.00">h1309&#45;slides</text>
<text text-anchor="middle" x="4630" y="-680.8" font-family="Times,serif" font-size="14.00">185.175.218.144</text>
<text text-anchor="middle" x="4630" y="-665.8" font-family="Times,serif" font-size="14.00">multicast 227.1.3.1</text>
</g>
<!-- h1309cam -->
<g id="node18" class="node"><title>h1309cam</title>
<polygon fill="lightgrey" stroke="black" points="4551,-711 4429,-711 4429,-658 4551,-658 4551,-711"/>
<text text-anchor="middle" x="4490" y="-695.8" font-family="Times,serif" font-size="14.00">h1309&#45;cam</text>
<text text-anchor="middle" x="4490" y="-680.8" font-family="Times,serif" font-size="14.00">185.175.218.145</text>
<text text-anchor="middle" x="4490" y="-665.8" font-family="Times,serif" font-size="14.00">multicast 227.1.3.2</text>
</g>
<!-- h2213slides -->
<g id="node19" class="node"><title>h2213slides</title>
<polygon fill="lightgrey" stroke="black" points="4405,-711 4283,-711 4283,-658 4405,-658 4405,-711"/>
<text text-anchor="middle" x="4344" y="-695.8" font-family="Times,serif" font-size="14.00">h2213&#45;slides</text>
<text text-anchor="middle" x="4344" y="-680.8" font-family="Times,serif" font-size="14.00">185.175.218.146</text>
<text text-anchor="middle" x="4344" y="-665.8" font-family="Times,serif" font-size="14.00">multicast 227.1.4.1</text>
</g>
<!-- h2213cam -->
<g id="node20" class="node"><title>h2213cam</title>
<polygon fill="lightgrey" stroke="black" points="4265,-711 4143,-711 4143,-658 4265,-658 4265,-711"/>
<text text-anchor="middle" x="4204" y="-695.8" font-family="Times,serif" font-size="14.00">h2213&#45;cam</text>
<text text-anchor="middle" x="4204" y="-680.8" font-family="Times,serif" font-size="14.00">185.175.218.147</text>
<text text-anchor="middle" x="4204" y="-665.8" font-family="Times,serif" font-size="14.00">multicast 227.1.4.2</text>
</g>
<!-- h2214slides -->
<g id="node21" class="node"><title>h2214slides</title>
<polygon fill="lightgrey" stroke="black" points="4119,-711 3997,-711 3997,-658 4119,-658 4119,-711"/>
<text text-anchor="middle" x="4058" y="-695.8" font-family="Times,serif" font-size="14.00">h2214&#45;slides</text>
<text text-anchor="middle" x="4058" y="-680.8" font-family="Times,serif" font-size="14.00">185.175.218.148</text>
<text text-anchor="middle" x="4058" y="-665.8" font-family="Times,serif" font-size="14.00">multicast 227.1.5.1</text>
</g>
<!-- h2214cam -->
<g id="node22" class="node"><title>h2214cam</title>
<polygon fill="lightgrey" stroke="black" points="3979,-711 3857,-711 3857,-658 3979,-658 3979,-711"/>
<text text-anchor="middle" x="3918" y="-695.8" font-family="Times,serif" font-size="14.00">h2214&#45;cam</text>
<text text-anchor="middle" x="3918" y="-680.8" font-family="Times,serif" font-size="14.00">185.175.218.149</text>
<text text-anchor="middle" x="3918" y="-665.8" font-family="Times,serif" font-size="14.00">multicast 227.1.5.2</text>
</g>
<!-- h2215slides -->
<g id="node23" class="node"><title>h2215slides</title>
<polygon fill="lightgrey" stroke="black" points="3833,-711 3711,-711 3711,-658 3833,-658 3833,-711"/>
<text text-anchor="middle" x="3772" y="-695.8" font-family="Times,serif" font-size="14.00">h2215&#45;slides</text>
<text text-anchor="middle" x="3772" y="-680.8" font-family="Times,serif" font-size="14.00">185.175.218.150</text>
<text text-anchor="middle" x="3772" y="-665.8" font-family="Times,serif" font-size="14.00">multicast 227.1.6.1</text>
</g>
<!-- h2215cam -->
<g id="node24" class="node"><title>h2215cam</title>
<polygon fill="lightgrey" stroke="black" points="3693,-711 3571,-711 3571,-658 3693,-658 3693,-711"/>
<text text-anchor="middle" x="3632" y="-695.8" font-family="Times,serif" font-size="14.00">h2215&#45;cam</text>
<text text-anchor="middle" x="3632" y="-680.8" font-family="Times,serif" font-size="14.00">185.175.218.151</text>
<text text-anchor="middle" x="3632" y="-665.8" font-family="Times,serif" font-size="14.00">multicast 227.1.6.2</text>
</g>
<!-- jansonslides -->
<g id="node25" class="node"><title>jansonslides</title>
<polygon fill="lightgrey" stroke="black" points="3547,-711 3425,-711 3425,-658 3547,-658 3547,-711"/>
<text text-anchor="middle" x="3486" y="-695.8" font-family="Times,serif" font-size="14.00">janson&#45;slides</text>
<text text-anchor="middle" x="3486" y="-680.8" font-family="Times,serif" font-size="14.00">185.175.218.152</text>
<text text-anchor="middle" x="3486" y="-665.8" font-family="Times,serif" font-size="14.00">multicast 227.2.0.1</text>
</g>
<!-- jansoncam -->
<g id="node26" class="node"><title>jansoncam</title>
<polygon fill="lightgrey" stroke="black" points="3407,-711 3285,-711 3285,-658 3407,-658 3407,-711"/>
<text text-anchor="middle" x="3346" y="-695.8" font-family="Times,serif" font-size="14.00">janson&#45;cam</text>
<text text-anchor="middle" x="3346" y="-680.8" font-family="Times,serif" font-size="14.00">185.175.218.153</text>
<text text-anchor="middle" x="3346" y="-665.8" font-family="Times,serif" font-size="14.00">multicast 227.2.0.2</text>
</g>
<!-- k1105slides -->
<g id="node27" class="node"><title>k1105slides</title>
<polygon fill="lightgrey" stroke="black" points="3261,-711 3139,-711 3139,-658 3261,-658 3261,-711"/>
<text text-anchor="middle" x="3200" y="-695.8" font-family="Times,serif" font-size="14.00">k1105&#45;slides</text>
<text text-anchor="middle" x="3200" y="-680.8" font-family="Times,serif" font-size="14.00">185.175.218.154</text>
<text text-anchor="middle" x="3200" y="-665.8" font-family="Times,serif" font-size="14.00">multicast 227.3.0.1</text>
</g>
<!-- k1105cam -->
<g id="node28" class="node"><title>k1105cam</title>
<polygon fill="lightgrey" stroke="black" points="3121,-711 2999,-711 2999,-658 3121,-658 3121,-711"/>
<text text-anchor="middle" x="3060" y="-695.8" font-family="Times,serif" font-size="14.00">k1105&#45;cam</text>
<text text-anchor="middle" x="3060" y="-680.8" font-family="Times,serif" font-size="14.00">185.175.218.155</text>
<text text-anchor="middle" x="3060" y="-665.8" font-family="Times,serif" font-size="14.00">multicast 227.3.0.2</text>
</g>
<!-- k3201slides -->
<g id="node29" class="node"><title>k3201slides</title>
<polygon fill="lightgrey" stroke="black" points="2975,-711 2853,-711 2853,-658 2975,-658 2975,-711"/>
<text text-anchor="middle" x="2914" y="-695.8" font-family="Times,serif" font-size="14.00">k3201&#45;slides</text>
<text text-anchor="middle" x="2914" y="-680.8" font-family="Times,serif" font-size="14.00">185.175.218.156</text>
<text text-anchor="middle" x="2914" y="-665.8" font-family="Times,serif" font-size="14.00">multicast 227.3.1.1</text>
</g>
<!-- k3201cam -->
<g id="node30" class="node"><title>k3201cam</title>
<polygon fill="lightgrey" stroke="black" points="2835,-711 2713,-711 2713,-658 2835,-658 2835,-711"/>
<text text-anchor="middle" x="2774" y="-695.8" font-family="Times,serif" font-size="14.00">k3201&#45;cam</text>
<text text-anchor="middle" x="2774" y="-680.8" font-family="Times,serif" font-size="14.00">185.175.218.157</text>
<text text-anchor="middle" x="2774" y="-665.8" font-family="Times,serif" font-size="14.00">multicast 227.3.1.2</text>
</g>
<!-- k3401slides -->
<g id="node31" class="node"><title>k3401slides</title>
<polygon fill="lightgrey" stroke="black" points="2689,-711 2567,-711 2567,-658 2689,-658 2689,-711"/>
<text text-anchor="middle" x="2628" y="-695.8" font-family="Times,serif" font-size="14.00">k3401&#45;slides</text>
<text text-anchor="middle" x="2628" y="-680.8" font-family="Times,serif" font-size="14.00">185.175.218.158</text>
<text text-anchor="middle" x="2628" y="-665.8" font-family="Times,serif" font-size="14.00">multicast 227.3.2.1</text>
</g>
<!-- k3401cam -->
<g id="node32" class="node"><title>k3401cam</title>
<polygon fill="lightgrey" stroke="black" points="2549,-711 2427,-711 2427,-658 2549,-658 2549,-711"/>
<text text-anchor="middle" x="2488" y="-695.8" font-family="Times,serif" font-size="14.00">k3401&#45;cam</text>
<text text-anchor="middle" x="2488" y="-680.8" font-family="Times,serif" font-size="14.00">185.175.218.159</text>
<text text-anchor="middle" x="2488" y="-665.8" font-family="Times,serif" font-size="14.00">multicast 227.3.2.2</text>
</g>
<!-- k4201slides -->
<g id="node33" class="node"><title>k4201slides</title>
<polygon fill="lightgrey" stroke="black" points="2403,-711 2281,-711 2281,-658 2403,-658 2403,-711"/>
<text text-anchor="middle" x="2342" y="-695.8" font-family="Times,serif" font-size="14.00">k4201&#45;slides</text>
<text text-anchor="middle" x="2342" y="-680.8" font-family="Times,serif" font-size="14.00">185.175.218.160</text>
<text text-anchor="middle" x="2342" y="-665.8" font-family="Times,serif" font-size="14.00">multicast 227.3.3.1</text>
</g>
<!-- k4201cam -->
<g id="node34" class="node"><title>k4201cam</title>
<polygon fill="lightgrey" stroke="black" points="2263,-711 2141,-711 2141,-658 2263,-658 2263,-711"/>
<text text-anchor="middle" x="2202" y="-695.8" font-family="Times,serif" font-size="14.00">k4201&#45;cam</text>
<text text-anchor="middle" x="2202" y="-680.8" font-family="Times,serif" font-size="14.00">185.175.218.161</text>
<text text-anchor="middle" x="2202" y="-665.8" font-family="Times,serif" font-size="14.00">multicast 227.3.3.2</text>
</g>
<!-- k4401slides -->
<g id="node35" class="node"><title>k4401slides</title>
<polygon fill="lightgrey" stroke="black" points="2117,-711 1995,-711 1995,-658 2117,-658 2117,-711"/>
<text text-anchor="middle" x="2056" y="-695.8" font-family="Times,serif" font-size="14.00">k4401&#45;slides</text>
<text text-anchor="middle" x="2056" y="-680.8" font-family="Times,serif" font-size="14.00">185.175.218.162</text>
<text text-anchor="middle" x="2056" y="-665.8" font-family="Times,serif" font-size="14.00">multicast 227.3.4.1</text>
</g>
<!-- k4401cam -->
<g id="node36" class="node"><title>k4401cam</title>
<polygon fill="lightgrey" stroke="black" points="1977,-711 1855,-711 1855,-658 1977,-658 1977,-711"/>
<text text-anchor="middle" x="1916" y="-695.8" font-family="Times,serif" font-size="14.00">k4401&#45;cam</text>
<text text-anchor="middle" x="1916" y="-680.8" font-family="Times,serif" font-size="14.00">185.175.218.163</text>
<text text-anchor="middle" x="1916" y="-665.8" font-family="Times,serif" font-size="14.00">multicast 227.3.4.2</text>
</g>
<!-- k4601slides -->
<g id="node37" class="node"><title>k4601slides</title>
<polygon fill="lightgrey" stroke="black" points="1831,-711 1709,-711 1709,-658 1831,-658 1831,-711"/>
<text text-anchor="middle" x="1770" y="-695.8" font-family="Times,serif" font-size="14.00">k4601&#45;slides</text>
<text text-anchor="middle" x="1770" y="-680.8" font-family="Times,serif" font-size="14.00">185.175.218.164</text>
<text text-anchor="middle" x="1770" y="-665.8" font-family="Times,serif" font-size="14.00">multicast 227.3.5.1</text>
</g>
<!-- k4601cam -->
<g id="node38" class="node"><title>k4601cam</title>
<polygon fill="lightgrey" stroke="black" points="1691,-711 1569,-711 1569,-658 1691,-658 1691,-711"/>
<text text-anchor="middle" x="1630" y="-695.8" font-family="Times,serif" font-size="14.00">k4601&#45;cam</text>
<text text-anchor="middle" x="1630" y="-680.8" font-family="Times,serif" font-size="14.00">185.175.218.165</text>
<text text-anchor="middle" x="1630" y="-665.8" font-family="Times,serif" font-size="14.00">multicast 227.3.5.2</text>
</g>
<!-- ua2214slides -->
<g id="node39" class="node"><title>ua2214slides</title>
<polygon fill="lightgrey" stroke="black" points="1545,-711 1423,-711 1423,-658 1545,-658 1545,-711"/>
<text text-anchor="middle" x="1484" y="-695.8" font-family="Times,serif" font-size="14.00">ua2114&#45;slides</text>
<text text-anchor="middle" x="1484" y="-680.8" font-family="Times,serif" font-size="14.00">185.175.218.166</text>
<text text-anchor="middle" x="1484" y="-665.8" font-family="Times,serif" font-size="14.00">multicast 227.4.0.1</text>
</g>
<!-- ua2214cam -->
<g id="node40" class="node"><title>ua2214cam</title>
<polygon fill="lightgrey" stroke="black" points="1405,-711 1283,-711 1283,-658 1405,-658 1405,-711"/>
<text text-anchor="middle" x="1344" y="-695.8" font-family="Times,serif" font-size="14.00">ua2114&#45;cam</text>
<text text-anchor="middle" x="1344" y="-680.8" font-family="Times,serif" font-size="14.00">185.175.218.167</text>
<text text-anchor="middle" x="1344" y="-665.8" font-family="Times,serif" font-size="14.00">multicast 227.4.0.2</text>
</g>
<!-- ua2220slides -->
<g id="node41" class="node"><title>ua2220slides</title>
<polygon fill="lightgrey" stroke="black" points="1259,-711 1137,-711 1137,-658 1259,-658 1259,-711"/>
<text text-anchor="middle" x="1198" y="-695.8" font-family="Times,serif" font-size="14.00">ua2220&#45;slides</text>
<text text-anchor="middle" x="1198" y="-680.8" font-family="Times,serif" font-size="14.00">185.175.218.168</text>
<text text-anchor="middle" x="1198" y="-665.8" font-family="Times,serif" font-size="14.00">multicast 227.4.1.1</text>
</g>
<!-- ua2220cam -->
<g id="node42" class="node"><title>ua2220cam</title>
<polygon fill="lightgrey" stroke="black" points="1119,-711 997,-711 997,-658 1119,-658 1119,-711"/>
<text text-anchor="middle" x="1058" y="-695.8" font-family="Times,serif" font-size="14.00">ua2220&#45;cam</text>
<text text-anchor="middle" x="1058" y="-680.8" font-family="Times,serif" font-size="14.00">185.175.218.169</text>
<text text-anchor="middle" x="1058" y="-665.8" font-family="Times,serif" font-size="14.00">multicast 227.4.1.2</text>
</g>
<!-- ub2252aslides -->
<g id="node43" class="node"><title>ub2252aslides</title>
<polygon fill="lightgrey" stroke="black" points="973,-711 851,-711 851,-658 973,-658 973,-711"/>
<text text-anchor="middle" x="912" y="-695.8" font-family="Times,serif" font-size="14.00">ub2252a&#45;slides</text>
<text text-anchor="middle" x="912" y="-680.8" font-family="Times,serif" font-size="14.00">185.175.218.170</text>
<text text-anchor="middle" x="912" y="-665.8" font-family="Times,serif" font-size="14.00">multicast 227.4.2.1</text>
</g>
<!-- ub2252acam -->
<g id="node44" class="node"><title>ub2252acam</title>
<polygon fill="lightgrey" stroke="black" points="833,-711 711,-711 711,-658 833,-658 833,-711"/>
<text text-anchor="middle" x="772" y="-695.8" font-family="Times,serif" font-size="14.00">ub2252a&#45;cam</text>
<text text-anchor="middle" x="772" y="-680.8" font-family="Times,serif" font-size="14.00">185.175.218.171</text>
<text text-anchor="middle" x="772" y="-665.8" font-family="Times,serif" font-size="14.00">multicast 227.4.2.2</text>
</g>
<!-- ud2120slides -->
<g id="node45" class="node"><title>ud2120slides</title>
<polygon fill="lightgrey" stroke="black" points="687,-711 565,-711 565,-658 687,-658 687,-711"/>
<text text-anchor="middle" x="626" y="-695.8" font-family="Times,serif" font-size="14.00">ud2120&#45;slides</text>
<text text-anchor="middle" x="626" y="-680.8" font-family="Times,serif" font-size="14.00">185.175.218.172</text>
<text text-anchor="middle" x="626" y="-665.8" font-family="Times,serif" font-size="14.00">multicast 227.4.3.1</text>
</g>
<!-- ud2120cam -->
<g id="node46" class="node"><title>ud2120cam</title>
<polygon fill="lightgrey" stroke="black" points="547,-711 425,-711 425,-658 547,-658 547,-711"/>
<text text-anchor="middle" x="486" y="-695.8" font-family="Times,serif" font-size="14.00">ud2120&#45;cam</text>
<text text-anchor="middle" x="486" y="-680.8" font-family="Times,serif" font-size="14.00">185.175.218.173</text>
<text text-anchor="middle" x="486" y="-665.8" font-family="Times,serif" font-size="14.00">multicast 227.4.3.2</text>
</g>
<!-- ud2218aslides -->
<g id="node47" class="node"><title>ud2218aslides</title>
<polygon fill="lightgrey" stroke="black" points="401,-711 279,-711 279,-658 401,-658 401,-711"/>
<text text-anchor="middle" x="340" y="-695.8" font-family="Times,serif" font-size="14.00">ud2218a&#45;slides</text>
<text text-anchor="middle" x="340" y="-680.8" font-family="Times,serif" font-size="14.00">185.175.218.174</text>
<text text-anchor="middle" x="340" y="-665.8" font-family="Times,serif" font-size="14.00">multicast 227.4.4.1</text>
</g>
<!-- ud2218acam -->
<g id="node48" class="node"><title>ud2218acam</title>
<polygon fill="lightgrey" stroke="black" points="261,-711 139,-711 139,-658 261,-658 261,-711"/>
<text text-anchor="middle" x="200" y="-695.8" font-family="Times,serif" font-size="14.00">ud2218a&#45;cam</text>
<text text-anchor="middle" x="200" y="-680.8" font-family="Times,serif" font-size="14.00">185.175.218.175</text>
<text text-anchor="middle" x="200" y="-665.8" font-family="Times,serif" font-size="14.00">multicast 227.4.4.2</text>
</g>
<!-- rooms_invis -->
<g id="node49" class="node"><title>rooms_invis</title>
</g>
<!-- voc_invis -->
<g id="node75" class="node"><title>voc_invis</title>
</g>
<!-- rooms_invis&#45;&gt;voc_invis -->
<g id="edge1" class="edge"><title>rooms_invis&#45;&gt;voc_invis</title>
<path fill="none" stroke="black" d="M79,-642.37C79,-640 79,-637.555 79,-635.045"/>
<polygon fill="black" stroke="black" points="82.5001,-634.805 79,-624.805 75.5001,-634.805 82.5001,-634.805"/>
</g>
<!-- voctoaw1120 -->
<g id="node50" class="node"><title>voctoaw1120</title>
<polygon fill="lightgrey" stroke="black" points="3177,-458 3075,-458 3075,-420 3177,-420 3177,-458"/>
<text text-anchor="middle" x="3126" y="-442.8" font-family="Times,serif" font-size="14.00">vocto&#45;aw1120</text>
<text text-anchor="middle" x="3126" y="-427.8" font-family="Times,serif" font-size="14.00">185.175.218.64</text>
</g>
<!-- voctoaw1121 -->
<g id="node51" class="node"><title>voctoaw1121</title>
<polygon fill="lightgrey" stroke="black" points="3057,-458 2955,-458 2955,-420 3057,-420 3057,-458"/>
<text text-anchor="middle" x="3006" y="-442.8" font-family="Times,serif" font-size="14.00">vocto&#45;aw1121</text>
<text text-anchor="middle" x="3006" y="-427.8" font-family="Times,serif" font-size="14.00">185.175.218.65</text>
</g>
<!-- voctoaw1124 -->
<g id="node52" class="node"><title>voctoaw1124</title>
<polygon fill="lightgrey" stroke="black" points="2937,-458 2835,-458 2835,-420 2937,-420 2937,-458"/>
<text text-anchor="middle" x="2886" y="-442.8" font-family="Times,serif" font-size="14.00">vocto&#45;aw1124</text>
<text text-anchor="middle" x="2886" y="-427.8" font-family="Times,serif" font-size="14.00">185.175.218.66</text>
</g>
<!-- voctoaw1125 -->
<g id="node53" class="node"><title>voctoaw1125</title>
<polygon fill="lightgrey" stroke="black" points="2817,-458 2715,-458 2715,-420 2817,-420 2817,-458"/>
<text text-anchor="middle" x="2766" y="-442.8" font-family="Times,serif" font-size="14.00">vocto&#45;aw1125</text>
<text text-anchor="middle" x="2766" y="-427.8" font-family="Times,serif" font-size="14.00">185.175.218.67</text>
</g>
<!-- voctoaw1126 -->
<g id="node54" class="node"><title>voctoaw1126</title>
<polygon fill="lightgrey" stroke="black" points="2697,-458 2595,-458 2595,-420 2697,-420 2697,-458"/>
<text text-anchor="middle" x="2646" y="-442.8" font-family="Times,serif" font-size="14.00">vocto&#45;aw1126</text>
<text text-anchor="middle" x="2646" y="-427.8" font-family="Times,serif" font-size="14.00">185.175.218.68</text>
</g>
<!-- voctoh1301 -->
<g id="node55" class="node"><title>voctoh1301</title>
<polygon fill="lightgrey" stroke="black" points="2571,-458 2469,-458 2469,-420 2571,-420 2571,-458"/>
<text text-anchor="middle" x="2520" y="-442.8" font-family="Times,serif" font-size="14.00">vocto&#45;h1301</text>
<text text-anchor="middle" x="2520" y="-427.8" font-family="Times,serif" font-size="14.00">185.175.218.69</text>
</g>
<!-- voctoh1302 -->
<g id="node56" class="node"><title>voctoh1302</title>
<polygon fill="lightgrey" stroke="black" points="2451,-458 2349,-458 2349,-420 2451,-420 2451,-458"/>
<text text-anchor="middle" x="2400" y="-442.8" font-family="Times,serif" font-size="14.00">vocto&#45;h1302</text>
<text text-anchor="middle" x="2400" y="-427.8" font-family="Times,serif" font-size="14.00">185.175.218.70</text>
</g>
<!-- voctoh1308 -->
<g id="node57" class="node"><title>voctoh1308</title>
<polygon fill="lightgrey" stroke="black" points="2331,-458 2229,-458 2229,-420 2331,-420 2331,-458"/>
<text text-anchor="middle" x="2280" y="-442.8" font-family="Times,serif" font-size="14.00">vocto&#45;h1308</text>
<text text-anchor="middle" x="2280" y="-427.8" font-family="Times,serif" font-size="14.00">185.175.218.71</text>
</g>
<!-- voctoh1309 -->
<g id="node58" class="node"><title>voctoh1309</title>
<polygon fill="lightgrey" stroke="black" points="2211,-458 2109,-458 2109,-420 2211,-420 2211,-458"/>
<text text-anchor="middle" x="2160" y="-442.8" font-family="Times,serif" font-size="14.00">vocto&#45;h1309</text>
<text text-anchor="middle" x="2160" y="-427.8" font-family="Times,serif" font-size="14.00">185.175.218.72</text>
</g>
<!-- voctoh2213 -->
<g id="node59" class="node"><title>voctoh2213</title>
<polygon fill="lightgrey" stroke="black" points="2091,-458 1989,-458 1989,-420 2091,-420 2091,-458"/>
<text text-anchor="middle" x="2040" y="-442.8" font-family="Times,serif" font-size="14.00">vocto&#45;h2213</text>
<text text-anchor="middle" x="2040" y="-427.8" font-family="Times,serif" font-size="14.00">185.175.218.73</text>
</g>
<!-- voctoh2214 -->
<g id="node60" class="node"><title>voctoh2214</title>
<polygon fill="lightgrey" stroke="black" points="1965,-458 1863,-458 1863,-420 1965,-420 1965,-458"/>
<text text-anchor="middle" x="1914" y="-442.8" font-family="Times,serif" font-size="14.00">vocto&#45;h2214</text>
<text text-anchor="middle" x="1914" y="-427.8" font-family="Times,serif" font-size="14.00">185.175.218.74</text>
</g>
<!-- voctoh2215 -->
<g id="node61" class="node"><title>voctoh2215</title>
<polygon fill="lightgrey" stroke="black" points="1845,-458 1743,-458 1743,-420 1845,-420 1845,-458"/>
<text text-anchor="middle" x="1794" y="-442.8" font-family="Times,serif" font-size="14.00">vocto&#45;h2215</text>
<text text-anchor="middle" x="1794" y="-427.8" font-family="Times,serif" font-size="14.00">185.175.218.75</text>
</g>
<!-- voctojanson -->
<g id="node62" class="node"><title>voctojanson</title>
<polygon fill="lightgrey" stroke="black" points="1725,-458 1623,-458 1623,-420 1725,-420 1725,-458"/>
<text text-anchor="middle" x="1674" y="-442.8" font-family="Times,serif" font-size="14.00">vocto&#45;janson</text>
<text text-anchor="middle" x="1674" y="-427.8" font-family="Times,serif" font-size="14.00">185.175.218.76</text>
</g>
<!-- voctok1105 -->
<g id="node63" class="node"><title>voctok1105</title>
<polygon fill="lightgrey" stroke="black" points="1605,-458 1503,-458 1503,-420 1605,-420 1605,-458"/>
<text text-anchor="middle" x="1554" y="-442.8" font-family="Times,serif" font-size="14.00">vocto&#45;k1105</text>
<text text-anchor="middle" x="1554" y="-427.8" font-family="Times,serif" font-size="14.00">185.175.218.77</text>
</g>
<!-- voctok3201 -->
<g id="node64" class="node"><title>voctok3201</title>
<polygon fill="lightgrey" stroke="black" points="1479,-458 1377,-458 1377,-420 1479,-420 1479,-458"/>
<text text-anchor="middle" x="1428" y="-442.8" font-family="Times,serif" font-size="14.00">vocto&#45;k3201</text>
<text text-anchor="middle" x="1428" y="-427.8" font-family="Times,serif" font-size="14.00">185.175.218.78</text>
</g>
<!-- voctok3401 -->
<g id="node65" class="node"><title>voctok3401</title>
<polygon fill="lightgrey" stroke="black" points="1359,-458 1257,-458 1257,-420 1359,-420 1359,-458"/>
<text text-anchor="middle" x="1308" y="-442.8" font-family="Times,serif" font-size="14.00">vocto&#45;k3401</text>
<text text-anchor="middle" x="1308" y="-427.8" font-family="Times,serif" font-size="14.00">185.175.218.79</text>
</g>
<!-- voctok4201 -->
<g id="node66" class="node"><title>voctok4201</title>
<polygon fill="lightgrey" stroke="black" points="1239,-458 1137,-458 1137,-420 1239,-420 1239,-458"/>
<text text-anchor="middle" x="1188" y="-442.8" font-family="Times,serif" font-size="14.00">vocto&#45;k4201</text>
<text text-anchor="middle" x="1188" y="-427.8" font-family="Times,serif" font-size="14.00">185.175.218.80</text>
</g>
<!-- voctok4401 -->
<g id="node67" class="node"><title>voctok4401</title>
<polygon fill="lightgrey" stroke="black" points="1119,-458 1017,-458 1017,-420 1119,-420 1119,-458"/>
<text text-anchor="middle" x="1068" y="-442.8" font-family="Times,serif" font-size="14.00">vocto&#45;k4401</text>
<text text-anchor="middle" x="1068" y="-427.8" font-family="Times,serif" font-size="14.00">185.175.218.81</text>
</g>
<!-- voctok4601 -->
<g id="node68" class="node"><title>voctok4601</title>
<polygon fill="lightgrey" stroke="black" points="999,-458 897,-458 897,-420 999,-420 999,-458"/>
<text text-anchor="middle" x="948" y="-442.8" font-family="Times,serif" font-size="14.00">vocto&#45;k4601</text>
<text text-anchor="middle" x="948" y="-427.8" font-family="Times,serif" font-size="14.00">185.175.218.82</text>
</g>
<!-- voctoua2114 -->
<g id="node69" class="node"><title>voctoua2114</title>
<polygon fill="lightgrey" stroke="black" points="873,-458 771,-458 771,-420 873,-420 873,-458"/>
<text text-anchor="middle" x="822" y="-442.8" font-family="Times,serif" font-size="14.00">vocto&#45;ua2114</text>
<text text-anchor="middle" x="822" y="-427.8" font-family="Times,serif" font-size="14.00">185.175.218.83</text>
</g>
<!-- voctoua2220 -->
<g id="node70" class="node"><title>voctoua2220</title>
<polygon fill="lightgrey" stroke="black" points="753,-458 651,-458 651,-420 753,-420 753,-458"/>
<text text-anchor="middle" x="702" y="-442.8" font-family="Times,serif" font-size="14.00">vocto&#45;ua2220</text>
<text text-anchor="middle" x="702" y="-427.8" font-family="Times,serif" font-size="14.00">185.175.218.84</text>
</g>
<!-- voctoub2252a -->
<g id="node71" class="node"><title>voctoub2252a</title>
<polygon fill="lightgrey" stroke="black" points="633,-458 531,-458 531,-420 633,-420 633,-458"/>
<text text-anchor="middle" x="582" y="-442.8" font-family="Times,serif" font-size="14.00">vocto&#45;ub2252a</text>
<text text-anchor="middle" x="582" y="-427.8" font-family="Times,serif" font-size="14.00">185.175.218.85</text>
</g>
<!-- voctoud2120 -->
<g id="node72" class="node"><title>voctoud2120</title>
<polygon fill="lightgrey" stroke="black" points="513,-458 411,-458 411,-420 513,-420 513,-458"/>
<text text-anchor="middle" x="462" y="-442.8" font-family="Times,serif" font-size="14.00">vocto&#45;ud2120</text>
<text text-anchor="middle" x="462" y="-427.8" font-family="Times,serif" font-size="14.00">185.175.218.86</text>
</g>
<!-- voctoud2218a -->
<g id="node73" class="node"><title>voctoud2218a</title>
<polygon fill="lightgrey" stroke="black" points="393,-458 291,-458 291,-420 393,-420 393,-458"/>
<text text-anchor="middle" x="342" y="-442.8" font-family="Times,serif" font-size="14.00">vocto&#45;ud2218a</text>
<text text-anchor="middle" x="342" y="-427.8" font-family="Times,serif" font-size="14.00">185.175.218.87</text>
</g>
<!-- voctomon -->
<g id="node74" class="node"><title>voctomon</title>
<polygon fill="lightgrey" stroke="black" points="272.5,-458 131.5,-458 131.5,-420 272.5,-420 272.5,-458"/>
<text text-anchor="middle" x="202" y="-442.8" font-family="Times,serif" font-size="14.00">mon.vocto.fosdem.org</text>
<text text-anchor="middle" x="202" y="-427.8" font-family="Times,serif" font-size="14.00">40&quot;screen</text>
</g>
<!-- ingest_stream_invis -->
<g id="node79" class="node"><title>ingest_stream_invis</title>
</g>
<!-- voc_invis&#45;&gt;ingest_stream_invis -->
<g id="edge2" class="edge"><title>voc_invis&#45;&gt;ingest_stream_invis</title>
<path fill="none" stroke="black" d="M79,-404.181C79,-401.238 79,-398.209 79,-395.141"/>
<polygon fill="black" stroke="black" points="82.5001,-394.913 79,-384.913 75.5001,-394.913 82.5001,-394.913"/>
</g>
<!-- ingest_rtmp1 -->
<g id="node76" class="node"><title>ingest_rtmp1</title>
<polygon fill="lightgrey" stroke="black" points="575.5,-377 366.5,-377 366.5,-294 575.5,-294 575.5,-377"/>
<text text-anchor="middle" x="471" y="-361.8" font-family="Times,serif" font-size="14.00">ingest1.video.fosdem.org</text>
<text text-anchor="middle" x="471" y="-346.8" font-family="Times,serif" font-size="14.00">12 rooms</text>
<text text-anchor="middle" x="471" y="-331.8" font-family="Times,serif" font-size="14.00">nginx_rtmp</text>
<text text-anchor="middle" x="471" y="-316.8" font-family="Times,serif" font-size="14.00">scaleway Paris</text>
<text text-anchor="middle" x="471" y="-301.8" font-family="Times,serif" font-size="14.00">250Gb SSD 5Gbit int 800 Mbit ext</text>
</g>
<!-- stream_vps -->
<g id="node80" class="node"><title>stream_vps</title>
<polygon fill="lightgrey" stroke="black" points="620.5,-243 471.5,-243 471.5,-160 620.5,-160 620.5,-243"/>
<text text-anchor="middle" x="546" y="-227.8" font-family="Times,serif" font-size="14.00">stream.fosdem.org</text>
<text text-anchor="middle" x="546" y="-212.8" font-family="Times,serif" font-size="14.00"> n* scaleway bare metal</text>
<text text-anchor="middle" x="546" y="-197.8" font-family="Times,serif" font-size="14.00">nginx (streaming)</text>
<text text-anchor="middle" x="546" y="-182.8" font-family="Times,serif" font-size="14.00">800 Mbit bandwidth</text>
<text text-anchor="middle" x="546" y="-167.8" font-family="Times,serif" font-size="14.00">round robin dns</text>
</g>
<!-- ingest_rtmp1&#45;&gt;stream_vps -->
<g id="edge3" class="edge"><title>ingest_rtmp1&#45;&gt;stream_vps</title>
<path fill="none" stroke="black" d="M494.114,-293.819C501.599,-280.645 509.986,-265.885 517.798,-252.136"/>
<polygon fill="black" stroke="black" points="520.936,-253.698 522.833,-243.274 514.85,-250.24 520.936,-253.698"/>
<text text-anchor="middle" x="536" y="-264.8" font-family="Times,serif" font-size="14.00">hls&#45;proxy</text>
</g>
<!-- ingest_rtmp2 -->
<g id="node77" class="node"><title>ingest_rtmp2</title>
<polygon fill="lightgrey" stroke="black" points="802.5,-377 593.5,-377 593.5,-294 802.5,-294 802.5,-377"/>
<text text-anchor="middle" x="698" y="-361.8" font-family="Times,serif" font-size="14.00">ingest2.video.fosdem.org</text>
<text text-anchor="middle" x="698" y="-346.8" font-family="Times,serif" font-size="14.00">12 rooms</text>
<text text-anchor="middle" x="698" y="-331.8" font-family="Times,serif" font-size="14.00">nginx_rtmp</text>
<text text-anchor="middle" x="698" y="-316.8" font-family="Times,serif" font-size="14.00">scaleway Paris</text>
<text text-anchor="middle" x="698" y="-301.8" font-family="Times,serif" font-size="14.00">250Gb SSD 5Gbit int 800 Mbit ext</text>
</g>
<!-- ingest_rtmp2&#45;&gt;stream_vps -->
<g id="edge4" class="edge"><title>ingest_rtmp2&#45;&gt;stream_vps</title>
<path fill="none" stroke="black" d="M651.155,-293.819C635.188,-279.953 617.197,-264.329 600.671,-249.977"/>
<polygon fill="black" stroke="black" points="602.536,-246.961 592.691,-243.047 597.946,-252.247 602.536,-246.961"/>
<text text-anchor="middle" x="652" y="-264.8" font-family="Times,serif" font-size="14.00">hls&#45;proxy</text>
</g>
<!-- ingest_backup -->
<g id="node78" class="node"><title>ingest_backup</title>
<polygon fill="lightgrey" stroke="black" points="348,-369.5 160,-369.5 160,-301.5 348,-301.5 348,-369.5"/>
<text text-anchor="middle" x="254" y="-354.3" font-family="Times,serif" font-size="14.00">ingestbackup.video.fosdem.org</text>
<text text-anchor="middle" x="254" y="-339.3" font-family="Times,serif" font-size="14.00">nginx_rtmp</text>
<text text-anchor="middle" x="254" y="-324.3" font-family="Times,serif" font-size="14.00">Google compute engine</text>
<text text-anchor="middle" x="254" y="-309.3" font-family="Times,serif" font-size="14.00">2.5Tb disk</text>
</g>
<!-- www -->
<g id="node82" class="node"><title>www</title>
<polygon fill="none" stroke="black" points="602,-109 490,-109 490,-73 602,-73 602,-109"/>
<text text-anchor="middle" x="546" y="-87.3" font-family="Times,serif" font-size="14.00">www.fosdem.org</text>
</g>
<!-- stream_vps&#45;&gt;www -->
<g id="edge5" class="edge"><title>stream_vps&#45;&gt;www</title>
<path fill="none" stroke="black" d="M546,-159.79C546,-146.21 546,-131.42 546,-119.13"/>
<polygon fill="black" stroke="black" points="549.5,-119.067 546,-109.067 542.5,-119.067 549.5,-119.067"/>
<text text-anchor="middle" x="587" y="-130.8" font-family="Times,serif" font-size="14.00">include HLS.js</text>
</g>
<!-- cluster_stream_invis -->
<g id="node81" class="node"><title>cluster_stream_invis</title>
</g>
<!-- browser -->
<g id="node83" class="node"><title>browser</title>
<polygon fill="none" stroke="black" points="603,-36 489,-36 489,-0 603,-0 603,-36"/>
<text text-anchor="middle" x="546" y="-14.3" font-family="Times,serif" font-size="14.00">web, android, iOs</text>
</g>
<!-- www&#45;&gt;browser -->
<g id="edge6" class="edge"><title>www&#45;&gt;browser</title>
<path fill="none" stroke="black" d="M546,-72.8129C546,-64.7895 546,-55.0475 546,-46.0691"/>
<polygon fill="black" stroke="black" points="549.5,-46.0288 546,-36.0288 542.5,-46.0289 549.5,-46.0288"/>
</g>
</g>
</svg>
