<?xml version="1.0" encoding="UTF-8" standalone="no"?>
<!-- Created with Inkscape (http://www.inkscape.org/) -->

<svg
   width="210mm"
   height="297mm"
   viewBox="0 0 210 297"
   version="1.1"
   id="svg2045"
   inkscape:version="1.2.2 (b0a8486541, 2022-12-01)"
   sodipodi:docname="frontplate.svg"
   xmlns:inkscape="http://www.inkscape.org/namespaces/inkscape"
   xmlns:sodipodi="http://sodipodi.sourceforge.net/DTD/sodipodi-0.dtd"
   xmlns="http://www.w3.org/2000/svg"
   xmlns:svg="http://www.w3.org/2000/svg">
  <sodipodi:namedview
     id="namedview2047"
     pagecolor="#ffffff"
     bordercolor="#666666"
     borderopacity="1.0"
     inkscape:showpageshadow="2"
     inkscape:pageopacity="0.0"
     inkscape:pagecheckerboard="0"
     inkscape:deskcolor="#d1d1d1"
     inkscape:document-units="mm"
     showgrid="false"
     inkscape:zoom="3.6612622"
     inkscape:cx="579.30842"
     inkscape:cy="17.75344"
     inkscape:window-width="2160"
     inkscape:window-height="1277"
     inkscape:window-x="0"
     inkscape:window-y="0"
     inkscape:window-maximized="1"
     inkscape:current-layer="layer1" />
  <defs
     id="defs2042">
    <rect
       x="840.32226"
       y="60.810543"
       width="234.88768"
       height="45.933502"
       id="rect5291" />
    <rect
       x="1130.6309"
       y="-172.92747"
       width="174.1985"
       height="121.79547"
       id="rect2932" />
    <rect
       x="1130.6309"
       y="-172.92747"
       width="174.1985"
       height="121.79547"
       id="rect2932-3" />
  </defs>
  <g
     inkscape:label="Layer 1"
     inkscape:groupmode="layer"
     id="layer1">
    <path
       id="path9670-7-1"
       style="opacity:0.9;fill:none;stroke:#ff0000;stroke-width:0.0848865;stop-color:#000000"
       d="m 380.30052,32.000004 a 1.4575567,1.4575567 0 0 1 1.45756,-1.457557 1.4575567,1.4575567 0 0 1 1.45756,1.457557 1.4575567,1.4575567 0 0 1 -1.45756,1.457557 1.4575567,1.4575567 0 0 1 -1.45756,-1.457557 z" />
    <path
       id="path9672-8-8"
       style="opacity:0.9;fill:none;stroke:#ff0000;stroke-width:0.0848865;stop-color:#000000"
       d="m 361.30052,8.000004 a 1.4575567,1.4575567 0 0 1 1.45756,-1.457557 1.4575567,1.4575567 0 0 1 1.45756,1.457557 1.4575567,1.4575567 0 0 1 -1.45756,1.457557 1.4575567,1.4575567 0 0 1 -1.45756,-1.457557 z" />
    <path
       id="path9676-4-7"
       style="opacity:0.9;fill:none;stroke:#0000ff;stroke-width:0.609376;stop-color:#000000"
       d="M 384.95339,35.234379 H 359.56277 V 4.765631 h 25.39062 z" />
    <path
       id="path9702-5-5-7"
       style="opacity:0.9;fill:none;stroke:#ff0000;stroke-width:0.246178;stroke-dasharray:none;stop-color:#000000"
       d="M 360.38116,20.000003 A 11.876908,11.876908 0 0 1 372.25808,8.1230965 11.876908,11.876908 0 0 1 384.13499,20.000003 11.876908,11.876908 0 0 1 372.25808,31.876913 11.876908,11.876908 0 0 1 360.38116,20.000003 Z" />
    <path
       id="path9694-0-2"
       style="opacity:0.9;fill:none;stroke:#ff0000;stroke-width:0.0848865;stop-color:#000000"
       d="m 351.41858,32.000004 a 1.4575567,1.4575567 0 0 1 1.45756,-1.457557 1.4575567,1.4575567 0 0 1 1.45756,1.457557 1.4575567,1.4575567 0 0 1 -1.45756,1.457557 1.4575567,1.4575567 0 0 1 -1.45756,-1.457557 z" />
    <path
       id="path9696-6-3"
       style="opacity:0.9;fill:none;stroke:#ff0000;stroke-width:0.0848865;stop-color:#000000"
       d="m 332.41858,8.000004 a 1.4575567,1.4575567 0 0 1 1.45756,-1.457557 1.4575567,1.4575567 0 0 1 1.45756,1.457557 1.4575567,1.4575567 0 0 1 -1.45756,1.457557 1.4575567,1.4575567 0 0 1 -1.45756,-1.457557 z" />
    <path
       id="path9700-1-7"
       style="opacity:0.9;fill:none;stroke:#0000ff;stroke-width:0.609376;stop-color:#000000"
       d="M 356.07145,35.234379 H 330.68083 V 4.765631 h 25.39062 z" />
    <path
       id="path9702-5-5"
       style="opacity:0.9;fill:none;stroke:#ff0000;stroke-width:0.246178;stroke-dasharray:none;stop-color:#000000"
       d="M 331.49923,20.000004 A 11.876908,11.876908 0 0 1 343.37615,8.1230958 11.876908,11.876908 0 0 1 355.25306,20.000004 11.876908,11.876908 0 0 1 343.37615,31.876914 11.876908,11.876908 0 0 1 331.49923,20.000004 Z" />
    <rect
       style="opacity:0.9;fill:none;stroke:#ff0000;stroke-width:0.447242;stop-color:#000000"
       id="rect2100-6"
       width="426.05276"
       height="39.552757"
       x="0.47361451"
       y="0.22362593"
       rx="0.99882841" />
    <rect
       style="opacity:0.9;fill:none;stroke:#ff0000;stroke-width:0.611671;stop-color:#000000"
       id="rect2458"
       width="58.388329"
       height="12.38833"
       x="27.305836"
       y="19.705835" />
    <path
       id="path41"
       style="fill:none;fill-opacity:1;fill-rule:nonzero;stroke:#0000ff;stroke-width:0.149232"
       d="m 132.71039,16.647295 0.0163,1.272649 v 1.02761 h 3.50815 c 0.0868,0.326519 0.13057,0.682735 0.13057,1.069096 0,0.385914 -0.0437,0.74213 -0.13057,1.068649 h -3.50815 v 4.4874 c -0.34621,0.06521 -0.77884,0.0979 -1.29757,0.0979 -0.51888,0 -0.95135,-0.03268 -1.29712,-0.0979 V 14.525965 l 0.11431,-0.09849 h 6.9836 c 0.0652,0.272348 0.0979,0.612149 0.0979,1.020148 0,0.408149 -0.11192,0.710045 -0.33518,0.905987 -0.22384,0.195792 -0.57603,0.293688 -1.05626,0.293688 h -3.22594" />
    <path
       id="path43"
       style="fill:none;fill-opacity:1;fill-rule:nonzero;stroke:#0000ff;stroke-width:0.149232"
       d="m 141.1296,22.537325 c 0.29384,0.84883 0.88673,1.273096 1.77854,1.273096 0.44606,0 0.80809,-0.111327 1.08552,-0.334578 0.27742,-0.222653 0.49485,-0.506045 0.65229,-0.848681 0.15803,-0.342188 0.26414,-0.725863 0.31831,-1.150129 0.0548,-0.424416 0.0816,-0.843011 0.0816,-1.256234 0,-0.38069 -0.0134,-0.805105 -0.0409,-1.273245 -0.0267,-0.467394 -0.1061,-0.90524 -0.23668,-1.31324 -0.13058,-0.408149 -0.33682,-0.750935 -0.61961,-1.028356 -0.28324,-0.276975 -0.69662,-0.415611 -1.24057,-0.415611 -0.52171,0 -0.9215,0.133413 -1.19907,0.399344 -0.27743,0.266976 -0.48381,0.595734 -0.62021,0.987467 -0.1358,0.391734 -0.22042,0.807344 -0.25295,1.248026 -0.0321,0.440681 -0.0483,0.830176 -0.0483,1.166992 0,0.500225 0.0239,0.94613 0.0734,1.337863 0.0483,0.391734 0.13819,0.794063 0.26862,1.207286 z m -1.32145,2.251908 c -1.16416,-0.967619 -1.74586,-2.561415 -1.74586,-4.780641 0,-0.957173 0.11133,-1.797796 0.33458,-2.521271 0.22265,-0.723327 0.54395,-1.329656 0.96239,-1.819285 0.4186,-0.48963 0.92748,-0.859277 1.5256,-1.10939 0.59872,-0.25056 1.27309,-0.375318 2.02328,-0.375318 0.75094,0 1.4283,0.124758 2.03164,0.375318 0.60395,0.250113 1.11506,0.622596 1.53426,1.117448 0.41859,0.495599 0.73914,1.104166 0.96239,1.827642 0.22266,0.723327 0.33458,1.558129 0.33458,2.504856 0,0.946129 -0.11192,1.78138 -0.33458,2.504259 -0.22325,0.724072 -0.5438,1.330252 -0.96239,1.819285 -0.4192,0.489778 -0.93031,0.859873 -1.53426,1.109986 -0.60334,0.250112 -1.2807,0.375467 -2.03164,0.375467 -1.23981,0 -2.27339,-0.342786 -3.09999,-1.028356" />
    <path
       id="path45"
       style="fill:none;fill-opacity:1;fill-rule:nonzero;stroke:#0000ff;stroke-width:0.149232"
       d="m 148.60298,24.609707 c 0.0325,-0.358604 0.14386,-0.717656 0.33458,-1.076708 0.18997,-0.359051 0.4162,-0.652889 0.67736,-0.881363 1.16356,0.707657 2.26817,1.060889 3.3122,1.060889 0.4571,0 0.79167,-0.103119 1.00388,-0.310104 0.21161,-0.206387 0.31772,-0.46232 0.31772,-0.7672 0,-0.511119 -0.34279,-0.913448 -1.02776,-1.207286 l -1.92539,-0.815999 c -0.75094,-0.336965 -1.32742,-0.74213 -1.7296,-1.215493 -0.40278,-0.473363 -0.60394,-1.07432 -0.60394,-1.803019 0,-0.500075 0.10028,-0.957172 0.3019,-1.370395 0.20116,-0.413372 0.48381,-0.772424 0.84883,-1.077305 0.36427,-0.304283 0.7963,-0.540965 1.29697,-0.709448 0.50022,-0.168482 1.05522,-0.252948 1.66438,-0.252948 1.21833,0 2.4477,0.310104 3.68752,0.929715 -0.0542,0.838235 -0.34801,1.490527 -0.88136,1.95807 -1.10924,-0.532757 -2.08805,-0.799733 -2.93674,-0.799733 -0.43545,0 -0.76197,0.09849 -0.97881,0.294285 -0.21802,0.195344 -0.32652,0.418595 -0.32652,0.668708 0,0.424415 0.3207,0.7672 0.96255,1.028356 l 1.95807,0.831818 c 0.82659,0.348606 1.44397,0.79451 1.85197,1.337863 0.408,0.544398 0.612,1.175201 0.612,1.893304 0,0.511268 -0.0927,0.978811 -0.27743,1.403077 -0.18475,0.424416 -0.45933,0.791078 -0.82361,1.101182 -0.36502,0.310103 -0.81913,0.552605 -1.36293,0.72646 -0.54395,0.173706 -1.18042,0.261156 -1.90912,0.261156 -1.41427,0 -2.76318,-0.402329 -4.04672,-1.207882" />
    <path
       id="path47"
       style="fill:none;fill-opacity:1;fill-rule:nonzero;stroke:#0000ff;stroke-width:0.149232"
       d="m 162.89715,23.630895 c 1.43576,0 2.15386,-1.207882 2.15386,-3.622303 0,-2.425614 -0.7181,-3.638719 -2.15386,-3.638719 h -0.92226 c -0.26638,0 -0.49783,-0.0052 -0.69363,-0.01627 v 7.293704 c 0.1958,-0.01119 0.42725,-0.01642 0.69363,-0.01642 z m 3.00209,1.223552 c -0.34801,0.283391 -0.8051,0.489779 -1.37054,0.620356 -0.56604,0.130578 -1.19147,0.195793 -1.87644,0.195793 -0.33757,0 -0.82421,-0.0058 -1.46083,-0.01627 -0.63603,-0.01104 -1.43278,-0.02746 -2.3901,-0.04895 L 158.68717,25.49107 V 14.509698 l 0.11416,-0.114311 c 0.6308,-0.02149 1.28608,-0.03776 1.96628,-0.04895 0.67975,-0.01104 1.39502,-0.01627 2.1458,-0.01627 0.92405,0 1.69692,0.146844 2.31668,0.440681 0.6202,0.293241 1.11506,0.696017 1.4853,1.207285 0.3695,0.511269 0.63065,1.112225 0.78287,1.803019 0.15207,0.690794 0.22847,1.433371 0.22847,2.227434 0,1.08775 -0.12535,2.028508 -0.37546,2.82257 -0.24997,0.79451 -0.73392,1.468441 -1.45203,2.023285" />
    <path
       id="path49"
       style="fill:none;fill-opacity:1;fill-rule:nonzero;stroke:#0000ff;stroke-width:0.149232"
       d="m 172.14892,22.276169 -0.0164,1.1752 v 0.01627 c 0.49843,-0.02149 0.90016,-0.03253 1.20325,-0.03253 h 3.77333 c 0,0.402777 -0.0163,0.712284 -0.049,0.930311 -0.13058,0.837638 -0.68497,1.256234 -1.66423,1.256234 h -4.34056 c -0.46754,0 -0.8348,-0.135801 -1.10118,-0.408 -0.26698,-0.271751 -0.39994,-0.641846 -0.39994,-1.109389 V 14.54238 l 0.11431,-0.114908 h 7.03255 c 0.0652,0.315923 0.0979,0.658709 0.0979,1.028356 0,0.370095 -0.0758,0.756008 -0.22787,1.158934 h -4.4386 l 0.0164,1.174604 v 1.141921 c 0.2816,-0.01045 0.64931,-0.01627 1.10402,-0.01627 h 2.48575 c 0.0979,0.304881 0.14685,0.652889 0.14685,1.044623 0,0.391733 -0.0489,0.750188 -0.14685,1.076558 h -3.58977 v 1.239967" />
    <path
       id="path51"
       style="fill:none;fill-opacity:1;fill-rule:nonzero;stroke:#0000ff;stroke-width:0.149232"
       d="m 178.57753,25.540018 0.86509,-11.095534 c 0.47859,-0.08685 1.04403,-0.130578 1.69692,-0.130578 0.65229,0 1.22355,0.04373 1.71318,0.130578 l 0.96255,3.997771 c 0.38054,1.805257 0.5817,2.789888 0.60394,2.953148 h 0.11416 c 0.0431,-0.271751 0.24489,-1.256233 0.60394,-2.953148 l 0.97881,-3.997771 c 0.47859,-0.08685 1.04462,-0.130578 1.69692,-0.130578 0.65289,0 1.22414,0.04373 1.71377,0.130578 l 0.8645,11.095534 c -0.33756,0.08685 -0.75317,0.130578 -1.24802,0.130578 -0.4956,0 -0.90062,-0.02731 -1.21609,-0.08163 l -0.26116,-4.536349 c -0.0763,-1.805406 -0.11938,-3.061639 -0.12998,-3.769296 h -0.0979 l -1.61589,6.641412 c -0.39113,0.06521 -0.84002,0.0979 -1.34607,0.0979 -0.50589,0 -0.95418,-0.03268 -1.34592,-0.0979 l -1.59902,-6.641412 h -0.11431 c 0,0.968216 -0.0437,2.224449 -0.13058,3.769296 l -0.24474,4.536349 c -0.31592,0.05432 -0.72049,0.08163 -1.21549,0.08163 -0.49545,0 -0.91166,-0.04372 -1.24862,-0.130578" />
    <path
       id="path53"
       style="fill:none;fill-opacity:1;fill-rule:nonzero;stroke:#0000ff;stroke-width:0.149232"
       d="m 117.09582,24.268115 c -2.32832,0 -4.26833,-1.892856 -4.26833,-4.256091 0,-2.351595 1.94001,-4.279371 4.26833,-4.279371 2.36323,0 4.29161,1.927776 4.29161,4.279371 0,2.363235 -1.92838,4.256091 -4.29161,4.256091 z m 6.64947,-4.264746 -0.0331,-0.662291 c 0.5135,-0.219818 1.01955,-0.480377 1.51798,-0.781079 -0.0409,-0.311895 -0.14177,-0.612746 -0.21519,-0.918224 -0.58693,-0.07984 -1.18102,-0.106103 -1.74705,-0.09028 -0.0752,-0.207581 -0.18535,-0.400538 -0.27743,-0.60215 -0.0997,-0.197135 -0.22504,-0.380093 -0.33696,-0.571259 0.35845,-0.437847 0.67855,-0.900167 0.98045,-1.399645 -0.18012,-0.257724 -0.40979,-0.474558 -0.61677,-0.710045 -0.55544,0.202806 -1.09357,0.455903 -1.58723,0.732728 -0.16446,-0.148038 -0.3504,-0.269961 -0.5253,-0.405762 -0.18132,-0.125802 -0.37532,-0.2331 -0.56305,-0.34965 0.11356,-0.552754 0.18415,-1.112373 0.21967,-1.694676 -0.28041,-0.144606 -0.58529,-0.230862 -0.87838,-0.343979 -0.39815,0.437846 -0.75735,0.913 -1.06566,1.387408 -0.21341,-0.05716 -0.43606,-0.07402 -0.65289,-0.112521 -0.21923,-0.03492 -0.44128,-0.0291 -0.6617,-0.04537 -0.15669,-0.55559 -0.35442,-1.070291 -0.59215,-1.603645 -0.31368,0.0064 -0.62498,0.05537 -0.93568,0.10491 -0.15147,0.56126 -0.24892,1.152964 -0.30026,1.721985 -0.21683,0.04656 -0.42367,0.125355 -0.63125,0.202806 -0.21101,0.0676 -0.4074,0.170274 -0.60677,0.265782 -0.39592,-0.415013 -0.81794,-0.792719 -1.27325,-1.144757 -0.27399,0.1555 -0.53037,0.336219 -0.77824,0.529773 0.12893,0.569021 0.31607,1.133266 0.53634,1.662591 -0.16908,0.143412 -0.31653,0.308313 -0.46397,0.473364 -0.15564,0.157887 -0.281,0.340397 -0.41456,0.517088 -0.54321,-0.184898 -1.08999,-0.322938 -1.65782,-0.425012 -0.17132,0.26414 -0.31309,0.544397 -0.44471,0.830624 0.37651,0.444263 0.80675,0.859277 1.24624,1.224745 -0.0839,0.205194 -0.137,0.420386 -0.19057,0.634832 -0.0636,0.212208 -0.0921,0.432623 -0.12476,0.651248 -0.56484,0.09029 -1.12222,0.222057 -1.66602,0.39636 -0.021,0.313088 -0.0303,0.626027 -0.005,0.939115 0.54858,0.217431 1.09939,0.386511 1.67125,0.505448 0.0327,0.218476 0.0612,0.438294 0.12476,0.651099 0.0536,0.214446 0.1067,0.429638 0.19057,0.634832 -0.44531,0.336368 -0.89763,0.721088 -1.29295,1.126252 0.13759,0.282645 0.26295,0.572453 0.43486,0.835848 0.5923,-0.06581 1.15252,-0.16908 1.71438,-0.331593 0.13356,0.175944 0.25892,0.359648 0.41456,0.516938 0.14744,0.165051 0.29489,0.329952 0.46397,0.473364 -0.23892,0.505448 -0.45934,1.054024 -0.6232,1.596631 0.25191,0.18833 0.49784,0.384272 0.77183,0.539323 0.49321,-0.331145 0.94389,-0.684377 1.36652,-1.088944 0.19937,0.09611 0.39576,0.19818 0.60677,0.266379 0.20758,0.0776 0.41442,0.156245 0.63125,0.203403 0.024,0.557381 0.084,1.147294 0.19296,1.703928 0.3107,0.04372 0.62036,0.111327 0.93389,0.116103 0.2816,-0.530519 0.5153,-1.042384 0.70124,-1.597377 0.22042,-0.01627 0.44247,-0.01045 0.6617,-0.04537 0.21683,-0.0391 0.43948,-0.05537 0.65289,-0.113118 0.281,0.485004 0.60215,0.960158 0.96239,1.421732 0.29623,-0.103716 0.59573,-0.204 0.88316,-0.330996 0.004,-0.599912 -0.0337,-1.176395 -0.12118,-1.74064 0.18773,-0.117296 0.38173,-0.225042 0.56305,-0.350993 0.1749,-0.135204 0.36084,-0.257127 0.5253,-0.404568 0.47381,0.297867 0.97926,0.569021 1.51216,0.810329 0.21325,-0.229071 0.43248,-0.455903 0.62603,-0.701837 -0.27518,-0.534101 -0.57365,-1.024924 -0.91464,-1.486498 0.11192,-0.190718 0.23728,-0.374273 0.33696,-0.571259 0.0921,-0.201165 0.20221,-0.394122 0.27743,-0.6023 0.55842,0.04432 1.13207,0.04954 1.71616,0.01462 0.0834,-0.302493 0.16908,-0.606777 0.22907,-0.914642 -0.49142,-0.343979 -0.99209,-0.640652 -1.50097,-0.888377 l 0.0331,-0.662738" />
    <path
       id="path59"
       style="fill:none;fill-opacity:1;fill-rule:nonzero;stroke:#0000ff;stroke-width:0.149232"
       d="m 115.47934,18.952926 c -0.57827,0 -1.04761,0.467991 -1.04761,1.046861 0,0.578273 0.46934,1.047607 1.04761,1.047607 0.57708,0 1.04746,-0.469334 1.04746,-1.047607 0,-0.57887 -0.47038,-1.046861 -1.04746,-1.046861" />
    <g
       transform="matrix(0.1492318,0,0,-0.1492318,108.47589,11.322797)"
       id="g61"
       style="fill:none;stroke:#0000ff">
      <path
         id="path63"
         style="fill:none;stroke:#0000ff;stroke-width:0.663717;stroke-linecap:butt;stroke-linejoin:miter;stroke-miterlimit:10;stroke-dasharray:none;stroke-opacity:1"
         d="m 46.93,-51.133 c -3.875,0 -7.02,-3.133 -7.02,-7.012 0,-3.875 3.145,-7.015 7.02,-7.015 3.867,0 7.019,3.14 7.019,7.015 0,3.879 -3.152,7.012 -7.019,7.012 z" />
    </g>
    <path
       id="path65"
       style="fill:none;fill-opacity:1;fill-rule:nonzero;stroke:#0000ff;stroke-width:0.149232"
       d="m 118.73677,18.952926 c -0.57768,0 -1.04761,0.467991 -1.04761,1.046861 0,0.578273 0.46993,1.047607 1.04761,1.047607 0.57827,0 1.04641,-0.469334 1.04641,-1.047607 0,-0.57887 -0.46814,-1.046861 -1.04641,-1.046861" />
    <g
       transform="matrix(0.1492318,0,0,-0.1492318,108.47589,11.322797)"
       id="g67"
       style="fill:none;stroke:#0000ff">
      <path
         id="path69"
         style="fill:none;stroke:#0000ff;stroke-width:0.663717;stroke-linecap:butt;stroke-linejoin:miter;stroke-miterlimit:10;stroke-dasharray:none;stroke-opacity:1"
         d="m 68.758,-51.133 c -3.871,0 -7.02,-3.133 -7.02,-7.012 0,-3.875 3.149,-7.015 7.02,-7.015 3.875,0 7.012,3.14 7.012,7.015 0,3.879 -3.137,7.012 -7.012,7.012 z" />
    </g>
    <path
       id="path71"
       style="fill:none;fill-opacity:1;fill-rule:nonzero;stroke:#0000ff;stroke-width:0.149232"
       d="m 118.73677,21.047394 c -0.57768,0 -1.04761,-0.469334 -1.04761,-1.047607 0,-0.57887 0.46993,-1.046861 1.04761,-1.046861 0.57827,0 1.04641,0.467991 1.04641,1.046861 0,0.578273 -0.46814,1.047607 -1.04641,1.047607 z m -3.25743,0 c -0.57827,0 -1.04761,-0.469334 -1.04761,-1.047607 0,-0.57887 0.46934,-1.046861 1.04761,-1.046861 0.57708,0 1.04746,0.467991 1.04746,1.046861 0,0.578273 -0.47038,1.047607 -1.04746,1.047607" />
    <g
       aria-label="IN"
       transform="matrix(0.26458333,0,0,0.26458333,16.447137,59.902539)"
       id="text2930"
       style="font-size:40px;line-height:1.25;white-space:pre;shape-inside:url(#rect2932);fill:none;stroke:#0000ff">
      <path
         d="m 1144.9109,-136.53273 h -13 v -3.44 l 3.48,-1.6 v -18.48 l -3.48,-1.6 v -3.44 h 13 v 3.44 l -3.48,1.6 v 18.48 l 3.48,1.6 z"
         style="font-weight:bold;-inkscape-font-specification:'sans-serif Bold';fill:none;stroke:#0000ff"
         id="path3044" />
      <path
         d="m 1175.1109,-136.53273 h -7.68 l -12.44,-21.6 h -0.16 q 0.08,2.04 0.16,4.08 0.12,2.04 0.2,4.08 v 13.44 h -5.4 v -28.56 h 7.64 l 12.4,21.4 h 0.12 q -0.04,-2 -0.12,-3.96 -0.08,-1.96 -0.16,-3.92 v -13.52 h 5.44 z"
         style="font-weight:bold;-inkscape-font-specification:'sans-serif Bold';fill:none;stroke:#0000ff"
         id="path3046" />
    </g>
    <g
       aria-label="OUT"
       transform="matrix(0.26458333,0,0,0.26458333,88.512412,59.907831)"
       id="text2930-6"
       style="font-size:40px;line-height:1.25;white-space:pre;shape-inside:url(#rect2932-3);display:inline;fill:none;stroke:#0000ff">
      <path
         d="m 1160.1509,-150.85273 q 0,4.44 -1.48,7.76 -1.44,3.28 -4.44,5.12 -3,1.84 -7.68,1.84 -4.64,0 -7.68,-1.84 -3,-1.84 -4.48,-5.16 -1.44,-3.32 -1.44,-7.76 0,-4.44 1.44,-7.72 1.48,-3.28 4.48,-5.08 3.04,-1.84 7.72,-1.84 4.64,0 7.64,1.84 3,1.8 4.44,5.12 1.48,3.28 1.48,7.72 z m -20.84,0 q 0,4.48 1.72,7.08 1.72,2.56 5.52,2.56 3.88,0 5.56,-2.56 1.68,-2.6 1.68,-7.08 0,-4.52 -1.68,-7.08 -1.68,-2.56 -5.52,-2.56 -3.84,0 -5.56,2.56 -1.72,2.56 -1.72,7.08 z"
         style="font-weight:bold;-inkscape-font-specification:'sans-serif Bold';fill:none;stroke:#0000ff"
         id="path3037" />
      <path
         d="m 1189.3108,-146.61273 q 0,2.96 -1.32,5.36 -1.28,2.36 -3.92,3.76 -2.6,1.36 -6.6,1.36 -5.68,0 -8.64,-2.88 -2.96,-2.92 -2.96,-7.68 v -18.4 h 6.04 v 17.48 q 0,3.52 1.44,4.96 1.44,1.44 4.28,1.44 2.96,0 4.28,-1.56 1.36,-1.56 1.36,-4.88 v -17.44 h 6.04 z"
         style="font-weight:bold;-inkscape-font-specification:'sans-serif Bold';fill:none;stroke:#0000ff"
         id="path3039" />
      <path
         d="m 1207.3109,-136.53273 h -6.04 v -23.52 h -7.76 v -5.04 h 21.56 v 5.04 h -7.76 z"
         style="font-weight:bold;-inkscape-font-specification:'sans-serif Bold';fill:none;stroke:#0000ff"
         id="path3041" />
    </g>
    <g
       aria-label="B-A-001"
       transform="matrix(0.26458333,0,0,0.26458333,-177.14483,-7.4499886)"
       id="text5289"
       style="font-size:21.3333px;line-height:1.25;white-space:pre;shape-inside:url(#rect5291);display:inline">
      <path
         d="m 846.97826,64.989211 q 3.05066,0 4.60799,0.853332 1.55733,0.853332 1.55733,3.007995 0,1.301331 -0.61867,2.19733 -0.59733,0.895999 -1.72799,1.087998 v 0.106667 q 0.76799,0.149333 1.38666,0.533332 0.61867,0.384 0.98133,1.109332 0.36267,0.725332 0.36267,1.919997 0,2.06933 -1.49333,3.242661 -1.49333,1.173332 -4.096,1.173332 h -5.69599 V 64.989211 Z m 0.36266,6.037324 q 1.408,0 1.94133,-0.448 0.55467,-0.447999 0.55467,-1.301331 0,-0.874665 -0.64,-1.258665 -0.64,-0.383999 -2.02667,-0.383999 h -1.70666 v 3.391995 z m -1.87733,2.559996 v 3.967993 h 2.112 q 1.45066,0 2.02666,-0.554665 0.576,-0.576 0.576,-1.514665 0,-0.853332 -0.59733,-1.365331 -0.576,-0.533332 -2.112,-0.533332 z"
         style="font-weight:bold;-inkscape-font-specification:'sans-serif Bold'"
         id="path5367" />
      <path
         d="m 855.29826,75.805194 v -2.602663 h 5.58933 v 2.602663 z"
         style="font-weight:bold;-inkscape-font-specification:'sans-serif Bold'"
         id="path5369" />
      <path
         d="m 872.77024,80.221187 -1.10933,-3.626661 h -5.54666 l -1.10933,3.626661 h -3.47732 l 5.37599,-15.295976 h 3.94666 l 5.39732,15.295976 z m -2.98666,-9.877318 q -0.10666,-0.362666 -0.27733,-0.917332 -0.17067,-0.554666 -0.34133,-1.130665 -0.17067,-0.575999 -0.27734,-1.002665 -0.10666,0.426666 -0.29866,1.066665 -0.17067,0.618666 -0.34134,1.194665 -0.14933,0.554666 -0.23466,0.789332 l -1.088,3.541328 h 3.96799 z"
         style="font-weight:bold;-inkscape-font-specification:'sans-serif Bold'"
         id="path5371" />
      <path
         d="m 876.88758,75.805194 v -2.602663 h 5.58932 v 2.602663 z"
         style="font-weight:bold;-inkscape-font-specification:'sans-serif Bold'"
         id="path5373" />
      <path
         d="m 894.53023,72.605199 q 0,2.453329 -0.53333,4.20266 -0.512,1.74933 -1.68533,2.687996 -1.152,0.938665 -3.11466,0.938665 -2.752,0 -4.032,-2.06933 -1.27999,-2.090664 -1.27999,-5.759991 0,-2.474663 0.51199,-4.223994 0.512,-1.74933 1.68534,-2.687995 1.17333,-0.938665 3.11466,-0.938665 2.73066,0 4.03199,2.06933 1.30133,2.06933 1.30133,5.781324 z m -7.44532,0 q 0,2.602662 0.448,3.925327 0.448,1.301331 1.664,1.301331 1.19466,0 1.66399,-1.301331 0.46934,-1.301331 0.46934,-3.925327 0,-2.602663 -0.46934,-3.925327 -0.46933,-1.322665 -1.66399,-1.322665 -1.216,0 -1.664,1.322665 -0.448,1.322664 -0.448,3.925327 z"
         style="font-weight:bold;-inkscape-font-specification:'sans-serif Bold'"
         id="path5375" />
      <path
         d="m 906.73289,72.605199 q 0,2.453329 -0.53333,4.20266 -0.512,1.74933 -1.68534,2.687996 -1.15199,0.938665 -3.11466,0.938665 -2.75199,0 -4.03199,-2.06933 -1.28,-2.090664 -1.28,-5.759991 0,-2.474663 0.512,-4.223994 0.512,-1.74933 1.68533,-2.687995 1.17333,-0.938665 3.11466,-0.938665 2.73067,0 4.032,2.06933 1.30133,2.06933 1.30133,5.781324 z m -7.44532,0 q 0,2.602662 0.448,3.925327 0.44799,1.301331 1.66399,1.301331 1.19467,0 1.664,-1.301331 0.46933,-1.301331 0.46933,-3.925327 0,-2.602663 -0.46933,-3.925327 -0.46933,-1.322665 -1.664,-1.322665 -1.216,0 -1.66399,1.322665 -0.448,1.322664 -0.448,3.925327 z"
         style="font-weight:bold;-inkscape-font-specification:'sans-serif Bold'"
         id="path5377" />
      <path
         d="m 916.33288,80.221187 h -3.22132 v -8.810653 q 0,-0.554666 0.0213,-1.450664 0.0427,-0.895999 0.064,-1.578665 -0.10667,0.128 -0.46933,0.469333 -0.34134,0.32 -0.64,0.575999 l -1.74933,1.407998 -1.55733,-1.94133 4.90666,-3.903994 h 2.64532 z"
         style="font-weight:bold;-inkscape-font-specification:'sans-serif Bold'"
         id="path5379" />
    </g>
  </g>
</svg>
