<?xml version="1.0" encoding="UTF-8" standalone="no"?>
<!-- Created with Inkscape (http://www.inkscape.org/) -->

<svg
   width="426.5mm"
   height="40mm"
   viewBox="0 0 426.5 40"
   version="1.1"
   id="svg2045"
   xml:space="preserve"
   sodipodi:docname="backplate.svg"
   inkscape:version="1.2.2 (b0a8486541, 2022-12-01)"
   xmlns:inkscape="http://www.inkscape.org/namespaces/inkscape"
   xmlns:sodipodi="http://sodipodi.sourceforge.net/DTD/sodipodi-0.dtd"
   xmlns="http://www.w3.org/2000/svg"
   xmlns:svg="http://www.w3.org/2000/svg"><sodipodi:namedview
     id="namedview14"
     pagecolor="#ffffff"
     bordercolor="#666666"
     borderopacity="1.0"
     inkscape:showpageshadow="2"
     inkscape:pageopacity="0.0"
     inkscape:pagecheckerboard="0"
     inkscape:deskcolor="#d1d1d1"
     inkscape:document-units="mm"
     showgrid="false"
     inkscape:zoom="2.355349"
     inkscape:cx="1077.1227"
     inkscape:cy="0.63684829"
     inkscape:window-width="2160"
     inkscape:window-height="1278"
     inkscape:window-x="0"
     inkscape:window-y="0"
     inkscape:window-maximized="1"
     inkscape:current-layer="g67225" /><defs
     id="defs2042"><rect
       x="964.48739"
       y="81.854975"
       width="143.45537"
       height="50.57109"
       id="rect67056" /><rect
       x="1270.7603"
       y="20.009828"
       width="39.58287"
       height="50.257624"
       id="rect62484" /><rect
       x="138.94414"
       y="37.056454"
       width="105.78265"
       height="54.975067"
       id="rect52808" /><rect
       x="138.94414"
       y="37.056454"
       width="105.78265"
       height="54.975067"
       id="rect52808-2" /><rect
       x="138.94414"
       y="37.056454"
       width="105.78265"
       height="54.975067"
       id="rect52808-7" /><rect
       x="1270.7603"
       y="20.009829"
       width="39.58287"
       height="50.257626"
       id="rect62484-4" /><rect
       x="1270.7603"
       y="20.009829"
       width="39.58287"
       height="50.257626"
       id="rect62484-0" /><rect
       x="1270.7603"
       y="20.009829"
       width="39.58287"
       height="50.257626"
       id="rect62484-6" /></defs><rect
     style="opacity:0.9;fill:none;stroke:#ff0000;stroke-width:0.264583;stroke-dasharray:none;stop-color:#000000"
     id="outline"
     width="426.05276"
     height="39.552757"
     x="0.223621"
     y="0.22362593"
     rx="0.99882841" /><rect
     style="fill:none;stroke:#ff0000;stroke-width:0.264583;stroke-dasharray:none;stop-color:#000000"
     id="rect2988-5"
     width="16.685022"
     height="12.685022"
     x="333.29147"
     y="18.591597" /><rect
     style="fill:none;stroke:#ff0000;stroke-width:0.264583;stroke-dasharray:none;stop-color:#000000"
     id="rect2988-5-3"
     width="16.685022"
     height="12.685022"
     x="353.29126"
     y="18.59149" /><rect
     style="fill:none;stroke:#ff0000;stroke-width:0.264583;stroke-dasharray:none;stop-color:#000000"
     id="rect2988-5-3-1"
     width="16.685022"
     height="12.685022"
     x="373.29126"
     y="18.59149" /><rect
     style="fill:none;stroke:#ff0000;stroke-width:0.264583;stroke-dasharray:none;stop-color:#000000"
     id="rect2988-5-3-2"
     width="16.685022"
     height="12.685022"
     x="393.59125"
     y="18.59149" /><path
     id="rect3358-0-9-8"
     style="fill:none;stroke:#ff0000;stroke-width:0.264583;stroke-dasharray:none;stop-color:#000000"
     d="m 64.267381,23.866761 h 15.966488 v 4.912008 c -1.933439,2.054481 0,0 -1.933439,2.054481 H 65.777416 l -1.510035,-2.144252 z" /><path
     id="rect3358-0-9-3-7"
     style="fill:none;stroke:#ff0000;stroke-width:0.264583;stroke-dasharray:none;stop-color:#000000"
     d="m 38.967068,23.866885 h 15.966488 v 4.912008 c -1.933439,2.054481 0,0 -1.933439,2.054481 H 40.477102 l -1.510034,-2.144252 z" /><path
     id="path11218"
     style="fill:none;stroke:#ff0000;stroke-width:0.264583;stroke-dasharray:none;stop-color:#000000"
     d="m 304.06478,17.26939 a 6.4309406,6.4307184 0 0 0 -6.00015,4.121195 v 4.61884 a 6.4309406,6.4307184 0 0 0 6.00015,4.121195 6.4309406,6.4307184 0 0 0 6.00015,-4.121195 v -4.622974 a 6.4309406,6.4307184 0 0 0 -6.00015,-4.117061 z" /><g
     inkscape:label="Hershey Text"
     style="fill:none;stroke:#0000ff;stroke-linecap:round;stroke-linejoin:round"
     transform="matrix(0.264583 0 0 0.264583 -3.44257 -1.64694)"
     id="g61322"><g
       transform="translate(166.034, 52.8278)"
       id="g61310"
       style="stroke:#0000ff"><path
         d="M 220 662 L 220 0 M 662 662 L 662 0 M 220 346 L 662 346"
         style="stroke-width:0.1136in;stroke:#0000ff"
         transform="scale(0.0173333, -0.0173333)"
         id="path61302" /><path
         d="M 220 662 L 220 0 M 220 662 L 441 662 L 536 630 L 598 567 L 630 504 L 662 410 L 662 252 L 630 158 L 598 94.5 L 536 31.5 L 441 0 L 220 0"
         style="stroke-width:0.1136in;stroke:#0000ff"
         transform="matrix(0.0173333 0 0 -0.0173333 12.012 0)"
         id="path61304" /><path
         d="M 220 662 L 220 0 M 220 662 L 472 0 M 724 662 L 472 0 M 724 662 L 724 0"
         style="stroke-width:0.1136in;stroke:#0000ff"
         transform="matrix(0.0173333 0 0 -0.0173333 23.4866 0)"
         id="path61306" /><path
         d="M 220 662 L 220 0"
         style="stroke-width:0.1136in;stroke:#0000ff"
         transform="matrix(0.0173333 0 0 -0.0173333 36.5906 0)"
         id="path61308" /></g><g
       transform="translate(166.702, 74.4944)"
       id="g61320"
       style="stroke:#0000ff"><path
         d="M 378 662 L 315 630 L 252 567 L 220 504 L 189 410 L 189 252 L 220 158 L 252 94.5 L 315 31.5 L 378 0 L 504 0 L 567 31.5 L 630 94.5 L 662 158 L 693 252 L 693 410 L 662 504 L 630 567 L 567 630 L 504 662 L 378 662"
         style="stroke-width:0.1136in;stroke:#0000ff"
         transform="scale(0.0173333, -0.0173333)"
         id="path61312" /><path
         d="M 220 662 L 220 189 L 252 94.5 L 315 31.5 L 410 0 L 472 0 L 567 31.5 L 630 94.5 L 662 189 L 662 662"
         style="stroke-width:0.1136in;stroke:#0000ff"
         transform="matrix(0.0173333 0 0 -0.0173333 12.012 0)"
         id="path61314" /><path
         d="M 346 662 L 346 0 M 126 662 L 567 662"
         style="stroke-width:0.1136in;stroke:#0000ff"
         transform="matrix(0.0173333 0 0 -0.0173333 24.024 0)"
         id="path61316" /><path
         d="M 284 536 L 346 567 L 441 662 L 441 0"
         style="stroke-width:0.1136in;stroke:#0000ff"
         transform="matrix(0.0173333 0 0 -0.0173333 39.3119 0)"
         id="path61318" /></g></g><g
     id="g67313"
     transform="translate(13.229169)"><g
       id="g60015"
       transform="translate(-234.25089,0.51073654)"><path
         id="path9694-0-2"
         style="opacity:0.9;fill:none;stroke:#ff0000;stroke-width:0.0848865;stop-color:#000000"
         d="m 351.41858,34.645839 a 1.4575567,1.4575567 0 0 1 1.45756,-1.457557 1.4575567,1.4575567 0 0 1 1.45756,1.457557 1.4575567,1.4575567 0 0 1 -1.45756,1.457557 1.4575567,1.4575567 0 0 1 -1.45756,-1.457557 z" /><path
         id="path9696-6-3"
         style="opacity:0.9;fill:none;stroke:#ff0000;stroke-width:0.0848865;stop-color:#000000"
         d="m 332.41858,10.645838 a 1.4575567,1.4575567 0 0 1 1.45756,-1.4575575 1.4575567,1.4575567 0 0 1 1.45756,1.4575575 1.4575567,1.4575567 0 0 1 -1.45756,1.457557 1.4575567,1.4575567 0 0 1 -1.45756,-1.457557 z" /><path
         id="path9702-5-5"
         style="opacity:0.9;fill:none;stroke:#ff0000;stroke-width:0.246178;stroke-dasharray:none;stop-color:#000000"
         d="m 331.49923,22.645839 a 11.876908,11.876908 0 0 1 11.87692,-11.876909 11.876908,11.876908 0 0 1 11.87691,11.876909 11.876908,11.876908 0 0 1 -11.87691,11.87691 11.876908,11.876908 0 0 1 -11.87692,-11.87691 z" /></g><g
       inkscape:label="Hershey Text"
       style="fill:none;stroke:#0000ff;stroke-linecap:round;stroke-linejoin:round"
       transform="matrix(0.264583,0,0,0.264583,58.2657,-8.01981)"
       id="g61342"><g
         transform="translate(140.901,52.8278)"
         id="g61340"
         style="stroke:#0000ff"><path
           d="M 220,662 V 0 M 662,662 V 0 M 220,346 h 442"
           style="stroke:#0000ff;stroke-width:0.1136in"
           transform="scale(0.0173333,-0.0173333)"
           id="path61324" /><path
           d="M 220,662 V 0 m 0,662 h 221 l 95,-32 62,-63 32,-63 32,-94 V 252 L 630,158 598,94.5 536,31.5 441,0 H 220"
           style="stroke:#0000ff;stroke-width:0.1136in"
           transform="matrix(0.0173333,0,0,-0.0173333,12.012,0)"
           id="path61326" /><path
           d="M 220,662 V 0 M 220,662 472,0 M 724,662 472,0 M 724,662 V 0"
           style="stroke:#0000ff;stroke-width:0.1136in"
           transform="matrix(0.0173333,0,0,-0.0173333,23.4866,0)"
           id="path61328" /><path
           d="M 220,662 V 0"
           style="stroke:#0000ff;stroke-width:0.1136in"
           transform="matrix(0.0173333,0,0,-0.0173333,36.5906,0)"
           id="path61330" /><path
           d="M 378,662 315,630 252,567 220,504 189,410 V 252 l 31,-94 32,-63.5 63,-63 L 378,0 h 126 l 63,31.5 63,63 32,63.5 31,94 v 158 l -31,94 -32,63 -63,63 -63,32 H 378"
           style="stroke:#0000ff;stroke-width:0.1136in"
           transform="matrix(0.0173333,0,0,-0.0173333,47.5106,0)"
           id="path61332" /><path
           d="M 220,662 V 189 L 252,94.5 315,31.5 410,0 h 62 l 95,31.5 63,63 32,94.5 v 473"
           style="stroke:#0000ff;stroke-width:0.1136in"
           transform="matrix(0.0173333,0,0,-0.0173333,59.5226,0)"
           id="path61334" /><path
           d="M 346,662 V 0 M 126,662 h 441"
           style="stroke:#0000ff;stroke-width:0.1136in"
           transform="matrix(0.0173333,0,0,-0.0173333,71.5345,0)"
           id="path61336" /><path
           d="m 220,504 v 32 l 32,62 32,32 62,32 h 126 l 64,-32 31,-32 31,-62 V 472 L 567,410 504,315 189,0 h 441"
           style="stroke:#0000ff;stroke-width:0.1136in"
           transform="matrix(0.0173333,0,0,-0.0173333,86.8225,0)"
           id="path61338" /></g></g></g><g
     inkscape:label="Hershey Text"
     style="fill:none;stroke:#0000ff;stroke-linecap:round;stroke-linejoin:round"
     transform="matrix(0.264583 0 0 0.264583 22.0378 -1.64694)"
     id="g61360"><g
       transform="translate(166.034, 52.8278)"
       id="g61352"
       style="stroke:#0000ff"><path
         d="M 220 662 L 220 0 M 662 662 L 662 0 M 220 346 L 662 346"
         style="stroke-width:0.1136in;stroke:#0000ff"
         transform="scale(0.0173333, -0.0173333)"
         id="path61344" /><path
         d="M 220 662 L 220 0 M 220 662 L 441 662 L 536 630 L 598 567 L 630 504 L 662 410 L 662 252 L 630 158 L 598 94.5 L 536 31.5 L 441 0 L 220 0"
         style="stroke-width:0.1136in;stroke:#0000ff"
         transform="matrix(0.0173333 0 0 -0.0173333 12.012 0)"
         id="path61346" /><path
         d="M 220 662 L 220 0 M 220 662 L 472 0 M 724 662 L 472 0 M 724 662 L 724 0"
         style="stroke-width:0.1136in;stroke:#0000ff"
         transform="matrix(0.0173333 0 0 -0.0173333 23.4866 0)"
         id="path61348" /><path
         d="M 220 662 L 220 0"
         style="stroke-width:0.1136in;stroke:#0000ff"
         transform="matrix(0.0173333 0 0 -0.0173333 36.5906 0)"
         id="path61350" /></g><g
       transform="translate(182.31, 74.4944)"
       id="g61358"
       style="stroke:#0000ff"><path
         d="M 220 662 L 220 0"
         style="stroke-width:0.1136in;stroke:#0000ff"
         transform="scale(0.0173333, -0.0173333)"
         id="path61354" /><path
         d="M 220 662 L 220 0 M 220 662 L 662 0 M 662 662 L 662 0"
         style="stroke-width:0.1136in;stroke:#0000ff"
         transform="matrix(0.0173333 0 0 -0.0173333 4.36799 0)"
         id="path61356" /></g></g><text
     xml:space="preserve"
     style="font-size:4.5861px;line-height:1.25;font-family:sans-serif;stroke-width:0.264583"
     x="397.11627"
     y="11.384702"
     id="text62560"><tspan
       sodipodi:role="line"
       id="tspan62558"
       style="stroke-width:0.264583"
       x="397.11627"
       y="11.384702" /></text><g
     inkscape:label="Hershey Text"
     style="fill:none;stroke:#0000ff;stroke-linecap:round;stroke-linejoin:round"
     transform="matrix(0.264583 0 0 0.264583 2.98644 0.620133)"
     id="g62717"><g
       transform="translate(1270.76, 49.1258)"
       id="g62715"
       style="stroke:#0000ff"><path
         d="M 504 662 L 189 220 L 662 220 M 504 662 L 504 0"
         style="stroke-width:0.06152in;stroke:#0000ff"
         transform="scale(0.032, -0.032)"
         id="path62713" /></g></g><g
     inkscape:label="Hershey Text"
     style="fill:none;stroke:#0000ff;stroke-linecap:round;stroke-linejoin:round"
     transform="matrix(0.264583 0 0 0.264583 23.0413 0.6032)"
     id="g62723"><g
       transform="translate(1270.76, 49.1258)"
       id="g62721"
       style="stroke:#0000ff"><path
         d="M 252 662 L 598 662 L 410 410 L 504 410 L 567 378 L 598 346 L 630 252 L 630 189 L 598 94.5 L 536 31.5 L 441 0 L 346 0 L 252 31.5 L 220 63 L 189 126"
         style="stroke-width:0.06152in;stroke:#0000ff"
         transform="scale(0.032, -0.032)"
         id="path62719" /></g></g><g
     inkscape:label="Hershey Text"
     style="fill:none;stroke:#0000ff;stroke-linecap:round;stroke-linejoin:round"
     transform="matrix(0.264583 0 0 0.264583 43.0074 0.6032)"
     id="g62729"><g
       transform="translate(1270.76, 49.1258)"
       id="g62727"
       style="stroke:#0000ff"><path
         d="M 220 504 L 220 536 L 252 598 L 284 630 L 346 662 L 472 662 L 536 630 L 567 598 L 598 536 L 598 472 L 567 410 L 504 315 L 189 0 L 630 0"
         style="stroke-width:0.06152in;stroke:#0000ff"
         transform="scale(0.032, -0.032)"
         id="path62725" /></g></g><g
     inkscape:label="Hershey Text"
     style="fill:none;stroke:#0000ff;stroke-linecap:round;stroke-linejoin:round"
     transform="matrix(0.264583 0 0 0.264583 63.8323 0.518533)"
     id="g62735"><g
       transform="translate(1270.76, 49.1258)"
       id="g62733"
       style="stroke:#0000ff"><path
         d="M 284 536 L 346 567 L 441 662 L 441 0"
         style="stroke-width:0.06152in;stroke:#0000ff"
         transform="scale(0.032, -0.032)"
         id="path62731" /></g></g><g
     id="g63253"
     transform="matrix(0.21318483,0,0,0.21318483,283.69475,-3.3431709)"
     style="fill:none;stroke:#0000ff"><path
       inkscape:connector-curvature="0"
       id="path898"
       d="m 143.59841,60.167626 a 11.584516,11.584516 0 0 0 -11.51629,10.44116 h -28.12897 a 6.3003506,6.3003506 0 0 0 -6.192499,-5.15719 6.3003506,6.3003506 0 0 0 -6.300427,6.30043 6.3003506,6.3003506 0 0 0 6.300427,6.30043 6.3003506,6.3003506 0 0 0 6.191189,-5.15718 h 28.11902 a 11.584516,11.584516 0 0 0 11.52755,10.44141 11.584516,11.584516 0 0 0 11.5844,-11.5844 11.584516,11.584516 0 0 0 -11.5844,-11.58466 z m 0,2.30326 a 9.2811614,9.2811614 0 0 1 9.28114,9.2814 9.2811614,9.2811614 0 0 1 -9.28114,9.28115 9.2811614,9.2811614 0 0 1 -9.28114,-9.28115 9.2811614,9.2811614 0 0 1 9.28114,-9.2814 z"
       style="opacity:1;vector-effect:none;fill:none;fill-opacity:1;stroke:#0000ff;stroke-width:0.70478;stroke-linecap:butt;stroke-linejoin:miter;stroke-miterlimit:4;stroke-dasharray:none;stroke-dashoffset:0;stroke-opacity:1" /><path
       inkscape:connector-curvature="0"
       id="path900"
       d="m 47.503946,60.167626 a 11.584516,11.584516 0 0 0 -11.584663,11.58466 11.584516,11.584516 0 0 0 11.584663,11.5844 11.584516,11.584516 0 0 0 11.516288,-10.44141 h 27.212864 c 0.587615,5.92603 5.572461,10.4412 11.527553,10.44141 2.237115,-0.004 4.425269,-0.65527 6.300169,-1.87572 v -2.90474 c -1.71327,1.58949 -3.96313,2.47413 -6.300169,2.47721 -5.125828,-10e-6 -9.281135,-4.15532 -9.281144,-9.28115 -1.33e-4,-5.12593 4.155216,-9.28139 9.281144,-9.2814 2.337639,0.004 4.587579,0.89055 6.300169,2.48166 v -2.91889 c -1.87595,-1.21703 -4.064032,-1.86511 -6.300169,-1.86603 -5.950685,0.006 -10.928974,4.51952 -11.516289,10.44116 H 59.031237 A 11.584516,11.584516 0 0 0 47.503946,60.167626 Z m 0,2.30326 a 9.2811614,9.2811614 0 0 1 9.281143,9.2814 9.2811614,9.2811614 0 0 1 -9.281143,9.28115 9.2811614,9.2811614 0 0 1 -9.281143,-9.28115 9.2811614,9.2811614 0 0 1 9.281143,-9.2814 z"
       style="opacity:1;vector-effect:none;fill:none;fill-opacity:1;stroke:#0000ff;stroke-width:0.70478;stroke-linecap:butt;stroke-linejoin:miter;stroke-miterlimit:4;stroke-dasharray:none;stroke-dashoffset:0;stroke-opacity:1" /><g
       transform="matrix(-0.50694673,0,0,-0.50694673,148.72308,147.03363)"
       id="g904"
       style="font-style:normal;font-variant:normal;font-weight:bold;font-stretch:normal;font-size:42.3333px;line-height:1.25;font-family:'DejaVu Sans Mono';-inkscape-font-specification:'DejaVu Sans Mono, Bold';font-variant-ligatures:normal;font-variant-caps:normal;font-variant-numeric:normal;font-feature-settings:normal;text-align:start;letter-spacing:0px;word-spacing:0px;writing-mode:lr-tb;text-anchor:start;fill:none;fill-opacity:1;stroke:#0000ff;stroke-width:0.974319"
       aria-label="+"><path
         inkscape:connector-curvature="0"
         id="path902"
         style="font-style:normal;font-variant:normal;font-weight:bold;font-stretch:normal;font-size:42.3333px;font-family:'DejaVu Sans Mono';-inkscape-font-specification:'DejaVu Sans Mono, Bold';font-variant-ligatures:normal;font-variant-caps:normal;font-variant-numeric:normal;font-feature-settings:normal;text-align:start;writing-mode:lr-tb;text-anchor:start;fill:none;stroke:#0000ff;stroke-width:0.974319"
         d="m 12.139819,137.13119 v 8.88834 h 8.888346 v 4.9196 h -8.888346 v 8.92969 H 7.2408938 v -8.92969 h -8.9296873 v -4.9196 h 8.9296873 v -8.88834 z" /></g><g
       transform="matrix(-0.50694673,0,0,-0.50694673,149.76251,147.03363)"
       id="g908"
       style="font-style:normal;font-variant:normal;font-weight:bold;font-stretch:normal;font-size:42.3333px;line-height:1.25;font-family:'DejaVu Sans Mono';-inkscape-font-specification:'DejaVu Sans Mono, Bold';font-variant-ligatures:normal;font-variant-caps:normal;font-variant-numeric:normal;font-feature-settings:normal;text-align:start;letter-spacing:0px;word-spacing:0px;writing-mode:lr-tb;text-anchor:start;fill:none;fill-opacity:1;stroke:#0000ff;stroke-width:0.974319"
       aria-label="—"><path
         inkscape:connector-curvature="0"
         id="path906"
         style="font-style:normal;font-variant:normal;font-weight:bold;font-stretch:normal;font-size:42.3333px;font-family:'DejaVu Sans Mono';-inkscape-font-specification:'DejaVu Sans Mono, Bold';font-variant-ligatures:normal;font-variant-caps:normal;font-variant-numeric:normal;font-feature-settings:normal;text-align:start;writing-mode:lr-tb;text-anchor:start;fill:none;stroke:#0000ff;stroke-width:0.974319"
         d="m 188.04466,145.95752 h 25.48682 v 5.08496 h -25.48682 z" /></g></g><g
     inkscape:label="Hershey Text"
     style="fill:none;stroke:#0000ff;stroke-linecap:round;stroke-linejoin:round"
     transform="matrix(0.264583,0,0,0.264583,36.887296,-17.922939)"
     id="g67227"><g
       transform="translate(964.488,97.6266)"
       id="g67225"
       style="stroke:#0000ff"><g
         id="g69219"
         transform="translate(12.826668)"><path
           d="m 284,536 62,31 95,95 V 0"
           style="stroke:#0000ff;stroke-width:0.1136in"
           transform="scale(0.0173333,-0.0173333)"
           id="path67211" /><path
           d="m 220,504 v 32 l 32,62 32,32 62,32 h 126 l 64,-32 31,-32 31,-62 V 472 L 567,410 504,315 189,0 h 441"
           style="stroke:#0000ff;stroke-width:0.1136in"
           transform="matrix(0.0173333,0,0,-0.0173333,10.92,0)"
           id="path67213" /><path
           d="M 126,662 378,0 M 630,662 378,0"
           style="stroke:#0000ff;stroke-width:0.1136in"
           transform="matrix(0.0173333,0,0,-0.0173333,21.84,0)"
           id="path67215" /><path
           d="M 567,662 H 252 l -32,-284 32,32 94,31 h 95 l 95,-31 62,-64 32,-94 V 189 L 598,94.5 536,31.5 441,0 H 346 L 252,31.5 220,63 189,126"
           style="stroke:#0000ff;stroke-width:0.1136in"
           transform="matrix(0.0173333,0,0,-0.0173333,38.2199,0)"
           id="path67217" /><path
           d="M 378,662 126,0 M 378,662 630,0 M 220,220 h 316"
           style="stroke:#0000ff;stroke-width:0.1136in"
           transform="matrix(0.0173333,0,0,-0.0173333,49.1399,0)"
           id="path67219" /></g></g></g></svg>
