<?xml version="1.0" encoding="UTF-8" standalone="no"?>
<!-- Created with Inkscape (http://www.inkscape.org/) -->

<svg
   width="426.5mm"
   height="40mm"
   viewBox="0 0 426.5 40"
   version="1.1"
   id="svg2045"
   xml:space="preserve"
   sodipodi:docname="backplate.svg"
   inkscape:version="1.2.2 (b0a8486541, 2022-12-01)"
   xmlns:inkscape="http://www.inkscape.org/namespaces/inkscape"
   xmlns:sodipodi="http://sodipodi.sourceforge.net/DTD/sodipodi-0.dtd"
   xmlns="http://www.w3.org/2000/svg"
   xmlns:svg="http://www.w3.org/2000/svg"><sodipodi:namedview
     id="namedview14"
     pagecolor="#ffffff"
     bordercolor="#666666"
     borderopacity="1.0"
     inkscape:showpageshadow="2"
     inkscape:pageopacity="0.0"
     inkscape:pagecheckerboard="0"
     inkscape:deskcolor="#d1d1d1"
     inkscape:document-units="mm"
     showgrid="false"
     inkscape:zoom="1.4767539"
     inkscape:cx="306.41531"
     inkscape:cy="75.842021"
     inkscape:window-width="1920"
     inkscape:window-height="1011"
     inkscape:window-x="0"
     inkscape:window-y="0"
     inkscape:window-maximized="1"
     inkscape:current-layer="g67313" /><defs
     id="defs2042"><rect
       x="148.26914"
       y="40.00804"
       width="66.832605"
       height="31.366304"
       id="rect418" /><rect
       x="964.48739"
       y="81.854975"
       width="143.45537"
       height="50.57109"
       id="rect67056" /><rect
       x="1270.7603"
       y="20.009828"
       width="39.58287"
       height="50.257624"
       id="rect62484" /><rect
       x="138.94414"
       y="37.056454"
       width="105.78265"
       height="54.975067"
       id="rect52808" /><rect
       x="138.94414"
       y="37.056454"
       width="105.78265"
       height="54.975067"
       id="rect52808-2" /><rect
       x="138.94414"
       y="37.056454"
       width="105.78265"
       height="54.975067"
       id="rect52808-7" /><rect
       x="1270.7603"
       y="20.009829"
       width="39.58287"
       height="50.257626"
       id="rect62484-4" /><rect
       x="1270.7603"
       y="20.009829"
       width="39.58287"
       height="50.257626"
       id="rect62484-0" /><rect
       x="1270.7603"
       y="20.009829"
       width="39.58287"
       height="50.257626"
       id="rect62484-6" /></defs><path
     id="outline"
     style="opacity:0.9;fill:none;stroke:#ff0000;stroke-width:0.264583;stop-color:#000000"
     d="M 1.2224494,0.22362593 H 425.27756 c 0.55335,0 0.99883,0.44547747 0.99883,0.99882837 V 38.777555 c 0,0.553351 -0.44548,0.998828 -0.99883,0.998828 H 1.2224494 c -0.55335093,0 -0.9988284,-0.445477 -0.9988284,-0.998828 V 1.2224543 c 0,-0.5533509 0.44547747,-0.99882837 0.9988284,-0.99882837 z" /><path
     id="rect2988-5"
     style="fill:none;stroke:#ff0000;stroke-width:0.264583;stop-color:#000000"
     d="M 333.29147,18.591597 H 349.9765 V 31.276619 H 333.29147 Z" /><path
     id="rect2988-5-3"
     style="fill:none;stroke:#ff0000;stroke-width:0.264583;stop-color:#000000"
     d="m 353.29126,18.59149 h 16.68502 v 12.685022 h -16.68502 z" /><path
     id="rect2988-5-3-1"
     style="fill:none;stroke:#ff0000;stroke-width:0.264583;stop-color:#000000"
     d="m 373.29126,18.59149 h 16.68502 v 12.685022 h -16.68502 z" /><path
     id="rect2988-5-3-2"
     style="fill:none;stroke:#ff0000;stroke-width:0.264583;stop-color:#000000"
     d="m 393.59125,18.59149 h 16.68502 v 12.685022 h -16.68502 z" /><path
     id="rect3358-0-9-8"
     style="fill:none;stroke:#ff0000;stroke-width:0.264583;stroke-dasharray:none;stop-color:#000000"
     d="m 64.267381,23.866761 h 15.966488 v 4.912008 c -1.933439,2.054481 0,0 -1.933439,2.054481 H 65.777416 l -1.510035,-2.144252 z" /><path
     id="rect3358-0-9-3-7"
     style="fill:none;stroke:#ff0000;stroke-width:0.264583;stroke-dasharray:none;stop-color:#000000"
     d="m 38.967068,23.866885 h 15.966488 v 4.912008 c -1.933439,2.054481 0,0 -1.933439,2.054481 H 40.477102 l -1.510034,-2.144252 z" /><path
     id="path11218"
     style="fill:none;stroke:#ff0000;stroke-width:0.264583;stroke-dasharray:none;stop-color:#000000"
     d="m 304.06478,17.26939 a 6.4309406,6.4307184 0 0 0 -6.00015,4.121195 v 4.61884 a 6.4309406,6.4307184 0 0 0 6.00015,4.121195 6.4309406,6.4307184 0 0 0 6.00015,-4.121195 v -4.622974 a 6.4309406,6.4307184 0 0 0 -6.00015,-4.117061 z" /><g
     id="g67313"
     transform="translate(13.2292, 0)"
     style="fill:none;stroke:#ff0000"><g
       id="g60015"
       transform="translate(-234.251,-4.2517632)"
       style="fill:none;stroke:#ff0000"><path
         id="path9694-0-2"
         style="opacity:0.9;fill:none;stroke:#ff0000;stroke-width:0.0848865;stop-color:#000000"
         d="m 351.41858,34.645839 a 1.4575567,1.4575567 0 0 1 1.45756,-1.457557 1.4575567,1.4575567 0 0 1 1.45756,1.457557 1.4575567,1.4575567 0 0 1 -1.45756,1.457557 1.4575567,1.4575567 0 0 1 -1.45756,-1.457557 z" /><path
         id="path9696-6-3"
         style="opacity:0.9;fill:none;stroke:#ff0000;stroke-width:0.0848865;stop-color:#000000"
         d="m 332.41858,10.645838 a 1.4575567,1.4575567 0 0 1 1.45756,-1.4575575 1.4575567,1.4575567 0 0 1 1.45756,1.4575575 1.4575567,1.4575567 0 0 1 -1.45756,1.457557 1.4575567,1.4575567 0 0 1 -1.45756,-1.457557 z" /><path
         id="path9702-5-5"
         style="opacity:0.9;fill:none;stroke:#ff0000;stroke-width:0.246178;stroke-dasharray:none;stop-color:#000000"
         d="m 331.49923,22.645839 a 11.876908,11.876908 0 0 1 11.87692,-11.876909 11.876908,11.876908 0 0 1 11.87691,11.876909 11.876908,11.876908 0 0 1 -11.87691,11.87691 11.876908,11.876908 0 0 1 -11.87692,-11.87691 z" /></g><g
       inkscape:label="Hershey Text"
       style="fill:none;stroke:#0000ff;stroke-linecap:round;stroke-linejoin:round"
       id="g600"
       transform="translate(-1.3317085,32.808348)"><g
         transform="translate(99.1048,4.81367)"
         id="g598"
         style="fill:none;stroke:#0000ff"><path
           d="M 220,662 V 0 m 0,315 95,95 63,31 h 94 l 64,-31 31,-95 V 0"
           style="fill:none;stroke:#0000ff;stroke-width:0.1055in"
           transform="scale(0.0049389,-0.0049389)"
           id="path584" /><path
           d="M 567,662 V 0 m 0,346 -63,64 -63,31 H 346 L 284,410 220,346 189,252 V 189 L 220,94.5 284,31.5 346,0 h 95 l 63,31.5 63,63"
           style="fill:none;stroke:#0000ff;stroke-width:0.1055in"
           transform="matrix(0.0049389,0,0,-0.0049389,2.95346,0)"
           id="path586" /><path
           d="M 220,441 V 0 m 0,315 95,95 63,31 h 94 l 64,-31 31,-95 V 0 m 0,315 95,95 62,31 h 95 l 63,-31 32,-95 V 0"
           style="fill:none;stroke:#0000ff;stroke-width:0.1055in"
           transform="matrix(0.0049389,0,0,-0.0049389,5.90692,0)"
           id="path588" /><path
           d="m 189,662 31,-32 32,32 -32,31 -31,-31 M 220,441 V 0"
           style="fill:none;stroke:#0000ff;stroke-width:0.1055in"
           transform="matrix(0.0049389,0,0,-0.0049389,10.5742,0)"
           id="path590" /><path
           d="M 346,441 284,410 220,346 189,252 V 189 L 220,94.5 284,31.5 346,0 h 95 l 63,31.5 63,63 31,94.5 v 63 l -31,94 -63,64 -63,31 h -95"
           style="fill:none;stroke:#0000ff;stroke-width:0.1055in"
           transform="matrix(0.0049389,0,0,-0.0049389,13.6857,0)"
           id="path592" /><path
           d="M 220,441 V 126 L 252,31.5 315,0 h 95 l 62,31.5 95,94.5 m 0,315 V 0"
           style="fill:none;stroke:#0000ff;stroke-width:0.1055in"
           transform="matrix(0.0049389,0,0,-0.0049389,16.6392,0)"
           id="path594" /><path
           d="M 252,662 V 126 L 284,31.5 346,0 h 64 M 158,441 h 220"
           style="fill:none;stroke:#0000ff;stroke-width:0.1055in"
           transform="matrix(0.0049389,0,0,-0.0049389,19.5926,0)"
           id="path596" /></g></g></g><g
     id="text62560"
     style="font-size:4.5861px;line-height:1.25;stroke-width:0.264583" /><path
     inkscape:connector-curvature="0"
     id="path898"
     d="m 314.30775,9.4836542 c -1.2686,0.00128 -2.32989,0.9634928 -2.4551,2.2258968 h -5.99667 c -0.11749,-0.63679 -0.6726,-1.099095 -1.32014,-1.099435 -0.74181,-1.1e-5 -1.34317,0.601347 -1.34316,1.343157 -10e-6,0.74181 0.60135,1.343167 1.34316,1.343156 0.64744,-4.7e-4 1.2024,-0.462744 1.31987,-1.099433 h 5.99454 c 0.12527,1.263339 1.18796,2.225904 2.4575,2.22595 1.36393,-1.3e-5 2.46961,-1.105691 2.46962,-2.469618 2e-5,-1.363949 -1.10567,-2.469661 -2.46962,-2.4696738 z"
     style="vector-effect:none;fill:none;fill-opacity:1;stroke:#0000ff;stroke-width:0.150248;stroke-linecap:butt;stroke-linejoin:miter;stroke-miterlimit:4;stroke-dasharray:none;stroke-dashoffset:0;stroke-opacity:1"
     sodipodi:nodetypes="ccccscccssc" /><path
     inkscape:connector-curvature="0"
     id="path900"
     d="m 293.82187,9.4836542 c -1.36397,-1.49e-5 -2.46969,1.1057048 -2.46967,2.4696738 1e-5,1.363947 1.10572,2.469633 2.46967,2.469618 1.26862,-0.0013 2.32992,-0.963524 2.4551,-2.22595 h 5.80137 c 0.12527,1.26334 1.18796,2.225906 2.4575,2.22595 0.47692,-8.52e-4 0.9434,-0.139693 1.3431,-0.399875 v -0.619246 c -0.36524,0.338855 -0.84488,0.527447 -1.3431,0.528103 -1.09275,-2e-6 -1.9786,-0.885851 -1.9786,-1.9786 -3e-5,-1.092771 0.88583,-1.9786516 1.9786,-1.9786537 0.49835,8.528e-4 0.978,0.1898517 1.3431,0.5290527 V 9.8814635 c -0.39993,-0.2594523 -0.86639,-0.3976131 -1.3431,-0.3978093 -1.2686,0.00128 -2.32989,0.9634928 -2.4551,2.2258968 h -5.80143 c -0.1253,-1.263295 -1.18795,-2.2258222 -2.45744,-2.2258968 z"
     style="vector-effect:none;fill:none;fill-opacity:1;stroke:#0000ff;stroke-width:0.150248;stroke-linecap:butt;stroke-linejoin:miter;stroke-miterlimit:4;stroke-dasharray:none;stroke-dashoffset:0;stroke-opacity:1"
     sodipodi:nodetypes="cscccccccsccccccc" /><g
     transform="matrix(-0.108073 0 0 -0.108073 315.4 28.0022)"
     id="g904"
     style="font-style:normal;font-variant:normal;font-weight:bold;font-stretch:normal;font-size:42.3333px;line-height:1.25;font-family:'DejaVu Sans Mono';-inkscape-font-specification:'DejaVu Sans Mono, Bold';font-variant-ligatures:normal;font-variant-caps:normal;font-variant-numeric:normal;font-feature-settings:normal;text-align:start;letter-spacing:0px;word-spacing:0px;writing-mode:lr-tb;text-anchor:start;fill:none;fill-opacity:1;stroke:#0000ff;stroke-width:0.974319"
     aria-label="+"><path
       inkscape:connector-curvature="0"
       id="path902"
       style="font-style:normal;font-variant:normal;font-weight:bold;font-stretch:normal;font-size:42.3333px;font-family:'DejaVu Sans Mono';-inkscape-font-specification:'DejaVu Sans Mono, Bold';font-variant-ligatures:normal;font-variant-caps:normal;font-variant-numeric:normal;font-feature-settings:normal;text-align:start;writing-mode:lr-tb;text-anchor:start;fill:none;stroke:#0000ff;stroke-width:0.974319"
       d="m 12.139819,137.13119 v 8.88834 h 8.888346 v 4.9196 h -8.888346 v 8.92969 H 7.2408938 v -8.92969 h -8.9296873 v -4.9196 h 8.9296873 v -8.88834 z" /></g><g
     transform="matrix(-0.108073 0 0 -0.108073 315.622 28.0022)"
     id="g908"
     style="font-style:normal;font-variant:normal;font-weight:bold;font-stretch:normal;font-size:42.3333px;line-height:1.25;font-family:'DejaVu Sans Mono';-inkscape-font-specification:'DejaVu Sans Mono, Bold';font-variant-ligatures:normal;font-variant-caps:normal;font-variant-numeric:normal;font-feature-settings:normal;text-align:start;letter-spacing:0px;word-spacing:0px;writing-mode:lr-tb;text-anchor:start;fill:none;fill-opacity:1;stroke:#0000ff;stroke-width:0.974319"
     aria-label="—"><path
       inkscape:connector-curvature="0"
       id="path906"
       style="font-style:normal;font-variant:normal;font-weight:bold;font-stretch:normal;font-size:42.3333px;font-family:'DejaVu Sans Mono';-inkscape-font-specification:'DejaVu Sans Mono, Bold';font-variant-ligatures:normal;font-variant-caps:normal;font-variant-numeric:normal;font-feature-settings:normal;text-align:start;writing-mode:lr-tb;text-anchor:start;fill:none;stroke:#0000ff;stroke-width:0.974319"
       d="m 188.04466,145.95752 h 25.48682 v 5.08496 h -25.48682 z" /></g><g
     inkscape:label="Hershey Text"
     style="fill:none;stroke:#0000ff;stroke-linecap:round;stroke-linejoin:round"
     transform="matrix(0.264583 0 0 0.264583 36.8873 -17.9229)"
     id="g67227"><g
       transform="translate(964.488,97.6266)"
       id="g67225"
       style="stroke:#0000ff"><g
         id="g69219"
         transform="translate(12.826668)"><path
           d="m 284,536 62,31 95,95 V 0"
           style="stroke:#0000ff;stroke-width:0.1136in"
           transform="scale(0.0173333,-0.0173333)"
           id="path67211" /><path
           d="m 220,504 v 32 l 32,62 32,32 62,32 h 126 l 64,-32 31,-32 31,-62 V 472 L 567,410 504,315 189,0 h 441"
           style="stroke:#0000ff;stroke-width:0.1136in"
           transform="matrix(0.0173333,0,0,-0.0173333,10.92,0)"
           id="path67213" /><path
           d="M 126,662 378,0 M 630,662 378,0"
           style="stroke:#0000ff;stroke-width:0.1136in"
           transform="matrix(0.0173333,0,0,-0.0173333,21.84,0)"
           id="path67215" /><path
           d="M 567,662 H 252 l -32,-284 32,32 94,31 h 95 l 95,-31 62,-64 32,-94 V 189 L 598,94.5 536,31.5 441,0 H 346 L 252,31.5 220,63 189,126"
           style="stroke:#0000ff;stroke-width:0.1136in"
           transform="matrix(0.0173333,0,0,-0.0173333,38.2199,0)"
           id="path67217" /><path
           d="M 378,662 126,0 M 378,662 630,0 M 220,220 h 316"
           style="stroke:#0000ff;stroke-width:0.1136in"
           transform="matrix(0.0173333,0,0,-0.0173333,49.1399,0)"
           id="path67219" /></g></g></g><g
     inkscape:label="Hershey Text"
     style="fill:none;stroke:#0000ff;stroke-linecap:round;stroke-linejoin:round"
     id="g657"
     transform="translate(1.5963321,2.0893101)"><g
       transform="translate(38.9013,9.00936)"
       id="g645"
       style="stroke:#0000ff"><path
         d="M 220,662 V 0 m 0,315 95,95 63,31 h 94 l 64,-31 31,-95 V 0"
         style="stroke-width:0.1055in;stroke:#0000ff"
         transform="scale(0.0049389,-0.0049389)"
         id="path637" /><path
         d="M 567,662 V 0 m 0,346 -63,64 -63,31 H 346 L 284,410 220,346 189,252 V 189 L 220,94.5 284,31.5 346,0 h 95 l 63,31.5 63,63"
         style="stroke-width:0.1055in;stroke:#0000ff"
         transform="matrix(0.0049389,0,0,-0.0049389,2.95346,0)"
         id="path639" /><path
         d="M 220,441 V 0 m 0,315 95,95 63,31 h 94 l 64,-31 31,-95 V 0 m 0,315 95,95 62,31 h 95 l 63,-31 32,-95 V 0"
         style="stroke-width:0.1055in;stroke:#0000ff"
         transform="matrix(0.0049389,0,0,-0.0049389,5.90692,0)"
         id="path641" /><path
         d="m 189,662 31,-32 32,32 -32,31 -31,-31 M 220,441 V 0"
         style="stroke-width:0.1055in;stroke:#0000ff"
         transform="matrix(0.0049389,0,0,-0.0049389,10.5742,0)"
         id="path643" /></g><g
       transform="translate(39.758205,15.183)"
       id="g655"
       style="stroke:#0000ff"><path
         d="M 220,662 V 0"
         style="stroke-width:0.1055in;stroke:#0000ff"
         transform="scale(0.0049389,-0.0049389)"
         id="path647" /><path
         d="M 346,441 284,410 220,346 189,252 V 189 L 220,94.5 284,31.5 346,0 h 95 l 63,31.5 63,63 31,94.5 v 63 l -31,94 -63,64 -63,31 h -95"
         style="stroke-width:0.1055in;stroke:#0000ff"
         transform="matrix(0.0049389,0,0,-0.0049389,1.2446,0)"
         id="path649" /><path
         d="M 346,441 284,410 220,346 189,252 V 189 L 220,94.5 284,31.5 346,0 h 95 l 63,31.5 63,63 31,94.5 v 63 l -31,94 -63,64 -63,31 h -95"
         style="stroke-width:0.1055in;stroke:#0000ff"
         transform="matrix(0.0049389,0,0,-0.0049389,4.19806,0)"
         id="path651" /><path
         d="m 220,441 v -661 m 0,566 64,64 62,31 h 95 l 63,-31 63,-64 31,-94 V 189 L 567,94.5 504,31.5 441,0 h -95 l -62,31.5 -64,63"
         style="stroke-width:0.1055in;stroke:#0000ff"
         transform="matrix(0.0049389,0,0,-0.0049389,7.15153,0)"
         id="path653" /></g></g><g
     inkscape:label="Hershey Text"
     style="fill:none;stroke:#0000ff;stroke-linecap:round;stroke-linejoin:round"
     id="g663"
     transform="translate(0.98548144,3.7433202)"><g
       transform="translate(338.547,9.44888)"
       id="g661"
       style="stroke:#0000ff"><path
         d="M 504,662 189,220 H 662 M 504,662 V 0"
         style="stroke-width:0.1055in;stroke:#0000ff"
         transform="scale(0.0049389,-0.0049389)"
         id="path659" /></g></g><g
     inkscape:label="Hershey Text"
     style="fill:none;stroke:#0000ff;stroke-linecap:round;stroke-linejoin:round"
     id="g669"
     transform="translate(1.5262914,3.4724701)"><g
       transform="translate(358.085,9.71973)"
       id="g667"
       style="stroke:#0000ff"><path
         d="M 252,662 H 598 L 410,410 h 94 l 63,-32 31,-32 32,-94 V 189 L 598,94.5 536,31.5 441,0 H 346 L 252,31.5 220,63 189,126"
         style="stroke-width:0.1055in;stroke:#0000ff"
         transform="scale(0.0049389,-0.0049389)"
         id="path665" /></g></g><g
     inkscape:label="Hershey Text"
     style="fill:none;stroke:#0000ff;stroke-linecap:round;stroke-linejoin:round"
     id="g675"
     transform="translate(-0.82571037,3.0470001)"><g
       transform="translate(380.437,10.1452)"
       id="g673"
       style="stroke:#0000ff"><path
         d="m 220,504 v 32 l 32,62 32,32 62,32 h 126 l 64,-32 31,-32 31,-62 V 472 L 567,410 504,315 189,0 h 441"
         style="stroke-width:0.1055in;stroke:#0000ff"
         transform="scale(0.0049389,-0.0049389)"
         id="path671" /></g></g><g
     inkscape:label="Hershey Text"
     style="fill:none;stroke:#0000ff;stroke-linecap:round;stroke-linejoin:round"
     id="g681"
     transform="translate(1.6004075,3.1750001)"><g
       transform="translate(398.543,10.0172)"
       id="g679"
       style="stroke:#0000ff"><path
         d="m 284,536 62,31 95,95 V 0"
         style="stroke-width:0.1055in;stroke:#0000ff"
         transform="scale(0.0049389,-0.0049389)"
         id="path677" /></g></g><g
     inkscape:label="Hershey Text"
     style="fill:none;stroke:#000000;stroke-linecap:round;stroke-linejoin:round"
     id="g893" /><g
     inkscape:label="Hershey Text"
     style="fill:none;stroke:#0000ff;stroke-linecap:round;stroke-linejoin:round"
     id="g1085"
     transform="translate(3.0503981,1.5875)"><g
       transform="translate(62.8241,9.51117)"
       id="g1077"
       style="stroke:#0000ff"><path
         d="M 220,662 V 0 m 0,315 95,95 63,31 h 94 l 64,-31 31,-95 V 0"
         style="stroke-width:0.1055in;stroke:#0000ff"
         transform="scale(0.0049389,-0.0049389)"
         id="path1069" /><path
         d="M 567,662 V 0 m 0,346 -63,64 -63,31 H 346 L 284,410 220,346 189,252 V 189 L 220,94.5 284,31.5 346,0 h 95 l 63,31.5 63,63"
         style="stroke-width:0.1055in;stroke:#0000ff"
         transform="matrix(0.0049389,0,0,-0.0049389,2.95346,0)"
         id="path1071" /><path
         d="M 220,441 V 0 m 0,315 95,95 63,31 h 94 l 64,-31 31,-95 V 0 m 0,315 95,95 62,31 h 95 l 63,-31 32,-95 V 0"
         style="stroke-width:0.1055in;stroke:#0000ff"
         transform="matrix(0.0049389,0,0,-0.0049389,5.90692,0)"
         id="path1073" /><path
         d="m 189,662 31,-32 32,32 -32,31 -31,-31 M 220,441 V 0"
         style="stroke-width:0.1055in;stroke:#0000ff"
         transform="matrix(0.0049389,0,0,-0.0049389,10.5742,0)"
         id="path1075" /></g><g
       transform="translate(66.787576,15.6848)"
       id="g1083"
       style="stroke:#0000ff"><path
         d="m 189,662 31,-32 32,32 -32,31 -31,-31 M 220,441 V 0"
         style="stroke-width:0.1055in;stroke:#0000ff"
         transform="scale(0.0049389,-0.0049389)"
         id="path1079" /><path
         d="M 220,441 V 0 m 0,315 95,95 63,31 h 94 l 64,-31 31,-95 V 0"
         style="stroke-width:0.1055in;stroke:#0000ff"
         transform="matrix(0.0049389,0,0,-0.0049389,1.2446,0)"
         id="path1081" /></g></g></svg>
