<?xml version="1.0" encoding="UTF-8" standalone="no"?>
<!-- Created with Inkscape (http://www.inkscape.org/) -->

<svg
   width="426.5mm"
   height="40mm"
   viewBox="0 0 426.5 40"
   version="1.1"
   id="svg2045"
   sodipodi:docname="frontplate2025.svg"
   xml:space="preserve"
   inkscape:version="1.2.2 (b0a8486541, 2022-12-01)"
   xmlns:inkscape="http://www.inkscape.org/namespaces/inkscape"
   xmlns:sodipodi="http://sodipodi.sourceforge.net/DTD/sodipodi-0.dtd"
   xmlns="http://www.w3.org/2000/svg"
   xmlns:svg="http://www.w3.org/2000/svg"><sodipodi:namedview
     id="namedview1"
     pagecolor="#ffffff"
     bordercolor="#666666"
     borderopacity="1.0"
     inkscape:showpageshadow="2"
     inkscape:pageopacity="0.0"
     inkscape:pagecheckerboard="0"
     inkscape:deskcolor="#d1d1d1"
     inkscape:document-units="mm"
     inkscape:zoom="2.8341157"
     inkscape:cx="1430.2521"
     inkscape:cy="62.100499"
     inkscape:window-width="1920"
     inkscape:window-height="1011"
     inkscape:window-x="0"
     inkscape:window-y="0"
     inkscape:window-maximized="1"
     inkscape:current-layer="layer1"
     showgrid="false" /><defs
     id="defs2042"><rect
       x="283.14456"
       y="-83.637752"
       width="91.591839"
       height="71.040915"
       id="rect47902" /><rect
       x="927.11811"
       y="11.059505"
       width="88.814705"
       height="33.855104"
       id="rect41441" /><rect
       x="117.72817"
       y="-71.926317"
       width="412.6228"
       height="112.64301"
       id="rect27093" /><rect
       x="927.1181"
       y="11.059505"
       width="88.814705"
       height="33.855103"
       id="rect41441-2" /><rect
       x="927.1181"
       y="11.059505"
       width="88.814705"
       height="33.855103"
       id="rect41441-8" /></defs><g
     id="layer1"
     transform="translate(-0.249994, 0)"><rect
       style="opacity:0.9;fill:none;stroke:#ff0000;stroke-width:0.447242;stop-color:#000000"
       id="outline"
       width="426.05276"
       height="39.552757"
       x="0.47361451"
       y="0.22362593"
       rx="0.99882841" /><rect
       style="opacity:0.9;fill:none;stroke:#ff0000;stroke-width:0.612357;stop-color:#000000"
       id="slot-ethernet-0"
       width="50.387642"
       height="14.387643"
       x="35.5532"
       y="16.389153" /><g
       id="logo"
       transform="matrix(0.59489112,0,0,0.59489112,28.096661,4.1851472)"><g
         id="g1289"
         transform="matrix(1.315312,0,0,1.315312,-62.52989,-6.4265017)"><path
           id="path41"
           style="fill:none;fill-opacity:1;fill-rule:nonzero;stroke:#0000ff;stroke-width:0.149232"
           d="m 132.71039,16.647295 0.0163,1.272649 v 1.02761 h 3.50815 c 0.0868,0.326519 0.13057,0.682735 0.13057,1.069096 0,0.385914 -0.0437,0.74213 -0.13057,1.068649 h -3.50815 v 4.4874 c -0.34621,0.06521 -0.77884,0.0979 -1.29757,0.0979 -0.51888,0 -0.95135,-0.03268 -1.29712,-0.0979 V 14.525965 l 0.11431,-0.09849 h 6.9836 c 0.0652,0.272348 0.0979,0.612149 0.0979,1.020148 0,0.408149 -0.11192,0.710045 -0.33518,0.905987 -0.22384,0.195792 -0.57603,0.293688 -1.05626,0.293688 h -3.22594" /><path
           id="path43"
           style="fill:none;fill-opacity:1;fill-rule:nonzero;stroke:#0000ff;stroke-width:0.149232"
           d="m 141.1296,22.537325 c 0.29384,0.84883 0.88673,1.273096 1.77854,1.273096 0.44606,0 0.80809,-0.111327 1.08552,-0.334578 0.27742,-0.222653 0.49485,-0.506045 0.65229,-0.848681 0.15803,-0.342188 0.26414,-0.725863 0.31831,-1.150129 0.0548,-0.424416 0.0816,-0.843011 0.0816,-1.256234 0,-0.38069 -0.0134,-0.805105 -0.0409,-1.273245 -0.0267,-0.467394 -0.1061,-0.90524 -0.23668,-1.31324 -0.13058,-0.408149 -0.33682,-0.750935 -0.61961,-1.028356 -0.28324,-0.276975 -0.69662,-0.415611 -1.24057,-0.415611 -0.52171,0 -0.9215,0.133413 -1.19907,0.399344 -0.27743,0.266976 -0.48381,0.595734 -0.62021,0.987467 -0.1358,0.391734 -0.22042,0.807344 -0.25295,1.248026 -0.0321,0.440681 -0.0483,0.830176 -0.0483,1.166992 0,0.500225 0.0239,0.94613 0.0734,1.337863 0.0483,0.391734 0.13819,0.794063 0.26862,1.207286 z m -1.32145,2.251908 c -1.16416,-0.967619 -1.74586,-2.561415 -1.74586,-4.780641 0,-0.957173 0.11133,-1.797796 0.33458,-2.521271 0.22265,-0.723327 0.54395,-1.329656 0.96239,-1.819285 0.4186,-0.48963 0.92748,-0.859277 1.5256,-1.10939 0.59872,-0.25056 1.27309,-0.375318 2.02328,-0.375318 0.75094,0 1.4283,0.124758 2.03164,0.375318 0.60395,0.250113 1.11506,0.622596 1.53426,1.117448 0.41859,0.495599 0.73914,1.104166 0.96239,1.827642 0.22266,0.723327 0.33458,1.558129 0.33458,2.504856 0,0.946129 -0.11192,1.78138 -0.33458,2.504259 -0.22325,0.724072 -0.5438,1.330252 -0.96239,1.819285 -0.4192,0.489778 -0.93031,0.859873 -1.53426,1.109986 -0.60334,0.250112 -1.2807,0.375467 -2.03164,0.375467 -1.23981,0 -2.27339,-0.342786 -3.09999,-1.028356" /><path
           id="path45"
           style="fill:none;fill-opacity:1;fill-rule:nonzero;stroke:#0000ff;stroke-width:0.149;stroke-dasharray:none"
           d="m 148.60298,24.609707 c 0.0325,-0.358604 0.14386,-0.717656 0.33458,-1.076708 0.18997,-0.359051 0.4162,-0.652889 0.67736,-0.881363 1.16356,0.707657 2.26817,1.060889 3.3122,1.060889 0.4571,0 0.79167,-0.103119 1.00388,-0.310104 0.21161,-0.206387 0.31772,-0.46232 0.31772,-0.7672 0,-0.511119 -0.34279,-0.913448 -1.02776,-1.207286 l -1.92539,-0.815999 c -0.75094,-0.336965 -1.32742,-0.74213 -1.7296,-1.215493 -0.40278,-0.473363 -0.60394,-1.07432 -0.60394,-1.803019 0,-0.500075 0.10028,-0.957172 0.3019,-1.370395 0.20116,-0.413372 0.48381,-0.772424 0.84883,-1.077305 0.36427,-0.304283 0.7963,-0.540965 1.29697,-0.709448 0.50022,-0.168482 1.05522,-0.252948 1.66438,-0.252948 1.21833,0 2.4477,0.310104 3.68752,0.929715 -0.0542,0.838235 -0.34801,1.490527 -0.88136,1.95807 -1.10924,-0.532757 -2.08805,-0.799733 -2.93674,-0.799733 -0.43545,0 -0.76197,0.09849 -0.97881,0.294285 -0.21802,0.195344 -0.32652,0.418595 -0.32652,0.668708 0,0.424415 0.3207,0.7672 0.96255,1.028356 l 1.95807,0.831818 c 0.82659,0.348606 1.44397,0.79451 1.85197,1.337863 0.408,0.544398 0.612,1.175201 0.612,1.893304 0,0.511268 -0.0927,0.978811 -0.27743,1.403077 -0.18475,0.424416 -0.45933,0.791078 -0.82361,1.101182 -0.36502,0.310103 -0.81913,0.552605 -1.36293,0.72646 -0.54395,0.173706 -1.18042,0.261156 -1.90912,0.261156 -1.41427,0 -2.76318,-0.402329 -4.04672,-1.207882" /><path
           id="path47"
           style="fill:none;fill-opacity:1;fill-rule:nonzero;stroke:#0000ff;stroke-width:0.149232"
           d="m 162.89715,23.630895 c 1.43576,0 2.15386,-1.207882 2.15386,-3.622303 0,-2.425614 -0.7181,-3.638719 -2.15386,-3.638719 h -0.92226 c -0.26638,0 -0.49783,-0.0052 -0.69363,-0.01627 v 7.293704 c 0.1958,-0.01119 0.42725,-0.01642 0.69363,-0.01642 z m 3.00209,1.223552 c -0.34801,0.283391 -0.8051,0.489779 -1.37054,0.620356 -0.56604,0.130578 -1.19147,0.195793 -1.87644,0.195793 -0.33757,0 -0.82421,-0.0058 -1.46083,-0.01627 -0.63603,-0.01104 -1.43278,-0.02746 -2.3901,-0.04895 L 158.68717,25.49107 V 14.509698 l 0.11416,-0.114311 c 0.6308,-0.02149 1.28608,-0.03776 1.96628,-0.04895 0.67975,-0.01104 1.39502,-0.01627 2.1458,-0.01627 0.92405,0 1.69692,0.146844 2.31668,0.440681 0.6202,0.293241 1.11506,0.696017 1.4853,1.207285 0.3695,0.511269 0.63065,1.112225 0.78287,1.803019 0.15207,0.690794 0.22847,1.433371 0.22847,2.227434 0,1.08775 -0.12535,2.028508 -0.37546,2.82257 -0.24997,0.79451 -0.73392,1.468441 -1.45203,2.023285" /><path
           id="path49"
           style="fill:none;fill-opacity:1;fill-rule:nonzero;stroke:#0000ff;stroke-width:0.149232"
           d="m 172.14892,22.276169 -0.0164,1.1752 v 0.01627 c 0.49843,-0.02149 0.90016,-0.03253 1.20325,-0.03253 h 3.77333 c 0,0.402777 -0.0163,0.712284 -0.049,0.930311 -0.13058,0.837638 -0.68497,1.256234 -1.66423,1.256234 h -4.34056 c -0.46754,0 -0.8348,-0.135801 -1.10118,-0.408 -0.26698,-0.271751 -0.39994,-0.641846 -0.39994,-1.109389 V 14.54238 l 0.11431,-0.114908 h 7.03255 c 0.0652,0.315923 0.0979,0.658709 0.0979,1.028356 0,0.370095 -0.0758,0.756008 -0.22787,1.158934 h -4.4386 l 0.0164,1.174604 v 1.141921 c 0.2816,-0.01045 0.64931,-0.01627 1.10402,-0.01627 h 2.48575 c 0.0979,0.304881 0.14685,0.652889 0.14685,1.044623 0,0.391733 -0.0489,0.750188 -0.14685,1.076558 h -3.58977 v 1.239967" /><path
           id="path51"
           style="fill:none;fill-opacity:1;fill-rule:nonzero;stroke:#0000ff;stroke-width:0.149232"
           d="m 178.57753,25.540018 0.86509,-11.095534 c 0.47859,-0.08685 1.04403,-0.130578 1.69692,-0.130578 0.65229,0 1.22355,0.04373 1.71318,0.130578 l 0.96255,3.997771 c 0.38054,1.805257 0.5817,2.789888 0.60394,2.953148 h 0.11416 c 0.0431,-0.271751 0.24489,-1.256233 0.60394,-2.953148 l 0.97881,-3.997771 c 0.47859,-0.08685 1.04462,-0.130578 1.69692,-0.130578 0.65289,0 1.22414,0.04373 1.71377,0.130578 l 0.8645,11.095534 c -0.33756,0.08685 -0.75317,0.130578 -1.24802,0.130578 -0.4956,0 -0.90062,-0.02731 -1.21609,-0.08163 l -0.26116,-4.536349 c -0.0763,-1.805406 -0.11938,-3.061639 -0.12998,-3.769296 h -0.0979 l -1.61589,6.641412 c -0.39113,0.06521 -0.84002,0.0979 -1.34607,0.0979 -0.50589,0 -0.95418,-0.03268 -1.34592,-0.0979 l -1.59902,-6.641412 h -0.11431 c 0,0.968216 -0.0437,2.224449 -0.13058,3.769296 l -0.24474,4.536349 c -0.31592,0.05432 -0.72049,0.08163 -1.21549,0.08163 -0.49545,0 -0.91166,-0.04372 -1.24862,-0.130578" /></g><g
         id="g1293"
         transform="matrix(2.5617501,0,0,2.5617501,26.597374,-30.39692)"><path
           id="path53"
           style="fill:none;fill-opacity:1;fill-rule:nonzero;stroke:#0000ff;stroke-width:0.149232"
           d="m 117.09582,24.268115 c -2.32832,0 -4.26833,-1.892856 -4.26833,-4.256091 0,-2.351595 1.94001,-4.279371 4.26833,-4.279371 2.36323,0 4.29161,1.927776 4.29161,4.279371 0,2.363235 -1.92838,4.256091 -4.29161,4.256091 z m 6.64947,-4.264746 -0.0331,-0.662291 c 0.5135,-0.219818 1.01955,-0.480377 1.51798,-0.781079 -0.0409,-0.311895 -0.14177,-0.612746 -0.21519,-0.918224 -0.58693,-0.07984 -1.18102,-0.106103 -1.74705,-0.09028 -0.0752,-0.207581 -0.18535,-0.400538 -0.27743,-0.60215 -0.0997,-0.197135 -0.22504,-0.380093 -0.33696,-0.571259 0.35845,-0.437847 0.67855,-0.900167 0.98045,-1.399645 -0.18012,-0.257724 -0.40979,-0.474558 -0.61677,-0.710045 -0.55544,0.202806 -1.09357,0.455903 -1.58723,0.732728 -0.16446,-0.148038 -0.3504,-0.269961 -0.5253,-0.405762 -0.18132,-0.125802 -0.37532,-0.2331 -0.56305,-0.34965 0.11356,-0.552754 0.18415,-1.112373 0.21967,-1.694676 -0.28041,-0.144606 -0.58529,-0.230862 -0.87838,-0.343979 -0.39815,0.437846 -0.75735,0.913 -1.06566,1.387408 -0.21341,-0.05716 -0.43606,-0.07402 -0.65289,-0.112521 -0.21923,-0.03492 -0.44128,-0.0291 -0.6617,-0.04537 -0.15669,-0.55559 -0.35442,-1.070291 -0.59215,-1.603645 -0.31368,0.0064 -0.62498,0.05537 -0.93568,0.10491 -0.15147,0.56126 -0.24892,1.152964 -0.30026,1.721985 -0.21683,0.04656 -0.42367,0.125355 -0.63125,0.202806 -0.21101,0.0676 -0.4074,0.170274 -0.60677,0.265782 -0.39592,-0.415013 -0.81794,-0.792719 -1.27325,-1.144757 -0.27399,0.1555 -0.53037,0.336219 -0.77824,0.529773 0.12893,0.569021 0.31607,1.133266 0.53634,1.662591 -0.16908,0.143412 -0.31653,0.308313 -0.46397,0.473364 -0.15564,0.157887 -0.281,0.340397 -0.41456,0.517088 -0.54321,-0.184898 -1.08999,-0.322938 -1.65782,-0.425012 -0.17132,0.26414 -0.31309,0.544397 -0.44471,0.830624 0.37651,0.444263 0.80675,0.859277 1.24624,1.224745 -0.0839,0.205194 -0.137,0.420386 -0.19057,0.634832 -0.0636,0.212208 -0.0921,0.432623 -0.12476,0.651248 -0.56484,0.09029 -1.12222,0.222057 -1.66602,0.39636 -0.021,0.313088 -0.0303,0.626027 -0.005,0.939115 0.54858,0.217431 1.09939,0.386511 1.67125,0.505448 0.0327,0.218476 0.0612,0.438294 0.12476,0.651099 0.0536,0.214446 0.1067,0.429638 0.19057,0.634832 -0.44531,0.336368 -0.89763,0.721088 -1.29295,1.126252 0.13759,0.282645 0.26295,0.572453 0.43486,0.835848 0.5923,-0.06581 1.15252,-0.16908 1.71438,-0.331593 0.13356,0.175944 0.25892,0.359648 0.41456,0.516938 0.14744,0.165051 0.29489,0.329952 0.46397,0.473364 -0.23892,0.505448 -0.45934,1.054024 -0.6232,1.596631 0.25191,0.18833 0.49784,0.384272 0.77183,0.539323 0.49321,-0.331145 0.94389,-0.684377 1.36652,-1.088944 0.19937,0.09611 0.39576,0.19818 0.60677,0.266379 0.20758,0.0776 0.41442,0.156245 0.63125,0.203403 0.024,0.557381 0.084,1.147294 0.19296,1.703928 0.3107,0.04372 0.62036,0.111327 0.93389,0.116103 0.2816,-0.530519 0.5153,-1.042384 0.70124,-1.597377 0.22042,-0.01627 0.44247,-0.01045 0.6617,-0.04537 0.21683,-0.0391 0.43948,-0.05537 0.65289,-0.113118 0.281,0.485004 0.60215,0.960158 0.96239,1.421732 0.29623,-0.103716 0.59573,-0.204 0.88316,-0.330996 0.004,-0.599912 -0.0337,-1.176395 -0.12118,-1.74064 0.18773,-0.117296 0.38173,-0.225042 0.56305,-0.350993 0.1749,-0.135204 0.36084,-0.257127 0.5253,-0.404568 0.47381,0.297867 0.97926,0.569021 1.51216,0.810329 0.21325,-0.229071 0.43248,-0.455903 0.62603,-0.701837 -0.27518,-0.534101 -0.57365,-1.024924 -0.91464,-1.486498 0.11192,-0.190718 0.23728,-0.374273 0.33696,-0.571259 0.0921,-0.201165 0.20221,-0.394122 0.27743,-0.6023 0.55842,0.04432 1.13207,0.04954 1.71616,0.01462 0.0834,-0.302493 0.16908,-0.606777 0.22907,-0.914642 -0.49142,-0.343979 -0.99209,-0.640652 -1.50097,-0.888377 l 0.0331,-0.662738" /><path
           id="path71"
           style="fill:none;fill-opacity:1;fill-rule:nonzero;stroke:#ffff00;stroke-width:0.149232;stroke-opacity:0"
           d="m 118.73677,21.047394 c -0.57768,0 -1.04761,-0.469334 -1.04761,-1.047607 0,-0.57887 0.46993,-1.046861 1.04761,-1.046861 0.57827,0 1.04641,0.467991 1.04641,1.046861 0,0.578273 -0.46814,1.047607 -1.04641,1.047607 z m -3.25743,0 c -0.57827,0 -1.04761,-0.469334 -1.04761,-1.047607 0,-0.57887 0.46934,-1.046861 1.04761,-1.046861 0.57708,0 1.04746,0.467991 1.04746,1.046861 0,0.578273 -0.47038,1.047607 -1.04746,1.047607" /></g></g><text
       xml:space="preserve"
       style="font-size:4.9389px;line-height:1.25;font-family:'DejaVu Sans';-inkscape-font-specification:'DejaVu Sans';fill:none;fill-opacity:1;stroke:#0000ff;stroke-width:0.149;stroke-dasharray:none;stroke-opacity:1"
       x="3.1908233"
       y="8.6735649"
       id="box-label"><tspan
         sodipodi:role="line"
         id="tspan3"
         style="font-style:normal;font-variant:normal;font-weight:bold;font-stretch:normal;font-family:'Fira Code';-inkscape-font-specification:'Fira Code';fill:none;fill-opacity:1;stroke:#0000ff;stroke-width:0.149;stroke-dasharray:none;stroke-opacity:1"
         x="3.1908233"
         y="8.6735649">B-X-999</tspan></text><path
       id="path9702-5-5-7"
       style="opacity:0.9;fill:none;stroke:#ff0000;stroke-width:0.225663;stroke-dasharray:none;stop-color:#000000"
       d="M 272.66276,19.999998 A 10.887163,10.887167 0 0 1 283.54994,9.1128315 10.887163,10.887167 0 0 1 294.4371,19.999998 10.887163,10.887167 0 0 1 283.54994,30.887167 10.887163,10.887167 0 0 1 272.66276,19.999998 Z" /><path
       id="path9702-5-5-7-0"
       style="opacity:0.9;fill:none;stroke:#ff0000;stroke-width:0.225663;stroke-dasharray:none;stop-color:#000000"
       d="M 299.66276,19.999998 A 10.887163,10.887167 0 0 1 310.54994,9.1128315 10.887163,10.887167 0 0 1 321.4371,19.999998 10.887163,10.887167 0 0 1 310.54994,30.887167 10.887163,10.887167 0 0 1 299.66276,19.999998 Z" /><path
       id="path9702-5-5-7-0-6"
       style="opacity:0.9;fill:none;stroke:#ff0000;stroke-width:0.225663;stroke-dasharray:none;stop-color:#000000"
       d="M 326.66376,19.999998 A 10.887163,10.887167 0 0 1 337.55094,9.1128315 10.887163,10.887167 0 0 1 348.4381,19.999998 10.887163,10.887167 0 0 1 337.55094,30.887167 10.887163,10.887167 0 0 1 326.66376,19.999998 Z" /><path
       id="path9702-5-5-7-0-6-2"
       style="opacity:0.9;fill:none;stroke:#ff0000;stroke-width:0.225663;stroke-dasharray:none;stop-color:#000000"
       d="M 353.66376,19.999998 A 10.887163,10.887167 0 0 1 364.55094,9.1128315 10.887163,10.887167 0 0 1 375.4381,19.999998 10.887163,10.887167 0 0 1 364.55094,30.887167 10.887163,10.887167 0 0 1 353.66376,19.999998 Z" /><path
       id="path9702-5-5-7-6"
       style="opacity:0.9;fill:none;stroke:#ff0000;stroke-width:0.225663;stroke-dasharray:none;stop-color:#000000"
       d="M 245.66283,19.999998 A 10.887163,10.887167 0 0 1 256.55001,9.1128315 10.887163,10.887167 0 0 1 267.43717,19.999998 10.887163,10.887167 0 0 1 256.55001,30.887167 10.887163,10.887167 0 0 1 245.66283,19.999998 Z" /><ellipse
       style="fill:none;stroke:#ff0000;stroke-width:0.229298;stop-color:#000000"
       id="path4363-2"
       cx="386.60089"
       cy="24.933344"
       rx="3.3853507"
       ry="3.3853509" /><path
       id="rect16799"
       style="fill:none;stroke:#ff0000;stroke-width:0.264583;stop-color:#000000"
       d="M 146.08229,4.1522915 V 28.152376 h 12.99972 v 0.623735 h 25.62376 v -0.623735 h 13.00024 V 4.1522915 h -13.00024 -25.62376 z" /><text
       xml:space="preserve"
       transform="matrix(0.26458333,0,0,0.26458333,0.24999352,0)"
       id="text27091"
       style="font-style:normal;font-weight:normal;font-size:40px;line-height:1.25;font-family:sans-serif;white-space:pre;shape-inside:url(#rect27093);display:inline;fill:#000000;fill-opacity:1;stroke:none" /><text
       xml:space="preserve"
       style="font-size:4.5861px;line-height:1.25;font-family:sans-serif;stroke-width:0.264583"
       x="76.127846"
       y="13.700956"
       id="text40696"><tspan
         sodipodi:role="line"
         id="tspan40694"
         style="stroke-width:0.264583"
         x="76.127846"
         y="13.700956" /></text><g
       id="g41538"
       transform="matrix(0.02914739,0,0,0.02914739,383.73085,8.5190681)"
       style="fill:none;stroke:#0000ff">
	<path
   style="fill:none;stroke:#0000ff"
   d="M 183.244,110.941 C 182.693,85.825 173.531,62.283 157.426,44.611 141.196,26.806 119.773,17 97.083,17 50.34,17 11.738,59.406 10.897,111.6 4.366,113.8 0,119.816 0,126.666 v 37.295 c 0,8.804 7.165,15.965 15.965,15.965 8.811,0 15.976,-7.161 15.976,-15.965 V 126.67 c 0,-8.804 -7.165,-15.965 -15.976,-15.965 -0.125,0 -0.24,0.011 -0.365,0.021 1.242,-49.148 37.7,-89.049 81.487,-89.049 43.873,0 80.352,40.015 81.487,89.278 -7.77,1.188 -13.575,7.87 -13.575,15.718 v 37.295 c 0,8.804 7.165,15.965 15.972,15.965 8.8,0 15.962,-7.161 15.962,-15.965 V 126.67 c -0.003,-7.902 -5.855,-14.591 -13.689,-15.729 z m -2.276,64.315 c -6.227,0 -11.291,-5.064 -11.291,-11.291 V 126.67 c 0,-6.224 5.064,-11.291 11.291,-11.291 6.224,0 11.288,5.068 11.288,11.291 v 37.295 c 0,6.227 -5.064,11.291 -11.288,11.291 z m -165.003,0 c -6.227,0 -11.291,-5.064 -11.291,-11.291 V 126.67 c 0,-6.224 5.068,-11.291 11.291,-11.291 6.231,0 11.298,5.068 11.298,11.291 v 37.295 c 10e-4,6.227 -5.067,11.291 -11.298,11.291 z"
   id="path41536" />
</g><g
       inkscape:label="Hershey Text"
       style="fill:none;stroke:#0000ff;stroke-linecap:round;stroke-linejoin:round"
       id="g42465"><g
         transform="translate(40.5703, 8.58677)"
         id="g42447"
         style="stroke:#0000ff"><path
           d="M 220 441 L 220 -220 M 220 346 L 284 410 L 346 441 L 441 441 L 504 410 L 567 346 L 598 252 L 598 189 L 567 94.5 L 504 31.5 L 441 0 L 346 0 L 284 31.5 L 220 94.5"
           style="stroke-width:0.123in;stroke:#0000ff"
           transform="scale(0.00423333, -0.00423333)"
           id="path42429" /><path
           d="M 189 441 L 315 0 M 441 441 L 315 0 M 441 441 L 567 0 M 693 441 L 567 0"
           style="stroke-width:0.123in;stroke:#0000ff"
           transform="matrix(0.00423333 0 0 -0.00423333 2.53153 0)"
           id="path42431" /><path
           d="M 220 441 L 220 0 M 220 252 L 252 346 L 315 410 L 378 441 L 472 441"
           style="stroke-width:0.123in;stroke:#0000ff"
           transform="matrix(0.00423333 0 0 -0.00423333 5.46523 0)"
           id="path42433" /><path
           d="M 346 441 L 284 410 L 220 346 L 189 252 L 189 189 L 220 94.5 L 284 31.5 L 346 0 L 441 0 L 504 31.5 L 567 94.5 L 598 189 L 598 252 L 567 346 L 504 410 L 441 441 L 346 441"
           style="stroke-width:0.123in;stroke:#0000ff"
           transform="matrix(0.00423333 0 0 -0.00423333 8.80109 0)"
           id="path42435" /><path
           d="M 220 441 L 220 0 M 220 315 L 315 410 L 378 441 L 472 441 L 536 410 L 567 315 L 567 0"
           style="stroke-width:0.123in;stroke:#0000ff"
           transform="matrix(0.00423333 0 0 -0.00423333 11.3326 0)"
           id="path42437" /><path
           d="M 220 662 L 220 0"
           style="stroke-width:0.123in;stroke:#0000ff"
           transform="matrix(0.00423333 0 0 -0.00423333 13.8642 0)"
           id="path42439" /><path
           d="M 158 441 L 346 0 M 536 441 L 346 0 L 284 -126 L 220 -189 L 158 -220 L 126 -220"
           style="stroke-width:0.123in;stroke:#0000ff"
           transform="matrix(0.00423333 0 0 -0.00423333 14.931 0)"
           id="path42441" /><path
           d="M 504 662 L 189 220 L 662 220 M 504 662 L 504 0"
           style="stroke-width:0.123in;stroke:#0000ff"
           transform="matrix(0.00423333 0 0 -0.00423333 18.6648 0)"
           id="path42443" /><path
           d="M 189 441 L 536 0 M 536 441 L 189 0"
           style="stroke-width:0.123in;stroke:#0000ff"
           transform="matrix(0.00423333 0 0 -0.00423333 21.3317 0)"
           id="path42445" /></g><g
         transform="translate(42.6362, 13.8784)"
         id="g42463"
         style="stroke:#0000ff"><path
           d="M 567 662 L 252 662 L 220 378 L 252 410 L 346 441 L 441 441 L 536 410 L 598 346 L 630 252 L 630 189 L 598 94.5 L 536 31.5 L 441 0 L 346 0 L 252 31.5 L 220 63 L 189 126"
           style="stroke-width:0.123in;stroke:#0000ff"
           transform="scale(0.00423333, -0.00423333)"
           id="path42449" /><path
           d="M 126 662 L 378 0 M 630 662 L 378 0"
           style="stroke-width:0.123in;stroke:#0000ff"
           transform="matrix(0.00423333 0 0 -0.00423333 2.667 0)"
           id="path42451" /><path
           d="M 567 662 L 252 662 L 220 378 L 252 410 L 346 441 L 441 441 L 536 410 L 598 346 L 630 252 L 630 189 L 598 94.5 L 536 31.5 L 441 0 L 346 0 L 252 31.5 L 220 63 L 189 126"
           style="stroke-width:0.123in;stroke:#0000ff"
           transform="matrix(0.00423333 0 0 -0.00423333 6.66749 0)"
           id="path42453" /><path
           d="M 378 662 L 284 630 L 220 536 L 189 378 L 189 284 L 220 126 L 284 31.5 L 378 0 L 441 0 L 536 31.5 L 598 126 L 630 284 L 630 378 L 598 536 L 536 630 L 441 662 L 378 662"
           style="stroke-width:0.123in;stroke:#0000ff"
           transform="matrix(0.00423333 0 0 -0.00423333 9.33449 0)"
           id="path42455" /><path
           d="M 378 662 L 284 630 L 220 536 L 189 378 L 189 284 L 220 126 L 284 31.5 L 378 0 L 441 0 L 536 31.5 L 598 126 L 630 284 L 630 378 L 598 536 L 536 630 L 441 662 L 378 662"
           style="stroke-width:0.123in;stroke:#0000ff"
           transform="matrix(0.00423333 0 0 -0.00423333 12.0015 0)"
           id="path42457" /><path
           d="M 220 441 L 220 0 M 220 315 L 315 410 L 378 441 L 472 441 L 536 410 L 567 315 L 567 0 M 567 315 L 662 410 L 724 441 L 819 441 L 882 410 L 914 315 L 914 0"
           style="stroke-width:0.123in;stroke:#0000ff"
           transform="matrix(0.00423333 0 0 -0.00423333 14.6685 0)"
           id="path42459" /><path
           d="M 378 662 L 126 0 M 378 662 L 630 0 M 220 220 L 536 220"
           style="stroke-width:0.123in;stroke:#0000ff"
           transform="matrix(0.00423333 0 0 -0.00423333 18.669 0)"
           id="path42461" /></g></g><g
       inkscape:label="Hershey Text"
       style="fill:none;stroke:#0000ff;stroke-linecap:round;stroke-linejoin:round"
       id="g42485"
       transform="translate(-0.75393225,1.2195749)"><g
         inkscape:label="Hershey Text"
         style="fill:none;stroke:#0000ff;stroke-linecap:round;stroke-linejoin:round"
         transform="matrix(0.264583,0,0,0.264583,-4.7570839,25.644744)"
         id="g48121"><g
           transform="translate(313.164,-69.0807)"
           id="g48109"
           style="stroke:#0000ff"><path
             d="M 220,441 V 126 L 252,31.5 315,0 h 95 l 62,31.5 95,94.5 m 0,315 V 0"
             style="stroke:#0000ff;stroke-width:0.123in"
             transform="scale(0.016,-0.016)"
             id="path48103" /><path
             d="m 536,346 -32,64 -94,31 h -95 l -95,-31 -31,-64 31,-62 64,-32 157,-32 63,-31 32,-63 V 94.5 L 504,31.5 410,0 h -95 l -95,31.5 -31,63"
             style="stroke:#0000ff;stroke-width:0.123in"
             transform="matrix(0.016,0,0,-0.016,9.568,0)"
             id="path48105" /><path
             d="M 220,662 V 0 m 0,346 64,64 62,31 h 95 l 63,-31 63,-64 31,-94 V 189 L 567,94.5 504,31.5 441,0 h -95 l -62,31.5 -64,63"
             style="stroke:#0000ff;stroke-width:0.123in"
             transform="matrix(0.016,0,0,-0.016,18.144,0)"
             id="path48107" /></g><g
           transform="translate(312.436,-49.0807)"
           id="g48119"
           style="stroke:#0000ff"><path
             d="M 220,662 V 0 m 0,315 95,95 63,31 h 94 l 64,-31 31,-95 V 0"
             style="stroke:#0000ff;stroke-width:0.123in"
             transform="scale(0.016,-0.016)"
             id="path48111" /><path
             d="M 346,441 284,410 220,346 189,252 V 189 L 220,94.5 284,31.5 346,0 h 95 l 63,31.5 63,63 31,94.5 v 63 l -31,94 -63,64 -63,31 h -95"
             style="stroke:#0000ff;stroke-width:0.123in"
             transform="matrix(0.016,0,0,-0.016,9.568,0)"
             id="path48113" /><path
             d="m 536,346 -32,64 -94,31 h -95 l -95,-31 -31,-64 31,-62 64,-32 157,-32 63,-31 32,-63 V 94.5 L 504,31.5 410,0 h -95 l -95,31.5 -31,63"
             style="stroke:#0000ff;stroke-width:0.123in"
             transform="matrix(0.016,0,0,-0.016,19.136,0)"
             id="path48115" /><path
             d="M 252,662 V 126 L 284,31.5 346,0 h 64 M 158,441 h 220"
             style="stroke:#0000ff;stroke-width:0.123in"
             transform="matrix(0.016,0,0,-0.016,27.712,0)"
             id="path48117" /></g></g></g><g
       inkscape:label="Hershey Text"
       style="fill:none;stroke:#0000ff;stroke-linecap:round;stroke-linejoin:round"
       id="g1015"
       transform="translate(1.0988815)"><g
         transform="translate(249.075,5.39332)"
         id="g1013"
         style="stroke:#0000ff"><path
           d="M 346,441 284,410 220,346 189,252 V 189 L 220,94.5 284,31.5 346,0 h 95 l 63,31.5 63,63 31,94.5 v 63 l -31,94 -63,64 -63,31 h -95"
           style="stroke-width:0.1055in;stroke:#0000ff"
           transform="scale(0.0049389,-0.0049389)"
           id="path1005" /><path
           d="M 220,441 V 126 L 252,31.5 315,0 h 95 l 62,31.5 95,94.5 m 0,315 V 0"
           style="stroke-width:0.1055in;stroke:#0000ff"
           transform="matrix(0.0049389,0,0,-0.0049389,2.95346,0)"
           id="path1007" /><path
           d="M 252,662 V 126 L 284,31.5 346,0 h 64 M 158,441 h 220"
           style="stroke-width:0.1055in;stroke:#0000ff"
           transform="matrix(0.0049389,0,0,-0.0049389,5.90692,0)"
           id="path1009" /><path
           d="m 284,536 62,31 95,95 V 0"
           style="stroke-width:0.1055in;stroke:#0000ff"
           transform="matrix(0.0049389,0,0,-0.0049389,9.64073,0)"
           id="path1011" /></g></g><g
       inkscape:label="Hershey Text"
       style="fill:none;stroke:#0000ff;stroke-linecap:round;stroke-linejoin:round"
       id="g1027"
       transform="translate(0.03808545,-0.57625)"><g
         transform="translate(276.669,5.96957)"
         id="g1025"
         style="stroke:#0000ff"><path
           d="M 346,441 284,410 220,346 189,252 V 189 L 220,94.5 284,31.5 346,0 h 95 l 63,31.5 63,63 31,94.5 v 63 l -31,94 -63,64 -63,31 h -95"
           style="stroke-width:0.1055in;stroke:#0000ff"
           transform="scale(0.0049389,-0.0049389)"
           id="path1017" /><path
           d="M 220,441 V 126 L 252,31.5 315,0 h 95 l 62,31.5 95,94.5 m 0,315 V 0"
           style="stroke-width:0.1055in;stroke:#0000ff"
           transform="matrix(0.0049389,0,0,-0.0049389,2.95346,0)"
           id="path1019" /><path
           d="M 252,662 V 126 L 284,31.5 346,0 h 64 M 158,441 h 220"
           style="stroke-width:0.1055in;stroke:#0000ff"
           transform="matrix(0.0049389,0,0,-0.0049389,5.90692,0)"
           id="path1021" /><path
           d="m 220,504 v 32 l 32,62 32,32 62,32 h 126 l 64,-32 31,-32 31,-62 V 472 L 567,410 504,315 189,0 h 441"
           style="stroke-width:0.1055in;stroke:#0000ff"
           transform="matrix(0.0049389,0,0,-0.0049389,9.64073,0)"
           id="path1023" /></g></g><g
       inkscape:label="Hershey Text"
       style="fill:none;stroke:#0000ff;stroke-linecap:round;stroke-linejoin:round"
       id="g1037"
       transform="translate(4.5576915,-1.25135)"><g
         transform="translate(301.404,6.64467)"
         id="g1035"
         style="stroke:#0000ff"><path
           d="m 189,662 31,-32 32,32 -32,31 -31,-31 M 220,441 V 0"
           style="stroke-width:0.1055in;stroke:#0000ff"
           transform="scale(0.0049389,-0.0049389)"
           id="path1029" /><path
           d="M 220,441 V 0 m 0,315 95,95 63,31 h 94 l 64,-31 31,-95 V 0"
           style="stroke-width:0.1055in;stroke:#0000ff"
           transform="matrix(0.0049389,0,0,-0.0049389,1.2446,0)"
           id="path1031" /><path
           d="m 284,536 62,31 95,95 V 0"
           style="stroke-width:0.1055in;stroke:#0000ff"
           transform="matrix(0.0049389,0,0,-0.0049389,6.06497,0)"
           id="path1033" /></g></g><g
       inkscape:label="Hershey Text"
       style="fill:none;stroke:#0000ff;stroke-linecap:round;stroke-linejoin:round"
       id="g1047"
       transform="translate(6.5139655,-0.82968)"><g
         transform="translate(325.982,6.223)"
         id="g1045"
         style="stroke:#0000ff"><path
           d="m 189,662 31,-32 32,32 -32,31 -31,-31 M 220,441 V 0"
           style="stroke-width:0.1055in;stroke:#0000ff"
           transform="scale(0.0049389,-0.0049389)"
           id="path1039" /><path
           d="M 220,441 V 0 m 0,315 95,95 63,31 h 94 l 64,-31 31,-95 V 0"
           style="stroke-width:0.1055in;stroke:#0000ff"
           transform="matrix(0.0049389,0,0,-0.0049389,1.2446,0)"
           id="path1041" /><path
           d="m 220,504 v 32 l 32,62 32,32 62,32 h 126 l 64,-32 31,-32 31,-62 V 472 L 567,410 504,315 189,0 h 441"
           style="stroke-width:0.1055in;stroke:#0000ff"
           transform="matrix(0.0049389,0,0,-0.0049389,6.06497,0)"
           id="path1043" /></g></g><g
       inkscape:label="Hershey Text"
       style="fill:none;stroke:#0000ff;stroke-linecap:round;stroke-linejoin:round"
       id="g1057"
       transform="translate(4.8999655,-1.49231)"><g
         transform="translate(354.596,6.88563)"
         id="g1055"
         style="stroke:#0000ff"><path
           d="m 189,662 31,-32 32,32 -32,31 -31,-31 M 220,441 V 0"
           style="stroke-width:0.1055in;stroke:#0000ff"
           transform="scale(0.0049389,-0.0049389)"
           id="path1049" /><path
           d="M 220,441 V 0 m 0,315 95,95 63,31 h 94 l 64,-31 31,-95 V 0"
           style="stroke-width:0.1055in;stroke:#0000ff"
           transform="matrix(0.0049389,0,0,-0.0049389,1.2446,0)"
           id="path1051" /><path
           d="M 252,662 H 598 L 410,410 h 94 l 63,-32 31,-32 32,-94 V 189 L 598,94.5 536,31.5 441,0 H 346 L 252,31.5 220,63 189,126"
           style="stroke-width:0.1055in;stroke:#0000ff"
           transform="matrix(0.0049389,0,0,-0.0049389,6.06497,0)"
           id="path1053" /></g></g></g></svg>
